<?xml version="1.0" standalone="no"?>
<!DOCTYPE svg PUBLIC "-//W3C//DTD SVG 1.1//EN" "http://www.w3.org/Graphics/SVG/1.1/DTD/svg11.dtd" >
<svg xmlns="http://www.w3.org/2000/svg" xmlns:xlink="http://www.w3.org/1999/xlink" version="1.1">
<metadata>
Created by FontForge 20150824 at Tue Mar 15 22:12:40 2016
 By Everything Fonts
Copyright (c) Irfont, 2012. All rights reserved.
</metadata>
<defs>
<font id="Arbaeen" horiz-adv-x="1" >
  <font-face 
    font-family="Arbaeen"
    font-weight="400"
    font-stretch="normal"
    units-per-em="2048"
    panose-1="2 0 5 3 7 0 0 2 0 4"
    ascent="1638"
    descent="-410"
    x-height="1069"
    cap-height="1469"
    bbox="-1090 -1613 3052 2634"
    underline-thickness="60"
    underline-position="-660"
    unicode-range="U+000D-FEFC"
  />
<missing-glyph horiz-adv-x="1239" 
d="M690 330q0 -34 -25.5 -58t-59.5 -24t-57.5 24.5t-23.5 57.5q0 35 24 59t61 24q34 0 57.5 -24t23.5 -59zM809 861q0 -49 -26 -78t-68 -29q-34 0 -55 21t-21 52q0 24 11 40.5t24.5 28t24.5 20t11 15.5q0 22 -21.5 35.5t-54.5 13.5q-43 0 -69 -23.5t-26 -58.5
q0 -19 11.5 -47.5t25.5 -56.5t26.5 -50.5t14.5 -28.5q12 -32 19.5 -69t7.5 -80q0 -22 -1.5 -45.5t-3.5 -52.5h-43v20l4 33q0 37 -49 80q-42 36 -64.5 57t-27.5 27q-49 58 -49 132q0 45 16.5 83t45 66t66 44t80.5 16q40 0 74.5 -11.5t60.5 -33.5t41 -52t15 -68zM146 34h950
v1205h-950v-1205zM111 0v1274h1018v-1274h-1018z" />
    <glyph glyph-name="afii57410" unicode="&#x627;&#x653;" horiz-adv-x="742" 
d="M-102 1351q23 42 54.5 82t65 71.5t66.5 50.5t58 19q8 0 25 -4t39 -10.5t46.5 -13.5t47.5 -13.5t42 -10.5t30 -4q111 0 267 117l3 -46q-116 -194 -268 -194q-14 0 -48.5 8t-72 18t-69.5 18t-42 8q-25 0 -57 -12.5t-65 -33t-64.5 -46.5t-55.5 -54zM213 1133q6 -39 16 -88
t23 -117q24 -126 35 -217t11 -154q0 -97 -27.5 -199.5t-73.5 -216.5l-18 9q12 70 18.5 133t6.5 126q0 46 -3.5 93t-10 97.5t-16.5 105.5t-23 118q-51 245 -51 353q0 28 26 73.5t68 111.5q7 -6 15 -13q25 -23 47 -51t40 -61.5t31 -68t20 -70t7 -69.5q0 -33 -7.5 -62.5
t-24.5 -54.5q-11 -26 -16 -37t-6 -11v1q0 3 2.5 14t6.5 26q5 19 5 45q0 22 -3 46.5t-9.5 50.5t-16 50.5t-21.5 45.5t-27.5 37t-33.5 24q3 -32 10 -70z" />
    <glyph glyph-name="afii57411" unicode="&#x627;&#x654;" horiz-adv-x="398" 
d="M296 1583q10 -27 10 -50q0 -33 -19 -54t-50 -34t-70 -19.5t-78.5 -12t-75.5 -11t-61 -15.5l-22 16q2 19 20.5 31.5t44.5 20.5t56 13.5t55 10t42 9.5t17 13q0 17 -16 27t-34.5 21t-34.5 26t-16 41t16 60t40 65t53.5 52.5t56.5 21.5l-9 -79q-57 -8 -83 -65q7 -9 31.5 -18
t51.5 -19.5t49.5 -23t25.5 -27.5zM213 1133q6 -39 16 -88t23 -117q24 -126 35 -217t11 -154q0 -97 -27.5 -199.5t-73.5 -216.5l-18 9q12 70 18.5 133t6.5 126q0 46 -3.5 93t-10 97.5t-16.5 105.5t-23 118q-51 245 -51 353q0 28 26 73.5t68 111.5q7 -6 15 -13q25 -23 47 -51
t40 -61.5t31 -68t20 -70t7 -69.5q0 -33 -7.5 -62.5t-24.5 -54.5q-11 -26 -16 -37t-6 -11v1q0 3 2.5 14t6.5 26q5 19 5 45q0 22 -3 46.5t-9.5 50.5t-16 50.5t-21.5 45.5t-27.5 37t-33.5 24q3 -32 10 -70z" />
    <glyph glyph-name="afii57412" unicode="&#x648;&#x654;" horiz-adv-x="885" 
d="M785 578q0 -603 -617 -861q-78 25 -193.5 89.5t-274.5 170.5l8 16q247 -116 318 -116q33 0 79.5 13t100.5 36.5t111.5 56t113 71.5t105 83t86.5 90.5t59 94t22 93.5q0 60 -40 110q-24 -46 -41.5 -80t-39 -56t-52.5 -33t-83 -11q-211 0 -211 199q0 24 10 68.5t27 96.5
t41 106.5t52.5 98.5t59.5 72t64 28q41 0 79 -22.5t71 -59.5t59.5 -84t45.5 -95.5t29.5 -94.5t10.5 -80zM631 606q0 31 -20 61t-50.5 54t-68 38.5t-72.5 14.5q-40 0 -68 -24.5t-28 -81.5q0 -23 17 -40t44 -28t60 -16t66 -5q39 0 71.5 6.5t48.5 20.5zM437 1355q10 -27 10 -50
q0 -33 -19 -54t-50 -34t-70 -19.5t-78.5 -12t-75.5 -11t-61 -15.5l-22 16q2 19 20.5 31.5t44.5 20.5t56 13.5t55 10t42 9.5t17 13q0 17 -16 27t-34.5 21t-34.5 26t-16 41t16 60t40 65t53.5 52.5t56.5 21.5l-9 -79q-57 -8 -83 -65q7 -9 31.5 -18t51.5 -19.5t49.5 -23
t25.5 -27.5z" />
    <glyph glyph-name="afii57413" unicode="&#x627;&#x655;" horiz-adv-x="398" 
d="M318 -195q10 -27 10 -50q0 -33 -19 -54t-50 -34t-70 -20t-78.5 -12.5t-75.5 -10.5t-61 -15l-22 16q2 19 20.5 31.5t44.5 20.5t56 13.5t55 10t42 9t17 12.5q0 17 -16 27.5t-34.5 21.5t-34.5 26t-16 41q0 25 16 59.5t40 65.5t53.5 52.5t56.5 21.5l-9 -79q-57 -8 -83 -65
q7 -9 31.5 -18t51.5 -19.5t49.5 -23t25.5 -27.5zM213 1133q6 -39 16 -88t23 -117q24 -126 35 -217t11 -154q0 -97 -27.5 -199.5t-73.5 -216.5l-18 9q12 70 18.5 133t6.5 126q0 46 -3.5 93t-10 97.5t-16.5 105.5t-23 118q-51 245 -51 353q0 28 26 73.5t68 111.5q7 -6 15 -13
q25 -23 47 -51t40 -61.5t31 -68t20 -70t7 -69.5q0 -33 -7.5 -62.5t-24.5 -54.5q-11 -26 -16 -37t-6 -11v1q0 3 2.5 14t6.5 26q5 19 5 45q0 22 -3 46.5t-9.5 50.5t-16 50.5t-21.5 45.5t-27.5 37t-33.5 24q3 -32 10 -70z" />
    <glyph glyph-name="afii57414" unicode="&#x64a;&#x654;" horiz-adv-x="1448" 
d="M1348 218q0 -10 -4 -32t-10.5 -50.5t-15.5 -59t-18 -58t-17.5 -48.5t-15.5 -29q-25 -38 -79.5 -72t-126 -63.5t-152.5 -53.5t-158.5 -41t-145 -26t-110.5 -9q-138 0 -232.5 38t-152.5 103.5t-83.5 153.5t-25.5 188q0 69 10.5 142t29.5 146t45 144.5t57 137.5l31 -12
q-61 -135 -89 -244t-28 -197q0 -106 36.5 -180t100.5 -121t149.5 -68.5t184.5 -21.5q85 0 176.5 14.5t182 41.5t178 65.5t165.5 84.5q-32 28 -83.5 48.5t-110 37.5t-118 32.5t-107.5 34t-78 41.5t-30 54q0 76 17 150.5t48.5 142t78 125t105 99.5t129 66t150.5 24
q35 0 57.5 -6.5t35.5 -22t18 -42t5 -66.5q0 -32 -4.5 -59.5t-14.5 -36.5q-66 32 -168 32q-16 0 -48.5 -10.5t-71.5 -28.5t-80 -41.5t-75 -50t-55.5 -54t-21.5 -52.5v-8q3 -13 28 -27.5t63.5 -30.5t86.5 -33t98 -35.5t97.5 -37.5t84.5 -38.5t59.5 -39.5t22.5 -40zM360 1092
q10 -27 10 -50q0 -33 -19 -54t-50 -34t-70 -19.5t-78.5 -12t-75.5 -11t-61 -15.5l-22 16q2 19 20.5 31.5t44.5 20.5t56 13.5t55 10t42 9.5t17 13q0 17 -16 27t-34.5 21t-34.5 26t-16 41t16 60t40 65t53.5 52.5t56.5 21.5l-9 -79q-57 -8 -83 -65q7 -9 31.5 -18t51.5 -19.5
t49.5 -23t25.5 -27.5z" />
    <glyph glyph-name="uni0681" unicode="&#x62d;&#x654;" horiz-adv-x="1453" 
d="M1513 -751l-1 -38q-49 -23 -109 -52t-126 -59t-134.5 -59t-133.5 -51.5t-125 -36t-108 -13.5q-165 0 -307 37.5t-246 117.5t-163.5 204.5t-59.5 298.5q0 156 40.5 292t119 250t193.5 206t264 159q-32 9 -68.5 19t-75 18.5t-78 14t-77.5 5.5t-74 -6.5t-68 -22.5t-59 -43
t-47 -67l-21 6q31 94 68.5 155.5t81.5 97.5t95 50.5t110 14.5q66 0 141.5 -13t162.5 -28.5t185 -28.5t208 -13q39 0 78.5 1.5t81.5 6.5l-92 -180q-14 1 -28.5 1.5t-29.5 0.5q-118 0 -242 -26.5t-240 -76t-218.5 -121.5t-179.5 -162.5t-121.5 -199t-44.5 -231.5
q0 -98 35 -173.5t96.5 -132t144.5 -95t179 -62t201 -34t209 -10.5q86 0 169.5 6t159 17t140.5 25t114 31zM837 1115q10 -27 10 -50q0 -33 -19 -54t-50 -34t-70 -19.5t-78.5 -12t-75.5 -11t-61 -15.5l-22 16q2 19 20.5 31.5t44.5 20.5t56 13.5t55 10t42 9.5t17 13
q0 17 -16 27t-34.5 21t-34.5 26t-16 41t16 60t40 65t53.5 52.5t56.5 21.5l-9 -79q-57 -8 -83 -65q7 -9 31.5 -18t51.5 -19.5t49.5 -23t25.5 -27.5z" />
    <glyph glyph-name="uni06BE" unicode="&#xfba8;&#x200d;" horiz-adv-x="1147" 
d="M1047 220q0 -29 -50 -193q-127 46 -249.5 73.5t-246.5 38.5q-58 6 -170.5 9t-270.5 2q-144 0 -245.5 -7.5t-167.5 -7.5q-75 0 -107 6t-32 17q0 13 40.5 31t101.5 38.5t132 40.5t132 37t101.5 29t40.5 16q3 65 17 134.5t43 136.5t74.5 128t110.5 110q-53 24 -103 119
l273 116q12 -70 160 -206q109 -100 174 -162.5t87 -88.5q54 -58 84.5 -108t46.5 -99t20 -100t4 -110zM922 304q0 175 -381 451q7 -27 10 -73t3 -98q0 -46 -2 -91.5t-6 -82.5t-9 -60.5t-11 -24.5q58 -5 110.5 -9t100.5 -11.5t92 -20.5t86 -37q7 24 7 57zM472 415q3 14 3 30
q0 35 -10 78.5t-27.5 81t-41 63t-50.5 25.5q-18 0 -48 -16t-58.5 -39t-49.5 -49.5t-21 -47.5q40 -159 174 -230q65 43 129 104z" />
    <glyph glyph-name="uni06C0" unicode="&#x647;&#x654;" horiz-adv-x="649" 
d="M341 1173q10 -27 10 -50q0 -33 -19 -54t-50 -34t-70 -19.5t-78.5 -12t-75.5 -11t-61 -15.5l-22 16q2 19 20.5 31.5t44.5 20.5t56 13.5t55 10t42 9.5t17 13q0 17 -16 27t-34.5 21t-34.5 26t-16 41t16 60t40 65t53.5 52.5t56.5 21.5l-9 -79q-57 -8 -83 -65q7 -9 31.5 -18
t51.5 -19.5t49.5 -23t25.5 -27.5zM310 346q54 0 92 18t61 44q-16 33 -44 64t-63 55t-73 38.5t-74 14.5q-25 0 -47 -8.5t-39.5 -27.5t-29 -49t-14.5 -73q9 -16 25.5 -30t44 -24t67 -16t94.5 -6zM547 451q1 -10 1.5 -19.5t0.5 -18.5q0 -72 -23.5 -123t-62.5 -83.5t-88.5 -47
t-100.5 -14.5t-100.5 13.5t-88 37.5t-62 58t-23.5 74q0 23 9.5 68t26.5 99.5t40.5 111.5t51.5 103.5t58.5 76.5t62.5 30q31 0 64.5 -16.5t65.5 -44.5t61 -65t52 -78t37.5 -82.5t17.5 -79.5z" />
    <glyph glyph-name="uni06C2" unicode="&#x6c1;&#x654;" horiz-adv-x="649" 
d="M310 346q54 0 92 18t61 44q-16 33 -44 64t-63 55t-73 38.5t-74 14.5q-25 0 -47 -8.5t-39.5 -27.5t-29 -49t-14.5 -73q9 -16 25.5 -30t44 -24t67 -16t94.5 -6zM547 451q1 -10 1.5 -19.5t0.5 -18.5q0 -72 -23.5 -123t-62.5 -83.5t-88.5 -47t-100.5 -14.5t-100.5 13.5
t-88 37.5t-62 58t-23.5 74q0 23 9.5 68t26.5 99.5t40.5 111.5t51.5 103.5t58.5 76.5t62.5 30q31 0 64.5 -16.5t65.5 -44.5t61 -65t52 -78t37.5 -82.5t17.5 -79.5zM341 1173q10 -27 10 -50q0 -33 -19 -54t-50 -34t-70 -19.5t-78.5 -12t-75.5 -11t-61 -15.5l-22 16
q2 19 20.5 31.5t44.5 20.5t56 13.5t55 10t42 9.5t17 13q0 17 -16 27t-34.5 21t-34.5 26t-16 41t16 60t40 65t53.5 52.5t56.5 21.5l-9 -79q-57 -8 -83 -65q7 -9 31.5 -18t51.5 -19.5t49.5 -23t25.5 -27.5z" />
    <glyph glyph-name="uni06C7" unicode="&#x648;&#x64f;" horiz-adv-x="885" 
d="M785 448q0 -603 -617 -861q-78 25 -193.5 89.5t-274.5 170.5l8 16q247 -116 318 -116q33 0 79.5 13t100.5 36.5t111.5 56t113 71.5t105 83t86.5 90.5t59 94t22 93.5q0 60 -40 110q-24 -46 -41.5 -80t-39 -56t-52.5 -33t-83 -11q-211 0 -211 199q0 24 10 68.5t27 96.5
t41 106.5t52.5 98.5t59.5 72t64 28q41 0 79 -22.5t71 -59.5t59.5 -84t45.5 -95.5t29.5 -94.5t10.5 -80zM631 476q0 31 -20 61t-50.5 54t-68 38.5t-72.5 14.5q-40 0 -68 -24.5t-28 -81.5q0 -23 17 -40t44 -28t60 -16t66 -5q39 0 71.5 6.5t48.5 20.5zM554 1252
q0 -58 -102 -102l84 -72q-35 0 -59.5 2.5t-42.5 7t-31.5 11.5t-26.5 16q-32 -19 -70 -39.5t-77.5 -37t-78.5 -27.5t-75 -11h-127q152 54 357 171q-45 29 -64.5 57t-19.5 56q0 33 22 64.5t54.5 61t69 56.5t65.5 51q0 -9 9 -30t22.5 -47t29.5 -55t29.5 -55.5t22.5 -47t9 -30.5
zM462 1266q0 19 -7.5 33.5t-19.5 24.5t-27 15.5t-30 5.5q-24 0 -42 -14t-18 -43q0 -21 69 -83q75 44 75 61z" />
    <glyph glyph-name="uni06C8" unicode="&#x648;&#x670;" horiz-adv-x="885" 
d="M785 448q0 -603 -617 -861q-78 25 -193.5 89.5t-274.5 170.5l8 16q247 -116 318 -116q33 0 79.5 13t100.5 36.5t111.5 56t113 71.5t105 83t86.5 90.5t59 94t22 93.5q0 60 -40 110q-24 -46 -41.5 -80t-39 -56t-52.5 -33t-83 -11q-211 0 -211 199q0 24 10 68.5t27 96.5
t41 106.5t52.5 98.5t59.5 72t64 28q41 0 79 -22.5t71 -59.5t59.5 -84t45.5 -95.5t29.5 -94.5t10.5 -80zM631 476q0 31 -20 61t-50.5 54t-68 38.5t-72.5 14.5q-40 0 -68 -24.5t-28 -81.5q0 -23 17 -40t44 -28t60 -16t66 -5q39 0 71.5 6.5t48.5 20.5zM382 1164q0 -92 -82 -204
l-12 6q17 36 25 68.5t8 66.5q0 42 -11.5 87.5t-34.5 101.5q-20 52 -33 86t-13 62q0 27 15 53t52 61l10 -6q-2 -14 -3 -25.5t-1 -22.5q0 -15 2.5 -30t7 -33t12 -40.5l17.5 -52.5q41 -120 41 -178z" />
    <glyph glyph-name="uni06D3" unicode="&#x6d2;&#x654;" horiz-adv-x="2220" 
d="M1733 1031q10 -27 10 -50q0 -33 -19 -54t-50 -34t-70 -19.5t-78.5 -12t-75.5 -11t-61 -15.5l-22 16q2 19 20.5 31.5t44.5 20.5t56 13.5t55 10t42 9.5t17 13q0 17 -16 27t-34.5 21t-34.5 26t-16 41t16 60t40 65t53.5 52.5t56.5 21.5l-9 -79q-57 -8 -83 -65q7 -9 31.5 -18
t51.5 -19.5t49.5 -23t25.5 -27.5zM258 -301q0 -19 28.5 -31t79 -19.5t120.5 -10.5t152 -3q99 0 212 3t228.5 7t229.5 7t214 3q84 0 152 -11.5t123 -30t99.5 -42t82.5 -47t71.5 -45t65.5 -36.5l-46 -39q-28 15 -50 29t-42 26.5t-41.5 22.5t-49.5 17.5t-65 11.5t-88 4
q-43 0 -97 -3t-123 -10q-43 -4 -110 -8t-147 -8t-168 -7.5t-173.5 -6t-163.5 -4t-139 -1.5q-186 0 -305.5 11.5t-187.5 38.5t-94 71.5t-26 110.5q0 50 31 90.5t85.5 73.5t127.5 60t157 49.5t175 42t181 37.5q148 29 284 70.5t250 101t201 139.5t136 186q13 27 32 58.5
t42.5 57.5t48.5 43.5t50 17.5q24 0 44.5 -19t37.5 -64q12 -30 23 -57t32 -59.5t58 -75t101 -104.5l-45 -40q-44 32 -75 52t-54.5 36.5t-43 35t-40.5 47.5q-15 21 -28.5 30t-27.5 9q-16 0 -30.5 -10.5t-27 -27t-23 -37.5t-18.5 -42q-28 -64 -85.5 -122.5t-134.5 -109.5
t-167.5 -94t-184.5 -77.5t-186.5 -59t-171.5 -38.5q-90 -17 -179 -34.5t-159.5 -40t-114 -52.5t-43.5 -73z" />
    <glyph glyph-name="uni06C2.fin" unicode="&#xfba7;&#x654;" horiz-adv-x="806" 
d="M360 1232q10 -27 10 -50q0 -33 -19 -54t-50 -34t-70 -19.5t-78.5 -12t-75.5 -11t-61 -15.5l-22 16q2 19 20.5 31.5t44.5 20.5t56 13.5t55 10t42 9.5t17 13q0 17 -16 27t-34.5 21t-34.5 26t-16 41t16 60t40 65t53.5 52.5t56.5 21.5l-9 -79q-57 -8 -83 -65q7 -9 31.5 -18
t51.5 -19.5t49.5 -23t25.5 -27.5zM836 150h-70q-75 0 -130 28t-96 70.5t-70.5 91.5t-52.5 91.5t-42 70.5t-39 28q-15 0 -31 -17t-35.5 -56.5t-44 -103.5t-54.5 -158q-7 -7 -17.5 -33.5t-22.5 -62.5t-26 -76t-28.5 -74t-30 -56t-30.5 -22q-9 0 -16 7q0 6 9.5 50.5t24 108.5
t31.5 138.5t33 140.5t28 114t16 60q33 87 60 147t50.5 96.5t43 53t37.5 16.5q28 0 53 -33.5t52.5 -84t60 -109t76 -109t100 -84t131.5 -33.5h30v-200z" />
    <glyph glyph-name="uni0681.fin" unicode="&#xfea2;&#x654;" horiz-adv-x="1310" 
d="M1513 -751l-1 -38q-49 -23 -109 -52t-126 -59t-134.5 -59t-133.5 -51.5t-125 -36t-108 -13.5q-165 0 -307 37.5t-246 117.5t-163.5 204.5t-59.5 298.5q0 156 40.5 292t119 250t193.5 206t264 159q-32 9 -68.5 19t-75 18.5t-78 14t-77.5 5.5t-74 -6.5t-68 -22.5t-59 -43
t-47 -67l-21 6q31 94 68.5 155.5t81.5 97.5t95 50.5t110 14.5q66 0 141.5 -13t162.5 -28.5t185 -28.5t208 -13q39 0 78.5 1.5t81.5 6.5l-92 -180q-14 1 -27 1.5t-27 0.5q-38 0 -76.5 -3t-78.5 -8q5 -36 26.5 -61t63.5 -41t106 -23.5t154 -7.5h30v-200h-70
q-110 0 -183.5 14.5t-118 44t-63 73.5t-18.5 103q0 20 1.5 42t5.5 45q-104 -20 -205.5 -58t-193.5 -91.5t-171 -122t-136.5 -150t-90 -175.5t-32.5 -198q0 -98 35 -173.5t96.5 -132t144.5 -95t179 -62t201 -34t209 -10.5q86 0 169.5 6t159 17t140.5 25t114 31zM837 1115
q10 -27 10 -50q0 -33 -19 -54t-50 -34t-70 -19.5t-78.5 -12t-75.5 -11t-61 -15.5l-22 16q2 19 20.5 31.5t44.5 20.5t56 13.5t55 10t42 9.5t17 13q0 17 -16 27t-34.5 21t-34.5 26t-16 41t16 60t40 65t53.5 52.5t56.5 21.5l-9 -79q-57 -8 -83 -65q7 -9 31.5 -18t51.5 -19.5
t49.5 -23t25.5 -27.5z" />
    <glyph glyph-name="uni0681.ini" unicode="&#xfea3;&#x654;" horiz-adv-x="1520" 
d="M1470 620l-95 -183q-124 25 -223 25q-106 0 -189 -23t-157.5 -58t-148 -75t-161.5 -75t-198.5 -58t-257.5 -23h-70v200h30q126 4 239.5 17t215.5 39.5t195 68.5t179 104q-19 10 -62 27t-100.5 33t-125.5 27.5t-137 11.5q-63 0 -123.5 -12t-112.5 -42t-92 -80.5
t-62 -127.5l-21 9q29 125 68.5 209t89.5 134.5t111 71.5t132 21q66 0 141 -15t157.5 -38.5t172.5 -52t187.5 -55.5t202 -48.5t215.5 -31.5zM708 1299q10 -27 10 -50q0 -33 -19 -54t-50 -34t-70 -19.5t-78.5 -12t-75.5 -11t-61 -15.5l-22 16q2 19 20.5 31.5t44.5 20.5
t56 13.5t55 10t42 9.5t17 13q0 17 -16 27t-34.5 21t-34.5 26t-16 41t16 60t40 65t53.5 52.5t56.5 21.5l-9 -79q-57 -8 -83 -65q7 -9 31.5 -18t51.5 -19.5t49.5 -23t25.5 -27.5z" />
    <glyph glyph-name="uni0681.med" unicode="&#xfea4;&#x654;" horiz-adv-x="1525" 
d="M1470 620l-95 -183q-58 11 -110.5 17.5t-100.5 7.5q6 -28 24 -49t58.5 -35t107.5 -21t171 -7h30v-200h-70q-139 0 -220.5 24t-124 66t-55 98t-12.5 120q-90 -9 -163.5 -35.5t-142.5 -60.5t-139.5 -71.5t-155 -68.5t-189.5 -51.5t-243 -20.5h-70v200h30q126 4 239.5 17
t215.5 39.5t195 68.5t179 104q-19 10 -62 27t-100.5 33t-125.5 27.5t-137 11.5q-63 0 -123.5 -12t-112.5 -42t-92 -80.5t-62 -127.5l-21 9q29 125 68.5 209t89.5 134.5t111 71.5t132 21q66 0 141 -15t157.5 -38.5t172.5 -52t187.5 -55.5t202 -48.5t215.5 -31.5zM708 1299
q10 -27 10 -50q0 -33 -19 -54t-50 -34t-70 -19.5t-78.5 -12t-75.5 -11t-61 -15.5l-22 16q2 19 20.5 31.5t44.5 20.5t56 13.5t55 10t42 9.5t17 13q0 17 -16 27t-34.5 21t-34.5 26t-16 41t16 60t40 65t53.5 52.5t56.5 21.5l-9 -79q-57 -8 -83 -65q7 -9 31.5 -18t51.5 -19.5
t49.5 -23t25.5 -27.5z" />
    <glyph glyph-name="uni06CC_uni0659" unicode="&#x6cc;&#x659;" horiz-adv-x="1448" 
d="M1348 218q0 -10 -4 -32t-10.5 -50.5t-15.5 -59t-18 -58t-17.5 -48.5t-15.5 -29q-25 -38 -79.5 -72t-126 -63.5t-152.5 -53.5t-158.5 -41t-145 -26t-110.5 -9q-138 0 -232.5 38t-152.5 103.5t-83.5 153.5t-25.5 188q0 69 10.5 142t29.5 146t45 144.5t57 137.5l31 -12
q-61 -135 -89 -244t-28 -197q0 -106 36.5 -180t100.5 -121t149.5 -68.5t184.5 -21.5q85 0 176.5 14.5t182 41.5t178 65.5t165.5 84.5q-32 28 -83.5 48.5t-110 37.5t-118 32.5t-107.5 34t-78 41.5t-30 54q0 76 17 150.5t48.5 142t78 125t105 99.5t129 66t150.5 24
q35 0 57.5 -6.5t35.5 -22t18 -42t5 -66.5q0 -32 -4.5 -59.5t-14.5 -36.5q-66 32 -168 32q-16 0 -48.5 -10.5t-71.5 -28.5t-80 -41.5t-75 -50t-55.5 -54t-21.5 -52.5v-8q3 -13 28 -27.5t63.5 -30.5t86.5 -33t98 -35.5t97.5 -37.5t84.5 -38.5t59.5 -39.5t22.5 -40zM182 1149
q0 9 25.5 10t68.5 2t101 5.5t122 20.5q62 15 100 18.5t68 4.5q32 0 49.5 -6t26.5 -14t11 -17t2 -14q0 -9 -15 -13.5t-46.5 -10t-79.5 -15t-113 -28.5q-48 -17 -89.5 -23.5t-73.5 -6.5q-46 0 -76.5 11.5t-48.5 26.5t-25 29.5t-7 19.5z" />
    <glyph glyph-name="uni06CC_uni0659.fin" unicode="&#xfbfd;&#x659;" horiz-adv-x="1460" 
d="M132 777q0 9 25.5 10t68.5 2t101 5.5t122 20.5q62 15 100 18.5t68 4.5q32 0 49.5 -6t26.5 -14t11 -17t2 -14q0 -9 -15 -13.5t-46.5 -10t-79.5 -15t-113 -28.5q-48 -17 -89.5 -23.5t-73.5 -6.5q-46 0 -76.5 11.5t-48.5 26.5t-25 29.5t-7 19.5zM1460 150q-105 0 -208 -5
t-185 -15t-133 -25t-51 -35q219 -83 235 -95q171 -78 171 -167q0 -9 -4 -30.5t-10 -49.5t-14.5 -59t-17 -58t-17 -46.5t-15.5 -24.5q-33 -36 -91.5 -68t-131 -59t-152 -49t-153.5 -37.5t-137 -23.5t-101 -8q-138 0 -233 38t-153 103.5t-83.5 153t-25.5 187.5q0 69 11 142
t30 146.5t45 145t57 137.5l31 -12q-61 -135 -89 -244t-28 -197q0 -105 37 -179.5t100.5 -121.5t149.5 -68.5t184 -21.5q80 0 164.5 13t169.5 37t168 57.5t158 74.5q14 15 14 32q0 16 -15 31.5t-42 31.5t-65 33t-85 35q-210 82 -210 123q0 29 8 58.5t20.5 60t27.5 62.5t30 65
q16 22 51.5 40.5t83.5 33t106 25.5t119 18.5t122.5 11t116.5 3.5h70v-200h-30z" />
    <glyph glyph-name="uni06CC_uni0659.ini" unicode="&#xfbfe;&#x659;" horiz-adv-x="458" 
d="M483 -235l-111 -161l-183 107l109 164zM203 -235l-96 -161l-184 107l106 164zM358 603q0 -43 -2.5 -96t-18.5 -117q-13 -65 -35.5 -111t-57.5 -74.5t-85 -41.5t-119 -13h-70v200h30q55 0 105.5 2.5t89.5 8t63.5 14t27.5 20.5q-10 68 -22.5 117t-30.5 89.5t-42.5 76
t-56.5 75.5q7 85 67 161q21 -10 40.5 -31t37 -48.5t32 -59t25 -63t16.5 -60t6 -49.5zM-142 1165q0 9 25.5 10t68.5 2t101 5.5t122 20.5q62 15 100 18.5t68 4.5q32 0 49.5 -6t26.5 -14t11 -17t2 -14q0 -9 -15 -13.5t-46.5 -10t-79.5 -15t-113 -28.5q-48 -17 -89.5 -23.5
t-73.5 -6.5q-47 0 -77 11.5t-48 26.5t-25 29.5t-7 19.5z" />
    <glyph glyph-name="uni06CC_uni0659.med" unicode="&#xfbff;&#x659;" horiz-adv-x="640" 
d="M670 150h-70q-209 0 -299 163q-18 -34 -42.5 -64t-56.5 -52t-72 -34.5t-90 -12.5h-70v200h30q56 0 98 3.5t74.5 14.5t58.5 30.5t50 51.5t48.5 78.5t54.5 110.5l20 -15q-14 -29 -20.5 -54t-6.5 -48q0 -43 21.5 -75.5t58 -54t84 -32t99.5 -10.5h30v-200zM-142 995
q0 9 25.5 10t68.5 2t101 5.5t122 20.5q62 15 100 18.5t68 4.5q32 0 49.5 -6t26.5 -14t11 -17t2 -14q0 -9 -15 -13.5t-46.5 -10t-79.5 -15t-113 -28.5q-48 -17 -89.5 -23.5t-73.5 -6.5q-47 0 -77 11.5t-48 26.5t-25 29.5t-7 19.5zM483 -235l-111 -161l-183 107l109 164z
M203 -235l-96 -161l-184 107l106 164z" />
    <glyph glyph-name="afii57448_uni0659" unicode="&#x648;&#x659;" horiz-adv-x="885" 
d="M785 448q0 -603 -617 -861q-78 25 -193.5 89.5t-274.5 170.5l8 16q247 -116 318 -116q33 0 79.5 13t100.5 36.5t111.5 56t113 71.5t105 83t86.5 90.5t59 94t22 93.5q0 60 -40 110q-24 -46 -41.5 -80t-39 -56t-52.5 -33t-83 -11q-211 0 -211 199q0 24 10 68.5t27 96.5
t41 106.5t52.5 98.5t59.5 72t64 28q41 0 79 -22.5t71 -59.5t59.5 -84t45.5 -95.5t29.5 -94.5t10.5 -80zM631 476q0 31 -20 61t-50.5 54t-68 38.5t-72.5 14.5q-40 0 -68 -24.5t-28 -81.5q0 -23 17 -40t44 -28t60 -16t66 -5q39 0 71.5 6.5t48.5 20.5zM-14 1320q0 9 25.5 10
t68.5 2t101 5.5t122 20.5q62 15 100 18.5t68 4.5q32 0 49.5 -6t26.5 -14t11 -17t2 -14q0 -9 -15 -13.5t-46.5 -10t-79.5 -15t-113 -28.5q-48 -17 -89.5 -23.5t-73.5 -6.5q-46 0 -76.5 11.5t-48.5 26.5t-25 29.5t-7 19.5z" />
    <glyph glyph-name="afii57448_uni0659.fin" unicode="&#xfeee;&#x659;" horiz-adv-x="1024" 
d="M1054 148h-192q-35 -93 -94.5 -181.5t-136 -163t-166.5 -131t-185 -85.5q-63 15 -139 47.5t-153.5 73t-152 84t-135.5 79.5l6 13q312 -137 451 -137q37 0 92.5 19.5t119 52t128.5 74.5t119.5 87t93.5 89.5t50 82.5q-55 0 -111.5 12t-102 38.5t-74.5 69t-29 103.5
q0 35 8 80t24 91.5t39 91.5t52.5 79.5t65 56t76.5 21.5q32 0 60 -18t51 -47.5t41 -68.5t30.5 -81t19 -84t6.5 -78q0 -39 -8 -69h146v-201zM802 352q1 5 1.5 10.5t0.5 11.5q0 37 -15.5 77.5t-39.5 74t-52.5 55.5t-54.5 22q-25 0 -45.5 -10t-35.5 -27t-23.5 -39t-8.5 -46
q0 -109 273 -129zM165 1111q0 9 25.5 10t68.5 2t101 5.5t122 20.5q62 15 100 18.5t68 4.5q32 0 49.5 -6t26.5 -14t11 -17t2 -14q0 -9 -15 -13.5t-46.5 -10t-79.5 -15t-113 -28.5q-48 -17 -89.5 -23.5t-73.5 -6.5q-46 0 -76.5 11.5t-48.5 26.5t-25 29.5t-7 19.5z" />
    <glyph glyph-name="uni06CC_uni0654" unicode="&#x6cc;&#x654;" horiz-adv-x="1448" 
d="M1348 218q0 -10 -4 -32t-10.5 -50.5t-15.5 -59t-18 -58t-17.5 -48.5t-15.5 -29q-25 -38 -79.5 -72t-126 -63.5t-152.5 -53.5t-158.5 -41t-145 -26t-110.5 -9q-138 0 -232.5 38t-152.5 103.5t-83.5 153.5t-25.5 188q0 69 10.5 142t29.5 146t45 144.5t57 137.5l31 -12
q-61 -135 -89 -244t-28 -197q0 -106 36.5 -180t100.5 -121t149.5 -68.5t184.5 -21.5q85 0 176.5 14.5t182 41.5t178 65.5t165.5 84.5q-32 28 -83.5 48.5t-110 37.5t-118 32.5t-107.5 34t-78 41.5t-30 54q0 76 17 150.5t48.5 142t78 125t105 99.5t129 66t150.5 24
q35 0 57.5 -6.5t35.5 -22t18 -42t5 -66.5q0 -32 -4.5 -59.5t-14.5 -36.5q-66 32 -168 32q-16 0 -48.5 -10.5t-71.5 -28.5t-80 -41.5t-75 -50t-55.5 -54t-21.5 -52.5v-8q3 -13 28 -27.5t63.5 -30.5t86.5 -33t98 -35.5t97.5 -37.5t84.5 -38.5t59.5 -39.5t22.5 -40zM360 1092
q10 -27 10 -50q0 -33 -19 -54t-50 -34t-70 -19.5t-78.5 -12t-75.5 -11t-61 -15.5l-22 16q2 19 20.5 31.5t44.5 20.5t56 13.5t55 10t42 9.5t17 13q0 17 -16 27t-34.5 21t-34.5 26t-16 41t16 60t40 65t53.5 52.5t56.5 21.5l-9 -79q-57 -8 -83 -65q7 -9 31.5 -18t51.5 -19.5
t49.5 -23t25.5 -27.5z" />
    <glyph glyph-name="uni06CC_uni0654.fin" unicode="&#xfbfd;&#x654;" horiz-adv-x="1460" 
d="M316 722q10 -27 10 -50q0 -33 -19 -54t-50 -34t-70 -19.5t-78.5 -12t-75.5 -11t-61 -15.5l-22 16q2 19 20.5 31.5t44.5 20.5t56 13.5t55 10t42 9.5t17 13q0 17 -16 27t-34.5 21t-34.5 26t-16 41t16 60t40 65t53.5 52.5t56.5 21.5l-9 -79q-57 -8 -83 -65q7 -9 31.5 -18
t51.5 -19.5t49.5 -23t25.5 -27.5zM1460 150q-105 0 -208 -5t-185 -15t-133 -25t-51 -35q219 -83 235 -95q171 -78 171 -167q0 -9 -4 -30.5t-10 -49.5t-14.5 -59t-17 -58t-17 -46.5t-15.5 -24.5q-33 -36 -91.5 -68t-131 -59t-152 -49t-153.5 -37.5t-137 -23.5t-101 -8
q-138 0 -233 38t-153 103.5t-83.5 153t-25.5 187.5q0 69 11 142t30 146.5t45 145t57 137.5l31 -12q-61 -135 -89 -244t-28 -197q0 -105 37 -179.5t100.5 -121.5t149.5 -68.5t184 -21.5q80 0 164.5 13t169.5 37t168 57.5t158 74.5q14 15 14 32q0 16 -15 31.5t-42 31.5t-65 33
t-85 35q-210 82 -210 123q0 29 8 58.5t20.5 60t27.5 62.5t30 65q16 22 51.5 40.5t83.5 33t106 25.5t119 18.5t122.5 11t116.5 3.5h70v-200h-30z" />
    <glyph glyph-name="fi" unicode="fi" horiz-adv-x="1019" 
d="M709 1272v197h172v-197h-172zM709 1064h172v-1064h-172v1064zM212 1400q63 90 242 90q34 0 73 -3v-157q-9 2 -16 2h-12q-57 0 -88 -7t-45.5 -34t-16.5 -80.5t-2 -146.5h180v-135h-182v-929h-171v929h-149v135h149v173q5 113 38 163z" />
    <glyph glyph-name="fl" unicode="fl" horiz-adv-x="1019" 
d="M877 0h-172v1469h172v-1469zM345 0h-171v929h-149v135h149v195q0 59 19 102.5t54 72t84.5 42.5t110.5 14q23 0 41.5 -1t43.5 -5v-154q-9 2 -16 2h-12q-41 0 -70 -4.5t-48 -18.5t-27.5 -39.5t-8.5 -68.5v-137h182v-135h-182v-929z" />
    <glyph glyph-name="uniFBA5" unicode="&#xe898;&#x654;" horiz-adv-x="800" arabic-form="final" 
d="M276 787q19 16 37 16q28 0 53 -33.5t52.5 -84t60 -109t76 -109t100 -84t131.5 -33.5h30v-200h-70q-75 0 -130 28t-96 70.5t-70.5 91.5t-52.5 91.5t-42 70.5t-39 28q-15 0 -31 -17q-4 -4 -8 -10q3 -13 6 -28q10 -44 23 -104q24 -112 35 -193t11 -137q0 -86 -27.5 -177.5
t-73.5 -192.5l-18 8q12 62 18.5 118t6.5 112q0 41 -3.5 83t-10 87t-16.5 94t-23 105q-51 217 -51 313q0 25 26 66q23 35 59 86q4 7 9 13q15 20 28 31zM390 1168q10 -27 10 -50q0 -33 -19 -54t-50 -34t-70 -19.5t-78.5 -12t-75.5 -11t-61 -15.5l-22 16q2 19 20.5 31.5
t44.5 20.5t56 13.5t55 10t42 9.5t17 13q0 17 -16 27t-34.5 21t-34.5 26t-16 41t16 60t40 65t53.5 52.5t56.5 21.5l-9 -79q-57 -8 -83 -65q7 -9 31.5 -18t51.5 -19.5t49.5 -23t25.5 -27.5z" />
    <glyph glyph-name="uniFBB1" unicode="&#xfbaf;&#x654;" horiz-adv-x="2080" arabic-form="final" 
d="M1613 951q10 -27 10 -50q0 -33 -19 -54t-50 -34t-70 -19.5t-78.5 -12t-75.5 -11t-61 -15.5l-22 16q2 19 20.5 31.5t44.5 20.5t56 13.5t55 10t42 9.5t17 13q0 17 -16 27t-34.5 21t-34.5 26t-16 41t16 60t40 65t53.5 52.5t56.5 21.5l-9 -79q-57 -8 -83 -65q7 -9 31.5 -18
t51.5 -19.5t49.5 -23t25.5 -27.5zM248 -301q0 -19 34.5 -31.5t94.5 -19.5t142 -10t177 -3q96 0 202 2t213 4.5t210.5 4.5t195.5 2q129 0 221 -23t160.5 -55.5t119.5 -67.5t98 -59l-52 -48q-35 25 -60.5 46t-56.5 36t-75.5 23.5t-116.5 8.5q-45 0 -101.5 -3.5t-130.5 -10.5
q-43 -4 -111 -7.5t-148.5 -6.5t-170 -6t-176 -4.5t-165 -2.5t-139.5 -1q-186 0 -305.5 11.5t-187.5 38t-94 68.5t-26 104q0 57 35 102.5t94.5 82t139 66t169 54t183.5 46t183 42.5q126 30 217.5 69.5t161 82.5t122 84.5t98.5 74.5t91.5 53.5t101.5 20.5q11 0 23 -1t24 -3
q32 -5 77.5 -23t101.5 -38t121 -36t137 -16h30v-200h-70q-61 0 -126 20t-125 44t-111 44t-86 20q-47 0 -99.5 -22t-111.5 -56.5t-124.5 -76.5t-137.5 -83t-151 -76t-164 -55q-59 -14 -123.5 -27t-126.5 -27t-117.5 -29.5t-97.5 -34t-66.5 -41.5t-24.5 -51z" />
    <glyph glyph-name="uniFBD8" unicode="&#xfeee;&#x64f;" horiz-adv-x="1024" arabic-form="final" 
d="M1054 148h-192q-35 -93 -94.5 -181.5t-136 -163t-166.5 -131t-185 -85.5q-63 15 -139 47.5t-153.5 73t-152 84t-135.5 79.5l6 13q312 -137 451 -137q37 0 92.5 19.5t119 52t128.5 74.5t119.5 87t93.5 89.5t50 82.5q-55 0 -111.5 12t-102 38.5t-74.5 69t-29 103.5
q0 35 8 80t24 91.5t39 91.5t52.5 79.5t65 56t76.5 21.5q32 0 60 -18t51 -47.5t41 -68.5t30.5 -81t19 -84t6.5 -78q0 -39 -8 -69h146v-201zM802 352q1 5 1.5 10.5t0.5 11.5q0 37 -15.5 77.5t-39.5 74t-52.5 55.5t-54.5 22q-25 0 -45.5 -10t-35.5 -27t-23.5 -39t-8.5 -46
q0 -109 273 -129zM628 1122q0 -58 -102 -102l84 -72q-35 0 -59.5 2.5t-42.5 7t-31.5 11.5t-26.5 16q-32 -19 -70 -39.5t-77.5 -37t-78.5 -27.5t-75 -11h-127q152 54 357 171q-45 29 -64.5 57t-19.5 56q0 33 22 64.5t54.5 61t69 56.5t65.5 51q0 -9 9 -30t22.5 -47t29.5 -55
t29.5 -55.5t22.5 -47t9 -30.5zM536 1136q0 19 -7.5 33.5t-19.5 24.5t-27 15.5t-30 5.5q-24 0 -42 -14t-18 -43q0 -21 69 -83q75 44 75 61z" />
    <glyph glyph-name="uniFBDC" unicode="&#xfeee;&#x670;" horiz-adv-x="1024" arabic-form="final" 
d="M1054 148h-192q-35 -93 -94.5 -181.5t-136 -163t-166.5 -131t-185 -85.5q-63 15 -139 47.5t-153.5 73t-152 84t-135.5 79.5l6 13q312 -137 451 -137q37 0 92.5 19.5t119 52t128.5 74.5t119.5 87t93.5 89.5t50 82.5q-55 0 -111.5 12t-102 38.5t-74.5 69t-29 103.5
q0 35 8 80t24 91.5t39 91.5t52.5 79.5t65 56t76.5 21.5q32 0 60 -18t51 -47.5t41 -68.5t30.5 -81t19 -84t6.5 -78q0 -39 -8 -69h146v-201zM802 352q1 5 1.5 10.5t0.5 11.5q0 37 -15.5 77.5t-39.5 74t-52.5 55.5t-54.5 22q-25 0 -45.5 -10t-35.5 -27t-23.5 -39t-8.5 -46
q0 -109 273 -129zM599 1085q0 -92 -82 -204l-12 6q17 36 25 68.5t8 66.5q0 42 -11.5 87.5t-34.5 101.5q-20 52 -33 86t-13 62q0 27 15 53t52 61l10 -6q-2 -14 -3 -25.5t-1 -22.5q0 -15 2.5 -30t7 -33t12 -40.5l17.5 -52.5q41 -120 41 -178z" />
    <glyph glyph-name="uniFC32" unicode="&#x20;&#xfed3;&#xfef2;" horiz-adv-x="2216" arabic-form="isolated" 
d="M1005 609q0 -70 -56 -214q-20 -61 -60 -106t-92 -78.5t-111 -58.5t-118 -46.5t-113 -42.5t-95.5 -47t-66.5 -59.5t-25 -79.5v-8q0 -12 58.5 -20t157 -13.5t226.5 -8.5t267.5 -4.5t280 -2.5t263.5 -2q126 0 219 -22.5t162 -55t120 -67.5t94 -60l-52 -48q-27 21 -51.5 41.5
t-59.5 36t-88 25t-137 9.5q-86 0 -215 -12q-43 -4 -110 -7.5t-146.5 -6.5t-167.5 -6t-173.5 -4.5t-163.5 -2.5t-139 -1q-186 0 -305.5 20t-187.5 53t-94 74.5t-26 84.5q0 67 39 126t103 110.5t145.5 96t167 83t167 72.5t145.5 64.5t103 58t39 52.5q0 74 -39 140
q-19 -38 -36.5 -72.5t-41 -61t-57 -42t-85.5 -15.5q-100 0 -153 54t-53 148q0 29 9 75t26 98t40.5 105t53 95.5t63.5 69.5t71 27q22 0 44 -10t45 -33q209 -203 209 -501zM835 746l-1 26q-10 20 -34.5 44.5t-54 46.5t-59.5 36.5t-52 14.5t-41 -9t-33 -24t-22.5 -35t-8.5 -41
q0 -23 21 -39.5t50 -27t58.5 -15t47.5 -4.5q62 0 129 27zM777 1460l-102 -163l-183 111l101 161zM1214 -650l-108 -156l-181 99l105 163zM938 -650l-103 -156l-178 99l105 163z" />
    <glyph glyph-name="uniFC5D" unicode="&#x649;&#x670;" horiz-adv-x="1448" arabic-form="isolated" 
d="M1348 218q0 -10 -4 -32t-10.5 -50.5t-15.5 -59t-18 -58t-17.5 -48.5t-15.5 -29q-25 -38 -79.5 -72t-126 -63.5t-152.5 -53.5t-158.5 -41t-145 -26t-110.5 -9q-138 0 -232.5 38t-152.5 103.5t-83.5 153.5t-25.5 188q0 69 10.5 142t29.5 146t45 144.5t57 137.5l31 -12
q-61 -135 -89 -244t-28 -197q0 -106 36.5 -180t100.5 -121t149.5 -68.5t184.5 -21.5q85 0 176.5 14.5t182 41.5t178 65.5t165.5 84.5q-32 28 -83.5 48.5t-110 37.5t-118 32.5t-107.5 34t-78 41.5t-30 54q0 76 17 150.5t48.5 142t78 125t105 99.5t129 66t150.5 24
q35 0 57.5 -6.5t35.5 -22t18 -42t5 -66.5q0 -32 -4.5 -59.5t-14.5 -36.5q-66 32 -168 32q-16 0 -48.5 -10.5t-71.5 -28.5t-80 -41.5t-75 -50t-55.5 -54t-21.5 -52.5v-8q3 -13 28 -27.5t63.5 -30.5t86.5 -33t98 -35.5t97.5 -37.5t84.5 -38.5t59.5 -39.5t22.5 -40zM509 1085
q0 -92 -82 -204l-12 6q17 36 25 68.5t8 66.5q0 42 -11.5 87.5t-34.5 101.5q-20 52 -33 86t-13 62q0 27 15 53t52 61l10 -6q-2 -14 -3 -25.5t-1 -22.5q0 -15 2.5 -30t7 -33t12 -40.5l17.5 -52.5q41 -120 41 -178z" />
    <glyph glyph-name="uniFC90" unicode="&#xfbfd;&#x670;" horiz-adv-x="1460" arabic-form="final" 
d="M459 697q0 -92 -82 -204l-12 6q17 36 25 68.5t8 66.5q0 42 -11.5 87.5t-34.5 101.5q-20 52 -33 86t-13 62q0 27 15 53t52 61l10 -6q-2 -14 -3 -25.5t-1 -22.5q0 -15 2.5 -30t7 -33t12 -40.5l17.5 -52.5q41 -120 41 -178zM1460 150q-105 0 -208 -5t-185 -15t-133 -25
t-51 -35q219 -83 235 -95q171 -78 171 -167q0 -9 -4 -30.5t-10 -49.5t-14.5 -59t-17 -58t-17 -46.5t-15.5 -24.5q-33 -36 -91.5 -68t-131 -59t-152 -49t-153.5 -37.5t-137 -23.5t-101 -8q-138 0 -233 38t-153 103.5t-83.5 153t-25.5 187.5q0 69 11 142t30 146.5t45 145
t57 137.5l31 -12q-61 -135 -89 -244t-28 -197q0 -105 37 -179.5t100.5 -121.5t149.5 -68.5t184 -21.5q80 0 164.5 13t169.5 37t168 57.5t158 74.5q14 15 14 32q0 16 -15 31.5t-42 31.5t-65 33t-85 35q-210 82 -210 123q0 29 8 58.5t20.5 60t27.5 62.5t30 65q16 22 51.5 40.5
t83.5 33t106 25.5t119 18.5t122.5 11t116.5 3.5h70v-200h-30z" />
    <glyph glyph-name="uniFE82" unicode="&#xfe8e;&#x653;" horiz-adv-x="567" arabic-form="final" 
d="M-102 1351q23 42 54.5 82t65 71.5t66.5 50.5t58 19q8 0 25 -4t39 -10.5t46.5 -13.5t47.5 -13.5t42 -10.5t30 -4q111 0 267 117l3 -46q-116 -194 -268 -194q-14 0 -48.5 8t-72 18t-69.5 18t-42 8q-25 0 -57 -12.5t-65 -33t-64.5 -46.5t-55.5 -54zM256 310q58 12 124 24
q103 17 187 16h30v-200h-70q-165 0 -330 -9l-18 9q12 70 18.5 133t6.5 126q0 46 -3.5 93t-10 97.5t-16.5 105.5t-23 118q-51 245 -51 353q0 28 26 73.5t68 111.5q7 -6 15 -13q25 -23 47 -51t40 -61.5t31 -68t20 -70t7 -69.5q0 -33 -7.5 -62.5t-24.5 -54.5q-11 -26 -16 -37
t-6 -11v1q0 3 2.5 14t6.5 26q5 19 5 45q0 22 -3 46.5t-9.5 50.5t-16 50.5t-21.5 45.5t-27.5 37t-33.5 24q3 -32 10 -70q6 -39 16 -88t23 -117q24 -126 35 -217t11 -154q0 -97 -27 -199q-11 -34 -15 -48z" />
    <glyph glyph-name="uniFE84" unicode="&#xfe8e;&#x654;" horiz-adv-x="526" arabic-form="final" 
d="M275 1533q0 -40 -19 -62t-48 -33t-65.5 -14.5t-70.5 -7t-63 -9.5t-44 -22l-15 20q10 21 38.5 32t61.5 19t62.5 17.5t40.5 27.5q-49 9 -69 31.5t-20 51.5q0 26 13.5 53.5t34.5 51t46.5 40t50.5 20.5l-5 -68q-58 -15 -74 -55q17 -7 41.5 -14t47.5 -17.5t39.5 -25
t16.5 -36.5zM252 288q62 34 128 46q103 17 127 16h30v-200h-70q-105 0 -270 -9l-18 9q12 70 18.5 133t6.5 126q0 46 -3.5 93t-10 97.5t-16.5 105.5t-23 118q-51 245 -51 353q0 28 26 73.5t68 111.5q7 -6 15 -13q25 -23 47 -51t40 -61.5t31 -68t20 -70t7 -69.5
q0 -33 -7.5 -62.5t-24.5 -54.5q-11 -26 -16 -37t-6 -11v1q0 3 2.5 14t6.5 26q5 19 5 45q0 22 -3 46.5t-9.5 50.5t-16 50.5t-21.5 45.5t-27.5 37t-33.5 24q3 -32 10 -70q6 -39 16 -88t23 -117q24 -126 35 -217t11 -154q0 -97 -27 -199q-15 -56 -19 -70z" />
    <glyph glyph-name="uniFE86" unicode="&#xfeee;&#x654;" horiz-adv-x="900" arabic-form="final" 
d="M620 1315q10 -27 10 -50q0 -33 -19 -54t-50 -34t-70 -19.5t-78.5 -12t-75.5 -11t-61 -15.5l-22 16q2 19 20.5 31.5t44.5 20.5t56 13.5t55 10t42 9.5t17 13q0 17 -16 27t-34.5 21t-34.5 26t-16 41t16 60t40 65t53.5 52.5t56.5 21.5l-9 -79q-57 -8 -83 -65q7 -9 31.5 -18
t51.5 -19.5t49.5 -23t25.5 -27.5zM631 576q0 31 -20 61t-50.5 54t-68 38.5t-72.5 14.5q-40 0 -68 -24.5t-28 -81.5q0 -23 17 -40t44 -28t60 -16t66 -5q39 0 71.5 6.5t48.5 20.5zM766 349h157v-201h-223q-144 -299 -532 -461q-78 25 -193.5 89.5t-274.5 170.5l8 16
q247 -116 318 -116q33 0 79.5 13t100.5 36.5t111.5 56t113 71.5t105 83t86.5 90.5t59 94t22 93.5q0 60 -40 110q-1 -1 -1 -2q-23 -45 -40 -78q-18 -34 -39.5 -56t-52.5 -33t-83 -11q-211 0 -211 199q0 24 10 68.5t27 96.5t41 106.5t52.5 98.5t59.5 72t64 28q41 0 79 -22.5
t71 -59.5t59.5 -84t45.5 -95.5t29.5 -94.5t10.5 -80q0 -105 -19 -199z" />
    <glyph glyph-name="uniFE88" unicode="&#xfe8e;&#x655;" horiz-adv-x="521" arabic-form="final" 
d="M378 -195q10 -27 10 -50q0 -33 -19 -54t-50 -34t-70 -20t-78.5 -12.5t-75.5 -10.5t-61 -15l-22 16q2 19 20.5 31.5t44.5 20.5t56 13.5t55 10t42 9t17 12.5q0 17 -16 27.5t-34.5 21.5t-34.5 26t-16 41q0 25 16 59.5t40 65.5t53.5 52.5t56.5 21.5l-9 -79q-57 -8 -83 -65
q7 -9 31.5 -18t51.5 -19.5t49.5 -23t25.5 -27.5zM252 288q62 34 128 46q103 17 127 16h30v-200h-70q-105 0 -270 -9l-18 9q12 70 18.5 133t6.5 126q0 46 -3.5 93t-10 97.5t-16.5 105.5t-23 118q-51 245 -51 353q0 28 26 73.5t68 111.5q7 -6 15 -13q25 -23 47 -51t40 -61.5
t31 -68t20 -70t7 -69.5q0 -33 -7.5 -62.5t-24.5 -54.5q-11 -26 -16 -37t-6 -11v1q0 3 2.5 14t6.5 26q5 19 5 45q0 22 -3 46.5t-9.5 50.5t-16 50.5t-21.5 45.5t-27.5 37t-33.5 24q3 -32 10 -70q6 -39 16 -88t23 -117q24 -126 35 -217t11 -154q0 -97 -27 -199q-15 -56 -19 -70
z" />
    <glyph glyph-name="uniFE8A" unicode="&#xfef2;&#x654;" horiz-adv-x="1460" arabic-form="final" 
d="M310 722q10 -27 10 -50q0 -33 -19 -54t-50 -34t-70 -19.5t-78.5 -12t-75.5 -11t-61 -15.5l-22 16q2 19 20.5 31.5t44.5 20.5t56 13.5t55 10t42 9.5t17 13q0 17 -16 27t-34.5 21t-34.5 26t-16 41t16 60t40 65t53.5 52.5t56.5 21.5l-9 -79q-57 -8 -83 -65q7 -9 31.5 -18
t51.5 -19.5t49.5 -23t25.5 -27.5zM1460 150q-105 0 -208 -5t-185 -15t-133 -25t-51 -35q219 -83 235 -95q171 -78 171 -167q0 -9 -4 -30.5t-10 -49.5t-14.5 -59t-17 -58t-17 -46.5t-15.5 -24.5q-33 -36 -91.5 -68t-131 -59t-152 -49t-153.5 -37.5t-137 -23.5t-101 -8
q-138 0 -233 38t-153 103.5t-83.5 153t-25.5 187.5q0 69 11 142t30 146.5t45 145t57 137.5l31 -12q-61 -135 -89 -244t-28 -197q0 -105 37 -179.5t100.5 -121.5t149.5 -68.5t184 -21.5q80 0 164.5 13t169.5 37t168 57.5t158 74.5q14 15 14 32q0 16 -15 31.5t-42 31.5t-65 33
t-85 35q-210 82 -210 123q0 29 8 58.5t20.5 60t27.5 62.5t30 65q16 22 51.5 40.5t83.5 33t106 25.5t119 18.5t122.5 11t116.5 3.5h70v-200h-30z" />
    <glyph glyph-name="uniFE8B" unicode="&#xfef3;&#x654;" horiz-adv-x="458" arabic-form="initial" 
d="M289 1235q10 -27 10 -50q0 -33 -19 -54t-50 -34t-70 -19.5t-78.5 -12t-75.5 -11t-61 -15.5l-22 16q2 19 20.5 31.5t44.5 20.5t56 13.5t55 10t42 9.5t17 13q0 17 -16 27t-34.5 21t-34.5 26t-16 41t16 60t40 65t53.5 52.5t56.5 21.5l-9 -79q-57 -8 -83 -65q7 -9 31.5 -18
t51.5 -19.5t49.5 -23t25.5 -27.5zM302 279q-23 -46 -58 -74.5t-85 -41.5t-119 -13h-70v200h30q55 0 105.5 2.5t89.5 8t64 14.5q19 6 25 16q7 42 0.5 66.5t-17 50t-25 48t-43.5 53.5q-70 91 -79 151q-1 52 28.5 78.5t78.5 65.5l11 -5q-1 -12 -1.5 -22t0.5 -19
q2 -18 7.5 -34.5t15.5 -36t24.5 -44t33.5 -58.5q35 -63 53 -109t20 -79q5 -51 -24 -107q-22 -43 -65 -111z" />
    <glyph glyph-name="uniFE8C" unicode="&#xfef4;&#x654;" horiz-adv-x="640" arabic-form="medial" 
d="M670 150h-70q-209 0 -299 163q-18 -34 -42.5 -64t-56.5 -52t-72 -34.5t-90 -12.5h-70v200h30q56 0 98 3.5t74.5 14.5t58.5 30.5t50 51.5t48.5 78.5t54.5 110.5l20 -15q-14 -29 -20.5 -54t-6.5 -48q0 -43 21.5 -75.5t58 -54t84 -32t99.5 -10.5h30v-200zM289 1075
q10 -27 10 -50q0 -33 -19 -54t-50 -34t-70 -19.5t-78.5 -12t-75.5 -11t-61 -15.5l-22 16q2 19 20.5 31.5t44.5 20.5t56 13.5t55 10t42 9.5t17 13q0 17 -16 27t-34.5 21t-34.5 26t-16 41t16 60t40 65t53.5 52.5t56.5 21.5l-9 -79q-57 -8 -83 -65q7 -9 31.5 -18t51.5 -19.5
t49.5 -23t25.5 -27.5z" />
    <glyph glyph-name="uniFEF5" unicode="&#xe80a;&#xe800;" horiz-adv-x="1082" arabic-form="isolated" 
d="M-182 1451q23 42 54 82t65 71.5t66.5 50.5t58.5 19q8 0 25 -4t39 -10.5t46.5 -13.5t47.5 -13.5t42 -10.5t30 -4q111 0 267 117l3 -46q-116 -194 -268 -194q-14 0 -48.5 8t-72 18t-69.5 18t-42 8q-25 0 -57 -12.5t-65 -33t-64.5 -46.5t-55.5 -54zM982 1262l-66 -170
l-57 21q-12 -52 -20 -104.5t-18.5 -104.5t-26 -103.5t-42.5 -101.5q63 -142 63 -185q0 -335 -90 -355q-19 -4 -46 -6.5t-56.5 -3.5t-58.5 -1h-51q-67 0 -112 14t-72.5 39t-39 59.5t-11.5 74.5q0 37 7.5 77t19.5 82h26q-9 -28 -9 -52q0 -41 23 -61t53 -20h6.5t6.5 1
q133 73 252 257q-12 27 -42 72.5t-70.5 98t-87 106.5t-91 97.5t-83 71t-63.5 27.5q-5 -13 -10 -38.5t-9 -64.5q-9 -3 -13 -12q-26 39 -58 97.5t-69 137.5q8 48 22 90t33 77q58 -23 118 -62.5t118.5 -90t113.5 -109.5t103 -121.5t87 -126.5t65 -123q31 80 47.5 150t16.5 144
q0 56 -10 112q-26 30 -46 43.5t-34 25t-21.5 27.5t-7.5 50q0 10 6 31t15.5 47.5t21.5 56t24.5 56t23.5 47t18 28.5l25 -7q-16 -23 -29 -52.5t-13 -65.5q0 -75 218 -177zM764 354q-36 122 -78 207q-33 -77 -179 -215q20 -5 57 -9t76 -4q38 0 71 5t53 16z" />
    <glyph glyph-name="uniFEF6" unicode="&#xe80e;&#xe801;" horiz-adv-x="1100" arabic-form="final" 
d="M-182 1451q23 42 54 82t65 71.5t66.5 50.5t58.5 19q8 0 25 -4t39 -10.5t46.5 -13.5t47.5 -13.5t42 -10.5t30 -4q111 0 267 117l3 -46q-116 -194 -268 -194q-14 0 -48.5 8t-72 18t-69.5 18t-42 8q-25 0 -57 -12.5t-65 -33t-64.5 -46.5t-55.5 -54zM764 354q-36 122 -78 207
q-33 -77 -179 -215q20 -5 57 -9t76 -4q38 0 71 5t53 16zM805 565q17 -28 32 -57q37 -73 92 -115.5t135 -42.5h60v-200h-100q-70 0 -121.5 27.5t-87.5 75.5q-10 11 -18 24q-22 -107 -72 -118q-19 -4 -46 -6.5t-56.5 -3.5t-58.5 -1h-51q-67 0 -112 14t-72.5 39t-39 59.5
t-11.5 74.5q0 37 7.5 77t19.5 82h26q-9 -28 -9 -52q0 -41 23 -61t53 -20h6.5t6.5 1q133 73 252 257q-12 27 -42 72.5t-70.5 98t-87 106.5t-91 97.5t-83 71t-63.5 27.5q-5 -13 -10 -38.5t-9 -64.5q-9 -3 -13 -12q-26 39 -58 97.5t-69 137.5q8 48 22 90t33 77
q58 -23 118 -62.5t118.5 -90t113.5 -109.5t103 -121.5t87 -126.5t65 -123q31 80 47.5 150t16.5 144q0 56 -10 112q-26 30 -46 43.5t-34 25t-21.5 27.5t-7.5 50q0 10 6 31t15.5 47.5t21.5 56t24.5 56t23.5 47t18 28.5l25 -7q-16 -23 -29 -52.5t-13 -65.5q0 -75 218 -177
l-66 -170l-57 21q-12 -52 -20 -104.5t-18.5 -104.5t-26 -103.5t-42.5 -101.5q37 -84 53 -134z" />
    <glyph glyph-name="uniFEF7" unicode="&#xe80a;&#xe802;" horiz-adv-x="1082" arabic-form="isolated" 
d="M982 1262l-66 -170l-57 21q-12 -52 -20 -104.5t-18.5 -104.5t-26 -103.5t-42.5 -101.5q63 -142 63 -185q0 -335 -90 -355q-19 -4 -46 -6.5t-56.5 -3.5t-58.5 -1h-51q-67 0 -112 14t-72.5 39t-39 59.5t-11.5 74.5q0 37 7.5 77t19.5 82h26q-9 -28 -9 -52q0 -41 23 -61
t53 -20h6.5t6.5 1q133 73 252 257q-12 27 -42 72.5t-70.5 98t-87 106.5t-91 97.5t-83 71t-63.5 27.5q-5 -13 -10 -38.5t-9 -64.5q-9 -3 -13 -12q-26 39 -58 97.5t-69 137.5q8 48 22 90t33 77q58 -23 118 -62.5t118.5 -90t113.5 -109.5t103 -121.5t87 -126.5t65 -123
q31 80 47.5 150t16.5 144q0 56 -10 112q-26 30 -46 43.5t-34 25t-21.5 27.5t-7.5 50q0 10 6 31t15.5 47.5t21.5 56t24.5 56t23.5 47t18 28.5l25 -7q-16 -23 -29 -52.5t-13 -65.5q0 -75 218 -177zM764 354q-36 122 -78 207q-33 -77 -179 -215q20 -5 57 -9t76 -4q38 0 71 5
t53 16zM189 1653q10 -27 10 -50q0 -33 -19 -54t-50 -34t-70 -19.5t-78.5 -12t-75.5 -11t-61 -15.5l-22 16q2 19 20.5 31.5t44.5 20.5t56 13.5t55 10t42 9.5t17 13q0 17 -16 27t-34.5 21t-34.5 26t-16 41t16 60t40 65t53.5 52.5t56.5 21.5l-9 -79q-57 -8 -83 -65
q7 -9 31.5 -18t51.5 -19.5t49.5 -23t25.5 -27.5z" />
    <glyph glyph-name="uniFEF8" unicode="&#xe80e;&#xe803;" horiz-adv-x="1100" arabic-form="final" 
d="M764 354q-36 122 -78 207q-33 -77 -179 -215q20 -5 57 -9t76 -4q38 0 71 5t53 16zM805 565q17 -28 32 -57q37 -73 92 -115.5t135 -42.5h60v-200h-100q-70 0 -121.5 27.5t-87.5 75.5q-10 11 -18 24q-22 -107 -72 -118q-19 -4 -46 -6.5t-56.5 -3.5t-58.5 -1h-51
q-67 0 -112 14t-72.5 39t-39 59.5t-11.5 74.5q0 37 7.5 77t19.5 82h26q-9 -28 -9 -52q0 -41 23 -61t53 -20h6.5t6.5 1q133 73 252 257q-12 27 -42 72.5t-70.5 98t-87 106.5t-91 97.5t-83 71t-63.5 27.5q-5 -13 -10 -38.5t-9 -64.5q-9 -3 -13 -12q-26 39 -58 97.5t-69 137.5
q8 48 22 90t33 77q58 -23 118 -62.5t118.5 -90t113.5 -109.5t103 -121.5t87 -126.5t65 -123q31 80 47.5 150t16.5 144q0 56 -10 112q-26 30 -46 43.5t-34 25t-21.5 27.5t-7.5 50q0 10 6 31t15.5 47.5t21.5 56t24.5 56t23.5 47t18 28.5l25 -7q-16 -23 -29 -52.5t-13 -65.5
q0 -75 218 -177l-66 -170l-57 21q-12 -52 -20 -104.5t-18.5 -104.5t-26 -103.5t-42.5 -101.5q37 -84 53 -134zM189 1653q10 -27 10 -50q0 -33 -19 -54t-50 -34t-70 -19.5t-78.5 -12t-75.5 -11t-61 -15.5l-22 16q2 19 20.5 31.5t44.5 20.5t56 13.5t55 10t42 9.5t17 13
q0 17 -16 27t-34.5 21t-34.5 26t-16 41t16 60t40 65t53.5 52.5t56.5 21.5l-9 -79q-57 -8 -83 -65q7 -9 31.5 -18t51.5 -19.5t49.5 -23t25.5 -27.5z" />
    <glyph glyph-name="uniFEF9" unicode="&#xe80a;&#xe804;" horiz-adv-x="1082" arabic-form="isolated" 
d="M982 1262l-66 -170l-57 21q-12 -52 -20 -104.5t-18.5 -104.5t-26 -103.5t-42.5 -101.5q63 -142 63 -185q0 -335 -90 -355q-19 -4 -46 -6.5t-56.5 -3.5t-58.5 -1h-51q-67 0 -112 14t-72.5 39t-39 59.5t-11.5 74.5q0 37 7.5 77t19.5 82h26q-9 -28 -9 -52q0 -41 23 -61
t53 -20h6.5t6.5 1q133 73 252 257q-12 27 -47 78t-82.5 112t-103 125t-107.5 116t-95.5 85.5t-68.5 33.5q-5 -13 -10 -38.5t-9 -64.5q-9 -3 -13 -12q-26 39 -58 97.5t-69 137.5q8 48 22 90t33 77q58 -23 123 -68t131 -104t130 -128.5t119 -140.5t99 -140.5t70 -128.5
q31 80 47.5 150t16.5 144q0 56 -10 112q-26 30 -46 43.5t-34 25t-21.5 27.5t-7.5 50q0 10 6 31t15.5 47.5t21.5 56t24.5 56t23.5 47t18 28.5l25 -7q-16 -23 -29 -52.5t-13 -65.5q0 -75 218 -177zM764 354q-36 122 -78 207q-33 -77 -179 -215q20 -5 57 -9t76 -4q38 0 71 5
t53 16zM425 -201q10 -27 10 -50q0 -33 -19 -54t-50 -34t-70 -20t-78.5 -12.5t-75.5 -10.5t-61 -15l-22 16q2 19 20.5 31.5t44.5 20.5t56 13.5t55 10t42 9.5t17 12q0 17 -16 27.5t-34.5 21.5t-34.5 26t-16 41q0 25 16 59.5t40 65.5t53.5 52.5t56.5 21.5l-9 -79
q-57 -8 -83 -65q7 -9 31.5 -18t51.5 -19.5t49.5 -23t25.5 -27.5z" />
    <glyph glyph-name="uniFEFA" unicode="&#xe80e;&#xe805;" horiz-adv-x="1100" arabic-form="final" 
d="M764 354q-36 122 -78 207q-33 -77 -179 -215q20 -5 57 -9t76 -4q38 0 71 5t53 16zM805 565q17 -28 32 -57q37 -73 92 -115.5t135 -42.5h60v-200h-100q-70 0 -121.5 27.5t-87.5 75.5q-10 11 -18 24q-22 -107 -72 -118q-19 -4 -46 -6.5t-56.5 -3.5t-58.5 -1h-51
q-67 0 -112 14t-72.5 39t-39 59.5t-11.5 74.5q0 37 7.5 77t19.5 82h26q-9 -28 -9 -52q0 -41 23 -61t53 -20h6.5t6.5 1q133 73 252 257q-12 27 -42 72.5t-70.5 98t-87 106.5t-91 97.5t-83 71t-63.5 27.5q-5 -13 -10 -38.5t-9 -64.5q-9 -3 -13 -12q-26 39 -58 97.5t-69 137.5
q8 48 22 90t33 77q58 -23 118 -62.5t118.5 -90t113.5 -109.5t103 -121.5t87 -126.5t65 -123q31 80 47.5 150t16.5 144q0 56 -10 112q-26 30 -46 43.5t-34 25t-21.5 27.5t-7.5 50q0 10 6 31t15.5 47.5t21.5 56t24.5 56t23.5 47t18 28.5l25 -7q-16 -23 -29 -52.5t-13 -65.5
q0 -75 218 -177l-66 -170l-57 21q-12 -52 -20 -104.5t-18.5 -104.5t-26 -103.5t-42.5 -101.5q37 -84 53 -134zM425 -201q10 -27 10 -50q0 -33 -19 -54t-50 -34t-70 -20t-78.5 -12.5t-75.5 -10.5t-61 -15l-22 16q2 19 20.5 31.5t44.5 20.5t56 13.5t55 10t42 9.5t17 12
q0 17 -16 27.5t-34.5 21.5t-34.5 26t-16 41q0 25 16 59.5t40 65.5t53.5 52.5t56.5 21.5l-9 -79q-57 -8 -83 -65q7 -9 31.5 -18t51.5 -19.5t49.5 -23t25.5 -27.5z" />
    <glyph glyph-name="uniFEFB" unicode="&#xe80a;&#xe806;" horiz-adv-x="1082" arabic-form="isolated" 
d="M982 1262l-66 -170l-57 21q-12 -52 -20 -104.5t-18.5 -104.5t-26 -103.5t-42.5 -101.5q63 -142 63 -185q0 -335 -90 -355q-19 -4 -46 -6.5t-56.5 -3.5t-58.5 -1h-51q-67 0 -112 14t-72.5 39t-39 59.5t-11.5 74.5q0 37 7.5 77t19.5 82h26q-9 -28 -9 -52q0 -41 23 -61
t53 -20h6.5t6.5 1q133 73 252 257q-12 27 -47 78t-82.5 112t-103 125t-107.5 116t-95.5 85.5t-68.5 33.5q-5 -13 -10 -38.5t-9 -64.5q-9 -3 -13 -12q-26 39 -58 97.5t-69 137.5q8 48 22 90t33 77q58 -23 123 -68t131 -104t130 -128.5t119 -140.5t99 -140.5t70 -128.5
q31 80 47.5 150t16.5 144q0 56 -10 112q-26 30 -46 43.5t-34 25t-21.5 27.5t-7.5 50q0 10 6 31t15.5 47.5t21.5 56t24.5 56t23.5 47t18 28.5l25 -7q-16 -23 -29 -52.5t-13 -65.5q0 -75 218 -177zM764 354q-36 122 -78 207q-33 -77 -179 -215q20 -5 57 -9t76 -4q38 0 71 5
t53 16z" />
    <glyph glyph-name="uniFEFC" unicode="&#xe80e;&#xe807;" horiz-adv-x="1100" arabic-form="final" 
d="M764 354q-36 122 -78 207q-33 -77 -179 -215q20 -5 57 -9t76 -4q38 0 71 5t53 16zM805 565q17 -28 32 -57q37 -73 92 -115.5t135 -42.5h60v-200h-100q-70 0 -121.5 27.5t-87.5 75.5q-10 11 -18 24q-22 -107 -72 -118q-19 -4 -46 -6.5t-56.5 -3.5t-58.5 -1h-51
q-67 0 -112 14t-72.5 39t-39 59.5t-11.5 74.5q0 37 7.5 77t19.5 82h26q-9 -28 -9 -52q0 -41 23 -61t53 -20h6.5t6.5 1q133 73 252 257q-12 27 -42 72.5t-70.5 98t-87 106.5t-91 97.5t-83 71t-63.5 27.5q-5 -13 -10 -38.5t-9 -64.5q-9 -3 -13 -12q-26 39 -58 97.5t-69 137.5
q8 48 22 90t33 77q58 -23 118 -62.5t118.5 -90t113.5 -109.5t103 -121.5t87 -126.5t65 -123q31 80 47.5 150t16.5 144q0 56 -10 112q-26 30 -46 43.5t-34 25t-21.5 27.5t-7.5 50q0 10 6 31t15.5 47.5t21.5 56t24.5 56t23.5 47t18 28.5l25 -7q-16 -23 -29 -52.5t-13 -65.5
q0 -75 218 -177l-66 -170l-57 21q-12 -52 -20 -104.5t-18.5 -104.5t-26 -103.5t-42.5 -101.5q37 -84 53 -134z" />
    <glyph glyph-name="uniFDFA" unicode="&#xfdfa;" horiz-adv-x="2557" arabic-form="isolated" 
 />
    <glyph glyph-name="uniFDF7" unicode="&#xfdf7;" horiz-adv-x="3252" arabic-form="isolated" 
d="M2984 -65l-9 -4q-3 -2 -27 -12t-58.5 -24t-73.5 -30t-72.5 -29t-56 -22t-23.5 -9q-48 -16 -96 -30.5t-91.5 -25t-80 -17t-63.5 -6.5q-54 0 -98.5 15.5t-65.5 44.5q-15 17 -36.5 58.5t-46.5 98.5q-6 -47 -22.5 -85.5t-39.5 -66.5t-50 -43t-54 -15q-105 0 -170 108
q-11 -33 -38.5 -59.5t-67.5 -47t-90.5 -35t-106.5 -23.5q-4 -20 -8.5 -37.5t-14.5 -30.5q-5 14 -5 24v12.5t5 22.5v2q-73 -8 -134.5 -12.5t-96.5 -4.5q-100 0 -171 19t-119 63.5t-75 118t-39 182.5q-31 -54 -76 -75.5t-114 -21.5q-38 0 -78.5 6t-74 16t-55 21.5t-21.5 22.5
q0 106 149 177q78 23 132.5 45.5t102.5 37.5q0 11 -0.5 24.5t-1.5 22.5v5q-1 1 -1 14v14q0 11 0.5 20t0.5 15q0 12 -3 21q2 13 13 41t33 71l24 -211q46 37 83.5 71t59.5 53q-9 32 -19.5 75.5t-21.5 93.5t-21.5 103.5t-19.5 104.5q-5 14 -5.5 23.5t-0.5 18.5t-2 18.5
t-10 24.5q-11 -94 -43 -180.5t-78 -165.5q-25 -42 -55.5 -80.5t-64 -71.5t-68 -59t-66.5 -43q-25 -10 -58.5 -19t-72 -17.5t-79.5 -16.5l-82 -16l-1 7q45 35 83.5 62t80.5 54l3 2q13 15 33 26.5t34 25.5q97 64 151.5 112t65.5 67q6 23 8.5 48.5t2.5 46.5q0 12 -2.5 28t-7 35
t-11 38t-13.5 37q-8 17 -26.5 41t-44 52t-56.5 58t-63 58q-72 75 -128.5 113.5t-88.5 40.5l-5 -5q-5 -2 -12 -7t-9 -7q-51 22 -80.5 38t-33.5 18q-10 12 -17.5 45t-7.5 84q0 25 4.5 35t18.5 10q60 0 139.5 -39t176.5 -124q82 -72 148 -138.5t115 -141.5q22 -34 35 -81.5
t13 -110.5q0 -22 -3 -51.5t-9 -60.5q26 32 50.5 73t44 83.5t31.5 83t12 70.5q0 6 -0.5 12t-1.5 11q-2 16 -6 55t-9.5 89t-11.5 105.5t-11 105t-9 87t-5 51.5q12 38 24.5 69.5t24.5 58.5q0 -3 5 -41t13 -94t17 -121.5t17 -122.5t14 -98t7 -47q38 -212 68.5 -348.5
t55.5 -185.5q46 -48 119.5 -78t158.5 -31q-7 17 -20 53.5t-28 83.5t-31 100.5t-29 105.5t-21 97.5t-8 76.5q0 24 10 50.5t26.5 50.5t39 43.5t47.5 29.5q15 109 41.5 166.5t60.5 57.5q17 0 43 -11.5t58 -32t68.5 -49.5t73.5 -64q-4 -42 -8.5 -71t-10.5 -38q-12 -7 -69 -24
t-141 -36q-70 -13 -116.5 -31.5t-55.5 -35.5q4 -22 10.5 -48t13.5 -50t12 -43t6 -28q2 -7 9.5 -32.5l17.5 -59.5t21.5 -72t21.5 -70.5t17 -54.5t9 -25v1q2 -2 2 -5.5t2 -6.5v1q6 -6 6 -19q31 2 77 9t89 18q52 14 90 28t60 26h-1q9 15 22 34t32 37v-33q-3 -4 -7 -18.5
t-15 -39.5q46 3 87.5 7t81.5 11q31 0 56 22t38 56q7 18 17 35.5t16 24.5q5 -9 5.5 -13t0.5 -9q0 -22 -9.5 -39.5t-19.5 -31.5q11 -2 28.5 -3.5t27.5 -1.5q-2 30 -6 83t-9 119t-10.5 141t-11 148.5t-10.5 142.5t-9 122.5t-6.5 88t-2.5 39.5l16 44q2 5 4 12t2 9l4 11
q6 18 15 35.5t11 25.5l7 -1q0 -7 0.5 -12t1.5 -10v-9q1 0 1 -2v-4q2 -2 2 -8v-9q1 -3 1 -8q0 -2 1 -2v-10q2 -25 5.5 -73.5t8.5 -112t10 -137t10.5 -149.5t10 -150.5t8.5 -138t7 -112t4 -74.5q40 9 69.5 22t37.5 28l7 7q2 5 2.5 10t2.5 8l1 5q6 11 11.5 21.5t23.5 25.5
l1 -50q0 -10 12 -21t30.5 -20t41.5 -15t46 -6q3 0 10.5 3.5t11.5 8.5q-25 101 -46 202.5t-36 195t-23 176t-8 144.5q0 17 -6.5 43.5t-16 54t-20 52t-18.5 38.5q0 1 -2.5 5t-2.5 7q0 5 5.5 27t13 47t14 45.5t8.5 23.5l6 -9q5 -5 10 -5q2 -6 7.5 -20t13.5 -31t17.5 -36.5
t20.5 -37.5v1q3 -5 4.5 -10.5t5.5 -11.5v1l1 -2q8 -14 15.5 -29.5t13.5 -29t9.5 -23.5t3.5 -13q0 -14 -6.5 -41.5t-17.5 -58.5l-10 -29q4 -30 13 -84t20 -118t22.5 -132t22 -125t18 -97t9.5 -49q0 -43 -3.5 -84t-15 -72.5t-33.5 -50.5t-58 -19q-42 0 -76 18.5t-63 48.5
q-29 -67 -117 -83v-14q3 -64 7 -129t11 -123.5t17.5 -106.5t26.5 -78v1q14 -20 33.5 -38.5t42 -33t47.5 -23.5t50 -9q44 0 51 4q-54 72 -85 142t-31 156q0 20 9.5 46t24.5 52t32.5 47.5t33.5 31.5q46 34 96.5 52t102.5 18q145 0 219 -170q-57 23 -111.5 40t-91.5 17
q-33 0 -75 -8t-80 -21.5t-64 -31t-26 -37.5q0 -35 21 -77.5t54 -80t73 -62.5t77 -25q85 0 199 34t270 104zM2077 65q0 85 -5 169t-10 172q-28 8 -55.5 18.5t-39.5 21.5q-29 -36 -73.5 -56.5t-102.5 -20.5q-83 0 -98 28q-45 -30 -104.5 -52.5t-151.5 -46.5q-2 -2 -2 -1t-2 -1
l-24 -4q12 -60 23 -116t20 -103.5t14 -83.5t5 -55v-25q0 -8 -1 -20t-2 -23v-4q0 -15 -1 -24.5t-1 -20.5q54 15 105 31t90 31.5t62.5 29.5t23.5 25q7 9 13 23.5t12 28.5t12.5 25.5t15.5 14.5l-2 -48q0 -11 -0.5 -19t-5.5 -15q48 -28 90.5 -48t61.5 -20q27 0 51 16.5t42 43
t29 60.5t11 69zM1435 -151q0 18 -8.5 60t-23 100.5t-34.5 129.5t-43 148q-20 -2 -39.5 -3t-30.5 -1q-94 0 -163.5 34t-120.5 98l-5 -8q-1 -1 -2 -1.5t-3 -2.5l-4 -4q-38 -46 -75.5 -88.5t-61.5 -67.5q10 -57 21 -111.5t22.5 -100t22.5 -79t22 -49.5q40 -58 120.5 -84.5
t206.5 -26.5q30 0 84 3t115 11v43zM2945 395q0 -36 -4 -76.5t-10 -86.5q-25 -102 -71 -131v29q0 10 4 30t9 41t9 38.5t4 22.5q0 32 -5.5 92t-14.5 132.5t-19.5 150t-20.5 144.5q-6 48 -8.5 93.5t-10.5 74.5q-13 90 -24 170.5t-18.5 147t-12 116.5t-4.5 77q0 10 4.5 30
t11.5 40.5t15.5 36t15.5 15.5q9 0 12 -9.5t3.5 -25t1 -34.5t5.5 -38q1 -1 1 -8h-13q5 -29 13 -85t18 -129t21.5 -157t23 -168.5t21.5 -163.5t18.5 -142t13.5 -104t6 -50q2 -15 4 -33t1 -32v-8zM1965 1661q-85 -26 -179.5 -56.5t-187.5 -61.5t-179 -60t-153.5 -52.5
t-111 -38.5t-52.5 -18q2 4 2.5 7.5t2.5 8.5l8 20q0 17 6 27.5t6 17.5q5 2 40.5 14.5t89.5 31t122 42t138 47.5t137.5 46.5t120.5 40.5t87 29.5t38 12.5l78 25zM1920 879q0 -55 -18 -80.5t-50 -25.5q-23 0 -49 26l-4 5q-14 -13 -30 -25.5t-30.5 -22t-27 -15.5t-19.5 -6
q-48 0 -67.5 34.5t-21.5 91.5q7 54 13 83t22 29q11 0 13.5 -4t2.5 -15q0 -12 -3.5 -28.5t-3.5 -24.5q0 -29 9.5 -43t35.5 -14q27 0 42.5 10.5t21.5 26.5v16q0 19 2 39t6 45q3 -5 7 -9.5t8 -8.5l9 -14q8 -10 15.5 -21t14 -20.5t13 -16t12.5 -6.5q4 0 6 5.5t3 10.5
q-7 13 -12.5 33t-6.5 32q4 16 9 37t10 38q33 -46 50.5 -85.5t17.5 -76.5zM1945 -455q-34 -46 -55 -71.5t-40 -27.5l-23 11.5l-25 12.5t-21.5 10t-12.5 4l-13 3q-2 1 -3.5 1.5t-3.5 1.5q-1 -2 -2 -3t-2 -3h-1q-12 -15 -34.5 -36t-46.5 -33q-18 9 -35 18t-35 17l-9 4
q-7 0 -16 4t-16.5 9t-13 9t-6.5 5q40 42 62.5 71t25.5 35v-1q1 2 2.5 4.5t2.5 3.5l124 -70q23 20 47.5 44t35.5 38zM439 845q5 -11 6.5 -16.5t1.5 -12.5q0 -8 -6 -21t-14 -23q-10 35 -21 52.5t-28 17.5q-11 0 -11 -23q0 -13 2.5 -36t5 -48t5 -47.5t2.5 -34.5
q0 -19 -3.5 -44.5t-9.5 -48t-13 -38t-14 -15.5q-14 0 -18 16t-3 52l1 34q0 11 -11.5 35.5t-29 51t-37.5 49t-37 30.5q-5 0 -10 -8l-4 -4q-35 2 -58 11.5t-23 29.5v49q0 13 10 22t26 10q85 -49 136.5 -123t58.5 -159q22 34 22 76q0 13 -3.5 37t-8 50.5t-8 50.5t-3.5 36
q0 62 44 62zM714 -256q-10 -4 -36.5 -14t-61 -22.5t-72.5 -26t-72 -25.5t-59 -20.5t-33 -10.5v1q0 4 9.5 26.5t16.5 64.5q7 2 32.5 11.5t60.5 23t75 29.5t75 30.5t61.5 26t34.5 16.5zM629 1294q0 -49 -6 -84.5t-13 -57.5l-9 1v15q0 124 -65 240q0 -17 -4 -17q-6 0 -15 17
t-18.5 38t-17 39.5t-9.5 21.5q0 17 0.5 35.5t3.5 38.5q32 -23 60 -58.5t48.5 -76t32.5 -80.5t12 -72zM758 206q-88 -34 -145.5 -63.5t-73.5 -45.5q14 -10 42 -13t71 -3q37 0 68.5 6.5t51.5 18.5zM1317 1127q11 3 18 4t11 1l4 -1q2 0 2 1q22 6 42.5 10.5t43.5 7.5
q-13 22 -38.5 34.5t-47.5 12.5q-16 0 -25 -21t-11 -49h1zM1564 -537h1l-1 1v-1z" />
    <glyph glyph-name="afii57409" unicode="&#x621;" horiz-adv-x="563" arabic-form="isolated" 
d="M463 330q0 -49 -24 -81.5t-62.5 -52.5t-86 -30.5t-94.5 -16t-88.5 -8.5t-67.5 -8l-20 -22l-20 28q11 24 33 37.5t50 23t59.5 16t60 15t51.5 21.5t35 35q-36 6 -62 19.5t-42 32t-23.5 41t-7.5 46.5q0 39 17 80t47 74t69.5 54t84.5 21l-13 -100q-45 -5 -70 -28.5t-30 -49.5
q6 -2 23.5 -9t40.5 -18t47.5 -25t45 -29.5t34 -32t13.5 -33.5z" />
    <glyph glyph-name="afii57415" unicode="&#x627;" horiz-adv-x="398" arabic-form="isolated" 
d="M213 1133q6 -39 16 -88t23 -117q24 -126 35 -217t11 -154q0 -97 -27.5 -199.5t-73.5 -216.5l-18 9q12 70 18.5 133t6.5 126q0 46 -3.5 93t-10 97.5t-16.5 105.5t-23 118q-51 245 -51 353q0 28 26 73.5t68 111.5q7 -6 15 -13q25 -23 47 -51t40 -61.5t31 -68t20 -70
t7 -69.5q0 -33 -7.5 -62.5t-24.5 -54.5q-11 -26 -16 -37t-6 -11v1q0 3 2.5 14t6.5 26q5 19 5 45q0 22 -3 46.5t-9.5 50.5t-16 50.5t-21.5 45.5t-27.5 37t-33.5 24q3 -32 10 -70z" />
    <glyph glyph-name="afii57416" unicode="&#x628;" horiz-adv-x="2300" arabic-form="isolated" 
d="M1227 -198l-111 -167l-172 108l100 168zM2006 191q-29 -18 -67 -28q-226 -46 -335 -60.5t-228 -22.5t-241 -8q-140 0 -278.5 12t-264.5 38t-234 68t-187.5 102.5t-125 141t-45.5 183.5q0 57 15.5 122t48.5 138l31 -8q-18 -42 -26.5 -79.5t-8.5 -72.5q0 -82 44 -146.5
t121.5 -112.5t183 -81.5t228.5 -54t258.5 -30t271.5 -9.5q154 0 303 10.5t277 28.5q66 9 172.5 28.5t119.5 24.5q19 6 25 16q7 42 0.5 66.5t-17 50t-25 48t-43.5 53.5q-70 91 -79 151q-1 52 28.5 78.5t78.5 65.5l11 -5q-1 -12 -1.5 -22t0.5 -19q2 -18 7.5 -34.5t15.5 -36
t24.5 -44t33.5 -58.5q35 -63 53 -109t20 -79q5 -51 -24 -107q-22 -43 -55 -100t-86 -99z" />
    <glyph glyph-name="afii57417" unicode="&#x629;" horiz-adv-x="649" arabic-form="isolated" 
d="M534 1191l-108 -156l-183 99l105 163zM255 1191l-97 -156l-184 99l106 163zM310 346q54 0 92 18t61 44q-16 33 -44 64t-63 55t-73 38.5t-74 14.5q-25 0 -47 -8.5t-39.5 -27.5t-29 -49t-14.5 -73q9 -16 25.5 -30t44 -24t67 -16t94.5 -6zM547 451q1 -10 1.5 -19.5
t0.5 -18.5q0 -72 -23.5 -123t-62.5 -83.5t-88.5 -47t-100.5 -14.5t-100.5 13.5t-88 37.5t-62 58t-23.5 74q0 23 9.5 68t26.5 99.5t40.5 111.5t51.5 103.5t58.5 76.5t62.5 30q31 0 64.5 -16.5t65.5 -44.5t61 -65t52 -78t37.5 -82.5t17.5 -79.5z" />
    <glyph glyph-name="afii57418" unicode="&#x62a;" horiz-adv-x="2300" arabic-form="isolated" 
d="M1431 1079l-106 -165l-187 108l107 161zM1151 1079l-93 -165l-189 108l105 161zM2006 191q-29 -18 -67 -28q-226 -46 -335 -60.5t-228 -22.5t-241 -8q-140 0 -278.5 12t-264.5 38t-234 68t-187.5 102.5t-125 141t-45.5 183.5q0 57 15.5 122t48.5 138l31 -8
q-18 -42 -26.5 -79.5t-8.5 -72.5q0 -82 44 -146.5t121.5 -112.5t183 -81.5t228.5 -54t258.5 -30t271.5 -9.5q154 0 303 10.5t277 28.5q66 9 172.5 28.5t119.5 24.5q19 6 25 16q7 42 0.5 66.5t-17 50t-25 48t-43.5 53.5q-70 91 -79 151q-1 52 28.5 78.5t78.5 65.5l11 -5
q-1 -12 -1.5 -22t0.5 -19q2 -18 7.5 -34.5t15.5 -36t24.5 -44t33.5 -58.5q35 -63 53 -109t20 -79q5 -51 -24 -107q-22 -43 -55 -100t-86 -99z" />
    <glyph glyph-name="afii57419" unicode="&#x62b;" horiz-adv-x="2300" arabic-form="isolated" 
d="M1424 1080l-100 -165l-188 112l109 160zM1153 1080l-102 -165l-180 112l101 160zM1239 1345l-100 -158l-188 109l105 153zM2006 191q-29 -18 -67 -28q-226 -46 -335 -60.5t-228 -22.5t-241 -8q-140 0 -278.5 12t-264.5 38t-234 68t-187.5 102.5t-125 141t-45.5 183.5
q0 57 15.5 122t48.5 138l31 -8q-18 -42 -26.5 -79.5t-8.5 -72.5q0 -82 44 -146.5t121.5 -112.5t183 -81.5t228.5 -54t258.5 -30t271.5 -9.5q154 0 303 10.5t277 28.5q66 9 172.5 28.5t119.5 24.5q19 6 25 16q7 42 0.5 66.5t-17 50t-25 48t-43.5 53.5q-70 91 -79 151
q-1 52 28.5 78.5t78.5 65.5l11 -5q-1 -12 -1.5 -22t0.5 -19q2 -18 7.5 -34.5t15.5 -36t24.5 -44t33.5 -58.5q35 -63 53 -109t20 -79q5 -51 -24 -107q-22 -43 -55 -100t-86 -99z" />
    <glyph glyph-name="afii57420" unicode="&#x62c;" horiz-adv-x="1453" arabic-form="isolated" 
d="M931 -191l-101 -168l-181 109l101 163zM1513 -751l-1 -38q-49 -23 -109 -52t-126 -59t-134.5 -59t-133.5 -51.5t-125 -36t-108 -13.5q-165 0 -307 37.5t-246 117.5t-163.5 204.5t-59.5 298.5q0 156 40.5 292t119 250t193.5 206t264 159q-32 9 -68.5 19t-75 18.5t-78 14
t-77.5 5.5t-74 -6.5t-68 -22.5t-59 -43t-47 -67l-21 6q31 94 68.5 155.5t81.5 97.5t95 50.5t110 14.5q66 0 141.5 -13t162.5 -28.5t185 -28.5t208 -13q39 0 78.5 1.5t81.5 6.5l-92 -180q-14 1 -28.5 1.5t-29.5 0.5q-118 0 -242 -26.5t-240 -76t-218.5 -121.5t-179.5 -162.5
t-121.5 -199t-44.5 -231.5q0 -98 35 -173.5t96.5 -132t144.5 -95t179 -62t201 -34t209 -10.5q86 0 169.5 6t159 17t140.5 25t114 31z" />
    <glyph glyph-name="afii57421" unicode="&#x62d;" horiz-adv-x="1453" arabic-form="isolated" 
d="M1513 -751l-1 -38q-49 -23 -109 -52t-126 -59t-134.5 -59t-133.5 -51.5t-125 -36t-108 -13.5q-165 0 -307 37.5t-246 117.5t-163.5 204.5t-59.5 298.5q0 156 40.5 292t119 250t193.5 206t264 159q-32 9 -68.5 19t-75 18.5t-78 14t-77.5 5.5t-74 -6.5t-68 -22.5t-59 -43
t-47 -67l-21 6q31 94 68.5 155.5t81.5 97.5t95 50.5t110 14.5q66 0 141.5 -13t162.5 -28.5t185 -28.5t208 -13q39 0 78.5 1.5t81.5 6.5l-92 -180q-14 1 -28.5 1.5t-29.5 0.5q-118 0 -242 -26.5t-240 -76t-218.5 -121.5t-179.5 -162.5t-121.5 -199t-44.5 -231.5
q0 -98 35 -173.5t96.5 -132t144.5 -95t179 -62t201 -34t209 -10.5q86 0 169.5 6t159 17t140.5 25t114 31z" />
    <glyph glyph-name="afii57422" unicode="&#x62e;" horiz-adv-x="1453" arabic-form="isolated" 
d="M827 1118l-103 -172l-181 114l106 161zM1513 -751l-1 -38q-49 -23 -109 -52t-126 -59t-134.5 -59t-133.5 -51.5t-125 -36t-108 -13.5q-165 0 -307 37.5t-246 117.5t-163.5 204.5t-59.5 298.5q0 156 40.5 292t119 250t193.5 206t264 159q-32 9 -68.5 19t-75 18.5t-78 14
t-77.5 5.5t-74 -6.5t-68 -22.5t-59 -43t-47 -67l-21 6q31 94 68.5 155.5t81.5 97.5t95 50.5t110 14.5q66 0 141.5 -13t162.5 -28.5t185 -28.5t208 -13q39 0 78.5 1.5t81.5 6.5l-92 -180q-14 1 -28.5 1.5t-29.5 0.5q-118 0 -242 -26.5t-240 -76t-218.5 -121.5t-179.5 -162.5
t-121.5 -199t-44.5 -231.5q0 -98 35 -173.5t96.5 -132t144.5 -95t179 -62t201 -34t209 -10.5q86 0 169.5 6t159 17t140.5 25t114 31z" />
    <glyph glyph-name="afii57423" unicode="&#x62f;" horiz-adv-x="824" arabic-form="isolated" 
d="M724 397q0 -87 -28.5 -139t-78.5 -79.5t-119 -36t-150 -8.5q-69 0 -132 4.5t-111 25t-76.5 63.5t-28.5 119q0 74 40 178l15 -2q-4 -14 -6 -28.5t-2 -36.5q0 -10 0.5 -21t1.5 -25q23 -24 60 -41.5t82.5 -28.5t97 -16.5t103.5 -5.5q64 0 124 7.5t108 22.5
q-10 41 -27.5 88.5t-41 94t-53.5 89.5t-65.5 76.5t-76 53t-86.5 19.5q-36 0 -72 -13q-8 30 -8 58q0 68 43 129q29 12 67 12q280 0 388 -424q16 -60 24.5 -93.5t7.5 -41.5z" />
    <glyph glyph-name="afii57424" unicode="&#x630;" horiz-adv-x="824" arabic-form="isolated" 
d="M481 1297l-107 -166l-176 112l96 160zM724 397q0 -87 -28.5 -139t-78.5 -79.5t-119 -36t-150 -8.5q-69 0 -132 4.5t-111 25t-76.5 63.5t-28.5 119q0 74 40 178l15 -2q-4 -14 -6 -28.5t-2 -36.5q0 -10 0.5 -21t1.5 -25q23 -24 60 -41.5t82.5 -28.5t97 -16.5t103.5 -5.5
q64 0 124 7.5t108 22.5q-10 41 -27.5 88.5t-41 94t-53.5 89.5t-65.5 76.5t-76 53t-86.5 19.5q-36 0 -72 -13q-8 30 -8 58q0 68 43 129q29 12 67 12q280 0 388 -424q16 -60 24.5 -93.5t7.5 -41.5z" />
    <glyph glyph-name="afii57425" unicode="&#x631;" horiz-adv-x="700" arabic-form="isolated" 
d="M685 585q0 -138 -44 -262.5t-124.5 -230.5t-194.5 -190.5t-254 -143.5q-123 30 -468 249l6 15q211 -104 343 -104q47 0 112.5 25.5t136.5 69t141 100.5t126 119.5t90.5 127t34.5 122.5q0 31 -10.5 62.5t-32.5 67.5t-56.5 78.5t-82.5 96.5l78 243q199 -168 199 -445z" />
    <glyph glyph-name="afii57426" unicode="&#x632;" horiz-adv-x="700" arabic-form="isolated" 
d="M319 1326l-103 -172l-179 119l97 153zM685 514q0 -138 -44 -262.5t-124.5 -230.5t-194.5 -190.5t-254 -143.5q-123 30 -468 249l6 15q211 -104 343 -104q47 0 112.5 25.5t136.5 69t141 100.5t126 119.5t90.5 127t34.5 122.5q0 31 -10.5 62.5t-32.5 67.5t-56.5 78.5
t-82.5 96.5l78 243q199 -168 199 -445z" />
    <glyph glyph-name="afii57427" unicode="&#x633;" horiz-adv-x="1780" arabic-form="isolated" 
d="M151 651q19 -27 35 -56q20 -41 32 -81t12 -72q0 -49 -6 -84.5t-13 -57.5l-9 1v15q0 122 -62 235q-128 -349 -128 -421q0 -79 37 -132t96 -85.5t132 -46t144 -13.5q34 0 80 7t95.5 20.5t98.5 34t87.5 47.5t62.5 60.5t24 73.5q0 109 -147 380v5q0 17 6 43t16 52.5
t21.5 48.5t23.5 29q37 -75 67 -150.5t54 -151.5q27 -9 60.5 -13.5t69.5 -4.5q45 0 92 6.5t87.5 18.5t71 28.5t44.5 37.5q20 49 38.5 113t37.5 143l30 -14q-7 -26 -16 -68t-18 -86t-17.5 -84t-14.5 -61q97 -103 170 -103q22 26 30.5 47.5t8.5 44.5q0 34 -14.5 76.5
t-31.5 108.5q72 130 119 162q7 -33 14.5 -95.5t7.5 -152.5q0 -34 -13.5 -82.5t-33.5 -98.5t-42.5 -96t-40.5 -74q-80 0 -244 125q-12 -12 -36.5 -24t-58 -21t-74 -15t-83.5 -6q-63 0 -125 15q0 -7 0.5 -13.5t0.5 -12.5q0 -485 -603 -485q-70 0 -138 22.5t-120.5 64t-85 101
t-32.5 133.5q0 143 155 570z" />
    <glyph glyph-name="afii57428" unicode="&#x634;" horiz-adv-x="1780" arabic-form="isolated" 
d="M1540 1013l-100 -165l-188 112l109 160zM1269 1013l-102 -165l-180 112l101 160zM1355 1278l-100 -158l-188 109l105 153zM151 651q19 -27 35 -56q20 -41 32 -81t12 -72q0 -49 -6 -84.5t-13 -57.5l-9 1v15q0 122 -62 235q-128 -349 -128 -421q0 -79 37 -132t96 -85.5
t132 -46t144 -13.5q34 0 80 7t95.5 20.5t98.5 34t87.5 47.5t62.5 60.5t24 73.5q0 109 -147 380v5q0 17 6 43t16 52.5t21.5 48.5t23.5 29q37 -75 67 -150.5t54 -151.5q27 -9 60.5 -13.5t69.5 -4.5q45 0 92 6.5t87.5 18.5t71 28.5t44.5 37.5q20 49 38.5 113t37.5 143l30 -14
q-7 -26 -16 -68t-18 -86t-17.5 -84t-14.5 -61q97 -103 170 -103q22 26 30.5 47.5t8.5 44.5q0 34 -14.5 76.5t-31.5 108.5q72 130 119 162q7 -33 14.5 -95.5t7.5 -152.5q0 -34 -13.5 -82.5t-33.5 -98.5t-42.5 -96t-40.5 -74q-80 0 -244 125q-12 -12 -36.5 -24t-58 -21
t-74 -15t-83.5 -6q-63 0 -125 15q0 -7 0.5 -13.5t0.5 -12.5q0 -485 -603 -485q-70 0 -138 22.5t-120.5 64t-85 101t-32.5 133.5q0 143 155 570z" />
    <glyph glyph-name="afii57429" unicode="&#x635;" horiz-adv-x="2224" arabic-form="isolated" 
d="M2006 499q0 36 -25 70.5t-61.5 61.5t-78 43.5t-73.5 16.5q-29 0 -69.5 -19t-86 -49t-94 -67t-94.5 -73t-87 -67t-71 -49q21 -3 49.5 -4.5t61.5 -1.5q58 0 127 4.5t139 13.5t135.5 21t116 27.5t81 33.5t30.5 38zM12 130q0 -73 36 -125.5t95.5 -87t135.5 -51t156 -16.5
q81 0 159 16.5t139 47.5t98.5 76t37.5 102q0 110 -147 384v5q0 17 6 43t16 52.5t21.5 48.5t23.5 29q37 -61 66 -120.5t52 -117.5q87 -48 287 -48q48 45 131 110.5t207 156.5q143 105 232 156t124 51q41 0 83 -18t76 -48t55.5 -69.5t21.5 -82.5q0 -65 -34.5 -133t-86.5 -128
t-111.5 -106t-109.5 -67q-19 -7 -66 -16.5t-110.5 -18t-138.5 -14.5t-150 -6q-68 0 -131 6q-4 -20 -20 -70.5t-45 -132.5l-22 -5q5 37 14.5 89.5t23.5 121.5h-26q-117 0 -179 51q0 -183 -61 -306q-31 -50 -86.5 -91t-124.5 -70t-147.5 -44.5t-155.5 -15.5q-80 0 -153.5 18
t-130 57t-90 99.5t-33.5 146.5q0 139 147 548q2 6 7 18q2 8 5 15h1l41 81q19 -27 35 -56q20 -41 32 -81t12 -72q0 -49 -6 -84.5t-13 -57.5l-9 1v15q0 122 -62 235l-14 -38q-114 -315 -114 -383z" />
    <glyph glyph-name="afii57430" unicode="&#x636;" horiz-adv-x="2224" arabic-form="isolated" 
d="M1658 1160l-101 -170l-182 116l103 160zM2006 499q0 36 -25 70.5t-61.5 61.5t-78 43.5t-73.5 16.5q-29 0 -69.5 -19t-86 -49t-94 -67t-94.5 -73t-87 -67t-71 -49q21 -3 49.5 -4.5t61.5 -1.5q58 0 127 4.5t139 13.5t135.5 21t116 27.5t81 33.5t30.5 38zM12 130
q0 -73 36 -125.5t95.5 -87t135.5 -51t156 -16.5q81 0 159 16.5t139 47.5t98.5 76t37.5 102q0 110 -147 384v5q0 17 6 43t16 52.5t21.5 48.5t23.5 29q37 -61 66 -120.5t52 -117.5q87 -48 287 -48q48 45 131 110.5t207 156.5q143 105 232 156t124 51q41 0 83 -18t76 -48
t55.5 -69.5t21.5 -82.5q0 -65 -34.5 -133t-86.5 -128t-111.5 -106t-109.5 -67q-19 -7 -66 -16.5t-110.5 -18t-138.5 -14.5t-150 -6q-68 0 -131 6q-4 -20 -20 -70.5t-45 -132.5l-22 -5q5 37 14.5 89.5t23.5 121.5h-26q-117 0 -179 51q0 -183 -61 -306q-31 -50 -86.5 -91
t-124.5 -70t-147.5 -44.5t-155.5 -15.5q-80 0 -153.5 18t-130 57t-90 99.5t-33.5 146.5q0 139 147 548q2 6 7 18q2 8 5 15h1l41 81q19 -27 35 -56q20 -41 32 -81t12 -72q0 -49 -6 -84.5t-13 -57.5l-9 1v15q0 122 -62 235l-14 -38q-114 -315 -114 -383z" />
    <glyph glyph-name="afii57431" unicode="&#x637;" horiz-adv-x="1304" arabic-form="isolated" 
d="M1204 624q0 -39 -51 -140q-26 -78 -79.5 -139.5t-126 -104t-160 -65t-181.5 -22.5q-79 0 -159.5 16t-158.5 51l-60 -205l-26 -4q4 42 14 99t26 135q-164 50 -242 109l14 14h264l56 50q1 11 1.5 22.5t0.5 25.5q0 48 -5.5 107t-14 123t-19 128.5t-20 121.5t-16.5 103
t-10 73q-76 52 -106 95t-30 88q0 26 8 53t21.5 58t30.5 65.5t34 75.5l9 -5q-16 -33 -16 -102q0 -38 23.5 -66t58 -48.5t73.5 -35t70 -26.5l-46 -173q-17 5 -26 5q-11 0 -17 -6.5t-7 -24.5q9 -51 19.5 -112.5t19.5 -126t15.5 -128.5t6.5 -119q0 -45 -5 -81t-17 -60
q63 46 132.5 100.5t141 107.5t143 100.5t137.5 79.5q26 12 55 12q40 0 80 -20t72.5 -52t52.5 -72t20 -80zM1086 502q0 35 -26 68.5t-63 60.5t-78 43.5t-71 16.5t-70.5 -19t-86 -49t-93.5 -67t-94 -73t-87.5 -67t-72.5 -49q20 -2 46 -3.5t55 -1.5q59 0 129.5 4.5t141.5 13.5
t138 21.5t118.5 28t82.5 34t31 38.5z" />
    <glyph glyph-name="afii57432" unicode="&#x638;" horiz-adv-x="1304" arabic-form="isolated" 
d="M920 1152l-101 -164l-181 107l94 156zM1204 624q0 -39 -51 -140q-26 -78 -79.5 -139.5t-126 -104t-160 -65t-181.5 -22.5q-79 0 -159.5 16t-158.5 51l-60 -205l-26 -4q4 42 14 99t26 135q-164 50 -242 109l14 14h264l56 50q1 11 1.5 22.5t0.5 25.5q0 48 -5.5 107t-14 123
t-19 128.5t-20 121.5t-16.5 103t-10 73q-76 52 -106 95t-30 88q0 26 8 53t21.5 58t30.5 65.5t34 75.5l9 -5q-16 -33 -16 -102q0 -38 23.5 -66t58 -48.5t73.5 -35t70 -26.5l-46 -173q-17 5 -26 5q-11 0 -17 -6.5t-7 -24.5q9 -51 19.5 -112.5t19.5 -126t15.5 -128.5t6.5 -119
q0 -45 -5 -81t-17 -60q63 46 132.5 100.5t141 107.5t143 100.5t137.5 79.5q26 12 55 12q40 0 80 -20t72.5 -52t52.5 -72t20 -80zM1086 502q0 35 -26 68.5t-63 60.5t-78 43.5t-71 16.5t-70.5 -19t-86 -49t-93.5 -67t-94 -73t-87.5 -67t-72.5 -49q20 -2 46 -3.5t55 -1.5
q59 0 129.5 4.5t141.5 13.5t138 21.5t118.5 28t82.5 34t31 38.5z" />
    <glyph glyph-name="afii57433" unicode="&#x639;" horiz-adv-x="1455" arabic-form="isolated" 
d="M1505 -751l-1 -38q-51 -23 -112 -52t-127 -59t-134 -59t-133 -51.5t-125 -36t-109 -13.5q-164 0 -304 36.5t-242 114.5t-160 200.5t-58 295.5q0 96 21 190t61 184t96.5 174.5t128.5 162.5q-27 21 -53 44.5t-45.5 50.5t-31.5 58t-12 68q0 31 8.5 70t24 79.5t37.5 79.5
t48.5 71.5t57 55t63.5 29.5q42 9 94 9q41 0 84.5 -5.5t85 -17t78.5 -28.5t65 -40v-23q-28 4 -59.5 6t-65.5 2q-49 0 -101 -4.5t-101 -15t-93 -26t-78.5 -38t-57 -52t-28.5 -66.5q6 -31 27.5 -55.5t52 -42.5t68.5 -30.5t76.5 -20t75.5 -11t66 -3.5q15 0 49.5 6.5t78.5 16.5
t92.5 23.5t91.5 27.5t75.5 27.5t44.5 24.5q-8 -69 -36 -193q-91 -31 -194 -64.5t-204.5 -75t-195 -94t-165 -122t-114 -158t-42.5 -202.5q0 -93 33.5 -165t92 -126t138.5 -91.5t173.5 -60.5t196.5 -33.5t207 -10.5q83 0 164 6t156.5 16t144 24t125.5 31z" />
    <glyph glyph-name="afii57434" unicode="&#x63a;" horiz-adv-x="1455" arabic-form="isolated" 
d="M672 1234l-95 -161l-189 107l104 156zM1505 -751l-1 -38q-51 -23 -112 -52t-127 -59t-134 -59t-133 -51.5t-125 -36t-109 -13.5q-164 0 -304 36.5t-242 114.5t-160 200.5t-58 295.5q0 96 21 190t61 184t96.5 174.5t128.5 162.5q-27 21 -53 44.5t-45.5 50.5t-31.5 58
t-12 68q0 31 8.5 70t24 79.5t37.5 79.5t48.5 71.5t57 55t63.5 29.5q42 9 94 9q41 0 84.5 -5.5t85 -17t78.5 -28.5t65 -40v-23q-28 4 -59.5 6t-65.5 2q-49 0 -101 -4.5t-101 -15t-93 -26t-78.5 -38t-57 -52t-28.5 -66.5q6 -31 27.5 -55.5t52 -42.5t68.5 -30.5t76.5 -20
t75.5 -11t66 -3.5q15 0 49.5 6.5t78.5 16.5t92.5 23.5t91.5 27.5t75.5 27.5t44.5 24.5q-8 -69 -36 -193q-91 -31 -194 -64.5t-204.5 -75t-195 -94t-165 -122t-114 -158t-42.5 -202.5q0 -93 33.5 -165t92 -126t138.5 -91.5t173.5 -60.5t196.5 -33.5t207 -10.5q83 0 164 6
t156.5 16t144 24t125.5 31z" />
    <glyph glyph-name="afii57441" unicode="&#x641;" horiz-adv-x="2578" arabic-form="isolated" 
d="M2478 648q0 -123 -40 -212t-121 -152t-202.5 -104.5t-285.5 -69.5q-72 -15 -153.5 -27.5t-170 -21.5t-182 -14t-188.5 -5q-140 0 -278.5 12t-264.5 38t-234.5 68t-188 102.5t-124.5 140.5t-45 183q0 58 15.5 123t48.5 138l31 -8q-18 -42 -26.5 -79.5t-8.5 -72.5
q0 -82 44 -146t121 -112t181.5 -81.5t227 -54.5t257 -30.5t270.5 -9.5q95 0 189 4t182.5 11.5t170.5 18.5t154 24q521 77 521 221q0 74 -36 140q-22 -42 -39.5 -77t-40.5 -60.5t-56.5 -39.5t-87.5 -14q-97 0 -150.5 54t-53.5 148q0 27 9.5 72t27 97.5t41.5 106.5t52 97.5
t59 71t64 27.5q43 0 83 -27.5t74.5 -71.5t63 -99t48.5 -111.5t31 -108.5t11 -89zM2308 746l-1 26q-14 22 -36.5 47t-49.5 46.5t-57 35.5t-60 14q-23 0 -43.5 -11t-36.5 -27t-25 -34.5t-9 -32.5q0 -23 18 -40.5t46 -29t63 -17t69 -5.5q39 0 72 7t50 21zM2248 1460l-103 -163
l-185 111l104 161z" />
    <glyph glyph-name="afii57442" unicode="&#x642;" horiz-adv-x="1216" arabic-form="isolated" 
d="M1032 1471l-108 -161l-182 105l107 162zM755 1471l-100 -161l-182 105l106 162zM916 746q-7 29 -29.5 59t-51.5 54t-61 39.5t-58 15.5q-23 0 -42 -8t-32.5 -20.5t-21 -29t-7.5 -34.5q0 -25 16 -44.5t41.5 -32.5t56.5 -19.5t60 -6.5q62 0 129 27zM90 766q-6 -18 -11 -36
q-21 -79 -21 -147q0 -98 40.5 -172.5t110.5 -124.5t164.5 -75t203.5 -25q63 0 128.5 8.5t133.5 25.5q208 54 208 140q0 149 -94 312q-21 -39 -39 -74t-41 -61t-57 -41t-88 -15q-45 0 -82.5 14t-64.5 40.5t-41.5 63.5t-14.5 83q0 108 79 275q19 45 39.5 82t43 63.5t46.5 41.5
t50 15q23 0 46 -11.5t49 -37.5q238 -232 238 -627q0 -166 -77 -362q-10 -27 -47 -50t-89 -42t-113.5 -33.5t-120 -24t-108.5 -14.5t-79 -5q-122 0 -212.5 44.5t-150 119t-89 172t-29.5 202.5q0 109 31 218q16 58 41 113v1q4 11 8 23l46 92q19 -27 35 -56q20 -41 32 -81
t12 -72q0 -49 -6 -84.5t-13 -57.5l-9 1v15q0 121 -61 234q-4 -8 -7 -16q-11 -29 -20 -55v1z" />
    <glyph glyph-name="afii57443" unicode="&#x643;" horiz-adv-x="1627" arabic-form="isolated" 
d="M632 150q-325 0 -440 58q-45 17 -80.5 52.5t-60 83.5t-37.5 105t-13 115q0 71 19.5 137.5t61.5 120.5l23 -13q-46 -94 -46 -182q0 -78 37.5 -141.5t116.5 -99.5q18 -12 73.5 -19.5t165.5 -11.5t284 -5t430 -1q121 0 189 37t94 112q-6 32 -15 89t-19.5 126t-20.5 144.5
t-18 144.5l-60 -54q-9 29 -16.5 61t-13.5 64.5t-10 63t-6 55.5q1 7 16.5 30.5t39 55t51.5 66.5t54 64.5t46 49.5t28 22l-36 -190h-2q-6 0 -11 -6t-8.5 -15t-7 -19t-6.5 -17q35 -136 53.5 -249t27 -203t10 -156t1.5 -108q-7 -76 -32.5 -142.5t-70 -116.5t-107.5 -79t-145 -29
h-539zM797 790q0 5 -23 7.5t-51 5.5t-51 8t-23 15q0 59 52.5 106t137.5 80l19 -62q-7 -4 -26 -8t-39 -8.5t-35.5 -10.5t-15.5 -15t13 -15.5t32.5 -11t42.5 -9.5t42.5 -11t32.5 -15t13 -22q0 -28 -20 -48.5t-51.5 -33.5t-71 -19t-78.5 -6q-46 0 -86 8t-60 22q18 5 43 7.5
t52.5 3.5t54.5 2.5t48.5 4.5t34.5 9t13 16z" />
    <glyph glyph-name="afii57444" unicode="&#x644;" horiz-adv-x="1147" arabic-form="isolated" 
d="M1047 1263l-48 -180q-10 2 -19 4t-17 4q-10 -13 -18 -30q75 -379 75 -611t-57 -358q-33 -71 -94.5 -127t-139 -95t-163 -60t-165.5 -21q-84 0 -157 20.5t-127.5 63t-85.5 108t-31 154.5q0 122 161 569l32 -12q-128 -389 -128 -428q0 -81 35 -135t92 -86.5t129.5 -45.5
t147.5 -13q46 0 99 10t106 30t101.5 48.5t86 65.5t60 82t22.5 97q0 527 -72 789q-75 57 -106 99.5t-31 71.5q0 113 86 265l27 -7q-11 -23 -21.5 -49t-10.5 -55q0 -39 21 -62.5t54.5 -40.5t74.5 -31t81 -34z" />
    <glyph glyph-name="afii57445" unicode="&#x645;" horiz-adv-x="823" arabic-form="isolated" 
d="M723 270l-47 -23q-31 25 -78 47t-101.5 38.5t-113.5 26.5t-113 10q-47 0 -87.5 -8.5t-70.5 -26.5q34 -56 59 -121.5t42 -135.5t25.5 -143.5t8.5 -146.5q0 -80 -10.5 -156t-30.5 -144l-37 61q-3 84 -8 152.5t-17.5 134t-35 133.5t-60.5 150q-23 51 -35 94t-12 81
q0 60 30 112.5t93 112.5q36 7 70.5 10.5t68.5 3.5q26 0 50.5 -2t48.5 -6q-10 21 -28 38t-41.5 28.5t-50.5 18t-54 6.5t-52.5 -7t-45.5 -22l-26 38q48 151 169 151q40 0 92 -25.5t106 -67t106 -95.5t93 -110t66.5 -110t26.5 -97z" />
    <glyph glyph-name="afii57446" unicode="&#x646;" horiz-adv-x="1066" arabic-form="isolated" 
d="M627 1162l-105 -165l-189 108l108 155zM177 809q-53 -122 -82 -224q-30 -105 -30 -190q0 -69 22 -122.5t71 -90.5t126 -56.5t187 -19.5q34 0 80 6.5t95.5 20t98 33t87 46t62 59.5t23.5 73q0 114 -148 385v4q0 14 6 41t16 54.5t21.5 49.5t23.5 26q24 -61 47.5 -113
t41.5 -108t29.5 -123.5t11.5 -160.5q-13 -241 -152.5 -366t-406.5 -125q-112 0 -189.5 26.5t-126 74t-70 113.5t-21.5 145q0 61 11.5 128t32.5 137.5t50 144t63 147.5l42 83q19 -27 35 -56q20 -41 32 -81t12 -72q0 -49 -6 -84.5t-13 -57.5l-9 1v15q0 122 -62 235z" />
    <glyph glyph-name="afii57470" unicode="&#x647;" horiz-adv-x="649" arabic-form="isolated" 
d="M310 346q54 0 92 18t61 44q-16 33 -44 64t-63 55t-73 38.5t-74 14.5q-25 0 -47 -8.5t-39.5 -27.5t-29 -49t-14.5 -73q9 -16 25.5 -30t44 -24t67 -16t94.5 -6zM547 451q1 -10 1.5 -19.5t0.5 -18.5q0 -72 -23.5 -123t-62.5 -83.5t-88.5 -47t-100.5 -14.5t-100.5 13.5
t-88 37.5t-62 58t-23.5 74q0 23 9.5 68t26.5 99.5t40.5 111.5t51.5 103.5t58.5 76.5t62.5 30q31 0 64.5 -16.5t65.5 -44.5t61 -65t52 -78t37.5 -82.5t17.5 -79.5z" />
    <glyph glyph-name="afii57448" unicode="&#x648;" horiz-adv-x="885" arabic-form="isolated" 
d="M622 415q-18 -34 -39.5 -56t-52.5 -33t-83 -11q-211 0 -211 199q0 24 10 68.5t27 96.5t41 106.5t52.5 98.5t59.5 72t64 28q41 0 79 -22.5t71 -59.5t59.5 -84t45.5 -95.5t29.5 -94.5t10.5 -80q0 -603 -617 -861q-78 25 -193.5 89.5t-274.5 170.5l8 16q247 -116 318 -116
q33 0 79.5 13t100.5 36.5t111.5 56t113 71.5t105 83t86.5 90.5t59 94t22 93.5q0 60 -40 110q-1 -1 -1 -2q-23 -45 -40 -78zM631 576q0 31 -20 61t-50.5 54t-68 38.5t-72.5 14.5q-40 0 -68 -24.5t-28 -81.5q0 -23 17 -40t44 -28t60 -16t66 -5q39 0 71.5 6.5t48.5 20.5z" />
    <glyph glyph-name="afii57449" unicode="&#x649;" horiz-adv-x="1448" arabic-form="isolated" 
d="M1348 418q0 -10 -4 -32t-10.5 -50.5t-15.5 -59t-18 -58t-17.5 -48.5t-15.5 -29q-25 -38 -79.5 -72t-126 -63.5t-152.5 -53.5t-158.5 -41t-145 -26t-110.5 -9q-138 0 -232.5 38t-152.5 103.5t-83.5 153.5t-25.5 188q0 69 10.5 142t29.5 146t45 144.5t57 137.5l31 -12
q-61 -135 -89 -244t-28 -197q0 -106 36.5 -180t100.5 -121t149.5 -68.5t184.5 -21.5q85 0 176.5 14.5t182 41.5t178 65.5t165.5 84.5q-32 28 -83.5 48.5t-110 37.5t-118 32.5t-107.5 34t-78 41.5t-30 54q0 76 17 150.5t48.5 142t78 125t105 99.5t129 66t150.5 24
q35 0 57.5 -6.5t35.5 -22t18 -42t5 -66.5q0 -32 -4.5 -59.5t-14.5 -36.5q-66 32 -168 32q-16 0 -48.5 -10.5t-71.5 -28.5t-80 -41.5t-75 -50t-55.5 -54t-21.5 -52.5v-8q3 -13 28 -27.5t63.5 -30.5t86.5 -33t98 -35.5t97.5 -37.5t84.5 -38.5t59.5 -39.5t22.5 -40z" />
    <glyph glyph-name="afii57450" unicode="&#x64a;" horiz-adv-x="1448" arabic-form="isolated" 
d="M939 -601l-106 -162l-186 109l103 159zM661 -601l-95 -162l-186 109l108 159zM1348 218q0 -10 -4 -32t-10.5 -50.5t-15.5 -59t-18 -58t-17.5 -48.5t-15.5 -29q-25 -38 -79.5 -72t-126 -63.5t-152.5 -53.5t-158.5 -41t-145 -26t-110.5 -9q-138 0 -232.5 38t-152.5 103.5
t-83.5 153.5t-25.5 188q0 69 10.5 142t29.5 146t45 144.5t57 137.5l31 -12q-61 -135 -89 -244t-28 -197q0 -106 36.5 -180t100.5 -121t149.5 -68.5t184.5 -21.5q85 0 176.5 14.5t182 41.5t178 65.5t165.5 84.5q-32 28 -83.5 48.5t-110 37.5t-118 32.5t-107.5 34t-78 41.5
t-30 54q0 76 17 150.5t48.5 142t78 125t105 99.5t129 66t150.5 24q35 0 57.5 -6.5t35.5 -22t18 -42t5 -66.5q0 -32 -4.5 -59.5t-14.5 -36.5q-66 32 -168 32q-16 0 -48.5 -10.5t-71.5 -28.5t-80 -41.5t-75 -50t-55.5 -54t-21.5 -52.5v-8q3 -13 28 -27.5t63.5 -30.5t86.5 -33
t98 -35.5t97.5 -37.5t84.5 -38.5t59.5 -39.5t22.5 -40z" />
    <glyph glyph-name="afii57451" unicode="&#xfe70;" arabic-form="isolated" 
d="M566 1675l1 -4q-20 -5 -91 -34.5t-186 -83.5q-94 -45 -158.5 -67.5t-96.5 -22.5h-132l-1 4q233 106 364.5 157t165.5 51h134zM518 1820l1 -4q-22 -6 -90.5 -37.5t-189.5 -88.5q-192 -86 -253 -86h-132l-1 4q465 212 532 212h133z" />
    <glyph glyph-name="afii57452" unicode="&#xfe72;" arabic-form="isolated" 
d="M390 1717q0 70 -69 70q-64 0 -64 -51q0 -8 18 -27.5t48 -44.5q32 17 49.5 30.5t17.5 22.5zM485 1702q0 -54 -96 -95q18 -16 39.5 -33.5t38.5 -33.5h-62q-45 0 -88 31q-85 -48 -158.5 -76t-118.5 -28v105q-29 -14 -58.5 -19.5t-64.5 -5.5h-85l-1 4q66 29 142.5 65
t164.5 81v-120q21 7 46 19t58 31q-76 64 -76 109q0 47 52.5 96.5t152.5 120.5q0 -22 14.5 -52.5t43.5 -74.5q56 -83 56 -124z" />
    <glyph glyph-name="afii57453" unicode="&#xfe74;" arabic-form="isolated" 
d="M574 -644l1 -4q-20 -6 -91 -35.5t-186 -83.5q-94 -45 -158.5 -67.5t-96.5 -22.5h-132l-1 4q462 209 530 209h134zM526 -500l1 -4q-22 -6 -90.5 -37t-189.5 -88q-97 -45 -159 -66t-94 -21h-132l-1 4q233 108 365 160t167 52h133z" />
    <glyph glyph-name="afii57454" unicode="&#xfe76;" arabic-form="isolated" 
d="M555 1726l1 -4q-2 -1 -19.5 -8t-43.5 -18.5t-57 -25t-61 -26.5t-55.5 -24t-39.5 -17q-94 -42 -159 -66t-95 -24h-131l-1 4q232 106 364 157.5t164 51.5h133z" />
    <glyph glyph-name="afii57455" unicode="&#xfe78;" arabic-form="isolated" 
d="M349 1698q0 35 -24 53t-51 18q-21 0 -37 -12.5t-16 -38.5q0 -20 60 -74q32 17 50 31.5t18 22.5zM439 1684q0 -54 -93 -95q19 -16 41 -34t40 -34q-34 0 -58.5 2t-41.5 6.5t-29.5 10.5t-24.5 15q-30 -18 -65.5 -37t-72 -34t-73.5 -25t-70 -10h-118l-1 4q142 51 329 157
q-42 26 -59 51.5t-17 51.5q0 32 21.5 63t52.5 59.5t65.5 54t61.5 45.5q0 -16 17.5 -51t38.5 -74.5t38.5 -74.5t17.5 -51z" />
    <glyph glyph-name="afii57456" unicode="&#xfe7a;" arabic-form="isolated" 
d="M546 -514l1 -4q-17 -6 -86 -35.5t-190 -83.5q-94 -43 -159 -66.5t-95 -23.5h-131l-1 4q232 106 364 157.5t164 51.5h133z" />
    <glyph glyph-name="afii57457" unicode="&#xfe7c;" horiz-adv-x="0" arabic-form="isolated" 
d="M470 1658q-55 -9 -230 -100q-73 -37 -125 -60t-66 -24q-45 0 -112 76q-21 29 -43 58.5t-43 55.5h80q16 0 36 -9.5t42 -29.5v1q47 -39 57 -39q60 0 60 49q0 75 -86 134h85q38 0 74 -56q17 -25 28.5 -39.5t18.5 -14.5q57 0 57 56q0 34 -18 60.5t-56 46.5q35 2 56.5 3.5
t25.5 1.5q54 0 93 -68q51 -88 67 -98z" />
    <glyph glyph-name="afii57458" unicode="&#xfe7e;" arabic-form="isolated" 
d="M276 1652q0 16 -23.5 46.5t-60.5 68.5q-35 -36 -55 -63.5t-20 -41.5q0 -72 77 -72q15 0 30 5t26.5 14t18.5 20t7 23zM361 1662q0 -25 -10.5 -52t-31 -49t-51 -36t-70.5 -14q-32 0 -62.5 10.5t-54 29t-37.5 43.5t-14 55q0 26 18 61t56 77q30 33 62 63.5t62 59.5
q0 -56 67 -132q66 -75 66 -116z" />
    <glyph glyph-name="uni0671" unicode="&#x671;" horiz-adv-x="742" arabic-form="isolated" 
d="M359 1561q0 -138 -256 -138q-14 0 -32.5 2t-36.5 2q-22 0 -38.5 -5.5t-19.5 -25.5v-45q-24 21 -37.5 46t-13.5 48q0 26 20 43.5t67 17.5h10t10 -1q16 40 41.5 71t55 52t61.5 31.5t61 10.5q45 0 76.5 -26.5t31.5 -82.5zM261 1562q0 20 -9 29t-23 9q-15 0 -34 -8t-38.5 -21
t-37.5 -30.5t-31 -35.5q54 0 88 3.5t53 10.5t25.5 18t6.5 25zM298 557q0 -97 -27.5 -199.5t-73.5 -216.5l-18 9q12 70 18.5 133t6.5 126q0 46 -3.5 93t-10 97.5t-16.5 105.5t-23 118q-51 245 -51 353q0 28 26 73.5t68 111.5l9 -12q-2 -22 -3 -41t-1 -37q0 -34 3.5 -66.5
t10 -71.5t16.5 -88t23 -117q24 -126 35 -217t11 -154z" />
    <glyph glyph-name="afii57511" unicode="&#x679;" horiz-adv-x="2335" arabic-form="isolated" 
d="M2235 513q0 -18 -3.5 -45.5t-11 -59.5t-20 -65t-31.5 -63q-17 -27 -67 -52.5t-124 -48.5t-169.5 -42.5t-204.5 -34t-228 -22.5t-241 -8q-140 0 -278.5 12t-264.5 38t-234 68t-187.5 102.5t-125 141t-45.5 183.5q0 57 15.5 122t48.5 138l31 -8q-18 -42 -26.5 -79.5
t-8.5 -72.5q0 -82 44 -146.5t121.5 -112.5t183 -81.5t228.5 -54t258.5 -30t271.5 -9.5q154 0 303 10.5t277 28t227.5 40.5t155.5 49q22 29 22 67q0 59 -46.5 132t-119.5 155q9 51 53 167q46 -29 82 -78.5t61.5 -108t39 -119.5t13.5 -113zM1363 1063q-17 39 -39 55.5
t-47 16.5q-24 0 -50 -12.5t-52.5 -31t-52.5 -40.5t-50 -41q43 0 94 4t94.5 11t73 17t29.5 21zM1435 1116q-3 -53 -28 -92.5t-65 -65.5t-90.5 -39t-105.5 -13q-73 0 -145.5 22.5t-128.5 67.5l17 17h118q10 9 17.5 15.5t7.5 23.5q0 29 -4.5 65.5t-10.5 75t-12.5 75.5t-10.5 66
q-35 21 -48 42t-13 44q0 28 14 58t28 64l25 -2q-12 -31 -12 -53q0 -15 11 -26t27 -20t34 -15.5t31 -12.5l-25 -97q-13 4 -18 4h-2q8 -48 18 -106.5t10 -112.5q0 -10 -0.5 -19.5t-1.5 -18.5q27 21 59.5 48t67.5 52t70 42t66 17q32 0 58.5 -23.5t41.5 -82.5z" />
    <glyph glyph-name="afii57506" unicode="&#x67e;" horiz-adv-x="2300" arabic-form="isolated" 
d="M877 -237l102 163l187 -115l-112 -158zM1148 -242l104 163l179 -115l-104 -158zM1077 -505l103 153l186 -109l-107 -151zM2006 191q-29 -18 -67 -28q-226 -46 -335 -60.5t-228 -22.5t-241 -8q-140 0 -278.5 12t-264.5 38t-234 68t-187.5 102.5t-125 141t-45.5 183.5
q0 57 15.5 122t48.5 138l31 -8q-18 -42 -26.5 -79.5t-8.5 -72.5q0 -82 44 -146.5t121.5 -112.5t183 -81.5t228.5 -54t258.5 -30t271.5 -9.5q154 0 303 10.5t277 28.5q66 9 172.5 28.5t119.5 24.5q19 6 25 16q7 42 0.5 66.5t-17 50t-25 48t-43.5 53.5q-70 91 -79 151
q-1 52 28.5 78.5t78.5 65.5l11 -5q-1 -12 -1.5 -22t0.5 -19q2 -18 7.5 -34.5t15.5 -36t24.5 -44t33.5 -58.5q35 -63 53 -109t20 -79q5 -51 -24 -107q-22 -43 -55 -100t-86 -99z" />
    <glyph glyph-name="afii57507" unicode="&#x686;" horiz-adv-x="1453" arabic-form="isolated" 
d="M1513 -751l-1 -38q-49 -23 -109 -52t-126 -59t-134.5 -59t-133.5 -51.5t-125 -36t-108 -13.5q-165 0 -307 37.5t-246 117.5t-163.5 204.5t-59.5 298.5q0 156 40.5 292t119 250t193.5 206t264 159q-32 9 -68.5 19t-75 18.5t-78 14t-77.5 5.5t-74 -6.5t-68 -22.5t-59 -43
t-47 -67l-21 6q31 94 68.5 155.5t81.5 97.5t95 50.5t110 14.5q66 0 141.5 -13t162.5 -28.5t185 -28.5t208 -13q39 0 78.5 1.5t81.5 6.5l-92 -180q-14 1 -28.5 1.5t-29.5 0.5q-118 0 -242 -26.5t-240 -76t-218.5 -121.5t-179.5 -162.5t-121.5 -199t-44.5 -231.5
q0 -98 35 -173.5t96.5 -132t144.5 -95t179 -62t201 -34t209 -10.5q86 0 169.5 6t159 17t140.5 25t114 31zM546 -164l102 163l187 -115l-112 -158zM817 -169l104 163l179 -115l-104 -158zM746 -432l103 153l186 -109l-107 -151z" />
    <glyph glyph-name="afii57512" unicode="&#x688;" horiz-adv-x="824" arabic-form="isolated" 
d="M724 397q0 -87 -28.5 -139t-78.5 -79.5t-119 -36t-150 -8.5q-69 0 -132 4.5t-111 25t-76.5 63.5t-28.5 119q0 74 40 178l15 -2q-4 -14 -6 -28.5t-2 -36.5q0 -10 0.5 -21t1.5 -25q23 -24 60 -41.5t82.5 -28.5t97 -16.5t103.5 -5.5q64 0 124 7.5t108 22.5
q-10 41 -27.5 88.5t-41 94t-53.5 89.5t-65.5 76.5t-76 53t-86.5 19.5q-36 0 -72 -13q-8 30 -8 58q0 68 43 129q29 12 67 12q280 0 388 -424q16 -60 24.5 -93.5t7.5 -41.5zM462 1251q-17 39 -39 55.5t-47 16.5q-24 0 -50 -12.5t-52.5 -31t-52.5 -40.5t-50 -41q43 0 94 4
t94.5 11t73 17t29.5 21zM534 1304q-3 -53 -28 -92.5t-65 -65.5t-90.5 -39t-105.5 -13q-73 0 -145.5 22.5t-128.5 67.5l17 17h118q10 9 17.5 15.5t7.5 23.5q0 29 -4.5 65.5t-10.5 75t-12.5 75.5t-10.5 66q-35 21 -48 42t-13 44q0 28 14 58t28 64l25 -2q-12 -31 -12 -53
q0 -15 11 -26t27 -20t34 -15.5t31 -12.5l-25 -97q-13 4 -18 4h-2q8 -48 18 -106.5t10 -112.5q0 -10 -0.5 -19.5t-1.5 -18.5q27 21 59.5 48t67.5 52t70 42t66 17q32 0 58.5 -23.5t41.5 -82.5z" />
    <glyph glyph-name="afii57513" unicode="&#x691;" horiz-adv-x="885" arabic-form="isolated" 
d="M785 414q0 -138 -44 -262.5t-124.5 -230.5t-194.5 -190.5t-254 -143.5q-123 30 -468 249l6 15q211 -104 343 -104q47 0 112.5 25.5t136.5 69t141 100.5t126 119.5t90.5 127t34.5 122.5q0 31 -10.5 62.5t-32.5 67.5t-56.5 78.5t-82.5 96.5l78 243q199 -168 199 -445z
M462 1191q-17 39 -39 55.5t-47 16.5q-24 0 -50 -12.5t-52.5 -31t-52.5 -40.5t-50 -41q43 0 94 4t94.5 11t73 17t29.5 21zM534 1244q-3 -53 -28 -92.5t-65 -65.5t-90.5 -39t-105.5 -13q-73 0 -145.5 22.5t-128.5 67.5l17 17h118q10 9 17.5 15.5t7.5 23.5q0 29 -4.5 65.5
t-10.5 75t-12.5 75.5t-10.5 66q-35 21 -48 42t-13 44q0 28 14 58t28 64l25 -2q-12 -31 -12 -53q0 -15 11 -26t27 -20t34 -15.5t31 -12.5l-25 -97q-13 4 -18 4h-2q8 -48 18 -106.5t10 -112.5q0 -10 -0.5 -19.5t-1.5 -18.5q27 21 59.5 48t67.5 52t70 42t66 17q32 0 58.5 -23.5
t41.5 -82.5z" />
    <glyph glyph-name="afii57508" unicode="&#x698;" horiz-adv-x="885" arabic-form="isolated" 
d="M785 544q0 -138 -44 -262.5t-124.5 -230.5t-194.5 -190.5t-254 -143.5q-123 30 -468 249l6 15q211 -104 343 -104q47 0 112.5 25.5t136.5 69t141 100.5t126 119.5t90.5 127t34.5 122.5q0 31 -10.5 62.5t-32.5 67.5t-56.5 78.5t-82.5 96.5l78 243q199 -168 199 -445z
M564 1344l-100 -165l-188 112l109 160zM293 1344l-102 -165l-180 112l101 160zM379 1609l-100 -158l-188 109l105 153z" />
    <glyph glyph-name="afii57505" unicode="&#x6a4;" horiz-adv-x="2578" arabic-form="isolated" 
d="M2478 648q0 -123 -40 -212t-121 -152t-202.5 -104.5t-285.5 -69.5q-72 -15 -153.5 -27.5t-170 -21.5t-182 -14t-188.5 -5q-140 0 -278.5 12t-264.5 38t-234.5 68t-188 102.5t-124.5 140.5t-45 183q0 58 15.5 123t48.5 138l31 -8q-18 -42 -26.5 -79.5t-8.5 -72.5
q0 -82 44 -146t121 -112t181.5 -81.5t227 -54.5t257 -30.5t270.5 -9.5q95 0 189 4t182.5 11.5t170.5 18.5t154 24q521 77 521 221q0 74 -36 140q-22 -42 -39.5 -77t-40.5 -60.5t-56.5 -39.5t-87.5 -14q-97 0 -150.5 54t-53.5 148q0 27 9.5 72t27 97.5t41.5 106.5t52 97.5
t59 71t64 27.5q43 0 83 -27.5t74.5 -71.5t63 -99t48.5 -111.5t31 -108.5t11 -89zM2308 746l-1 26q-14 22 -36.5 47t-49.5 46.5t-57 35.5t-60 14q-23 0 -43.5 -11t-36.5 -27t-25 -34.5t-9 -32.5q0 -23 18 -40.5t46 -29t63 -17t69 -5.5q39 0 72 7t50 21zM2369 1440l-100 -165
l-188 112l109 160zM2098 1440l-102 -165l-180 112l101 160zM2184 1705l-100 -158l-188 109l105 153z" />
    <glyph glyph-name="uni06A9" unicode="&#x6a9;" horiz-adv-x="1700" arabic-form="isolated" 
d="M631 150q-325 0 -440 58q-45 17 -80.5 53t-60 84t-37.5 104.5t-13 114.5q0 70 19.5 137t61.5 121l23 -13q-46 -93 -46 -183q0 -78 37.5 -141.5t116.5 -98.5q18 -12 73.5 -19.5t165.5 -11.5t284 -5q125 -1 292 -1h138q230 0 288 137q3 6 5 12q-13 26 -63 94t-141 180
l-48 -39q-90 145 -148 279q-50 140 -22 174q8 24 20.5 53.5t25 54.5t21.5 42t10 17t36 12t91.5 32.5t127.5 47t144 56.5t128.5 68.5t96 78.5t66.5 77.5t40 64.5q13 27 20 35.5t9.5 5.5t1.5 -13.5t-4 -22.5t-16 -47.5t-38.5 -84t-64.5 -104.5t-93 -108q-36 -34 -85.5 -67.5
t-103.5 -63t-107.5 -55t-95.5 -43.5t-67 -28q-20 -8 -26 -9l3 -9q0 -1 1 -2l287 -417q25 -36 36.5 -90t11.5 -114q0 -91 -20 -161q-2 -9 -4 -17q-25 -76 -70 -126t-108 -74.5t-140 -24.5h-539z" />
    <glyph glyph-name="uni06AD" unicode="&#x6ad;" horiz-adv-x="1627" arabic-form="isolated" 
d="M797 790q0 5 -23 7.5t-51 5.5t-51 8t-23 15q0 59 52.5 106t137.5 80l19 -62q-7 -4 -26 -8t-39 -8.5t-35.5 -10.5t-15.5 -15t13 -15.5t32.5 -11t42.5 -9.5t42.5 -11t32.5 -15t13 -22q0 -28 -20 -48.5t-51.5 -33.5t-71 -19t-78.5 -6q-46 0 -86 8t-60 22q18 5 43 7.5
t52.5 3.5t54.5 2.5t48.5 4.5t34.5 9t13 16zM1662 1654l-100 -165l-188 112l109 160zM1391 1654l-102 -165l-180 112l101 160zM1477 1919l-100 -158l-188 109l105 153zM632 150q-325 0 -440 58q-45 17 -80.5 52.5t-60 83.5t-37.5 105t-13 115q0 71 19.5 137.5t61.5 120.5
l23 -13q-46 -94 -46 -182q0 -78 37.5 -141.5t116.5 -99.5q18 -12 73.5 -19.5t165.5 -11.5t284 -5t430 -1q121 0 189 37t94 112q-6 32 -15 89t-19.5 126t-20.5 144.5t-18 144.5l-60 -54q-9 29 -16.5 61t-13.5 64.5t-10 63t-6 55.5q1 7 16.5 30.5t39 55t51.5 66.5t54 64.5
t46 49.5t28 22l-36 -190h-2q-6 0 -11 -6t-8.5 -15t-7 -19t-6.5 -17q35 -136 53.5 -249t27 -203t10 -156t1.5 -108q-7 -76 -32.5 -142.5t-70 -116.5t-107.5 -79t-145 -29h-539z" />
    <glyph glyph-name="afii57509" unicode="&#x6af;" horiz-adv-x="1700" arabic-form="isolated" 
d="M1821 1845q-1 -7 -12.5 -28t-32.5 -49.5t-51 -61.5t-68 -64.5t-84 -58.5t-99 -43q-3 -1 -8 1t-7 6q-5 17 4.5 29t19.5 20q37 15 80 41t86.5 63t84 85.5t72.5 109.5q2 3 6.5 4.5t6.5 -2.5q3 -5 4 -13t1 -15.5t-1 -14t-2 -9.5zM631 150q-325 0 -440 58q-45 17 -80.5 53
t-60 84t-37.5 104.5t-13 114.5q0 70 19.5 137t61.5 121l23 -13q-46 -93 -46 -183q0 -78 37.5 -141.5t116.5 -98.5q18 -12 73.5 -19.5t165.5 -11.5t284 -5q125 -1 292 -1h138q230 0 288 137q3 6 5 12q-13 26 -63 94t-141 180l-48 -39q-90 145 -148 279q-50 140 -22 174
q8 24 20.5 53.5t25 54.5t21.5 42t10 17t36 12t91.5 32.5t127.5 47t144 56.5t128.5 68.5t96 78.5t66.5 77.5t40 64.5q13 27 20 35.5t9.5 5.5t1.5 -13.5t-4 -22.5t-16 -47.5t-38.5 -84t-64.5 -104.5t-93 -108q-36 -34 -85.5 -67.5t-103.5 -63t-107.5 -55t-95.5 -43.5t-67 -28
q-20 -8 -26 -9l3 -9q0 -1 1 -2l287 -417q25 -36 36.5 -90t11.5 -114q0 -91 -20 -161q-2 -9 -4 -17q-25 -76 -70 -126t-108 -74.5t-140 -24.5h-539z" />
    <glyph glyph-name="afii57514" unicode="&#x6ba;" horiz-adv-x="1066" arabic-form="isolated" 
d="M966 399q-13 -241 -152.5 -366t-406.5 -125q-112 0 -189.5 26.5t-126 74t-70 113.5t-21.5 145q0 61 11.5 128t32.5 137.5t50 144t63 147.5l22 -10q-54 -125 -84 -229.5t-30 -189.5q0 -69 22 -122.5t71 -90.5t126 -56.5t187 -19.5q34 0 80 6.5t95.5 20t98 33t87 46
t62 59.5t23.5 73q0 114 -148 385v4q0 14 6 41t16 54.5t21.5 49.5t23.5 26q24 -61 47.5 -113t41.5 -108t29.5 -123.5t11.5 -160.5z" />
    <glyph glyph-name="uni06C1" unicode="&#x6c1;" horiz-adv-x="649" arabic-form="isolated" 
d="M310 346q54 0 92 18t61 44q-16 33 -44 64t-63 55t-73 38.5t-74 14.5q-25 0 -47 -8.5t-39.5 -27.5t-29 -49t-14.5 -73q9 -16 25.5 -30t44 -24t67 -16t94.5 -6zM547 451q1 -10 1.5 -19.5t0.5 -18.5q0 -72 -23.5 -123t-62.5 -83.5t-88.5 -47t-100.5 -14.5t-100.5 13.5
t-88 37.5t-62 58t-23.5 74q0 23 9.5 68t26.5 99.5t40.5 111.5t51.5 103.5t58.5 76.5t62.5 30q31 0 64.5 -16.5t65.5 -44.5t61 -65t52 -78t37.5 -82.5t17.5 -79.5z" />
    <glyph glyph-name="uni06C9" unicode="&#x6c9;" horiz-adv-x="885" arabic-form="isolated" 
d="M785 448q0 -603 -617 -861q-78 25 -193.5 89.5t-274.5 170.5l8 16q247 -116 318 -116q33 0 79.5 13t100.5 36.5t111.5 56t113 71.5t105 83t86.5 90.5t59 94t22 93.5q0 60 -40 110q-24 -46 -41.5 -80t-39 -56t-52.5 -33t-83 -11q-211 0 -211 199q0 24 10 68.5t27 96.5
t41 106.5t52.5 98.5t59.5 72t64 28q41 0 79 -22.5t71 -59.5t59.5 -84t45.5 -95.5t29.5 -94.5t10.5 -80zM631 476q0 31 -20 61t-50.5 54t-68 38.5t-72.5 14.5q-40 0 -68 -24.5t-28 -81.5q0 -23 17 -40t44 -28t60 -16t66 -5q39 0 71.5 6.5t48.5 20.5zM173 1058
q194 117 246 400q16 11 30.5 24t30.5 27q3 -62 32.5 -126t74 -123.5t97.5 -111t103 -88.5q-9 -17 -26.5 -47t-36.5 -60q-58 49 -99 90.5t-73.5 85t-59 94.5t-54.5 119q-17 -52 -42 -106t-55 -105t-65 -98t-72 -85z" />
    <glyph glyph-name="uni06CB" unicode="&#x6cb;" horiz-adv-x="885" arabic-form="isolated" 
d="M785 448q0 -603 -617 -861q-78 25 -193.5 89.5t-274.5 170.5l8 16q247 -116 318 -116q33 0 79.5 13t100.5 36.5t111.5 56t113 71.5t105 83t86.5 90.5t59 94t22 93.5q0 60 -40 110q-24 -46 -41.5 -80t-39 -56t-52.5 -33t-83 -11q-211 0 -211 199q0 24 10 68.5t27 96.5
t41 106.5t52.5 98.5t59.5 72t64 28q41 0 79 -22.5t71 -59.5t59.5 -84t45.5 -95.5t29.5 -94.5t10.5 -80zM631 476q0 31 -20 61t-50.5 54t-68 38.5t-72.5 14.5q-40 0 -68 -24.5t-28 -81.5q0 -23 17 -40t44 -28t60 -16t66 -5q39 0 71.5 6.5t48.5 20.5zM655 1172l-100 -165
l-188 112l109 160zM384 1172l-102 -165l-180 112l101 160zM470 1437l-100 -158l-188 109l105 153z" />
    <glyph glyph-name="uni06CC" unicode="&#x6cc;" horiz-adv-x="1448" arabic-form="isolated" 
d="M1348 418q0 -10 -4 -32t-10.5 -50.5t-15.5 -59t-18 -58t-17.5 -48.5t-15.5 -29q-25 -38 -79.5 -72t-126 -63.5t-152.5 -53.5t-158.5 -41t-145 -26t-110.5 -9q-138 0 -232.5 38t-152.5 103.5t-83.5 153.5t-25.5 188q0 69 10.5 142t29.5 146t45 144.5t57 137.5l31 -12
q-61 -135 -89 -244t-28 -197q0 -106 36.5 -180t100.5 -121t149.5 -68.5t184.5 -21.5q85 0 176.5 14.5t182 41.5t178 65.5t165.5 84.5q-32 28 -83.5 48.5t-110 37.5t-118 32.5t-107.5 34t-78 41.5t-30 54q0 76 17 150.5t48.5 142t78 125t105 99.5t129 66t150.5 24
q35 0 57.5 -6.5t35.5 -22t18 -42t5 -66.5q0 -32 -4.5 -59.5t-14.5 -36.5q-66 32 -168 32q-16 0 -48.5 -10.5t-71.5 -28.5t-80 -41.5t-75 -50t-55.5 -54t-21.5 -52.5v-8q3 -13 28 -27.5t63.5 -30.5t86.5 -33t98 -35.5t97.5 -37.5t84.5 -38.5t59.5 -39.5t22.5 -40z" />
    <glyph glyph-name="uni06D0" unicode="&#x6d0;" horiz-adv-x="1448" arabic-form="isolated" 
d="M964 -911l-179 74l72 203l176 -71zM912 -638l-177 63l72 203l176 -76zM1348 218q0 -10 -4 -32t-10.5 -50.5t-15.5 -59t-18 -58t-17.5 -48.5t-15.5 -29q-25 -38 -79.5 -72t-126 -63.5t-152.5 -53.5t-158.5 -41t-145 -26t-110.5 -9q-138 0 -232.5 38t-152.5 103.5
t-83.5 153.5t-25.5 188q0 69 10.5 142t29.5 146t45 144.5t57 137.5l31 -12q-61 -135 -89 -244t-28 -197q0 -106 36.5 -180t100.5 -121t149.5 -68.5t184.5 -21.5q85 0 176.5 14.5t182 41.5t178 65.5t165.5 84.5q-32 28 -83.5 48.5t-110 37.5t-118 32.5t-107.5 34t-78 41.5
t-30 54q0 76 17 150.5t48.5 142t78 125t105 99.5t129 66t150.5 24q35 0 57.5 -6.5t35.5 -22t18 -42t5 -66.5q0 -32 -4.5 -59.5t-14.5 -36.5q-66 32 -168 32q-16 0 -48.5 -10.5t-71.5 -28.5t-80 -41.5t-75 -50t-55.5 -54t-21.5 -52.5v-8q3 -13 28 -27.5t63.5 -30.5t86.5 -33
t98 -35.5t97.5 -37.5t84.5 -38.5t59.5 -39.5t22.5 -40z" />
    <glyph glyph-name="afii57519" unicode="&#x6d2;" horiz-adv-x="1200" arabic-form="isolated" 
d="M315.5 1274.5q-59.5 15.5 -107.5 34t-78 41.5t-30 54q0 76 17 150.5t48.5 142t78 125t105 99.5t129 66t150.5 24q35 0 57.5 -6.5t35.5 -22t18 -42t5 -66.5q0 -32 -4.5 -59.5t-14.5 -36.5q-66 32 -168 32q-16 0 -48.5 -10.5t-71.5 -28.5t-80 -41.5t-75 -50t-55.5 -54
t-21.5 -52.5v-8q3 -13 28 -27q10 -6 22 -12q152 -91 304 -91h463q142 0 187 -2t108 -8.5t99 -18.5q131 -42 209.5 -108t113.5 -146.5t32.5 -171t-54 -185.5t-71.5 -95q33 100 31 185.5t-48 150t-121 111.5t-169 77q-75 15 -646 15q-118 0 -218 10t-159.5 25.5z" />
    <glyph glyph-name="uniFB51" unicode="&#x671;" horiz-adv-x="567" arabic-form="final" 
d="M597 150h-70q-67 0 -125 18t-102 51.5t-71 83t-32 112.5v22q0 77 -6 158.5t-15.5 161t-21 152.5t-22.5 131.5t-19.5 99t-12.5 54.5l86 126q7 -12 15 -55.5t17 -105.5t17.5 -135.5t16.5 -145t15 -134t12 -102.5q7 -81 21.5 -136.5t45.5 -89.5t84 -49.5t137 -16.5h30v-200z
M359 1561q0 -138 -256 -138q-14 0 -32.5 2t-36.5 2q-22 0 -38.5 -5.5t-19.5 -25.5v-45q-24 21 -37.5 46t-13.5 48q0 26 20 43.5t67 17.5h10t10 -1q16 40 41.5 71t55 52t61.5 31.5t61 10.5q45 0 76.5 -26.5t31.5 -82.5zM261 1562q0 20 -9 29t-23 9q-15 0 -34 -8t-38.5 -21
t-37.5 -30.5t-31 -35.5q54 0 88 3.5t53 10.5t25.5 18t6.5 25z" />
    <glyph glyph-name="uniFB57" unicode="&#x67e;" horiz-adv-x="2308" arabic-form="final" 
d="M877 -237l102 163l187 -115l-112 -158zM1148 -242l104 163l179 -115l-104 -158zM1077 -505l103 153l186 -109l-107 -151zM2143 383q30 -15 66 -22q47 -11 99 -11h30v-200h-70q-140 0 -227 73q-16 -17 -35 -32q-29 -18 -67 -28q-226 -46 -335 -60.5t-228 -22.5t-241 -8
q-140 0 -278.5 12t-264.5 38t-234 68t-187.5 102.5t-125 141t-45.5 183.5q0 57 15.5 122t48.5 138l31 -8q-18 -42 -26.5 -79.5t-8.5 -72.5q0 -82 44 -146.5t121.5 -112.5t183 -81.5t228.5 -54t258.5 -30t271.5 -9.5q154 0 303 10.5t277 28.5q66 9 172.5 28.5t119.5 24.5
q19 6 25 16q7 42 0.5 66.5t-17 50t-25 48t-43.5 53.5q-70 91 -79 151q-1 52 28.5 78.5t78.5 65.5l11 -5q-1 -12 -1.5 -22t0.5 -19q2 -18 7.5 -34.5t15.5 -36t24.5 -44t33.5 -58.5q35 -63 53 -109t20 -79q5 -51 -24 -107q-2 -4 -4 -7z" />
    <glyph glyph-name="uniFB58" unicode="&#x67e;" horiz-adv-x="458" arabic-form="initial" 
d="M-105 -217l102 163l187 -115l-112 -158zM166 -222l104 163l179 -115l-104 -158zM95 -485l103 153l186 -109l-107 -151zM302 279q-23 -46 -58 -74.5t-85 -41.5t-119 -13h-70v200h30q55 0 105.5 2.5t89.5 8t64 14.5q19 6 25 16q7 42 0.5 66.5t-17 50t-25 48t-43.5 53.5
q-70 91 -79 151q-1 52 28.5 78.5t78.5 65.5l11 -5q-1 -12 -1.5 -22t0.5 -19q2 -18 7.5 -34.5t15.5 -36t24.5 -44t33.5 -58.5q35 -63 53 -109t20 -79q5 -51 -24 -107q-22 -43 -65 -111z" />
    <glyph glyph-name="uniFB59" unicode="&#x67e;" horiz-adv-x="640" arabic-form="medial" 
d="M-105 -217l102 163l187 -115l-112 -158zM166 -222l104 163l179 -115l-104 -158zM95 -485l103 153l186 -109l-107 -151zM399 447q21 -33 57.5 -54.5t84 -32t99.5 -10.5h30v-200h-70q-197 0 -288 145l-10 -16q-23 -46 -58 -74.5t-85 -41.5t-119 -13h-70v200h30q56 0 98 3.5
t74.5 14.5t58.5 30.5t54 56.5q-7 27 -17.5 52.5t-25 48t-43.5 53.5q-70 91 -79 151q-1 52 28.5 78.5t78.5 65.5l11 -5q-1 -12 -1.5 -22t0.5 -19q2 -18 7.5 -34.5t15.5 -36t24.5 -44t33.5 -58.5q35 -63 53 -109t20 -79q3 -40 8 -50z" />
    <glyph glyph-name="uniFB67" unicode="&#x679;" horiz-adv-x="2308" arabic-form="final" 
d="M2338 150h-70q-209 0 -299 163q-29 -34 -84.5 -65.5t-132 -59t-169.5 -50.5t-197 -39t-215 -25t-222 -9q-120 0 -237.5 11.5t-223 36.5t-195 64.5t-154.5 96t-102 131t-37 168.5q0 60 16 128t51 146l31 -8q-38 -89 -38 -165q0 -75 35 -133t97 -102t147 -74.5t185.5 -49.5
t212.5 -27.5t227 -8.5q105 0 209 6t202.5 17t187 26t162 32.5t129 37t87.5 39.5q28 38 54.5 87t56.5 115l20 -15q-14 -29 -20.5 -54t-6.5 -48q0 -43 21.5 -75.5t58 -54t84 -32t99.5 -10.5h30v-200zM1333 1063q-17 39 -39 55.5t-47 16.5q-24 0 -50 -12.5t-52.5 -31
t-52.5 -40.5t-50 -41q43 0 94 4t94.5 11t73 17t29.5 21zM1405 1116q-3 -53 -28 -92.5t-65 -65.5t-90.5 -39t-105.5 -13q-73 0 -145.5 22.5t-128.5 67.5l17 17h118q10 9 17.5 15.5t7.5 23.5q0 29 -4.5 65.5t-10.5 75t-12.5 75.5t-10.5 66q-35 21 -48 42t-13 44q0 28 14 58
t28 64l25 -2q-12 -31 -12 -53q0 -15 11 -26t27 -20t34 -15.5t31 -12.5l-25 -97q-13 4 -18 4h-2q8 -48 18 -106.5t10 -112.5q0 -10 -0.5 -19.5t-1.5 -18.5q27 21 59.5 48t67.5 52t70 42t66 17q32 0 58.5 -23.5t41.5 -82.5z" />
    <glyph glyph-name="uniFB68" unicode="&#x679;" horiz-adv-x="458" arabic-form="initial" 
d="M358 603q0 -43 -2.5 -96t-18.5 -117q-13 -65 -35.5 -111t-57.5 -74.5t-85 -41.5t-119 -13h-70v200h30q55 0 105.5 2.5t89.5 8t63.5 14t27.5 20.5q-10 68 -22.5 117t-30.5 89.5t-42.5 76t-56.5 75.5q7 85 67 161q21 -10 40.5 -31t37 -48.5t32 -59t25 -63t16.5 -60t6 -49.5
zM322 1131q-17 39 -39 55.5t-47 16.5q-24 0 -50 -12.5t-52.5 -31t-52.5 -40.5t-50 -41q43 0 94 4t94.5 11t73 17t29.5 21zM394 1184q-3 -53 -28 -92.5t-65 -65.5t-90.5 -39t-105.5 -13q-73 0 -145.5 22.5t-128.5 67.5l17 17h118q10 9 17 15.5t7 23.5q0 29 -4.5 65.5
t-10.5 75t-12 75.5t-10 66q-35 21 -48 43t-13 45q0 27 13.5 57t28.5 63l25 -2q-12 -31 -12 -53q0 -15 11 -26t27 -20t34 -15.5t31 -12.5l-25 -97q-13 4 -18 4h-2q8 -48 18 -106.5t10 -112.5q0 -10 -0.5 -19.5t-1.5 -18.5q27 21 59.5 48t67.5 52t70 42t66 17q32 0 58.5 -23.5
t41.5 -82.5z" />
    <glyph glyph-name="uniFB69" unicode="&#x679;" horiz-adv-x="640" arabic-form="medial" 
d="M670 150h-70q-209 0 -299 163q-18 -34 -42.5 -64t-56.5 -52t-72 -34.5t-90 -12.5h-70v200h30q56 0 98 3.5t74.5 14.5t58.5 30.5t50 51.5t48.5 78.5t54.5 110.5l20 -15q-14 -29 -20.5 -54t-6.5 -48q0 -43 21.5 -75.5t58 -54t84 -32t99.5 -10.5h30v-200zM322 971
q-17 39 -39 55.5t-47 16.5q-24 0 -50 -12.5t-52.5 -31t-52.5 -40.5t-50 -41q43 0 94 4t94.5 11t73 17t29.5 21zM394 1024q-3 -53 -28 -92.5t-65 -65.5t-90.5 -39t-105.5 -13q-73 0 -145.5 22.5t-128.5 67.5l17 17h118q10 9 17 15.5t7 23.5q0 29 -4.5 65.5t-10.5 75t-12 75.5
t-10 66q-35 21 -48 43t-13 45q0 27 13.5 57t28.5 63l25 -2q-12 -31 -12 -53q0 -15 11 -26t27 -20t34 -15.5t31 -12.5l-25 -97q-13 4 -18 4h-2q8 -48 18 -106.5t10 -112.5q0 -10 -0.5 -19.5t-1.5 -18.5q27 21 59.5 48t67.5 52t70 42t66 17q32 0 58.5 -23.5t41.5 -82.5z" />
    <glyph glyph-name="uniFB6B" unicode="&#x6a4;" horiz-adv-x="2860" arabic-form="final" 
d="M2551 514q-1 29 -8.5 63t-21.5 65.5t-36.5 57t-53.5 36.5q-15 0 -42.5 -13t-55 -32t-48 -40.5t-20.5 -39.5q0 -19 19 -47.5t45.5 -56t55 -50.5t47.5 -32q69 38 119 89zM2674 1312l-100 -165l-188 112l109 160zM2403 1312l-102 -165l-180 112l101 160zM2489 1577
l-100 -158l-188 109l105 153zM2223 358q-53 71 -53 138q0 31 14 76t39 94.5t58.5 98.5t72.5 88.5t82 64t86 24.5q10 0 15 -1q58 -43 82 -103.5t24 -129.5q0 -43 -8 -88t-22.5 -87.5t-33.5 -82.5t-41 -75q22 -6 65.5 -10.5t92 -8t94 -5t70.5 -1.5h30v-200h-70q-41 0 -103.5 5
t-127.5 15t-123 25t-90 35q-62 -40 -159 -74t-215 -61.5t-249.5 -48t-263.5 -35t-256 -21.5t-227 -7q-126 0 -249 10t-235 34t-207 62.5t-165 95.5t-109.5 133.5t-39.5 176.5q0 60 16 127.5t50 144.5l31 -8q-20 -45 -28.5 -86t-8.5 -78q0 -76 36 -135.5t99.5 -103.5
t150.5 -74t189.5 -49t217 -27t231.5 -8q78 0 185 4t226.5 12.5t243 21.5t235 31t203 40.5t145.5 50.5z" />
    <glyph glyph-name="uniFB6C" unicode="&#x6a4;" horiz-adv-x="794" arabic-form="initial" 
d="M694 609q0 -70 -56 -214q-19 -61 -52.5 -103t-78 -69.5t-98.5 -42t-114 -21.5t-124.5 -8t-130.5 -1h-70v200h30q155 0 267.5 8.5t186 29t109 55.5t35.5 89q0 74 -39 140q-19 -38 -36.5 -72.5t-41 -61t-57 -42t-85.5 -15.5q-100 0 -153 54t-53 148q0 29 9 75t26 98
t40.5 105t53 95.5t63.5 69.5t71 27q22 0 44 -10t45 -33q209 -203 209 -501zM524 746l-1 26q-10 20 -34.5 44.5t-54 46.5t-59.5 36.5t-52 14.5t-41 -9t-33 -24t-22.5 -35t-8.5 -41q0 -23 21 -39.5t50 -27t58.5 -15t47.5 -4.5q62 0 129 27zM637 1422l-100 -165l-188 112
l109 160zM366 1422l-102 -165l-180 112l101 160zM452 1687l-100 -158l-188 109l105 153z" />
    <glyph glyph-name="uniFB6D" unicode="&#x6a4;" horiz-adv-x="800" arabic-form="medial" 
d="M491 514v7q0 26 -7.5 58.5t-21.5 63.5t-33 56t-42 37q-3 1 -10 1q-20 0 -49.5 -13t-57.5 -32.5t-47.5 -40.5t-19.5 -38q0 -11 9.5 -29t24 -38.5t33 -41.5t37.5 -38t36 -28.5t28 -12.5q63 34 120 89zM576 1251l-100 -165l-188 112l109 160zM305 1251l-102 -165l-180 112
l101 160zM391 1516l-100 -158l-188 109l105 153zM830 150h-70q-20 0 -52.5 2t-72 6.5t-83.5 10.5t-86.5 14.5t-81 19t-66.5 23.5q-67 -39 -130 -58t-120 -19h-14t-14 1h-70v200h30q54 0 90.5 1t70.5 7q-29 41 -41.5 78t-12.5 74q0 31 8.5 62.5t23.5 64.5t35.5 68t45.5 74
q65 85 125.5 123.5t127.5 38.5q21 0 42 -27t37 -69t26 -93t10 -98q0 -82 -113 -279q26 -10 69.5 -15t91.5 -7t92.5 -2.5t71.5 -0.5h30v-200z" />
    <glyph glyph-name="uniFB7B" unicode="&#x686;" horiz-adv-x="1310" arabic-form="final" 
d="M1513 -751l-1 -38q-49 -23 -109 -52t-126 -59t-134.5 -59t-133.5 -51.5t-125 -36t-108 -13.5q-165 0 -307 37.5t-246 117.5t-163.5 204.5t-59.5 298.5q0 156 40.5 292t119 250t193.5 206t264 159q-32 9 -68.5 19t-75 18.5t-78 14t-77.5 5.5t-74 -6.5t-68 -22.5t-59 -43
t-47 -67l-21 6q31 94 68.5 155.5t81.5 97.5t95 50.5t110 14.5q66 0 141.5 -13t162.5 -28.5t185 -28.5t208 -13q39 0 78.5 1.5t81.5 6.5l-92 -180q-14 1 -27 1.5t-27 0.5q-38 0 -76.5 -3t-78.5 -8q5 -36 26.5 -61t63.5 -41t106 -23.5t154 -7.5h30v-200h-70
q-110 0 -183.5 14.5t-118 44t-63 73.5t-18.5 103q0 20 1.5 42t5.5 45q-104 -20 -205.5 -58t-193.5 -91.5t-171 -122t-136.5 -150t-90 -175.5t-32.5 -198q0 -98 35 -173.5t96.5 -132t144.5 -95t179 -62t201 -34t209 -10.5q86 0 169.5 6t159 17t140.5 25t114 31zM546 -164
l102 163l187 -115l-112 -158zM817 -169l104 163l179 -115l-104 -158zM746 -432l103 153l186 -109l-107 -151z" />
    <glyph glyph-name="uniFB7C" unicode="&#x686;" horiz-adv-x="1520" arabic-form="initial" 
d="M1470 620l-95 -183q-124 25 -223 25q-106 0 -189 -23t-157.5 -58t-148 -75t-161.5 -75t-198.5 -58t-257.5 -23h-70v200h30q126 4 239.5 17t215.5 39.5t195 68.5t179 104q-19 10 -62 27t-100.5 33t-125.5 27.5t-137 11.5q-63 0 -123.5 -12t-112.5 -42t-92 -80.5
t-62 -127.5l-21 9q29 125 68.5 209t89.5 134.5t111 71.5t132 21q66 0 141 -15t157.5 -38.5t172.5 -52t187.5 -55.5t202 -48.5t215.5 -31.5zM436 -127l102 163l187 -115l-112 -158zM707 -132l104 163l179 -115l-104 -158zM636 -395l103 153l186 -109l-107 -151z" />
    <glyph glyph-name="uniFB7D" unicode="&#x686;" horiz-adv-x="1525" arabic-form="medial" 
d="M1470 620l-95 -183q-58 11 -110.5 17.5t-100.5 7.5q6 -28 24 -49t58.5 -35t107.5 -21t171 -7h30v-200h-70q-139 0 -220.5 24t-124 66t-55 98t-12.5 120q-90 -9 -163.5 -35.5t-142.5 -60.5t-139.5 -71.5t-155 -68.5t-189.5 -51.5t-243 -20.5h-70v200h30q126 4 239.5 17
t215.5 39.5t195 68.5t179 104q-19 10 -62 27t-100.5 33t-125.5 27.5t-137 11.5q-63 0 -123.5 -12t-112.5 -42t-92 -80.5t-62 -127.5l-21 9q29 125 68.5 209t89.5 134.5t111 71.5t132 21q66 0 141 -15t157.5 -38.5t172.5 -52t187.5 -55.5t202 -48.5t215.5 -31.5zM436 -127
l102 163l187 -115l-112 -158zM707 -132l104 163l179 -115l-104 -158zM636 -395l103 153l186 -109l-107 -151z" />
    <glyph glyph-name="uniFB89" unicode="&#x688;" horiz-adv-x="1260" arabic-form="final" 
d="M1290 150h-70q-128 0 -213.5 67.5t-142.5 197.5q-51 -61 -119.5 -113t-145 -90.5t-156.5 -60t-155 -21.5q-288 0 -288 369q0 194 103 412l13 -15q-30 -69 -48 -139.5t-18 -136.5q0 -56 15.5 -105t51 -85t93 -57t140.5 -21q275 0 488 230v16q-4 183 -42 546q21 70 72 154
q16 -14 17 -65q2 -85 6.5 -185.5t9.5 -223.5q6 -99 25 -185.5t60 -150.5t107.5 -101t166.5 -37h30v-200zM462 1251q-17 39 -39 55.5t-47 16.5q-24 0 -50 -12.5t-52.5 -31t-52.5 -40.5t-50 -41q43 0 94 4t94.5 11t73 17t29.5 21zM534 1304q-3 -53 -28 -92.5t-65 -65.5
t-90.5 -39t-105.5 -13q-73 0 -145.5 22.5t-128.5 67.5l17 17h118q10 9 17.5 15.5t7.5 23.5q0 29 -4.5 65.5t-10.5 75t-12.5 75.5t-10.5 66q-35 21 -48 42t-13 44q0 28 14 58t28 64l25 -2q-12 -31 -12 -53q0 -15 11 -26t27 -20t34 -15.5t31 -12.5l-25 -97q-13 4 -18 4h-2
q8 -48 18 -106.5t10 -112.5q0 -10 -0.5 -19.5t-1.5 -18.5q27 21 59.5 48t67.5 52t70 42t66 17q32 0 58.5 -23.5t41.5 -82.5z" />
    <glyph glyph-name="uniFB8B" unicode="&#x698;" horiz-adv-x="800" arabic-form="final" 
d="M545 1162l-100 -165l-188 112l109 160zM274 1162l-102 -165l-180 112l101 160zM360 1427l-100 -158l-188 109l105 153zM661 357q62 -7 147 -7h42v-200h-98q-60 0 -102 4l-72 1q-28 -48 -61 -93q-81 -106 -195 -190.5t-254 -143.5q-123 30 -468 249l6 15
q211 -104 343 -104q47 0 112.5 25.5t136.5 69t141 100.5t126 119.5t90.5 127t34.5 122.5q0 31 -10.5 62.5t-32.5 67.5t-56.5 78.5t-82.5 96.5l78 243q199 -168 199 -445q0 -103 -24 -198z" />
    <glyph glyph-name="uniFB8D" unicode="&#x691;" horiz-adv-x="920" arabic-form="final" 
d="M950 350v-200h-70q-43 0 -73 4t-55 11.5t-48.5 19t-53.5 26.5q-11 -46 -18.5 -86.5t-15.5 -75t-18 -64t-25 -53.5q-4 -13 -32 -44t-69 -69t-89 -79t-91.5 -75t-77 -56t-46.5 -22q-38 0 -81.5 15t-88.5 40t-89 58t-83.5 69.5t-72 74t-53.5 71.5l18 14q144 -198 282 -199
q36 0 93 25.5t122 66t131 91.5t119 102t86.5 96.5t33.5 75.5q0 40 -74 165q-92 138 -100 168q10 79 51 184q43 -57 73 -105.5t56 -88t52.5 -69.5t63 -50t87.5 -30.5t126 -10.5h30zM462 981q-17 39 -39 55.5t-47 16.5q-24 0 -50 -12.5t-52.5 -31t-52.5 -40.5t-50 -41
q43 0 94 4t94.5 11t73 17t29.5 21zM534 1034q-3 -53 -28 -92.5t-65 -65.5t-90.5 -39t-105.5 -13q-73 0 -145.5 22.5t-128.5 67.5l17 17h118q10 9 17.5 15.5t7.5 23.5q0 29 -4.5 65.5t-10.5 75t-12.5 75.5t-10.5 66q-35 21 -48 42t-13 44q0 28 14 58t28 64l25 -2
q-12 -31 -12 -53q0 -15 11 -26t27 -20t34 -15.5t31 -12.5l-25 -97q-13 4 -18 4h-2q8 -48 18 -106.5t10 -112.5q0 -10 -0.5 -19.5t-1.5 -18.5q27 21 59.5 48t67.5 52t70 42t66 17q32 0 58.5 -23.5t41.5 -82.5z" />
    <glyph glyph-name="uniFB8F" unicode="&#x6a9;" horiz-adv-x="2170" arabic-form="final" 
d="M1265 361q55 7 95 21q18 8 33 19q31 22 31 65q0 70 -40.5 148.5t-104.5 157.5l-48 -39q-90 145 -148 279q-50 140 -22 174q8 24 20.5 53.5t25 54.5t21.5 42t10 17t36 12t91.5 32.5t127.5 47t144 56.5t128.5 68.5t96 78.5t66.5 77.5t40 64.5q13 27 20 35.5t9.5 5.5
t1.5 -13.5t-4 -22.5t-16 -47.5t-38.5 -84t-64.5 -104.5t-93 -108q-36 -34 -85.5 -67.5t-103.5 -63t-107.5 -55t-95.5 -43.5t-67 -28q-20 -8 -26 -9l3 -9q0 -1 1 -2q386 -568 452 -634q71 -71 140 -110t149 -57t126.5 -21t102.5 -3l30 1v-200h-70q-54 0 -100.5 7.5
t-122.5 23.5t-136 42.5t-111 64.5t-96 89q-21 22 -41 47q-16 -75 -37 -117t-38 -64q-29 -37 -73 -58t-98 -28.5t-157 -6.5h-491q-325 0 -440 58q-45 17 -80.5 53t-60 84t-37.5 104.5t-13 114.5q0 70 19.5 137t61.5 121l23 -13q-46 -93 -46 -183q0 -78 37.5 -141.5
t116.5 -98.5q17 -12 66.5 -19t146 -11t247 -5.5t287 -1.5t306.5 12z" />
    <glyph glyph-name="uniFB90" unicode="&#x6a9;" horiz-adv-x="1256" arabic-form="initial" 
d="M120 1174l287 -417q25 -36 36.5 -90t11.5 -114q0 -206 -102 -304.5t-313 -98.5h-70v200h30q101 0 171.5 9t117 27.5t73 46.5t39.5 65q-13 26 -63 94t-141 180l-48 -39q-90 145 -148 279q-50 140 -22 174q8 24 20.5 53.5t25 54.5t21.5 42t10 17t36 12t91.5 32.5t127.5 47
t144 56.5t128.5 68.5t96 78.5t66.5 77.5t40 64.5q13 27 20 35.5t9.5 5.5t1.5 -13.5t-4 -22.5t-16 -47.5t-38.5 -84t-64.5 -104.5t-93 -108q-36 -34 -85.5 -67.5t-103.5 -63t-107.5 -55t-95.5 -43.5t-67 -28q-20 -8 -26 -9l3 -9q0 -1 1 -2z" />
    <glyph glyph-name="uniFB91" unicode="&#x6a9;" horiz-adv-x="1100" arabic-form="medial" 
d="M572 540q71 -71 140 -110t149 -57t126.5 -21t102.5 -3l30 1v-200h-70q-54 0 -100.5 7.5t-122.5 23.5t-136 42.5t-111 64.5t-96 89q-21 22 -41 47q-16 -75 -37 -117t-38 -64q-29 -37 -73 -58t-98 -28.5t-105 -7.5h-27t-25 1h-70v200h30q59 3 120 6q33 1 63 5q55 7 95 21
q18 8 33 19q31 22 31 65q0 70 -40.5 148.5t-104.5 157.5l-48 -39q-90 145 -148 279q-50 140 -22 174q8 24 20.5 53.5t25 54.5t21.5 42t10 17t36 12t91.5 32.5t127.5 47t144 56.5t128.5 68.5t96 78.5t66.5 77.5t40 64.5q13 27 20 35.5t9.5 5.5t1.5 -13.5t-4 -22.5t-16 -47.5
t-38.5 -84t-64.5 -104.5t-93 -108q-36 -34 -85.5 -67.5t-103.5 -63t-107.5 -55t-95.5 -43.5t-67 -28q-20 -8 -26 -9l3 -9q0 -1 1 -2q386 -568 452 -634z" />
    <glyph glyph-name="uniFB93" unicode="&#x6af;" horiz-adv-x="2170" arabic-form="final" 
d="M1265 361q55 7 95 21q18 8 33 19q31 22 31 65q0 70 -40.5 148.5t-104.5 157.5l-48 -39q-90 145 -148 279q-50 140 -22 174q8 24 20.5 53.5t25 54.5t21.5 42t10 17t36 12t91.5 32.5t127.5 47t144 56.5t128.5 68.5t96 78.5t66.5 77.5t40 64.5q13 27 20 35.5t9.5 5.5
t1.5 -13.5t-4 -22.5t-16 -47.5t-38.5 -84t-64.5 -104.5t-93 -108q-36 -34 -85.5 -67.5t-103.5 -63t-107.5 -55t-95.5 -43.5t-67 -28q-20 -8 -26 -9l3 -9q0 -1 1 -2q386 -568 452 -634q71 -71 140 -110t149 -57t126.5 -21t102.5 -3l30 1v-200h-70q-54 0 -100.5 7.5
t-122.5 23.5t-136 42.5t-111 64.5t-96 89q-21 22 -41 47q-16 -75 -37 -117t-38 -64q-29 -37 -73 -58t-98 -28.5t-157 -6.5h-491q-325 0 -440 58q-45 17 -80.5 53t-60 84t-37.5 104.5t-13 114.5q0 70 19.5 137t61.5 121l23 -13q-46 -93 -46 -183q0 -78 37.5 -141.5
t116.5 -98.5q17 -12 66.5 -19t146 -11t247 -5.5t287 -1.5t306.5 12zM1798 1845q-1 -7 -12.5 -28t-32.5 -49.5t-51 -61.5t-68 -64.5t-84 -58.5t-99 -43q-3 -1 -8 1t-7 6q-5 17 4.5 29t19.5 20q37 15 80 41t86.5 63t84 85.5t72.5 109.5q2 3 6.5 4.5t6.5 -2.5q3 -5 4 -13
t1 -15.5t-1 -14t-2 -9.5z" />
    <glyph glyph-name="uniFB94" unicode="&#x6af;" horiz-adv-x="1256" arabic-form="initial" 
d="M120 1174l287 -417q25 -36 36.5 -90t11.5 -114q0 -206 -102 -304.5t-313 -98.5h-70v200h30q101 0 171.5 9t117 27.5t73 46.5t39.5 65q-13 26 -63 94t-141 180l-48 -39q-90 145 -148 279q-50 140 -22 174q8 24 20.5 53.5t25 54.5t21.5 42t10 17t36 12t91.5 32.5t127.5 47
t144 56.5t128.5 68.5t96 78.5t66.5 77.5t40 64.5q13 27 20 35.5t9.5 5.5t1.5 -13.5t-4 -22.5t-16 -47.5t-38.5 -84t-64.5 -104.5t-93 -108q-36 -34 -85.5 -67.5t-103.5 -63t-107.5 -55t-95.5 -43.5t-67 -28q-20 -8 -26 -9l3 -9q0 -1 1 -2zM764 1845q-1 -7 -12.5 -28
t-32.5 -49.5t-51 -61.5t-68 -64.5t-84 -58.5t-99 -43q-3 -1 -8 1t-7 6q-5 17 4.5 29t19.5 20q37 15 80 41t86.5 63t84 85.5t72.5 109.5q2 3 6.5 4.5t6.5 -2.5q3 -5 4 -13t1 -15.5t-1 -14t-2 -9.5z" />
    <glyph glyph-name="uniFB95" unicode="&#x6af;" horiz-adv-x="1100" arabic-form="medial" 
d="M572 540q71 -71 140 -110t149 -57t126.5 -21t102.5 -3l30 1v-200h-70q-54 0 -100.5 7.5t-122.5 23.5t-136 42.5t-111 64.5t-96 89q-21 22 -41 47q-16 -75 -37 -117t-38 -64q-29 -37 -73 -58t-98 -28.5t-105 -7.5h-27t-25 1h-70v200h30q59 3 120 6q33 1 63 5q55 7 95 21
q18 8 33 19q31 22 31 65q0 70 -40.5 148.5t-104.5 157.5l-48 -39q-90 145 -148 279q-50 140 -22 174q8 24 20.5 53.5t25 54.5t21.5 42t10 17t36 12t91.5 32.5t127.5 47t144 56.5t128.5 68.5t96 78.5t66.5 77.5t40 64.5q13 27 20 35.5t9.5 5.5t1.5 -13.5t-4 -22.5t-16 -47.5
t-38.5 -84t-64.5 -104.5t-93 -108q-36 -34 -85.5 -67.5t-103.5 -63t-107.5 -55t-95.5 -43.5t-67 -28q-20 -8 -26 -9l3 -9q0 -1 1 -2q386 -568 452 -634zM764 1845q-1 -7 -12.5 -28t-32.5 -49.5t-51 -61.5t-68 -64.5t-84 -58.5t-99 -43q-3 -1 -8 1t-7 6q-5 17 4.5 29t19.5 20
q37 15 80 41t86.5 63t84 85.5t72.5 109.5q2 3 6.5 4.5t6.5 -2.5q3 -5 4 -13t1 -15.5t-1 -14t-2 -9.5z" />
    <glyph glyph-name="uniFB9F" unicode="&#x6ba;" horiz-adv-x="1148" arabic-form="final" 
d="M1178 150h-70q-18 0 -38 3t-39.5 9t-36.5 15.5t-28 21.5q-13 -241 -152.5 -366t-406.5 -125q-112 0 -189.5 26.5t-126 74t-70 113.5t-21.5 145q0 61 11.5 128t32.5 137.5t50 144t63 147.5l22 -10q-54 -125 -84 -229.5t-30 -189.5q0 -69 22 -122.5t71 -90.5t126 -56.5
t187 -19.5q34 0 80 6.5t95.5 20t98 33t87 46t62 59.5t23.5 73q0 114 -148 385v4q0 14 6 41t16 54.5t21.5 49.5t23.5 26q26 -64 51.5 -127.5t51.5 -127.5q29 -51 70.5 -75.5t105.5 -24.5h16.5t16.5 1h30v-200z" />
    <glyph glyph-name="uniFBA7" unicode="&#x6c1;" horiz-adv-x="806" arabic-form="final" 
d="M836 150h-70q-75 0 -130 28t-96 70.5t-70.5 91.5t-52.5 91.5t-42 70.5t-39 28q-15 0 -31 -17t-35.5 -56.5t-44 -103.5t-54.5 -158q-7 -7 -17.5 -33.5t-22.5 -62.5t-26 -76t-28.5 -74t-30 -56t-30.5 -22q-9 0 -16 7q0 6 9.5 50.5t24 108.5t31.5 138.5t33 140.5t28 114
t16 60q33 87 60 147t50.5 96.5t43 53t37.5 16.5q28 0 53 -33.5t52.5 -84t60 -109t76 -109t100 -84t131.5 -33.5h30v-200z" />
    <glyph glyph-name="uniFBA8" unicode="&#x6c1;" horiz-adv-x="864" arabic-form="initial" 
d="M634 179q-88 0 -251 127q-35 -29 -72 -57t-78 -50t-88.5 -35.5t-104.5 -13.5h-70v200h30q114 0 181 14t103.5 32t53 35.5t29.5 24.5q36 20 65 97t61 200l28 -10q-14 -52 -31 -128.5t-37 -179.5q11 -16 30.5 -32t43.5 -29.5t50 -22t50 -8.5q13 0 25 3q18 45 18 79
q0 18 -3.5 37.5t-10 42t-15 49.5t-17.5 62q69 129 118 163q2 -18 5.5 -44t7 -56t6 -64t2.5 -69q0 -52 -8.5 -102t-31.5 -90q-21 -54 -43.5 -97.5t-45.5 -77.5zM369 -321q27 34 81 34q45 0 64 -24t19 -56q0 -30 -12.5 -56.5t-32 -46.5t-44.5 -32t-49 -12q-25 0 -49 10.5
t-43 29t-30 44.5t-11 57q0 39 18 94.5t45.5 113t61 108.5t63.5 80l73 24q-24 -25 -54.5 -68.5t-57.5 -91.5t-46 -94.5t-19 -78.5q0 -18 23 -35z" />
    <glyph glyph-name="uniFBA9" unicode="&#x6c1;" horiz-adv-x="1040" arabic-form="medial" 
d="M-30 350h30q78 0 141.5 11.5t113.5 28t88.5 34t66.5 29.5l60 -31q-78 -54 -117.5 -134t-39.5 -168q0 -40 8.5 -80.5t26.5 -78.5q3 31 18 81.5t41.5 108.5t64 117.5t85.5 107t106 77.5t126 30q41 -15 67.5 -37.5t51.5 -44t55 -36.5t77 -15h30v-200h-70q-25 0 -45.5 11
t-39 27t-36 35t-36.5 35t-41 27t-48 11h-8q-5 1 -10 1h-10q-61 0 -114 -27.5t-92 -73t-61.5 -104t-22.5 -119.5q0 -54 19 -105.5t61 -95.5l-155 -131q-76 65 -104.5 139.5t-28.5 155.5q0 71 14.5 145t29.5 151q-35 -4 -64 -17t-56 -27t-54 -25.5t-58 -12.5h-70v200z" />
    <glyph glyph-name="uniFBAB" unicode="&#x6be;" horiz-adv-x="1257" arabic-form="final" 
d="M1287 150h-70q-32 1 -56 11t-43.5 24.5t-36 32t-34.5 33.5v-31q0 -29 -50 -193q-127 46 -249.5 73.5t-246.5 38.5q-58 6 -170.5 9t-270.5 2q-144 0 -245.5 -7.5t-167.5 -7.5q-75 0 -107 6t-32 17q0 13 40.5 31t101.5 38.5t132 40.5t132 37t101.5 29t40.5 16
q3 65 17 134.5t43 136.5t74.5 128t110.5 110q-53 24 -103 119l273 116q12 -70 160 -206q109 -100 174 -162.5t87 -88.5q37 -43 64.5 -80.5t44.5 -72.5q36 -14 62.5 -37t53.5 -44.5t59.5 -37t80.5 -15.5h30v-200zM922 304q0 175 -381 451q7 -27 10 -73t3 -98q0 -46 -2 -91.5
t-6 -82.5t-9 -60.5t-11 -24.5q58 -5 110.5 -9t100.5 -11.5t92 -20.5t86 -37q7 24 7 57zM472 415q3 14 3 30q0 35 -10 78.5t-27.5 81t-41 63t-50.5 25.5q-18 0 -48 -16t-58.5 -39t-49.5 -49.5t-21 -47.5q40 -159 174 -230q65 43 129 104z" />
    <glyph glyph-name="uniFBAC" unicode="&#x6be;" horiz-adv-x="1147" arabic-form="initial" 
d="M1047 220q0 -29 -50 -193q-127 46 -249.5 73.5t-246.5 38.5q-58 6 -170.5 9t-270.5 2h-90v200h86q3 65 17 134.5t43 136.5t74.5 128t110.5 110q-53 24 -103 119l273 116q12 -70 160 -206q109 -100 174 -162.5t87 -88.5q54 -58 84.5 -108t46.5 -99t20 -100t4 -110z
M922 304q0 175 -381 451q7 -27 10 -73t3 -98q0 -46 -2 -91.5t-6 -82.5t-9 -60.5t-11 -24.5q58 -5 110.5 -9t100.5 -11.5t92 -20.5t86 -37q7 24 7 57zM472 415q3 14 3 30q0 35 -10 78.5t-27.5 81t-41 63t-50.5 25.5q-18 0 -48 -16t-58.5 -39t-49.5 -49.5t-21 -47.5
q40 -159 174 -230q65 43 129 104z" />
    <glyph glyph-name="uniFBAD" unicode="&#x6be;" horiz-adv-x="800" arabic-form="medial" 
d="M830 150h-210q0 -11 5 -33.5t11.5 -47t11.5 -47t5 -33.5q0 -60 -28.5 -110.5t-73.5 -87.5t-102 -58t-114 -21q-62 0 -106.5 28t-72.5 73t-41 100.5t-13 110.5q0 11 0.5 20.5t1.5 19.5l-45 -10v96h-89v200h164q33 42 63.5 97.5t58 119t50.5 132.5t39.5 137.5t25.5 134.5
t9 124v16t-1 16l67 -18q55 -83 84 -189t29 -215q0 -92 -22 -176t-68 -149q44 -27 124 -30h237v-200zM229 328q56 7 99.5 33.5t74 65.5t46.5 86t16 96q0 48 -16 94t-51 84zM216 121q-1 -8 -1.5 -14.5t-0.5 -13.5q0 -49 19.5 -85t51 -58.5t73 -33.5t84.5 -11q76 0 141 28
q-7 52 -43.5 88.5t-86.5 58.5t-105 32t-99 10h-13z" />
    <glyph glyph-name="uniFBAF" unicode="&#x6d2;" horiz-adv-x="2080" arabic-form="final" 
d="M248 -301q0 -19 34.5 -31.5t94.5 -19.5t142 -10t177 -3q96 0 202 2t213 4.5t210.5 4.5t195.5 2q129 0 221 -23t160.5 -55.5t119.5 -67.5t98 -59l-52 -48q-35 25 -60.5 46t-56.5 36t-75.5 23.5t-116.5 8.5q-45 0 -101.5 -3.5t-130.5 -10.5q-43 -4 -111 -7.5t-148.5 -6.5
t-170 -6t-176 -4.5t-165 -2.5t-139.5 -1q-186 0 -305.5 11.5t-187.5 38t-94 68.5t-26 104q0 57 35 102.5t94.5 82t139 66t169 54t183.5 46t183 42.5q126 30 217.5 69.5t161 82.5t122 84.5t98.5 74.5t91.5 53.5t101.5 20.5q11 0 23 -1t24 -3q32 -5 77.5 -23t101.5 -38
t121 -36t137 -16h30v-200h-70q-61 0 -126 20t-125 44t-111 44t-86 20q-47 0 -99.5 -22t-111.5 -56.5t-124.5 -76.5t-137.5 -83t-151 -76t-164 -55q-59 -14 -123.5 -27t-126.5 -27t-117.5 -29.5t-97.5 -34t-66.5 -41.5t-24.5 -51z" />
    <glyph glyph-name="uniFBD4" unicode="&#x6ad;" horiz-adv-x="1829" arabic-form="final" 
d="M632 150q-325 0 -440 58q-45 17 -80.5 52.5t-60 83.5t-37.5 105t-13 115q0 71 19.5 137.5t61.5 120.5l23 -13q-46 -94 -46 -182q0 -78 37.5 -141.5t116.5 -99.5q18 -12 73.5 -19.5t165.5 -11.5t284 -5t430 -1q120 0 187 35.5t94 107.5q-27 186 -40.5 332t-13.5 233
q0 49 4.5 75.5t12.5 26.5q14 0 41 -88.5t64 -285.5q9 -93 10 -159.5t1 -108.5q-5 -51 -17.5 -96t-32.5 -85q-13 36 -18.5 78t-10.5 78l2 6q-6 32 -15 89t-19.5 126t-20.5 144.5t-18 144.5l-60 -54q-9 29 -16.5 61t-13.5 64.5t-10 63t-6 55.5q1 7 16.5 30.5t39 55t51.5 66.5
t54 64.5t46 49.5t28 22l-36 -190h-2q-6 0 -11 -6t-8.5 -15t-7 -19t-6.5 -17q35 -137 53.5 -247t27.5 -201q6 -33 12.5 -68.5t13.5 -74.5q7 -81 21.5 -136.5t45.5 -89.5t84 -49.5t137 -16.5h30v-200h-70q-112 0 -195.5 48t-117.5 138q-42 -83 -118 -134.5t-187 -51.5h-539z
M797 790q0 5 -23 7.5t-51 5.5t-51 8t-23 15q0 59 52.5 106t137.5 80l19 -62q-7 -4 -26 -8t-39 -8.5t-35.5 -10.5t-15.5 -15t13 -15.5t32.5 -11t42.5 -9.5t42.5 -11t32.5 -15t13 -22q0 -28 -20 -48.5t-51.5 -33.5t-71 -19t-78.5 -6q-46 0 -86 8t-60 22q18 5 43 7.5t52.5 3.5
t54.5 2.5t48.5 4.5t34.5 9t13 16zM1662 1654l-100 -165l-188 112l109 160zM1391 1654l-102 -165l-180 112l101 160zM1477 1919l-100 -158l-188 109l105 153z" />
    <glyph glyph-name="uniFBD5" unicode="&#x6ad;" horiz-adv-x="1256" arabic-form="initial" 
d="M643 1794l-100 -165l-188 112l109 160zM372 1794l-102 -165l-180 112l101 160zM458 2059l-100 -158l-188 109l105 153zM-30 150v200h30q101 0 171.5 9t117 27.5t73 46.5t39.5 65q-13 26 -63 94t-141 180l-48 -39q-90 145 -148 279q0 2 -0.5 3.5t-0.5 3.5q0 14 6 45
t15.5 69t21 79t23 76t22 60t16.5 30l1052 316q0 -13 -9.5 -41.5t-22.5 -58.5t-27 -55.5t-23 -32.5l-934 -282q-24 -7 -24 -38l3 -11l288 -418q25 -36 36.5 -90t11.5 -114q0 -206 -102 -304.5t-313 -98.5h-70z" />
    <glyph glyph-name="uniFBD6" unicode="&#x6ad;" horiz-adv-x="1260" arabic-form="medial" 
d="M643 1794l-100 -165l-188 112l109 160zM372 1794l-102 -165l-180 112l101 160zM458 2059l-100 -158l-188 109l105 153zM1290 350v-200h-70q-124 0 -220.5 7.5t-172.5 23.5t-136 42.5t-111 64.5t-96.5 88.5t-93.5 115.5q6 -69 6 -154q0 -58 -28.5 -95t-72.5 -58t-98 -28.5
t-105 -7.5h-27t-25 1h-70v200h30q59 3 119.5 5.5t110 12.5t81 32.5t31.5 65.5q0 70 -27 110l-314 486v10q0 17 5 45.5t13.5 62t19 69t21.5 66t21.5 52.5t18.5 29l1034 227q-3 -30 -9.5 -53t-16 -43.5t-23 -40t-30.5 -42.5q-35 -8 -91.5 -20t-124.5 -27t-144.5 -32
t-152.5 -34t-147.5 -34.5t-130 -32.5t-100 -28t-57.5 -22q16 -49 137 -224q99 -160 178 -269.5t150 -180.5t140 -110t149 -57t176.5 -21t222.5 -3z" />
    <glyph glyph-name="uniFBDF" unicode="&#x6cb;" horiz-adv-x="1024" arabic-form="final" 
d="M1054 148h-192q-35 -93 -94.5 -181.5t-136 -163t-166.5 -131t-185 -85.5q-63 15 -139 47.5t-153.5 73t-152 84t-135.5 79.5l6 13q312 -137 451 -137q37 0 92.5 19.5t119 52t128.5 74.5t119.5 87t93.5 89.5t50 82.5q-55 0 -111.5 12t-102 38.5t-74.5 69t-29 103.5
q0 35 8 80t24 91.5t39 91.5t52.5 79.5t65 56t76.5 21.5q32 0 60 -18t51 -47.5t41 -68.5t30.5 -81t19 -84t6.5 -78q0 -39 -8 -69h146v-201zM802 352q1 5 1.5 10.5t0.5 11.5q0 37 -15.5 77.5t-39.5 74t-52.5 55.5t-54.5 22q-25 0 -45.5 -10t-35.5 -27t-23.5 -39t-8.5 -46
q0 -109 273 -129zM875 1074l-100 -165l-188 112l109 160zM604 1074l-102 -165l-180 112l101 160zM690 1339l-100 -158l-188 109l105 153z" />
    <glyph glyph-name="uniFBE3" unicode="&#x6c9;" horiz-adv-x="1024" arabic-form="final" 
d="M1054 148h-192q-35 -93 -94.5 -181.5t-136 -163t-166.5 -131t-185 -85.5q-63 15 -139 47.5t-153.5 73t-152 84t-135.5 79.5l6 13q312 -137 451 -137q37 0 92.5 19.5t119 52t128.5 74.5t119.5 87t93.5 89.5t50 82.5q-55 0 -111.5 12t-102 38.5t-74.5 69t-29 103.5
q0 35 8 80t24 91.5t39 91.5t52.5 79.5t65 56t76.5 21.5q32 0 60 -18t51 -47.5t41 -68.5t30.5 -81t19 -84t6.5 -78q0 -39 -8 -69h146v-201zM802 352q1 5 1.5 10.5t0.5 11.5q0 37 -15.5 77.5t-39.5 74t-52.5 55.5t-54.5 22q-25 0 -45.5 -10t-35.5 -27t-23.5 -39t-8.5 -46
q0 -109 273 -129zM323 967q194 117 246 400q16 11 30.5 24t30.5 27q3 -62 32.5 -126t74 -123.5t97.5 -111t103 -88.5q-9 -17 -26.5 -47t-36.5 -60q-58 49 -99 90.5t-73.5 85t-59 94.5t-54.5 119q-17 -52 -42 -106t-55 -105t-65 -98t-72 -85z" />
    <glyph glyph-name="uniFBE5" unicode="&#x6d0;" horiz-adv-x="1460" arabic-form="final" 
d="M1017 -1296l-179 74l72 203l176 -71zM965 -1023l-177 63l72 203l176 -76zM1460 150q-105 0 -208 -5t-185 -15t-133 -25t-51 -35q219 -83 235 -95q171 -78 171 -167q0 -9 -4 -30.5t-10 -49.5t-14.5 -59t-17 -58t-17 -46.5t-15.5 -24.5q-33 -36 -91.5 -68t-131 -59
t-152 -49t-153.5 -37.5t-137 -23.5t-101 -8q-138 0 -233 38t-153 103.5t-83.5 153t-25.5 187.5q0 69 11 142t30 146.5t45 145t57 137.5l31 -12q-61 -135 -89 -244t-28 -197q0 -105 37 -179.5t100.5 -121.5t149.5 -68.5t184 -21.5q80 0 164.5 13t169.5 37t168 57.5t158 74.5
q14 15 14 32q0 16 -15 31.5t-42 31.5t-65 33t-85 35q-210 82 -210 123q0 29 8 58.5t20.5 60t27.5 62.5t30 65q16 22 51.5 40.5t83.5 33t106 25.5t119 18.5t122.5 11t116.5 3.5h70v-200h-30z" />
    <glyph glyph-name="uniFBE6" unicode="&#x6d0;" horiz-adv-x="458" arabic-form="initial" 
d="M280 -530l-179 79l71 199l181 -76zM228 -255l-177 64l71 201l181 -74zM358 603q0 -43 -2.5 -96t-18.5 -117q-13 -65 -35.5 -111t-57.5 -74.5t-85 -41.5t-119 -13h-70v200h30q55 0 105.5 2.5t89.5 8t63.5 14t27.5 20.5q-10 68 -22.5 117t-30.5 89.5t-42.5 76t-56.5 75.5
q7 85 67 161q21 -10 40.5 -31t37 -48.5t32 -59t25 -63t16.5 -60t6 -49.5z" />
    <glyph glyph-name="uniFBE7" unicode="&#x6d0;" horiz-adv-x="640" arabic-form="medial" 
d="M670 150h-70q-209 0 -299 163q-18 -34 -42.5 -64t-56.5 -52t-72 -34.5t-90 -12.5h-70v200h30q56 0 98 3.5t74.5 14.5t58.5 30.5t50 51.5t48.5 78.5t54.5 110.5l20 -15q-14 -29 -20.5 -54t-6.5 -48q0 -43 21.5 -75.5t58 -54t84 -32t99.5 -10.5h30v-200zM280 -530l-179 79
l71 199l181 -76zM228 -255l-177 64l71 201l181 -74z" />
    <glyph glyph-name="uniFBE8" unicode="&#x649;" horiz-adv-x="458" arabic-form="initial" 
d="M399 447q-19 -87 -69.5 -150.5t-85.5 -92t-85 -41.5t-119 -13h-70v200h30q56 0 98 3.5t74.5 14.5t58.5 30.5t54 56.5q-7 27 -17.5 52.5t-25 48t-43.5 53.5q-70 91 -79 151q-1 52 28.5 78.5t78.5 65.5l11 -5q-1 -12 -1.5 -22t0.5 -19q2 -18 7.5 -34.5t15.5 -36t24.5 -44
t33.5 -58.5q35 -63 53 -109t20 -79q3 -40 8 -50z" />
    <glyph glyph-name="uniFBE9" unicode="&#x649;" horiz-adv-x="640" arabic-form="medial" 
d="M399 447q21 -33 57.5 -54.5t84 -32t99.5 -10.5h30v-200h-70q-197 0 -288 145l-10 -16q-23 -46 -58 -74.5t-85 -41.5t-119 -13h-70v200h30q56 0 98 3.5t74.5 14.5t58.5 30.5t54 56.5q-7 27 -17.5 52.5t-25 48t-43.5 53.5q-70 91 -79 151q-1 52 28.5 78.5t78.5 65.5l11 -5
q-1 -12 -1.5 -22t0.5 -19q2 -18 7.5 -34.5t15.5 -36t24.5 -44t33.5 -58.5q35 -63 53 -109t20 -79q3 -40 8 -50z" />
    <glyph glyph-name="uniFBFD" unicode="&#x6cc;" horiz-adv-x="1460" arabic-form="final" 
d="M1460 150q-105 0 -208 -5t-185 -15t-133 -25t-51 -35q219 -83 235 -95q171 -78 171 -167q0 -9 -4 -30.5t-10 -49.5t-14.5 -59t-17 -58t-17 -46.5t-15.5 -24.5q-33 -36 -91.5 -68t-131 -59t-152 -49t-153.5 -37.5t-137 -23.5t-101 -8q-138 0 -233 38t-153 103.5t-83.5 153
t-25.5 187.5q0 69 11 142t30 146.5t45 145t57 137.5l31 -12q-61 -135 -89 -244t-28 -197q0 -105 37 -179.5t100.5 -121.5t149.5 -68.5t184 -21.5q80 0 164.5 13t169.5 37t168 57.5t158 74.5q14 15 14 32q0 16 -15 31.5t-42 31.5t-65 33t-85 35q-210 82 -210 123q0 29 8 58.5
t20.5 60t27.5 62.5t30 65q16 22 51.5 40.5t83.5 33t106 25.5t119 18.5t122.5 11t116.5 3.5h70v-200h-30z" />
    <glyph glyph-name="uniFBFE" unicode="&#x6cc;" horiz-adv-x="458" arabic-form="initial" 
d="M483 -235l-111 -161l-183 107l109 164zM203 -235l-96 -161l-184 107l106 164zM302 279q-23 -46 -58 -74.5t-85 -41.5t-119 -13h-70v200h30q55 0 105.5 2.5t89.5 8t64 14.5q19 6 25 16q7 42 0.5 66.5t-17 50t-25 48t-43.5 53.5q-70 91 -79 151q-1 52 28.5 78.5t78.5 65.5
l11 -5q-1 -12 -1.5 -22t0.5 -19q2 -18 7.5 -34.5t15.5 -36t24.5 -44t33.5 -58.5q35 -63 53 -109t20 -79q5 -51 -24 -107q-22 -43 -65 -111z" />
    <glyph glyph-name="uniFBFF" unicode="&#x6cc;" horiz-adv-x="640" arabic-form="medial" 
d="M483 -235l-111 -161l-183 107l109 164zM203 -235l-96 -161l-184 107l106 164zM399 447q21 -33 57.5 -54.5t84 -32t99.5 -10.5h30v-200h-70q-197 0 -288 145l-10 -16q-23 -46 -58 -74.5t-85 -41.5t-119 -13h-70v200h30q56 0 98 3.5t74.5 14.5t58.5 30.5t54 56.5
q-7 27 -17.5 52.5t-25 48t-43.5 53.5q-70 91 -79 151q-1 52 28.5 78.5t78.5 65.5l11 -5q-1 -12 -1.5 -22t0.5 -19q2 -18 7.5 -34.5t15.5 -36t24.5 -44t33.5 -58.5q35 -63 53 -109t20 -79q3 -40 8 -50z" />
    <glyph glyph-name="uniFC5E" unicode="&#xfc5e;" arabic-form="isolated" 
d="M313 1983q0 66 -70 66q-64 0 -64 -46q0 -10 17.5 -29t48.5 -46q68 41 68 55zM526 1637q-47 -9 -226 -104q-178 -83 -193 -83q-20 0 -40 13t-43.5 38t-51.5 61t-64 82h81q32 0 78 -40q47 -41 54 -41q59 0 59 50q0 75 -81 132h78q20 0 38.5 -13.5t39.5 -40.5q39 -51 49 -51
q54 0 54 54q0 23 -8.5 40.5t-24 32.5t-38 30t-50.5 34q-88 -51 -158 -78.5t-115 -27.5v107q-30 -12 -61 -18.5t-64 -6.5h-86l-1 4q66 30 144 68t163 83v-125q22 8 48.5 20.5t58.5 29.5q-78 71 -78 118q0 21 15 43t42.5 47t65.5 54t83 64q0 -20 14.5 -51.5t42.5 -73.5
q29 -43 43.5 -70t14.5 -46q0 -60 -95 -104q17 -17 35 -33l36 -32q37 -3 80 -70q23 -43 38.5 -65t23.5 -27z" />
    <glyph glyph-name="uniFC5F" unicode="&#xfc5f;" arabic-form="isolated" 
d="M582 1712l1 -4q-2 0 -19 -7.5t-43 -19t-57.5 -25t-61.5 -26.5t-55 -24t-38 -17q-94 -43 -160 -66.5t-95 -23.5h-132l-1 4q462 209 531 209h130zM536 1858l1 -4q-20 -8 -89.5 -39t-189.5 -88q-97 -45 -160 -66t-93 -21h-131l-1 4q462 214 532 214h131zM416 1955
q-25 -5 -82.5 -32.5t-147.5 -73.5q-75 -38 -125.5 -61.5t-64.5 -23.5q-22 0 -43 13t-44 38.5t-50.5 62.5t-61.5 84h80q33 0 80 -44q44 -41 56 -41q58 0 58 49q0 85 -83 139h82q40 0 76 -55q17 -26 28 -39.5t19 -13.5q57 0 57 61q0 63 -69 93l1 4q40 2 55 3.5t20 1.5
q50 0 95 -62q50 -87 65 -99z" />
    <glyph glyph-name="uniFC60" unicode="&#xfc60;" arabic-form="isolated" 
d="M438 1959l1 -4q-20 -5 -89.5 -36t-189.5 -89q-97 -46 -159 -67.5t-94 -22.5h-132l-1 4q462 215 530 215h134zM486 1643q-25 -5 -81.5 -30.5t-149.5 -73.5q-85 -42 -132.5 -62.5t-61.5 -20.5q-42 0 -109 79q-21 29 -44 58.5t-46 56.5h81q15 0 36.5 -12t42 -27t37.5 -27
t23 -12q60 0 60 48q0 75 -89 131h86q32 0 69 -54q19 -26 33 -39t19 -13q56 0 56 55q0 64 -71 105q34 4 54 5t25 1q50 0 92 -68q48 -87 71 -96z" />
    <glyph glyph-name="uniFC61" unicode="&#xfc61;" arabic-form="isolated" 
d="M295 1989q0 66 -71 66q-60 0 -60 -46q0 -10 17 -29t48 -46q31 20 48.5 33.5t17.5 21.5zM512 1643q-50 -9 -232 -104q-169 -83 -193 -83q-21 0 -44 17t-47.5 44t-50.5 62t-54 71h78q34 0 78 -41v1q47 -41 59 -41q61 0 61 50q0 74 -88 132h85q32 0 71 -54q36 -51 52 -51
q54 0 54 54q0 24 -9 41.5t-25.5 33t-39.5 30.5t-50 33q-32 -19 -67 -38t-70.5 -34.5t-71 -25t-68.5 -9.5h-120l-1 4q72 28 154 67t178 91q-81 74 -81 117q0 23 13.5 42.5t39.5 42t63.5 52.5t86.5 73q0 -43 58 -126q57 -81 57 -116q0 -60 -93 -104q18 -17 36.5 -33t35.5 -32
q18 -2 38 -20t38 -50q48 -85 70 -92z" />
    <glyph glyph-name="uniFC62" unicode="&#xfc62;" arabic-form="isolated" 
d="M573 1682l1 -4q-18 -7 -88 -36.5t-191 -83.5q-94 -45 -158.5 -67.5t-96.5 -22.5h-128l-1 4q461 210 530 210h132zM455 1777q-26 -5 -83 -31t-148 -72q-82 -38 -129.5 -58t-61.5 -20q-44 0 -116 74q-9 13 -16.5 23t-15.5 22l-50 72h80q14 0 35 -13.5t41.5 -29.5t37 -29.5
t21.5 -13.5q61 0 61 52q0 80 -86 136h83q39 0 74 -56q35 -54 48 -54q30 0 43.5 14.5t13.5 45.5q0 66 -74 104q35 3 55.5 6t25.5 3q27 0 49.5 -17t42.5 -51q26 -43 44 -69.5t26 -33.5z" />
    <glyph glyph-name="uniFC63" unicode="&#xfc63;" horiz-adv-x="0" arabic-form="isolated" 
d="M148 1990q0 -70 -84 -163l-14 6q33 56 33 107q0 20 -4.5 38.5t-12 39t-18.5 44t-24 53.5q-15 29 -24 50t-9 40q0 21 16 42t53 50l13 -5q-2 -11 -3.5 -20.5t-1.5 -20.5q0 -23 10 -50.5t29 -70.5q41 -93 41 -140zM470 1659q-54 -11 -230 -101q-36 -18 -67.5 -33.5
t-56.5 -27t-42.5 -17.5t-24.5 -6q-44 0 -112 77q-21 29 -43 58.5t-43 55.5h80q35 0 78 -40v1q47 -39 57 -39q60 0 60 49q0 76 -86 133h85q19 0 37.5 -17t35 -37.5t29.5 -37.5t19 -17q57 0 57 56q0 34 -18 60t-56 45q40 4 60 5.5t22 1.5q25 0 49 -16.5t44 -50.5
q26 -44 42 -68.5t25 -29.5z" />
    <glyph glyph-name="uniFCF2" unicode="&#xfcf2;" horiz-adv-x="400" arabic-form="medial" 
d="M427 1547q-20 -5 -94 -37.5t-205 -95.5q-203 -97 -272 -97h-140q498 230 568 230h143zM480 1212q-53 -10 -249 -112q-183 -89 -208 -89q-20 0 -43.5 17.5t-50.5 46t-56 65.5t-59 75h81q35 0 85 -42t65 -42q67 0 67 53q0 83 -90 140h84q33 0 73 -57q41 -57 58 -57
q63 0 63 62q0 71 -73 111q34 2 54 3.5t25 1.5q53 0 97 -71q53 -95 77 -105zM430 150h-460v200h460v-200z" />
    <glyph glyph-name="uniFCF3" unicode="&#xfcf3;" horiz-adv-x="400" arabic-form="medial" 
d="M509 1211q-55 -10 -252 -112q-90 -45 -141.5 -66.5t-64.5 -22.5q-46 0 -117 83q-48 66 -91 121h80q39 0 85 -43t64 -43q67 0 67 55q0 83 -89 140h84q34 0 74 -57q41 -56 57 -56q62 0 62 61q0 27 -13 48.5t-33 39.5t-44 33.5t-46 29.5q-36 -20 -74 -40.5t-76 -37.5
t-75.5 -27.5t-73.5 -10.5h-128q76 29 164.5 71.5t194.5 99.5q-88 79 -88 128q0 22 17.5 46t47 51t68.5 58t81 65q0 -42 62 -131q63 -88 63 -124q0 -65 -103 -111l81 -74q39 -2 81 -73q27 -45 45.5 -70.5t30.5 -30.5zM277 1581q0 75 -79 75q-66 0 -66 -53q0 -22 71 -84
q74 47 74 62zM430 150h-460v200h460v-200z" />
    <glyph glyph-name="uniFCF4" unicode="&#xfcf4;" horiz-adv-x="400" arabic-form="medial" 
d="M446 1357q-55 -10 -250 -111q-175 -84 -204 -84q-50 0 -120 75q-23 32 -45 63.5t-44 63.5h81q38 0 84 -46t63 -46q67 0 67 57q0 90 -87 145h82q40 0 77 -60q38 -59 54 -59q64 0 64 67q0 72 -74 111q35 4 54.5 6t24.5 2q55 0 98 -72q58 -96 75 -112zM572 1250
q-42 -14 -299 -129q-204 -97 -273 -97h-138q494 226 570 226h140zM430 150h-460v200h460v-200z" />
    <glyph glyph-name="uniFDFC" unicode="&#xfdfc;" horiz-adv-x="1352" arabic-form="isolated" 
d="M1252 1263l-48 -180q-10 2 -19 4t-17 4q-10 -13 -18 -30q75 -379 75 -611t-57 -358q-33 -71 -93 -127t-135.5 -95t-159.5 -60t-164 -21q-84 0 -158.5 20.5t-131 63t-89 108t-32.5 154.5q0 122 161 569l32 -12q-128 -389 -128 -428q0 -81 35 -135t92 -86.5t129.5 -45.5
t147.5 -13q46 0 100 10t107.5 30t104 48.5t89 65.5t61.5 82t23 97q0 527 -72 789q-147 114 -147 171q0 113 86 265l27 -7q-11 -23 -21.5 -49t-10.5 -55q0 -39 21 -62.5t54.5 -40.5t74.5 -31t81 -34zM427 912q35 0 63 6.5t48.5 21.5t31.5 40.5t11 62.5q0 63 -34.5 93
t-106.5 30h-245v-254h232zM100 1248h337q121 0 180.5 -50t59.5 -146q0 -66 -28 -108t-79 -68q44 -17 67 -48t25 -90l4 -98q2 -52 11 -76t28 -32v-14h-118q-3 6 -5 12t-3.5 14.5t-2.5 21.5t-2 32l-5 122q-2 32 -11 53.5t-26 35t-44 19t-65 5.5h-228v-315h-95v730z" />
    <glyph glyph-name="uniFE71" unicode="&#xfe71;" horiz-adv-x="400" arabic-form="medial" 
d="M512 1399q-20 -7 -94 -40t-205 -96q-204 -94 -273 -94h-140q501 230 570 230h142zM564 1243q-37 -13 -297 -129q-203 -97 -273 -97h-141q494 226 569 226h142zM430 150h-460v200h460v-200z" />
    <glyph glyph-name="uniFE77" unicode="&#xfe77;" horiz-adv-x="400" arabic-form="medial" 
d="M554 1298q-39 -13 -297 -129q-203 -97 -273 -97h-140q494 226 568 226h142zM430 150h-460v200h460v-200z" />
    <glyph glyph-name="uniFE79" unicode="&#xfe79;" horiz-adv-x="400" arabic-form="medial" 
d="M427 1256q0 -58 -102 -102l84 -72q-35 0 -59.5 2.5t-42.5 7t-31.5 11.5t-26.5 16q-32 -19 -70 -39.5t-77.5 -37t-78.5 -27.5t-75 -11h-127q151 54 357 171q-45 29 -64.5 57t-19.5 56q0 33 22 64.5t54.5 61t69 56.5t65.5 51q0 -9 9 -30t22.5 -47t29.5 -55t29.5 -55.5
t22.5 -47t9 -30.5zM335 1270q0 19 -7.5 33.5t-19.5 24.5t-27 15.5t-30 5.5q-24 0 -42 -14t-18 -43q0 -21 69 -83q75 44 75 61zM430 150h-460v200h460v-200z" />
    <glyph glyph-name="uniFE7B" unicode="&#xfe7b;" horiz-adv-x="400" arabic-form="medial" 
d="M587 -198q-39 -14 -297 -129q-203 -97 -273 -97h-140q494 226 568 226h142zM430 150h-460v200h460v-200z" />
    <glyph glyph-name="uniFE7D" unicode="&#xfe7d;" horiz-adv-x="400" arabic-form="medial" 
d="M463 1229q-59 -12 -249 -109q-175 -90 -204 -90q-50 0 -120 81q-45 63 -90 120h82q36 0 84 -42t62 -42q66 0 66 55q0 85 -86 142h83q40 0 78 -59t53 -59q63 0 63 63q0 73 -73 112q71 6 79 6q26 0 51.5 -18t47.5 -54q29 -47 46.5 -73.5t26.5 -32.5zM430 150h-460v200h460
v-200z" />
    <glyph glyph-name="uniFE7F" unicode="&#xfe7f;" horiz-adv-x="400" arabic-form="medial" 
d="M342 1232q0 -35 -14 -65t-37.5 -51.5t-55 -33.5t-66.5 -12q-34 0 -66 11t-57 30.5t-40 46.5t-15 59q0 57 78 148q32 33 64.5 65t66.5 64q0 -59 71 -139t71 -123zM255 1221q0 33 -92 125q-83 -86 -83 -114q0 -80 85 -80q17 0 33 5.5t29 15t20.5 22t7.5 26.5zM430 150h-460
v200h460v-200z" />
    <glyph glyph-name="uniFE8E" unicode="&#x627;" horiz-adv-x="529" arabic-form="final" 
d="M260 327q54 15 123.5 19.5t93.5 3.5h60v-200h-70q-105 0 -270 -9l-18 9q12 70 18.5 133t6.5 126q0 46 -3.5 93t-10 97.5t-16.5 105.5t-23 118q-51 245 -51 353q0 28 26 73.5t68 111.5q7 -6 15 -13q25 -23 47 -51t40 -61.5t31 -68t20 -70t7 -69.5q0 -33 -7.5 -62.5
t-24.5 -54.5q-11 -26 -16 -37t-6 -11v1q0 3 2.5 14t6.5 26q5 19 5 45q0 22 -3 46.5t-9.5 50.5t-16 50.5t-21.5 45.5t-27.5 37t-33.5 24q3 -32 10 -70q6 -39 16 -88t23 -117q24 -126 35 -217t11 -154q0 -97 -27 -199q-7 -17 -11 -31z" />
    <glyph glyph-name="uniFE90" unicode="&#x628;" horiz-adv-x="2308" arabic-form="final" 
d="M1227 -198l-111 -167l-172 108l100 168zM2143 383q30 -15 66 -22q47 -11 99 -11h30v-200h-70q-140 0 -227 73q-16 -17 -35 -32q-29 -18 -67 -28q-226 -46 -335 -60.5t-228 -22.5t-241 -8q-140 0 -278.5 12t-264.5 38t-234 68t-187.5 102.5t-125 141t-45.5 183.5
q0 57 15.5 122t48.5 138l31 -8q-18 -42 -26.5 -79.5t-8.5 -72.5q0 -82 44 -146.5t121.5 -112.5t183 -81.5t228.5 -54t258.5 -30t271.5 -9.5q154 0 303 10.5t277 28.5q66 9 172.5 28.5t119.5 24.5q19 6 25 16q7 42 0.5 66.5t-17 50t-25 48t-43.5 53.5q-70 91 -79 151
q-1 52 28.5 78.5t78.5 65.5l11 -5q-1 -12 -1.5 -22t0.5 -19q2 -18 7.5 -34.5t15.5 -36t24.5 -44t33.5 -58.5q35 -63 53 -109t20 -79q5 -51 -24 -107q-2 -4 -4 -7z" />
    <glyph glyph-name="uniFE91" unicode="&#x628;" horiz-adv-x="458" arabic-form="initial" 
d="M336 -216l-100 -170l-183 111l100 161zM302 279q-23 -46 -58 -74.5t-85 -41.5t-119 -13h-70v200h30q55 0 105.5 2.5t89.5 8t64 14.5q19 6 25 16q7 42 0.5 66.5t-17 50t-25 48t-43.5 53.5q-70 91 -79 151q-1 52 28.5 78.5t78.5 65.5l11 -5q-1 -12 -1.5 -22t0.5 -19
q2 -18 7.5 -34.5t15.5 -36t24.5 -44t33.5 -58.5q35 -63 53 -109t20 -79q5 -51 -24 -107q-22 -43 -65 -111z" />
    <glyph glyph-name="uniFE92" unicode="&#x628;" horiz-adv-x="640" arabic-form="medial" 
d="M336 -216l-100 -170l-183 111l100 161zM399 447q21 -33 57.5 -54.5t84 -32t99.5 -10.5h30v-200h-70q-197 0 -288 145l-10 -16q-23 -46 -58 -74.5t-85 -41.5t-119 -13h-70v200h30q56 0 98 3.5t74.5 14.5t58.5 30.5t54 56.5q-7 27 -17.5 52.5t-25 48t-43.5 53.5
q-70 91 -79 151q-1 52 28.5 78.5t78.5 65.5l11 -5q-1 -12 -1.5 -22t0.5 -19q2 -18 7.5 -34.5t15.5 -36t24.5 -44t33.5 -58.5q35 -63 53 -109t20 -79q3 -40 8 -50z" />
    <glyph glyph-name="uniFE94" unicode="&#x629;" horiz-adv-x="800" arabic-form="final" 
d="M557 1056l-108 -156l-181 99l105 163zM281 1056l-103 -156l-178 99l105 163zM276 787q19 16 37 16q28 0 53 -33.5t52.5 -84t60 -109t76 -109t100 -84t131.5 -33.5h30v-200h-70q-75 0 -130 28t-96 70.5t-70.5 91.5t-52.5 91.5t-42 70.5t-39 28q-15 0 -31 -17q-4 -4 -8 -10
q3 -13 6 -28q10 -44 23 -104q24 -112 35 -193t11 -137q0 -86 -27.5 -177.5t-73.5 -192.5l-18 8q12 62 18.5 118t6.5 112q0 41 -3.5 83t-10 87t-16.5 94t-23 105q-51 217 -51 313q0 25 26 66q23 35 59 86q4 7 9 13q15 20 28 31z" />
    <glyph glyph-name="uniFE96" unicode="&#x62a;" horiz-adv-x="2308" arabic-form="final" 
d="M1431 1079l-106 -165l-187 108l107 161zM1151 1079l-93 -165l-189 108l105 161zM2143 383q30 -15 66 -22q47 -11 99 -11h30v-200h-70q-140 0 -227 73q-16 -17 -35 -32q-29 -18 -67 -28q-226 -46 -335 -60.5t-228 -22.5t-241 -8q-140 0 -278.5 12t-264.5 38t-234 68
t-187.5 102.5t-125 141t-45.5 183.5q0 57 15.5 122t48.5 138l31 -8q-18 -42 -26.5 -79.5t-8.5 -72.5q0 -82 44 -146.5t121.5 -112.5t183 -81.5t228.5 -54t258.5 -30t271.5 -9.5q154 0 303 10.5t277 28.5q66 9 172.5 28.5t119.5 24.5q19 6 25 16q7 42 0.5 66.5t-17 50t-25 48
t-43.5 53.5q-70 91 -79 151q-1 52 28.5 78.5t78.5 65.5l11 -5q-1 -12 -1.5 -22t0.5 -19q2 -18 7.5 -34.5t15.5 -36t24.5 -44t33.5 -58.5q35 -63 53 -109t20 -79q5 -51 -24 -107q-2 -4 -4 -7z" />
    <glyph glyph-name="uniFE97" unicode="&#x62a;" horiz-adv-x="458" arabic-form="initial" 
d="M403 1276l-101 -164l-188 114l110 160zM133 1276l-105 -164l-179 114l102 160zM302 279q-23 -46 -58 -74.5t-85 -41.5t-119 -13h-70v200h30q55 0 105.5 2.5t89.5 8t64 14.5q19 6 25 16q7 42 0.5 66.5t-17 50t-25 48t-43.5 53.5q-70 91 -79 151q-1 52 28.5 78.5t78.5 65.5
l11 -5q-1 -12 -1.5 -22t0.5 -19q2 -18 7.5 -34.5t15.5 -36t24.5 -44t33.5 -58.5q35 -63 53 -109t20 -79q5 -51 -24 -107q-22 -43 -65 -111z" />
    <glyph glyph-name="uniFE98" unicode="&#x62a;" horiz-adv-x="640" arabic-form="medial" 
d="M403 1126l-101 -164l-188 114l110 160zM133 1126l-105 -164l-179 114l102 160zM399 447q21 -33 57.5 -54.5t84 -32t99.5 -10.5h30v-200h-70q-197 0 -288 145l-10 -16q-23 -46 -58 -74.5t-85 -41.5t-119 -13h-70v200h30q56 0 98 3.5t74.5 14.5t58.5 30.5t54 56.5
q-7 27 -17.5 52.5t-25 48t-43.5 53.5q-70 91 -79 151q-1 52 28.5 78.5t78.5 65.5l11 -5q-1 -12 -1.5 -22t0.5 -19q2 -18 7.5 -34.5t15.5 -36t24.5 -44t33.5 -58.5q35 -63 53 -109t20 -79q3 -40 8 -50z" />
    <glyph glyph-name="uniFE9A" unicode="&#x62b;" horiz-adv-x="2308" arabic-form="final" 
d="M1431 1079l-106 -165l-187 108l107 161zM1151 1079l-93 -165l-189 108l105 161zM2143 383q30 -15 66 -22q47 -11 99 -11h30v-200h-70q-140 0 -227 73q-16 -17 -35 -32q-29 -18 -67 -28q-226 -46 -335 -60.5t-228 -22.5t-241 -8q-140 0 -278.5 12t-264.5 38t-234 68
t-187.5 102.5t-125 141t-45.5 183.5q0 57 15.5 122t48.5 138l31 -8q-18 -42 -26.5 -79.5t-8.5 -72.5q0 -82 44 -146.5t121.5 -112.5t183 -81.5t228.5 -54t258.5 -30t271.5 -9.5q154 0 303 10.5t277 28.5q66 9 172.5 28.5t119.5 24.5q19 6 25 16q7 42 0.5 66.5t-17 50t-25 48
t-43.5 53.5q-70 91 -79 151q-1 52 28.5 78.5t78.5 65.5l11 -5q-1 -12 -1.5 -22t0.5 -19q2 -18 7.5 -34.5t15.5 -36t24.5 -44t33.5 -58.5q35 -63 53 -109t20 -79q5 -51 -24 -107q-2 -4 -4 -7zM1239 1345l-100 -158l-188 109l105 153z" />
    <glyph glyph-name="uniFE9B" unicode="&#x62b;" horiz-adv-x="458" arabic-form="initial" 
d="M423 1236l-100 -165l-188 112l109 160zM152 1236l-102 -165l-180 112l101 160zM238 1501l-100 -158l-188 109l105 153zM302 279q-23 -46 -58 -74.5t-85 -41.5t-119 -13h-70v200h30q55 0 105.5 2.5t89.5 8t64 14.5q19 6 25 16q7 42 0.5 66.5t-17 50t-25 48t-43.5 53.5
q-70 91 -79 151q-1 52 28.5 78.5t78.5 65.5l11 -5q-1 -12 -1.5 -22t0.5 -19q2 -18 7.5 -34.5t15.5 -36t24.5 -44t33.5 -58.5q35 -63 53 -109t20 -79q5 -51 -24 -107q-22 -43 -65 -111z" />
    <glyph glyph-name="uniFE9C" unicode="&#x62b;" horiz-adv-x="640" arabic-form="medial" 
d="M453 1131l-100 -165l-188 112l109 160zM182 1131l-102 -165l-180 112l101 160zM268 1396l-100 -158l-188 109l105 153zM399 447q21 -33 57.5 -54.5t84 -32t99.5 -10.5h30v-200h-70q-197 0 -288 145l-10 -16q-23 -46 -58 -74.5t-85 -41.5t-119 -13h-70v200h30q56 0 98 3.5
t74.5 14.5t58.5 30.5t54 56.5q-7 27 -17.5 52.5t-25 48t-43.5 53.5q-70 91 -79 151q-1 52 28.5 78.5t78.5 65.5l11 -5q-1 -12 -1.5 -22t0.5 -19q2 -18 7.5 -34.5t15.5 -36t24.5 -44t33.5 -58.5q35 -63 53 -109t20 -79q3 -40 8 -50z" />
    <glyph glyph-name="uniFE9E" unicode="&#x62c;" horiz-adv-x="1310" arabic-form="final" 
d="M931 -191l-101 -168l-181 109l101 163zM1513 -751l-1 -38q-49 -23 -109 -52t-126 -59t-134.5 -59t-133.5 -51.5t-125 -36t-108 -13.5q-165 0 -307 37.5t-246 117.5t-163.5 204.5t-59.5 298.5q0 156 40.5 292t119 250t193.5 206t264 159q-32 9 -68.5 19t-75 18.5t-78 14
t-77.5 5.5t-74 -6.5t-68 -22.5t-59 -43t-47 -67l-21 6q31 94 68.5 155.5t81.5 97.5t95 50.5t110 14.5q66 0 141.5 -13t162.5 -28.5t185 -28.5t208 -13q39 0 78.5 1.5t81.5 6.5l-92 -180q-14 1 -27 1.5t-27 0.5q-38 0 -76.5 -3t-78.5 -8q5 -36 26.5 -61t63.5 -41t106 -23.5
t154 -7.5h30v-200h-70q-110 0 -183.5 14.5t-118 44t-63 73.5t-18.5 103q0 20 1.5 42t5.5 45q-104 -20 -205.5 -58t-193.5 -91.5t-171 -122t-136.5 -150t-90 -175.5t-32.5 -198q0 -98 35 -173.5t96.5 -132t144.5 -95t179 -62t201 -34t209 -10.5q86 0 169.5 6t159 17t140.5 25
t114 31z" />
    <glyph glyph-name="uniFE9F" unicode="&#x62c;" horiz-adv-x="1520" arabic-form="initial" 
d="M917 -75l-102 -170l-182 112l100 153zM1470 620l-95 -183q-124 25 -223 25q-106 0 -189 -23t-157.5 -58t-148 -75t-161.5 -75t-198.5 -58t-257.5 -23h-70v200h30q126 4 239.5 17t215.5 39.5t195 68.5t179 104q-19 10 -62 27t-100.5 33t-125.5 27.5t-137 11.5
q-63 0 -123.5 -12t-112.5 -42t-92 -80.5t-62 -127.5l-21 9q29 125 68.5 209t89.5 134.5t111 71.5t132 21q66 0 141 -15t157.5 -38.5t172.5 -52t187.5 -55.5t202 -48.5t215.5 -31.5z" />
    <glyph glyph-name="uniFEA0" unicode="&#x62c;" horiz-adv-x="1525" arabic-form="medial" 
d="M1470 620l-95 -183q-58 11 -110.5 17.5t-100.5 7.5q6 -28 24 -49t58.5 -35t107.5 -21t171 -7h30v-200h-70q-139 0 -220.5 24t-124 66t-55 98t-12.5 120q-90 -9 -163.5 -35.5t-142.5 -60.5t-139.5 -71.5t-155 -68.5t-189.5 -51.5t-243 -20.5h-70v200h30q126 4 239.5 17
t215.5 39.5t195 68.5t179 104q-19 10 -62 27t-100.5 33t-125.5 27.5t-137 11.5q-63 0 -123.5 -12t-112.5 -42t-92 -80.5t-62 -127.5l-21 9q29 125 68.5 209t89.5 134.5t111 71.5t132 21q66 0 141 -15t157.5 -38.5t172.5 -52t187.5 -55.5t202 -48.5t215.5 -31.5zM920 -75
l-101 -170l-183 112l99 153z" />
    <glyph glyph-name="uniFEA2" unicode="&#x62d;" horiz-adv-x="1310" arabic-form="final" 
d="M1513 -751l-1 -38q-49 -23 -109 -52t-126 -59t-134.5 -59t-133.5 -51.5t-125 -36t-108 -13.5q-165 0 -307 37.5t-246 117.5t-163.5 204.5t-59.5 298.5q0 156 40.5 292t119 250t193.5 206t264 159q-32 9 -68.5 19t-75 18.5t-78 14t-77.5 5.5t-74 -6.5t-68 -22.5t-59 -43
t-47 -67l-21 6q31 94 68.5 155.5t81.5 97.5t95 50.5t110 14.5q66 0 141.5 -13t162.5 -28.5t185 -28.5t208 -13q39 0 78.5 1.5t81.5 6.5l-92 -180q-14 1 -27 1.5t-27 0.5q-38 0 -76.5 -3t-78.5 -8q5 -36 26.5 -61t63.5 -41t106 -23.5t154 -7.5h30v-200h-70
q-110 0 -183.5 14.5t-118 44t-63 73.5t-18.5 103q0 20 1.5 42t5.5 45q-104 -20 -205.5 -58t-193.5 -91.5t-171 -122t-136.5 -150t-90 -175.5t-32.5 -198q0 -98 35 -173.5t96.5 -132t144.5 -95t179 -62t201 -34t209 -10.5q86 0 169.5 6t159 17t140.5 25t114 31z" />
    <glyph glyph-name="uniFEA3" unicode="&#x62d;" horiz-adv-x="1520" arabic-form="initial" 
d="M1470 620l-95 -183q-124 25 -223 25q-106 0 -189 -23t-157.5 -58t-148 -75t-161.5 -75t-198.5 -58t-257.5 -23h-70v200h30q126 4 239.5 17t215.5 39.5t195 68.5t179 104q-19 10 -62 27t-100.5 33t-125.5 27.5t-137 11.5q-63 0 -123.5 -12t-112.5 -42t-92 -80.5
t-62 -127.5l-21 9q29 125 68.5 209t89.5 134.5t111 71.5t132 21q66 0 141 -15t157.5 -38.5t172.5 -52t187.5 -55.5t202 -48.5t215.5 -31.5z" />
    <glyph glyph-name="uniFEA4" unicode="&#x62d;" horiz-adv-x="1525" arabic-form="medial" 
d="M1470 620l-95 -183q-58 11 -110.5 17.5t-100.5 7.5q6 -28 24 -49t58.5 -35t107.5 -21t171 -7h30v-200h-70q-139 0 -220.5 24t-124 66t-55 98t-12.5 120q-90 -9 -163.5 -35.5t-142.5 -60.5t-139.5 -71.5t-155 -68.5t-189.5 -51.5t-243 -20.5h-70v200h30q126 4 239.5 17
t215.5 39.5t195 68.5t179 104q-19 10 -62 27t-100.5 33t-125.5 27.5t-137 11.5q-63 0 -123.5 -12t-112.5 -42t-92 -80.5t-62 -127.5l-21 9q29 125 68.5 209t89.5 134.5t111 71.5t132 21q66 0 141 -15t157.5 -38.5t172.5 -52t187.5 -55.5t202 -48.5t215.5 -31.5z" />
    <glyph glyph-name="uniFEA6" unicode="&#x62e;" horiz-adv-x="1310" arabic-form="final" 
d="M827 1118l-103 -172l-181 114l106 161zM1513 -751l-1 -38q-49 -23 -109 -52t-126 -59t-134.5 -59t-133.5 -51.5t-125 -36t-108 -13.5q-165 0 -307 37.5t-246 117.5t-163.5 204.5t-59.5 298.5q0 156 40.5 292t119 250t193.5 206t264 159q-32 9 -68.5 19t-75 18.5t-78 14
t-77.5 5.5t-74 -6.5t-68 -22.5t-59 -43t-47 -67l-21 6q31 94 68.5 155.5t81.5 97.5t95 50.5t110 14.5q66 0 141.5 -13t162.5 -28.5t185 -28.5t208 -13q39 0 78.5 1.5t81.5 6.5l-92 -180q-14 1 -27 1.5t-27 0.5q-38 0 -76.5 -3t-78.5 -8q5 -36 26.5 -61t63.5 -41t106 -23.5
t154 -7.5h30v-200h-70q-110 0 -183.5 14.5t-118 44t-63 73.5t-18.5 103q0 20 1.5 42t5.5 45q-104 -20 -205.5 -58t-193.5 -91.5t-171 -122t-136.5 -150t-90 -175.5t-32.5 -198q0 -98 35 -173.5t96.5 -132t144.5 -95t179 -62t201 -34t209 -10.5q86 0 169.5 6t159 17t140.5 25
t114 31z" />
    <glyph glyph-name="uniFEA7" unicode="&#x62e;" horiz-adv-x="1520" arabic-form="initial" 
d="M675 1396l-102 -164l-186 106l108 161zM1470 620l-95 -183q-124 25 -223 25q-106 0 -189 -23t-157.5 -58t-148 -75t-161.5 -75t-198.5 -58t-257.5 -23h-70v200h30q126 4 239.5 17t215.5 39.5t195 68.5t179 104q-19 10 -62 27t-100.5 33t-125.5 27.5t-137 11.5
q-63 0 -123.5 -12t-112.5 -42t-92 -80.5t-62 -127.5l-21 9q29 125 68.5 209t89.5 134.5t111 71.5t132 21q66 0 141 -15t157.5 -38.5t172.5 -52t187.5 -55.5t202 -48.5t215.5 -31.5z" />
    <glyph glyph-name="uniFEA8" unicode="&#x62e;" horiz-adv-x="1525" arabic-form="medial" 
d="M1470 620l-95 -183q-58 11 -110.5 17.5t-100.5 7.5q6 -28 24 -49t58.5 -35t107.5 -21t171 -7h30v-200h-70q-139 0 -220.5 24t-124 66t-55 98t-12.5 120q-90 -9 -163.5 -35.5t-142.5 -60.5t-139.5 -71.5t-155 -68.5t-189.5 -51.5t-243 -20.5h-70v200h30q126 4 239.5 17
t215.5 39.5t195 68.5t179 104q-19 10 -62 27t-100.5 33t-125.5 27.5t-137 11.5q-63 0 -123.5 -12t-112.5 -42t-92 -80.5t-62 -127.5l-21 9q29 125 68.5 209t89.5 134.5t111 71.5t132 21q66 0 141 -15t157.5 -38.5t172.5 -52t187.5 -55.5t202 -48.5t215.5 -31.5zM675 1396
l-102 -164l-186 106l108 161z" />
    <glyph glyph-name="uniFEAA" unicode="&#x62f;" horiz-adv-x="975" arabic-form="final" 
d="M814.5 372q86.5 -22 146.5 -22h30v-200h-30q-128 0 -213 68q-26 20 -49 46q-2 -3 -3 -6q-29 -52 -79 -79.5t-119 -36t-150 -8.5q-69 0 -132 4.5t-111 25t-76.5 63.5t-28.5 119q0 74 40 178l15 -2q-4 -14 -6 -28.5t-2 -36.5q0 -10 0.5 -21t1.5 -25q23 -24 60 -41.5
t82.5 -28.5t97 -16.5t103.5 -5.5q64 0 124 7.5t108 22.5q-10 41 -27.5 88.5t-41 94t-53.5 89.5t-65.5 76.5t-76 53t-86.5 19.5q-36 0 -72 -13q-8 30 -8 58q0 68 43 129q29 12 67 12q280 0 388 -424q36 -138 122.5 -160z" />
    <glyph glyph-name="uniFEAC" unicode="&#x630;" horiz-adv-x="975" arabic-form="final" 
d="M383 1237l-97 -165l-186 111l104 152zM814.5 372q86.5 -22 146.5 -22h30v-200h-30q-128 0 -213 68q-26 20 -49 46q-2 -3 -3 -6q-29 -52 -79 -79.5t-119 -36t-150 -8.5q-69 0 -132 4.5t-111 25t-76.5 63.5t-28.5 119q0 74 40 178l15 -2q-4 -14 -6 -28.5t-2 -36.5
q0 -10 0.5 -21t1.5 -25q23 -24 60 -41.5t82.5 -28.5t97 -16.5t103.5 -5.5q64 0 124 7.5t108 22.5q-10 41 -27.5 88.5t-41 94t-53.5 89.5t-65.5 76.5t-76 53t-86.5 19.5q-36 0 -72 -13q-8 30 -8 58q0 68 43 129q29 12 67 12q280 0 388 -424q36 -138 122.5 -160z" />
    <glyph glyph-name="uniFEAE" unicode="&#x631;" horiz-adv-x="820" arabic-form="final" 
d="M661 357q62 -7 147 -7h42v-200h-98q-60 0 -102 4l-72 1q-28 -48 -61 -93q-81 -106 -195 -190.5t-254 -143.5q-123 30 -468 249l6 15q211 -104 343 -104q47 0 112.5 25.5t136.5 69t141 100.5t126 119.5t90.5 127t34.5 122.5q0 31 -10.5 62.5t-32.5 67.5t-56.5 78.5
t-82.5 96.5l78 243q199 -168 199 -445q0 -103 -24 -198z" />
    <glyph glyph-name="uniFEB0" unicode="&#x632;" horiz-adv-x="820" arabic-form="final" 
d="M284 1212l-105 -162l-176 112l106 160zM661 357q62 -7 147 -7h42v-200h-98q-60 0 -102 4l-72 1q-28 -48 -61 -93q-81 -106 -195 -190.5t-254 -143.5q-123 30 -468 249l6 15q211 -104 343 -104q47 0 112.5 25.5t136.5 69t141 100.5t126 119.5t90.5 127t34.5 122.5
q0 31 -10.5 62.5t-32.5 67.5t-56.5 78.5t-82.5 96.5l78 243q199 -168 199 -445q0 -103 -24 -198z" />
    <glyph glyph-name="uniFEB2" unicode="&#x633;" horiz-adv-x="2153" arabic-form="final" 
d="M135 547q-121 -372 -121 -413q0 -81 36 -135t94 -86.5t130.5 -46t145.5 -13.5q33 0 79.5 7t96 21t98.5 34.5t88 47.5t63 60t24 71q0 98 -146 382q0 55 16.5 95.5t49.5 82.5q29 -83 59 -140t63.5 -94t72 -56.5t84.5 -29t101 -11t121 -1.5q298 0 392 115q15 48 34.5 112
t44.5 146l28 -13q-17 -72 -34 -148.5t-34 -158.5q24 -51 43.5 -82t29.5 -31q24 0 132 397l27 -11l-48 -213q8 -21 30.5 -37t55.5 -26.5t74.5 -16t87.5 -5.5h30v-200h-70q-47 0 -82 9t-63.5 27.5t-52 47t-47.5 67.5l-70 -295q-35 19 -142 240q-94 -96 -414 -96
q-210 0 -313 58q0 -204 -42 -284q-55 -116 -225 -193q-147 -62 -301 -62q-76 0 -150 19t-132 58.5t-93.5 99.5t-35.5 143q0 143 154 569l-6 1l46 92q19 -27 35 -56q20 -41 32 -81t12 -72q0 -49 -6 -84.5t-13 -57.5l-9 1v15q0 120 -60 231z" />
    <glyph glyph-name="uniFEB3" unicode="&#x633;" horiz-adv-x="1568" arabic-form="initial" 
d="M1338 179q-88 0 -251 127q-13 -17 -46.5 -32t-77.5 -26.5t-94.5 -20.5t-98 -14.5t-88 -8.5t-65.5 -3q-56 0 -56 45q0 10 1 15q-24 -14 -64 -28t-88 -26t-100.5 -22.5t-102.5 -18t-93.5 -12t-73.5 -4.5h-70v200h30q235 0 391.5 30t247.5 91q32 23 57 59.5t46 79t38 86
t33 79.5l24 -13l-120 -347l10 -10q79 0 137 3t99 9.5t67 16t41 22.5q63 54 126 297l28 -10q-14 -52 -31 -128.5t-37 -179.5q11 -16 30.5 -32t43.5 -29.5t50 -22t50 -8.5q13 0 25 3q18 45 18 79q0 18 -3.5 37.5t-10 42t-15 49.5t-17.5 62q69 129 118 163q2 -18 5.5 -44t7 -56
t6 -64t2.5 -69q0 -52 -8.5 -102t-31.5 -90q-21 -54 -43.5 -97.5t-45.5 -77.5z" />
    <glyph glyph-name="uniFEB4" unicode="&#x633;" horiz-adv-x="1350" arabic-form="medial" 
d="M1380 150h-70q-88 0 -147 36.5t-97 114.5l-71 -295q-32 19 -139 240q-24 -24 -68.5 -41.5t-105.5 -29.5t-136 -17.5t-161 -5.5q-13 0 -19.5 1t-12.5 6t-14 14.5t-23 27.5q-49 -29 -115.5 -40t-160.5 -11h-70v200h30q149 0 237.5 9.5t131.5 29.5q98 58 217 324l21 -9
q-125 -336 -123 -344l12 -8q83 0 146.5 5.5t111.5 16t82 26.5t57 37l76 258l20 -13q-13 -72 -30 -148.5t-39 -158.5q15 -24 38.5 -56t55.5 -72q11 7 115 412l26 -11l-49 -213q11 -43 69 -64t175 -21h30v-200z" />
    <glyph glyph-name="uniFEB6" unicode="&#x634;" horiz-adv-x="2153" arabic-form="final" 
d="M1686 1007l-100 -165l-188 112l109 160zM1415 1007l-102 -165l-180 112l101 160zM1501 1272l-100 -158l-188 109l105 153zM135 547q-121 -372 -121 -413q0 -81 36 -135t94 -86.5t130.5 -46t145.5 -13.5q33 0 79.5 7t96 21t98.5 34.5t88 47.5t63 60t24 71q0 98 -146 382
q0 55 16.5 95.5t49.5 82.5q29 -83 59 -140t63.5 -94t72 -56.5t84.5 -29t101 -11t121 -1.5q298 0 392 115q15 48 34.5 112t44.5 146l28 -13q-17 -72 -34 -148.5t-34 -158.5q24 -51 43.5 -82t29.5 -31q24 0 132 397l27 -11l-48 -213q8 -21 30.5 -37t55.5 -26.5t74.5 -16
t87.5 -5.5h30v-200h-70q-47 0 -82 9t-63.5 27.5t-52 47t-47.5 67.5l-70 -295q-35 19 -142 240q-94 -96 -414 -96q-210 0 -313 58q0 -204 -42 -284q-55 -116 -225 -193q-147 -62 -301 -62q-76 0 -150 19t-132 58.5t-93.5 99.5t-35.5 143q0 143 154 569l-6 1l46 92
q19 -27 35 -56q20 -41 32 -81t12 -72q0 -49 -6 -84.5t-13 -57.5l-9 1v15q0 120 -60 231z" />
    <glyph glyph-name="uniFEB7" unicode="&#x634;" horiz-adv-x="1568" arabic-form="initial" 
d="M1338 179q-88 0 -251 127q-13 -17 -46.5 -32t-77.5 -26.5t-94.5 -20.5t-98 -14.5t-88 -8.5t-65.5 -3q-56 0 -56 45q0 10 1 15q-24 -14 -64 -28t-88 -26t-100.5 -22.5t-102.5 -18t-93.5 -12t-73.5 -4.5h-70v200h30q235 0 391.5 30t247.5 91q32 23 57 59.5t46 79t38 86
t33 79.5l24 -13l-120 -347l10 -10q79 0 137 3t99 9.5t67 16t41 22.5q63 54 126 297l28 -10q-14 -52 -31 -128.5t-37 -179.5q11 -16 30.5 -32t43.5 -29.5t50 -22t50 -8.5q13 0 25 3q18 45 18 79q0 18 -3.5 37.5t-10 42t-15 49.5t-17.5 62q69 129 118 163q2 -18 5.5 -44t7 -56
t6 -64t2.5 -69q0 -52 -8.5 -102t-31.5 -90q-21 -54 -43.5 -97.5t-45.5 -77.5zM1332 1086l-100 -165l-188 112l109 160zM1061 1086l-102 -165l-180 112l101 160zM1147 1351l-100 -158l-188 109l105 153z" />
    <glyph glyph-name="uniFEB8" unicode="&#x634;" horiz-adv-x="1350" arabic-form="medial" 
d="M1380 150h-70q-88 0 -147 36.5t-97 114.5l-71 -295q-32 19 -139 240q-24 -24 -68.5 -41.5t-105.5 -29.5t-136 -17.5t-161 -5.5q-13 0 -19.5 1t-12.5 6t-14 14.5t-23 27.5q-49 -29 -115.5 -40t-160.5 -11h-70v200h30q149 0 237.5 9.5t131.5 29.5q98 58 217 324l21 -9
q-125 -336 -123 -344l12 -8q83 0 146.5 5.5t111.5 16t82 26.5t57 37l76 258l20 -13q-13 -72 -30 -148.5t-39 -158.5q15 -24 38.5 -56t55.5 -72q11 7 115 412l26 -11l-49 -213q11 -43 69 -64t175 -21h30v-200zM1155 1007l-100 -165l-188 112l109 160zM884 1007l-102 -165
l-180 112l101 160zM970 1272l-100 -158l-188 109l105 153z" />
    <glyph glyph-name="uniFEBA" unicode="&#x635;" horiz-adv-x="2200" arabic-form="final" 
d="M2006 499q0 36 -25 70.5t-61.5 61.5t-78 43.5t-73.5 16.5q-29 0 -69.5 -19t-86 -49t-94 -67t-94.5 -73t-87 -67t-71 -49q21 -3 49.5 -4.5t61.5 -1.5q58 0 127 4.5t139 13.5t135.5 21t116 27.5t81 33.5t30.5 38zM1985 343q14 0 29 1q55 2 101 3.5t71 2.5h54v-200h-663l2 2
q-52 -6 -112 -11q-75 -6 -150 -6q-68 0 -131 6q-4 -20 -20 -70.5t-45 -132.5l-22 -5q5 37 14.5 89.5t23.5 121.5h-26q-117 0 -179 51q0 -183 -61 -306q-31 -50 -86.5 -91t-124.5 -70t-147.5 -44.5t-155.5 -15.5q-80 0 -153.5 18t-130 57t-90 99.5t-33.5 146.5q0 139 147 548
q2 6 7 18q2 8 5 15h1l41 81q19 -27 35 -56q20 -41 32 -81t12 -72q0 -49 -6 -84.5t-13 -57.5l-9 1v15q0 122 -62 235l-14 -38q-114 -315 -114 -383q0 -73 36 -125.5t95.5 -87t135.5 -51t156 -16.5q81 0 159 16.5t139 47.5t98.5 76t37.5 102q0 110 -147 384v5q0 17 6 43
t16 52.5t21.5 48.5t23.5 29q37 -61 66 -120.5t52 -117.5q87 -48 287 -48q48 45 131 110.5t207 156.5q143 105 232 156t124 51q41 0 83 -18t76 -48t55.5 -69.5t21.5 -82.5q0 -65 -34.5 -133t-86.5 -128z" />
    <glyph glyph-name="uniFEBB" unicode="&#x635;" horiz-adv-x="2057" arabic-form="initial" 
d="M1957 729q0 -50 -40 -133q-55 -116 -129.5 -193.5t-176 -124.5t-234 -67.5t-303.5 -23.5q-6 -32 -18 -84t-31 -125l-23 -6q0 16 21 213h-29q-71 0 -168 3t-225 11q-42 6 -42 42q0 10 3 20q-97 -57 -230 -84t-292 -27h-70v200h30q227 0 386.5 30t252.5 91q32 23 57 59.5
t46 79t38 86t33 79.5l24 -13l-120 -346l15 -14q11 -1 29.5 -2t42.5 -2.5t51.5 -2.5t56.5 -1q38 0 76 2.5t69 8.5q4 5 11.5 13t26.5 26.5t55 52t97 88.5t151.5 136.5t219.5 196.5q39 27 90 27q43 0 87.5 -17.5t80.5 -47.5t58.5 -69t22.5 -82zM1856 614q0 36 -29 67
t-70.5 53.5t-86.5 35.5t-77 13q-27 0 -65 -21t-81.5 -54.5t-90 -75.5t-89.5 -83.5t-81 -78t-64 -59.5q36 -6 79 -6q64 0 137.5 11.5t146 30t140 41.5t119 46t82 44.5t30.5 35.5z" />
    <glyph glyph-name="uniFEBC" unicode="&#x635;" horiz-adv-x="1870" arabic-form="medial" 
d="M1900 150h-1463q-36 0 -52.5 8.5t-16.5 26.5q0 10 3 20q-30 -14 -57.5 -24.5t-60.5 -17t-74.5 -10t-99.5 -3.5h-39h-70v200h30q70 0 133 1.5t114.5 5t89.5 9t57 12.5q111 56 232 339l24 -13l-116 -337l7 -13q17 -2 59 -3.5t89 -1.5q29 0 58 0.5t53.5 1.5t42 3t24.5 4
q44 52 104.5 110t127 116.5t133.5 114.5t124 104q51 43 94 64.5t86 21.5q38 0 74.5 -17.5t78.5 -52.5q43 -36 62 -72.5t19 -74.5q0 -41 -22.5 -94t-54.5 -103t-66.5 -89.5t-58.5 -52.5q1 -5 9 -6.5t22 -1.5q23 0 57 4t68 9t63.5 8.5t42.5 3.5l70 -1v-199zM1663 557
q0 33 -26 63.5t-62.5 54t-77 38t-70.5 14.5q-33 0 -73.5 -20.5t-85 -53t-90.5 -73.5t-89.5 -82t-82.5 -77.5t-69 -60.5q10 0 46 2t89 7t117 13t130 19t128 26t110 34.5t77 43t29 52.5z" />
    <glyph glyph-name="uniFEBE" unicode="&#x636;" horiz-adv-x="2210" arabic-form="final" 
d="M1658 1160l-101 -170l-182 116l103 160zM2006 499q0 36 -25 70.5t-61.5 61.5t-78 43.5t-73.5 16.5q-29 0 -69.5 -19t-86 -49t-94 -67t-94.5 -73t-87 -67t-71 -49q21 -3 49.5 -4.5t61.5 -1.5q58 0 127 4.5t139 13.5t135.5 21t116 27.5t81 33.5t30.5 38zM1985 343
q14 0 29 1q55 2 101 3.5t71 2.5h54v-200h-663l2 2q-52 -6 -112 -11q-75 -6 -150 -6q-68 0 -131 6q-4 -20 -20 -70.5t-45 -132.5l-22 -5q5 37 14.5 89.5t23.5 121.5h-26q-117 0 -179 51q0 -183 -61 -306q-31 -50 -86.5 -91t-124.5 -70t-147.5 -44.5t-155.5 -15.5
q-80 0 -153.5 18t-130 57t-90 99.5t-33.5 146.5q0 139 147 548q2 6 7 18q2 8 5 15h1l41 81q19 -27 35 -56q20 -41 32 -81t12 -72q0 -49 -6 -84.5t-13 -57.5l-9 1v15q0 122 -62 235l-14 -38q-114 -315 -114 -383q0 -73 36 -125.5t95.5 -87t135.5 -51t156 -16.5q81 0 159 16.5
t139 47.5t98.5 76t37.5 102q0 110 -147 384v5q0 17 6 43t16 52.5t21.5 48.5t23.5 29q37 -61 66 -120.5t52 -117.5q87 -48 287 -48q48 45 131 110.5t207 156.5q143 105 232 156t124 51q41 0 83 -18t76 -48t55.5 -69.5t21.5 -82.5q0 -65 -34.5 -133t-86.5 -128z" />
    <glyph glyph-name="uniFEBF" unicode="&#x636;" horiz-adv-x="2057" arabic-form="initial" 
d="M1957 729q0 -50 -40 -133q-55 -116 -129.5 -193.5t-176 -124.5t-234 -67.5t-303.5 -23.5q-6 -32 -18 -84t-31 -125l-23 -6q0 16 21 213h-29q-71 0 -168 3t-225 11q-42 6 -42 42q0 10 3 20q-97 -57 -230 -84t-292 -27h-70v200h30q227 0 386.5 30t252.5 91q32 23 57 59.5
t46 79t38 86t33 79.5l24 -13l-120 -346l15 -14q11 -1 29.5 -2t42.5 -2.5t51.5 -2.5t56.5 -1q38 0 76 2.5t69 8.5q4 5 11.5 13t26.5 26.5t55 52t97 88.5t151.5 136.5t219.5 196.5q39 27 90 27q43 0 87.5 -17.5t80.5 -47.5t58.5 -69t22.5 -82zM1856 614q0 36 -29 67
t-70.5 53.5t-86.5 35.5t-77 13q-27 0 -65 -21t-81.5 -54.5t-90 -75.5t-89.5 -83.5t-81 -78t-64 -59.5q36 -6 79 -6q64 0 137.5 11.5t146 30t140 41.5t119 46t82 44.5t30.5 35.5zM1549 1245l-101 -170l-182 116l103 160z" />
    <glyph glyph-name="uniFEC0" unicode="&#x636;" horiz-adv-x="1870" arabic-form="medial" 
d="M1468 1245l-101 -170l-182 116l103 160zM1900 150h-1463q-36 0 -52.5 8.5t-16.5 26.5q0 10 3 20q-30 -14 -57.5 -24.5t-60.5 -17t-74.5 -10t-99.5 -3.5h-39h-70v200h30q70 0 133 1.5t114.5 5t89.5 9t57 12.5q111 56 232 339l24 -13l-116 -337l7 -13q17 -2 59 -3.5
t89 -1.5q29 0 58 0.5t53.5 1.5t42 3t24.5 4q44 52 104.5 110t127 116.5t133.5 114.5t124 104q51 43 94 64.5t86 21.5q38 0 74.5 -17.5t78.5 -52.5q43 -36 62 -72.5t19 -74.5q0 -41 -22.5 -94t-54.5 -103t-66.5 -89.5t-58.5 -52.5q1 -5 9 -6.5t22 -1.5q23 0 57 4t68 9
t63.5 8.5t42.5 3.5l70 -1v-199zM1663 557q0 33 -26 63.5t-62.5 54t-77 38t-70.5 14.5q-33 0 -73.5 -20.5t-85 -53t-90.5 -73.5t-89.5 -82t-82.5 -77.5t-69 -60.5q10 0 46 2t89 7t117 13t130 19t128 26t110 34.5t77 43t29 52.5z" />
    <glyph glyph-name="uniFEC2" unicode="&#x637;" horiz-adv-x="1310" arabic-form="final" 
d="M1204 624q0 -39 -51 -140q-26 -84 -74 -145q51 5 99.5 8t91.5 3h70v-200h-70q-150 0 -263 5t-194 14q-99 -27 -210 -27q-79 0 -159.5 14t-158 41t-150 66.5t-135.5 90.5l14 14h264l56 50q1 11 1.5 22.5t0.5 25.5q0 48 -5.5 107t-14 123t-19 128.5t-20 121.5t-16.5 103
t-10 73q-76 52 -106 95t-30 88q0 26 8 53t21.5 58t30.5 65.5t34 75.5l9 -5q-16 -33 -16 -102q0 -38 23.5 -66t58 -48.5t73.5 -35t70 -26.5l-46 -173q-17 5 -26 5q-11 0 -17 -6.5t-7 -24.5q9 -51 19.5 -112.5t19.5 -126t15.5 -128.5t6.5 -119q0 -45 -5 -81t-17 -60
q63 46 132.5 100.5t141 107.5t143 100.5t137.5 79.5q26 12 55 12q40 0 80 -20t72.5 -52t52.5 -72t20 -80zM1086 502q0 35 -26 68.5t-63 60.5t-78 43.5t-71 16.5t-70.5 -19t-86 -49t-93.5 -67t-94 -73t-87.5 -67t-72.5 -49q20 -2 46 -3.5t55 -1.5q59 0 129.5 4.5t141.5 13.5
t138 21.5t118.5 28t82.5 34t31 38.5z" />
    <glyph glyph-name="uniFEC3" unicode="&#x637;" horiz-adv-x="1266" arabic-form="initial" 
d="M1166 624q0 -19 -7.5 -45.5t-20 -56t-28.5 -60t-33.5 -57.5t-34.5 -49t-32 -35q-154 -171 -816 -171q-23 -58 -42.5 -112.5t-36.5 -105.5l-19 -1q4 35 14 89.5t27 129.5h-167v200h240l87 65q1 11 1.5 23t0.5 26q0 48 -5.5 107.5t-14 123.5t-18.5 128.5t-19.5 121.5
t-17.5 103.5t-12 73.5q-74 53 -104 96.5t-30 87.5q0 26 8 53t21.5 57.5t30 65.5t33.5 75l15 -5q-22 -34 -22 -102q0 -38 24 -65.5t59 -48t74 -35.5t70 -27l-48 -173q-13 6 -25 6q-23 0 -26 -32q11 -49 24 -112t24 -129.5t18 -131t7 -118.5q0 -49 -7 -84.5t-24 -51.5
q63 47 132.5 102t141.5 108t143.5 100t138.5 78q13 6 26.5 8.5t27.5 2.5q40 0 80 -20t71.5 -51.5t51 -71.5t19.5 -80zM1056 502q0 23 -12.5 45.5t-33.5 43.5t-47 39t-53.5 32t-53 21.5t-45.5 7.5q-27 0 -67.5 -19.5t-87.5 -50.5t-98 -69t-99 -75.5t-90 -70t-72 -52.5
q4 -2 37 -2q29 0 75 2t102 5.5t118 10t123 15t116 20t96.5 26t66.5 32.5t25 39z" />
    <glyph glyph-name="uniFEC4" unicode="&#x637;" horiz-adv-x="1270" arabic-form="medial" 
d="M1166 624q0 -25 -13.5 -64t-34 -80.5t-45 -80t-46.5 -62.5q54 6 106 9.5t97 3.5h70v-200h-70q-201 0 -335 9t-209 24q-118 -17 -293 -25t-423 -8v200h240l87 65q1 11 1.5 23t0.5 26q0 48 -5.5 107.5t-14 123.5t-18.5 128.5t-19.5 121.5t-17.5 103.5t-12 73.5
q-74 53 -104 96.5t-30 87.5q0 26 8 53t21.5 57.5t30 65.5t33.5 75l15 -5q-22 -34 -22 -102q0 -38 24 -65.5t59 -48t74 -35.5t70 -27l-48 -173q-13 6 -25 6q-23 0 -26 -32q11 -49 24 -112t24 -129.5t18 -131t7 -118.5q0 -49 -7 -84.5t-24 -51.5q63 47 132.5 102t141.5 108
t143.5 100t138.5 78q13 6 26.5 8.5t27.5 2.5q40 0 80 -20t71.5 -51.5t51 -71.5t19.5 -80zM1056 502q0 23 -12.5 45.5t-33.5 43.5t-47 39t-53.5 32t-53 21.5t-45.5 7.5q-27 0 -67.5 -19.5t-87.5 -50.5t-98 -69t-99 -75.5t-90 -70t-72 -52.5q4 -2 37 -2q29 0 75 2t102 5.5
t118 10t123 15t116 20t96.5 26t66.5 32.5t25 39z" />
    <glyph glyph-name="uniFEC6" unicode="&#x638;" horiz-adv-x="1310" arabic-form="final" 
d="M1204 624q0 -39 -51 -140q-26 -84 -74 -145q51 5 99.5 8t91.5 3h70v-200h-70q-150 0 -263 5t-194 14q-99 -27 -210 -27q-79 0 -159.5 14t-158 41t-150 66.5t-135.5 90.5l14 14h264l56 50q1 11 1.5 22.5t0.5 25.5q0 48 -5.5 107t-14 123t-19 128.5t-20 121.5t-16.5 103
t-10 73q-76 52 -106 95t-30 88q0 26 8 53t21.5 58t30.5 65.5t34 75.5l9 -5q-16 -33 -16 -102q0 -38 23.5 -66t58 -48.5t73.5 -35t70 -26.5l-46 -173q-17 5 -26 5q-11 0 -17 -6.5t-7 -24.5q9 -51 19.5 -112.5t19.5 -126t15.5 -128.5t6.5 -119q0 -45 -5 -81t-17 -60
q63 46 132.5 100.5t141 107.5t143 100.5t137.5 79.5q26 12 55 12q40 0 80 -20t72.5 -52t52.5 -72t20 -80zM1086 502q0 35 -26 68.5t-63 60.5t-78 43.5t-71 16.5t-70.5 -19t-86 -49t-93.5 -67t-94 -73t-87.5 -67t-72.5 -49q20 -2 46 -3.5t55 -1.5q59 0 129.5 4.5t141.5 13.5
t138 21.5t118.5 28t82.5 34t31 38.5zM920 1152l-101 -164l-181 107l94 156z" />
    <glyph glyph-name="uniFEC7" unicode="&#x638;" horiz-adv-x="1266" arabic-form="initial" 
d="M884 1152l-103 -164l-179 107l94 156zM1166 624q0 -19 -7.5 -45.5t-20 -56t-28.5 -60t-33.5 -57.5t-34.5 -49t-32 -35q-154 -171 -816 -171q-23 -58 -42.5 -112.5t-36.5 -105.5l-19 -1q4 35 14 89.5t27 129.5h-167v200h240l87 65q1 11 1.5 23t0.5 26q0 48 -5.5 107.5
t-14 123.5t-18.5 128.5t-19.5 121.5t-17.5 103.5t-12 73.5q-74 53 -104 96.5t-30 87.5q0 26 8 53t21.5 57.5t30 65.5t33.5 75l15 -5q-22 -34 -22 -102q0 -38 24 -65.5t59 -48t74 -35.5t70 -27l-48 -173q-13 6 -25 6q-23 0 -26 -32q11 -49 24 -112t24 -129.5t18 -131
t7 -118.5q0 -49 -7 -84.5t-24 -51.5q63 47 132.5 102t141.5 108t143.5 100t138.5 78q13 6 26.5 8.5t27.5 2.5q40 0 80 -20t71.5 -51.5t51 -71.5t19.5 -80zM1056 502q0 23 -12.5 45.5t-33.5 43.5t-47 39t-53.5 32t-53 21.5t-45.5 7.5q-27 0 -67.5 -19.5t-87.5 -50.5t-98 -69
t-99 -75.5t-90 -70t-72 -52.5q4 -2 37 -2q29 0 75 2t102 5.5t118 10t123 15t116 20t96.5 26t66.5 32.5t25 39z" />
    <glyph glyph-name="uniFEC8" unicode="&#x638;" horiz-adv-x="1270" arabic-form="medial" 
d="M1166 624q0 -25 -13.5 -64t-34 -80.5t-45 -80t-46.5 -62.5q54 6 106 9.5t97 3.5h70v-200h-70q-201 0 -335 9t-209 24q-118 -17 -293 -25t-423 -8v200h240l87 65q1 11 1.5 23t0.5 26q0 48 -5.5 107.5t-14 123.5t-18.5 128.5t-19.5 121.5t-17.5 103.5t-12 73.5
q-74 53 -104 96.5t-30 87.5q0 26 8 53t21.5 57.5t30 65.5t33.5 75l15 -5q-22 -34 -22 -102q0 -38 24 -65.5t59 -48t74 -35.5t70 -27l-48 -173q-13 6 -25 6q-23 0 -26 -32q11 -49 24 -112t24 -129.5t18 -131t7 -118.5q0 -49 -7 -84.5t-24 -51.5q63 47 132.5 102t141.5 108
t143.5 100t138.5 78q13 6 26.5 8.5t27.5 2.5q40 0 80 -20t71.5 -51.5t51 -71.5t19.5 -80zM1056 502q0 23 -12.5 45.5t-33.5 43.5t-47 39t-53.5 32t-53 21.5t-45.5 7.5q-27 0 -67.5 -19.5t-87.5 -50.5t-98 -69t-99 -75.5t-90 -70t-72 -52.5q4 -2 37 -2q29 0 75 2t102 5.5
t118 10t123 15t116 20t96.5 26t66.5 32.5t25 39zM811 1071l-104 -169l-178 112l102 162z" />
    <glyph glyph-name="uniFECA" unicode="&#x639;" horiz-adv-x="1030" arabic-form="final" 
d="M85 -323q0 -98 34.5 -173.5t94.5 -132t142 -95t176.5 -62t197.5 -34t206 -10.5q85 0 167.5 6t157 17t139 25t113.5 31l-1 -38q-49 -23 -109 -52t-126 -59t-134.5 -59t-133.5 -51.5t-125 -36t-108 -13.5q-165 0 -307 37.5t-246 117.5t-163.5 204.5t-59.5 298.5
q0 117 25.5 217.5t68 186t97 156.5t113 128t116.5 100t106 73q-14 33 -42 62.5t-63.5 52t-75.5 36t-79 13.5q-32 0 -59 -10l-3 9q0 2 -0.5 4.5t-0.5 4.5q0 19 8.5 53.5t21.5 69.5t28 62.5t27 33.5q57 5 118 13t123 8q60 0 116 -13t104 -49q47 -32 68 -76t21 -93
q0 -33 -9.5 -65.5t-26.5 -63.5t-42 -58t-57 -48q12 -55 327 -55h30v-200h-70q-81 0 -150.5 3t-125.5 22t-96.5 61.5t-63.5 121.5q-63 -34 -122.5 -82t-112 -105t-95.5 -120t-74 -127t-48 -127t-17 -120z" />
    <glyph glyph-name="uniFECB" unicode="&#x639;" horiz-adv-x="989" arabic-form="initial" 
d="M889 395q-38 -125 -80 -169q-443 -76 -632 -76h-207v200h30q5 -1 11 -1h13q12 0 24 1.5t22.5 3.5t17 6t7.5 8q-54 93 -54 160q0 34 15.5 73t42 78.5t61 76t72.5 64t77 44.5t73 17q42 0 96 -13t106 -36.5t96 -56t66 -71.5l-2 -27q-85 57 -161.5 81t-142.5 24
q-57 0 -103.5 -15.5t-79.5 -41.5t-51 -59.5t-18 -69.5q0 -40 24.5 -79.5t77.5 -71t137 -51t202 -19.5q182 0 260 20z" />
    <glyph glyph-name="uniFECC" unicode="&#x639;" horiz-adv-x="890" arabic-form="medial" 
d="M920 150h-70q-150 0 -236 36t-123 108q-68 -51 -126 -80t-111.5 -43.5t-105.5 -17.5t-108 -3h-70v200h30q182 0 290 33t156 100q-14 31 -42 56t-63.5 43t-75 27.5t-76.5 9.5q-28 0 -52 -6l-2 9q0 2 -0.5 4t-0.5 4q0 13 4.5 32t12 41.5t16.5 46t18.5 43.5t18.5 35.5
t15 21.5q39 9 90 15.5t108 6.5q63 0 126.5 -10.5t113.5 -36.5t81.5 -70t31.5 -112q0 -140 -132 -238q5 -28 65.5 -41.5t186.5 -13.5h30v-200z" />
    <glyph glyph-name="uniFECE" unicode="&#x63a;" horiz-adv-x="1030" arabic-form="final" 
d="M726 1254l-95 -159l-185 112l103 152zM85 -323q0 -98 34.5 -173.5t94.5 -132t142 -95t176.5 -62t197.5 -34t206 -10.5q85 0 167.5 6t157 17t139 25t113.5 31l-1 -38q-49 -23 -109 -52t-126 -59t-134.5 -59t-133.5 -51.5t-125 -36t-108 -13.5q-165 0 -307 37.5t-246 117.5
t-163.5 204.5t-59.5 298.5q0 117 25.5 217.5t68 186t97 156.5t113 128t116.5 100t106 73q-14 33 -42 62.5t-63.5 52t-75.5 36t-79 13.5q-32 0 -59 -10l-3 9q0 2 -0.5 4.5t-0.5 4.5q0 19 8.5 53.5t21.5 69.5t28 62.5t27 33.5q57 5 118 13t123 8q60 0 116 -13t104 -49
q47 -32 68 -76t21 -93q0 -33 -9.5 -65.5t-26.5 -63.5t-42 -58t-57 -48q12 -55 327 -55h30v-200h-70q-81 0 -150.5 3t-125.5 22t-96.5 61.5t-63.5 121.5q-63 -34 -122.5 -82t-112 -105t-95.5 -120t-74 -127t-48 -127t-17 -120z" />
    <glyph glyph-name="uniFECF" unicode="&#x63a;" horiz-adv-x="989" arabic-form="initial" 
d="M538 1215l-104 -164l-176 106l93 158zM889 395q-38 -125 -80 -169q-443 -76 -632 -76h-207v200h30q5 -1 11 -1h13q12 0 24 1.5t22.5 3.5t17 6t7.5 8q-54 93 -54 160q0 34 15.5 73t42 78.5t61 76t72.5 64t77 44.5t73 17q42 0 96 -13t106 -36.5t96 -56t66 -71.5l-2 -27
q-85 57 -161.5 81t-142.5 24q-57 0 -103.5 -15.5t-79.5 -41.5t-51 -59.5t-18 -69.5q0 -40 24.5 -79.5t77.5 -71t137 -51t202 -19.5q182 0 260 20z" />
    <glyph glyph-name="uniFED0" unicode="&#x63a;" horiz-adv-x="890" arabic-form="medial" 
d="M550 1230l-104 -168l-183 114l102 154zM920 150h-70q-150 0 -236 36t-123 108q-68 -51 -126 -80t-111.5 -43.5t-105.5 -17.5t-108 -3h-70v200h30q182 0 290 33t156 100q-14 31 -42 56t-63.5 43t-75 27.5t-76.5 9.5q-28 0 -52 -6l-2 9q0 2 -0.5 4t-0.5 4q0 13 4.5 32
t12 41.5t16.5 46t18.5 43.5t18.5 35.5t15 21.5q39 9 90 15.5t108 6.5q63 0 126.5 -10.5t113.5 -36.5t81.5 -70t31.5 -112q0 -140 -132 -238q5 -28 65.5 -41.5t186.5 -13.5h30v-200z" />
    <glyph glyph-name="uniFED2" unicode="&#x641;" horiz-adv-x="2860" arabic-form="final" 
d="M2223 358q-53 71 -53 138q0 31 14 76t39 94.5t58.5 98.5t72.5 88.5t82 64t86 24.5q10 0 15 -1q58 -43 82 -103.5t24 -129.5q0 -43 -8 -88t-22.5 -87.5t-33.5 -82.5t-41 -75q22 -6 65.5 -10.5t92 -8t94 -5t70.5 -1.5h30v-200h-70q-41 0 -103.5 5t-127.5 15t-123 25t-90 35
q-62 -40 -159 -74t-215 -61.5t-249.5 -48t-263.5 -35t-256 -21.5t-227 -7q-126 0 -249 10t-235 34t-207 62.5t-165 95.5t-109.5 133.5t-39.5 176.5q0 60 16 127.5t50 144.5l31 -8q-20 -45 -28.5 -86t-8.5 -78q0 -76 36 -135.5t99.5 -103.5t150.5 -74t189.5 -49t217 -27
t231.5 -8q78 0 185 4t226.5 12.5t243 21.5t235 31t203 40.5t145.5 50.5zM2551 514q-1 29 -8.5 63t-21.5 65.5t-36.5 57t-53.5 36.5q-15 0 -42.5 -13t-55 -32t-48 -40.5t-20.5 -39.5q0 -19 19 -47.5t45.5 -56t55 -50.5t47.5 -32q69 38 119 89zM2528 1396l-101 -161l-182 111
l103 156z" />
    <glyph glyph-name="uniFED3" unicode="&#x641;" horiz-adv-x="794" arabic-form="initial" 
d="M466 1460l-102 -163l-183 111l101 161zM694 609q0 -70 -56 -214q-19 -61 -52.5 -103t-78 -69.5t-98.5 -42t-114 -21.5t-124.5 -8t-130.5 -1h-70v200h30q155 0 267.5 8.5t186 29t109 55.5t35.5 89q0 74 -39 140q-19 -38 -36.5 -72.5t-41 -61t-57 -42t-85.5 -15.5
q-100 0 -153 54t-53 148q0 29 9 75t26 98t40.5 105t53 95.5t63.5 69.5t71 27q22 0 44 -10t45 -33q209 -203 209 -501zM524 746l-1 26q-10 20 -34.5 44.5t-54 46.5t-59.5 36.5t-52 14.5t-41 -9t-33 -24t-22.5 -35t-8.5 -41q0 -23 21 -39.5t50 -27t58.5 -15t47.5 -4.5
q62 0 129 27z" />
    <glyph glyph-name="uniFED4" unicode="&#x641;" horiz-adv-x="800" arabic-form="medial" 
d="M467 1326l-100 -161l-184 111l100 156zM830 150h-70q-20 0 -52.5 2t-72 6.5t-83.5 10.5t-86.5 14.5t-81 19t-66.5 23.5q-67 -39 -130 -58t-120 -19h-14t-14 1h-70v200h30q54 0 90.5 1t70.5 7q-29 41 -41.5 78t-12.5 74q0 31 8.5 62.5t23.5 64.5t35.5 68t45.5 74
q65 85 125.5 123.5t127.5 38.5q21 0 42 -27t37 -69t26 -93t10 -98q0 -82 -113 -279q26 -10 69.5 -15t91.5 -7t92.5 -2.5t71.5 -0.5h30v-200zM491 514v7q0 26 -7.5 58.5t-21.5 63.5t-33 56t-42 37q-3 1 -10 1q-20 0 -49.5 -13t-57.5 -32.5t-47.5 -40.5t-19.5 -38
q0 -11 9.5 -29t24 -38.5t33 -41.5t37.5 -38t36 -28.5t28 -12.5q63 34 120 89z" />
    <glyph glyph-name="uniFED6" unicode="&#x642;" horiz-adv-x="1260" arabic-form="final" 
d="M1032 1471l-108 -161l-182 105l107 162zM755 1471l-100 -161l-182 105l106 162zM916 746q-7 29 -29.5 59t-51.5 54t-61 39.5t-58 15.5q-23 0 -42 -8t-32.5 -20.5t-21 -29t-7.5 -34.5q0 -25 16 -44.5t41.5 -32.5t56.5 -19.5t60 -6.5q62 0 129 27zM89 763q-6 -17 -10 -33
q-21 -79 -21 -147q0 -98 40.5 -172.5t110.5 -124.5t164.5 -75t203.5 -25q63 0 128.5 8.5t133.5 25.5q208 54 208 140q0 149 -94 312q-21 -39 -39 -74t-41 -61t-57 -41t-88 -15q-45 0 -82.5 14t-64.5 40.5t-41.5 63.5t-14.5 83q0 108 79 275q19 45 39.5 82t43 63.5t46.5 41.5
t50 15q23 0 46 -11.5t49 -37.5q238 -232 238 -627q0 -64 -11 -133h5q23 -2 49 -2q23 0 47.5 1t49.5 1h34v-200h-128q-28 0 -112 1q-5 -15 -11 -30q-10 -27 -47 -50t-89 -42t-113.5 -33.5t-120 -24t-108.5 -14.5t-79 -5q-122 0 -212.5 44.5t-150 119t-89 172t-29.5 202.5
q0 109 31 218q16 57 40 110v1q4 11 8 23l46 92q19 -27 35 -56q20 -41 32 -81t12 -72q0 -49 -6 -84.5t-13 -57.5l-9 1v15q0 122 -62 234q-2 -5 -4 -11q-12 -31 -22 -60v1z" />
    <glyph glyph-name="uniFED7" unicode="&#x642;" horiz-adv-x="794" arabic-form="initial" 
d="M624 1477l-97 -161l-184 104l105 161zM358 1477l-104 -161l-181 104l98 161zM694 609q0 -70 -56 -214q-19 -61 -52.5 -103t-78 -69.5t-98.5 -42t-114 -21.5t-124.5 -8t-130.5 -1h-70v200h30q155 0 267.5 8.5t186 29t109 55.5t35.5 89q0 74 -39 140q-19 -38 -36.5 -72.5
t-41 -61t-57 -42t-85.5 -15.5q-100 0 -153 54t-53 148q0 29 9 75t26 98t40.5 105t53 95.5t63.5 69.5t71 27q22 0 44 -10t45 -33q209 -203 209 -501zM524 746l-1 26q-10 20 -34.5 44.5t-54 46.5t-59.5 36.5t-52 14.5t-41 -9t-33 -24t-22.5 -35t-8.5 -41q0 -23 21 -39.5
t50 -27t58.5 -15t47.5 -4.5q62 0 129 27z" />
    <glyph glyph-name="uniFED8" unicode="&#x642;" horiz-adv-x="800" arabic-form="medial" 
d="M566 1294l-107 -152l-183 104l107 154zM291 1294l-99 -152l-185 104l106 154zM491 514v7q0 26 -7.5 58.5t-21.5 63.5t-33 56t-42 37q-3 1 -10 1q-20 0 -49.5 -13t-57.5 -32.5t-47.5 -40.5t-19.5 -38q0 -11 9.5 -29t24 -38.5t33 -41.5t37.5 -38t36 -28.5t28 -12.5
q63 34 120 89zM830 150h-70q-20 0 -52.5 2t-72 6.5t-83.5 10.5t-86.5 14.5t-81 19t-66.5 23.5q-67 -39 -130 -58t-120 -19h-14t-14 1h-70v200h30q54 0 90.5 1t70.5 7q-29 41 -41.5 78t-12.5 74q0 31 8.5 62.5t23.5 64.5t35.5 68t45.5 74q65 85 125.5 123.5t127.5 38.5
q21 0 42 -27t37 -69t26 -93t10 -98q0 -82 -113 -279q26 -10 69.5 -15t91.5 -7t92.5 -2.5t71.5 -0.5h30v-200z" />
    <glyph glyph-name="uniFEDA" unicode="&#x643;" horiz-adv-x="1829" arabic-form="final" 
d="M797 790q0 5 -23 7.5t-51 5.5t-51 8t-23 15q0 59 52.5 106t137.5 80l19 -62q-7 -4 -26 -8t-39 -8.5t-35.5 -10.5t-15.5 -15t13 -15.5t32.5 -11t42.5 -9.5t42.5 -11t32.5 -15t13 -22q0 -28 -20 -48.5t-51.5 -33.5t-71 -19t-78.5 -6q-46 0 -86 8t-60 22q18 5 43 7.5
t52.5 3.5t54.5 2.5t48.5 4.5t34.5 9t13 16zM1515 785q6 -33 12.5 -68.5t13.5 -74.5q7 -81 21.5 -136.5t45.5 -89.5t84 -49.5t137 -16.5h30v-200h-70q-112 0 -195.5 48t-117.5 138q-42 -83 -118 -134.5t-187 -51.5h-539q-325 0 -440 58q-45 17 -80.5 52.5t-60 83.5t-37.5 105
t-13 115q0 71 19.5 137.5t61.5 120.5l23 -13q-46 -94 -46 -182q0 -78 37.5 -141.5t116.5 -99.5q18 -12 73.5 -19.5t165.5 -11.5t284 -5t430 -1q120 0 187 35.5t94 107.5q-8 54 -15 106q-8 52 -17 115q-11 69 -21 144.5t-18 144.5l-60 -54q-9 29 -16.5 61t-13.5 64.5t-10 63
t-6 55.5q1 7 16.5 30.5t39 55t51.5 66.5t54 64.5t46 49.5t28 22l-36 -190h-2q-6 0 -11 -6t-8.5 -15t-7 -19t-6.5 -17q35 -137 53.5 -247t27.5 -201z" />
    <glyph glyph-name="uniFEDB" unicode="&#x643;" horiz-adv-x="1256" arabic-form="initial" 
d="M120 1174l287 -417q25 -36 36.5 -90t11.5 -114q0 -206 -102 -304.5t-313 -98.5h-70v200h30q101 0 171.5 9t117 27.5t73 46.5t39.5 65q-13 26 -63 94t-141 180l-48 -39q-90 145 -148 279q-50 140 -22 174q8 24 20.5 53.5t25 54.5t21.5 42t10 17t36 12t91.5 32.5t127.5 47
t144 56.5t128.5 68.5t96 78.5t66.5 77.5t40 64.5q13 27 20 35.5t9.5 5.5t1.5 -13.5t-4 -22.5t-16 -47.5t-38.5 -84t-64.5 -104.5t-93 -108q-36 -34 -85.5 -67.5t-103.5 -63t-107.5 -55t-95.5 -43.5t-67 -28q-20 -8 -26 -9l3 -9q0 -1 1 -2z" />
    <glyph glyph-name="uniFEDC" unicode="&#x643;" horiz-adv-x="1100" arabic-form="medial" 
d="M572 540q71 -71 140 -110t149 -57t126.5 -21t102.5 -3l30 1v-200h-70q-54 0 -100.5 7.5t-122.5 23.5t-136 42.5t-111 64.5t-96 89q-21 22 -41 47q-16 -75 -37 -117t-38 -64q-29 -37 -73 -58t-98 -28.5t-105 -7.5h-27t-25 1h-70v200h30q59 3 120 6q33 1 63 5q55 7 95 21
q18 8 33 19q31 22 31 65q0 70 -40.5 148.5t-104.5 157.5l-48 -39q-90 145 -148 279q-50 140 -22 174q8 24 20.5 53.5t25 54.5t21.5 42t10 17t36 12t91.5 32.5t127.5 47t144 56.5t128.5 68.5t96 78.5t66.5 77.5t40 64.5q13 27 20 35.5t9.5 5.5t1.5 -13.5t-4 -22.5t-16 -47.5
t-38.5 -84t-64.5 -104.5t-93 -108q-36 -34 -85.5 -67.5t-103.5 -63t-107.5 -55t-95.5 -43.5t-67 -28q-20 -8 -26 -9l3 -9q0 -1 1 -2q386 -568 452 -634z" />
    <glyph glyph-name="uniFEDE" unicode="&#x644;" horiz-adv-x="1250" arabic-form="final" 
d="M1018 230q1 -8 1 -15.5v-15.5q0 -59 -9 -109.5t-23.5 -92.5t-31 -75.5t-31.5 -58.5q-35 -52 -91.5 -93.5t-126 -71t-146.5 -45.5t-153 -16q-80 0 -153.5 19t-130 60t-90 105t-33.5 154q0 63 40 209t121 370l32 -12q-128 -389 -128 -428q0 -80 35.5 -134t93 -86.5t130 -46
t145.5 -13.5q46 0 99 10t106 30t101.5 48.5t86 65.5t60 82t22.5 97q0 527 -72 789q-75 57 -106 99.5t-31 71.5q0 113 86 265l27 -7q-11 -23 -21.5 -49t-10.5 -55q0 -39 21 -62.5t54.5 -40.5t74.5 -31t81 -34l-48 -180q-10 2 -19 4t-17 4q-10 -13 -18 -30q37 -184 54 -301.5
t19 -174.5q9 -18 30 -33.5t51.5 -27t69 -18t81.5 -6.5h30v-200h-70q-17 0 -46 6t-58.5 16.5t-54 25t-33.5 32.5z" />
    <glyph glyph-name="uniFEDF" unicode="&#x644;" horiz-adv-x="441" arabic-form="initial" 
d="M341 1113l-45 -180q-11 2 -19.5 4t-16.5 4q-14 -10 -16 -30q13 -72 30 -183.5t37 -265.5q1 -3 1 -11q0 -16 -4.5 -42t-12 -55.5t-17.5 -60.5t-21 -57.5t-23 -46.5t-23 -27q-8 -4 -29.5 -6.5t-47.5 -3.5t-51.5 -1.5t-42.5 -0.5h-70v200h30q29 0 70 0.5t79.5 2.5t67 6.5
t33.5 11.5q-15 66 -23 134t-15 140t-16 149t-25 162q-73 58 -104 100.5t-31 70.5q0 113 86 265l19 -7q-26 -50 -26 -100q0 -38 20 -61.5t52.5 -40.5t73 -32.5t80.5 -37.5z" />
    <glyph glyph-name="uniFEE0" unicode="&#x644;" horiz-adv-x="577" arabic-form="medial" 
d="M279 296q-1 -1 -1 -3q-10 -31 -21 -57.5t-23 -46.5t-23 -27q-8 -4 -29.5 -6.5t-47.5 -3.5t-51.5 -1.5t-42.5 -0.5h-70v200h30q29 0 70 0.5t79.5 2.5t67 6.5t33.5 11.5q-15 66 -23 134t-15 140t-16 149t-25 162q-73 58 -104 100.5t-31 70.5q0 113 86 265l19 -7
q-26 -50 -26 -100q0 -38 20 -61.5t52.5 -40.5t73 -32.5t80.5 -37.5l-45 -180q-11 2 -19.5 4t-16.5 4q-14 -10 -16 -30q13 -72 30 -183.5t37 -265.5q1 -3 1 -11q0 -15 0.5 -36.5t-4.5 -43.5q5 -7 33.5 -11.5t67 -6.5t79.5 -2.5t70 -0.5h30v-200h-70q-17 0 -42.5 0.5
t-51.5 1.5t-47.5 3.5t-29.5 6.5q-11 7 -23 27t-23 46.5t-21 57.5q-1 2 -1 3z" />
    <glyph glyph-name="uniFEE2" unicode="&#x645;" horiz-adv-x="1070" arabic-form="final" 
d="M1100 350v-200h-70q-82 0 -146 20t-125 62q-1 -11 -4 -27.5t-10 -38.5q-5 -1 -11 -1.5t-12 -0.5q-28 0 -65 9t-75.5 24.5t-76 35.5t-67 42.5t-47.5 46t-18 44.5q0 148 116 229l-2 10q-8 0 -15.5 0.5t-15.5 0.5q-94 0 -158.5 -18t-104 -51.5t-56.5 -81.5t-17 -107
q0 -54 12 -116.5t32 -131.5q26 -88 41 -157t15 -131q0 -39 -7 -76t-21.5 -75t-38 -78.5t-56.5 -85.5l-15 46q8 48 12.5 87.5t4.5 76.5q0 31 -3 62.5t-9 66t-15.5 75t-22.5 89.5q-49 193 -49 300q0 59 20 120.5t52.5 116.5t73.5 99.5t82 69.5q22 14 54 26.5t70 22t80 15.5
t83 6q57 0 107.5 -13t84.5 -45q14 -40 27 -88.5t29.5 -96t40 -88.5t59.5 -66q18 -9 41 -15t50 -9t56.5 -4t59.5 -1h30zM663 395q-5 16 -8 45.5t-9.5 59t-18.5 51t-35 21.5q-13 0 -31.5 -5.5t-35.5 -15t-29.5 -22.5t-12.5 -28q0 -5 11 -14.5t27.5 -21.5t37 -24.5t39.5 -23
t34.5 -17t21.5 -6.5h3z" />
    <glyph glyph-name="uniFEE3" unicode="&#x645;" horiz-adv-x="1042" arabic-form="initial" 
d="M942 396q0 -35 -108 -244q-13 -13 -32 -13q-55 0 -285 87q-277 99 -281 99q-29 -53 -50.5 -87t-42.5 -53.5t-45 -27t-58 -7.5h-70v200h30q69 0 122.5 30.5t106.5 93.5q28 35 57 76t59.5 82.5t64.5 80t71.5 68t80 47.5t91.5 18q26 0 57 -27.5t63 -70.5t62.5 -95.5
t54 -102.5t38 -91.5t14.5 -62.5zM762 423q-14 34 -38 69.5t-54.5 66t-66 52.5t-72.5 28q-10 -1 -33.5 -16.5t-49 -35.5t-47 -38.5t-27.5 -26.5q119 -70 368 -153q17 20 20 54z" />
    <glyph glyph-name="uniFEE4" unicode="&#x645;" horiz-adv-x="1200" arabic-form="medial" 
d="M1230 150h-70q-19 0 -52 13.5t-72.5 41t-82 68.5t-79.5 96q2 -4 2 -15q0 -21 -9 -55t-22 -67.5t-27.5 -60t-26.5 -32.5l-29 -11h-4q-50 0 -249 83q-69 29 -137 57t-136 57q-81 -88 -134.5 -131.5t-61.5 -43.5h-70v200h30q37 0 66.5 6.5t60.5 26t67.5 55.5t88.5 96
q16 19 38.5 46.5t48.5 57.5t54 59.5t55 53t52 38t45 14.5q68 0 170 -120q84 -87 148.5 -150t117.5 -103.5t98 -60t90 -19.5h30v-200zM733 397q0 18 -9.5 42.5t-25.5 51.5t-36.5 53.5t-43 47.5t-45 34t-42.5 13q-11 0 -33.5 -15.5t-46.5 -35.5t-44.5 -40.5t-27.5 -29.5
q119 -90 333 -156q21 8 21 35z" />
    <glyph glyph-name="uniFEE6" unicode="&#x646;" horiz-adv-x="1054" arabic-form="final" 
d="M627 1162l-105 -165l-189 108l108 155zM966 399q-1 -26 3 -50q16 0 32 1h57v-200h-156q-33 -68 -88 -117q-140 -125 -407 -125q-112 0 -189.5 26.5t-126 74t-70 113.5t-21.5 145q0 61 11.5 128t32.5 137.5t50 144t63 147.5l42 83q19 -27 35 -56q20 -41 32 -81t12 -72
q0 -49 -6 -84.5t-13 -57.5l-9 1v15q0 122 -62 235l-11 2q-53 -122 -82 -224q-30 -105 -30 -190q0 -69 22 -122.5t71 -90.5t126 -56.5t187 -19.5q34 0 80 6.5t95.5 20t98 33t87 46t46 91t-20.5 155.5q-7 24 -17.5 49.5t-25 48t-43.5 53.5q-70 91 -79 151q-1 52 28.5 78.5
t78.5 65.5l11 -5q-1 -12 -1.5 -22t0.5 -19q2 -18 7.5 -34.5t15.5 -36t24.5 -44t33.5 -58.5q35 -63 53 -109t23 -177z" />
    <glyph glyph-name="uniFEE7" unicode="&#x646;" horiz-adv-x="458" arabic-form="initial" 
d="M267 1206l-107 -164l-189 114l111 160zM302 279q-23 -46 -58 -74.5t-85 -41.5t-119 -13h-70v200h30q55 0 105.5 2.5t89.5 8t64 14.5q19 6 25 16q7 42 0.5 66.5t-17 50t-25 48t-43.5 53.5q-70 91 -79 151q-1 52 28.5 78.5t78.5 65.5l11 -5q-1 -12 -1.5 -22t0.5 -19
q2 -18 7.5 -34.5t15.5 -36t24.5 -44t33.5 -58.5q35 -63 53 -109t20 -79q5 -51 -24 -107q-22 -43 -65 -111z" />
    <glyph glyph-name="uniFEE8" unicode="&#x646;" horiz-adv-x="640" arabic-form="medial" 
d="M267 1086l-107 -164l-189 114l111 160zM399 447q21 -33 57.5 -54.5t84 -32t99.5 -10.5h30v-200h-70q-197 0 -288 145l-10 -16q-23 -46 -58 -74.5t-85 -41.5t-119 -13h-70v200h30q56 0 98 3.5t74.5 14.5t58.5 30.5t54 56.5q-7 27 -17.5 52.5t-25 48t-43.5 53.5
q-70 91 -79 151q-1 52 28.5 78.5t78.5 65.5l11 -5q-1 -12 -1.5 -22t0.5 -19q2 -18 7.5 -34.5t15.5 -36t24.5 -44t33.5 -58.5q35 -63 53 -109t20 -79q3 -40 8 -50z" />
    <glyph glyph-name="uniFEEA" unicode="&#x647;" horiz-adv-x="1357" arabic-form="final" 
d="M1387 150h-70q-32 1 -56 11t-43.5 24.5t-36 32t-34.5 33.5v-31q0 -29 -50 -193q-127 46 -249.5 73.5t-246.5 38.5q-58 6 -170.5 9t-270.5 2q-144 0 -245.5 -7.5t-167.5 -7.5q-75 0 -107 6t-32 17q0 13 40.5 31t101.5 38.5t132 40.5t132 37t101.5 29t40.5 16
q3 65 17 134.5t43 136.5t74.5 128t110.5 110q-53 24 99 365q83 -200 231 -336q109 -100 174 -162.5t87 -88.5q37 -43 64.5 -80.5t44.5 -72.5q36 -14 62.5 -37t53.5 -44.5t59.5 -37t80.5 -15.5h30v-200zM1022 304q0 175 -381 451q7 -27 10 -73t3 -98q0 -46 -2 -91.5t-6 -82.5
t-9 -60.5t-11 -24.5q58 -5 110.5 -9t100.5 -11.5t92 -20.5t86 -37q7 24 7 57zM572 415q3 14 3 30q0 35 -10 78.5t-27.5 81t-41 63t-50.5 25.5q-18 0 -48 -16t-58.5 -39t-49.5 -49.5t-21 -47.5q40 -159 174 -230q65 43 129 104z" />
    <glyph glyph-name="uniFEEB" unicode="&#x647;" horiz-adv-x="1147" arabic-form="initial" 
d="M1047 220q0 -29 -50 -193q-127 46 -249.5 73.5t-246.5 38.5q-58 6 -170.5 9t-270.5 2h-90v200h86q3 65 17 134.5t43 136.5t74.5 128t110.5 110q-53 24 89 331q93 -166 241 -302q109 -100 174 -162.5t87 -88.5q54 -58 84.5 -108t46.5 -99t20 -100t4 -110zM922 304
q0 175 -381 451q7 -27 10 -73t3 -98q0 -46 -2 -91.5t-6 -82.5t-9 -60.5t-11 -24.5q58 -5 110.5 -9t100.5 -11.5t92 -20.5t86 -37q7 24 7 57zM472 415q3 14 3 30q0 35 -10 78.5t-27.5 81t-41 63t-50.5 25.5q-18 0 -48 -16t-58.5 -39t-49.5 -49.5t-21 -47.5q40 -159 174 -230
q65 43 129 104z" />
    <glyph glyph-name="uniFEEC" unicode="&#x647;" horiz-adv-x="800" arabic-form="medial" 
d="M830 150h-210q0 -11 5 -33.5t11.5 -47t11.5 -47t5 -33.5q0 -60 -28.5 -110.5t-73.5 -87.5t-102 -58t-114 -21q-62 0 -106.5 28t-72.5 73t-41 100.5t-13 110.5q0 11 0.5 20.5t1.5 19.5l-45 -10v96h-89v200h164q33 42 63.5 97.5t58 119t50.5 132.5t39.5 137.5t25.5 134.5
t9 124v16t-1 16q122 -101 151 -207t29 -215q0 -92 -22 -176t-68 -149q44 -27 124 -30h237v-200zM229 328q56 7 99.5 33.5t74 65.5t46.5 86t16 96q0 48 -16 94t-51 84zM216 121q-1 -8 -1.5 -14.5t-0.5 -13.5q0 -49 19.5 -85t51 -58.5t73 -33.5t84.5 -11q76 0 141 28
q-7 52 -43.5 88.5t-86.5 58.5t-105 32t-99 10h-13z" />
    <glyph glyph-name="uniFEEE" unicode="&#x648;" horiz-adv-x="900" arabic-form="final" 
d="M631 576q0 31 -20 61t-50.5 54t-68 38.5t-72.5 14.5q-40 0 -68 -24.5t-28 -81.5q0 -23 17 -40t44 -28t60 -16t66 -5q39 0 71.5 6.5t48.5 20.5zM766 349h157v-201h-223q-144 -299 -532 -461q-78 25 -193.5 89.5t-274.5 170.5l8 16q247 -116 318 -116q33 0 79.5 13
t100.5 36.5t111.5 56t113 71.5t105 83t86.5 90.5t59 94t22 93.5q0 60 -40 110q-1 -1 -1 -2q-23 -45 -40 -78q-18 -34 -39.5 -56t-52.5 -33t-83 -11q-211 0 -211 199q0 24 10 68.5t27 96.5t41 106.5t52.5 98.5t59.5 72t64 28q41 0 79 -22.5t71 -59.5t59.5 -84t45.5 -95.5
t29.5 -94.5t10.5 -80q0 -105 -19 -199z" />
    <glyph glyph-name="uniFEF0" unicode="&#x649;" horiz-adv-x="800" arabic-form="final" 
d="M1151 -29q142 0 187 -2t108 -8.5t99 -18.5q131 -42 209.5 -108t113.5 -146.5t32.5 -171t-33.5 -186.5q-22 -65 -55 -131t-73.5 -130t-87.5 -124t-97 -113l-25 20q99 110 159.5 205.5t86.5 178.5q33 100 21 182t-58 146.5t-121 111.5t-169 77q-75 15 -147.5 18.5
t-878.5 3.5q-260 0 -388 78q-129 78 -129 119q0 29 8 58.5t20.5 60t27.5 62.5t30 65q16 22 51.5 40.5t83.5 33t106 25.5t119 18.5t122.5 11t116.5 3.5h239v-200h-199q-105 0 -208 -5t-185 -15t-133 -25t-51 -35q83 -99 235 -99h863z" />
    <glyph glyph-name="uniFEF2" unicode="&#x64a;" horiz-adv-x="1460" arabic-form="final" 
d="M889 -991l-106 -162l-186 109l103 159zM611 -991l-95 -162l-186 109l108 159zM1460 150q-105 0 -208 -5t-185 -15t-133 -25t-51 -35q219 -83 235 -95q171 -78 171 -167q0 -9 -4 -30.5t-10 -49.5t-14.5 -59t-17 -58t-17 -46.5t-15.5 -24.5q-33 -36 -91.5 -68t-131 -59
t-152 -49t-153.5 -37.5t-137 -23.5t-101 -8q-138 0 -233 38t-153 103.5t-83.5 153t-25.5 187.5q0 69 11 142t30 146.5t45 145t57 137.5l31 -12q-61 -135 -89 -244t-28 -197q0 -105 37 -179.5t100.5 -121.5t149.5 -68.5t184 -21.5q80 0 164.5 13t169.5 37t168 57.5t158 74.5
q14 15 14 32q0 16 -15 31.5t-42 31.5t-65 33t-85 35q-210 82 -210 123q0 29 8 58.5t20.5 60t27.5 62.5t30 65q16 22 51.5 40.5t83.5 33t106 25.5t119 18.5t122.5 11t116.5 3.5h70v-200h-30z" />
    <glyph glyph-name="uniFEF3" unicode="&#x64a;" horiz-adv-x="458" arabic-form="initial" 
d="M483 -235l-111 -161l-183 107l109 164zM203 -235l-96 -161l-184 107l106 164zM302 279q-23 -46 -58 -74.5t-85 -41.5t-119 -13h-70v200h30q55 0 105.5 2.5t89.5 8t64 14.5q19 6 25 16q7 42 0.5 66.5t-17 50t-25 48t-43.5 53.5q-70 91 -79 151q-1 52 28.5 78.5t78.5 65.5
l11 -5q-1 -12 -1.5 -22t0.5 -19q2 -18 7.5 -34.5t15.5 -36t24.5 -44t33.5 -58.5q35 -63 53 -109t20 -79q5 -51 -24 -107q-22 -43 -65 -111z" />
    <glyph glyph-name="uniFEF4" unicode="&#x64a;" horiz-adv-x="640" arabic-form="medial" 
d="M483 -235l-111 -161l-183 107l109 164zM203 -235l-96 -161l-184 107l106 164zM399 447q21 -33 57.5 -54.5t84 -32t99.5 -10.5h30v-200h-70q-197 0 -288 145l-10 -16q-23 -46 -58 -74.5t-85 -41.5t-119 -13h-70v200h30q56 0 98 3.5t74.5 14.5t58.5 30.5t54 56.5
q-7 27 -17.5 52.5t-25 48t-43.5 53.5q-70 91 -79 151q-1 52 28.5 78.5t78.5 65.5l11 -5q-1 -12 -1.5 -22t0.5 -19q2 -18 7.5 -34.5t15.5 -36t24.5 -44t33.5 -58.5q35 -63 53 -109t20 -79q3 -40 8 -50z" />
    <glyph glyph-name=".notdef" horiz-adv-x="1239" 
d="M690 330q0 -34 -25.5 -58t-59.5 -24t-57.5 24.5t-23.5 57.5q0 35 24 59t61 24q34 0 57.5 -24t23.5 -59zM809 861q0 -49 -26 -78t-68 -29q-34 0 -55 21t-21 52q0 24 11 40.5t24.5 28t24.5 20t11 15.5q0 22 -21.5 35.5t-54.5 13.5q-43 0 -69 -23.5t-26 -58.5
q0 -19 11.5 -47.5t25.5 -56.5t26.5 -50.5t14.5 -28.5q12 -32 19.5 -69t7.5 -80q0 -22 -1.5 -45.5t-3.5 -52.5h-43v20l4 33q0 37 -49 80q-42 36 -64.5 57t-27.5 27q-49 58 -49 132q0 45 16.5 83t45 66t66 44t80.5 16q40 0 74.5 -11.5t60.5 -33.5t41 -52t15 -68zM146 34h950
v1205h-950v-1205zM111 0v1274h1018v-1274h-1018z" />
    <glyph glyph-name="uni0000" horiz-adv-x="0" 
 />
    <glyph glyph-name="uni0000" horiz-adv-x="0" 
 />
    <glyph glyph-name="nonmarkingreturn" unicode="&#xd;" horiz-adv-x="628" 
 />
    <glyph glyph-name="space" unicode=" " horiz-adv-x="650" 
 />
    <glyph glyph-name="exclam" unicode="!" horiz-adv-x="621" 
d="M146 1418l238 172q-11 -103 -28 -352.5t-40 -644.5q-34 -17 -97 -33q-27 125 -45 338.5t-28 519.5zM421 319l-93 -169l-228 130l88 168z" />
    <glyph glyph-name="quotedbl" unicode="&#x22;" horiz-adv-x="555" 
d="M505 1650q-4 -73 -7.5 -126.5t-7.5 -103t-7.5 -103t-7.5 -127.5q-5 -26 -18.5 -39.5t-30.5 -13.5q-16 0 -31.5 13.5t-23.5 39.5q-4 74 -8 127.5t-7.5 103t-7.5 103t-8 126.5q33 109 74 109q42 0 91 -109zM215 1650q-4 -73 -7.5 -126.5t-7.5 -103t-7.5 -103t-7.5 -127.5
q-5 -26 -18.5 -39.5t-30.5 -13.5q-16 0 -31.5 13.5t-23.5 39.5q-4 74 -8 127.5t-7.5 103t-7.5 103t-8 126.5q33 109 74 109q42 0 91 -109z" />
    <glyph glyph-name="numbersign" unicode="#" horiz-adv-x="1100" 
d="M614 556q2 8 9.5 35t18 64t22 78.5t22 78t18 63.5t9.5 35h-231q-2 -8 -9.5 -35t-17.5 -63.5t-21 -78t-21 -78.5t-17.5 -64t-9.5 -35h228zM11 556h234q2 8 9.5 35t17.5 64t22 78.5t22 78t17.5 63.5t9.5 35h-234q8 29 14.5 55t14.5 54h233q3 12 12 47t21.5 81t26.5 97.5
t26.5 97.5t21.5 80.5t12 46.5h141l-122 -450h231q4 14 13.5 48t22 79t26.5 95t26.5 95.5t22 81t13.5 51.5h138l-121 -450h234q-8 -29 -14.5 -54.5t-14.5 -54.5h-233q-11 -42 -23.5 -88t-24.5 -88l-51 -178h235q-8 -29 -14.5 -54.5t-14.5 -54.5h-231q-3 -12 -12 -46
t-21.5 -78.5t-27 -95t-27 -96t-22.5 -81t-14 -50.5h-139l122 447h-233q-2 -9 -11 -41.5t-21 -78t-26.5 -97.5t-27 -98.5t-22 -82.5t-12.5 -49h-140l121 447h-233z" />
    <glyph glyph-name="dollar" unicode="$" horiz-adv-x="1134" 
d="M513 1313q-70 -4 -118 -26.5t-77.5 -56.5t-42.5 -75.5t-14 -83.5q0 -50 18 -89t51 -68.5t79.5 -49.5t103.5 -32v481zM847 225q35 61 35 141q0 55 -15 95.5t-48 72t-86.5 55.5t-130.5 46v-538q90 5 151.5 36.5t93.5 91.5zM515 1589h87v-132q98 -9 174 -39t129 -79.5
t82.5 -116.5t33.5 -150h-167q-11 112 -77 172.5t-175 65.5v-495q118 -33 199 -64t120 -59q133 -94 133 -277q0 -131 -45 -225.5t-126 -151.5q-48 -29 -122 -50t-159 -32v-195h-87v196q-142 11 -244.5 64t-153.5 141q-26 49 -40 117.5t-16 150.5h169q4 -66 15.5 -116
t28.5 -82q16 -25 41.5 -46.5t57 -39t67.5 -29t73 -16.5v556q-213 42 -318.5 138.5t-105.5 263.5q0 75 28 145.5t82 125.5t133.5 89t182.5 36v134z" />
    <glyph glyph-name="percent" unicode="%" horiz-adv-x="1780" 
d="M1595 346q0 42 -17 80.5t-46 67.5t-67.5 46t-81.5 17q-42 0 -80.5 -17t-67.5 -45.5t-46 -67t-17 -81.5t16.5 -81t45.5 -67t67.5 -46t81.5 -17q44 0 82.5 17t67.5 46.5t45.5 67.5t16.5 80zM608 1042q0 42 -17 80t-45.5 67.5t-67 46.5t-81.5 17t-81.5 -17t-67.5 -45.5
t-46 -67t-17 -81.5t17 -81.5t45.5 -67.5t67.5 -45.5t82 -16.5q44 0 82.5 17t67 46.5t45 67.5t16.5 80zM1240 1426h103q-201 -367 -401 -731.5t-400 -732.5h-103zM1730 346q0 -71 -27.5 -134t-74.5 -110t-110 -74.5t-135 -27.5t-135 27.5t-110 74.5t-74 110t-27 134t27 134
t74 110t110 74.5t135 27.5t135 -27.5t110 -74.5t74.5 -110t27.5 -134zM743 1042q0 -71 -27 -134t-74 -110t-110 -74.5t-135 -27.5t-135 27.5t-110 74.5t-74.5 110t-27.5 134t27.5 134.5t75 110.5t110.5 74.5t134 27.5t134 -27.5t110 -75t74.5 -110.5t27.5 -134z" />
    <glyph glyph-name="ampersand" unicode="&#x26;" horiz-adv-x="1361" 
d="M714 1007q61 70 61 153q0 32 -11.5 62t-33.5 52.5t-52 36t-68 13.5q-82 0 -131.5 -43.5t-49.5 -118.5q0 -33 8.5 -62t27 -59.5t46.5 -66t67 -80.5q51 35 84.5 63.5t51.5 49.5zM516 699q-69 -48 -117.5 -85.5t-71.5 -62.5q-31 -38 -49 -86t-18 -100q0 -59 24 -105.5
t63 -78t88 -48t98 -16.5q56 0 104.5 14.5t88.5 38.5t72 54.5t55 62.5zM262 1140q0 71 25 131t71 103.5t110.5 68t143.5 24.5q77 0 137 -23.5t101.5 -63.5t63.5 -93t22 -113q0 -69 -23.5 -131.5t-65.5 -114.5q-26 -29 -73 -67t-104 -78q10 -12 31.5 -37.5t49 -58.5t58 -69
t58 -69t49 -59t31.5 -38q15 45 24 72.5t15.5 50.5t11 48t10.5 65h162q-6 -55 -22 -117t-34.5 -116t-35.5 -93t-26 -48q63 -76 129.5 -157t129.5 -157h-225l-139 171q-42 -43 -82 -78.5t-71 -55.5q-58 -33 -128.5 -52t-145.5 -19q-228 0 -332 122q-52 63 -77 131.5t-26 146.5
q0 81 26 152t74 126q31 32 92.5 77t142.5 96q-46 54 -78.5 101t-48.5 83q-31 72 -31 139z" />
    <glyph glyph-name="quotesingle" unicode="'" horiz-adv-x="265" 
d="M215 1650q-4 -73 -7.5 -126.5t-7.5 -103t-7.5 -103t-7.5 -127.5q-5 -26 -18.5 -39.5t-30.5 -13.5q-16 0 -31.5 13.5t-23.5 39.5q-4 74 -8 127.5t-7.5 103t-7.5 103t-8 126.5q33 109 74 109q42 0 91 -109z" />
    <glyph glyph-name="parenleft" unicode="(" horiz-adv-x="676" 
d="M559 -402q17 -20 17 -39q0 -16 -15 -16q-5 0 -13 3.5t-13 8.5q-39 32 -80 73.5t-79.5 90t-73.5 103t-63 111.5q-32 70 -53 142t-49 152q-17 79 -26 156.5t-11 152.5q0 151 36.5 294.5t104.5 293.5q64 139 138.5 234.5t155.5 159.5q11 9 18.5 12.5t11.5 3.5q11 0 11 -12
q0 -5 -4 -17t-13 -27q-149 -252 -225.5 -484.5t-75.5 -457.5q0 -140 24 -273t70 -276q43 -115 95 -214.5t112 -174.5z" />
    <glyph glyph-name="parenright" unicode=")" horiz-adv-x="775" 
d="M115 1481q-15 23 -15 39q0 15 12 15q14 0 29 -12q87 -63 159.5 -155.5t136.5 -225.5q65 -144 101.5 -292t36.5 -311q0 -293 -141 -587q-64 -136 -135.5 -231.5t-157.5 -159.5q-3 -3 -6 -4h1q-9 -7 -14 -10.5t-14 -3.5q-8 0 -8 13q0 17 15 43q154 252 228 485.5t75 454.5
q0 259 -97 549q-42 124 -91.5 219.5t-114.5 173.5z" />
    <glyph glyph-name="asterisk" unicode="*" horiz-adv-x="822" 
d="M464 1469v-227q57 20 112.5 40t109.5 37q9 -26 18 -51t18 -52l-219 -71q35 -48 68.5 -96t68.5 -94q-25 -17 -47.5 -33.5t-46.5 -33.5l-133 197q-34 -51 -68 -99t-66 -99q-25 17 -48 34t-49 34l139 190q-55 18 -111 36t-110 35q10 28 18 52t18 51l220 -79v229h108z" />
    <glyph glyph-name="plus" unicode="+" horiz-adv-x="1100" 
d="M96 450v141h382v386h145v-386h382v-141h-382v-384h-145v384h-382z" />
    <glyph glyph-name="comma" unicode="," horiz-adv-x="564" 
d="M168 -218q27 6 48 23.5t35.5 43.5t22 59.5t7.5 72.5q0 5 -0.5 9t-2.5 10h-110v211h208v-199q0 -57 -10.5 -109.5t-34.5 -95t-64 -72t-99 -40.5v87z" />
    <glyph glyph-name="hyphen" unicode="-" horiz-adv-x="1100" 
d="M96 440v161h909v-161h-909z" />
    <glyph glyph-name="hyphen" unicode="&#x2212;" horiz-adv-x="1100" 
d="M96 440v161h909v-161h-909z" />
    <glyph glyph-name="hyphen" unicode="&#xad;" horiz-adv-x="1100" 
d="M96 440v161h909v-161h-909z" />
    <glyph glyph-name="period" unicode="." horiz-adv-x="621" 
d="M421 319l-93 -169l-228 130l88 168z" />
    <glyph glyph-name="slash" unicode="/" horiz-adv-x="564" 
d="M465 1469h144q-117 -368 -233 -734.5t-233 -734.5h-144z" />
    <glyph glyph-name="zero" unicode="0" horiz-adv-x="1100" 
d="M856 711q0 248 -60 405q-62 161 -239 161q-161 0 -236.5 -151.5t-75.5 -445.5q0 -133 19 -237.5t56.5 -176.5t93.5 -110t130 -38q143 0 228 127q84 126 84 466zM947 1203q95 -176 95 -485q0 -181 -32.5 -321.5t-96 -237.5t-156 -147.5t-212.5 -50.5q-117 0 -208 48.5
t-153 141.5t-94 228t-32 308q0 181 32.5 320t95 233.5t153.5 143t207 48.5q277 0 401 -229z" />
    <glyph glyph-name="one" unicode="1" horiz-adv-x="1100" 
d="M287 1020v131q99 10 167 26t106 37q76 48 116 212h136v-1426h-185v1020h-340z" />
    <glyph glyph-name="two" unicode="2" horiz-adv-x="1100" 
d="M585 679q64 37 111 70t73 59q83 83 83 194q0 63 -20.5 114t-57 87t-88.5 56t-115 20q-147 0 -222.5 -85.5t-81.5 -264.5h-175q5 258 128 383t352 125q249 0 358 -132q57 -69 85 -139.5t28 -155.5q0 -171 -120 -293q-19 -19 -50.5 -43t-71 -50.5t-85 -53.5t-93.5 -53
q-34 -19 -69 -39t-67 -40.5t-60 -39t-48 -34.5q-51 -42 -83 -93t-47 -108h787v-163h-979q11 183 76 318h-1q67 138 260 249z" />
    <glyph glyph-name="three" unicode="3" horiz-adv-x="1100" 
d="M232 434q12 -134 53 -200q36 -55 101.5 -85t156.5 -31q72 0 131 21t101 57.5t65 87.5t23 111q0 76 -24.5 128t-69.5 84t-109.5 46t-144.5 14q-17 0 -35 -0.5t-36 -1.5v151q23 -2 43.5 -3t41.5 -1q143 0 214.5 60t71.5 177q0 54 -21.5 96.5t-57.5 72t-83 44.5t-97 15
q-145 0 -217.5 -74.5t-80.5 -234.5h-170q0 107 30 193t87.5 147t141 93.5t190.5 32.5q219 0 338 -96.5t119 -281.5q0 -105 -47 -178.5t-147 -118.5q59 -16 105.5 -47t78.5 -74.5t48.5 -98t16.5 -117.5q0 -101 -34 -185.5t-99.5 -146t-161.5 -95.5t-221 -34q-255 0 -368 138
q-113 137 -113 335h180z" />
    <glyph glyph-name="four" unicode="4" horiz-adv-x="1100" 
d="M670 501v669q-66 -93 -134.5 -189.5t-134.5 -189.5l-205 -290h474zM673 0v352h-632v172q166 230 329.5 456t328.5 456h147v-935h212v-149h-212v-352h-173z" />
    <glyph glyph-name="five" unicode="5" horiz-adv-x="1100" 
d="M238 359q14 -118 90.5 -181t205.5 -63q82 0 142.5 29.5t100 76.5t58.5 106.5t19 120.5q0 77 -25.5 136.5t-69 100t-101 62t-121.5 21.5q-94 0 -161 -35.5t-115 -101.5l-150 9q27 196 53 384t54 384h741v-167h-611q-2 -13 -7 -45t-11.5 -73.5t-13.5 -87.5t-13.5 -87
t-11.5 -73t-7 -46q35 25 68 43t67.5 29t71.5 16.5t80 5.5q99 0 185 -33.5t149 -93.5t99 -142t36 -179q0 -99 -33.5 -190.5t-91.5 -166.5q-63 -72 -163.5 -113t-235.5 -41q-87 0 -165.5 24t-139.5 72.5t-101 123t-51 175.5h179z" />
    <glyph glyph-name="six" unicode="6" horiz-adv-x="1100" 
d="M857 442q0 113 -64 213q-66 102 -234 102q-57 0 -111 -19.5t-95 -59t-66 -98.5t-25 -138q0 -67 21 -126.5t60.5 -104t96 -70t128.5 -25.5t126.5 27t90.5 72.5t54 104.5t18 122zM837 1063q-24 118 -85.5 171t-167.5 53q-76 0 -137.5 -37t-106 -108t-70.5 -175t-32 -239
q35 52 76.5 88t87.5 59q42 21 90.5 30t100.5 9q90 0 170.5 -29t142 -86t97.5 -142.5t36 -199.5q0 -195 -126 -345q-125 -149 -361 -149q-99 0 -186.5 39.5t-159.5 111.5q-67 78 -105 208.5t-40 305.5q0 199 34.5 350.5t101 253.5t163.5 154t221 52q240 0 333 -124
q92 -122 94 -251h-171z" />
    <glyph glyph-name="seven" unicode="7" horiz-adv-x="1100" 
d="M1046 1408v-153q-33 -33 -81 -93.5t-102 -139.5q-57 -84 -109.5 -177t-94.5 -183t-76.5 -179.5t-56.5 -164.5q-14 -51 -33 -130t-42 -188h-192q69 411 300 815q137 237 295 419h-800v174h992z" />
    <glyph glyph-name="eight" unicode="8" horiz-adv-x="1100" 
d="M808 1059q0 40 -16.5 79t-50 70t-83 50.5t-115.5 19.5q-67 0 -114.5 -19.5t-78 -51.5t-45 -73t-14.5 -85q0 -52 21.5 -92.5t57 -69t82 -43.5t97.5 -15q60 0 108 18.5t81.5 50t51.5 73.5t18 88zM856 390q0 71 -23.5 125t-65 90.5t-98 55t-122.5 18.5q-64 0 -118.5 -19.5
t-94.5 -56t-62.5 -89t-22.5 -118.5q0 -111 75 -197q38 -43 98 -61.5t138 -21.5q63 0 117 17t93.5 51.5t62.5 86t23 119.5zM188 842q-78 78 -78 206q0 77 28.5 147t85 123.5t139 85.5t190.5 32q101 0 182 -29t138 -78.5t87.5 -114.5t30.5 -137q0 -54 -9.5 -98t-32 -81.5
t-59 -70t-90.5 -63.5q93 -43 146 -96v1q94 -97 94 -260q0 -93 -31.5 -175t-93 -143t-152 -96.5t-207.5 -35.5q-102 0 -192 28t-157.5 83.5t-107 138t-39.5 191.5q0 126 63 218.5t190 144.5q-84 34 -125 78v1z" />
    <glyph glyph-name="nine" unicode="9" horiz-adv-x="1100" 
d="M828 959q0 80 -22 140t-61 99.5t-91.5 59t-113.5 19.5q-66 0 -120 -24t-92.5 -67.5t-59.5 -104t-21 -134.5q0 -70 16.5 -127.5t52 -98.5t90.5 -63.5t132 -22.5q108 0 198 72q92 72 92 252zM259 340q8 -114 73.5 -175.5t171.5 -61.5q63 0 120.5 28.5t103.5 80.5
q93 114 130 438l-8 4q-30 -47 -67.5 -79.5t-80 -52.5t-90 -29t-98.5 -9q-104 0 -186.5 34.5t-140.5 95.5t-88.5 146t-30.5 185t29 183.5t89 158.5q116 147 350 147q121 0 213.5 -45.5t155.5 -131.5t95 -210.5t32 -282.5q0 -175 -35 -322.5t-101.5 -254.5t-163.5 -167
t-221 -60q-105 0 -184.5 29t-132.5 80t-80.5 120.5t-28.5 150.5h174z" />
    <glyph glyph-name="colon" unicode=":" horiz-adv-x="621" 
d="M421 945l-92 -173l-226 131l89 175zM421 319l-93 -169l-228 130l88 168z" />
    <glyph glyph-name="semicolon" unicode=";" horiz-adv-x="564" 
d="M225 1055h207v-211h-207v211zM225 -218q54 13 83 62.5t29 127.5q0 4 -0.5 9t-2.5 19h-109v211h207v-199q0 -140 -52.5 -218t-154.5 -99v87z" />
    <glyph glyph-name="less" unicode="&#x3c;" horiz-adv-x="1100" 
d="M96 590q228 100 454 198t454 198v-149l-755 -317q18 -8 56 -24t90.5 -37.5t113.5 -47.5t123 -52.5t122.5 -52t111 -46.5t87.5 -36.5t51 -21.5v-148q-228 100 -454 198t-454 198v140z" />
    <glyph glyph-name="equal" unicode="=" horiz-adv-x="1100" 
d="M1005 781v-140h-907v140h907zM1005 405v-142h-907v142h907z" />
    <glyph glyph-name="greater" unicode="&#x3e;" horiz-adv-x="1100" 
d="M1004 447q-227 -99 -451.5 -197t-451.5 -197v147q15 6 51.5 21t86.5 36t110 46.5t122 52t122.5 52.5t112.5 47.5t90 37.5t56 24q-187 78 -376 157t-375 158v148q227 -99 451.5 -197t451.5 -197v-139z" />
    <glyph glyph-name="question" unicode="?" horiz-adv-x="1134" 
d="M491 201h193v-201h-193v201zM608 1488q98 0 177.5 -29.5t136 -82.5t87.5 -126t31 -160q0 -54 -11 -96t-32 -75q-21 -32 -64.5 -81.5t-109.5 -112.5q-48 -46 -81 -87.5t-47 -72.5q-29 -66 -29 -189h-171q0 138 35 225q19 42 58 96t91 106l33 33h-1q33 33 60.5 63t47 60
t30 62.5t10.5 70.5q0 47 -14 91.5t-45 79t-80 55.5t-119 21q-66 0 -116.5 -18.5t-85.5 -57.5t-54 -100.5t-22 -147.5h-170q0 107 32 194.5t91 149.5t143 95.5t189 33.5z" />
    <glyph glyph-name="at" unicode="@" horiz-adv-x="2074" 
d="M1088 1060q-57 0 -109 -39t-91.5 -99t-63 -132t-23.5 -138q0 -50 12 -88.5t33 -65t49.5 -40t61.5 -13.5q141 0 216 160q38 82 57.5 152.5t19.5 136.5q0 30 -11 59.5t-32 53.5t-51 38.5t-68 14.5zM401 218q-182 209 -182 483q0 163 56 301.5t165 253.5v-1
q123 126 286.5 190.5t368.5 64.5q172 0 311 -44t237 -125.5t151 -196t53 -255.5q0 -227 -137 -391q-69 -81 -144 -119.5t-160 -39.5q-50 0 -86 12.5t-59 34.5t-34 50.5t-11 60.5q0 9 0.5 17.5t2.5 18.5l-8 3q-27 -54 -61 -92t-71.5 -61t-79 -33.5t-83.5 -10.5
q-61 0 -111.5 23.5t-86.5 65.5t-55.5 100t-19.5 127q0 66 16.5 128.5t45.5 118t68.5 102.5t84.5 80.5t94.5 52.5t99.5 19t92 -15.5t73 -41.5t50 -61t22 -74l9 -1q13 42 25 81.5t23 78.5h138l-131 -435q-14 -49 -20 -82t-9 -57q0 -47 28.5 -69t65.5 -22q57 0 110 32.5
t98 89.5q48 60 70 139.5t23 175.5q0 117 -43.5 210.5t-122.5 159t-190.5 100t-248.5 34.5q-174 0 -315 -51t-240 -144t-153 -222.5t-54 -287.5q0 -138 52 -253.5t147 -199t227.5 -130t292.5 -46.5q166 0 309 52.5t264 142.5q16 -22 31.5 -43t31.5 -43q-45 -38 -111 -75
t-157 -72q-179 -71 -394 -70q-419 0 -644 261z" />
    <glyph glyph-name="A" unicode="A" horiz-adv-x="1361" 
d="M913 597q-5 16 -17 49.5t-27.5 79.5t-34.5 99.5t-38 109t-37.5 109t-33.5 98.5t-26.5 78t-16.5 47q-6 -16 -18.5 -50t-29.5 -80t-37 -100t-40.5 -109t-40 -108.5t-35.5 -98.5t-28 -77.5t-17 -46.5h477zM580 1469h221q133 -367 266.5 -734t266.5 -735h-211l-149 442h-591
q-3 -8 -15 -41.5t-28.5 -80t-35.5 -99.5t-35.5 -99.5t-28.5 -80t-15 -41.5h-197z" />
    <glyph glyph-name="B" unicode="B" horiz-adv-x="1361" 
d="M703 845q157 0 234.5 57t77.5 181q0 59 -17.5 102t-55.5 71t-99 41t-147 13h-361v-465h368zM770 163q151 0 233.5 71.5t82.5 201.5q0 129 -85 192t-265 63h-401v-528h435zM147 1469h630q100 0 179.5 -25t135 -72t85 -114t29.5 -151q0 -107 -47.5 -184.5t-155.5 -131.5
q61 -25 106 -49.5t71 -50.5q98 -95 98 -264q0 -90 -35 -167.5t-101 -135.5t-160.5 -91t-214.5 -33h-620v1469z" />
    <glyph glyph-name="C" unicode="C" horiz-adv-x="1474" 
d="M1185 1034q-17 71 -50 128t-83.5 97t-120 62t-159.5 22q-108 0 -198.5 -38t-155 -115t-100.5 -195t-36 -279q0 -131 30.5 -239t91.5 -185t152 -119.5t212 -42.5q171 0 281 99.5t150 305.5h189q-13 -112 -58.5 -209.5t-114.5 -175.5q-87 -87 -207.5 -137.5t-263.5 -50.5
q-152 0 -274 53.5t-207.5 155t-131.5 248t-46 331.5q0 168 48.5 307.5t137.5 240t216 156.5t283 56q280 0 433 -147q151 -145 169 -329h-187z" />
    <glyph glyph-name="C" unicode="&#x216d;" horiz-adv-x="1474" 
d="M1185 1034q-17 71 -50 128t-83.5 97t-120 62t-159.5 22q-108 0 -198.5 -38t-155 -115t-100.5 -195t-36 -279q0 -131 30.5 -239t91.5 -185t152 -119.5t212 -42.5q171 0 281 99.5t150 305.5h189q-13 -112 -58.5 -209.5t-114.5 -175.5q-87 -87 -207.5 -137.5t-263.5 -50.5
q-152 0 -274 53.5t-207.5 155t-131.5 248t-46 331.5q0 168 48.5 307.5t137.5 240t216 156.5t283 56q280 0 433 -147q151 -145 169 -329h-187z" />
    <glyph glyph-name="D" unicode="D" horiz-adv-x="1474" 
d="M715 163q51 0 94 5t75 16q57 20 105.5 59t86.5 94q23 35 41.5 81t31.5 98t20.5 105.5t7.5 101.5q0 137 -26.5 245t-82.5 183t-144 114.5t-211 39.5h-359v-1142h361zM161 1469h594q144 0 259 -51t194.5 -144.5t122 -224.5t42.5 -292q0 -162 -42.5 -301t-123 -240
t-195.5 -158.5t-259 -57.5h-592v1469z" />
    <glyph glyph-name="D" unicode="&#x216e;" horiz-adv-x="1474" 
d="M715 163q51 0 94 5t75 16q57 20 105.5 59t86.5 94q23 35 41.5 81t31.5 98t20.5 105.5t7.5 101.5q0 137 -26.5 245t-82.5 183t-144 114.5t-211 39.5h-359v-1142h361zM161 1469h594q144 0 259 -51t194.5 -144.5t122 -224.5t42.5 -292q0 -162 -42.5 -301t-123 -240
t-195.5 -158.5t-259 -57.5h-592v1469z" />
    <glyph glyph-name="E" unicode="E" horiz-adv-x="1361" 
d="M171 1469h1069v-173h-882v-456h815v-163h-815v-509h897v-168h-1084v1469z" />
    <glyph glyph-name="F" unicode="F" horiz-adv-x="1246" 
d="M171 1469h1017v-173h-825v-456h725v-168h-725v-672h-192v1469z" />
    <glyph glyph-name="G" unicode="G" horiz-adv-x="1588" 
d="M1144 1428q109 -58 175 -155.5t92 -242.5h-191q-19 81 -57.5 139t-94.5 96t-128 56t-159 18q-101 0 -190 -38t-155.5 -114.5t-105 -192t-38.5 -271.5q0 -131 28 -241t88 -189.5t154 -123.5t226 -44q100 0 185 28t147 88t98.5 155t38.5 228h-462v158h641v-782h-122
l-49 193q-51 -57 -98 -96.5t-86 -62.5q-63 -37 -148 -55t-185 -18q-132 0 -243.5 42.5t-205.5 126.5q-99 106 -152 252t-53 330q0 178 50.5 324.5t141.5 251.5t218.5 162.5t281.5 57.5q106 0 194.5 -20.5t163.5 -59.5z" />
    <glyph glyph-name="H" unicode="H" horiz-adv-x="1474" 
d="M157 1469h194v-610h776v610h194v-1469h-194v691h-776v-691h-194v1469z" />
    <glyph glyph-name="I" unicode="I" horiz-adv-x="564" 
d="M199 1469h195v-1469h-195v1469z" />
    <glyph glyph-name="J" unicode="J" horiz-adv-x="1019" 
d="M870 436q0 -125 -27 -215t-81.5 -147.5t-137.5 -85t-195 -27.5q-81 0 -153 23t-129 65q-55 46 -85 127.5t-30 190.5v101h179v-101q0 -124 54.5 -185t171.5 -61q79 0 133 29t80 83q17 35 24 98.5t7 156.5v981h189v-1033z" />
    <glyph glyph-name="K" unicode="K" horiz-adv-x="1361" 
d="M152 1469h187v-726l726 726h265l-610 -590q14 -20 45 -64t73.5 -103.5t93 -130t102.5 -143.5t102 -143l92.5 -129.5t74 -103t45.5 -62.5h-250l-518 743l-80 -76q-41 -39 -81.5 -77.5t-79.5 -76.5v-513h-187v1469z" />
    <glyph glyph-name="K" unicode="&#x212a;" horiz-adv-x="1361" 
d="M152 1469h187v-726l726 726h265l-610 -590q14 -20 45 -64t73.5 -103.5t93 -130t102.5 -143.5t102 -143l92.5 -129.5t74 -103t45.5 -62.5h-250l-518 743l-80 -76q-41 -39 -81.5 -77.5t-79.5 -76.5v-513h-187v1469z" />
    <glyph glyph-name="L" unicode="L" horiz-adv-x="1134" 
d="M153 1469h191v-1301h748v-168h-939v1469z" />
    <glyph glyph-name="L" unicode="&#x216c;" horiz-adv-x="1134" 
d="M153 1469h191v-1301h748v-168h-939v1469z" />
    <glyph glyph-name="M" unicode="M" horiz-adv-x="1701" 
d="M146 1469h280l427 -1259q5 16 23.5 72t46.5 138.5t62 184t70 208t71.5 211.5t65.5 194t52.5 155.5t32.5 95.5h277v-1469h-182v868q0 20 0.5 58.5t1.5 88.5t1.5 107.5t0.5 115.5l-9 2q-9 -28 -30 -90t-49 -146t-62 -183t-68.5 -201.5t-68.5 -201.5t-62 -182.5t-49 -145.5
t-30 -90h-193l-422 1240l-9 -2v-42q0 -24 1 -69.5t1.5 -95t1.5 -95t1 -68.5v-868h-183v1469z" />
    <glyph glyph-name="M" unicode="&#x216f;" horiz-adv-x="1701" 
d="M146 1469h280l427 -1259q5 16 23.5 72t46.5 138.5t62 184t70 208t71.5 211.5t65.5 194t52.5 155.5t32.5 95.5h277v-1469h-182v868q0 20 0.5 58.5t1.5 88.5t1.5 107.5t0.5 115.5l-9 2q-9 -28 -30 -90t-49 -146t-62 -183t-68.5 -201.5t-68.5 -201.5t-62 -182.5t-49 -145.5
t-30 -90h-193l-422 1240l-9 -2v-42q0 -24 1 -69.5t1.5 -95t1.5 -95t1 -68.5v-868h-183v1469z" />
    <glyph glyph-name="N" unicode="N" horiz-adv-x="1474" 
d="M152 1469h230l752 -1205v1205h182v-1469h-218l-763 1204v-1204h-183v1469z" />
    <glyph glyph-name="O" unicode="O" horiz-adv-x="1588" 
d="M1310 757q0 130 -35.5 237t-102 183.5t-161.5 119t-214 42.5q-113 0 -209 -39.5t-165.5 -118t-109 -195.5t-39.5 -272q0 -246 125 -416q126 -170 406 -170q266 0 385 191q60 97 90 204.5t30 233.5zM1361 1260q73 -99 109.5 -221.5t36.5 -278.5q0 -161 -44.5 -300.5
t-122.5 -247.5q-100 -127 -238.5 -191t-320.5 -64q-169 0 -302.5 57.5t-230.5 165.5q-82 108 -127.5 246t-45.5 301q0 147 39.5 276.5t108.5 234.5q47 59 108.5 109t133.5 86t153 56.5t167 20.5q389 0 576 -250z" />
    <glyph glyph-name="P" unicode="P" horiz-adv-x="1361" 
d="M950 1274q-65 31 -185 31h-402v-520h402q68 0 124 13.5t97 44.5t63.5 81.5t22.5 124.5q0 164 -122 224v1zM171 1469h661q98 0 178 -28t137 -82t88 -132t31 -177q0 -172 -107 -300q-105 -126 -327 -126h-469v-624h-192v1469z" />
    <glyph glyph-name="Q" unicode="Q" horiz-adv-x="1588" 
d="M860 302q25 29 49 58.5t48 58.5l194 -149q46 54 77.5 114.5t47.5 123.5q17 66 26 127.5t8 121.5q0 130 -35.5 237t-102 183.5t-161.5 119t-214 42.5t-215.5 -38t-165 -115.5t-105.5 -195t-37 -276.5q0 -133 34 -241t101 -184.5t166.5 -118.5t230.5 -42q63 0 118.5 9.5
t100.5 35.5zM1494 -1q-25 -29 -48.5 -58t-48.5 -58l-227 174q-81 -45 -178.5 -72.5t-209.5 -27.5q-170 0 -304.5 57.5t-231.5 165.5q-81 109 -126 246.5t-45 300.5q0 147 39.5 276.5t108.5 234.5q47 59 108.5 109t133.5 86t153 56.5t167 20.5q172 0 306.5 -52t226.5 -149.5
t140.5 -236t48.5 -312.5q0 -140 -35 -274q-26 -97 -73.5 -181.5t-108.5 -147.5z" />
    <glyph glyph-name="R" unicode="R" horiz-adv-x="1474" 
d="M834 793q71 0 128 13t97.5 43.5t62.5 81t22 125.5q0 127 -68.5 188t-214.5 61h-493v-512h466zM176 1469h679q243 0 363 -101.5t120 -291.5q0 -131 -56 -216.5t-158 -138.5q44 -18 77 -41t56 -55.5t36 -77t16 -104.5l7 -197q2 -52 7 -89t14.5 -63t23.5 -42t33 -25v-27
h-237q-6 12 -10 24.5t-7 29.5t-5 43t-4 65l-12 246q-4 61 -20.5 104t-50 70t-87.5 39t-134 12h-459v-633h-192v1469z" />
    </font>
</defs>
</svg>
