<?xml version="1.0" standalone="no"?>
<!DOCTYPE svg PUBLIC "-//W3C//DTD SVG 1.1//EN" "http://www.w3.org/Graphics/SVG/1.1/DTD/svg11.dtd" >
<svg xmlns="http://www.w3.org/2000/svg" xmlns:xlink="http://www.w3.org/1999/xlink" version="1.1">
<metadata>
Created by FontForge 20150824 at Mon Feb 15 22:43:53 2016
 By Everything Fonts
(c) by Abolfazl Seilsepour - +98 912 591 3420  -  seilsepor@yahoo.com
</metadata>
<defs>
<font id="badr" horiz-adv-x="0" >
  <font-face 
    font-family="badr"
    font-weight="400"
    font-stretch="normal"
    units-per-em="2010"
    panose-1="0 0 4 0 0 0 0 0 0 0"
    ascent="1608"
    descent="-402"
    bbox="-177 -1266 2042 2024"
    underline-thickness="60"
    underline-position="-1000"
    unicode-range="U+0020-FEFC"
  />
<missing-glyph horiz-adv-x="1005" 
d="M126 0v1181h753v-1181h-753zM251 126h503v929h-503v-929z" />
    <glyph glyph-name="uE818" unicode="&#x651;&#x64b;" 
d="M392 1485q0 -165 -102 -165q-34 0 -63 21q-8 -34 -38 -59.5t-64 -25.5q-80 0 -80 106q0 22 21 99l23 4q0 -109 38 -109q63 0 89 159l17 6q23 -96 57 -96q57 0 66 144l22 10q14 -54 14 -94zM400 1955q0 -66 -34 -85l-297 -169q5 65 64 99zM400 1810q0 -65 -34 -84
l-297 -169q5 65 64 99z" />
    <glyph glyph-name="uFC5E" unicode="&#x651;&#x64c;" arabic-form="isolated" 
d="M439 1519q0 -165 -102 -165q-34 0 -63 21q-8 -34 -38 -59.5t-64 -25.5q-80 0 -80 106q0 22 21 99l23 4q0 -109 38 -109q63 0 89 159l17 6q23 -96 57 -96q57 0 66 144l22 10q14 -54 14 -94zM483 1765q0 -35 -2 -58q-39 20 -90 58q-122 -127 -235 -143q42 90 42 127
q0 54 -48 54q-42 0 -48 -75q-10 31 -10 51q0 41 20 72q23 36 62 36q73 0 66 -98l-6 -90q64 24 122 88q-65 43 -65 92t35 95q38 50 85 50q24 0 45.5 -27t21.5 -52q0 -29 -11 -57l-22 -55q38 -29 38 -68zM409 1906q0 52 -40 52q-26 0 -26 -23q0 -24 62 -67q4 11 4 38z" />
    <glyph glyph-name="uFC5F" unicode="&#x651;&#x64d;" arabic-form="isolated" 
d="M410 1786q0 -165 -102 -165q-34 0 -63 21q-8 -34 -38 -59.5t-64 -25.5q-80 0 -80 106q0 22 21 99l23 4q0 -109 38 -109q63 0 89 159l17 6q23 -96 57 -96q57 0 66 144l22 10q14 -54 14 -94zM422 1581q0 -66 -34 -85l-297 -169q5 65 64 99zM422 1436q0 -65 -34 -84
l-297 -169q5 65 64 99z" />
    <glyph glyph-name="uFC60" unicode="&#x651;&#x64e;" arabic-form="isolated" 
d="M440 1492q0 -165 -102 -165q-34 0 -63 21q-8 -34 -38 -59.5t-64 -25.5q-80 0 -80 106q0 22 21 99l23 4q0 -109 38 -109q63 0 89 159l17 6q23 -96 57 -96q57 0 66 144l22 10q14 -54 14 -94zM432 1834q0 -65 -34 -84l-297 -169q5 65 64 99z" />
    <glyph glyph-name="uFC61" unicode="&#x651;&#x64f;" arabic-form="isolated" 
d="M425 1483q0 -165 -102 -165q-34 0 -63 21q-8 -34 -38 -59.5t-64 -25.5q-80 0 -80 106q0 22 21 99l23 4q0 -109 38 -109q63 0 89 159l17 6q23 -96 57 -96q57 0 66 144l22 10q14 -54 14 -94zM369 1762l-8 -98l-78 51q-118 -141 -193 -141q-19 0 -58 12q100 56 209 153
q-60 44 -60 88q0 59 44 123q29 42 70 42q66 0 66 -86q0 -47 -30 -115q14 -10 38 -29zM301 1848q0 22 -15.5 41t-36.5 19q-18 0 -18 -20q0 -30 64 -73q6 19 6 33z" />
    <glyph glyph-name="uFC62" unicode="&#x651;&#x650;" arabic-form="isolated" 
d="M402 1639q0 -165 -102 -165q-34 0 -63 21q-8 -34 -38 -59q-54 -46 -64 -46q-80 0 -80 126q0 22 21 99l23 4q0 -109 38 -109q63 0 89 159l17 6q23 -96 57 -96q57 0 66 144l22 10q14 -54 14 -94zM410 1429q0 -66 -34 -85l-297 -169q5 65 64 99z" />
    <glyph glyph-name="uFDF2" unicode="&#xfedf;&#xfee0;&#xfeea;" horiz-adv-x="1115" arabic-form="isolated" 
d="M844 1309q0 -50 -39 -131q-7 -14 -14 -14q-10 0 -5 19q6 23 6 52q0 82 -41 146l41 76q52 -44 52 -148zM978 1047q0 -158 -107 -158q-53 0 -70 24q-51 -56 -119 -56q-74 0 -71 69q2 54 42 127q9 16 20 16q11 -2 8 -22q-2 -11 -9 -33t-7 -37q0 -38 39 -38q59 0 79 46
q2 4 18 72q9 36 29 36q8 0 8 -24q0 -11 -1 -34l-1 -23q-2 -45 48 -45q28 0 44 24q20 31 -6 98l38 43q18 -31 18 -85zM1184 208q0 -57 -31 -124q-38 -83 -95 -83q-72 0 -130 50q-41 35 -58 74q-64 -158 -195 -158q-144 0 -161 213q-1 18 -14 2q-43 -54 -101 -68
q-27 -6 -103 2q-72 8 -104 18q-14 6 -2 32q59 127 322 298q13 72 27 107l29 40q4 -125 18 -324q6 -84 23 -121q24 -52 85 -52q53 0 96 37.5t47 89.5q2 26 -24 180l-27 160q0 76 48 136q10 -33 51 -252q14 -77 29 -155q25 -92 82 -127q40 -25 79 -25q32 0 32 27t-46 190
q-55 195 -65 242q23 58 54 122q19 -54 55 -183q79 -283 79 -348zM513 382q-137 -79 -183 -124q30 -15 94 -11q73 4 88 22z" />
    <glyph glyph-name="uFEF5" unicode="&#xfedf;&#xfe82;" horiz-adv-x="1240" arabic-form="isolated" 
d="M1228 1028q0 -26 -23.5 -80t-32.5 -50q-23 9 -24 -2q-20 -195 -37 -283q-21 -107 -73 -249q6 -8 29 -61q32 -73 32 -169q0 -82 -22 -106q-12 -13 -74 -20q-104 -12 -195 -12q-54 0 -65 3q-31 8 -36 43q-6 41 0 102q2 20 11 20q4 0 19 -12.5t31 -12.5q64 0 136 108
q54 81 54 95q0 3 -1 4q-184 282 -416 453q-8 6 -16 6q-6 0 -26 -10.5t-30 -10.5t-23 7q-167 93 -167 146q0 25 12 71q17 65 39 65q65 0 216 -129q111 -95 187 -182q22 -25 269 -330q29 57 49 211q19 144 19 264q0 87 -13 99q-9 9 -8 26q2 33 60 154q19 40 37 32q6 -3 -2 -83
q-2 -20 41 -58.5t43 -48.5zM1045 168q-6 59 -52 106q-57 -97 -88 -120q53 0 140 14zM631 1339q-40 -122 -116 -122q-50 0 -148.5 20t-148.5 20q-24 0 -60 -29l-36 -28q-6 0 -1 26q8 38 37 73q41 49 105 49q38 0 116 -20.5t119 -20.5q80 0 123 52v0q4 5 9 7t6 -3q1 -6 -5 -24
z" />
    <glyph glyph-name="uFEF6" unicode="&#xfee0;&#xfe82;" horiz-adv-x="1330" arabic-form="final" 
d="M1360 1h-63q-167 0 -210 286l-47 319q-19 -88 -38 -172q-40 -171 -108 -299q-110 -207 -469 -245q-19 -2 -28 -2q-40 0 -40 15q0 19 56 37q214 69 374 236q72 75 72 117q0 141 -121 297q-28 36 -121 120q-102 92 -126 92q-14 0 -44.5 -14t-43.5 -14q-28 0 -97.5 63.5
t-69.5 91.5q0 19 14 70q17 61 33 61q40 0 120 -44q133 -73 297 -240q197 -200 204 -429q40 64 63 209q19 120 19 220q0 94 -19 228q-6 41 54 165q15 31 21 31q7 0 13 -50q27 -227 67 -499q24 -162 63 -362q25 -130 133 -130h42v-158zM631 1339q-40 -122 -116 -122
q-50 0 -148.5 20t-148.5 20q-24 0 -60 -29l-36 -28q-6 0 -1 26q8 38 37 73q41 49 105 49q38 0 116 -20.5t119 -20.5q80 0 123 52v0q4 5 9 7t6 -3q1 -6 -5 -24z" />
    <glyph glyph-name="uFEF7" unicode="&#xfedf;&#xfe84;" horiz-adv-x="1060" arabic-form="isolated" 
d="M1058 1028q0 -26 -23.5 -80t-32.5 -50q-23 9 -24 -2q-20 -195 -37 -283q-21 -107 -73 -249q6 -8 29 -61q32 -73 32 -169q0 -82 -22 -106q-12 -13 -74 -20q-104 -12 -195 -12q-54 0 -65 3q-31 8 -36 43q-6 41 0 102q2 20 11 20q4 0 19 -12.5t31 -12.5q64 0 136 108
q54 81 54 95q0 3 -1 4q-184 282 -416 453q-8 6 -16 6q-6 0 -26 -10.5t-30 -10.5t-23 7q-167 93 -167 146q0 25 12 71q17 65 39 65q65 0 216 -129q111 -95 187 -182q22 -25 269 -330q29 57 49 211q19 144 19 264q0 87 -13 99q-9 9 -8 26q2 33 60 154q19 40 37 32q6 -3 -2 -83
q-2 -20 41 -58.5t43 -48.5zM875 168q-6 59 -52 106q-57 -97 -88 -120q54 0 140 14zM409 1357q7 2 7 -9q0 -10 -7 -33q-7 -26 -13 -27q-56 -13 -149 -41q-49 -15 -113 -57q-18 -12 -31 -12q-14 0 -14 11q0 15 46 55q34 30 38 37q-69 39 -69 73q0 46 63 106q70 66 146 66
q39 0 39 -50q0 -48 -40 -48q-2 0 -25 11.5t-41 11.5q-17 0 -39 -13q-25 -14 -25 -30q0 -69 104 -69q53 0 123 18z" />
    <glyph glyph-name="uFEF8" unicode="&#xfee0;&#xfe84;" horiz-adv-x="1190" arabic-form="final" 
d="M1220 1h-63q-167 0 -210 286l-47 319q-19 -88 -38 -172q-40 -171 -108 -299q-110 -207 -469 -245q-19 -2 -28 -2q-40 0 -40 15q0 19 56 37q214 69 374 236q72 75 72 117q0 141 -121 297q-28 36 -121 120q-102 92 -126 92q-14 0 -44.5 -14t-43.5 -14q-28 0 -97.5 63.5
t-69.5 91.5q0 19 14 70q17 61 33 61q40 0 120 -44q133 -73 297 -240q197 -200 204 -429q40 64 63 209q19 120 19 220q0 94 -19 228q-6 41 54 165q15 31 21 31q7 0 13 -50q27 -227 67 -499q24 -162 63 -362q25 -130 133 -130h42v-158zM409 1357q7 2 7 -9q0 -10 -7 -33
q-7 -26 -13 -27q-56 -13 -149 -41q-49 -15 -113 -57q-18 -12 -31 -12q-14 0 -14 11q0 15 46 55q34 30 38 37q-69 39 -69 73q0 46 63 106q70 66 146 66q39 0 39 -50q0 -48 -40 -48q-2 0 -25 11.5t-41 11.5q-17 0 -39 -13q-25 -14 -25 -30q0 -69 104 -69q53 0 123 18z" />
    <glyph glyph-name="uFEF9" unicode="&#xfedf;&#xfe88;" horiz-adv-x="1060" arabic-form="isolated" 
d="M1058 1028q0 -26 -23.5 -80t-32.5 -50q-23 9 -24 -2q-20 -195 -37 -283q-21 -107 -73 -249q6 -8 29 -61q32 -73 32 -169q0 -82 -22 -106q-12 -13 -74 -20q-104 -12 -195 -12q-54 0 -65 3q-31 8 -36 43q-6 41 0 102q2 20 11 20q4 0 19 -12.5t31 -12.5q64 0 136 108
q54 81 54 95q0 3 -1 4q-184 282 -416 453q-8 6 -16 6q-6 0 -26 -10.5t-30 -10.5t-23 7q-167 93 -167 146q0 25 12 71q17 65 39 65q65 0 216 -129q111 -95 187 -182q22 -25 269 -330q29 57 49 211q19 144 19 264q0 87 -13 99q-9 9 -8 26q2 33 60 154q19 40 37 32q6 -3 -2 -83
q-2 -20 41 -58.5t43 -48.5zM875 168q-6 59 -52 106q-57 -97 -88 -120q54 0 140 14zM655 -261q7 2 7 -9q0 -10 -7 -33q-7 -26 -13 -27q-56 -13 -149 -41q-49 -15 -113 -57q-18 -12 -31 -12q-14 0 -14 11q0 15 46 55q34 30 38 37q-69 39 -69 73q0 46 63 106q70 66 146 66
q39 0 39 -50q0 -48 -40 -48q-2 0 -25 11.5t-41 11.5q-17 0 -39 -13q-25 -14 -25 -30q0 -69 104 -69q53 0 123 18z" />
    <glyph glyph-name="uFEFA" unicode="&#xfee0;&#xfe88;" horiz-adv-x="1190" arabic-form="final" 
d="M1220 1h-63q-167 0 -210 286l-47 319q-19 -88 -38 -172q-40 -171 -108 -299q-110 -207 -469 -245q-19 -2 -28 -2q-40 0 -40 15q0 19 56 37q214 69 374 236q72 75 72 117q0 141 -121 297q-28 36 -121 120q-102 92 -126 92q-14 0 -44.5 -14t-43.5 -14q-28 0 -97.5 63.5
t-69.5 91.5q0 19 14 70q17 61 33 61q40 0 120 -44q133 -73 297 -240q197 -200 204 -429q40 64 63 209q19 120 19 220q0 94 -19 228q-6 41 54 165q15 31 21 31q7 0 13 -50q27 -227 67 -499q24 -162 63 -362q25 -130 133 -130h42v-158zM665 -341q7 2 7 -9q0 -10 -7 -33
q-7 -26 -13 -27q-56 -13 -149 -41q-49 -15 -113 -57q-18 -12 -31 -12q-14 0 -14 11q0 15 46 55q34 30 38 37q-69 39 -69 73q0 46 63 106q70 66 146 66q39 0 39 -50q0 -48 -40 -48q-2 0 -25 11.5t-41 11.5q-17 0 -39 -13q-25 -14 -25 -30q0 -69 104 -69q53 0 123 18z" />
    <glyph glyph-name="uFEFB" unicode="&#xfedf;&#xfe8e;" horiz-adv-x="1060" arabic-form="isolated" 
d="M1058 1028q0 -26 -23.5 -80t-32.5 -50q-23 9 -24 -2q-20 -195 -37 -283q-21 -107 -73 -249q6 -8 29 -61q32 -73 32 -169q0 -82 -22 -106q-12 -13 -74 -20q-104 -12 -195 -12q-54 0 -65 3q-31 8 -36 43q-6 41 0 102q2 20 11 20q4 0 19 -12.5t31 -12.5q64 0 136 108
q54 81 54 95q0 3 -1 4q-184 282 -416 453q-8 6 -16 6q-6 0 -26 -10.5t-30 -10.5t-23 7q-167 93 -167 146q0 25 12 71q17 65 39 65q65 0 216 -129q111 -95 187 -182q22 -25 269 -330q29 57 49 211q19 144 19 264q0 87 -13 99q-9 9 -8 26q2 33 60 154q19 40 37 32q6 -3 -2 -83
q-2 -20 41 -58.5t43 -48.5zM875 168q-6 59 -52 106q-57 -97 -88 -120q54 0 140 14z" />
    <glyph glyph-name="uFEFC" unicode="&#xfee0;&#xfe8e;" horiz-adv-x="1190" arabic-form="final" 
d="M1220 1h-63q-167 0 -210 286l-47 319q-19 -88 -38 -172q-40 -171 -108 -299q-110 -207 -469 -245q-19 -2 -28 -2q-40 0 -40 15q0 19 56 37q214 69 374 236q72 75 72 117q0 141 -121 297q-28 36 -121 120q-102 92 -126 92q-14 0 -44.5 -14t-43.5 -14q-28 0 -97.5 63.5
t-69.5 91.5q0 19 14 70q17 61 33 61q40 0 120 -44q133 -73 297 -240q197 -200 204 -429q40 64 63 209q19 120 19 220q0 94 -19 228q-6 41 54 165q15 31 21 31q7 0 13 -50q27 -227 67 -499q24 -162 63 -362q25 -130 133 -130h42v-158z" />
    <glyph glyph-name="u0622" unicode="&#x622;" horiz-adv-x="570" arabic-form="isolated" 
d="M450 266q0 -162 -43 -249q-16 -32 -22 -32q-5 0 -4 34q4 147 -33 539q-40 426 -41 513q0 21 60 147q6 12 10 13q10 0 15 -78l8 -144q6 -78 32 -402q18 -227 18 -341zM611 1549q-40 -122 -116 -122q-50 0 -148.5 20t-148.5 20q-24 0 -60 -29l-36 -28q-6 0 -1 26
q8 38 37 73q41 49 105 49q38 0 116 -20.5t119 -20.5q80 0 123 52v0q4 5 9 7t6 -3q1 -6 -5 -24z" />
    <glyph glyph-name="u0623" unicode="&#x623;" horiz-adv-x="431" arabic-form="isolated" 
d="M393 266q0 -162 -43 -249q-16 -32 -22 -32q-5 0 -4 34q4 147 -33 539q-40 426 -41 513q0 21 60 147q6 12 10 13q10 0 15 -78l8 -144q6 -78 32 -402q18 -227 18 -341zM453 1525q7 2 7 -9q0 -10 -7 -33q-7 -26 -13 -27q-56 -13 -149 -41q-49 -15 -113 -57q-18 -12 -31 -12
q-14 0 -14 11q0 14 46 54q33 29 38 38q-69 39 -69 73q0 46 63 106q70 66 146 66q39 0 39 -50q0 -48 -40 -48q-2 0 -25 11.5t-41 11.5q-17 0 -39 -13q-25 -14 -25 -30q0 -69 104 -69q53 0 123 18z" />
    <glyph glyph-name="u0624" unicode="&#x624;" horiz-adv-x="750" arabic-form="isolated" 
d="M748 157q0 -110 -72 -241q-60 -109 -136 -183q-99 -96 -210 -96q-92 0 -222 80q-12 7 -12 18q0 13 22 11q54 -5 93 -5q115 0 217 54q62 33 156 137q99 110 110 169q0 37 -21 59q-13 -37 -45 -70q-41 -42 -88 -42q-55 0 -91 39.5t-36 95.5q0 69 45 169q51 116 110 116
q57 0 116 -94q64 -101 64 -217zM626 237q0 21 -26.5 53.5t-47.5 32.5q-18 0 -39 -22.5t-21 -40.5q0 -75 62 -75q25 0 48.5 14.5t23.5 37.5zM673 849q7 2 7 -9q0 -10 -7 -33q-7 -26 -13 -27q-56 -13 -149 -41q-49 -15 -113 -57q-18 -12 -31 -12q-14 0 -14 11q0 15 46 55
q34 30 38 37q-69 39 -69 73q0 46 63 106q70 66 146 66q39 0 39 -50q0 -48 -40 -48q-2 0 -25 11.5t-41 11.5q-17 0 -39 -13q-25 -14 -25 -30q0 -69 104 -69q53 0 123 18z" />
    <glyph glyph-name="u0625" unicode="&#x625;" horiz-adv-x="492" arabic-form="isolated" 
d="M413 266q0 -162 -43 -249q-16 -32 -22 -32q-5 0 -4 34q4 147 -33 539q-40 426 -41 513q0 21 60 147q6 12 10 13q10 0 15 -78l8 -144q6 -78 32 -402q18 -227 18 -341zM491 -279q7 2 7 -9q0 -10 -7 -33q-7 -26 -13 -27q-56 -13 -149 -41q-49 -15 -113 -57q-18 -12 -31 -12
q-14 0 -14 11q0 14 46 54q33 29 38 38q-69 39 -69 73q0 46 63 106q70 66 146 66q39 0 39 -50q0 -48 -40 -48q-2 0 -25 11.5t-41 11.5q-17 0 -39 -13q-25 -14 -25 -30q0 -69 104 -69q53 0 123 18z" />
    <glyph glyph-name="u0626" unicode="&#x626;" horiz-adv-x="1243" arabic-form="isolated" 
d="M1241 579q0 -12 -25 -61.5t-30 -49.5q26 0 -28.5 23t-72.5 23q-54 0 -166 -90q-113 -93 -113 -144q0 -62 75 -89q45 -16 152 -27q99 -10 117 -21q41 -25 41 -94q0 -188 -296 -326q-169 -79 -369 -79q-169 0 -259 104q-86 98 -86 269q0 82 43 184q30 70 57 105
q12 15 21 15q7 0 7 -9q0 -5 -5 -14q-62 -113 -62 -222q0 -135 106 -210q93 -65 234 -65q168 0 289 45q203 75 250 153q5 9 0 13q-6 6 -25 5q-79 -2 -155 7q-200 25 -200 155q0 137 148 317q39 47 109 101q89 68 139 68q29 0 66.5 -29t37.5 -57zM522 631q7 2 7 -9
q0 -10 -7 -33q-7 -26 -13 -27q-56 -13 -149 -41q-49 -15 -113 -57q-18 -12 -31 -12q-14 0 -14 11q0 14 46 54q33 29 38 38q-69 39 -69 73q0 46 63 106q70 66 146 66q39 0 39 -50q0 -48 -40 -48q-2 0 -25 11.5t-41 11.5q-17 0 -39 -13q-25 -14 -25 -30q0 -69 104 -69
q53 0 123 18z" />
    <glyph glyph-name="u0627" unicode="&#x627;" horiz-adv-x="325" arabic-form="isolated" 
d="M324 266q0 -162 -43 -249q-16 -32 -22 -32q-5 0 -4 34q4 147 -33 539q-40 426 -41 513q0 21 60 147q6 12 10 13q10 0 15 -78l8 -144q6 -78 32 -402q18 -227 18 -341z" />
    <glyph glyph-name="u0628" unicode="&#x628;" horiz-adv-x="1432" arabic-form="isolated" 
d="M1431 318q0 -101 -48 -163q-78 -101 -313 -161q-188 -48 -357 -48h-132q-155 0 -262 53q-138 68 -138 208q0 59 26 126q27 72 68 108q14 12 22 12t8 -9q0 -8 -6 -19q-40 -76 -40 -142q0 -104 183 -152q119 -31 264 -31q331 0 574 97q90 36 90 52q0 31 -121 152l50 116
q7 16 20 4q112 -106 112 -203zM898 -305l-100 -120l-125 99l100 120z" />
    <glyph glyph-name="u0629" unicode="&#x629;" horiz-adv-x="568" arabic-form="isolated" 
d="M573 794l-97 -89l-98 87l98 90zM359 792l-98 -91l-97 89l98 91zM564 237q0 -120 -29 -162q-52 -74 -178 -74q-156 0 -156 132q0 147 90 241l-23 14q3 17 28.5 73.5t31.5 56.5q36 0 122 -71q114 -94 114 -210zM502 201q0 35 -65 84q-50 38 -105 63q-52 -65 -52 -138
q0 -56 73 -56q149 0 149 47z" />
    <glyph glyph-name="u062A" unicode="&#x62a;" horiz-adv-x="1432" arabic-form="isolated" 
d="M953 707l-98 -90l-97 88l98 89zM740 705l-100 -91l-96 88l99 91zM1431 318q0 -101 -48 -163q-78 -101 -313 -161q-188 -48 -357 -48h-132q-155 0 -262 53q-138 68 -138 208q0 59 26 126q27 72 68 108q14 12 22 12t8 -9q0 -8 -6 -19q-40 -76 -40 -142q0 -104 183 -152
q119 -31 264 -31q331 0 574 97q90 36 90 52q0 31 -121 152l50 116q7 16 20 4q112 -106 112 -203z" />
    <glyph glyph-name="u062B" unicode="&#x62b;" horiz-adv-x="1430" arabic-form="isolated" 
d="M884 809l-89 -83l-91 83l91 82zM997 659l-88 -83l-90 83l90 83zM781 659l-90 -83l-89 83l89 83zM1431 318q0 -101 -48 -163q-78 -101 -313 -161q-188 -48 -357 -48h-132q-155 0 -262 53q-138 68 -138 208q0 59 26 126q27 72 68 108q14 12 22 12t8 -9q0 -8 -6 -19
q-40 -76 -40 -142q0 -104 183 -152q119 -31 264 -31q331 0 574 97q90 36 90 52q0 31 -121 152l50 116q7 16 20 4q112 -106 112 -203z" />
    <glyph glyph-name="u062C" unicode="&#x62c;" horiz-adv-x="1145" arabic-form="isolated" 
d="M797 -277l-100 -120l-125 99l100 120zM1314 -675q-4 -1 -244 -106q-108 -47 -272 -47q-617 0 -617 443q0 178 92 348q56 102 159 190q17 14 121 96l-123 9q-106 8 -162 -71q-29 -41 -42 -41q-7 0 -7 12q0 19 15 61q67 187 239 187q55 0 165.5 -10.5t165.5 -10.5
q123 0 227 13q38 5 38 -7q-1 -7 -7 -24q-22 -62 -53 -131q-404 0 -592 -211q-138 -155 -138 -356q0 -340 578 -340q266 0 443 23q41 5 41 -7q0 -10 -27 -20z" />
    <glyph glyph-name="u062D" unicode="&#x62d;" horiz-adv-x="1126" arabic-form="isolated" 
d="M1314 -675q-4 -1 -244 -106q-108 -47 -272 -47q-617 0 -617 443q0 178 92 348q56 102 159 190q17 14 121 96l-123 9q-106 8 -162 -71q-29 -41 -42 -41q-7 0 -7 12q0 19 15 61q67 187 239 187q55 0 165.5 -10.5t165.5 -10.5q123 0 227 13q38 5 38 -7q-1 -7 -7 -24
q-22 -62 -53 -131q-404 0 -592 -211q-138 -155 -138 -356q0 -340 578 -340q266 0 443 23q41 5 41 -7q0 -10 -27 -20z" />
    <glyph glyph-name="u062E" unicode="&#x62e;" horiz-adv-x="1145" arabic-form="isolated" 
d="M747 783l-100 -120l-125 99l100 120zM1314 -675q-4 -1 -244 -106q-108 -47 -272 -47q-617 0 -617 443q0 178 92 348q56 102 159 190q17 14 121 96l-123 9q-106 8 -162 -71q-29 -41 -42 -41q-7 0 -7 12q0 18 15 60q67 188 239 188q55 0 165.5 -10.5t165.5 -10.5
q123 0 227 13q38 5 38 -7q-1 -7 -7 -24q-22 -62 -53 -131q-404 0 -592 -211q-138 -155 -138 -356q0 -340 578 -340q266 0 443 23q41 5 41 -7q0 -10 -27 -20z" />
    <glyph glyph-name="u062F" unicode="&#x62f;" horiz-adv-x="683" arabic-form="isolated" 
d="M682 295q0 -46 -13 -113q-15 -79 -38 -104q-36 -40 -152 -61q-87 -16 -169 -16q-129 0 -129 82q0 37 17 109q7 30 25 9q23 -27 27 -29q23 -13 95 -13q52 0 152 15q119 19 119 38q0 99 -97 194q-100 96 -159 107q30 152 36 152q53 -3 158 -107q128 -127 128 -263z" />
    <glyph glyph-name="u0630" unicode="&#x630;" horiz-adv-x="683" arabic-form="isolated" 
d="M682 295q0 -46 -13 -113q-15 -79 -38 -104q-36 -40 -152 -61q-87 -16 -169 -16q-129 0 -129 82q0 37 17 109q7 30 25 9q23 -27 27 -29q23 -13 95 -13q52 0 152 15q119 19 119 38q0 99 -97 194q-100 96 -159 107q30 152 36 152q53 -3 158 -107q128 -127 128 -263z
M492 1013l-100 -120l-125 99l100 120z" />
    <glyph glyph-name="u0631" unicode="&#x631;" horiz-adv-x="742" arabic-form="isolated" 
d="M740 154q0 -166 -119 -331q-129 -178 -289 -178q-101 0 -226 66q-10 5 -9 17q0 12 9 12h76q204 0 358 160q142 148 142 237q0 51 -136 160q8 50 27 145q60 -34 105 -97q62 -86 62 -191z" />
    <glyph glyph-name="u0632" unicode="&#x632;" horiz-adv-x="744" arabic-form="isolated" 
d="M617 758l-100 -120l-125 99l100 120zM740 154q0 -166 -119 -331q-129 -178 -289 -178q-101 0 -226 66q-10 5 -9 17q0 12 9 12h76q204 0 358 160q142 148 142 237q0 51 -136 160q8 50 27 145q60 -34 105 -97q62 -86 62 -191z" />
    <glyph glyph-name="u0633" unicode="&#x633;" horiz-adv-x="1691" arabic-form="isolated" 
d="M1690 286q0 -85 -26 -157q-36 -99 -105 -99q-133 0 -231 69q-113 -108 -199 -108q-27 0 -59 9q0 -144 -57 -254q-35 -67 -140 -134q-146 -93 -332 -93q-133 0 -230 57q-130 77 -130 235q0 191 103 313q9 11 15 13q6 3 7 -4q1 -8 -36 -107q-24 -64 -24 -119
q0 -230 334 -230q105 0 241 38q178 50 178 125q0 131 -48 224l-54 84q11 21 59 116q12 24 24 9q40 -51 70 -87q40 -37 107 -37q82 0 153 68q9 15 32 74q20 51 42 51q11 0 5 -44q-7 -48 2 -56q30 -26 89.5 -48.5t99.5 -22.5q37 0 50 16q3 3 3 10q0 27 -26 94q-3 4 25 42
q26 35 39 48q19 -42 19 -95z" />
    <glyph glyph-name="u0634" unicode="&#x634;" horiz-adv-x="1692" arabic-form="isolated" 
d="M1475 774l-89 -82l-91 82l91 83zM1589 625l-89 -82l-90 82l90 83zM1372 625l-90 -82l-88 82l88 83zM1690 286q0 -85 -26 -157q-36 -99 -105 -99q-133 0 -231 69q-113 -108 -199 -108q-27 0 -59 9q0 -144 -57 -254q-35 -67 -140 -134q-146 -93 -332 -93q-132 0 -229 57
q-131 77 -131 235q0 191 103 313q9 11 15 13q6 3 7 -4q1 -8 -36 -107q-24 -64 -24 -119q0 -230 334 -230q105 0 241 38q178 50 178 125q0 131 -48 224l-54 84q11 21 59 116q12 24 24 9q40 -51 70 -87q40 -37 107 -37q82 0 153 68q9 15 32 74q20 51 42 51q11 0 5 -44
q-7 -48 2 -56q30 -26 89.5 -48.5t99.5 -22.5q37 0 50 16q3 3 3 10q0 27 -26 94q-3 4 25 42q26 35 39 48q19 -42 19 -95z" />
    <glyph glyph-name="u0635" unicode="&#x635;" horiz-adv-x="1960" arabic-form="isolated" 
d="M1857 347q-60 73 -179 73q-143 0 -409 -266q34 -3 67 -3q139 0 285 53q115 42 159 70q36 23 77 73zM1159 -2q-61 0 -89 10q0 -147 -57 -255q-36 -68 -140 -134q-146 -92 -332 -92q-133 0 -229 56q-131 77 -131 236q0 190 104 313q9 11 15 13t7 -5q1 -8 -36 -107
q-24 -65 -24 -119q0 -230 333 -230q105 0 241 38q179 50 179 126q0 130 -49 224q-27 41 -54 83q2 4 60 117q11 22 23 8l70 -86q41 -36 108 -36q42 0 107 69q122 129 173 174q189 166 303 166q216 0 216 -140q0 -84 -76 -180q-86 -109 -223 -164q-211 -85 -499 -85z" />
    <glyph glyph-name="u0636" unicode="&#x636;" horiz-adv-x="1980" arabic-form="isolated" 
d="M1532 823l-100 -120l-125 99l100 120zM1857 347q-60 73 -179 73q-143 0 -409 -266q34 -3 67 -3q139 0 285 53q115 42 159 70q36 23 77 73zM1159 -2q-61 0 -89 10q0 -147 -57 -255q-36 -68 -140 -134q-146 -92 -332 -92q-133 0 -229 56q-131 77 -131 236q0 190 104 313
q9 11 15 13t7 -5q1 -8 -36 -107q-24 -65 -24 -119q0 -230 333 -230q105 0 241 38q179 50 179 126q0 130 -49 224q-27 41 -54 83q2 4 60 117q11 22 23 8l70 -86q41 -36 108 -36q42 0 107 69q122 129 173 174q189 166 303 166q216 0 216 -140q0 -84 -76 -180
q-86 -109 -223 -164q-211 -85 -499 -85z" />
    <glyph glyph-name="u0637" unicode="&#x637;" horiz-adv-x="1277" arabic-form="isolated" 
d="M1274 427q0 -69 -37 -134q-100 -177 -303 -244q-146 -48 -398 -48q-111 0 -212 45q-85 38 -130 89q-12 14 -12 22q0 11 24 11q11 0 99 -4q70 -3 106 -1q98 6 170 75q33 32 39 45q11 24 9 147q-3 204 -56 606q-57 79 -57 104q0 15 30 89l42 103q3 11 14 10q11 -2 13 -13
q3 -60 6 -76q6 -32 25 -48l51 -22q27 -12 23 -43q-15 -106 -26 -122q-16 -22 -38 -4l32 -248q17 -146 17 -250q0 -100 -14 -181l155 134q113 98 215 98q72 0 136 -34q77 -41 77 -106zM1175 341q-53 47 -100 61q-37 11 -114 11q-73 0 -210 -110q-13 -10 -161 -144
q29 -1 58 -1q220 0 384 79q114 55 143 104z" />
    <glyph glyph-name="u0638" unicode="&#x638;" horiz-adv-x="1278" arabic-form="isolated" 
d="M1102 883l-100 -120l-125 99l100 120zM1274 427q0 -69 -37 -134q-100 -177 -303 -244q-146 -48 -398 -48q-111 0 -212 45q-85 38 -130 89q-12 14 -12 22q0 11 24 11q11 0 99 -4q70 -3 106 -1q98 6 170 75q33 32 39 45q11 24 9 147q-3 204 -56 606q-57 79 -57 104
q0 15 30 89l42 103q3 11 14 10q11 -2 13 -13q3 -60 6 -76q6 -32 25 -48l51 -22q27 -12 23 -43q-15 -106 -26 -122q-16 -22 -38 -4l32 -248q17 -146 17 -250q0 -100 -14 -181l155 134q113 98 215 98q72 0 136 -34q77 -41 77 -106zM1175 341q-53 47 -100 61q-37 11 -114 11
q-73 0 -210 -110q-13 -10 -161 -144q29 -1 58 -1q220 0 384 79q114 55 143 104z" />
    <glyph glyph-name="u0639" unicode="&#x639;" horiz-adv-x="950" arabic-form="isolated" 
d="M1283 -672q-134 -54 -286 -109q-69 -25 -224 -25q-285 0 -428 107q-164 122 -164 398q0 227 145 433q26 37 56 78q-4 3 -48 32q-136 89 -136 192q0 49 14 92q41 126 81 172q52 60 152 60q89 0 200 -72q12 -8 8 -20q-5 -13 -26 -9q-38 8 -76 8q-106 0 -209 -59
q-79 -45 -79 -92q0 -59 99 -117q86 -50 153 -58q42 -5 55 3l270 163q50 30 56 30q5 -3 -12 -74q-6 -25 -29 -83q-199 -89 -343 -202q-249 -195 -249 -414q0 -194 143 -306q125 -97 328 -115q109 -10 382 6q95 5 156 15q13 2 24 2q25 0 25 -10q0 -11 -38 -26z" />
    <glyph glyph-name="u063A" unicode="&#x63a;" horiz-adv-x="970" arabic-form="isolated" 
d="M502 1038l-100 -120l-125 99l100 120zM1283 -672q-134 -54 -286 -109q-69 -25 -224 -25q-285 0 -428 107q-164 122 -164 398q0 227 145 433q26 37 56 78q-4 3 -48 32q-136 89 -136 192q0 49 14 92q41 126 81 172q52 60 152 60q89 0 200 -72q12 -8 8 -20q-5 -13 -26 -9
q-38 8 -76 8q-106 0 -209 -59q-79 -45 -79 -92q0 -59 99 -117q86 -50 153 -58q42 -5 55 3l270 163q50 30 56 30q5 -3 -12 -74q-6 -25 -29 -83q-199 -89 -343 -202q-249 -195 -249 -414q0 -194 143 -306q125 -97 328 -115q109 -10 382 6q95 5 156 15q13 2 24 2q25 0 25 -10
q0 -11 -38 -26z" />
    <glyph glyph-name="u0641" unicode="&#x641;" horiz-adv-x="1392" arabic-form="isolated" 
d="M1389 341q0 -45 -17 -114q-19 -78 -42 -106q-30 -36 -157 -81q-98 -35 -176 -52q-208 -46 -364 -46q-83 0 -188 21q-129 26 -172 66q-92 86 -92 175q0 117 73 212q31 40 42 40q6 0 6 -12q0 -10 -7 -23q-36 -69 -36 -122q0 -202 440 -202q168 0 383 44q244 50 244 106
q0 36 -31 92q-62 -84 -129 -84q-64 0 -106 33q-46 35 -46 97q0 79 48 168q55 102 129 102q76 0 141 -122q57 -107 57 -192zM1248 434q0 21 -31 55.5t-51 34.5q-31 0 -63 -37q-20 -23 -20 -38q0 -28 28 -48q25 -17 55 -17q22 0 50 14q32 17 32 36zM1227 968l-100 -120
l-125 99l100 120z" />
    <glyph glyph-name="u0642" unicode="&#x642;" horiz-adv-x="1111" arabic-form="isolated" 
d="M1067 682l-98 -90l-98 87l99 90zM853 679l-99 -90l-96 88l98 91zM1110 21q0 -92 -27 -159q-45 -112 -230 -199q-168 -79 -302 -79q-197 0 -294 110q-76 87 -76 215q0 164 108 321q24 35 38 28q7 -4 -45 -150q-26 -71 -26 -123q0 -117 92 -184q82 -60 203 -60
q222 0 425 130q97 62 88 100q-12 49 -56 109q-20 -22 -41 -44q-41 -34 -101 -34q-58 0 -96 43.5t-38 101.5q0 68 43 163q52 114 118 114q86 0 155 -145q62 -131 62 -258zM964 192q0 26 -32 54t-58 28q-22 0 -47 -22.5t-25 -44.5q0 -64 58 -64q29 0 61 11q43 15 43 38z" />
    <glyph glyph-name="u0643" unicode="&#x643;" horiz-adv-x="1436" arabic-form="isolated" 
d="M1589 1216q5 2 5 -13q0 -17 -10 -71q-10 -57 -19 -60q-18 -6 -225 -114q-214 -112 -257 -141q-82 -56 -82 -73q18 -15 96 -67q116 -77 169 -126q70 -65 95 -112q34 -63 34 -155q0 -97 -36 -150q-67 -99 -373 -167q-184 -41 -383 -41q-166 0 -275 51q-147 69 -147 216
q0 120 86 221q17 20 27 20q8 0 8 -11t-10 -31q-35 -71 -35 -129q0 -107 183 -154q114 -29 263 -29q190 0 318 28q338 74 338 166q0 59 -157 167q-31 21 -169 109q-76 62 -76 161q0 140 121 224q167 116 511 281z" />
    <glyph glyph-name="u0644" unicode="&#x644;" horiz-adv-x="937" arabic-form="isolated" 
d="M936 1039q0 -34 -47 -141l-37 12q67 -593 67 -791q0 -174 -140 -282q-128 -99 -307 -99q-139 0 -215 77.5t-76 216.5q0 128 77 237q19 27 29 27q6 0 6 -9q0 -11 -8 -29q-41 -92 -41 -168q0 -96 93 -151q78 -46 181 -46q78 0 192 33q144 42 142 99q-7 178 -45 522l-41 376
q-2 21 -25 66q-21 40 -19 46q17 35 61 129q32 69 45 69q21 0 16 -85q-3 -11 16 -32.5t32 -26.5q44 -19 44 -50z" />
    <glyph glyph-name="u0645" unicode="&#x645;" horiz-adv-x="686" arabic-form="isolated" 
d="M684 346q0 -20 -65 -139q-88 0 -206 -18q-167 -26 -167 -67q0 -115 31.5 -344.5t31.5 -344.5q0 -181 -34 -181q-11 0 -18 80q-3 36 -11 129q-3 34 -66 542q0 183 104 257q46 33 216 78q-16 21 -56 42t-66 21q-30 0 -86 -35q-6 -3 -10 -3q-12 0 -12 22q0 21 54 90
q62 79 110 79q47 0 148.5 -82t101.5 -126z" />
    <glyph glyph-name="u0646" unicode="&#x646;" horiz-adv-x="933" arabic-form="isolated" 
d="M932 -1q0 -164 -147 -269q-132 -94 -305 -94q-132 0 -212 63q-87 70 -87 198q0 74 34 163q16 43 51 102q26 44 35 44q5 0 5 -14q0 -8 -5 -19q-56 -125 -56 -205q0 -100 104 -146q77 -34 191 -34q105 0 221 55q109 52 109 88q0 100 -121 316l25 83q13 44 22 44q8 0 31 -32
q105 -148 105 -343zM618 573l-100 -120l-125 99l100 120z" />
    <glyph glyph-name="u0647" unicode="&#x647;" horiz-adv-x="545" arabic-form="isolated" 
d="M544 237q0 -120 -29 -162q-52 -74 -178 -74q-156 0 -156 132q0 147 90 241l-23 14q3 17 28.5 73.5t31.5 56.5q36 0 122 -71q114 -94 114 -210zM482 201q0 35 -65 84q-50 38 -105 63q-52 -65 -52 -138q0 -56 73 -56q149 0 149 47z" />
    <glyph glyph-name="u0648" unicode="&#x648;" horiz-adv-x="750" arabic-form="isolated" 
d="M748 157q0 -110 -72 -241q-60 -109 -136 -183q-99 -96 -210 -96q-92 0 -222 80q-12 7 -12 18q0 13 22 11q54 -5 93 -5q115 0 217 54q62 33 156 137q99 110 110 169q0 37 -21 59q-13 -37 -45 -70q-41 -42 -88 -42q-55 0 -91 39.5t-36 95.5q0 69 45 169q51 116 110 116
q57 0 116 -94q64 -101 64 -217zM626 237q0 21 -26.5 53.5t-47.5 32.5q-18 0 -39 -22.5t-21 -40.5q0 -75 62 -75q25 0 48.5 14.5t23.5 37.5z" />
    <glyph glyph-name="u0649" unicode="&#x649;" horiz-adv-x="1243" arabic-form="isolated" 
d="M1241 579q0 -12 -25 -61.5t-30 -49.5q26 0 -28.5 23t-72.5 23q-54 0 -166 -90q-113 -93 -113 -144q0 -62 75 -89q45 -16 152 -27q99 -10 117 -21q41 -25 41 -94q0 -188 -296 -326q-169 -79 -369 -79q-169 0 -259 104q-86 98 -86 269q0 82 43 184q30 70 57 105
q12 15 21 15q7 0 7 -9q0 -5 -5 -14q-62 -113 -62 -222q0 -135 106 -210q93 -65 234 -65q168 0 289 45q203 75 250 153q5 9 0 13q-6 6 -25 5q-79 -2 -155 7q-200 25 -200 155q0 137 148 317q39 47 109 101q89 68 139 68q29 0 66.5 -29t37.5 -57z" />
    <glyph glyph-name="u064A" unicode="&#x64a;" horiz-adv-x="1243" arabic-form="isolated" 
d="M1241 579q0 -12 -25 -61.5t-30 -49.5q26 0 -28.5 23t-72.5 23q-54 0 -166 -90q-113 -93 -113 -144q0 -62 75 -89q45 -16 152 -27q99 -10 117 -21q41 -25 41 -94q0 -188 -296 -326q-169 -79 -369 -79q-169 0 -259 104q-86 98 -86 269q0 82 43 184q30 70 57 105
q12 15 21 15q7 0 7 -9q0 -5 -5 -14q-62 -113 -62 -222q0 -135 106 -210q93 -65 234 -65q168 0 289 45q203 75 250 153q5 9 0 13q-6 6 -25 5q-79 -2 -155 7q-200 25 -200 155q0 137 148 317q39 47 109 101q89 68 139 68q29 0 66.5 -29t37.5 -57z" />
    <glyph glyph-name="u067E" unicode="&#x67e;" horiz-adv-x="1430" arabic-form="isolated" 
d="M949 -315l-90 -83l-89 83l89 81zM732 -315l-91 -83l-88 83l88 81zM846 -465l-90 -83l-90 83l90 83zM1431 318q0 -101 -48 -163q-78 -101 -313 -161q-188 -48 -357 -48h-132q-155 0 -262 53q-138 68 -138 208q0 59 26 126q27 72 68 108q14 12 22 12t8 -9q0 -8 -6 -19
q-40 -76 -40 -142q0 -104 183 -152q119 -31 264 -31q331 0 574 97q90 36 90 52q0 31 -121 152l50 116q7 16 20 4q112 -106 112 -203z" />
    <glyph glyph-name="u0686" unicode="&#x686;" horiz-adv-x="1145" arabic-form="isolated" 
d="M891 -245l-90 -83l-90 83l90 82zM674 -245l-90 -83l-89 83l89 82zM787 -395l-89 -82l-89 82l89 83zM1314 -675q-4 -1 -244 -106q-108 -47 -272 -47q-617 0 -617 443q0 178 92 348q56 102 159 190q17 14 121 96l-123 9q-106 8 -162 -71q-29 -41 -42 -41q-7 0 -7 12
q0 18 15 60q67 188 239 188q55 0 165.5 -10.5t165.5 -10.5q123 0 227 13q38 5 38 -7q-1 -7 -7 -24q-22 -62 -53 -131q-404 0 -592 -211q-138 -155 -138 -356q0 -340 578 -340q266 0 443 23q41 5 41 -7q0 -10 -27 -20z" />
    <glyph glyph-name="u0698" unicode="&#x698;" horiz-adv-x="744" arabic-form="isolated" 
d="M594 840l-89 -84l-90 84l90 83zM708 690l-89 -82l-91 82l91 83zM491 690l-90 -82l-89 82l89 83zM740 154q0 -166 -119 -331q-129 -178 -289 -178q-101 0 -226 66q-10 5 -9 17q0 12 9 12h76q204 0 358 160q142 148 142 237q0 51 -136 160q8 50 27 145q60 -34 105 -97
q62 -86 62 -191z" />
    <glyph glyph-name="u06AF" unicode="&#x6af;" horiz-adv-x="1602" arabic-form="isolated" 
d="M1624 1430v-44q-9 -49 -19 -54q-259 -140 -583 -308l-2 43q5 48 13 52q34 16 591 311zM1021 108q328 72 328 166q0 64 -156 167q-223 147 -233 156q-20 18 -12 114q11 134 130 217q138 96 511 279q5 2 5 -12q0 -17 -10 -66q-11 -54 -19 -57q-19 -7 -225 -114
q-214 -112 -257 -141q-82 -56 -82 -73q16 -14 96 -67q115 -77 169 -126q75 -69 95 -104q34 -59 34 -163q0 -97 -36 -150q-67 -99 -373 -167q-180 -40 -383 -40q-165 0 -275 51q-147 68 -147 215q0 120 86 221q17 20 27 20q8 0 8 -11t-10 -31q-35 -71 -35 -129
q0 -107 183 -154q114 -29 263 -29q190 0 318 28z" />
    <glyph glyph-name="uFB57" unicode="&#x67e;" horiz-adv-x="1492" arabic-form="final" 
d="M948 -319l-89 -83l-90 83l90 81zM731 -319l-91 -83l-89 83l89 81zM845 -469l-90 -83l-90 83l90 83zM1522 1h-57q-57 0 -104.5 38.5t-63.5 93.5q-121 -99 -310 -154q-171 -50 -345 -50q-178 0 -297 51q-164 70 -164 225q0 145 90 234q13 13 21 9q9 -3 3 -18l-24 -58
q-16 -39 -16 -77q0 -208 459 -208q303 0 507 118q56 33 117 86q17 15 24 15q10 0 1 -35q-3 -12 -3 -24q0 -88 137 -88h25v-158z" />
    <glyph glyph-name="uFB58" unicode="&#x67e;" horiz-adv-x="399" arabic-form="initial" 
d="M405 -280l-89 -83l-89 83l89 83zM189 -280l-90 -83l-89 83l89 83zM303 -429l-91 -82l-88 82l88 83zM281 252q0 -151 -78 -209q-57 -42 -175 -42h-58v158h80q175 0 173 32q-3 50 -75 140l41 121q8 24 21 12q3 -3 5 -6q66 -92 66 -206z" />
    <glyph glyph-name="uFB59" unicode="&#x67e;" horiz-adv-x="458" arabic-form="medial" 
d="M431 -272l-88 -83l-90 83l90 83zM215 -272l-90 -83l-90 83l90 83zM329 -421l-90 -83l-89 83l89 83zM488 1h-62q-145 0 -212 118q-73 -118 -182 -118h-62v158h38q95 0 117 5q50 11 74 58l48 96q7 14 18 14q14 0 9 -19q-39 -154 181 -154h33v-158z" />
    <glyph glyph-name="uFB7B" unicode="&#x686;" horiz-adv-x="1175" arabic-form="final" 
d="M894 -232l-89 -83l-90 83l90 83zM678 -232l-91 -83l-88 83l88 83zM791 -381l-90 -82l-89 82l89 82zM1316 -654q-110 -51 -247 -108q-113 -47 -273 -47q-615 0 -615 471q0 380 368 625q-80 8 -117 8q-104 0 -181 -84q-15 -16 -25 -23q-9 -4 -10 5q-1 7 5 27
q64 222 244 222q58 0 173.5 -11t173.5 -11q88 0 215 15q27 3 33 1q6 -3 2 -19q-7 -27 -55 -140q-43 -2 -98 -5q-2 -18 -2 -32q0 -81 68 -81h209v-158h-95q-110 0 -161 24q-78 37 -78 137q0 25 9 104q-287 -18 -452 -213q-127 -150 -127 -336q0 -368 575 -368q276 0 441 22
q44 6 44 -7q0 -11 -24 -18z" />
    <glyph glyph-name="uFB7C" unicode="&#x686;" horiz-adv-x="1018" arabic-form="initial" 
d="M772 -245l-88 -83l-90 83l90 82zM556 -245l-90 -83l-90 83l90 82zM670 -395l-90 -82l-89 82l89 83zM1011 285q-25 -86 -47 -103q-50 -40 -164 -33q-138 8 -179 -6l-175 -61q-141 -48 -169 -55q-105 -26 -241 -26h-66v158h106q148 0 289 30q55 12 232 63q-218 96 -287 96
q-54 0 -101 -32q-41 -28 -54 -28q-8 0 -8 9q0 19 38 85q64 110 167 110q54 0 169 -57q141 -70 169 -79q136 -44 233 -44q28 0 54 4q40 6 40 -6q0 -4 -6 -25z" />
    <glyph glyph-name="uFB7D" unicode="&#x686;" horiz-adv-x="1058" arabic-form="medial" 
d="M724 -249l-89 -83l-90 83l90 83zM508 -249l-91 -83l-88 83l88 83zM621 -398l-90 -83l-89 83l89 82zM1088 1h-105q-193 0 -208 137l-2 96q-89 -5 -367 -137q-107 -51 -149 -65q-92 -31 -195 -31h-92v158h94q156 0 289 51q26 10 212 85q-217 69 -280 69q-48 0 -92 -30
q-50 -34 -55 -32q-3 1 -3 8q0 29 33 86q69 119 162 119q54 0 163 -41q132 -50 164 -57q121 -27 262 -17q10 1 17 1q19 1 23 -5q3 -6 -1 -29q-14 -85 -30 -113q-36 -2 -107 -13q0 -82 77 -82h190v-158z" />
    <glyph glyph-name="uFB8B" unicode="&#x698;" horiz-adv-x="816" arabic-form="final" 
d="M699 615l-89 -82l-90 82l90 83zM814 467l-90 -83l-89 83l89 82zM597 467l-91 -83l-89 83l89 82zM846 1h-63q-37 -152 -122 -286q-51 -80 -129 -134q-88 -61 -173 -61q-77 0 -247 89q-19 10 -19 20q0 12 23 12q26 0 78.5 -4.5t78.5 -4.5q110 0 199 59q59 39 151 151
q97 118 98 166q-21 15 -110 93q16 51 42 123q87 -65 161 -65h32v-158z" />
    <glyph glyph-name="uFEDA" unicode="&#x6a9;" horiz-adv-x="1813" arabic-form="final" 
d="M1843 1h-63q-62 0 -187 135q-167 181 -223 221q8 -18 8 -77q0 -166 -333 -288q-210 -77 -451 -77q-165 0 -274 56q-139 71 -139 222q0 103 87 210q17 21 27 21q7 0 7 -10q0 -9 -23.5 -66.5t-23.5 -89.5q0 -108 169 -156q106 -30 251 -30q242 0 450 78q67 25 129 64
q76 48 76 78q0 89 -236 206q-130 64 -163 102q-21 24 -19 101q3 115 167 240q127 97 338 196q39 18 280 128q5 2 5 -13q0 -19 -10 -70q-11 -57 -20 -60q-13 -4 -296 -150q-293 -151 -329 -175q-78 -52 -78 -76q0 -10 58 -38l152 -73q57 -27 223 -136q69 -45 263 -226
q16 -16 59 -58q33 -31 78 -31h41v-158z" />
    <glyph glyph-name="uFEDB" unicode="&#x6a9;" horiz-adv-x="545" arabic-form="initial" 
d="M705 1216q7 3 7 -12t-13 -72t-19 -60q-17 -5 -225 -114q-216 -113 -257 -141q-79 -54 -79 -68q14 -11 87 -58q106 -68 178 -128q126 -106 126 -279q0 -96 -37 -150q-27 -40 -98 -75q-117 -58 -286 -58h-119v158h114q102 0 216 22q170 33 170 93q0 75 -139 175
q-64 43 -229 157q-29 20 -29 105q0 140 120 224q145 101 512 281z" />
    <glyph glyph-name="uFEDC" unicode="&#x6a9;" horiz-adv-x="960" arabic-form="medial" 
d="M990 1h-67q-75 0 -206 137q-200 209 -222 228q11 -26 11 -111q0 -254 -363 -254h-173v158h155q320 0 320 119q0 67 -29 100q-56 64 -182 132l-141 75q-51 40 -45 133q9 126 102 192q58 41 336 192q254 138 340 179q4 2 4 -12q0 -23 -9 -72q-11 -58 -19 -61
q-21 -7 -298 -149q-282 -144 -328 -175q-79 -52 -79 -76q0 -10 58 -36q119 -54 154 -71q94 -46 229 -150q46 -35 260 -231q25 -23 61 -58q42 -31 97 -31h34v-158z" />
    <glyph glyph-name="uFB93" unicode="&#x6af;" horiz-adv-x="1822" arabic-form="final" 
d="M1755 1486v-44q-9 -49 -19 -54q-409 -213 -739 -374l-2 44q4 48 12 52zM1134 150q65 24 127 64q76 48 76 78q0 79 -239 201q-124 63 -159 104q-25 29 -12 120q9 65 40 104q15 19 85 80q86 75 653 355q5 2 5 -13q0 -17 -10 -66q-11 -53 -18 -55q-59 -20 -343 -170
q-325 -172 -361 -231q243 -102 435 -247q77 -58 260 -226q17 -17 63 -58q36 -31 82 -31h34v-158h-53q-68 0 -195 135q-170 181 -226 221q13 -27 13 -83q0 -161 -337 -285q-201 -74 -451 -74q-165 0 -277 56q-145 73 -145 222q0 103 87 210q17 21 27 21q7 0 7 -10
q0 -9 -23.5 -66.5t-23.5 -89.5q0 -108 169 -156q106 -30 251 -30q251 0 459 78z" />
    <glyph glyph-name="uFB94" unicode="&#x6af;" horiz-adv-x="693" arabic-form="initial" 
d="M736 1433q0 -23 -1 -46q-8 -49 -18 -55q-298 -165 -582 -308q-1 22 -3 44q5 47 12 51q185 99 592 314zM701 1207q5 2 5 -12q0 -15 -10 -66q-11 -54 -19 -57q-124 -41 -486 -260q-53 -32 -69 -66q144 -75 259 -183q69 -65 93 -112q33 -65 33 -167q0 -96 -37 -150
q-27 -40 -98 -75q-117 -58 -286 -58h-116v158h111q104 0 213 20q167 31 167 91q0 72 -136 167q-19 13 -225 148q-17 11 -25 49q-7 33 -4 57q12 83 25 119q22 58 74 95q58 41 263 156.5t268 145.5z" />
    <glyph glyph-name="uFB95" unicode="&#x6af;" horiz-adv-x="964" arabic-form="medial" 
d="M878 1500q0 -22 -1 -44q-8 -48 -18 -53q-218 -119 -743 -379l-2 44q5 48 12 52zM994 1h-70q-71 0 -202 137q-194 203 -226 228q15 -32 15 -101q0 -264 -367 -264h-174v158h156q319 0 319 119q0 67 -29 100q-54 62 -181 128q-144 75 -167 94q-29 24 -18 118
q13 117 109 184q57 40 333 190q261 142 336 178q5 2 5 -12q0 -18 -10 -66q-11 -53 -19 -56q-99 -33 -317 -147q-205 -108 -308 -177q-79 -53 -79 -76q0 -10 57 -36q125 -57 153 -71q209 -105 490 -381q91 -89 152 -89h42v-158z" />
    <glyph glyph-name="uFE94" unicode="&#x6c0;" horiz-adv-x="799" arabic-form="final" 
d="M736 932l-98 -90l-97 88l98 90zM523 930l-100 -90l-96 88l99 90zM808 1h-80q-82 0 -129 97q-25 72 -51 143q-55 -68 -66 -77q-48 -39 -121 -39q-180 0 -180 45q0 42 67 133q33 45 137 118q90 63 122 76l-20 114q22 46 37 90q8 24 13 25q4 -3 7 -18q58 -291 90 -425
q16 -67 42 -93q30 -31 95 -31h37v-158zM542 295l-22 104q-22 0 -106 -51q-80 -48 -102 -71q21 -13 91 -13q81 0 139 31z" />
    <glyph glyph-name="uFEF2" unicode="&#x6cc;" horiz-adv-x="1191" arabic-form="final" 
d="M1221 1h-73q-148 0 -227 -41q-29 -15 -29 -25q0 -11 29 -17q74 -15 172 -40q43 -11 59 -35q9 -14 9 -51q0 -130 -240 -254q-188 -97 -393 -97q-160 0 -252 87q-95 89 -95 248q0 74 38.5 164.5t91.5 138.5q10 9 17 6t-1 -17q-72 -129 -72 -243q0 -123 120 -182
q92 -45 229 -45q246 0 417 117q18 12 18 22q0 11 -18 15q-48 9 -174 38q-102 25 -102 98q0 113 161 198q138 73 263 73h52v-158z" />
    <glyph glyph-name="uFEF3" unicode="&#x6cc;" horiz-adv-x="399" arabic-form="initial" 
d="M419 -208l-97 -90l-98 88l98 89zM206 -210l-99 -91l-97 89l99 90zM281 252q0 -151 -78 -209q-57 -42 -175 -42h-58v158h80q175 0 173 32q-3 50 -75 140l41 121q8 24 21 12q3 -3 5 -6q66 -92 66 -206z" />
    <glyph glyph-name="uFEF4" unicode="&#x6cc;" horiz-adv-x="458" arabic-form="medial" 
d="M425 -220l-97 -90l-98 87l98 90zM212 -223l-100 -90l-95 89l98 90zM488 1h-62q-145 0 -212 118q-73 -118 -182 -118h-62v158h38q95 0 117 5q50 11 74 58l48 96q7 14 18 14q14 0 9 -19q-5 -22 -5 -42q0 -112 186 -112h33v-158z" />
    <glyph glyph-name="Hcircumflex" unicode="&#x622;" horiz-adv-x="695" arabic-form="final" 
d="M728 1h-63q-149 0 -213 113q-45 78 -63 262l-42 417q-21 204 -47 264q24 46 68 155q7 18 15 18q7 0 9 -18l104 -876q21 -177 181 -177h51v-158zM621 1549q-40 -122 -116 -122q-50 0 -148.5 20t-148.5 20q-24 0 -60 -29l-36 -28q-6 0 -1 26q8 38 37 73q41 49 105 49
q38 0 116 -20.5t119 -20.5q80 0 123 52v0q4 5 9 7t6 -3q1 -6 -5 -24z" />
    <glyph glyph-name="uFE84" unicode="&#x623;" horiz-adv-x="666" arabic-form="final" 
d="M698 1h-63q-149 0 -213 113q-45 78 -63 262l-42 417q-21 204 -47 264q24 46 68 155q7 18 15 18q7 0 9 -18l104 -876q21 -177 181 -177h51v-158zM453 1525q7 2 7 -9q0 -10 -7 -33q-7 -26 -13 -27q-56 -13 -149 -41q-49 -15 -113 -57q-18 -12 -31 -12q-14 0 -14 11
q0 14 46 54q33 29 38 38q-69 39 -69 73q0 46 63 106q70 66 146 66q39 0 39 -50q0 -48 -40 -48q-2 0 -25 11.5t-41 11.5q-17 0 -39 -13q-25 -14 -25 -30q0 -69 104 -69q53 0 123 18z" />
    <glyph glyph-name="uFE86" unicode="&#x624;" horiz-adv-x="864" arabic-form="final" 
d="M889 0h-100q-6 -48 -47 -134q-38 -81 -72 -124q-133 -168 -282 -168q-144 0 -279 101q-13 10 -13 21q0 16 22 12q88 -17 154 -17q149 0 256 79q45 33 104 98q76 83 85 132q-128 -1 -167 8q-112 26 -112 110q0 60 58 154q66 108 136 108q66 0 118 -99q36 -69 43 -122h96
v-159zM699 147q-20 104 -92 104q-62 0 -87 -75q20 -43 94 -43q50 0 85 14zM721 753q7 2 7 -9q0 -10 -7 -33q-7 -26 -13 -27q-56 -13 -149 -41q-49 -15 -113 -57q-18 -12 -31 -12q-14 0 -14 11q0 14 46 54q33 29 38 38q-69 39 -69 73q0 46 63 106q70 66 146 66q39 0 39 -50
q0 -48 -40 -48q-2 0 -25 11.5t-41 11.5q-17 0 -39 -13q-25 -14 -25 -30q0 -69 104 -69q53 0 123 18z" />
    <glyph glyph-name="uFE88" unicode="&#x625;" horiz-adv-x="666" arabic-form="final" 
d="M698 1h-63q-149 0 -213 113q-45 78 -63 262l-42 417q-21 204 -47 264q24 46 68 155q7 18 15 18q7 0 9 -18l104 -876q21 -177 181 -177h51v-158zM581 -279q7 2 7 -9q0 -10 -7 -33q-7 -26 -13 -27q-56 -13 -149 -41q-49 -15 -113 -57q-18 -12 -31 -12q-14 0 -14 11
q0 14 46 54q33 29 38 38q-69 39 -69 73q0 46 63 106q70 66 146 66q39 0 39 -50q0 -48 -40 -48q-2 0 -25 11.5t-41 11.5q-17 0 -39 -13q-25 -14 -25 -30q0 -69 104 -69q53 0 123 18z" />
    <glyph glyph-name="uFE8A" unicode="&#x626;" horiz-adv-x="1191" arabic-form="final" 
d="M1221 1h-73q-148 0 -227 -41q-29 -15 -29 -25q0 -11 29 -17q74 -15 172 -40q43 -11 59 -35q9 -14 9 -51q0 -130 -240 -254q-188 -97 -393 -97q-160 0 -252 87q-95 89 -95 248q0 74 38.5 164.5t91.5 138.5q10 9 17 6t-1 -17q-72 -129 -72 -243q0 -123 120 -182
q92 -45 229 -45q246 0 417 117q18 12 18 22q0 11 -18 15q-48 9 -174 38q-102 25 -102 98q0 113 161 198q138 73 263 73h52v-158zM522 361q7 2 7 -9q0 -10 -7 -33q-7 -26 -13 -27q-56 -13 -149 -41q-49 -15 -113 -57q-18 -12 -31 -12q-14 0 -14 11q0 14 46 54q33 29 38 38
q-69 39 -69 73q0 46 63 106q70 66 146 66q39 0 39 -50q0 -48 -40 -48q-2 0 -25 11.5t-41 11.5q-17 0 -39 -13q-25 -14 -25 -30q0 -69 104 -69q53 0 123 18z" />
    <glyph glyph-name="uFE8B" unicode="&#x626;" horiz-adv-x="338" arabic-form="initial" 
d="M281 252q0 -151 -78 -209q-57 -42 -175 -42h-58v158h80q175 0 173 32q-3 50 -75 140l41 121q8 24 21 12q3 -3 5 -6q66 -92 66 -206zM361 849q7 2 7 -9q0 -10 -7 -33q-7 -26 -13 -27q-56 -13 -149 -41q-49 -15 -113 -57q-18 -12 -31 -12q-14 0 -14 11q0 15 46 55
q34 30 38 37q-69 39 -69 73q0 46 63 106q70 66 146 66q39 0 39 -50q0 -48 -40 -48q-2 0 -25 11.5t-41 11.5q-17 0 -39 -13q-25 -14 -25 -30q0 -69 104 -69q53 0 123 18z" />
    <glyph glyph-name="uFE8C" unicode="&#x626;" horiz-adv-x="458" arabic-form="medial" 
d="M488 1h-62q-145 0 -212 118q-73 -118 -182 -118h-62v158h38q95 0 117 5q50 11 74 58l48 96q7 14 18 14q14 0 9 -19q-5 -22 -5 -42q0 -112 186 -112h33v-158zM413 725q7 2 7 -9q0 -10 -7 -33q-7 -26 -13 -27q-56 -13 -149 -41q-49 -15 -113 -57q-18 -12 -31 -12
q-14 0 -14 11q0 15 46 55q34 30 38 37q-69 39 -69 73q0 46 63 106q70 66 146 66q39 0 39 -50q0 -48 -40 -48q-2 0 -25 11.5t-41 11.5q-17 0 -39 -13q-25 -14 -25 -30q0 -69 104 -69q53 0 123 18z" />
    <glyph glyph-name="uFE8E" unicode="&#x627;" horiz-adv-x="578" arabic-form="final" 
d="M608 1h-63q-149 0 -213 113q-45 78 -63 262l-42 417q-21 204 -47 264q24 46 68 155q7 18 15 18q7 0 9 -18l104 -876q21 -177 181 -177h51v-158z" />
    <glyph glyph-name="uFE90" unicode="&#x628;" horiz-adv-x="1491" arabic-form="final" 
d="M1522 1h-57q-57 0 -104.5 38.5t-63.5 93.5q-121 -99 -310 -154q-171 -50 -345 -50q-178 0 -297 51q-164 70 -164 225q0 145 90 234q13 13 21 9q9 -3 3 -18l-24 -58q-16 -39 -16 -77q0 -208 459 -208q303 0 507 118q56 33 117 86q17 15 24 15q10 0 1 -35q-3 -12 -3 -24
q0 -88 137 -88h25v-158zM898 -305l-100 -120l-125 99l100 120z" />
    <glyph glyph-name="uFE91" unicode="&#x628;" horiz-adv-x="284" arabic-form="initial" 
d="M281 252q0 -151 -78 -209q-57 -42 -175 -42h-58v158h80q175 0 173 32q-3 50 -75 140l41 121q8 24 21 12q3 -3 5 -6q66 -92 66 -206zM292 -227l-100 -120l-125 99l100 120z" />
    <glyph glyph-name="uFE92" unicode="&#x628;" horiz-adv-x="458" arabic-form="medial" 
d="M488 1h-62q-145 0 -212 118q-73 -118 -182 -118h-62v158h38q95 0 117 5q50 11 74 58l48 96q7 14 18 14q14 0 9 -19q-39 -154 181 -154h33v-158zM342 -227l-100 -120l-125 99l100 120z" />
    <glyph glyph-name="uFE96" unicode="&#x62a;" horiz-adv-x="1492" arabic-form="final" 
d="M952 694l-97 -90l-98 88l98 89zM738 692l-98 -91l-97 89l98 91zM1522 1h-57q-57 0 -104.5 38.5t-63.5 93.5q-121 -99 -310 -154q-171 -50 -345 -50q-178 0 -297 51q-164 70 -164 225q0 145 90 234q13 13 21 9q9 -3 3 -18l-24 -58q-16 -39 -16 -77q0 -208 459 -208
q303 0 507 118q56 33 117 86q17 15 24 15q10 0 1 -35q-3 -12 -3 -24q0 -88 137 -88h25v-158z" />
    <glyph glyph-name="uFE97" unicode="&#x62a;" horiz-adv-x="399" arabic-form="initial" 
d="M398 717l-97 -90l-97 88l98 89zM185 715l-99 -91l-97 88l98 91zM281 252q0 -151 -78 -209q-57 -42 -175 -42h-58v158h80q175 0 173 32q-3 50 -75 140l41 121q8 24 21 12q3 -3 5 -6q66 -92 66 -206z" />
    <glyph glyph-name="uFE98" unicode="&#x62a;" horiz-adv-x="458" arabic-form="medial" 
d="M435 596l-97 -89l-97 87l98 90zM223 594l-100 -90l-96 89l98 90zM488 1h-62q-145 0 -212 118q-73 -118 -182 -118h-62v158h38q95 0 117 5q50 11 74 58l48 96q7 14 18 14q14 0 9 -19q-5 -22 -5 -42q0 -112 186 -112h33v-158z" />
    <glyph glyph-name="uFE9A" unicode="&#x62b;" horiz-adv-x="1492" arabic-form="final" 
d="M870 759l-89 -83l-90 83l90 83zM985 610l-90 -83l-90 83l90 83zM767 610l-90 -83l-88 83l88 83zM1522 1h-57q-57 0 -104.5 38.5t-63.5 93.5q-121 -99 -310 -154q-171 -50 -345 -50q-178 0 -297 51q-164 70 -164 225q0 145 90 234q13 13 21 9q9 -3 3 -18l-24 -58
q-16 -39 -16 -77q0 -208 459 -208q303 0 507 118q56 33 117 86q17 15 24 15q10 0 1 -35q-3 -12 -3 -24q0 -88 137 -88h25v-158z" />
    <glyph glyph-name="uFE9B" unicode="&#x62b;" horiz-adv-x="405" arabic-form="initial" 
d="M287 876l-89 -83l-90 83l90 83zM402 727l-90 -83l-89 83l89 82zM185 727l-91 -83l-88 83l88 82zM281 252q0 -151 -78 -209q-57 -42 -175 -42h-58v158h80q175 0 173 32q-3 50 -75 140l41 121q8 24 21 12q3 -3 5 -6q66 -92 66 -206z" />
    <glyph glyph-name="uFE9C" unicode="&#x62b;" horiz-adv-x="458" arabic-form="medial" 
d="M310 736l-90 -82l-89 82l89 83zM424 588l-89 -83l-90 83l90 83zM207 588l-91 -83l-88 83l88 83zM488 1h-62q-145 0 -212 118q-73 -118 -182 -118h-62v158h38q95 0 117 5q50 11 74 58l48 96q7 14 18 14q14 0 9 -19q-5 -22 -5 -42q0 -112 186 -112h33v-158z" />
    <glyph glyph-name="uFE9E" unicode="&#x62c;" horiz-adv-x="1175" arabic-form="final" 
d="M787 -247l-100 -120l-125 99l100 120zM1316 -654q-110 -51 -247 -108q-113 -47 -273 -47q-615 0 -615 471q0 380 368 625q-80 8 -117 8q-104 0 -181 -84q-15 -16 -25 -23q-9 -4 -10 5q-1 7 5 27q64 222 244 222q58 0 173.5 -11t173.5 -11q88 0 215 15q27 3 33 1
q6 -3 2 -19q-7 -27 -55 -140q-43 -2 -98 -5q-2 -18 -2 -32q0 -81 68 -81h209v-158h-95q-110 0 -161 24q-78 37 -78 137q0 25 9 104q-287 -18 -452 -213q-127 -150 -127 -336q0 -368 575 -368q276 0 441 22q44 6 44 -7q0 -11 -24 -18z" />
    <glyph glyph-name="uFE9F" unicode="&#x62c;" horiz-adv-x="1018" arabic-form="initial" 
d="M692 -227l-100 -120l-125 99l100 120zM1011 285q-25 -86 -47 -103q-50 -40 -164 -33q-138 8 -179 -6l-175 -61q-141 -48 -169 -55q-105 -26 -241 -26h-66v158h106q148 0 289 30q55 12 232 63q-218 96 -287 96q-54 0 -101 -32q-41 -28 -54 -28q-8 0 -8 9q0 19 38 85
q64 110 167 110q54 0 169 -57q141 -70 169 -79q136 -44 233 -44q28 0 54 4q40 6 40 -6q0 -4 -6 -25z" />
    <glyph glyph-name="uFEA0" unicode="&#x62c;" horiz-adv-x="1058" arabic-form="medial" 
d="M632 -227l-100 -120l-125 99l100 120zM1088 1h-105q-193 0 -208 137l-2 96q-89 -5 -367 -137q-107 -51 -149 -65q-92 -31 -195 -31h-92v158h94q156 0 289 51q26 10 212 85q-217 69 -280 69q-48 0 -92 -30q-50 -34 -55 -32q-3 1 -3 8q0 29 33 86q69 119 162 119
q54 0 163 -41q132 -50 164 -57q121 -27 262 -17q10 1 17 1q19 1 23 -5q3 -6 -1 -29q-14 -85 -30 -113q-36 -2 -107 -13q0 -82 77 -82h190v-158z" />
    <glyph glyph-name="uFEA2" unicode="&#x62d;" horiz-adv-x="1154" arabic-form="final" 
d="M1316 -654q-110 -51 -247 -108q-113 -47 -273 -47q-615 0 -615 471q0 380 368 625q-80 8 -117 8q-104 0 -181 -84q-15 -16 -25 -23q-9 -4 -10 5q-1 7 5 27q64 222 244 222q58 0 173.5 -11t173.5 -11q88 0 215 15q27 3 33 1q6 -3 2 -19q-7 -27 -55 -140q-43 -2 -98 -5
q-2 -18 -2 -32q0 -81 68 -81h209v-158h-95q-110 0 -161 24q-78 37 -78 137q0 25 9 104q-287 -18 -452 -213q-127 -150 -127 -336q0 -368 575 -368q276 0 441 22q44 6 44 -7q0 -11 -24 -18z" />
    <glyph glyph-name="uFEA3" unicode="&#x62d;" horiz-adv-x="1017" arabic-form="initial" 
d="M1011 285q-25 -86 -47 -103q-50 -40 -164 -33q-138 8 -179 -6l-175 -61q-141 -48 -169 -55q-105 -26 -241 -26h-66v158h106q148 0 289 30q55 12 232 63q-218 96 -287 96q-54 0 -101 -32q-41 -28 -54 -28q-8 0 -8 9q0 19 38 85q64 110 167 110q54 0 169 -57
q141 -70 169 -79q136 -44 233 -44q28 0 54 4q40 6 40 -6q0 -4 -6 -25z" />
    <glyph glyph-name="uFEA4" unicode="&#x62d;" horiz-adv-x="1058" arabic-form="medial" 
d="M1088 1h-105q-193 0 -208 137l-2 96q-89 -5 -367 -137q-107 -51 -149 -65q-92 -31 -195 -31h-92v158h94q156 0 289 51q26 10 212 85q-217 69 -280 69q-48 0 -92 -30q-50 -34 -55 -32q-3 1 -3 8q0 29 33 86q69 119 162 119q54 0 163 -41q132 -50 164 -57q121 -27 262 -17
q10 1 17 1q19 1 23 -5q3 -6 -1 -29q-14 -85 -30 -113q-36 -2 -107 -13q0 -82 77 -82h190v-158z" />
    <glyph glyph-name="uFEA6" unicode="&#x62e;" horiz-adv-x="1175" arabic-form="final" 
d="M747 783l-100 -120l-125 99l100 120zM1316 -654q-110 -51 -247 -108q-113 -47 -273 -47q-615 0 -615 471q0 380 368 625q-80 8 -117 8q-104 0 -181 -84q-15 -16 -25 -23q-9 -4 -10 5q-1 7 5 27q64 222 244 222q58 0 173.5 -11t173.5 -11q88 0 215 15q27 3 33 1
q6 -3 2 -19q-7 -27 -55 -140q-43 -2 -98 -5q-2 -18 -2 -32q0 -81 68 -81h209v-158h-95q-110 0 -161 24q-78 37 -78 137q0 25 9 104q-287 -18 -452 -213q-127 -150 -127 -336q0 -368 575 -368q276 0 441 22q44 6 44 -7q0 -11 -24 -18z" />
    <glyph glyph-name="uFEA7" unicode="&#x62e;" horiz-adv-x="1021" arabic-form="initial" 
d="M532 843l-100 -120l-125 99l100 120zM1011 285q-25 -86 -47 -103q-50 -40 -164 -33q-138 8 -179 -6l-175 -61q-141 -48 -169 -55q-105 -26 -241 -26h-66v158h106q148 0 289 30q55 12 232 63q-218 96 -287 96q-54 0 -101 -32q-41 -28 -54 -28q-8 0 -8 9q0 19 38 85
q64 110 167 110q54 0 169 -57q141 -70 169 -79q136 -44 233 -44q28 0 54 4q40 6 40 -6q0 -4 -6 -25z" />
    <glyph glyph-name="uFEA8" unicode="&#x62e;" horiz-adv-x="1061" arabic-form="medial" 
d="M532 843l-100 -120l-125 99l100 120zM1088 1h-105q-193 0 -208 137l-2 96q-89 -5 -367 -137q-107 -51 -149 -65q-92 -31 -195 -31h-92v158h94q156 0 289 51q26 10 212 85q-217 69 -280 69q-48 0 -92 -30q-50 -34 -55 -32q-3 1 -3 8q0 29 33 86q69 119 162 119
q54 0 163 -41q132 -50 164 -57q121 -27 262 -17q10 1 17 1q19 1 23 -5q3 -6 -1 -29q-14 -85 -30 -113q-36 -2 -107 -13q0 -82 77 -82h190v-158z" />
    <glyph glyph-name="uFEAA" unicode="&#x62f;" horiz-adv-x="903" arabic-form="final" 
d="M933 1h-63q-66 0 -111 71q-18 29 -59 136q-34 -75 -111 -138q-107 -87 -244 -87q-164 0 -164 113q0 24 8 69q10 55 20 55q-1 -7 15 -32q30 -47 144 -47q89 0 170 37q90 41 132 111l-92 359q21 56 59 139q61 -226 137 -489q33 -83 50 -105q26 -34 74 -34h35v-158z" />
    <glyph glyph-name="uFEAC" unicode="&#x630;" horiz-adv-x="904" arabic-form="final" 
d="M707 1103l-100 -120l-125 99l100 120zM933 1h-63q-66 0 -111 71q-18 29 -59 136q-34 -75 -111 -138q-107 -87 -244 -87q-164 0 -164 113q0 24 8 69q10 55 20 55q-1 -7 15 -32q30 -47 144 -47q89 0 170 37q90 41 132 111l-92 359q21 56 59 139q61 -226 137 -489
q33 -83 50 -105q26 -34 74 -34h35v-158z" />
    <glyph glyph-name="uFEAE" unicode="&#x631;" horiz-adv-x="816" arabic-form="final" 
d="M846 1h-63q-37 -152 -122 -286q-51 -80 -129 -134q-88 -61 -173 -61q-77 0 -247 89q-19 10 -19 20q0 12 23 12q26 0 78.5 -4.5t78.5 -4.5q110 0 199 59q59 39 151 151q97 118 98 166q-21 15 -110 93q16 51 42 123q87 -65 161 -65h32v-158z" />
    <glyph glyph-name="uFEB0" unicode="&#x632;" horiz-adv-x="816" arabic-form="final" 
d="M717 583l-100 -120l-125 99l100 120zM846 1h-63q-37 -152 -122 -286q-51 -80 -129 -134q-88 -61 -173 -61q-77 0 -247 89q-19 10 -19 20q0 12 23 12q26 0 78.5 -4.5t78.5 -4.5q110 0 199 59q59 39 151 151q97 118 98 166q-21 15 -110 93q16 51 42 123q87 -65 161 -65h32
v-158z" />
    <glyph glyph-name="uFEB2" unicode="&#x633;" horiz-adv-x="1885" arabic-form="final" 
d="M1129 -11q-33 0 -60 9q0 -145 -57 -254q-36 -69 -139 -134q-147 -93 -333 -93q-131 0 -228 57q-131 77 -131 235q0 72 24 154q29 98 79 159q9 11 15 13q6 3 7 -4q1 -8 -36 -107q-24 -64 -24 -120q0 -230 334 -230q101 0 240 39q179 50 179 125q0 130 -48 224
q-27 41 -54 83q10 19 60 117q12 23 23 9q15 -18 71 -86q39 -37 106 -37q131 0 180 49q23 40 36 73q20 51 43 51q6 0 6 -13t-4.5 -37.5t-4.5 -37.5t5 -17q64 -54 144 -54q45 0 72 29q10 19 36 70t42 51q7 0 7 -12q-1 -5 -6 -42q-4 -29 3 -45q23 -54 162 -54h37v-158h-113
q-52 0 -89 24q-6 4 -63 55q-52 -44 -60 -49q-44 -28 -95 -28q-62 0 -105 27q-26 21 -52 41q-107 -82 -209 -82z" />
    <glyph glyph-name="uFEB3" unicode="&#x633;" horiz-adv-x="926" arabic-form="initial" 
d="M402 162q84 -1 142 57q11 24 32 72q24 53 43 53q11 0 5 -44q-7 -48 2 -56q30 -26 89.5 -48.5t99.5 -22.5q38 0 51 15q2 3 2 9q0 29 -26 95q-3 4 26.5 43t37.5 47q19 -45 19 -94q0 -85 -26 -157q-36 -99 -105 -99q-133 0 -231 69q-95 -99 -189 -99q-130 0 -193 102
q-60 -103 -152 -103h-59v158h36q137 0 191 86q8 18 22 49q18 38 29 38q8 0 8 -62q0 -106 146 -108z" />
    <glyph glyph-name="uFEB4" unicode="&#x633;" horiz-adv-x="1096" arabic-form="medial" 
d="M1126 1h-120q-91 0 -151 79q-55 -46 -61 -49q-43 -28 -96 -28q-62 0 -104 27l-51 41q16 0 16 -4q0 -8 -68 -31q-102 -35 -143 -35q-93 0 -149 93q-78 -93 -180 -93h-39v158h30q161 0 200 59q39 79 53 79q12 0 10 -55q-1 -37 29.5 -64t68.5 -27q115 0 167 48q15 23 40 71
q20 51 41 51q7 0 7 -14q0 -12 -4.5 -37t-4.5 -37q0 -13 5 -17q64 -54 145 -54q47 0 71 29l35 70q25 51 44 51q6 0 6 -9q0 -10 -4.5 -31.5t-4.5 -32.5q0 -16 6 -26q22 -38 57 -47q27 -7 116 -7h33v-158z" />
    <glyph glyph-name="uFEB6" unicode="&#x634;" horiz-adv-x="1885" arabic-form="final" 
d="M1519 768l-90 -82l-90 82l90 83zM1633 619l-89 -83l-91 83l91 82zM1416 619l-91 -83l-88 83l88 82zM1129 -11q-33 0 -60 9q0 -145 -57 -254q-36 -69 -139 -134q-147 -93 -333 -93q-131 0 -228 57q-131 77 -131 235q0 72 24 154q29 98 79 159q9 11 15 13q6 3 7 -4
q1 -8 -36 -107q-24 -64 -24 -120q0 -230 334 -230q101 0 240 39q179 50 179 125q0 130 -48 224q-27 41 -54 83q10 19 60 117q12 23 23 9q15 -18 71 -86q39 -37 106 -37q131 0 180 49q23 40 36 73q20 51 43 51q6 0 6 -13t-4.5 -37.5t-4.5 -37.5t5 -17q64 -54 144 -54
q45 0 72 29q10 19 36 70t42 51q7 0 7 -12q-1 -5 -6 -42q-4 -29 3 -45q23 -54 162 -54h37v-158h-113q-52 0 -89 24q-6 4 -63 55q-52 -44 -60 -49q-44 -28 -95 -28q-62 0 -105 27q-26 21 -52 41q-107 -82 -209 -82z" />
    <glyph glyph-name="uFEB7" unicode="&#x634;" horiz-adv-x="926" arabic-form="initial" 
d="M711 787l-89 -82l-90 82l90 82zM826 638l-90 -83l-89 83l89 83zM609 638l-91 -83l-88 83l88 83zM402 162q84 -1 142 57q11 24 32 72q24 53 43 53q11 0 5 -44q-7 -48 2 -56q30 -26 89.5 -48.5t99.5 -22.5q38 0 51 15q2 3 2 9q0 29 -26 95q-3 4 26.5 43t37.5 47
q19 -45 19 -94q0 -85 -26 -157q-36 -99 -105 -99q-133 0 -231 69q-95 -99 -189 -99q-130 0 -193 102q-60 -103 -152 -103h-59v158h36q137 0 191 86q8 18 22 49q18 38 29 38q8 0 8 -62q0 -106 146 -108z" />
    <glyph glyph-name="uFEB8" unicode="&#x634;" horiz-adv-x="1094" arabic-form="medial" 
d="M723 749l-90 -82l-90 82l90 82zM837 600l-89 -82l-91 82l91 83zM619 600l-89 -82l-89 82l89 83zM1126 1h-120q-91 0 -151 79q-55 -46 -61 -49q-43 -28 -96 -28q-62 0 -104 27l-51 41q16 0 16 -4q0 -8 -68 -31q-102 -35 -143 -35q-93 0 -149 93q-78 -93 -180 -93h-39v158
h30q161 0 200 59q39 79 53 79q12 0 10 -55q-1 -37 29.5 -64t68.5 -27q115 0 167 48q15 23 40 71q20 51 41 51q7 0 7 -14q0 -12 -4.5 -37t-4.5 -37q0 -13 5 -17q64 -54 145 -54q47 0 71 29l35 70q25 51 44 51q6 0 6 -9q0 -10 -4.5 -31.5t-4.5 -32.5q0 -16 6 -26
q22 -38 57 -47q27 -7 116 -7h33v-158z" />
    <glyph glyph-name="uFEBA" unicode="&#x635;" horiz-adv-x="2012" arabic-form="final" 
d="M1859 359q-51 61 -181 61q-70 0 -201 -91q-108 -75 -208 -175q44 -7 70 -7q127 0 282 57q180 66 238 155zM1070 8q0 -148 -57 -255q-39 -73 -142 -137q-143 -89 -330 -89q-133 0 -229 56q-131 77 -131 236q0 190 104 313q9 11 15 13t7 -5q1 -8 -36 -107q-24 -65 -24 -119
q0 -230 333 -230q105 0 241 38q179 50 179 126q0 130 -49 224q-27 41 -54 83q2 4 60 117q11 22 23 8l72 -86q41 -36 107 -36q43 0 108 69q126 134 171 174q189 166 303 166q216 0 216 -135q0 -85 -66 -167q-59 -74 -142 -115q27 -2 120 3l123 6h50v-158h-592
q-73 -12 -200 -12q-136 0 -180 19z" />
    <glyph glyph-name="uFEBB" unicode="&#x635;" horiz-adv-x="1177" arabic-form="initial" 
d="M1176 430q0 -79 -67 -168q-53 -70 -120 -115q-166 -111 -346 -146q-88 -17 -163 -17q-124 0 -182 44q-43 33 -83 113l-56 -88q-48 -52 -137 -52h-52v158h29q148 0 196 64q4 6 16 29q9 18 15 18q5 -5 23 -37q40 -71 117 -71q40 0 128 77q47 42 172 150q96 82 150 118
q84 57 151 57q68 0 132 -33q77 -40 77 -101zM1072 341q-12 35 -79 60q-57 21 -102 21q-93 0 -237 -112q-23 -18 -181 -160q41 -3 79 -3q133 0 269 51q224 84 251 143z" />
    <glyph glyph-name="uFEBC" unicode="&#x635;" horiz-adv-x="1233" arabic-form="medial" 
d="M1263 1h-625q-88 -16 -161 -16q-121 0 -179 43q-44 33 -56 51q-4 8 -22 50q-31 -61 -56 -83q-50 -45 -142 -45h-52v158h31q79 0 115 9q64 16 88 65q16 33 24 33t21 -33q28 -73 117 -73q49 0 132 78q44 43 163 151q77 69 152 116q87 55 154 56q68 1 132 -31
q77 -38 77 -100q0 -155 -193 -276q22 -6 111 -1l115 6h54v-158zM1076 341q-83 81 -185 81q-146 0 -418 -272q44 -6 92 -6q131 0 252 41q186 63 259 156z" />
    <glyph glyph-name="uFEBE" unicode="&#x636;" horiz-adv-x="2034" arabic-form="final" 
d="M1532 823l-100 -120l-125 99l100 120zM1859 359q-51 61 -181 61q-70 0 -201 -91q-108 -75 -208 -175q44 -7 70 -7q127 0 282 57q180 66 238 155zM1070 8q0 -148 -57 -255q-39 -73 -142 -137q-143 -89 -330 -89q-133 0 -229 56q-131 77 -131 236q0 190 104 313q9 11 15 13
t7 -5q1 -8 -36 -107q-24 -65 -24 -119q0 -230 333 -230q105 0 241 38q179 50 179 126q0 130 -49 224q-27 41 -54 83q2 4 60 117q11 22 23 8l72 -86q41 -36 107 -36q43 0 108 69q126 134 171 174q189 166 303 166q216 0 216 -135q0 -85 -66 -167q-59 -74 -142 -115
q27 -2 120 3l123 6h50v-158h-592q-73 -12 -200 -12q-136 0 -180 19z" />
    <glyph glyph-name="uFEBF" unicode="&#x636;" horiz-adv-x="1177" arabic-form="initial" 
d="M782 823l-100 -120l-125 99l100 120zM1176 430q0 -79 -67 -168q-53 -70 -120 -115q-166 -111 -346 -146q-88 -17 -163 -17q-124 0 -182 44q-43 33 -83 113l-56 -88q-48 -52 -137 -52h-52v158h29q148 0 196 64q4 6 16 29q9 18 15 18q5 -5 23 -37q40 -71 117 -71
q40 0 128 77q47 42 172 150q96 82 150 118q84 57 151 57q68 0 132 -33q77 -40 77 -101zM1072 341q-12 35 -79 60q-57 21 -102 21q-93 0 -237 -112q-23 -18 -181 -160q41 -3 79 -3q133 0 269 51q224 84 251 143z" />
    <glyph glyph-name="uFEC0" unicode="&#x636;" horiz-adv-x="1233" arabic-form="medial" 
d="M782 823l-100 -120l-125 99l100 120zM1263 1h-625q-88 -16 -161 -16q-121 0 -179 43q-44 33 -56 51q-4 8 -22 50q-31 -61 -56 -83q-50 -45 -142 -45h-52v158h31q79 0 115 9q64 16 88 65q16 33 24 33t21 -33q28 -73 117 -73q49 0 132 78q44 43 163 151q77 69 152 116
q87 55 154 56q68 1 132 -31q77 -38 77 -100q0 -155 -193 -276q22 -6 111 -1l115 6h54v-158zM1076 341q-83 81 -185 81q-146 0 -418 -272q44 -6 92 -6q131 0 252 41q186 63 259 156z" />
    <glyph glyph-name="uFEC2" unicode="&#x637;" horiz-adv-x="1301" arabic-form="final" 
d="M1331 1h-422q-61 10 -114 10q-52 0 -123 -10h-139q-73 0 -181 42t-158 92q-13 13 -13 21q0 12 27 12q12 0 98 -4q68 -3 104 -1q99 6 170 75q34 33 39 45q11 27 9 147q-4 204 -57 606q-56 82 -56 104q0 12 31 89q46 114 54 113q11 -2 12 -13q5 -101 33 -124l52 -22
q26 -11 22 -43q-15 -104 -25 -122q-10 -13 -21 -13q-10 0 -19 9l28 -207q22 -163 22 -293q0 -99 -13 -179q133 118 154 134q129 98 215 98q72 0 136 -34q77 -41 77 -106q0 -66 -38 -134q-25 -44 -132 -134h228v-158zM1172 341q-51 47 -99 61q-37 11 -113 11
q-100 0 -371 -254q29 -1 58 -1q220 0 384 79q115 55 141 104z" />
    <glyph glyph-name="uFEC3" unicode="&#x637;" horiz-adv-x="868" arabic-form="initial" 
d="M866 427q0 -66 -38 -134q-99 -176 -331 -245q-159 -47 -422 -47h-105v158h54q123 0 188 124q10 24 8 147q-4 212 -56 606q-56 82 -56 104q0 12 31 89q46 114 54 113q11 -2 12 -13q4 -59 8 -76q7 -33 25 -48l52 -22q26 -11 22 -43q-15 -104 -25 -122q-10 -13 -21 -13
q-9 0 -19 9l28 -205q22 -161 22 -292q0 -101 -14 -182l155 134q113 98 215 98q72 0 136 -34q77 -41 77 -106zM765 341q-77 72 -212 72q-100 0 -371 -254q29 -1 58 -1q220 0 384 79q115 55 141 104z" />
    <glyph glyph-name="uFEC4" unicode="&#x637;" horiz-adv-x="882" arabic-form="medial" 
d="M912 1h-410q-61 10 -126 10q-66 0 -137 -10h-269v158h44q68 0 135 54q49 40 63 70q10 23 8 147q-4 212 -56 606q-56 82 -56 104q0 12 31 89q46 114 54 113q11 -2 12 -13q4 -59 8 -76q7 -33 25 -48l50 -22q28 -17 24 -43q-15 -106 -25 -120.5t-21 -14.5q-9 0 -19 9
l28 -205q22 -161 22 -292q0 -101 -14 -182q122 106 155 130q130 95 215 95q71 0 129 -31q71 -38 71 -102q0 -67 -38 -134q-49 -87 -119 -134h216v-158zM765 341q-78 72 -212 72q-100 0 -371 -254q29 -1 58 -1q220 0 384 79q115 55 141 104z" />
    <glyph glyph-name="uFEC6" unicode="&#x638;" horiz-adv-x="1302" arabic-form="final" 
d="M1102 883l-100 -120l-125 99l100 120zM1331 1h-422q-61 10 -114 10q-52 0 -123 -10h-139q-73 0 -181 42t-158 92q-13 13 -13 21q0 12 27 12q12 0 98 -4q68 -3 104 -1q99 6 170 75q34 33 39 45q11 27 9 147q-4 204 -57 606q-56 82 -56 104q0 12 31 89q46 114 54 113
q11 -2 12 -13q5 -101 33 -124l52 -22q26 -11 22 -43q-15 -104 -25 -122q-10 -13 -21 -13q-10 0 -19 9l28 -207q22 -163 22 -293q0 -99 -13 -179q133 118 154 134q129 98 215 98q72 0 136 -34q77 -41 77 -106q0 -66 -38 -134q-25 -44 -132 -134h228v-158zM1172 341
q-51 47 -99 61q-37 11 -113 11q-100 0 -371 -254q29 -1 58 -1q220 0 384 79q115 55 141 104z" />
    <glyph glyph-name="uFEC7" unicode="&#x638;" horiz-adv-x="870" arabic-form="initial" 
d="M692 883l-100 -120l-125 99l100 120zM866 427q0 -66 -38 -134q-99 -176 -331 -245q-159 -47 -422 -47h-105v158h54q123 0 188 124q10 24 8 147q-4 212 -56 606q-56 82 -56 104q0 12 31 89q46 114 54 113q11 -2 12 -13q4 -59 8 -76q7 -33 25 -48l50 -22q28 -17 24 -43
q-15 -106 -25 -120.5t-21 -14.5q-9 0 -19 9l28 -205q22 -161 22 -292q0 -101 -14 -182l155 134q113 98 215 98q72 0 136 -34q77 -41 77 -106zM765 341q-77 72 -212 72q-100 0 -371 -254q29 -1 58 -1q220 0 384 79q115 55 141 104z" />
    <glyph glyph-name="uFEC8" unicode="&#x638;" horiz-adv-x="882" arabic-form="medial" 
d="M692 883l-100 -120l-125 99l100 120zM912 1h-410q-61 10 -126 10q-66 0 -137 -10h-269v158h44q68 0 135 54q49 40 63 70q10 23 8 147q-4 212 -56 606q-56 82 -56 104q0 12 31 89q46 114 54 113q11 -2 12 -13q4 -59 8 -76q7 -33 25 -48l52 -22q26 -11 22 -43
q-15 -104 -25 -122q-10 -13 -21 -13q-9 0 -19 9l28 -205q22 -161 22 -292q0 -101 -14 -182q122 106 155 130q130 95 215 95q71 0 129 -31q71 -38 71 -102q0 -67 -38 -134q-49 -87 -119 -134h216v-158zM765 341q-78 72 -212 72q-100 0 -371 -254q29 -1 58 -1q220 0 384 79
q115 55 141 104z" />
    <glyph glyph-name="uFECA" unicode="&#x639;" horiz-adv-x="891" arabic-form="final" 
d="M1004 -717q-42 -23 -195.5 -67t-212.5 -44q-189 0 -302 121t-113 311q0 175 74 322q87 172 210 275q25 21 28 25q0 37 -132 44q-8 0 -28 2q-6 3 -3 19q15 86 106 139q79 46 175 46q201 0 201 -150q0 -60 -114 -127q0 -10 35 -23q46 -17 111 -17h78v-158h-78
q-123 0 -255 143q-150 -75 -244 -223q-75 -118 -75 -258q0 -176 127 -268q111 -81 294 -83q171 -2 310 4q19 1 19 -12q0 -12 -16 -21z" />
    <glyph glyph-name="uFECB" unicode="&#x639;" horiz-adv-x="769" arabic-form="initial" 
d="M739 206q-217 -77 -351 -119q-276 -86 -358 -86h-60v158h60q111 0 181 20l-48 58q-27 43 -27 109q0 107 85.5 198t191.5 91q48 0 108 -28t93 -64q20 -22 20 -33q0 -14 -37 -5q-81 20 -111 20q-96 0 -200 -47q-89 -40 -89 -55q0 -25 61 -83q74 -70 159 -91q21 -5 75 3
l278 76q-10 -59 -31 -122z" />
    <glyph glyph-name="uFECC" unicode="&#x639;" horiz-adv-x="601" arabic-form="medial" 
d="M631 1h-59q-105 0 -249 133q-198 -133 -293 -133h-60v158h44q87 0 161 32q60 26 60 39q0 17 -62 36q-51 16 -77 17q-8 0 -28 1l-1 1q-4 6 -2 18q14 87 104 137q77 43 173 43q201 0 201 -149q0 -59 -108 -130q0 -11 32 -26q41 -19 108 -19h56v-158z" />
    <glyph glyph-name="uFECE" unicode="&#x63a;" horiz-adv-x="894" arabic-form="final" 
d="M702 743l-100 -120l-125 99l100 120zM1004 -717q-42 -23 -195.5 -67t-212.5 -44q-189 0 -302 121t-113 311q0 175 74 322q87 172 210 275q25 21 28 25q0 37 -132 44q-8 0 -28 2q-6 3 -3 19q15 86 106 139q79 46 175 46q201 0 201 -150q0 -60 -114 -127q0 -10 35 -23
q46 -17 111 -17h78v-158h-78q-123 0 -255 143q-150 -75 -244 -223q-75 -118 -75 -258q0 -176 127 -268q111 -81 294 -83q171 -2 310 4q19 1 19 -12q0 -12 -16 -21z" />
    <glyph glyph-name="uFECF" unicode="&#x63a;" horiz-adv-x="774" arabic-form="initial" 
d="M462 958l-100 -120l-125 99l100 120zM739 206q-217 -77 -351 -119q-276 -86 -358 -86h-60v158h60q111 0 181 20l-48 58q-27 43 -27 109q0 107 85.5 198t191.5 91q48 0 108 -28t93 -64q20 -22 20 -33q0 -14 -37 -5q-81 20 -111 20q-96 0 -200 -47q-89 -40 -89 -55
q0 -25 61 -83q74 -70 159 -91q21 -5 75 3l278 76q-10 -59 -31 -122z" />
    <glyph glyph-name="uFED0" unicode="&#x63a;" horiz-adv-x="600" arabic-form="medial" 
d="M422 818l-100 -120l-125 99l100 120zM631 1h-59q-105 0 -249 133q-198 -133 -293 -133h-60v158h44q87 0 161 32q60 26 60 39q0 17 -62 36q-51 16 -77 17q-8 0 -28 1l-1 1q-4 6 -2 18q14 87 104 137q77 43 173 43q201 0 201 -149q0 -59 -108 -130q0 -11 32 -26
q41 -19 108 -19h56v-158z" />
    <glyph glyph-name="uFED2" unicode="&#x641;" horiz-adv-x="1508" arabic-form="final" 
d="M1538 1h-62q-139 0 -247 68q-265 -137 -559 -137q-296 0 -400 97q-89 83 -89 175q0 123 70 210q30 37 44 37q7 0 7 -10q0 -14 -10 -30q-33 -53 -33 -122q0 -104 156 -160q117 -42 259 -42q130 0 298 32q115 22 142 51q-22 34 -22 75q0 109 91 234q86 119 147 119
q31 0 68 -54q47 -69 47 -169q0 -140 -82 -202q29 -14 129 -14h46v-158zM1377 322q0 26 -25 66q-28 44 -51 44q-30 0 -81.5 -46.5t-51.5 -75.5q0 -20 31 -50t52 -30q28 0 77 33.5t49 58.5zM1377 923l-100 -120l-125 99l100 120z" />
    <glyph glyph-name="uFED3" unicode="&#x641;" horiz-adv-x="463" arabic-form="initial" 
d="M461 314q0 -102 -14 -146q-22 -70 -94 -104q-134 -63 -285 -63h-98v158h107q278 0 324 59q-1 24 -15.5 65.5t-29.5 55.5q-37 -84 -133 -84q-48 0 -90 28q-58 39 -58 117q0 55 49 148q58 109 124 109q86 0 154 -133q59 -115 59 -210zM310 434q0 18 -24 49q-30 38 -63 38
q-23 0 -49.5 -24.5t-26.5 -47.5q0 -24 25 -44t50 -20q26 0 54 12q34 15 34 37zM332 918l-100 -120l-125 99l100 120z" />
    <glyph glyph-name="uFED4" unicode="&#x641;" horiz-adv-x="536" arabic-form="medial" 
d="M566 1h-63q-72 0 -155 28q-63 21 -86 38q-129 -66 -208 -66h-84v158h73q91 0 101 11q-22 34 -22 75q0 146 99 261q82 95 138 95q30 0 69 -58q47 -70 47 -166q0 -142 -82 -204q28 -14 117 -14h56v-158zM407 322q0 25 -26.5 68.5t-49.5 43.5q-35 0 -84 -45t-49 -79
q0 -23 31 -53.5t54 -30.5q28 0 76 35t48 61zM402 893l-100 -120l-125 99l100 120z" />
    <glyph glyph-name="uFED6" unicode="&#x642;" horiz-adv-x="1188" arabic-form="final" 
d="M1092 632l-98 -90l-97 87l98 90zM878 629l-99 -90l-96 89l98 90zM1219 1h-98q0 -9 1 -27t1 -27q0 -153 -166 -272q-76 -54 -195 -88q-113 -32 -213 -32q-143 0 -249 74q-119 83 -119 221q0 197 115 329q17 20 28 12q8 -6 4 -16q-62 -152 -62 -226q0 -127 108 -188
q87 -49 224 -49q111 0 188 21q66 18 175 72q97 48 97 99q0 40 -14 89q-66 -17 -120 -17q-184 0 -184 140q0 54 52 150q62 115 133 115q73 0 124 -83q37 -60 51 -139h119v-158zM1001 148q-34 99 -99 99q-27 0 -55 -23.5t-28 -50.5q0 -29 83 -36q86 -7 99 11z" />
    <glyph glyph-name="uFED7" unicode="&#x642;" horiz-adv-x="465" arabic-form="initial" 
d="M447 907l-97 -90l-97 88l98 90zM234 905l-99 -90l-97 88l98 90zM461 314q0 -102 -14 -146q-22 -70 -94 -104q-134 -63 -285 -63h-98v158h107q278 0 324 59q-1 24 -15.5 65.5t-29.5 55.5q-37 -84 -133 -84q-48 0 -90 28q-58 39 -58 117q0 55 49 148q58 109 124 109
q86 0 154 -133q59 -115 59 -210zM310 434q0 18 -24 49q-30 38 -63 38q-23 0 -49.5 -24.5t-26.5 -47.5q0 -24 25 -44t50 -20q26 0 54 12q34 15 34 37z" />
    <glyph glyph-name="uFED8" unicode="&#x642;" horiz-adv-x="537" arabic-form="medial" 
d="M499 869l-98 -89l-98 87l99 90zM285 867l-99 -90l-96 89l98 90zM566 1h-63q-72 0 -155 28q-63 21 -86 38q-129 -66 -208 -66h-84v158h73q91 0 101 11q-22 34 -22 75q0 146 99 261q82 95 138 95q30 0 69 -58q47 -70 47 -166q0 -142 -82 -204q28 -14 117 -14h56v-158z
M407 322q0 25 -26.5 68.5t-49.5 43.5q-35 0 -84 -45t-49 -79q0 -23 31 -53.5t54 -30.5q28 0 76 35t48 61z" />
    <glyph glyph-name="uFEDE" unicode="&#x644;" horiz-adv-x="1148" arabic-form="final" 
d="M1178 1h-60q-80 0 -126 93l-4 -181q-9 -412 -456 -412q-146 0 -242 68q-109 76 -109 217q0 157 100 311q11 16 21 20q12 4 12 -10q0 -10 -8 -30q-50 -124 -50 -189q0 -114 98 -177q84 -53 204 -53q103 0 192 26q116 34 156 99q9 15 5 83l-20 343l-74 832q13 50 46 137
q19 50 26 50q8 0 14 -68l47 -514q32 -350 68 -416q39 -71 128 -71h32v-158z" />
    <glyph glyph-name="uFEDF" unicode="&#x644;" horiz-adv-x="252" arabic-form="initial" 
d="M249 1056q0 -40 -40 -130l-28 2q29 -298 49 -670q14 -257 -202 -257h-58v158h31q162 0 158 45l-67 758q-31 49 -31 77q0 9 3 14q17 30 49 119q22 61 34 61q22 0 16 -85q-1 -16 42.5 -42t43.5 -50z" />
    <glyph glyph-name="uFEE0" unicode="&#x644;" horiz-adv-x="509" arabic-form="medial" 
d="M539 1h-66q-137 0 -196 240q-12 -67 -23 -93q-62 -147 -222 -147h-62v158h59q214 0 207 130q-8 144 -35 418l-39 393q18 38 43 95q17 38 23 38q10 0 16 -72q21 -240 48 -482q31 -277 52 -354q45 -166 141 -166h54v-158z" />
    <glyph glyph-name="uFEE2" unicode="&#x645;" horiz-adv-x="903" arabic-form="final" 
d="M933 1h-59q-106 0 -158 34q3 -15 3 -39q0 -52 -13 -102q-19 -73 -56 -73q-52 0 -95.5 38t-59.5 90q-24 77 -19 130q-63 0 -143 -29q-88 -32 -88 -65q0 -91 20 -273t20 -273q0 -207 -46 -207q-7 0 -12 97q-7 145 -17 228q-29 245 -29 321q0 156 78 245q71 80 226 126
q10 2 39 9q8 41 11 43q14 0 67 -40q79 -59 136 -80q62 -22 157 -22h38v-158z" />
    <glyph glyph-name="uFEE3" unicode="&#x645;" horiz-adv-x="555" arabic-form="initial" 
d="M553 193q0 -40 -18 -84q-23 -55 -56 -55q-134 0 -284 85q-87 -138 -165 -138h-60v158h37q89 0 126 25q9 10 57 63q42 61 90 125q69 92 134 92q55 0 100 -109q39 -94 39 -162zM455 197q8 11 -6 48q-12 31 -22 46q-31 44 -61 44q-45 0 -94 -67q30 -24 95 -51q56 -23 79 -23
q7 0 9 3z" />
    <glyph glyph-name="uFEE4" unicode="&#x645;" horiz-adv-x="746" arabic-form="medial" 
d="M776 1h-60q-90 0 -151 63q-9 -75 -44 -75q-120 0 -313 138q-70 -126 -183 -126h-55v158h41q116 0 180 78q23 30 85 107q54 65 109 65q48 0 102 -65l99 -120q69 -65 154 -65h36v-158zM460 150q10 0 6 28q-4 26 -13 45q-45 95 -100 95q-29 0 -55 -33q-21 -26 -21 -40
q0 -22 79 -59q75 -36 104 -36z" />
    <glyph glyph-name="uFEE6" unicode="&#x646;" horiz-adv-x="1140" arabic-form="final" 
d="M541 -479q-133 0 -230 57q-130 77 -130 235q0 69 24 154q29 101 79 159q10 11 15 13q6 2 7 -5q1 -8 -36 -106q-24 -64 -24 -119q0 -231 334 -231q85 0 240 46q184 55 184 117q0 122 -45 208q-16 28 -55 101l46 105q12 27 23 9q48 -77 59 -88q16 -17 57 -17h81v-158h-101
q0 -155 -56 -263q-37 -71 -142 -133q-142 -84 -330 -84zM743 439l-100 -120l-125 99l100 120z" />
    <glyph glyph-name="uFEE7" unicode="&#x646;" horiz-adv-x="284" arabic-form="initial" 
d="M281 252q0 -151 -78 -209q-57 -42 -175 -42h-58v158h80q175 0 173 32q-3 50 -75 140l41 121q8 24 21 12q3 -3 5 -6q66 -92 66 -206zM281 814l-100 -120l-125 99l100 120z" />
    <glyph glyph-name="uFEE8" unicode="&#x646;" horiz-adv-x="458" arabic-form="medial" 
d="M488 1h-62q-145 0 -212 118q-73 -118 -182 -118h-62v158h38q95 0 117 5q50 11 74 58l48 96q7 14 18 14q14 0 9 -19q-5 -22 -5 -42q0 -112 186 -112h33v-158zM347 691l-100 -120l-125 99l100 120z" />
    <glyph glyph-name="uFEEA" unicode="&#x647;" horiz-adv-x="777" arabic-form="final" 
d="M808 1h-80q-82 0 -129 97q-25 72 -51 143q-55 -68 -66 -77q-48 -39 -121 -39q-180 0 -180 45q0 42 67 133q33 45 137 118q90 63 122 76l-20 114q22 46 37 90q8 24 13 25q4 -3 7 -18q58 -291 90 -425q16 -67 42 -93q30 -31 95 -31h37v-158zM542 295l-22 104
q-22 0 -106 -51q-80 -48 -102 -71q21 -13 91 -13q81 0 139 31z" />
    <glyph glyph-name="uFEEB" unicode="&#x647;" horiz-adv-x="721" arabic-form="initial" 
d="M718 260q0 -211 -114 -211l-292 45q-105 -93 -272 -93h-70v158h73q111 0 136 9q-13 50 -13 94q0 114 90 222q-3 5 -24.5 18.5t-21.5 18.5l34 152q7 31 19 31q7 0 30 -15q161 -106 238 -171q187 -156 187 -258zM657 222q0 33 -83.5 106t-114.5 68q14 -27 14 -70
q0 -68 -21 -91q19 -13 81 -27q57 -13 86 -13q38 0 38 27zM409 313q0 34 -33.5 76t-66.5 42q-25 0 -58 -47t-33 -74q0 -26 43 -47q36 -18 66 -18q27 0 54.5 21t27.5 47z" />
    <glyph glyph-name="uFEEC" unicode="&#x647;" horiz-adv-x="611" arabic-form="medial" 
d="M641 1h-193q44 -29 78 -84q36 -58 36 -108q0 -80 -34 -141q-41 -74 -115 -74q-149 0 -213 155q-24 58 -46 214q-3 -1 -45 -12q-31 -8 -36 -5q-4 3 -4 10q0 15 21 45h-120v158h144q64 0 80 45q45 129 122 261q82 141 119 141q22 0 51 -39q38 -52 38 -135q0 -161 -103 -273
h220v-158zM457 328q0 44 -28 81q-23 30 -37 30q-28 0 -90 -117q-57 -107 -62 -137q41 6 126 60q91 57 91 83zM489 -214q0 51 -100 100q-88 43 -150 43q0 -32 39 -93q53 -83 129 -83q82 0 82 33z" />
    <glyph glyph-name="uFEEE" unicode="&#x648;" horiz-adv-x="860" arabic-form="final" 
d="M889 0h-100q-6 -48 -47 -134q-38 -81 -72 -124q-133 -168 -282 -168q-144 0 -279 101q-13 10 -13 21q0 16 22 12q88 -17 154 -17q149 0 256 79q45 33 104 98q76 83 85 132q-128 -1 -167 8q-112 26 -112 110q0 60 58 154q66 108 136 108q66 0 118 -99q36 -69 43 -122h96
v-159zM699 147q-20 104 -92 104q-62 0 -87 -75q20 -43 94 -43q50 0 85 14z" />
    <glyph glyph-name="uFEF0" unicode="&#x649;" horiz-adv-x="1191" arabic-form="final" 
d="M1221 1h-73q-148 0 -227 -41q-29 -15 -29 -25q0 -11 29 -17q74 -15 172 -40q43 -11 59 -35q9 -14 9 -51q0 -130 -240 -254q-188 -97 -393 -97q-160 0 -252 87q-95 89 -95 248q0 74 38.5 164.5t91.5 138.5q10 9 17 6t-1 -17q-72 -129 -72 -243q0 -123 120 -182
q92 -45 229 -45q246 0 417 117q18 12 18 22q0 11 -18 15q-48 9 -174 38q-102 25 -102 98q0 113 161 198q138 73 263 73h52v-158z" />
    <glyph glyph-name=".notdef" horiz-adv-x="1005" 
d="M126 0v1181h753v-1181h-753zM251 126h503v929h-503v-929z" />
    <glyph glyph-name=".null" 
 />
    <glyph glyph-name="nonmarkingreturn" horiz-adv-x="479" 
 />
    <glyph glyph-name="space" unicode=" " horiz-adv-x="479" 
 />
    <glyph glyph-name="exclam" unicode="!" horiz-adv-x="433" 
d="M343 1175q-22 -183 -22 -421q0 -234 20 -426l-61 -30q-92 385 -92 726q80 77 139 154q6 8 12 7q5 -2 4 -10zM431 80q0 -24 -49.5 -75t-73.5 -51q-25 0 -76 55.5t-51 80.5q0 21 54 70t75 49q22 0 71.5 -53.5t49.5 -75.5z" />
    <glyph glyph-name="percent" unicode="%" horiz-adv-x="838" 
d="M349 1015q-35 -41 -130 -147l-152 131l122 147zM751 1195l-584 -1325l-72 28l587 1326q33 -15 69 -29zM772 92q-35 -41 -128 -147l-153 132l122 146z" />
    <glyph glyph-name="parenleft" unicode="(" horiz-adv-x="520" 
d="M521 -93l-75 -102q-265 290 -265 737q0 170 87 373q71 166 157 271q28 4 35 -24q-182 -275 -182 -598q0 -381 243 -657z" />
    <glyph glyph-name="parenright" unicode=")" horiz-adv-x="520" 
d="M517 460q0 -171 -86 -374q-70 -166 -157 -270q-29 -5 -35 23q182 279 182 599q0 378 -243 656l75 102q264 -288 264 -736z" />
    <glyph glyph-name="asterisk" unicode="*" horiz-adv-x="1205" 
d="M1058 723q-105 -80 -249 -117q-9 -1 -11 0q4 -4 4 11q39 164 114 243q27 28 67 28q41 0 69 -28t28 -69t-22 -68zM795 902q0 -22 -20 -87q-28 -90 -72 -168q-2 -1 -2 -5t-3 -4q-1 2 -7 8q-92 152 -92 252q0 42 28.5 68.5t70.5 26.5q36 0 66.5 -28t30.5 -63zM1204 483
q0 -38 -29 -68.5t-66 -30.5q-24 0 -90 21q-91 29 -170 76q-3 0 -3 2q0 1 3 3q151 94 258 94q41 0 69 -28t28 -69zM587 596q-1 1 -4 1q-168 40 -247 114q-29 27 -29 67q0 42 30 71t72 29q39 0 62 -21q80 -104 116 -249v-12zM799 484q0 -41 -30.5 -71.5t-71.5 -30.5
q-42 0 -72 30t-30 72q0 43 29.5 72t72.5 29q42 0 72 -29.5t30 -71.5zM1054 254q29 -28 29 -66q0 -41 -28 -70.5t-69 -29.5q-42 0 -66 24q-19 19 -51 79q-23 43 -67 175v5q-1 0 7 -1q170 -44 245 -116zM794 71q0 -42 -27 -69t-69 -27q-37 0 -66.5 28.5t-29.5 65.5
q0 109 96 265v-2l4 2q92 -155 92 -263zM541 486q-3 -3 -8 -3q-155 -95 -253 -95q-42 0 -69 28t-27 70q0 36 27.5 65.5t62.5 29.5q18 0 90 -23q91 -29 173 -70zM587 366q-39 -163 -122 -245q-28 -28 -59 -28q-39 0 -67 29t-28 68q0 41 21 69q105 79 247 116h8v-9z" />
    <glyph glyph-name="plus" unicode="+" horiz-adv-x="990" 
d="M883 375h-343v-343h-97v344h-345v97h345v344h97l1 -346h342v-96z" />
    <glyph glyph-name="comma" unicode="," horiz-adv-x="413" 
d="M182 93q0 25 39.5 66.5t63.5 41.5q28 0 68 -36q58 -52 58 -138q0 -52 -61 -138q-64 -90 -113 -90q-14 0 -18 11t5 20q74 76 74 114q0 54 -51 75q-65 27 -65 74z" />
    <glyph glyph-name="hyphen" unicode="-" horiz-adv-x="990" 
d="M883 375l-785 1v97q212 -3 785 -2v-96z" />
    <glyph glyph-name="period" unicode="." horiz-adv-x="399" 
d="M386 62q0 -18 -43 -61.5t-60 -43.5q-18 0 -60 42.5t-42 60.5q0 17 44.5 61.5t61.5 44.5q16 0 57.5 -43.5t41.5 -60.5z" />
    <glyph glyph-name="slash" unicode="/" horiz-adv-x="718" 
d="M654 1105l-536 -1209l-63 24l535 1212z" />
    <glyph glyph-name="zero" unicode="0" horiz-adv-x="916" 
d="M607 432l-150 -167l-179 153l154 163z" />
    <glyph glyph-name="zero" unicode="&#x6f0;" horiz-adv-x="916" 
d="M607 432l-150 -167l-179 153l154 163z" />
    <glyph glyph-name="zero" unicode="&#x660;" horiz-adv-x="916" 
d="M607 432l-150 -167l-179 153l154 163z" />
    <glyph glyph-name="one" unicode="1" horiz-adv-x="916" 
d="M631 114q0 -67 -12 -132q-5 -28 -15 -28q-12 0 -18 39q-81 561 -297 805q-18 21 -55 69l40 180q2 9 12 15q64 -54 153 -218q77 -141 111 -246q81 -247 81 -484z" />
    <glyph glyph-name="one" unicode="&#x6f1;" horiz-adv-x="916" 
d="M631 114q0 -67 -12 -132q-5 -28 -15 -28q-12 0 -18 39q-81 561 -297 805q-18 21 -55 69l40 180q2 9 12 15q64 -54 153 -218q77 -141 111 -246q81 -247 81 -484z" />
    <glyph glyph-name="one" unicode="&#x661;" horiz-adv-x="916" 
d="M631 114q0 -67 -12 -132q-5 -28 -15 -28q-12 0 -18 39q-81 561 -297 805q-18 21 -55 69l40 180q2 9 12 15q64 -54 153 -218q77 -141 111 -246q81 -247 81 -484z" />
    <glyph glyph-name="two" unicode="2" horiz-adv-x="916" 
d="M722 1016q0 -263 -192 -315q-19 -5 -103 -13q22 -35 51 -137q26 -92 33 -145q15 -110 10 -256q-7 -197 -43 -197q-17 0 -19 64q-2 76 -13 168q-12 104 -51 231q-58 190 -141 335q-25 40 -78 128q-3 15 53 188q2 1 4 1q5 -1 11 -4q52 -85 76 -112q69 -78 145 -78
q110 0 165 60q18 19 49 91q22 50 29 50q14 0 14 -59z" />
    <glyph glyph-name="two" unicode="&#x6f2;" horiz-adv-x="916" 
d="M722 1016q0 -263 -192 -315q-19 -5 -103 -13q22 -35 51 -137q26 -92 33 -145q15 -110 10 -256q-7 -197 -43 -197q-17 0 -19 64q-2 76 -13 168q-12 104 -51 231q-58 190 -141 335q-25 40 -78 128q-3 15 53 188q2 1 4 1q5 -1 11 -4q52 -85 76 -112q69 -78 145 -78
q110 0 165 60q18 19 49 91q22 50 29 50q14 0 14 -59z" />
    <glyph glyph-name="two" unicode="&#x662;" horiz-adv-x="916" 
d="M722 1016q0 -263 -192 -315q-19 -5 -103 -13q22 -35 51 -137q26 -92 33 -145q15 -110 10 -256q-7 -197 -43 -197q-17 0 -19 64q-2 76 -13 168q-12 104 -51 231q-58 190 -141 335q-25 40 -78 128q-3 15 53 188q2 1 4 1q5 -1 11 -4q52 -85 76 -112q69 -78 145 -78
q110 0 165 60q18 19 49 91q22 50 29 50q14 0 14 -59z" />
    <glyph glyph-name="three" unicode="3" horiz-adv-x="916" 
d="M857 1021q0 -101 -44 -180q-54 -97 -147 -97q-55 0 -86 19q-20 16 -40 33q-24 -44 -101 -95q-32 -21 -124 -35q88 -246 88 -439q0 -114 -21 -216q-6 -58 -29 -58q-12 0 -19 82l-10 138q-13 123 -54 258q-80 261 -171 393q-27 39 -27 45q0 18 42 202q7 8 14 -3
q45 -71 84 -126q61 -85 148 -85q37 0 82 20q49 21 64 50q11 22 31 87q13 43 27 43q19 0 22 -38q4 -50 15 -69q22 -38 88 -38q58 0 88 43q16 23 30 81q10 43 22 43q28 0 28 -58z" />
    <glyph glyph-name="three" unicode="&#x6f3;" horiz-adv-x="916" 
d="M857 1021q0 -101 -44 -180q-54 -97 -147 -97q-55 0 -86 19q-20 16 -40 33q-24 -44 -101 -95q-32 -21 -124 -35q88 -246 88 -439q0 -114 -21 -216q-6 -58 -29 -58q-12 0 -19 82l-10 138q-13 123 -54 258q-80 261 -171 393q-27 39 -27 45q0 18 42 202q7 8 14 -3
q45 -71 84 -126q61 -85 148 -85q37 0 82 20q49 21 64 50q11 22 31 87q13 43 27 43q19 0 22 -38q4 -50 15 -69q22 -38 88 -38q58 0 88 43q16 23 30 81q10 43 22 43q28 0 28 -58z" />
    <glyph glyph-name="three" unicode="&#x663;" horiz-adv-x="916" 
d="M857 1021q0 -101 -44 -180q-54 -97 -147 -97q-55 0 -86 19q-20 16 -40 33q-24 -44 -101 -95q-32 -21 -124 -35q88 -246 88 -439q0 -114 -21 -216q-6 -58 -29 -58q-12 0 -19 82l-10 138q-13 123 -54 258q-80 261 -171 393q-27 39 -27 45q0 18 42 202q7 8 14 -3
q45 -71 84 -126q61 -85 148 -85q37 0 82 20q49 21 64 50q11 22 31 87q13 43 27 43q19 0 22 -38q4 -50 15 -69q22 -38 88 -38q58 0 88 43q16 23 30 81q10 43 22 43q28 0 28 -58z" />
    <glyph glyph-name="four" unicode="4" horiz-adv-x="916" 
d="M790 888q-22 -62 -76 -118q-91 -95 -219 -95q-36 0 -74 8q42 -162 52 -273q6 -74 6 -142q0 -158 -34 -288q-6 -24 -23 -24q-12 0 -15 83q-4 141 -64 406q-28 127 -127 306q-88 159 -91 162q0 179 68 179q5 0 46 -53q47 -60 80 -119q6 -10 15 -12q11 -1 16 13
q76 212 228 212q44 0 90 -25q54 -29 54 -69q0 -21 -23 -21q-21 0 -61.5 10t-61.5 10q-54 0 -93 -27q-45 -31 -45 -82q0 -99 117 -99q87 0 212 83q12 8 19 8q16 0 4 -33z" />
    <glyph glyph-name="four" unicode="&#x6f4;" horiz-adv-x="916" 
d="M790 888q-22 -62 -76 -118q-91 -95 -219 -95q-36 0 -74 8q42 -162 52 -273q6 -74 6 -142q0 -158 -34 -288q-6 -24 -23 -24q-12 0 -15 83q-4 141 -64 406q-28 127 -127 306q-88 159 -91 162q0 179 68 179q5 0 46 -53q47 -60 80 -119q6 -10 15 -12q11 -1 16 13
q76 212 228 212q44 0 90 -25q54 -29 54 -69q0 -21 -23 -21q-21 0 -61.5 10t-61.5 10q-54 0 -93 -27q-45 -31 -45 -82q0 -99 117 -99q87 0 212 83q12 8 19 8q16 0 4 -33z" />
    <glyph glyph-name="four" unicode="&#x664;" horiz-adv-x="916" 
d="M790 888q-22 -62 -76 -118q-91 -95 -219 -95q-36 0 -74 8q42 -162 52 -273q6 -74 6 -142q0 -158 -34 -288q-6 -24 -23 -24q-12 0 -15 83q-4 141 -64 406q-28 127 -127 306q-88 159 -91 162q0 179 68 179q5 0 46 -53q47 -60 80 -119q6 -10 15 -12q11 -1 16 13
q76 212 228 212q44 0 90 -25q54 -29 54 -69q0 -21 -23 -21q-21 0 -61.5 10t-61.5 10q-54 0 -93 -27q-45 -31 -45 -82q0 -99 117 -99q87 0 212 83q12 8 19 8q16 0 4 -33z" />
    <glyph glyph-name="five" unicode="5" horiz-adv-x="916" 
d="M837 372q0 -152 -55 -269q-71 -150 -207 -150q-48 0 -118 68q-62 -86 -143 -86q-103 0 -173 102q-63 92 -63 199q0 156 78 338q28 65 190 338q-7 9 -24 28q-13 14 -13 19q22 53 50 111q14 28 19 31q11 0 38 -25q32 -28 112 -103q96 -91 185 -223q124 -183 124 -378z
M740 315q0 258 -333 548q-110 -164 -129 -200q-103 -192 -103 -351q0 -78 29 -132q36 -68 108 -68q107 0 147 106q3 7 9 8q7 0 10 -7q31 -84 119 -84q72 0 110 56q33 48 33 124z" />
    <glyph glyph-name="five" unicode="&#x6f5;" horiz-adv-x="916" 
d="M837 372q0 -152 -55 -269q-71 -150 -207 -150q-48 0 -118 68q-62 -86 -143 -86q-103 0 -173 102q-63 92 -63 199q0 156 78 338q28 65 190 338q-7 9 -24 28q-13 14 -13 19q22 53 50 111q14 28 19 31q11 0 38 -25q32 -28 112 -103q96 -91 185 -223q124 -183 124 -378z
M740 315q0 258 -333 548q-110 -164 -129 -200q-103 -192 -103 -351q0 -78 29 -132q36 -68 108 -68q107 0 147 106q3 7 9 8q7 0 10 -7q31 -84 119 -84q72 0 110 56q33 48 33 124z" />
    <glyph glyph-name="five" unicode="&#x665;" horiz-adv-x="916" 
d="M837 372q0 -152 -55 -269q-71 -150 -207 -150q-48 0 -118 68q-62 -86 -143 -86q-103 0 -173 102q-63 92 -63 199q0 156 78 338q28 65 190 338q-7 9 -24 28q-13 14 -13 19q22 53 50 111q14 28 19 31q11 0 38 -25q32 -28 112 -103q96 -91 185 -223q124 -183 124 -378z
M740 315q0 258 -333 548q-110 -164 -129 -200q-103 -192 -103 -351q0 -78 29 -132q36 -68 108 -68q107 0 147 106q3 7 9 8q7 0 10 -7q31 -84 119 -84q72 0 110 56q33 48 33 124z" />
    <glyph glyph-name="six" unicode="6" horiz-adv-x="916" 
d="M792 819q14 -3 14 -27q0 -37 -29 -111q-26 -67 -38 -75q-57 -22 -113 -50q-136 -69 -256 -229q-75 -100 -133 -211q-15 -26 -55 -102q-33 -64 -57 -60q-12 2 -12 23q0 62 100 289q52 119 136 240q-76 28 -137 76q-87 68 -87 139q0 69 133 249q115 156 241 156
q58 0 112 -40q59 -43 59 -99q0 -25 -36 -25q-27 0 -86.5 16.5t-90.5 16.5q-65 0 -125 -78q-54 -71 -54 -130q0 -56 44 -90q41 -32 98 -32q92 0 184 42q58 26 124 75q53 39 64 37z" />
    <glyph glyph-name="six" unicode="&#x6f6;" horiz-adv-x="916" 
d="M792 819q14 -3 14 -27q0 -37 -29 -111q-26 -67 -38 -75q-57 -22 -113 -50q-136 -69 -256 -229q-75 -100 -133 -211q-15 -26 -55 -102q-33 -64 -57 -60q-12 2 -12 23q0 62 100 289q52 119 136 240q-76 28 -137 76q-87 68 -87 139q0 69 133 249q115 156 241 156
q58 0 112 -40q59 -43 59 -99q0 -25 -36 -25q-27 0 -86.5 16.5t-90.5 16.5q-65 0 -125 -78q-54 -71 -54 -130q0 -56 44 -90q41 -32 98 -32q92 0 184 42q58 26 124 75q53 39 64 37z" />
    <glyph glyph-name="six" unicode="&#x666;" horiz-adv-x="916" 
d="M792 819q14 -3 14 -27q0 -37 -29 -111q-26 -67 -38 -75q-57 -22 -113 -50q-136 -69 -256 -229q-75 -100 -133 -211q-15 -26 -55 -102q-33 -64 -57 -60q-12 2 -12 23q0 62 100 289q52 119 136 240q-76 28 -137 76q-87 68 -87 139q0 69 133 249q115 156 241 156
q58 0 112 -40q59 -43 59 -99q0 -25 -36 -25q-27 0 -86.5 16.5t-90.5 16.5q-65 0 -125 -78q-54 -71 -54 -130q0 -56 44 -90q41 -32 98 -32q92 0 184 42q58 26 124 75q53 39 64 37z" />
    <glyph glyph-name="seven" unicode="7" horiz-adv-x="916" 
d="M841 866q-12 -23 -76 -133q-102 -175 -161 -350q-26 -77 -104 -371q-7 -59 -24 -59q-8 0 -28 64q-16 50 -56 172q-25 64 -90 239q-35 96 -112 232q-56 99 -107 159q-21 25 -21 41q8 48 28 173q2 41 11 41q7 0 35 -31q103 -113 256 -500q54 -135 73 -224q34 144 129 372
q159 381 200 381q12 0 23 -65q6 -39 24 -141z" />
    <glyph glyph-name="seven" unicode="&#x6f7;" horiz-adv-x="916" 
d="M841 866q-12 -23 -76 -133q-102 -175 -161 -350q-26 -77 -104 -371q-7 -59 -24 -59q-8 0 -28 64q-16 50 -56 172q-25 64 -90 239q-35 96 -112 232q-56 99 -107 159q-21 25 -21 41q8 48 28 173q2 41 11 41q7 0 35 -31q103 -113 256 -500q54 -135 73 -224q34 144 129 372
q159 381 200 381q12 0 23 -65q6 -39 24 -141z" />
    <glyph glyph-name="seven" unicode="&#x667;" horiz-adv-x="916" 
d="M841 866q-12 -23 -76 -133q-102 -175 -161 -350q-26 -77 -104 -371q-7 -59 -24 -59q-8 0 -28 64q-16 50 -56 172q-25 64 -90 239q-35 96 -112 232q-56 99 -107 159q-21 25 -21 41q8 48 28 173q2 41 11 41q7 0 35 -31q103 -113 256 -500q54 -135 73 -224q34 144 129 372
q159 381 200 381q12 0 23 -65q6 -39 24 -141z" />
    <glyph glyph-name="eight" unicode="8" horiz-adv-x="916" 
d="M848 166q-22 -213 -29 -213q-8 0 -35 30q-64 71 -253 500q-30 89 -77 225q-26 -129 -128 -373q-86 -206 -158 -313q-46 -69 -52 -69q-9 0 -27 95q-17 89 -18 112q44 66 84 133q113 191 150 310q58 189 115 415q14 56 23 56t27 -58q13 -48 57 -178q26 -64 94 -240
q62 -165 109 -247q45 -78 118 -185z" />
    <glyph glyph-name="eight" unicode="&#x6f8;" horiz-adv-x="916" 
d="M848 166q-22 -213 -29 -213q-8 0 -35 30q-64 71 -253 500q-30 89 -77 225q-26 -129 -128 -373q-86 -206 -158 -313q-46 -69 -52 -69q-9 0 -27 95q-17 89 -18 112q44 66 84 133q113 191 150 310q58 189 115 415q14 56 23 56t27 -58q13 -48 57 -178q26 -64 94 -240
q62 -165 109 -247q45 -78 118 -185z" />
    <glyph glyph-name="eight" unicode="&#x668;" horiz-adv-x="916" 
d="M848 166q-22 -213 -29 -213q-8 0 -35 30q-64 71 -253 500q-30 89 -77 225q-26 -129 -128 -373q-86 -206 -158 -313q-46 -69 -52 -69q-9 0 -27 95q-17 89 -18 112q44 66 84 133q113 191 150 310q58 189 115 415q14 56 23 56t27 -58q13 -48 57 -178q26 -64 94 -240
q62 -165 109 -247q45 -78 118 -185z" />
    <glyph glyph-name="nine" unicode="9" horiz-adv-x="916" 
d="M754 125q-63 -182 -68 -182q-28 0 -78 113q-32 73 -53 140q-29 93 -48 261q-1 18 -6 104q-48 -19 -138 -19q-198 0 -198 174q0 91 66 217q78 148 171 148q148 0 192 -469q24 -253 104 -395q22 -39 56 -92zM481 715q-9 85 -18 117q-19 68 -95 67q-41 -1 -82 -64
q-33 -51 -37 -80q-8 -65 125 -65q69 0 107 25z" />
    <glyph glyph-name="nine" unicode="&#x6f9;" horiz-adv-x="916" 
d="M754 125q-63 -182 -68 -182q-28 0 -78 113q-32 73 -53 140q-29 93 -48 261q-1 18 -6 104q-48 -19 -138 -19q-198 0 -198 174q0 91 66 217q78 148 171 148q148 0 192 -469q24 -253 104 -395q22 -39 56 -92zM481 715q-9 85 -18 117q-19 68 -95 67q-41 -1 -82 -64
q-33 -51 -37 -80q-8 -65 125 -65q69 0 107 25z" />
    <glyph glyph-name="nine" unicode="&#x669;" horiz-adv-x="916" 
d="M754 125q-63 -182 -68 -182q-28 0 -78 113q-32 73 -53 140q-29 93 -48 261q-1 18 -6 104q-48 -19 -138 -19q-198 0 -198 174q0 91 66 217q78 148 171 148q148 0 192 -469q24 -253 104 -395q22 -39 56 -92zM481 715q-9 85 -18 117q-19 68 -95 67q-41 -1 -82 -64
q-33 -51 -37 -80q-8 -65 125 -65q69 0 107 25z" />
    <glyph glyph-name="colon" unicode=":" horiz-adv-x="399" 
d="M386 497q0 -18 -43 -61.5t-60 -43.5q-18 0 -60 42.5t-42 61.5q0 17 44.5 61t61.5 44q16 0 57.5 -44t41.5 -60zM386 62q0 -18 -43 -61.5t-60 -43.5q-18 0 -60 42.5t-42 60.5q0 17 44.5 61.5t61.5 44.5q16 0 57.5 -43.5t41.5 -60.5z" />
    <glyph glyph-name="equal" unicode="=" horiz-adv-x="990" 
d="M879 473h-785v96h785v-96zM879 237h-785v97h785v-97z" />
    <glyph glyph-name="bracketleft" unicode="[" horiz-adv-x="488" 
d="M159 1195v-1677h324v78h-240v1521h239v78h-323z" />
    <glyph glyph-name="bracketright" unicode="]" horiz-adv-x="488" 
d="M483 -483v1677h-324v-78h240v-1521h-239v-78h323z" />
    <glyph glyph-name="braceleft" unicode="{" horiz-adv-x="963" 
d="M754 -342q-151 14 -258 119q-112 110 -112 259q0 53 23 156.5t23 156.5q0 81 -74 138q-61 48 -149 64v34q132 24 194 113q29 42 29 88q0 53 -23 156.5t-23 156.5q0 150 111 259q107 105 259 119v-36q-139 -14 -199 -128q-28 -53 -28 -105q0 -53 18.5 -158t18.5 -158
q0 -137 -129 -243q-63 -52 -149 -82q172 -55 245 -195q33 -63 33 -129q0 -53 -18.5 -158t-18.5 -158q0 -95 67 -160q64 -63 160 -72v-37z" />
    <glyph glyph-name="braceright" unicode="}" horiz-adv-x="963" 
d="M756 551q-88 -16 -149 -64q-74 -57 -74 -138q0 -51 23 -153.5t23 -159.5q0 -192 -180 -312q-84 -56 -190 -66v37q138 14 199 127q28 52 28 105t-19 158t-19 158q0 114 87 206q75 81 192 122q-170 51 -245 195q-34 65 -34 126q0 53 19 158t19 158q0 120 -105 192
q-49 34 -122 41v36q114 -10 206.5 -76.5t136.5 -170.5q27 -64 27 -131q0 -53 -23 -156.5t-23 -156.5q0 -80 74 -137q60 -47 149 -64v-34z" />
    <glyph glyph-name="guillemotleft" unicode="&#xab;" horiz-adv-x="819" 
d="M764 10h-52l-334 392l334 386h46l-242 -386zM462 10h-48l-332 392l334 386h46l-241 -386z" />
    <glyph glyph-name="periodcentered" unicode="&#xb7;" horiz-adv-x="522" 
d="M364 776q0 -95 -103 -95q-43 0 -72.5 26.5t-29.5 68.5q0 95 102 95q103 0 103 -95z" />
    <glyph glyph-name="periodcentered" unicode="&#x2219;" horiz-adv-x="522" 
d="M364 776q0 -95 -103 -95q-43 0 -72.5 26.5t-29.5 68.5q0 95 102 95q103 0 103 -95z" />
    <glyph glyph-name="periodcentered" unicode="&#x2d9;" horiz-adv-x="522" 
d="M364 776q0 -95 -103 -95q-43 0 -72.5 26.5t-29.5 68.5q0 95 102 95q103 0 103 -95z" />
    <glyph glyph-name="guillemotright" unicode="&#xbb;" horiz-adv-x="819" 
d="M748 392l-332 -382h-48l241 382l-249 396h44zM450 392l-329 -382h-48l238 382l-246 396h44z" />
    <glyph glyph-name="multiply" unicode="&#xd7;" horiz-adv-x="928" 
d="M787 215l-57 -56l-272 270l-272 -270l-57 56l269 273l-269 273l60 55l269 -271l272 271l57 -55l-274 -273z" />
    <glyph glyph-name="divide" unicode="&#xf7;" horiz-adv-x="928" 
d="M539 758q0 -36 -23 -61t-59 -25q-35 0 -59.5 25.5t-24.5 60.5t24.5 58t59.5 23q82 0 82 -81zM820 444h-717v81h717v-81zM539 211q0 -35 -23.5 -59.5t-58.5 -24.5t-59.5 24.5t-24.5 59.5q0 83 84 83q35 0 58.5 -24t23.5 -59z" />
    <glyph glyph-name="u060C" unicode="&#x60c;" horiz-adv-x="413" 
d="M410 59q0 -25 -39.5 -66.5t-63.5 -41.5q-28 0 -68 36q-58 52 -58 138q0 52 61 138q64 90 113 90q14 0 18 -11t-5 -20q-74 -76 -74 -114q0 -54 51 -75q65 -27 65 -74z" />
    <glyph glyph-name="u061B" unicode="&#x61b;" horiz-adv-x="427" 
d="M414 397q0 -25 -41 -66.5t-66 -41.5q-28 0 -68 36q-58 52 -58 139q0 52 61 138q64 90 113 90q19 0 22 -10t-9 -22q-74 -76 -74 -114q0 -61 51 -75q69 -19 69 -74zM399 62q0 -17 -42.5 -61t-58.5 -44q-19 0 -61.5 42.5t-42.5 60.5q0 17 45 61.5t62 44.5q16 0 57 -44
t41 -60z" />
    <glyph glyph-name="u061F" unicode="&#x61f;" horiz-adv-x="674" 
d="M659 1107q-31 -72 -80 -134q-73 49 -136 49q-47 0 -83 -27q-40 -29 -40 -75q0 -61 102 -165q81 -83 108 -120q52 -72 52 -139q0 -103 -114 -205l-69 60q94 89 94 148q0 55 -80 131l-150 141q-80 92 -80 181q0 102 81 171q76 66 180 66q51 0 117 -22q74 -25 98 -60z
M582 69q0 -24 -50 -75t-74 -51q-25 0 -76 55.5t-51 80.5q0 21 54 70t75 49q23 0 72.5 -53t49.5 -76z" />
    <glyph glyph-name="u0621" unicode="&#x621;" horiz-adv-x="672" 
d="M672 147q0 -7 -34 -87q-8 -18 -41 -18q-8 0 -49 2q-44 -3 -95 -14q-74 -16 -118 -40q-25 -13 -87 -61q-13 -10 -21 -10q-10 0 -10 11q0 24 66 112q-102 62 -102 99q0 42 96 138q110 110 209 110q30 0 54 -21t24 -50q0 -22 -37 -57t-60 -35q-3 0 -35.5 23.5t-52.5 23.5
q-10 0 -44 -16.5t-34 -23.5q0 -28 62 -56q71 -33 161 -32q35 0 137 15q6 -1 11 -13z" />
    <glyph glyph-name="u0640" unicode="&#x640;" horiz-adv-x="684" 
d="M721 1h-751v158h751v-158z" />
    <glyph glyph-name="u064B" unicode="&#x64b;" 
d="M400 1820q0 -66 -34 -85l-297 -169q5 66 64 100zM400 1676q0 -65 -34 -84l-297 -169q5 65 64 99z" />
    <glyph glyph-name="u064C" unicode="&#x64c;" 
d="M454 1553q0 -35 -2 -58q-39 20 -90 58q-122 -127 -235 -143q42 90 42 127q0 54 -48 54q-42 0 -48 -75q-10 31 -10 51q0 41 20 72q23 36 62 36q73 0 66 -98l-6 -90q64 24 122 88q-65 43 -65 92t35 95q38 50 85 50q24 0 45.5 -27t21.5 -52q0 -29 -11 -57l-22 -55
q38 -29 38 -68zM380 1694q0 52 -40 52q-26 0 -26 -23q0 -24 62 -67q4 11 4 38z" />
    <glyph glyph-name="u064D" unicode="&#x64d;" 
d="M400 -868q0 -66 -34 -85l-297 -169q5 65 64 99zM400 -1013q0 -65 -34 -84l-297 -169q5 65 64 99z" />
    <glyph glyph-name="u064E" unicode="&#x64e;" 
d="M400 1676q0 -65 -34 -84l-297 -169q5 65 64 99z" />
    <glyph glyph-name="u064F" unicode="&#x64f;" 
d="M406 1611l-8 -98l-78 51q-118 -141 -193 -141q-19 0 -58 12q100 56 209 153q-60 44 -60 88q0 59 44 123q29 42 70 42q66 0 66 -86q0 -47 -30 -115q14 -10 38 -29zM338 1697q0 22 -15.5 41t-36.5 19q-18 0 -18 -20q0 -30 64 -73q6 19 6 33z" />
    <glyph glyph-name="u0650" unicode="&#x650;" 
d="M420 -858q0 -66 -34 -85l-297 -169q5 65 64 99z" />
    <glyph glyph-name="u0651" unicode="&#x651;" 
d="M412 1652q0 -165 -102 -165q-34 0 -63 21q-8 -34 -38 -59.5t-64 -25.5q-80 0 -80 106q0 22 21 99l23 4q0 -109 38 -109q63 0 89 159l17 6q23 -96 57 -96q57 0 66 144l22 10q14 -54 14 -94z" />
    <glyph glyph-name="u0652" unicode="&#x652;" 
d="M326 1584q0 -62 -43.5 -111.5t-104.5 -49.5q-105 0 -105 119q0 73 30 124q36 63 104 63q52 0 87 -48q32 -43 32 -97zM272 1560q0 28 -40 56.5t-69 28.5q-58 0 -58 -67q0 -58 90 -58q77 0 77 40z" />
    <glyph glyph-name="zeronojoin" unicode="&#x200c;" horiz-adv-x="31" 
 />
    <glyph glyph-name="zerojoin" unicode="&#x200d;" horiz-adv-x="31" 
 />
    <glyph glyph-name="lefttoright" unicode="&#x200e;" horiz-adv-x="31" 
d="M207 1100l-92 -94l-23 20l60 60h-121v-1086h-31v1115h148l-56 57l23 21z" />
    <glyph glyph-name="righttoleft" unicode="&#x200f;" horiz-adv-x="31" 
d="M31 0h-31v1086h-121l59 -60l-20 -20l-95 94l95 93l20 -21l-57 -57h150v-1115z" />
    <glyph glyph-name="quoteleft" unicode="&#x2018;" horiz-adv-x="522" 
d="M386 1089q0 -42 -32.5 -70t-75.5 -28q-65 0 -105 52q-37 48 -37 115q0 128 108 225q51 46 116 71l14 -37q-155 -91 -155 -201q0 -42 28 -42q8 0 24 3t24 3q91 0 91 -91z" />
    <glyph glyph-name="quoteright" unicode="&#x2019;" horiz-adv-x="522" 
d="M386 1287q0 -98 -66 -181q-61 -77 -157 -115l-14 37q154 89 154 200q0 42 -27 42q-8 0 -24.5 -3t-24.5 -3q-38 0 -64.5 26t-26.5 64q0 43 32.5 71.5t76.5 28.5q64 0 104 -53q37 -48 37 -114z" />
    <glyph glyph-name="quotedblleft" unicode="&#x201c;" horiz-adv-x="963" 
d="M826 1089q0 -44 -32 -71t-77 -27q-66 0 -105 52q-35 46 -35 115q0 127 107 225q50 46 116 71l14 -37q-154 -90 -154 -201q0 -42 27 -42q7 1 13 2l12 2q12 2 24 2q90 0 90 -91zM370 1089q0 -43 -32.5 -70.5t-76.5 -27.5q-66 0 -105 52q-35 46 -35 115q0 127 107 225
q50 46 116 71l14 -37q-155 -90 -155 -201q0 -42 29 -42q8 0 24 3t24 3q90 0 90 -91z" />
    <glyph glyph-name="quotedblright" unicode="&#x201d;" horiz-adv-x="963" 
d="M842 1287q0 -98 -66 -181q-61 -77 -157 -115l-14 37q155 89 155 200q0 42 -29 42q-8 0 -24 -3t-24 -3q-37 0 -63.5 26.5t-26.5 63.5q0 44 32 72t77 28q64 0 104 -53q36 -48 36 -114zM386 1287q0 -98 -66 -181q-61 -77 -157 -115l-14 37q154 89 154 200q0 42 -27 42
q-8 0 -24.5 -3t-24.5 -3q-38 0 -64.5 26t-26.5 64q0 43 32.5 71.5t76.5 28.5q64 0 104 -53q37 -48 37 -114z" />
    <glyph glyph-name="guilsinglleft" unicode="&#x2039;" horiz-adv-x="460" 
d="M400 197h-36l-295 370l295 369h36l-191 -369z" />
    <glyph glyph-name="guilsinglright" unicode="&#x203a;" horiz-adv-x="460" 
d="M392 567l-296 -370h-36l191 370l-191 369h36z" />
    <glyph glyph-name="uE820" unicode="&#xe820;" 
d="M388 1148q0 -65 -34 -84l-297 -169q5 65 64 99z" />
    <glyph glyph-name="uE821" unicode="&#xe821;" 
d="M422 1128l-8 -98l-78 51q-118 -141 -193 -141q-19 0 -58 12q100 56 209 153q-60 44 -60 88q0 59 44 123q29 42 70 42q66 0 66 -86q0 -47 -30 -115q14 -10 38 -29zM354 1214q0 22 -15.5 41t-36.5 19q-18 0 -18 -20q0 -30 64 -73q6 19 6 33z" />
    <glyph glyph-name="uE822" unicode="&#xe822;" 
d="M343 1056q0 -62 -43.5 -111.5t-104.5 -49.5q-105 0 -105 119q0 73 30 124q36 63 104 63q52 0 87 -48q32 -43 32 -97zM289 1032q0 28 -40 56.5t-69 28.5q-58 0 -58 -67q0 -58 90 -58q77 0 77 40z" />
    <glyph glyph-name="uE823" unicode="&#xe823;" 
d="M392 1318q0 -66 -34 -85l-297 -169q5 66 64 100zM392 1174q0 -65 -34 -84l-297 -169q5 65 64 99z" />
    <glyph glyph-name="uE824" unicode="&#xe824;" 
d="M391 1046q0 -35 -2 -58q-39 20 -90 58q-122 -127 -235 -143q42 90 42 127q0 54 -48 54q-42 0 -48 -75q-10 31 -10 51q0 41 20 72q23 36 62 36q73 0 66 -98l-6 -90q64 24 122 88q-65 43 -65 92t35 95q38 50 85 50q24 0 45.5 -27t21.5 -52q0 -29 -11 -57l-22 -55
q38 -29 38 -68zM317 1187q0 52 -40 52q-26 0 -26 -23q0 -24 62 -67q4 11 4 38z" />
    <glyph glyph-name="uE825" unicode="&#xe825;" 
d="M402 1128q0 -165 -102 -165q-34 0 -63 21q-8 -34 -38 -59.5t-64 -25.5q-80 0 -80 106q0 22 21 99l23 4q0 -109 38 -109q63 0 89 159l17 6q23 -96 57 -96q57 0 66 144l22 10q14 -54 14 -94z" />
    <glyph glyph-name="uE826" unicode="&#xe826;" 
d="M336 -296q0 -66 -34 -85l-297 -169q5 65 64 99z" />
    <glyph glyph-name="uE827" unicode="&#xe827;" 
d="M304 -312q0 -66 -34 -85l-297 -169q5 65 64 99zM304 -457q0 -65 -34 -84l-297 -169q5 65 64 99z" />
    <glyph glyph-name="uE828" unicode="&#xe828;" 
d="M424 1135q0 -165 -102 -165q-34 0 -63 21q-8 -34 -38 -59.5t-64 -25.5q-80 0 -80 106q0 22 21 99l23 4q0 -109 38 -109q63 0 89 159l17 6q23 -96 57 -96q57 0 66 144l22 10q14 -54 14 -94zM416 1477q0 -65 -34 -84l-297 -169q5 65 64 99z" />
    <glyph glyph-name="uE829" unicode="&#xe829;" 
d="M402 1142q0 -165 -102 -165q-34 0 -63 21q-8 -34 -38 -59.5t-64 -25.5q-80 0 -80 106q0 22 21 99l23 4q0 -109 38 -109q63 0 89 159l17 6q23 -96 57 -96q57 0 66 144l22 10q14 -54 14 -94zM346 1421l-8 -98l-78 51q-118 -141 -193 -141q-19 0 -58 12q100 56 209 153
q-60 44 -60 88q0 59 44 123q29 42 70 42q66 0 66 -86q0 -47 -30 -115q14 -10 38 -29zM278 1507q0 22 -15.5 41t-36.5 19q-18 0 -18 -20q0 -30 64 -73q6 19 6 33z" />
    <glyph glyph-name="uE82A" unicode="&#xe82a;" 
d="M392 1182q0 -165 -102 -165q-34 0 -63 21q-8 -34 -38 -59.5t-64 -25.5q-80 0 -80 106q0 22 21 99l23 4q0 -109 38 -109q63 0 89 159l17 6q23 -96 57 -96q57 0 66 144l22 10q14 -54 14 -94zM400 1652q0 -66 -34 -85l-297 -169q5 65 64 99zM400 1507q0 -65 -34 -84
l-297 -169q5 65 64 99z" />
    <glyph glyph-name="uE82B" unicode="&#xe82b;" 
d="M439 1162q0 -165 -102 -165q-34 0 -63 21q-8 -34 -38 -59.5t-64 -25.5q-80 0 -80 106q0 22 21 99l23 4q0 -109 38 -109q63 0 89 159l17 6q23 -96 57 -96q57 0 66 144l22 10q14 -54 14 -94zM483 1408q0 -35 -2 -58q-39 20 -90 58q-122 -127 -235 -143q42 90 42 127
q0 54 -48 54q-42 0 -48 -75q-10 31 -10 51q0 41 20 72q23 36 62 36q73 0 66 -98l-6 -90q64 24 122 88q-65 43 -65 92t35 95q38 50 85 50q24 0 45.5 -27t21.5 -52q0 -29 -11 -57l-22 -55q38 -29 38 -68zM409 1549q0 52 -40 52q-26 0 -26 -23q0 -24 62 -67q4 11 4 38z" />
    <glyph glyph-name="uE82C" unicode="&#xe82c;" 
d="M402 1352q0 -165 -102 -165q-34 0 -63 21q-8 -34 -38 -59q-54 -46 -64 -46q-80 0 -80 126q0 22 21 99l23 4q0 -109 38 -109q63 0 89 159l17 6q23 -96 57 -96q57 0 66 144l22 10q14 -54 14 -94zM410 1142q0 -66 -34 -85l-297 -169q5 65 64 99z" />
    <glyph glyph-name="uE82D" unicode="&#xe82d;" 
d="M402 1452q0 -165 -102 -165q-34 0 -63 21q-8 -34 -38 -59.5t-64 -25.5q-80 0 -80 106q0 22 21 99l23 4q0 -109 38 -109q63 0 89 159l17 6q23 -96 57 -96q57 0 66 144l22 10q14 -54 14 -94zM414 1247q0 -66 -34 -85l-297 -169q5 65 64 99zM414 1102q0 -65 -34 -84
l-297 -169q5 65 64 99z" />
  </font>
</defs>
</svg>
