<?xml version="1.0" standalone="no"?>
<!DOCTYPE svg PUBLIC "-//W3C//DTD SVG 1.1//EN" "http://www.w3.org/Graphics/SVG/1.1/DTD/svg11.dtd" >
<svg xmlns="http://www.w3.org/2000/svg" xmlns:xlink="http://www.w3.org/1999/xlink" version="1.1">
<metadata>
Created by FontForge 20150824 at Mon Mar  7 00:16:52 2016
 By Everything Fonts
(c) 2000 Borna Rayaneh
</metadata>
<defs>
<font id="koodak" horiz-adv-x="0" >
  <font-face 
    font-family="koodak"
    font-weight="700"
    font-stretch="normal"
    units-per-em="2048"
    panose-1="0 0 7 0 0 0 0 0 0 0"
    ascent="1638"
    descent="-410"
    bbox="-192 -1375 2217 2102"
    underline-thickness="60"
    underline-position="-960"
    unicode-range="U+0020-FEFC"
  />
<missing-glyph horiz-adv-x="1024" 
d="M128 0v1255h768v-1255h-768zM256 128h512v999h-512v-999z" />
    <glyph glyph-name="uE818" unicode="&#x651;&#x64b;" 
d="M509 1536q7 -35 7 -66q0 -78 -32 -130q-38 -63 -111 -63q-70 0 -94 68q-38 -105 -139 -105q-96 0 -96 126q0 55 23 104q13 27 35 27q33 0 27 -46q-10 -88 40 -88q73 0 91 129q6 43 36 43q28 0 29 -40q4 -100 63 -100q68 0 50 127q-1 7 -1 15q0 45 32 45q31 0 40 -46z
M483 1926l-385 -120q-7 -2 -15 -2q-44 0 -44 47q0 35 42 49l371 118q9 3 21 3q50 0 50 -48q0 -35 -40 -47zM492 1724l-384 -120q-7 -2 -15 -2q-44 0 -44 47q0 36 41 49l371 118q9 3 21 3q51 0 51 -48q0 -35 -41 -47z" />
    <glyph glyph-name="uFC5E" unicode="&#x651;&#x64c;" arabic-form="isolated" 
d="M515 1550q7 -36 7 -66q0 -78 -32 -130q-39 -63 -111 -63q-70 0 -94 68q-38 -105 -139 -105q-96 0 -96 126q0 55 23 104q12 27 35 27q32 0 27 -46q-11 -88 40 -88q73 0 91 129q6 43 36 43q27 0 29 -40q3 -100 63 -100q67 0 50 127q-1 7 -1 15q0 45 32 45q30 0 40 -46z
M538 1970q0 -106 -101 -183q36 -25 36 -53q0 -34 -40 -34q-31 0 -67 28q-220 -116 -308 -116q-52 0 -52 43q0 34 41 45q68 18 68 79q0 28 -39 28q-28 0 -53 -15q-15 -9 -26 -9q-24 0 -24 25q0 20 19 39q41 41 103 41q92 0 92 -84q0 -30 -17 -66q58 22 117 59q-44 46 -44 103
q0 69 51.5 126t120.5 57q49 0 86 -32.5t37 -80.5zM450 1936q0 57 -55 57q-27 0 -49 -26.5t-22 -53.5q0 -45 47 -70q27 8 53 37t26 56z" />
    <glyph glyph-name="uFC5F" unicode="&#x651;&#x64d;" arabic-form="isolated" 
d="M526 2056q7 -35 7 -66q0 -77 -32 -130q-38 -63 -111 -63q-70 0 -94 68q-38 -105 -139 -105q-96 0 -96 126q0 56 23 104q13 27 35 27q33 0 27 -46q-10 -88 40 -88q73 0 91 129q6 43 36 43q28 0 29 -40q4 -100 63 -100q68 0 50 127q-1 7 -1 15q0 45 32 45q31 0 40 -46z
M491 1616l-385 -120q-6 -2 -15 -2q-44 0 -44 47q0 36 42 49l371 118q10 3 21 3q50 0 50 -48q0 -34 -40 -47zM500 1423l-384 -119q-6 -2 -15 -2q-44 0 -44 46q0 36 41 49l372 119q9 3 20 3q51 0 51 -48q0 -35 -41 -48z" />
    <glyph glyph-name="uFC60" unicode="&#x651;&#x64e;" arabic-form="isolated" 
d="M526 1512q7 -35 7 -66q0 -77 -32 -130q-38 -63 -111 -63q-70 0 -94 68q-38 -105 -139 -105q-96 0 -96 126q0 56 23 104q13 27 35 27q33 0 27 -46q-10 -88 40 -88q73 0 91 129q6 43 36 43q28 0 29 -40q4 -100 63 -100q68 0 50 127q-1 7 -1 15q0 45 32 45q31 0 40 -46z
M516 1695l-384 -120q-6 -2 -15 -2q-44 0 -44 47q0 36 41 49l371 118q10 3 21 3q51 0 51 -48q0 -34 -41 -47z" />
    <glyph glyph-name="uFC61" unicode="&#x651;&#x64f;" arabic-form="isolated" 
d="M543 1521q7 -36 7 -66q0 -78 -32 -130q-38 -63 -111 -63q-70 0 -94 68q-38 -105 -139 -105q-96 0 -96 126q0 55 23 104q13 27 35 27q32 0 27 -46q-11 -88 40 -88q73 0 91 129q6 43 36 43q28 0 29 -40q4 -100 63 -100q68 0 50 127q-1 7 -1 15q0 45 32 45q31 0 40 -46z
M558 1939q0 -106 -101 -183q36 -25 36 -53q0 -34 -40 -34q-31 0 -67 28q-220 -116 -308 -116q-52 0 -52 43q0 34 41 45q149 39 240 97q-44 46 -44 103q0 69 51.5 126t120.5 57q49 0 86 -32.5t37 -80.5zM470 1905q0 57 -55 57q-26 0 -48.5 -26.5t-22.5 -53.5q0 -45 47 -70
q27 8 53 37t26 56z" />
    <glyph glyph-name="uFC62" unicode="&#x651;&#x650;" arabic-form="isolated" 
d="M518 1795q7 -35 7 -66q0 -77 -32 -130q-38 -63 -111 -63q-70 0 -94 68q-38 -105 -139 -105q-96 0 -96 126q0 56 23 104q12 27 35 27q32 0 27 -46q-11 -88 40 -88q73 0 91 129q6 43 36 43q27 0 29 -40q3 -100 63 -100q67 0 50 127q-1 7 -1 15q0 45 32 45q31 0 40 -46z
M502 1383l-384 -120q-6 -2 -15 -2q-44 0 -44 47q0 36 41 49l371 118q10 3 21 3q51 0 51 -48q0 -34 -41 -47z" />
    <glyph glyph-name="uFDF2" unicode="&#xfedf;&#xfee0;&#xfeea;" horiz-adv-x="1465" arabic-form="isolated" 
d="M974 1322q0 -44 -29 -44q-27 0 -32 43l-18 150q-7 56 42 56q37 0 37 -50v-155zM1154 1214q6 -29 6 -59q0 -71 -31 -120q-36 -59 -103 -59q-58 0 -85 52q-36 -86 -125 -86q-91 0 -91 120q0 51 21 95q13 27 37 27q34 0 28 -48q-10 -74 31 -74q62 0 78 113q6 44 37 44
q28 0 30 -42q3 -86 52 -86q44 0 44 67q0 21 -3 42q-9 62 32 62q32 0 42 -48zM1454 311q-34 -321 -271 -321q-151 0 -221 137q-74 -126 -226 -126q-96 0 -164 49q-73 52 -90 143q-51 -26 -122 -26q-85 0 -155 36q-86 44 -86 121q0 90 62 160q36 41 124 93q92 56 125 89
q11 11 62 94q28 46 77 46q69 0 69 -105q0 -42 -4 -126t-4 -126q0 -97 16 -141q27 -74 106 -74q126 0 116 173l-20 357q-3 51 19 87q25 42 74 42q87 0 91 -109l12 -294q11 -265 129 -265q96 0 106 146q13 196 -24 432q-3 19 -3 35q0 118 92 118q81 0 97 -112q24 -167 24 -318
q0 -111 -11 -215zM473 514q-26 -22 -117 -73q-61 -35 -61 -66q0 -30 72 -30q69 0 102 17q-3 55 4 152z" />
    <glyph glyph-name="uFEF5" unicode="&#xfedf;&#xfe82;" horiz-adv-x="1012" arabic-form="isolated" 
d="M583 188q123 35 172 102q57 78 57 246q0 67 -6 136l-35 401q-5 57 19 101q28 52 83 52q100 0 108 -136l26 -447q2 -34 2 -81q0 -609 -597 -609q-176 0 -176 105q0 73 144 101q20 4 203 29zM433 446q0 303 -153 564q-22 37 -22 76q0 46 27.5 77t72.5 31q105 0 183 -220
q74 -208 74 -468q0 -112 -17 -208q-15 -84 -98 -84q-76 0 -76 76q0 26 4.5 78t4.5 78zM753 1547q0 -89 -75 -147q-69 -54 -160 -54q-41 0 -124 6t-124 6q-73 0 -111 -31q-12 -10 -41 -56q-19 -30 -50 -30q-38 0 -38 39q0 92 60 151.5t153 59.5q44 0 133 -6.5t133 -6.5
q65 0 132.5 54t76.5 54q35 0 35 -39z" />
    <glyph glyph-name="uFEF6" unicode="&#xfee0;&#xfe82;" horiz-adv-x="1203" arabic-form="final" 
d="M587 190q128 24 183 123q42 75 42 224q0 66 -6 135l-35 401q-5 57 19 101q28 52 83 52q100 0 108 -136l26 -447q13 -220 42 -299q41 -110 142 -110h40v-233h-65q-87 0 -155.5 50.5t-90.5 133.5q-104 -232 -518 -232q-166 0 -166 109q0 71 107 88q63 9 244 40zM433 446
q0 303 -153 564q-22 37 -22 76q0 46 27.5 77t72.5 31q105 0 183 -220q74 -208 74 -468q0 -112 -17 -208q-15 -84 -98 -84q-76 0 -76 76q0 26 4.5 78t4.5 78zM753 1547q0 -89 -75 -147q-69 -54 -160 -54q-41 0 -124 6t-124 6q-73 0 -111 -31q-12 -10 -41 -56q-19 -30 -50 -30
q-38 0 -38 39q0 92 60 151.5t153 59.5q44 0 133 -6.5t133 -6.5q65 0 132.5 54t76.5 54q35 0 35 -39z" />
    <glyph glyph-name="uFEF7" unicode="&#xfedf;&#xfe84;" horiz-adv-x="943" arabic-form="isolated" 
d="M515 188q124 35 173 102q57 78 57 246q0 53 -7 136l-34 401q-5 57 19 101q28 52 83 52q99 0 107 -136l26 -447q3 -52 3 -81q0 -609 -598 -609q-176 0 -176 105q0 73 144 101q14 3 203 29zM375 446q0 302 -153 564q-21 36 -21 76q0 45 27.5 76.5t71.5 31.5q130 0 205 -293
q53 -207 53 -395q0 -108 -18 -208q-15 -84 -97 -84q-77 0 -77 77q0 26 4.5 77.5t4.5 77.5zM506 1353l-338 -108q-16 -5 -29 -5q-45 0 -45 39q0 36 49 57l57 24q-54 49 -54 116q0 77 54.5 128t132.5 51q41 0 79 -18q47 -22 47 -58q0 -37 -35 -37q-16 0 -48.5 6.5t-48.5 6.5
q-76 0 -76 -66q0 -73 114 -73q11 0 120 32q17 5 31 5q52 0 52 -40t-62 -60z" />
    <glyph glyph-name="uFEF8" unicode="&#xfee0;&#xfe84;" horiz-adv-x="1134" arabic-form="final" 
d="M519 190q128 24 184 123q42 74 42 224q0 52 -7 135l-34 401q-5 57 19 101q28 52 83 52q99 0 107 -136l26 -447q13 -215 43 -299q40 -110 142 -110h39v-233h-64q-88 0 -155.5 50t-90.5 134q-106 -232 -518 -232q-167 0 -167 109q0 71 107 88q63 9 244 40zM375 446
q0 302 -153 564q-21 36 -21 76q0 45 27.5 76.5t71.5 31.5q130 0 205 -293q53 -207 53 -395q0 -108 -18 -208q-15 -84 -97 -84q-77 0 -77 77q0 26 4.5 77.5t4.5 77.5zM506 1353l-338 -108q-16 -5 -29 -5q-45 0 -45 39q0 36 49 57l57 24q-54 49 -54 116q0 77 54.5 128
t132.5 51q41 0 79 -18q47 -22 47 -58q0 -37 -35 -37q-16 0 -48.5 6.5t-48.5 6.5q-76 0 -76 -66q0 -73 114 -73q11 0 120 32q17 5 31 5q52 0 52 -40t-62 -60z" />
    <glyph glyph-name="uFEF9" unicode="&#xfedf;&#xfe88;" horiz-adv-x="943" arabic-form="isolated" 
d="M515 188q124 35 173 102q57 78 57 246q0 53 -7 136l-34 401q-5 57 19 101q28 52 83 52q99 0 107 -136l26 -447q3 -52 3 -81q0 -609 -598 -609q-176 0 -176 105q0 73 144 101q14 3 203 29zM375 446q0 302 -153 564q-21 36 -21 76q0 45 27.5 76.5t71.5 31.5q130 0 205 -293
q53 -207 53 -395q0 -108 -18 -208q-15 -84 -97 -84q-77 0 -77 77q0 26 4.5 77.5t4.5 77.5zM560 -455l-338 -107q-16 -5 -29 -5q-45 0 -45 38t49 58l57 23q-54 50 -54 116q0 78 54.5 128.5t132.5 50.5q41 0 78 -18q47 -22 47 -58t-34 -36q-16 0 -48.5 6t-48.5 6
q-76 0 -76 -65q0 -73 114 -73q10 0 119 31q18 5 31 5q53 0 53 -40t-62 -60z" />
    <glyph glyph-name="uFEFA" unicode="&#xfee0;&#xfe88;" horiz-adv-x="1134" arabic-form="final" 
d="M519 190q128 24 184 123q42 74 42 224q0 52 -7 135l-34 401q-5 57 19 101q28 52 83 52q99 0 107 -136l26 -447q13 -215 43 -299q40 -110 142 -110h39v-233h-64q-88 0 -155.5 50t-90.5 134q-106 -232 -518 -232q-167 0 -167 109q0 71 107 88q63 9 244 40zM375 446
q0 302 -153 564q-21 36 -21 76q0 45 27.5 76.5t71.5 31.5q130 0 205 -293q53 -207 53 -395q0 -108 -18 -208q-15 -84 -97 -84q-77 0 -77 77q0 26 4.5 77.5t4.5 77.5zM560 -455l-338 -107q-16 -5 -29 -5q-45 0 -45 38t49 58l57 23q-54 50 -54 116q0 78 54.5 128.5t132.5 50.5
q41 0 78 -18q47 -22 47 -58t-34 -36q-16 0 -48.5 6t-48.5 6q-76 0 -76 -65q0 -73 114 -73q10 0 119 31q18 5 31 5q53 0 53 -40t-62 -60z" />
    <glyph glyph-name="uFEFB" unicode="&#xfedf;&#xfe8e;" horiz-adv-x="943" arabic-form="isolated" 
d="M515 188q124 35 173 102q57 78 57 246q0 53 -7 136l-34 401q-5 57 19 101q28 52 83 52q99 0 107 -136l26 -447q3 -52 3 -81q0 -609 -598 -609q-176 0 -176 105q0 73 144 101q14 3 203 29zM375 446q0 302 -153 564q-21 36 -21 76q0 45 27.5 76.5t71.5 31.5q130 0 205 -293
q53 -207 53 -395q0 -108 -18 -208q-15 -84 -97 -84q-77 0 -77 77q0 26 4.5 77.5t4.5 77.5z" />
    <glyph glyph-name="uFEFC" unicode="&#xfee0;&#xfe8e;" horiz-adv-x="1134" arabic-form="final" 
d="M519 190q128 24 184 123q42 74 42 224q0 52 -7 135l-34 401q-5 57 19 101q28 52 83 52q99 0 107 -136l26 -447q13 -215 43 -299q40 -110 142 -110h39v-233h-64q-88 0 -155.5 50t-90.5 134q-106 -232 -518 -232q-167 0 -167 109q0 71 107 88q63 9 244 40zM375 446
q0 302 -153 564q-21 36 -21 76q0 45 27.5 76.5t71.5 31.5q130 0 205 -293q53 -207 53 -395q0 -108 -18 -208q-15 -84 -97 -84q-77 0 -77 77q0 26 4.5 77.5t4.5 77.5z" />
    <glyph glyph-name="u0622" unicode="&#x622;" horiz-adv-x="798" arabic-form="isolated" 
d="M634 75q0 -109 -86 -109q-82 0 -86 102l-38 994q-2 62 22 109q29 58 87 58q101 0 101 -152v-1002zM844 1547q0 -89 -74 -147q-68 -54 -160 -54q-41 0 -124 6t-124 6q-75 0 -112 -31q-12 -10 -41 -56q-19 -30 -49 -30q-39 0 -39 39q0 92 60.5 151.5t153.5 59.5
q44 0 132.5 -6.5t132.5 -6.5q65 0 132.5 54t77.5 54q34 0 34 -39z" />
    <glyph glyph-name="u0623" unicode="&#x623;" horiz-adv-x="596" arabic-form="isolated" 
d="M499 75q0 -109 -86 -109q-81 0 -85 102l-39 994q-2 62 22 109q30 58 87 58q101 0 101 -152v-1002zM550 1385l-338 -108q-16 -5 -28 -5q-45 0 -45 38q0 39 48 58l57 23q-54 50 -54 117q0 78 54 128t133 50q42 0 79 -17q47 -21 47 -58t-35 -37q-16 0 -48.5 6t-48.5 6
q-76 0 -76 -65q0 -73 115 -73q7 0 119 32q14 4 31 4q52 0 52 -40q0 -39 -62 -59z" />
    <glyph glyph-name="u0624" unicode="&#x624;" horiz-adv-x="808" arabic-form="isolated" 
d="M802 276q0 -230 -165 -421q-148 -171 -378 -261q-26 -10 -52 -10q-41 0 -70.5 26.5t-29.5 66.5q0 63 72 95q133 59 246 151q137 112 177 223q-47 -23 -113 -23q-111 0 -173 63.5t-62 174.5q0 113 69 213q76 110 179 110q151 0 232 -135q68 -113 68 -273zM604 342
q-4 48 -30 84q-30 41 -75 41q-33 0 -57 -22.5t-24 -55.5q0 -66 87 -66q64 0 99 19zM633 944l-338 -107q-16 -5 -29 -5q-45 0 -45 38t49 58l57 23q-54 50 -54 116q0 77 54.5 128t132.5 51q41 0 79 -18q47 -22 47 -58t-35 -36q-16 0 -48.5 6t-48.5 6q-76 0 -76 -65
q0 -73 114 -73q11 0 120 31q18 5 30 5q53 0 53 -40t-62 -60z" />
    <glyph glyph-name="u0625" unicode="&#x625;" horiz-adv-x="660" arabic-form="isolated" 
d="M509 75q0 -109 -86 -109q-82 0 -86 102l-38 994q-2 62 22 109q29 58 87 58q101 0 101 -152v-1002zM616 -460l-337 -107q-16 -5 -29 -5q-45 0 -45 38t49 58l57 23q-54 50 -54 116q0 78 54 128.5t132 50.5q41 0 79 -18q47 -22 47 -58t-34 -36q-17 0 -49 6t-49 6
q-75 0 -75 -65q0 -73 114 -73q20 0 65 15q50 17 67 20q6 1 18 1q53 0 53 -40t-63 -60z" />
    <glyph glyph-name="u0626" unicode="&#x626;" horiz-adv-x="1376" arabic-form="isolated" 
d="M1413 654q0 -72 -49 -103q-29 -19 -110 -30q-110 -16 -193 -59q-112 -59 -112 -150q0 -39 80 -53l136 -24q86 -24 121 -60q41 -43 41 -126q0 -191 -221 -335q-210 -137 -458 -137q-230 0 -355 114q-129 118 -129 346q0 111 36 222q47 145 128 145q83 0 83 -90
q0 -35 -24 -113t-24 -117q0 -276 310 -276q199 0 341 69q122 59 122 119q0 34 -100 49q-136 20 -186 47q-100 54 -100 183q0 185 179 334q171 143 359 143q125 0 125 -98zM621 638l-337 -107q-16 -5 -29 -5q-45 0 -45 38t49 58l56 23q-53 50 -53 117q0 78 53.5 128t132.5 50
q41 0 79 -18q47 -22 47 -58t-35 -36q-16 0 -48.5 6t-48.5 6q-76 0 -76 -65q0 -73 115 -73q7 0 119 32q14 4 31 4q53 0 53 -40t-63 -60z" />
    <glyph glyph-name="u0627" unicode="&#x627;" horiz-adv-x="375" arabic-form="isolated" 
d="M374 75q0 -109 -86 -109q-81 0 -85 102l-39 994q-2 62 22 109q30 58 87 58q101 0 101 -152v-1002z" />
    <glyph glyph-name="u0628" unicode="&#x628;" horiz-adv-x="1673" arabic-form="isolated" 
d="M1668 337q0 -223 -270 -317q-216 -75 -642 -75q-592 0 -592 347q0 90 26 174q37 119 106 119q73 0 73 -73q0 -25 -10.5 -73.5t-10.5 -73.5q0 -84 65 -125q96 -60 354 -60h123q177 0 324 22q259 39 259 128q0 40 -32 114t-32 104q0 112 99 112q82 0 127 -128
q33 -94 33 -195zM991 -360q0 -47 -33.5 -81t-80.5 -34q-48 0 -81.5 33.5t-33.5 81.5t33.5 81.5t81.5 33.5t81 -33.5t33 -81.5z" />
    <glyph glyph-name="u0629" unicode="&#x629;" horiz-adv-x="779" arabic-form="isolated" 
d="M774 294q0 -146 -106 -235q-94 -79 -222 -79q-117 0 -185 53q-76 59 -76 172q0 74 40 168q31 73 66 117q-79 40 -79 101q0 48 31.5 84t78.5 36q148 0 297 -129q155 -135 155 -288zM562 273q0 85 -143 146q-57 -77 -57 -141q0 -78 88 -78q39 0 72 17q40 20 40 56z
M541 1014l-337 -107q-16 -5 -29 -5q-45 0 -45 38t49 58l57 23q-54 50 -54 116q0 78 54 128.5t132 50.5q41 0 79 -18q47 -22 47 -58t-34 -36q-17 0 -49 6t-49 6q-75 0 -75 -65q0 -73 114 -73q20 0 65 15q50 17 67 20q6 1 18 1q53 0 53 -40t-63 -60z" />
    <glyph glyph-name="u062A" unicode="&#x62a;" horiz-adv-x="1673" arabic-form="isolated" 
d="M1668 337q0 -223 -270 -317q-216 -75 -642 -75q-592 0 -592 347q0 90 26 174q37 119 106 119q73 0 73 -73q0 -25 -10.5 -73.5t-10.5 -73.5q0 -84 65 -125q96 -60 354 -60h123q177 0 324 22q259 39 259 128q0 40 -32 114t-32 104q0 112 99 112q82 0 127 -128
q33 -94 33 -195zM1113 806q0 -48 -33 -82t-81 -34t-81 34t-33 82t33 81t81 33t81 -33t33 -81zM835 806q0 -48 -33.5 -82t-81.5 -34t-81 34t-33 82q0 47 33.5 80.5t80.5 33.5q48 0 81.5 -33t33.5 -81z" />
    <glyph glyph-name="u062B" unicode="&#x62b;" horiz-adv-x="1667" arabic-form="isolated" 
d="M1668 337q0 -223 -270 -317q-216 -75 -642 -75q-592 0 -592 347q0 90 26 174q37 119 106 119q73 0 73 -73q0 -25 -10.5 -73.5t-10.5 -73.5q0 -84 65 -125q96 -60 354 -60h123q177 0 324 22q259 39 259 128q0 40 -32 114t-32 104q0 112 99 112q82 0 127 -128
q33 -94 33 -195zM635 687q0 47 33.5 81t80.5 34q48 0 81 -33.5t33 -81.5t-33 -81.5t-81 -33.5t-81 33.5t-33 81.5zM913 687q0 48 33.5 81.5t81.5 33.5q47 0 80.5 -34t33.5 -81q0 -48 -33 -81.5t-81 -33.5t-81.5 33.5t-33.5 81.5zM774 930q0 47 33.5 81t80.5 34
q48 0 81.5 -33.5t33.5 -81.5t-33.5 -81.5t-81.5 -33.5t-81 33.5t-33 81.5z" />
    <glyph glyph-name="u062C" unicode="&#x62c;" horiz-adv-x="1178" arabic-form="isolated" 
d="M1179 -682q-191 -64 -360 -64q-655 0 -655 538q0 207 169 384q136 142 330 223q-164 13 -200 13q-48 0 -111 -43t-73 -43q-92 0 -92 86q0 67 69 144q78 88 178 88q80 0 239 -22.5t239 -22.5q56 0 117 3q60 3 101 -25q46 -31 46 -89q0 -112 -138 -137q-243 -43 -442 -185
q-221 -157 -221 -329q0 -209 140 -289q106 -61 337 -61q85 0 291 39q16 3 27 3q101 0 101 -98q0 -82 -92 -113zM889 -165q0 -48 -33 -82t-81 -34t-81 34t-33 82t33 81t81 33t81 -33t33 -81z" />
    <glyph glyph-name="u062D" unicode="&#x62d;" horiz-adv-x="1178" arabic-form="isolated" 
d="M1179 -682q-191 -64 -360 -64q-655 0 -655 538q0 207 169 384q136 142 330 223q-164 13 -200 13q-48 0 -111 -43t-73 -43q-92 0 -92 86q0 67 69 144q78 88 178 88q80 0 239 -22.5t239 -22.5q56 0 117 3q60 3 101 -25q46 -31 46 -89q0 -112 -138 -137q-243 -43 -442 -185
q-221 -157 -221 -329q0 -209 140 -289q106 -61 337 -61q85 0 291 39q16 3 27 3q101 0 101 -98q0 -82 -92 -113z" />
    <glyph glyph-name="u062E" unicode="&#x62e;" horiz-adv-x="1178" arabic-form="isolated" 
d="M1179 -682q-191 -64 -360 -64q-655 0 -655 538q0 207 169 384q136 142 330 223q-164 13 -200 13q-48 0 -111 -43t-73 -43q-92 0 -92 86q0 67 69 144q78 88 178 88q80 0 239 -22.5t239 -22.5q56 0 117 3q60 3 101 -25q46 -31 46 -89q0 -112 -138 -137q-243 -43 -442 -185
q-221 -157 -221 -329q0 -209 140 -289q106 -61 337 -61q85 0 291 39q16 3 27 3q101 0 101 -98q0 -82 -92 -113zM782 963q0 -48 -33.5 -81.5t-81.5 -33.5q-47 0 -80.5 34t-33.5 81q0 48 33 81.5t81 33.5t81.5 -33.5t33.5 -81.5z" />
    <glyph glyph-name="u062F" unicode="&#x62f;" horiz-adv-x="877" arabic-form="isolated" 
d="M768 55q-63 -45 -203 -82q-99 -26 -208 -26q-203 0 -194 109q7 88 152 107q34 5 221 21q156 32 161 83q10 101 -221 300q-83 72 -77 126q5 45 37.5 71.5t77.5 22.5q105 -9 235 -209q125 -192 125 -305q0 -142 -106 -218z" />
    <glyph glyph-name="u0630" unicode="&#x630;" horiz-adv-x="877" arabic-form="isolated" 
d="M768 55q-63 -45 -203 -82q-99 -26 -208 -26q-203 0 -194 109q7 88 152 107q34 5 221 21q156 32 161 83q10 101 -221 300q-83 72 -77 126q5 45 37.5 71.5t77.5 22.5q105 -9 235 -209q125 -192 125 -305q0 -142 -106 -218zM475 1050q0 -48 -33 -81.5t-81 -33.5t-81.5 33.5
t-33.5 81.5t33.5 81t81.5 33t81 -33t33 -81z" />
    <glyph glyph-name="u0631" unicode="&#x631;" horiz-adv-x="825" arabic-form="isolated" 
d="M817 433q3 -39 3 -75q0 -272 -159 -462q-151 -182 -419 -258q-21 -6 -46 -6q-99 0 -99 90q0 75 91 116q232 105 317 196q99 106 99 284q0 20 -3 60t-3 60q0 164 99 164q107 0 120 -169z" />
    <glyph glyph-name="u0632" unicode="&#x632;" horiz-adv-x="831" arabic-form="isolated" 
d="M755 886q0 -48 -33.5 -82t-81.5 -34t-81 34t-33 82q0 47 33.5 80.5t80.5 33.5q48 0 81.5 -33t33.5 -81zM817 433q3 -39 3 -75q0 -272 -159 -462q-151 -182 -419 -258q-21 -6 -46 -6q-99 0 -99 90q0 75 91 116q232 105 317 196q99 106 99 284q0 20 -3 60t-3 60
q0 164 99 164q107 0 120 -169z" />
    <glyph glyph-name="u0633" unicode="&#x633;" horiz-adv-x="2023" arabic-form="isolated" 
d="M2020 317q0 -132 -78 -221q-81 -95 -211 -95q-143 0 -202 120q-53 -120 -177 -120q-95 0 -140 32q0 -255 -129 -419q-151 -192 -439 -192q-255 0 -381 168q-99 132 -99 324q0 293 136 293q74 0 74 -87q0 -30 -9 -89t-9 -89q0 -139 85 -214q81 -72 222 -72q174 0 270 90
q100 93 100 265q0 53 -40.5 152t-40.5 135q0 102 102 102q40 0 74 -43q53 -67 69 -80q53 -43 139 -43q69 0 91 56q6 29 25 105q15 57 78 57q67 0 83 -87q23 -131 143 -131q75 0 75 85q0 22 -12.5 65.5t-12.5 65.5q0 34 23.5 61t56.5 27q73 0 108 -79q26 -58 26 -142z" />
    <glyph glyph-name="u0634" unicode="&#x634;" horiz-adv-x="2025" arabic-form="isolated" 
d="M2020 317q0 -132 -78 -221q-81 -95 -211 -95q-143 0 -202 120q-53 -120 -177 -120q-95 0 -140 32q0 -255 -129 -419q-151 -192 -439 -192q-255 0 -381 168q-99 132 -99 324q0 293 136 293q74 0 74 -87q0 -30 -9 -89t-9 -89q0 -139 85 -214q81 -72 222 -72q174 0 270 90
q100 93 100 265q0 53 -40.5 152t-40.5 135q0 102 102 102q40 0 74 -43q53 -67 69 -80q53 -43 139 -43q69 0 91 56q6 29 25 105q15 57 78 57q67 0 83 -87q23 -131 143 -131q75 0 75 85q0 22 -12.5 65.5t-12.5 65.5q0 34 23.5 61t56.5 27q73 0 108 -79q26 -58 26 -142z
M1246 756q0 48 33.5 81.5t81.5 33.5q47 0 80.5 -34t33.5 -81q0 -48 -33 -81.5t-81 -33.5t-81.5 33.5t-33.5 81.5zM1525 756q0 47 33.5 81t80.5 34q48 0 81.5 -33.5t33.5 -81.5t-33.5 -81.5t-81.5 -33.5t-81 33.5t-33 81.5zM1386 999q0 48 33 81.5t81 33.5t81 -33.5t33 -81.5
t-33 -81t-81 -33t-81 33t-33 81z" />
    <glyph glyph-name="u0635" unicode="&#x635;" horiz-adv-x="2111" arabic-form="isolated" 
d="M2109 427q0 -240 -237 -352q-178 -84 -454 -84q-142 0 -206 42q0 -259 -129 -422q-150 -189 -439 -189q-255 0 -381 168q-99 132 -99 324q0 293 136 293q74 0 74 -87q0 -30 -9 -89t-9 -89q0 -139 85 -214q81 -72 222 -72q174 0 270 90q100 93 100 265q0 53 -40.5 152
t-40.5 135q0 102 102 102q34 0 108 -83t114 -83q44 0 109 103q225 354 451 354q122 0 197.5 -71.5t75.5 -192.5zM1915 375q0 95 -104 95q-136 0 -315 -247q118 0 240 28q179 41 179 124z" />
    <glyph glyph-name="u0636" unicode="&#x636;" horiz-adv-x="2117" arabic-form="isolated" 
d="M2109 427q0 -240 -237 -352q-178 -84 -454 -84q-142 0 -206 42q0 -259 -129 -422q-150 -189 -439 -189q-255 0 -381 168q-99 132 -99 324q0 293 136 293q74 0 74 -87q0 -30 -9 -89t-9 -89q0 -139 85 -214q81 -72 222 -72q174 0 270 90q100 93 100 265q0 53 -40.5 152
t-40.5 135q0 102 102 102q34 0 108 -83t114 -83q44 0 109 103q225 354 451 354q122 0 197.5 -71.5t75.5 -192.5zM1915 375q0 95 -104 95q-136 0 -315 -247q118 0 240 28q179 41 179 124zM1749 962q0 -48 -33 -82t-81 -34t-81.5 34t-33.5 82t33.5 81t81.5 33q47 0 80.5 -33.5
t33.5 -80.5z" />
    <glyph glyph-name="u0637" unicode="&#x637;" horiz-adv-x="1250" arabic-form="isolated" 
d="M1248 425q0 -213 -195 -327q-166 -97 -416 -97h-198q-275 0 -275 147q0 87 150 87q100 0 139 37q53 51 53 299q0 170 -31 515q-5 54 27.5 97.5t86.5 43.5q93 0 98 -117l15 -365q5 -128 -15 -218q144 154 292 154q115 0 192 -71t77 -185zM1059 375q0 84 -127 84
q-81 0 -206 -106q-26 -22 -134 -129q236 0 371 56q96 40 96 95z" />
    <glyph glyph-name="u0638" unicode="&#x638;" horiz-adv-x="1254" arabic-form="isolated" 
d="M1248 425q0 -213 -195 -327q-166 -97 -416 -97h-198q-275 0 -275 147q0 87 150 87q100 0 139 37q53 51 53 299q0 170 -31 515q-5 54 27.5 97.5t86.5 43.5q93 0 98 -117l15 -365q5 -128 -15 -218q144 154 292 154q115 0 192 -71t77 -185zM1059 375q0 84 -127 84
q-81 0 -206 -106q-26 -22 -134 -129q236 0 371 56q96 40 96 95zM1122 992q0 -47 -33.5 -81t-80.5 -34q-48 0 -81.5 33.5t-33.5 81.5t33.5 81.5t81.5 33.5t81 -33.5t33 -81.5z" />
    <glyph glyph-name="u0639" unicode="&#x639;" horiz-adv-x="1067" arabic-form="isolated" 
d="M831 -735q-290 0 -459 104q-207 128 -207 401q0 264 256 453q-141 99 -141 256q0 152 105 256t258 104q85 0 167 -41q99 -50 99 -126q0 -84 -70 -84q-24 0 -96.5 26t-112.5 26q-64 0 -106 -35q-45 -37 -45 -100q0 -131 205 -131q24 0 121 16l139 23q6 1 22 1
q100 0 100 -98q0 -89 -80 -104q-626 -117 -626 -428q0 -158 185 -232q132 -53 318 -53q107 0 188 7q45 4 74.5 -21.5t29.5 -70.5q0 -89 -93.5 -119t-230.5 -30z" />
    <glyph glyph-name="u063A" unicode="&#x63a;" horiz-adv-x="1067" arabic-form="isolated" 
d="M831 -735q-290 0 -459 104q-207 128 -207 401q0 264 256 453q-141 99 -141 256q0 152 105 256t258 104q85 0 167 -41q99 -50 99 -126q0 -84 -70 -84q-24 0 -96.5 26t-112.5 26q-64 0 -106 -35q-45 -37 -45 -100q0 -131 205 -131q24 0 121 16l139 23q6 1 22 1
q100 0 100 -98q0 -89 -80 -104q-626 -117 -626 -428q0 -158 185 -232q132 -53 318 -53q107 0 188 7q45 4 74.5 -21.5t29.5 -70.5q0 -89 -93.5 -119t-230.5 -30zM676 1108q0 -48 -33 -82t-81 -34t-81.5 34t-33.5 82t33.5 81t81.5 33q47 0 80.5 -33.5t33.5 -80.5z" />
    <glyph glyph-name="u0641" unicode="&#x641;" horiz-adv-x="1676" arabic-form="isolated" 
d="M1673 399q0 -285 -343 -391q-204 -63 -574 -63q-592 0 -592 347q0 90 26 174q37 119 106 119q73 0 73 -73q0 -25 -10.5 -73.5t-10.5 -73.5q0 -84 65 -125q96 -60 354 -60h123q233 0 418 53q205 59 200 147q-16 -19 -56 -39q-50 -25 -98 -25q-115 0 -172 74
q-44 57 -44 128q0 110 64 222q76 134 189 134q142 0 221 -177q61 -137 61 -298zM1469 568q0 40 -30 74t-69 34q-33 0 -56.5 -28t-23.5 -62q0 -80 77 -80q102 0 102 62zM1437 1125q0 -48 -33 -81.5t-81 -33.5t-81 33.5t-33 81.5t33 81t81 33t81 -33t33 -81z" />
    <glyph glyph-name="u0642" unicode="&#x642;" horiz-adv-x="1242" arabic-form="isolated" 
d="M1240 176q0 -284 -158 -442t-442 -158q-234 0 -365 151q-111 128 -111 312q0 98 25 184q35 120 105 120q77 0 77 -83q0 -30 -11.5 -88t-11.5 -88q0 -135 90 -208q82 -67 221 -67q174 0 284 68q134 83 124 247q-54 -63 -162 -63q-227 0 -227 207q0 123 62 236
q76 139 200 139q147 0 232 -169q68 -136 68 -298zM1029 314q-19 114 -98 114q-36 0 -63.5 -27.5t-27.5 -63.5q0 -74 89 -74q79 0 100 51zM1162 908q0 -48 -33 -82t-81 -34t-81 34t-33 82t33 81t81 33t81 -33t33 -81zM884 908q0 -48 -33.5 -82t-81.5 -34t-81 34t-33 82
q0 47 33.5 80.5t80.5 33.5q48 0 81.5 -33t33.5 -81z" />
    <glyph glyph-name="u0643" unicode="&#x643;" horiz-adv-x="1794" arabic-form="isolated" 
d="M1751 1036q-319 -76 -534 -162q-24 -10 -24 -32q0 -21 20 -36q369 -280 369 -479q0 -382 -826 -382q-592 0 -592 347q0 90 26 174q37 119 106 119q73 0 73 -73q0 -25 -10.5 -73.5t-10.5 -73.5q0 -84 65 -125q96 -60 354 -60h37q233 0 392 30q197 37 197 110
q0 52 -168 196q-189 162 -221 222q-19 36 -19 93q0 120 85 173q190 118 609 216q26 6 46 6q45 0 79.5 -26t34.5 -70q0 -73 -88 -94z" />
    <glyph glyph-name="u0644" unicode="&#x644;" horiz-adv-x="1106" arabic-form="isolated" 
d="M1104 380q0 -616 -516 -616q-192 0 -308 118.5t-116 310.5q0 111 29 198q37 111 105 111q78 0 78 -75q0 -34 -12 -100t-12 -100q0 -111 78 -172q72 -57 185 -57q321 0 307 370l-26 702q-2 57 26 102q31 51 86 51q96 0 96 -148v-695z" />
    <glyph glyph-name="u0645" unicode="&#x645;" horiz-adv-x="891" arabic-form="isolated" 
d="M575 50q-25 0 -76 5t-77 5q-49 0 -64 -37q-9 -23 -8 -82l10 -564q1 -40 -21 -68q-24 -31 -63 -31q-78 0 -82 89l-30 636q-12 245 181 276q-8 35 -8 69q0 114 82 201q73 77 170 77q137 0 229 -93q79 -81 79 -206q0 -141 -93 -213q-84 -65 -229 -64zM724 320q8 94 -122 107
q-40 4 -68.5 -24.5t-28.5 -69.5q0 -73 123 -73q91 0 96 60z" />
    <glyph glyph-name="u0646" unicode="&#x646;" horiz-adv-x="1206" arabic-form="isolated" 
d="M1205 300q0 -242 -139 -401q-153 -174 -420 -174q-236 0 -369 145q-113 124 -113 297q0 106 36 214q46 138 124 138t78 -82q0 -37 -22 -112.5t-22 -114.5q0 -122 94 -190q83 -61 210 -61q156 0 244 75q95 81 95 234q0 40 -23 121t-23 119q0 112 107 112q75 0 115 -130
q28 -91 28 -190zM765 811q0 -48 -33 -82t-81 -34t-81 34t-33 82t33 81t81 33t81 -33t33 -81z" />
    <glyph glyph-name="u0647" unicode="&#x647;" horiz-adv-x="758" arabic-form="isolated" 
d="M755 294q0 -146 -106 -235q-94 -79 -222 -79q-262 0 -262 225q0 73 41 168q32 74 66 117q-80 40 -80 101q0 48 32 84t79 36q147 0 296 -129q156 -135 156 -288zM542 273q0 85 -142 146q-58 -77 -58 -141q0 -78 89 -78q39 0 71 17q40 21 40 56z" />
    <glyph glyph-name="u0648" unicode="&#x648;" horiz-adv-x="805" arabic-form="isolated" 
d="M802 276q0 -230 -165 -421q-148 -171 -378 -261q-26 -10 -52 -10q-41 0 -70.5 26.5t-29.5 66.5q0 63 72 95q133 59 246 151q137 112 177 223q-47 -23 -113 -23q-111 0 -173 63.5t-62 174.5q0 113 69 213q76 110 179 110q151 0 232 -135q68 -113 68 -273zM604 342
q-4 48 -30 84q-30 41 -75 41q-33 0 -57 -22.5t-24 -55.5q0 -66 87 -66q64 0 99 19z" />
    <glyph glyph-name="u0649" unicode="&#x649;" horiz-adv-x="1376" arabic-form="isolated" 
d="M1413 654q0 -72 -49 -103q-29 -19 -110 -30q-110 -16 -193 -59q-112 -59 -112 -150q0 -39 80 -53l136 -24q86 -24 121 -60q41 -43 41 -126q0 -191 -221 -335q-210 -137 -458 -137q-230 0 -355 114q-129 118 -129 346q0 111 36 222q47 145 128 145q83 0 83 -90
q0 -35 -24 -113t-24 -117q0 -276 310 -276q199 0 341 69q122 59 122 119q0 34 -100 49q-136 20 -186 47q-100 54 -100 183q0 185 179 334q171 143 359 143q125 0 125 -98z" />
    <glyph glyph-name="u064A" unicode="&#x64a;" horiz-adv-x="1376" arabic-form="isolated" 
d="M1413 654q0 -72 -49 -103q-29 -19 -110 -30q-110 -16 -193 -59q-112 -59 -112 -150q0 -39 80 -53l136 -24q86 -24 121 -60q41 -43 41 -126q0 -191 -221 -335q-210 -137 -458 -137q-230 0 -355 114q-129 118 -129 346q0 111 36 222q47 145 128 145q83 0 83 -90
q0 -35 -24 -113t-24 -117q0 -276 310 -276q199 0 341 69q122 59 122 119q0 34 -100 49q-136 20 -186 47q-100 54 -100 183q0 185 179 334q171 143 359 143q125 0 125 -98z" />
    <glyph glyph-name="u067E" unicode="&#x67e;" horiz-adv-x="1669" arabic-form="isolated" 
d="M1668 337q0 -223 -270 -317q-216 -75 -642 -75q-592 0 -592 347q0 90 26 174q37 119 106 119q73 0 73 -73q0 -25 -10.5 -73.5t-10.5 -73.5q0 -84 65 -125q96 -60 354 -60h123q177 0 324 22q259 39 259 128q0 40 -32 114t-32 104q0 112 99 112q82 0 127 -128
q33 -94 33 -195zM1142 -287q0 -47 -33.5 -81t-80.5 -34q-48 0 -81.5 33.5t-33.5 81.5t33.5 81.5t81.5 33.5t81 -33.5t33 -81.5zM863 -287q0 -48 -33 -81.5t-81 -33.5q-47 0 -80.5 34t-33.5 81q0 48 33 81.5t81 33.5t81 -33.5t33 -81.5zM1003 -530q0 -48 -33.5 -81.5
t-81.5 -33.5q-47 0 -80.5 34t-33.5 81q0 48 33 81.5t81 33.5t81.5 -33.5t33.5 -81.5z" />
    <glyph glyph-name="u0686" unicode="&#x686;" horiz-adv-x="1178" arabic-form="isolated" 
d="M1179 -682q-191 -64 -360 -64q-655 0 -655 538q0 207 169 384q136 142 330 223q-164 13 -200 13q-48 0 -111 -43t-73 -43q-92 0 -92 86q0 67 69 144q78 88 178 88q80 0 239 -22.5t239 -22.5q56 0 117 3q60 3 101 -25q46 -31 46 -89q0 -112 -138 -137q-243 -43 -442 -185
q-221 -157 -221 -329q0 -209 140 -289q106 -61 337 -61q85 0 291 39q16 3 27 3q101 0 101 -98q0 -82 -92 -113zM1006 -73q0 -48 -33.5 -81.5t-81.5 -33.5t-81 33.5t-33 81.5t33 81t81 33t81.5 -33t33.5 -81zM727 -73q0 -48 -33.5 -81.5t-81.5 -33.5t-81 33.5t-33 81.5t33 81
t81 33t81.5 -33t33.5 -81zM866 -316q0 -48 -33 -82t-81 -34t-81.5 34t-33.5 82t33.5 81t81.5 33q47 0 80.5 -33.5t33.5 -80.5z" />
    <glyph glyph-name="u0698" unicode="&#x698;" horiz-adv-x="900" arabic-form="isolated" 
d="M411 850q0 48 33 81.5t81 33.5t81 -33.5t33 -81.5t-33 -81t-81 -33t-81 33t-33 81zM689 850q0 48 33.5 81.5t81.5 33.5t81 -33.5t33 -81.5t-33 -81t-81 -33t-81.5 33t-33.5 81zM550 1093q0 48 33 82t81 34t81.5 -34t33.5 -82t-33.5 -81t-81.5 -33q-47 0 -80.5 33.5
t-33.5 80.5zM817 433q3 -39 3 -75q0 -272 -159 -462q-151 -182 -419 -258q-21 -6 -46 -6q-99 0 -99 90q0 75 91 116q232 105 317 196q99 106 99 284q0 20 -3 60t-3 60q0 164 99 164q107 0 120 -169z" />
    <glyph glyph-name="u06AF" unicode="&#x6af;" horiz-adv-x="1823" arabic-form="isolated" 
d="M1701 1250q-386 -98 -611 -207q-39 -19 -65 -4q-23 14 -23 46q0 48 48 74q232 124 611 212q13 3 28 3q72 0 72 -60q0 -49 -60 -64zM1780 968q-365 -89 -534 -161q-25 -11 -25 -34q0 -21 21 -35q340 -220 340 -411q0 -382 -826 -382q-592 0 -592 347q0 90 26 174
q37 119 106 119q73 0 73 -73q0 -25 -10.5 -73.5t-10.5 -73.5q0 -84 65 -125q96 -60 354 -60h37q233 0 392 30q197 37 197 110q0 52 -153 163q-173 125 -207 188q-20 37 -20 92q0 120 86 174q192 120 609 216q22 5 46 5q46 0 78 -24q36 -27 36 -71q0 -74 -88 -95z" />
    <glyph glyph-name="uFB57" unicode="&#x67e;" horiz-adv-x="1727" arabic-form="final" 
d="M1756 1h-69q-169 0 -227 122q-135 -178 -704 -178q-592 0 -592 347q0 90 26 174q37 119 106 119q73 0 73 -73q0 -25 -10.5 -73.5t-10.5 -73.5q0 -84 65 -125q96 -60 354 -60h123q380 0 469 112q12 15 54 111q26 59 72 59q51 0 69 -44q3 -14 15 -75q21 -109 155 -109h32
v-233zM1142 -287q0 -47 -33.5 -81t-80.5 -34q-48 0 -81.5 33.5t-33.5 81.5t33.5 81.5t81.5 33.5t81 -33.5t33 -81.5zM863 -287q0 -48 -33 -81.5t-81 -33.5q-47 0 -80.5 34t-33.5 81q0 48 33 81.5t81 33.5t81 -33.5t33 -81.5zM1003 -530q0 -48 -33.5 -81.5t-81.5 -33.5
q-47 0 -80.5 34t-33.5 81q0 48 33 81.5t81 33.5t81.5 -33.5t33.5 -81.5z" />
    <glyph glyph-name="uFB58" unicode="&#x67e;" horiz-adv-x="531" arabic-form="initial" 
d="M405 363q0 -168 -94 -265t-261 -97h-79v233h92q149 0 149 104q0 30 -14.5 87t-14.5 87q0 41 26.5 70.5t67.5 29.5q128 0 128 -249zM525 -252q0 -48 -33 -81.5t-81 -33.5t-81.5 33.5t-33.5 81.5t33.5 81.5t81.5 33.5t81 -33.5t33 -81.5zM246 -252q0 -48 -33 -81.5
t-81 -33.5t-81.5 33.5t-33.5 81.5t33.5 81.5t81.5 33.5t81 -33.5t33 -81.5zM386 -495q0 -48 -33.5 -82t-81.5 -34t-81 34t-33 82q0 47 33.5 80.5t80.5 33.5q48 0 81.5 -33t33.5 -81z" />
    <glyph glyph-name="uFB59" unicode="&#x67e;" horiz-adv-x="573" arabic-form="medial" 
d="M602 1h-67q-198 0 -248 122q-75 -122 -246 -122h-70v233h72q145 0 167 133q15 95 85 95t82 -95q16 -133 158 -133h67v-233zM544 -252q0 -48 -33 -81.5t-81 -33.5t-81.5 33.5t-33.5 81.5t33.5 81.5t81.5 33.5t81 -33.5t33 -81.5zM265 -252q0 -48 -33 -81.5t-81 -33.5
t-81 33.5t-33 81.5t33 81.5t81 33.5t81 -33.5t33 -81.5zM405 -495q0 -48 -33.5 -82t-81.5 -34t-81 34t-33 82q0 47 33.5 80.5t80.5 33.5q48 0 81.5 -33t33.5 -81z" />
    <glyph glyph-name="uFB7B" unicode="&#x686;" horiz-adv-x="1274" arabic-form="final" 
d="M1304 1h-241q-117 0 -177 91q-51 77 -52 200q-169 -66 -295 -172q-164 -138 -164 -283q0 -209 140 -289q106 -61 337 -61q76 0 291 39q11 2 26 2q43 0 72.5 -27.5t29.5 -70.5q0 -81 -92 -112q-191 -64 -360 -64q-655 0 -655 538q0 207 169 384q136 142 330 223
q-164 13 -200 13q-49 0 -112 -43t-72 -43q-92 0 -92 86q0 67 69 144q78 88 178 88q80 0 239 -22.5t239 -22.5q57 0 117 3q58 3 99 -25q46 -31 46 -87q0 -110 -136 -139q-33 -7 -78 -22q17 -95 136 -95h208v-233zM962 -104q0 -48 -33.5 -81.5t-81.5 -33.5t-81 33.5t-33 81.5
t33 81.5t81 33.5t81.5 -33.5t33.5 -81.5zM683 -104q0 -48 -33.5 -81.5t-81.5 -33.5t-81 33.5t-33 81.5t33 81.5t81 33.5t81.5 -33.5t33.5 -81.5zM822 -347q0 -48 -33 -81.5t-81 -33.5t-81.5 33.5t-33.5 81.5t33.5 81t81.5 33q47 0 80.5 -33.5t33.5 -80.5z" />
    <glyph glyph-name="uFB7C" unicode="&#x686;" horiz-adv-x="1053" arabic-form="initial" 
d="M962 309q-168 -42 -363 -150q-170 -94 -215 -111q-126 -47 -317 -47h-96v233h142q145 0 248 35q24 8 293 123q-268 83 -322 83q-23 0 -73.5 -30t-77.5 -30q-79 0 -79 87q0 70 76 135t147 65q88 0 272 -65q213 -75 357 -91q100 -11 100 -121q0 -93 -92 -116zM938 -179
q0 -48 -33 -81.5t-81 -33.5t-81 33.5t-33 81.5t33 81.5t81 33.5t81 -33.5t33 -81.5zM660 -179q0 -48 -33.5 -81.5t-81.5 -33.5t-81 33.5t-33 81.5t33 81.5t81 33.5t81.5 -33.5t33.5 -81.5zM799 -422q0 -48 -33 -81.5t-81 -33.5t-81.5 33.5t-33.5 81.5t33.5 81t81.5 33
q47 0 80.5 -33.5t33.5 -80.5z" />
    <glyph glyph-name="uFB7D" unicode="&#x686;" horiz-adv-x="1202" arabic-form="medial" 
d="M1233 1h-227q-234 0 -239 291q-58 -33 -180 -127q-105 -81 -177 -114q-108 -50 -237 -50h-202v233h171q159 0 273 62l204 111q-216 43 -270 43q-32 0 -80 -30t-71 -30q-79 0 -79 87q0 71 75 136t147 65q108 0 319 -50.5t320 -50.5t109 -97q0 -94 -68 -108
q-51 -11 -138 -40q23 -98 156 -98h194v-233zM871 -179q0 -48 -33 -81.5t-81 -33.5t-81.5 33.5t-33.5 81.5t33.5 81.5t81.5 33.5t81 -33.5t33 -81.5zM592 -179q0 -48 -33 -81.5t-81 -33.5t-81.5 33.5t-33.5 81.5t33.5 81.5t81.5 33.5t81 -33.5t33 -81.5zM732 -422
q0 -48 -33.5 -81.5t-81.5 -33.5t-81 33.5t-33 81.5q0 47 33.5 80.5t80.5 33.5q48 0 81.5 -33t33.5 -81z" />
    <glyph glyph-name="uFB8B" unicode="&#x698;" horiz-adv-x="1046" arabic-form="final" 
d="M425 736q0 47 33.5 81t80.5 34q48 0 81.5 -33.5t33.5 -81.5t-33.5 -81.5t-81.5 -33.5t-81 33.5t-33 81.5zM704 736q0 47 33.5 81t80.5 34q48 0 81.5 -33.5t33.5 -81.5t-33.5 -81.5t-81.5 -33.5t-81 33.5t-33 81.5zM564 979q0 48 33.5 81.5t81.5 33.5q47 0 80.5 -34
t33.5 -81q0 -48 -33 -81.5t-81 -33.5t-81.5 33.5t-33.5 81.5zM1075 1h-67q-108 0 -168 70q-71 -189 -218 -317q-124 -108 -334 -195q-31 -13 -58 -13q-39 0 -66.5 24.5t-27.5 63.5q0 71 84 110q178 83 271 155q143 110 176 249q4 17 4 39q0 79 -32 171q-6 17 -6 35
q0 42 28 71t70 32q63 5 100 -73q2 -5 56 -121q49 -68 158 -68h30v-233z" />
    <glyph glyph-name="uFEDA" unicode="&#x6a9;" horiz-adv-x="2006" arabic-form="final" 
d="M2035 1h-68q-246 0 -413 234q-46 -187 -341 -253q-165 -37 -457 -37q-592 0 -592 347q0 90 26 174q37 119 106 119q73 0 73 -73q0 -25 -10.5 -73.5t-10.5 -73.5q0 -84 65 -125q96 -60 354 -60h37q233 0 392 30q197 37 197 110q0 52 -168 196q-188 161 -221 222
q-20 37 -20 94q0 121 86 172q213 126 609 216q26 6 46 6q46 0 78 -24q36 -27 36 -71q0 -73 -88 -95q-330 -82 -534 -162q-24 -9 -24 -32q0 -20 20 -36q154 -122 298 -268q48 -49 188 -188q120 -116 255 -116h81v-233z" />
    <glyph glyph-name="uFEDB" unicode="&#x6a9;" horiz-adv-x="837" arabic-form="initial" 
d="M789 1036q-282 -64 -533 -162q-25 -10 -25 -31t21 -37q368 -279 368 -479q0 -189 -152 -263q-129 -63 -427 -63h-69v233h46q199 0 235 3q179 15 179 83q0 52 -168 196q-189 162 -222 222q-19 35 -19 93q0 120 86 173q193 119 608 216q26 6 46 6q114 0 114 -97
q0 -73 -88 -93z" />
    <glyph glyph-name="uFEDC" unicode="&#x6a9;" horiz-adv-x="1044" arabic-form="medial" 
d="M1073 1h-67q-247 0 -414 234q-38 -153 -199 -202q-105 -32 -362 -32h-60v233h86q201 0 232 3q143 14 143 83q0 52 -168 196q-189 162 -222 222q-19 35 -19 93q0 120 86 173q193 119 608 216q26 6 46 6q114 0 114 -97q0 -73 -88 -93q-285 -65 -533 -162q-25 -10 -25 -31
q0 -20 21 -37q125 -100 298 -268q48 -49 189 -188q120 -116 253 -116h81v-233z" />
    <glyph glyph-name="uFB93" unicode="&#x6af;" horiz-adv-x="2006" arabic-form="final" 
d="M1701 1250q-386 -98 -611 -207q-39 -19 -65 -4q-23 14 -23 46q0 48 48 74q232 124 611 212q13 3 28 3q72 0 72 -60q0 -49 -60 -64zM2035 1h-68q-246 0 -413 234q-46 -187 -341 -253q-165 -37 -457 -37q-592 0 -592 347q0 90 26 174q37 119 106 119q73 0 73 -73
q0 -25 -10.5 -73.5t-10.5 -73.5q0 -84 65 -125q96 -60 354 -60h37q233 0 392 30q197 37 197 110q0 52 -153 163q-173 125 -207 188q-20 37 -20 94q0 121 86 172q215 127 609 216q22 5 45 5q47 0 79 -24q36 -26 36 -71q0 -74 -88 -95q-372 -90 -534 -161q-25 -11 -25 -35
q0 -20 21 -34l127 -83q75 -49 172 -145q53 -54 160 -160q120 -116 253 -116h81v-233z" />
    <glyph glyph-name="uFB94" unicode="&#x6af;" horiz-adv-x="913" arabic-form="initial" 
d="M739 1250q-380 -95 -610 -207q-40 -19 -66 -4q-23 14 -23 46q0 49 48 74q236 124 612 212q13 3 28 3q71 0 71 -60q0 -49 -60 -64zM818 968q-361 -87 -533 -161q-24 -10 -24 -32t20 -37q186 -143 219 -175q120 -118 120 -236q0 -189 -152 -263q-129 -63 -427 -63h-69v233
h46q199 0 235 3q179 15 179 83q0 52 -154 163q-173 125 -207 188q-19 35 -19 92q0 121 85 174q192 119 609 216q22 5 46 5q114 0 114 -95q0 -74 -88 -95z" />
    <glyph glyph-name="uFB95" unicode="&#x6af;" horiz-adv-x="1047" arabic-form="medial" 
d="M739 1250q-380 -95 -610 -207q-40 -19 -66 -4q-23 14 -23 46q0 49 48 74q236 124 612 212q13 3 28 3q71 0 71 -60q0 -49 -60 -64zM1073 1h-67q-247 0 -414 234q-38 -153 -199 -202q-105 -32 -362 -32h-60v233h86q201 0 232 3q143 14 143 83q0 52 -154 163
q-173 125 -207 188q-19 35 -19 92q0 121 85 174q192 119 609 216q22 5 46 5q114 0 114 -95q0 -74 -88 -95q-361 -87 -533 -161q-24 -10 -24 -32q0 -21 20 -37q81 -50 269 -200q97 -98 189 -188q120 -116 253 -116h81v-233z" />
    <glyph glyph-name="uFE94" unicode="&#x6c0;" horiz-adv-x="904" arabic-form="final" 
d="M935 1h-72q-277 0 -296 257q-56 -30 -135 -30q-94 0 -171 40q-95 49 -95 135q0 148 138 240q57 37 218 141q35 29 82 101q29 44 69 44q82 0 82 -117q0 -48 -10.5 -144.5t-10.5 -144.5q0 -122 16 -181q29 -108 118 -108h67v-233zM560 609q-28 -24 -130 -81
q-68 -38 -68 -73q0 -34 81 -34q76 0 112 19q-1 21 -1 45q0 54 6 124zM635 1098l-338 -108q-16 -5 -29 -5q-45 0 -45 39q0 38 49 58l57 23q-54 49 -54 116q0 78 54.5 128.5t132.5 50.5q41 0 78 -18q47 -22 47 -58q0 -37 -34 -37q-16 0 -48.5 6.5t-48.5 6.5q-76 0 -76 -65
q0 -74 114 -74q9 0 119 32q17 5 31 5q53 0 53 -40t-62 -60z" />
    <glyph glyph-name="uFEF2" unicode="&#x6cc;" horiz-adv-x="1276" arabic-form="final" 
d="M1305 1h-315q-104 0 -104 -15q0 -13 76 -29q135 -29 140 -31q86 -36 86 -126q0 -133 -162 -268q-177 -148 -400 -148q-464 0 -464 459q0 114 26 199q37 120 118 120t81 -89q0 -31 -14 -91.5t-14 -91.5q0 -152 52 -212q63 -73 236 -73q142 0 247 55q91 48 91 91
q0 13 -72 22q-93 11 -134 31q-71 34 -71 111q0 157 140 244q120 75 286 75h171v-233z" />
    <glyph glyph-name="uFEF3" unicode="&#x6cc;" horiz-adv-x="535" arabic-form="initial" 
d="M405 363q0 -168 -94 -265t-261 -97h-79v233h92q149 0 149 104q0 30 -14.5 87t-14.5 87q0 41 26.5 70.5t67.5 29.5q128 0 128 -249zM529 -313q0 -48 -33.5 -82t-81.5 -34t-81 34t-33 82q0 47 33.5 80.5t80.5 33.5q48 0 81.5 -33t33.5 -81zM250 -313q0 -48 -33 -82t-81 -34
t-81.5 34t-33.5 82t33.5 81t81.5 33q47 0 80.5 -33.5t33.5 -80.5z" />
    <glyph glyph-name="uFEF4" unicode="&#x6cc;" horiz-adv-x="573" arabic-form="medial" 
d="M602 1h-67q-198 0 -248 122q-75 -122 -246 -122h-70v233h72q145 0 167 133q15 95 85 95t82 -95q16 -133 158 -133h67v-233zM538 -313q0 -48 -33 -82t-81 -34t-81 34t-33 82t33 81t81 33t81 -33t33 -81zM260 -313q0 -48 -33.5 -82t-81.5 -34t-81 34t-33 82q0 47 33.5 80.5
t80.5 33.5q48 0 81.5 -33t33.5 -81z" />
    <glyph glyph-name="Hcircumflex" unicode="&#x622;" horiz-adv-x="770" arabic-form="final" 
d="M800 1h-67q-199 0 -266 140q-42 87 -50 323l-22 635q-2 54 22 91q27 43 79 43q102 0 102 -134v-672q0 -193 157 -193h45v-233zM839 1547q0 -89 -74 -147q-68 -54 -160 -54q-41 0 -124 6t-124 6q-75 0 -112 -31q-11 -9 -40 -56q-19 -30 -50 -30q-39 0 -39 39
q0 92 60.5 151.5t153.5 59.5q44 0 132.5 -6.5t132.5 -6.5q65 0 132.5 54t77.5 54q34 0 34 -39z" />
    <glyph glyph-name="uFE84" unicode="&#x623;" horiz-adv-x="659" arabic-form="final" 
d="M689 1h-67q-199 0 -266 140q-41 85 -49 323l-22 635q-2 54 22 91q27 43 79 43q101 0 101 -134v-672q0 -193 157 -193h45v-233zM550 1385l-338 -108q-16 -5 -28 -5q-45 0 -45 38q0 39 48 58l57 23q-54 50 -54 117q0 78 54 128t133 50q42 0 79 -17q47 -21 47 -58t-35 -37
q-16 0 -48.5 6t-48.5 6q-76 0 -76 -65q0 -73 115 -73q7 0 119 32q14 4 31 4q52 0 52 -40q0 -39 -62 -59z" />
    <glyph glyph-name="uFE86" unicode="&#x624;" horiz-adv-x="923" arabic-form="final" 
d="M952 1h-163q-100 -340 -527 -507q-26 -10 -50 -10q-40 0 -66 26t-26 66q0 70 76 104q314 139 401 325q-163 0 -235 38q-99 52 -99 197q0 114 68 216q75 112 177 112q124 0 207 -108q73 -95 85 -226h152v-233zM604 220q-3 50 -31 92q-32 49 -79 49q-29 0 -50 -20.5
t-21 -49.5q0 -53 72 -66q28 -5 109 -5zM637 853l-337 -108q-16 -5 -29 -5q-45 0 -45 39q0 38 49 58l57 23q-54 49 -54 116q0 77 54.5 128t131.5 51q41 0 79 -18q47 -22 47 -58q0 -37 -34 -37q-16 0 -48.5 6.5t-48.5 6.5q-76 0 -76 -66q0 -73 114 -73q9 0 119 32q17 5 31 5
q53 0 53 -40t-63 -60z" />
    <glyph glyph-name="uFE88" unicode="&#x625;" horiz-adv-x="698" arabic-form="final" 
d="M728 1h-67q-198 0 -266 140q-42 86 -50 323l-22 635q-2 54 22 91q27 43 79 43q102 0 102 -134v-672q0 -193 157 -193h45v-233zM655 -460l-338 -107q-16 -5 -29 -5q-45 0 -45 38t49 58l57 23q-54 50 -54 116q0 78 54 128.5t133 50.5q41 0 79 -18q47 -22 47 -58t-35 -36
q-16 0 -48.5 6t-48.5 6q-76 0 -76 -65q0 -73 114 -73q8 0 120 32q14 4 31 4q52 0 52 -40t-62 -60z" />
    <glyph glyph-name="uFE8A" unicode="&#x626;" horiz-adv-x="1276" arabic-form="final" 
d="M1305 1h-315q-104 0 -104 -15q0 -13 76 -29q135 -29 140 -31q86 -36 86 -126q0 -133 -162 -268q-177 -148 -400 -148q-464 0 -464 459q0 114 26 199q37 120 118 120t81 -89q0 -31 -14 -91.5t-14 -91.5q0 -152 52 -212q63 -73 236 -73q142 0 247 55q91 48 91 91
q0 13 -72 22q-93 11 -134 31q-71 34 -71 111q0 157 140 244q120 75 286 75h171v-233zM590 391l-337 -107q-16 -5 -29 -5q-45 0 -45 38t49 58l57 23q-54 50 -54 116q0 78 54 128.5t132 50.5q41 0 79 -18q47 -22 47 -58t-34 -36q-16 0 -48.5 6t-48.5 6q-76 0 -76 -65
q0 -73 114 -73q20 0 65 15q50 17 67 20q6 1 18 1q53 0 53 -40t-63 -60z" />
    <glyph glyph-name="uFE8B" unicode="&#x626;" horiz-adv-x="457" arabic-form="initial" 
d="M405 363q0 -168 -94 -265t-261 -97h-79v233h92q149 0 149 104q0 30 -14.5 87t-14.5 87q0 41 26.5 70.5t67.5 29.5q128 0 128 -249zM436 894l-338 -107q-16 -5 -29 -5q-45 0 -45 38t49 58l57 23q-54 50 -54 116q0 76 54.5 127.5t131.5 51.5q41 0 79 -18q47 -22 47 -58
t-34 -36q-16 0 -48.5 6t-48.5 6q-76 0 -76 -65q0 -73 114 -73q10 0 119 31q18 5 31 5q53 0 53 -40t-62 -60z" />
    <glyph glyph-name="uFE8C" unicode="&#x626;" horiz-adv-x="573" arabic-form="medial" 
d="M602 1h-67q-198 0 -248 122q-75 -122 -246 -122h-70v233h72q145 0 167 133q15 95 85 95t82 -95q16 -133 158 -133h67v-233zM462 767l-338 -107q-16 -5 -29 -5q-45 0 -45 38t49 58l57 23q-54 50 -54 116q0 78 54 128.5t132 50.5q41 0 79 -18q47 -22 47 -58t-34 -36
q-16 0 -48.5 6t-48.5 6q-76 0 -76 -65q0 -73 114 -73q10 0 119 31q18 5 31 5q53 0 53 -40t-62 -60z" />
    <glyph glyph-name="uFE8E" unicode="&#x627;" horiz-adv-x="540" arabic-form="final" 
d="M569 1h-67q-200 0 -266 140q-40 86 -49 323l-23 635q-2 54 22 91q27 43 79 43q102 0 102 -134v-672q0 -193 157 -193h45v-233z" />
    <glyph glyph-name="uFE90" unicode="&#x628;" horiz-adv-x="1727" arabic-form="final" 
d="M1756 1h-69q-169 0 -227 122q-135 -178 -704 -178q-592 0 -592 347q0 90 26 174q37 119 106 119q73 0 73 -73q0 -25 -10.5 -73.5t-10.5 -73.5q0 -84 65 -125q96 -60 354 -60h123q380 0 469 112q12 15 54 111q26 59 72 59q51 0 69 -44q3 -14 15 -75q21 -109 155 -109h32
v-233zM943 -360q0 -47 -33.5 -81t-80.5 -34q-48 0 -81.5 33.5t-33.5 81.5t33.5 81.5t81.5 33.5t81 -33.5t33 -81.5z" />
    <glyph glyph-name="uFE91" unicode="&#x628;" horiz-adv-x="412" arabic-form="initial" 
d="M405 363q0 -168 -94 -265t-261 -97h-79v233h92q149 0 149 104q0 30 -14.5 87t-14.5 87q0 41 26.5 70.5t67.5 29.5q128 0 128 -249zM309 -321q0 -48 -33.5 -82t-81.5 -34t-81 34t-33 82q0 47 33.5 80.5t80.5 33.5q48 0 81.5 -33t33.5 -81z" />
    <glyph glyph-name="uFE92" unicode="&#x628;" horiz-adv-x="573" arabic-form="medial" 
d="M602 1h-67q-198 0 -248 122q-75 -122 -246 -122h-70v233h72q145 0 167 133q15 95 85 95t82 -95q16 -133 158 -133h67v-233zM366 -321q0 -48 -33 -82t-81 -34t-81.5 34t-33.5 82t33.5 81t81.5 33t81 -33t33 -81z" />
    <glyph glyph-name="uFE96" unicode="&#x62a;" horiz-adv-x="1727" arabic-form="final" 
d="M1756 1h-69q-169 0 -227 122q-135 -178 -704 -178q-592 0 -592 347q0 90 26 174q37 119 106 119q73 0 73 -73q0 -25 -10.5 -73.5t-10.5 -73.5q0 -84 65 -125q96 -60 354 -60h123q380 0 469 112q12 15 54 111q26 59 72 59q51 0 69 -44q3 -14 15 -75q21 -109 155 -109h32
v-233zM1113 806q0 -48 -33 -82t-81 -34t-81 34t-33 82t33 81t81 33t81 -33t33 -81zM835 806q0 -48 -33.5 -82t-81.5 -34t-81 34t-33 82q0 47 33.5 80.5t80.5 33.5q48 0 81.5 -33t33.5 -81z" />
    <glyph glyph-name="uFE97" unicode="&#x62a;" horiz-adv-x="525" arabic-form="initial" 
d="M405 363q0 -168 -94 -265t-261 -97h-79v233h92q149 0 149 104q0 30 -14.5 87t-14.5 87q0 41 26.5 70.5t67.5 29.5q128 0 128 -249zM519 854q0 -48 -33 -82t-81 -34t-81.5 34t-33.5 82t33.5 81t81.5 33q47 0 80.5 -33.5t33.5 -80.5zM240 854q0 -48 -33 -82t-81 -34t-81 34
t-33 82t33 81t81 33t81 -33t33 -81z" />
    <glyph glyph-name="uFE98" unicode="&#x62a;" horiz-adv-x="573" arabic-form="medial" 
d="M602 1h-67q-198 0 -248 122q-75 -122 -246 -122h-70v233h72q145 0 167 133q15 95 85 95t82 -95q16 -133 158 -133h67v-233zM537 738q0 -48 -33.5 -81.5t-81.5 -33.5q-47 0 -80.5 34t-33.5 81q0 48 33 81.5t81 33.5t81.5 -33.5t33.5 -81.5zM258 738q0 -48 -33.5 -81.5
t-81.5 -33.5q-47 0 -80.5 34t-33.5 81q0 48 33 81.5t81 33.5t81.5 -33.5t33.5 -81.5z" />
    <glyph glyph-name="uFE9A" unicode="&#x62b;" horiz-adv-x="1727" arabic-form="final" 
d="M1756 1h-69q-169 0 -227 122q-135 -178 -704 -178q-592 0 -592 347q0 90 26 174q37 119 106 119q73 0 73 -73q0 -25 -10.5 -73.5t-10.5 -73.5q0 -84 65 -125q96 -60 354 -60h123q380 0 469 112q12 15 54 111q26 59 72 59q51 0 69 -44q3 -14 15 -75q21 -109 155 -109h32
v-233zM635 687q0 47 33.5 81t80.5 34q48 0 81 -33.5t33 -81.5t-33 -81.5t-81 -33.5t-81 33.5t-33 81.5zM913 687q0 48 33.5 81.5t81.5 33.5q47 0 80.5 -34t33.5 -81q0 -48 -33 -81.5t-81 -33.5t-81.5 33.5t-33.5 81.5zM774 930q0 47 33.5 81t80.5 34q48 0 81.5 -33.5
t33.5 -81.5t-33.5 -81.5t-81.5 -33.5t-81 33.5t-33 81.5z" />
    <glyph glyph-name="uFE9B" unicode="&#x62b;" horiz-adv-x="519" arabic-form="initial" 
d="M405 363q0 -168 -94 -265t-261 -97h-79v233h92q149 0 149 104q0 30 -14.5 87t-14.5 87q0 41 26.5 70.5t67.5 29.5q128 0 128 -249zM12 848q0 48 33.5 81.5t81.5 33.5t81 -33.5t33 -81.5t-33 -81t-81 -33t-81.5 33t-33.5 81zM291 848q0 48 33.5 81.5t81.5 33.5t81 -33.5
t33 -81.5t-33 -81t-81 -33t-81.5 33t-33.5 81zM152 1091q0 48 33 82t81 34t81.5 -34t33.5 -82t-33.5 -81t-81.5 -33q-47 0 -80.5 33.5t-33.5 80.5z" />
    <glyph glyph-name="uFE9C" unicode="&#x62b;" horiz-adv-x="573" arabic-form="medial" 
d="M602 1h-67q-198 0 -248 122q-75 -122 -246 -122h-70v233h72q145 0 167 133q15 95 85 95t82 -95q16 -133 158 -133h67v-233zM35 735q0 47 33.5 81t80.5 34q48 0 81 -33.5t33 -81.5t-33 -81.5t-81 -33.5t-81 33.5t-33 81.5zM313 735q0 48 33.5 81.5t81.5 33.5
q47 0 80.5 -34t33.5 -81q0 -48 -33 -81.5t-81 -33.5t-81.5 33.5t-33.5 81.5zM174 978q0 48 33 81.5t81 33.5t81.5 -33.5t33.5 -81.5t-33.5 -81.5t-81.5 -33.5t-81 33.5t-33 81.5z" />
    <glyph glyph-name="uFE9E" unicode="&#x62c;" horiz-adv-x="1274" arabic-form="final" 
d="M889 -185q0 -47 -33.5 -81t-80.5 -34q-48 0 -81 33.5t-33 81.5t33 81.5t81 33.5t81 -33.5t33 -81.5zM1304 1h-241q-117 0 -177 91q-51 77 -52 200q-169 -66 -295 -172q-164 -138 -164 -283q0 -209 140 -289q106 -61 337 -61q76 0 291 39q11 2 26 2q43 0 72.5 -27.5
t29.5 -70.5q0 -81 -92 -112q-191 -64 -360 -64q-655 0 -655 538q0 207 169 384q136 142 330 223q-164 13 -200 13q-49 0 -112 -43t-72 -43q-92 0 -92 86q0 67 69 144q78 88 178 88q80 0 239 -22.5t239 -22.5q57 0 117 3q58 3 99 -25q46 -31 46 -87q0 -110 -136 -139
q-33 -7 -78 -22q17 -95 136 -95h208v-233z" />
    <glyph glyph-name="uFE9F" unicode="&#x62c;" horiz-adv-x="1053" arabic-form="initial" 
d="M962 309q-168 -42 -363 -150q-170 -94 -215 -111q-126 -47 -317 -47h-96v233h142q145 0 248 35q24 8 293 123q-268 83 -322 83q-23 0 -73.5 -30t-77.5 -30q-79 0 -79 87q0 70 76 135t147 65q88 0 272 -65q213 -75 357 -91q100 -11 100 -121q0 -93 -92 -116zM784 -271
q0 -48 -33.5 -82t-81.5 -34t-81 34t-33 82q0 47 33.5 80.5t80.5 33.5q48 0 81.5 -33t33.5 -81z" />
    <glyph glyph-name="uFEA0" unicode="&#x62c;" horiz-adv-x="1202" arabic-form="medial" 
d="M1233 1h-227q-234 0 -239 291q-58 -33 -180 -127q-105 -81 -177 -114q-108 -50 -237 -50h-202v233h171q159 0 273 62l204 111q-216 43 -270 43q-32 0 -80 -30t-71 -30q-79 0 -79 87q0 71 75 136t147 65q108 0 319 -50.5t320 -50.5t109 -97q0 -94 -68 -108
q-51 -11 -138 -40q23 -98 156 -98h194v-233zM784 -271q0 -48 -33.5 -82t-81.5 -34t-81 34t-33 82q0 47 33.5 80.5t80.5 33.5q48 0 81.5 -33t33.5 -81z" />
    <glyph glyph-name="uFEA2" unicode="&#x62d;" horiz-adv-x="1275" arabic-form="final" 
d="M1304 1h-241q-117 0 -177 91q-51 77 -52 200q-169 -66 -295 -172q-164 -138 -164 -283q0 -209 140 -289q106 -61 337 -61q76 0 291 39q11 2 26 2q43 0 72.5 -27.5t29.5 -70.5q0 -81 -92 -112q-191 -64 -360 -64q-655 0 -655 538q0 207 169 384q136 142 330 223
q-164 13 -200 13q-49 0 -112 -43t-72 -43q-92 0 -92 86q0 67 69 144q78 88 178 88q80 0 239 -22.5t239 -22.5q57 0 117 3q58 3 99 -25q46 -31 46 -87q0 -110 -136 -139q-33 -7 -78 -22q17 -95 136 -95h208v-233z" />
    <glyph glyph-name="uFEA3" unicode="&#x62d;" horiz-adv-x="1053" arabic-form="initial" 
d="M962 309q-168 -42 -363 -150q-170 -94 -215 -111q-126 -47 -317 -47h-96v233h142q145 0 248 35q24 8 293 123q-268 83 -322 83q-23 0 -73.5 -30t-77.5 -30q-79 0 -79 87q0 70 76 135t147 65q88 0 272 -65q213 -75 357 -91q100 -11 100 -121q0 -93 -92 -116z" />
    <glyph glyph-name="uFEA4" unicode="&#x62d;" horiz-adv-x="1204" arabic-form="medial" 
d="M1233 1h-227q-234 0 -239 291q-58 -33 -180 -127q-105 -81 -177 -114q-108 -50 -237 -50h-202v233h171q159 0 273 62l204 111q-216 43 -270 43q-32 0 -80 -30t-71 -30q-79 0 -79 87q0 71 75 136t147 65q108 0 319 -50.5t320 -50.5t109 -97q0 -94 -68 -108
q-51 -11 -138 -40q23 -98 156 -98h194v-233z" />
    <glyph glyph-name="uFEA6" unicode="&#x62e;" horiz-adv-x="1274" arabic-form="final" 
d="M1304 1h-241q-117 0 -177 91q-51 77 -52 200q-169 -66 -295 -172q-164 -138 -164 -283q0 -209 140 -289q106 -61 337 -61q76 0 291 39q11 2 26 2q43 0 72.5 -27.5t29.5 -70.5q0 -81 -92 -112q-191 -64 -360 -64q-655 0 -655 538q0 207 169 384q136 142 330 223
q-164 13 -200 13q-49 0 -112 -43t-72 -43q-92 0 -92 86q0 67 69 144q78 88 178 88q80 0 239 -22.5t239 -22.5q57 0 117 3q58 3 99 -25q46 -31 46 -87q0 -110 -136 -139q-33 -7 -78 -22q17 -95 136 -95h208v-233zM782 963q0 -48 -33.5 -81.5t-81.5 -33.5q-47 0 -80.5 34
t-33.5 81q0 48 33 81.5t81 33.5t81.5 -33.5t33.5 -81.5z" />
    <glyph glyph-name="uFEA7" unicode="&#x62e;" horiz-adv-x="1054" arabic-form="initial" 
d="M962 309q-168 -42 -363 -150q-170 -94 -215 -111q-126 -47 -317 -47h-96v233h142q145 0 248 35q24 8 293 123q-268 83 -322 83q-23 0 -73.5 -30t-77.5 -30q-79 0 -79 87q0 70 76 135t147 65q88 0 272 -65q213 -75 357 -91q100 -11 100 -121q0 -93 -92 -116zM666 1012
q0 -48 -33 -82t-81 -34t-81.5 34t-33.5 82t33.5 81t81.5 33q47 0 80.5 -33.5t33.5 -80.5z" />
    <glyph glyph-name="uFEA8" unicode="&#x62e;" horiz-adv-x="1202" arabic-form="medial" 
d="M1233 1h-227q-234 0 -239 291q-58 -33 -180 -127q-105 -81 -177 -114q-108 -50 -237 -50h-202v233h171q159 0 273 62l204 111q-216 43 -270 43q-32 0 -80 -30t-71 -30q-79 0 -79 87q0 71 75 136t147 65q108 0 319 -50.5t320 -50.5t109 -97q0 -94 -68 -108
q-51 -11 -138 -40q23 -98 156 -98h194v-233zM666 1012q0 -48 -33 -82t-81 -34t-81.5 34t-33.5 82t33.5 81t81.5 33q47 0 80.5 -33.5t33.5 -80.5z" />
    <glyph glyph-name="uFEAA" unicode="&#x62f;" horiz-adv-x="1073" arabic-form="final" 
d="M1103 1h-67q-168 0 -225 88q-60 -99 -272 -144q-108 -23 -186 -23q-176 0 -186 115q-9 95 134 104q387 25 369 130q-9 55 -62 135q-25 38 -94 146q-51 81 -51 139q0 97 98 97q16 0 31 -4q68 -19 251 -376q47 -93 80 -125q50 -49 134 -49h46v-233z" />
    <glyph glyph-name="uFEAC" unicode="&#x630;" horiz-adv-x="1073" arabic-form="final" 
d="M1103 1h-67q-168 0 -225 88q-60 -99 -272 -144q-108 -23 -186 -23q-176 0 -186 115q-9 95 134 104q387 25 369 130q-9 55 -62 135q-25 38 -94 146q-51 81 -51 139q0 97 98 97q16 0 31 -4q68 -19 251 -376q47 -93 80 -125q50 -49 134 -49h46v-233zM553 1033
q0 -48 -33.5 -82t-81.5 -34t-81 34t-33 82q0 47 33.5 80.5t80.5 33.5q48 0 81.5 -33t33.5 -81z" />
    <glyph glyph-name="uFEAE" unicode="&#x631;" horiz-adv-x="1046" arabic-form="final" 
d="M1075 1h-67q-108 0 -168 70q-71 -189 -218 -317q-124 -108 -334 -195q-31 -13 -58 -13q-39 0 -66.5 24.5t-27.5 63.5q0 71 84 110q178 83 271 155q143 110 176 249q4 17 4 39q0 79 -32 171q-6 17 -6 35q0 42 28 71t70 32q63 5 100 -73q2 -5 56 -121q49 -68 158 -68h30
v-233z" />
    <glyph glyph-name="uFEB0" unicode="&#x632;" horiz-adv-x="1046" arabic-form="final" 
d="M765 769q0 -47 -33.5 -81t-80.5 -34q-48 0 -81 33.5t-33 81.5t33 81.5t81 33.5t81 -33.5t33 -81.5zM1075 1h-67q-108 0 -168 70q-71 -189 -218 -317q-124 -108 -334 -195q-31 -13 -58 -13q-39 0 -66.5 24.5t-27.5 63.5q0 71 84 110q178 83 271 155q143 110 176 249
q4 17 4 39q0 79 -32 171q-6 17 -6 35q0 42 28 71t70 32q63 5 100 -73q2 -5 56 -121q49 -68 158 -68h30v-233z" />
    <glyph glyph-name="uFEB2" unicode="&#x633;" horiz-adv-x="2177" arabic-form="final" 
d="M2207 1h-58q-140 0 -202 111q-56 -111 -207 -111q-153 0 -211 120q-53 -120 -177 -120q-95 0 -140 32q0 -259 -129 -422q-150 -189 -439 -189q-255 0 -381 168q-99 132 -99 324q0 293 136 293q74 0 74 -87q0 -30 -9 -89t-9 -89q0 -139 85 -214q81 -72 222 -72
q174 0 270 90q100 93 100 265q0 53 -40.5 152t-40.5 135q0 102 102 102q40 0 74 -43q53 -67 69 -80q53 -43 139 -43q91 0 111 118q16 97 87 97q72 0 85 -97q16 -118 118 -118q110 0 126 120q13 91 80 91q73 0 90 -99q11 -65 40.5 -88.5t96.5 -23.5h37v-233z" />
    <glyph glyph-name="uFEB3" unicode="&#x633;" horiz-adv-x="1133" arabic-form="initial" 
d="M1131 320q0 -131 -73 -221q-78 -98 -206 -98q-63 0 -123 33q-65 35 -89 90q-24 -52 -81 -87.5t-115 -35.5q-154 0 -213 111q-62 -111 -202 -111h-58v233h37q116 0 137 122q17 95 86 95q70 0 83 -95q17 -122 134 -122q68 0 91 57q6 30 25 107q15 57 76 57q66 0 85 -87
q29 -134 142 -134q75 0 75 88q0 22 -12.5 65.5t-12.5 65.5q0 34 23.5 61t57.5 27q72 0 107 -80q26 -59 26 -141z" />
    <glyph glyph-name="uFEB4" unicode="&#x633;" horiz-adv-x="1310" arabic-form="medial" 
d="M1337 1h-57q-143 0 -202 111q-56 -111 -207 -111q-153 0 -211 120q-54 -120 -194 -120q-176 0 -235 111q-62 -111 -202 -111h-58v233h37q122 0 143 122q16 95 86 95t83 -95q17 -122 128 -122q109 0 129 118q17 99 90 99q70 0 83 -93q17 -124 118 -124q111 0 128 122
q13 95 82 95q68 0 85 -95q21 -122 138 -122h36v-233z" />
    <glyph glyph-name="uFEB6" unicode="&#x634;" horiz-adv-x="2175" arabic-form="final" 
d="M2207 1h-58q-140 0 -202 111q-56 -111 -207 -111q-153 0 -211 120q-53 -120 -177 -120q-95 0 -140 32q0 -259 -129 -422q-150 -189 -439 -189q-255 0 -381 168q-99 132 -99 324q0 293 136 293q74 0 74 -87q0 -30 -9 -89t-9 -89q0 -139 85 -214q81 -72 222 -72
q174 0 270 90q100 93 100 265q0 53 -40.5 152t-40.5 135q0 102 102 102q40 0 74 -43q53 -67 69 -80q53 -43 139 -43q91 0 111 118q16 97 87 97q72 0 85 -97q16 -118 118 -118q110 0 126 120q13 91 80 91q73 0 90 -99q11 -65 40.5 -88.5t96.5 -23.5h37v-233zM1246 756
q0 48 33.5 81.5t81.5 33.5q47 0 80.5 -34t33.5 -81q0 -48 -33 -81.5t-81 -33.5t-81.5 33.5t-33.5 81.5zM1525 756q0 47 33.5 81t80.5 34q48 0 81.5 -33.5t33.5 -81.5t-33.5 -81.5t-81.5 -33.5t-81 33.5t-33 81.5zM1386 999q0 48 33 81.5t81 33.5t81 -33.5t33 -81.5t-33 -81
t-81 -33t-81 33t-33 81z" />
    <glyph glyph-name="uFEB7" unicode="&#x634;" horiz-adv-x="1131" arabic-form="initial" 
d="M1131 320q0 -131 -73 -221q-78 -98 -206 -98q-63 0 -123 33q-65 35 -89 90q-24 -52 -81 -87.5t-115 -35.5q-154 0 -213 111q-62 -111 -202 -111h-58v233h37q116 0 137 122q17 95 86 95q70 0 83 -95q17 -122 134 -122q68 0 91 57q6 30 25 107q15 57 76 57q66 0 85 -87
q29 -134 142 -134q75 0 75 88q0 22 -12.5 65.5t-12.5 65.5q0 34 23.5 61t57.5 27q72 0 107 -80q26 -59 26 -141zM381 756q0 47 33.5 81t80.5 34q48 0 81.5 -33.5t33.5 -81.5t-33.5 -81.5t-81.5 -33.5t-81 33.5t-33 81.5zM660 756q0 47 33.5 81t80.5 34q48 0 81 -33.5
t33 -81.5t-33 -81.5t-81 -33.5t-81 33.5t-33 81.5zM520 999q0 48 33.5 81.5t81.5 33.5t81 -33.5t33 -81.5t-33 -81t-81 -33t-81.5 33t-33.5 81z" />
    <glyph glyph-name="uFEB8" unicode="&#x634;" horiz-adv-x="1310" arabic-form="medial" 
d="M1337 1h-57q-143 0 -202 111q-56 -111 -207 -111q-153 0 -211 120q-54 -120 -194 -120q-176 0 -235 111q-62 -111 -202 -111h-58v233h37q122 0 143 122q16 95 86 95t83 -95q17 -122 128 -122q109 0 129 118q17 99 90 99q70 0 83 -93q17 -124 118 -124q111 0 128 122
q13 95 82 95q68 0 85 -95q21 -122 138 -122h36v-233zM381 756q0 47 33.5 81t80.5 34q48 0 81.5 -33.5t33.5 -81.5t-33.5 -81.5t-81.5 -33.5t-81 33.5t-33 81.5zM660 756q0 47 33.5 81t80.5 34q48 0 81 -33.5t33 -81.5t-33 -81.5t-81 -33.5t-81 33.5t-33 81.5zM520 999
q0 48 33.5 81.5t81.5 33.5t81 -33.5t33 -81.5t-33 -81t-81 -33t-81.5 33t-33.5 81z" />
    <glyph glyph-name="uFEBA" unicode="&#x635;" horiz-adv-x="2188" arabic-form="final" 
d="M2217 1h-58q-163 0 -248 94q-181 -104 -493 -104q-142 0 -206 42q0 -259 -129 -422q-150 -189 -439 -189q-255 0 -381 168q-99 132 -99 324q0 293 136 293q74 0 74 -87q0 -30 -9 -89t-9 -89q0 -139 85 -214q81 -72 222 -72q174 0 270 90q100 93 100 265q0 53 -40.5 152
t-40.5 135q0 102 102 102q34 0 108 -83t114 -83q44 0 109 103q225 354 451 354q122 0 197.5 -71.5t75.5 -192.5q0 -86 -46 -175q37 -18 110 -18h44v-233zM1915 375q0 95 -104 95q-136 0 -315 -247q118 0 240 28q179 41 179 124z" />
    <glyph glyph-name="uFEBB" unicode="&#x635;" horiz-adv-x="1265" arabic-form="initial" 
d="M1262 427q0 -241 -236 -352q-178 -84 -454 -84q-127 0 -186 14q-105 25 -144 105q-71 -109 -211 -109h-60v233h38q138 0 164 149q14 76 78 76q66 0 78 -76q23 -149 101 -149q42 0 108 103q225 354 452 354q122 0 197 -71.5t75 -192.5zM1069 375q0 43 -30 69t-74 26
q-137 0 -315 -247q118 0 240 28q179 41 179 124z" />
    <glyph glyph-name="uFEBC" unicode="&#x635;" horiz-adv-x="1342" arabic-form="medial" 
d="M1371 1h-59q-163 0 -247 94q-181 -104 -493 -104q-128 0 -186 14q-107 26 -144 105q-71 -109 -211 -109h-60v233h38q138 0 164 149q14 76 78 76q66 0 78 -76q23 -149 101 -149q42 0 108 103q225 354 452 354q122 0 197 -71.5t75 -192.5q0 -86 -45 -175q37 -18 110 -18h44
v-233zM1069 375q0 43 -30 69t-74 26q-137 0 -315 -247q118 0 240 28q179 41 179 124z" />
    <glyph glyph-name="uFEBE" unicode="&#x636;" horiz-adv-x="2186" arabic-form="final" 
d="M2217 1h-58q-163 0 -248 94q-181 -104 -493 -104q-142 0 -206 42q0 -259 -129 -422q-150 -189 -439 -189q-255 0 -381 168q-99 132 -99 324q0 293 136 293q74 0 74 -87q0 -30 -9 -89t-9 -89q0 -139 85 -214q81 -72 222 -72q174 0 270 90q100 93 100 265q0 53 -40.5 152
t-40.5 135q0 102 102 102q34 0 108 -83t114 -83q44 0 109 103q225 354 451 354q122 0 197.5 -71.5t75.5 -192.5q0 -86 -46 -175q37 -18 110 -18h44v-233zM1915 375q0 95 -104 95q-136 0 -315 -247q118 0 240 28q179 41 179 124zM1749 962q0 -48 -33 -82t-81 -34t-81.5 34
t-33.5 82t33.5 81t81.5 33q47 0 80.5 -33.5t33.5 -80.5z" />
    <glyph glyph-name="uFEBF" unicode="&#x636;" horiz-adv-x="1280" arabic-form="initial" 
d="M1262 427q0 -241 -236 -352q-178 -84 -454 -84q-127 0 -186 14q-105 25 -144 105q-71 -109 -211 -109h-60v233h38q138 0 164 149q14 76 78 76q66 0 78 -76q23 -149 101 -149q42 0 108 103q225 354 452 354q122 0 197 -71.5t75 -192.5zM1069 375q0 43 -30 69t-74 26
q-137 0 -315 -247q118 0 240 28q179 41 179 124zM962 958q0 -48 -33 -82t-81 -34t-81 34t-33 82t33 81t81 33t81 -33t33 -81z" />
    <glyph glyph-name="uFEC0" unicode="&#x636;" horiz-adv-x="1344" arabic-form="medial" 
d="M1371 1h-59q-163 0 -247 94q-181 -104 -493 -104q-128 0 -186 14q-107 26 -144 105q-71 -109 -211 -109h-60v233h38q138 0 164 149q14 76 78 76q66 0 78 -76q23 -149 101 -149q42 0 108 103q225 354 452 354q122 0 197 -71.5t75 -192.5q0 -86 -45 -175q37 -18 110 -18h44
v-233zM1069 375q0 43 -30 69t-74 26q-137 0 -315 -247q118 0 240 28q179 41 179 124zM962 958q0 -48 -33 -82t-81 -34t-81 34t-33 82t33 81t81 33t81 -33t33 -81z" />
    <glyph glyph-name="uFEC2" unicode="&#x637;" horiz-adv-x="1352" arabic-form="final" 
d="M1381 1h-59q-73 0 -144 25q-86 30 -117 82q-167 -107 -424 -107h-198q-275 0 -275 147q0 87 150 87q100 0 139 37q53 51 53 299q0 170 -31 515q-5 54 27.5 97.5t86.5 43.5q93 0 98 -117l15 -365q5 -128 -15 -218q144 154 292 154q115 0 190 -65q79 -68 79 -181
q0 -84 -47 -168q40 -33 135 -33h45v-233zM1059 375q0 84 -127 84q-81 0 -206 -106q-26 -22 -134 -129q236 0 371 56q96 40 96 95z" />
    <glyph glyph-name="uFEC3" unicode="&#x637;" horiz-adv-x="933" arabic-form="initial" 
d="M931 425q0 -155 -125 -271q-164 -153 -486 -153h-349v233h45q88 0 123 37q50 53 50 300q0 180 -31 515q-5 54 27.5 97.5t85.5 43.5q95 0 99 -117l14 -365q5 -128 -14 -218q142 154 292 154q114 0 191.5 -71.5t77.5 -184.5zM741 375q0 84 -127 84q-79 0 -205 -106
q-32 -27 -134 -129q137 0 264 25q202 40 202 126z" />
    <glyph glyph-name="uFEC4" unicode="&#x637;" horiz-adv-x="1035" arabic-form="medial" 
d="M1063 1h-58q-179 0 -261 107q-168 -107 -424 -107h-349v233h45q88 0 123 37q50 53 50 300q0 180 -31 515q-5 54 27.5 97.5t85.5 43.5q95 0 99 -117l14 -365q5 -128 -14 -218q142 154 292 154q113 0 189 -66q80 -69 80 -180q0 -84 -47 -168q39 -33 135 -33h44v-233z
M741 375q0 84 -127 84q-79 0 -205 -106q-32 -27 -134 -129q137 0 264 25q202 40 202 126z" />
    <glyph glyph-name="uFEC6" unicode="&#x638;" horiz-adv-x="1352" arabic-form="final" 
d="M1381 1h-59q-73 0 -144 25q-86 30 -117 82q-167 -107 -424 -107h-198q-275 0 -275 147q0 87 150 87q100 0 139 37q53 51 53 299q0 170 -31 515q-5 54 27.5 97.5t86.5 43.5q93 0 98 -117l15 -365q5 -128 -15 -218q144 154 292 154q115 0 190 -65q79 -68 79 -181
q0 -84 -47 -168q40 -33 135 -33h45v-233zM1059 375q0 84 -127 84q-81 0 -206 -106q-26 -22 -134 -129q236 0 371 56q96 40 96 95zM1122 992q0 -47 -33.5 -81t-80.5 -34q-48 0 -81.5 33.5t-33.5 81.5t33.5 81.5t81.5 33.5t81 -33.5t33 -81.5z" />
    <glyph glyph-name="uFEC7" unicode="&#x638;" horiz-adv-x="933" arabic-form="initial" 
d="M931 425q0 -155 -125 -271q-164 -153 -486 -153h-349v233h45q88 0 123 37q50 53 50 300q0 180 -31 515q-5 54 27.5 97.5t85.5 43.5q95 0 99 -117l14 -365q5 -128 -14 -218q142 154 292 154q114 0 191.5 -71.5t77.5 -184.5zM741 375q0 84 -127 84q-79 0 -205 -106
q-32 -27 -134 -129q137 0 264 25q202 40 202 126zM814 992q0 -47 -33.5 -81t-80.5 -34q-48 0 -81 33.5t-33 81.5t33 81.5t81 33.5t81 -33.5t33 -81.5z" />
    <glyph glyph-name="uFEC8" unicode="&#x638;" horiz-adv-x="1036" arabic-form="medial" 
d="M1063 1h-58q-179 0 -261 107q-168 -107 -424 -107h-349v233h45q88 0 123 37q50 53 50 300q0 180 -31 515q-5 54 27.5 97.5t85.5 43.5q95 0 99 -117l14 -365q5 -128 -14 -218q142 154 292 154q113 0 189 -66q80 -69 80 -180q0 -84 -47 -168q39 -33 135 -33h44v-233z
M741 375q0 84 -127 84q-79 0 -205 -106q-32 -27 -134 -129q137 0 264 25q202 40 202 126zM814 992q0 -47 -33.5 -81t-80.5 -34q-48 0 -81 33.5t-33 81.5t33 81.5t81 33.5t81 -33.5t33 -81.5z" />
    <glyph glyph-name="uFECA" unicode="&#x639;" horiz-adv-x="1074" arabic-form="final" 
d="M1103 1h-62q-229 0 -409 195q-107 -67 -185 -173q-90 -123 -90 -239q0 -285 473 -285q135 0 178 5q9 1 24 1q113 0 113 -99q0 -95 -136 -126q-66 -15 -213 -15q-296 0 -448 101q-184 123 -184 404q0 318 312 565q-121 127 -121 216q0 122 122 185q98 51 231 51
q129 0 218 -42q117 -55 117 -169q0 -152 -224 -273q91 -69 245 -69h39v-233zM812 546q0 45 -103 45q-127 0 -127 -50q0 -35 90 -111q140 68 140 116z" />
    <glyph glyph-name="uFECB" unicode="&#x639;" horiz-adv-x="859" arabic-form="initial" 
d="M774 93q-229 -92 -620 -92h-182v233h198q-48 111 -48 193q0 102 85 197q98 109 241 109q83 0 166 -44q97 -52 97 -129t-64 -77q-25 0 -87 23t-96 23q-157 0 -157 -125q0 -70 55 -112q50 -39 122 -39q79 0 230 35q26 6 48 6q97 0 97 -85q0 -82 -85 -116z" />
    <glyph glyph-name="uFECC" unicode="&#x639;" horiz-adv-x="890" arabic-form="medial" 
d="M920 1h-90q-103 0 -219 32q-130 36 -198 94q-74 -53 -181 -89.5t-195 -36.5h-66v233h54q167 0 229 46q-139 142 -139 256q0 105 130 166q103 48 221 48q114 0 206 -46q115 -57 115 -161q0 -144 -181 -264q64 -45 228 -45h86v-233zM564 509q0 52 -120 52q-118 0 -118 -49
q0 -28 45 -75q40 -43 71 -58q31 14 71 51q51 47 51 79z" />
    <glyph glyph-name="uFECE" unicode="&#x63a;" horiz-adv-x="1077" arabic-form="final" 
d="M1103 1h-62q-229 0 -409 195q-107 -67 -185 -173q-90 -123 -90 -239q0 -285 473 -285q135 0 178 5q9 1 24 1q113 0 113 -99q0 -95 -136 -126q-66 -15 -213 -15q-296 0 -448 101q-184 123 -184 404q0 318 312 565q-121 127 -121 216q0 122 122 185q98 51 231 51
q129 0 218 -42q117 -55 117 -169q0 -152 -224 -273q91 -69 245 -69h39v-233zM812 546q0 45 -103 45q-127 0 -127 -50q0 -35 90 -111q140 68 140 116zM832 1044q0 -48 -33.5 -81.5t-81.5 -33.5q-47 0 -80.5 34t-33.5 81q0 48 33 81.5t81 33.5t81.5 -33.5t33.5 -81.5z" />
    <glyph glyph-name="uFECF" unicode="&#x63a;" horiz-adv-x="860" arabic-form="initial" 
d="M774 93q-229 -92 -620 -92h-182v233h198q-48 111 -48 193q0 102 85 197q98 109 241 109q83 0 166 -44q97 -52 97 -129t-64 -77q-25 0 -87 23t-96 23q-157 0 -157 -125q0 -70 55 -112q50 -39 122 -39q79 0 230 35q26 6 48 6q97 0 97 -85q0 -82 -85 -116zM451 1019
q0 -47 -33.5 -81t-80.5 -34q-48 0 -81.5 33.5t-33.5 81.5t33.5 81.5t81.5 33.5t81 -33.5t33 -81.5z" />
    <glyph glyph-name="uFED0" unicode="&#x63a;" horiz-adv-x="891" arabic-form="medial" 
d="M920 1h-90q-103 0 -219 32q-130 36 -198 94q-74 -53 -181 -89.5t-195 -36.5h-66v233h54q167 0 229 46q-139 142 -139 256q0 105 130 166q103 48 221 48q114 0 206 -46q115 -57 115 -161q0 -144 -181 -264q64 -45 228 -45h86v-233zM564 509q0 52 -120 52q-118 0 -118 -49
q0 -28 45 -75q40 -43 71 -58q31 14 71 51q51 47 51 79zM582 1013q0 -48 -33.5 -81.5t-81.5 -33.5q-47 0 -80.5 34t-33.5 81q0 48 33 81.5t81 33.5t81.5 -33.5t33.5 -81.5z" />
    <glyph glyph-name="uFED2" unicode="&#x641;" horiz-adv-x="1760" arabic-form="final" 
d="M1787 1h-115q-166 0 -262 72q-54 -41 -219 -80q-203 -48 -435 -48q-592 0 -592 347q0 90 26 174q37 119 106 119q73 0 73 -73q0 -25 -10.5 -73.5t-10.5 -73.5q0 -84 65 -125q96 -60 354 -60h123q212 0 336 55q-59 77 -59 159q0 111 85 213q89 106 198 106q113 0 177 -89
q57 -79 57 -196q0 -133 -79 -194h182v-233zM1527 403q0 101 -83 101q-42 0 -77 -34.5t-35 -76.5q0 -38 33 -62q29 -22 68 -22q31 0 62.5 31.5t31.5 62.5zM1534 963q0 -48 -33.5 -81.5t-81.5 -33.5q-47 0 -80.5 34t-33.5 81q0 48 33 81.5t81 33.5t81.5 -33.5t33.5 -81.5z" />
    <glyph glyph-name="uFED3" unicode="&#x641;" horiz-adv-x="592" arabic-form="initial" 
d="M587 399q0 -398 -495 -398h-121v233h152q317 0 310 143q-18 -22 -75.5 -41.5t-90.5 -19.5q-113 0 -171 74q-44 56 -44 128q0 119 55 222q72 134 198 134q151 0 226 -173q56 -129 56 -302zM385 567q0 43 -28.5 75.5t-70.5 32.5q-32 0 -56 -31t-24 -64q0 -75 77 -75
q102 0 102 62zM380 1126q0 -48 -33.5 -81.5t-81.5 -33.5t-81 33.5t-33 81.5t33 81t81 33t81.5 -33t33.5 -81z" />
    <glyph glyph-name="uFED4" unicode="&#x641;" horiz-adv-x="693" arabic-form="medial" 
d="M722 1h-117q-56 0 -134 19q-90 22 -123 50q-97 -69 -263 -69h-114v233h180q-59 76 -59 159q0 110 85 213q90 107 198 107q114 0 177 -89q57 -79 57 -197q0 -126 -79 -193h192v-233zM452 402q0 38 -24 70.5t-61 32.5q-41 0 -75.5 -35.5t-34.5 -77.5q0 -34 32 -59.5
t67 -25.5q33 0 64.5 31t31.5 64zM478 965q0 -48 -33.5 -81.5t-81.5 -33.5q-47 0 -80.5 34t-33.5 81q0 48 33 81.5t81 33.5t81.5 -33.5t33.5 -81.5z" />
    <glyph glyph-name="uFED6" unicode="&#x642;" horiz-adv-x="1313" arabic-form="final" 
d="M1160 829q0 -48 -33.5 -82t-81.5 -34t-81 34t-33 82q0 47 33.5 80.5t80.5 33.5q48 0 81.5 -33t33.5 -81zM881 829q0 -48 -33.5 -82t-81.5 -34t-81 34t-33 82q0 47 33.5 80.5t80.5 33.5q48 0 81.5 -33t33.5 -81zM1342 1h-161q-17 -178 -138 -312q-151 -168 -403 -168
q-248 0 -373 151q-103 124 -103 312q0 92 27 181q39 129 115 129q69 0 69 -81q0 -31 -10.5 -92t-10.5 -92q0 -134 88 -207q82 -68 219 -68q193 0 292 111q64 72 64 136h-57q-149 0 -217 46q-82 56 -82 198q0 110 68 212q77 116 187 116q125 0 199 -127q56 -96 64 -212h163
v-233zM1012 223q0 59 -25 99q-30 49 -85 49q-74 0 -74 -87q0 -61 122 -61h62z" />
    <glyph glyph-name="uFED7" unicode="&#x642;" horiz-adv-x="591" arabic-form="initial" 
d="M587 399q0 -398 -495 -398h-121v233h152q317 0 310 143q-18 -22 -75.5 -41.5t-90.5 -19.5q-113 0 -171 74q-44 56 -44 128q0 119 55 222q72 134 198 134q151 0 226 -173q56 -129 56 -302zM385 567q0 43 -28.5 75.5t-70.5 32.5q-32 0 -56 -31t-24 -64q0 -75 77 -75
q102 0 102 62zM526 1119q0 -47 -33.5 -81t-80.5 -34q-48 0 -81.5 33.5t-33.5 81.5t33.5 81.5t81.5 33.5t81 -33.5t33 -81.5zM247 1119q0 -47 -33.5 -81t-80.5 -34q-48 0 -81.5 33.5t-33.5 81.5t33.5 81.5t81.5 33.5t81 -33.5t33 -81.5z" />
    <glyph glyph-name="uFED8" unicode="&#x642;" horiz-adv-x="693" arabic-form="medial" 
d="M722 1h-117q-56 0 -134 19q-90 22 -123 50q-97 -69 -263 -69h-114v233h180q-59 76 -59 159q0 110 85 213q90 107 198 107q114 0 177 -89q57 -79 57 -197q0 -126 -79 -193h192v-233zM452 402q0 38 -24 70.5t-61 32.5q-41 0 -75.5 -35.5t-34.5 -77.5q0 -34 32 -59.5
t67 -25.5q33 0 64.5 31t31.5 64zM612 963q0 -48 -33 -81.5t-81 -33.5q-47 0 -80.5 34t-33.5 81q0 48 33 81.5t81 33.5t81 -33.5t33 -81.5zM334 963q0 -48 -33.5 -81.5t-81.5 -33.5q-47 0 -80.5 34t-33.5 81q0 48 33 81.5t81 33.5t81.5 -33.5t33.5 -81.5z" />
    <glyph glyph-name="uFEDE" unicode="&#x644;" horiz-adv-x="1260" arabic-form="final" 
d="M1288 1h-59q-106 0 -148 83q-17 -527 -491 -527q-193 0 -308.5 118t-115.5 311q0 110 29 198q36 110 105 110q78 0 78 -75q0 -34 -12 -100t-12 -100q0 -111 78 -172q72 -57 185 -57q151 0 227 91q72 86 68 238l-28 987q-1 51 28 86t79 35q95 0 95 -116v-621
q0 -256 169 -256h33v-233z" />
    <glyph glyph-name="uFEDF" unicode="&#x644;" horiz-adv-x="373" arabic-form="initial" 
d="M370 423q0 -195 -40 -283q-63 -139 -244 -139h-115v233h65q94 0 124 38q25 34 23 130l-16 697q-1 51 25 87q29 40 79 40q99 0 99 -122v-681z" />
    <glyph glyph-name="uFEE0" unicode="&#x644;" horiz-adv-x="540" arabic-form="medial" 
d="M569 1h-63q-66 0 -127 32q-68 35 -89 92q-65 -124 -253 -124h-66v233h65q99 0 129 57q21 39 18 149l-16 663q-1 50 26 84q29 38 78 38q47 0 73 -34.5t26 -82.5v-627q0 -247 151 -247h48v-233z" />
    <glyph glyph-name="uFEE2" unicode="&#x645;" horiz-adv-x="1160" arabic-form="final" 
d="M1188 1h-65q-143 0 -211 68q-57 -132 -196 -132t-258 146q-90 0 -90 -128v-615q0 -78 -82 -78q-78 0 -82 78l-30 643q-12 260 226 331q27 8 71 62q54 67 85 91q59 46 132 46q129 0 263 -213q41 -66 204 -66h33v-233zM772 162q10 18 10 39q0 43 -28 79q-31 37 -73 37
q-34 0 -65 -28.5t-31 -61.5q0 -36 47 -69q44 -32 81 -32q39 0 59 36z" />
    <glyph glyph-name="uFEE3" unicode="&#x645;" horiz-adv-x="677" arabic-form="initial" 
d="M676 248q0 -111 -59 -188q-65 -86 -172 -86q-138 0 -224 103q-76 -76 -187 -76h-63v233h38q58 0 89 17t65 66q75 107 95 129q94 102 189 102q114 0 176 -97q53 -82 53 -203zM519 240q0 42 -20 73q-23 36 -62 36t-77.5 -35t-38.5 -74q0 -29 46 -53q39 -20 72 -20
q80 0 80 73z" />
    <glyph glyph-name="uFEE4" unicode="&#x645;" horiz-adv-x="866" arabic-form="medial" 
d="M895 1h-65q-135 0 -201 64q-44 -140 -206 -140q-145 0 -231 148q-62 -72 -155 -72h-66v233h52q89 0 156 97q103 150 225 150q99 0 171 -78q29 -32 112 -122q60 -47 175 -47h33v-233zM502 177q0 46 -33.5 84.5t-78.5 38.5q-67 0 -67 -81q0 -47 33.5 -80t80.5 -33
q65 0 65 71z" />
    <glyph glyph-name="uFEE6" unicode="&#x646;" horiz-adv-x="1381" arabic-form="final" 
d="M1410 1h-58q-92 0 -140 41q0 -264 -129 -429q-149 -191 -439 -191q-255 0 -381 168q-99 132 -99 324q0 293 136 293q74 0 74 -87q0 -30 -9 -89t-9 -89q0 -139 85 -214q81 -72 222 -72q174 0 270 90q100 93 100 265q0 53 -40.5 152t-40.5 135q0 102 102 102q39 0 76 -43
q57 -66 77 -80q62 -43 158 -43h45v-233zM757 560q0 -48 -33.5 -82t-81.5 -34t-81 34t-33 82q0 47 33.5 80.5t80.5 33.5q48 0 81.5 -33t33.5 -81z" />
    <glyph glyph-name="uFEE7" unicode="&#x646;" horiz-adv-x="408" arabic-form="initial" 
d="M405 363q0 -168 -94 -265t-261 -97h-79v233h92q149 0 149 104q0 30 -14.5 87t-14.5 87q0 41 26.5 70.5t67.5 29.5q128 0 128 -249zM346 901q0 -48 -33 -81.5t-81 -33.5t-81.5 33.5t-33.5 81.5t33.5 81t81.5 33t81 -33t33 -81z" />
    <glyph glyph-name="uFEE8" unicode="&#x646;" horiz-adv-x="573" arabic-form="medial" 
d="M602 1h-67q-198 0 -248 122q-75 -122 -246 -122h-70v233h72q145 0 167 133q15 95 85 95t82 -95q16 -133 158 -133h67v-233zM410 766q0 -48 -33.5 -81.5t-81.5 -33.5q-47 0 -80.5 34t-33.5 81q0 48 33 81.5t81 33.5t81.5 -33.5t33.5 -81.5z" />
    <glyph glyph-name="uFEEA" unicode="&#x647;" horiz-adv-x="902" arabic-form="final" 
d="M933 1h-71q-278 0 -297 257q-56 -30 -135 -30q-94 0 -171 40q-95 49 -95 135q0 148 138 240q57 37 218 141q35 29 82 101q29 44 69 44q82 0 82 -117q0 -48 -10.5 -144.5t-10.5 -144.5q0 -123 16 -181q30 -108 118 -108h67v-233zM558 609q-24 -21 -130 -81
q-67 -38 -67 -73q0 -34 80 -34q76 0 112 19q-1 21 -1 45q0 54 6 124z" />
    <glyph glyph-name="uFEEB" unicode="&#x647;" horiz-adv-x="902" arabic-form="initial" 
d="M899 225q0 -114 -50 -186q-57 -83 -166 -83q-108 0 -280 99q-81 -54 -256 -54h-176v233h186q-36 23 -36 103q0 131 146 255l-44 35q-38 30 -38 80q0 48 32 85.5t79 37.5q33 0 64 -19q539 -329 539 -586zM735 227q-11 58 -123 142q5 -14 5 -30q0 -78 -58 -145
q16 -16 56 -34t62 -18q60 0 60 62q0 12 -2 23zM463 372q0 40 -24.5 73.5t-63.5 33.5q-36 0 -72 -36t-36 -73t30 -65.5t67 -28.5q99 0 99 96z" />
    <glyph glyph-name="uFEEC" unicode="&#x647;" horiz-adv-x="843" arabic-form="medial" 
d="M872 1h-74q-108 0 -183 -31q-104 -43 -104 -136q0 -23 16.5 -66.5t16.5 -66.5q0 -91 -77 -91q-101 0 -231 228q-58 102 -74 175q-55 -12 -128 -12h-63v233h65q59 0 102 14q-2 30 -2 58q0 149 63 244q74 110 216 110q101 0 159 -75q53 -68 53 -172q0 -113 -89 -211
q-76 -84 -192 -135q15 -85 56 -136q25 134 140 220q110 83 249 83h81v-233zM463 400q0 67 -54 74q-62 8 -95 -47q-27 -45 -27 -111q0 -21 3 -41q173 37 173 125z" />
    <glyph glyph-name="uFEEE" unicode="&#x648;" horiz-adv-x="923" arabic-form="final" 
d="M952 1h-163q-100 -340 -527 -507q-26 -10 -50 -10q-40 0 -66 26t-26 66q0 70 76 104q314 139 401 325q-163 0 -235 38q-99 52 -99 197q0 114 68 216q75 112 177 112q124 0 207 -108q73 -95 85 -226h152v-233zM604 220q-3 50 -31 92q-32 49 -79 49q-29 0 -50 -20.5
t-21 -49.5q0 -53 72 -66q28 -5 109 -5z" />
    <glyph glyph-name="uFEF0" unicode="&#x649;" horiz-adv-x="1276" arabic-form="final" 
d="M1305 1h-315q-104 0 -104 -15q0 -13 76 -29q135 -29 140 -31q86 -36 86 -126q0 -133 -162 -268q-177 -148 -400 -148q-464 0 -464 459q0 114 26 199q37 120 118 120t81 -89q0 -31 -14 -91.5t-14 -91.5q0 -152 52 -212q63 -73 236 -73q142 0 247 55q91 48 91 91
q0 13 -72 22q-93 11 -134 31q-71 34 -71 111q0 157 140 244q120 75 286 75h171v-233z" />
    <glyph glyph-name=".notdef" horiz-adv-x="1024" 
d="M128 0v1255h768v-1255h-768zM256 128h512v999h-512v-999z" />
    <glyph glyph-name=".null" 
 />
    <glyph glyph-name="nonmarkingreturn" horiz-adv-x="433" 
 />
    <glyph glyph-name="space" unicode=" " horiz-adv-x="433" 
 />
    <glyph glyph-name="exclam" unicode="!" horiz-adv-x="400" 
d="M395 1072l-40 -657q-5 -85 -70 -85q-67 0 -73 85l-44 657q-4 62 23 106q31 50 91 50q59 0 90 -51q27 -44 23 -105zM406 118q0 -49 -35 -83.5t-84 -34.5q-48 0 -83 35t-35 83q0 49 34.5 84t83.5 35t84 -35t35 -84z" />
    <glyph glyph-name="percent" unicode="%" horiz-adv-x="1040" 
d="M354 1102q0 -53 -37 -90t-90 -37t-90 37t-37 90t37 90t90 37t90 -37t37 -90zM787 1140l-454 -1215q-18 -49 -62 -49q-51 0 -51 57q0 18 7 37l444 1215q22 59 70 59q54 0 54 -62q0 -21 -8 -42zM945 49q0 -53 -37 -90t-90 -37t-90 37t-37 90t37 90t90 37t90 -37t37 -90z
" />
    <glyph glyph-name="parenleft" unicode="(" horiz-adv-x="603" 
d="M587 -210q14 -23 14 -47q0 -60 -56 -60q-33 0 -67 32q-160 150 -244 379q-69 188 -69 368q0 163 69 358q87 246 244 393q31 29 65 29q59 0 59 -56q0 -24 -15 -48q-116 -186 -137 -230q-104 -220 -104 -444q0 -222 105 -443q23 -49 136 -231z" />
    <glyph glyph-name="parenright" unicode=")" horiz-adv-x="603" 
d="M179 -210q-15 -24 -15 -47q0 -60 56 -60q33 0 67 32q162 152 245 379q68 186 68 368q0 165 -68 358q-86 245 -245 393q-31 29 -65 29q-58 0 -58 -56q0 -24 15 -48q114 -183 136 -230q104 -220 104 -444q0 -222 -104 -443q-25 -53 -136 -231z" />
    <glyph glyph-name="asterisk" unicode="*" horiz-adv-x="1113" 
d="M1097 785q14 -24 14 -53q0 -66 -60 -100q-121 -69 -213 -69q-78 0 -78 58q0 48 74 119q104 100 170 100q61 0 93 -55zM749 930q0 -83 -21 -157q-30 -106 -89 -106q-54 0 -85 110q-23 81 -23 154q0 50 30 82.5t80 32.5q47 0 77.5 -34t30.5 -82zM1095 259q-31 -54 -94 -54
q-32 0 -61 17q-55 33 -108 81q-73 67 -73 117q0 58 77 58q100 0 214 -66q61 -35 61 -98q0 -27 -16 -55zM754 520q0 -47 -33.5 -80t-80.5 -33t-80 33t-33 80t33 80t80 33q46 0 80 -33.5t34 -79.5zM446 564q-99 0 -215 67q-61 35 -61 98q0 28 16 56q30 53 93 53q32 0 61 -17
q59 -34 109 -81q72 -67 72 -117q0 -59 -75 -59zM749 112q-1 -116 -110 -116q-48 0 -78.5 34t-30.5 82q1 82 22 156q31 107 88 107q55 0 87 -111q23 -79 22 -152zM520 421q0 -48 -73 -118q-54 -52 -107 -82q-30 -17 -62 -17q-60 0 -94 56q-15 25 -15 51q0 65 62 101
q118 68 210 68q79 0 79 -59z" />
    <glyph glyph-name="plus" unicode="+" horiz-adv-x="937" 
d="M792 312h-264v-264q0 -78 -64 -78q-66 0 -66 78v264l-267 1q-78 0 -78 64q0 63 78 63h267v269q0 78 64 78q66 0 66 -78v-270l264 1q78 0 78 -63q0 -65 -78 -65z" />
    <glyph glyph-name="comma" unicode="," horiz-adv-x="448" 
d="M170 133q0 58 39 97.5t97 39.5q68 0 107.5 -43.5t39.5 -112.5q0 -103 -52 -200q-62 -115 -156 -115q-41 0 -41 30q0 27 29 45q43 27 55 37q37 40 44 91q-21 -7 -42 -7q-57 0 -90 42q-30 38 -30 96z" />
    <glyph glyph-name="hyphen" unicode="-" horiz-adv-x="937" 
d="M792 312l-661 1q-78 0 -78 64q0 63 78 63h661q78 0 78 -63q0 -65 -78 -65z" />
    <glyph glyph-name="period" unicode="." horiz-adv-x="433" 
d="M430 115q0 -55 -39 -93.5t-94 -38.5t-94 38.5t-39 93.5t39 94t94 39t94 -39t39 -94z" />
    <glyph glyph-name="slash" unicode="/" horiz-adv-x="777" 
d="M671 1140l-454 -1215q-18 -49 -61 -49q-52 0 -52 57q0 15 8 37l444 1215q22 59 69 59q54 0 54 -62q0 -21 -8 -42z" />
    <glyph glyph-name="zero" unicode="0" horiz-adv-x="1115" 
d="M736 463q0 -79 -54.5 -133t-133.5 -54t-133 54t-54 133q0 80 54 134t133 54t133.5 -54.5t54.5 -133.5z" />
    <glyph glyph-name="zero" unicode="&#x6f0;" horiz-adv-x="1115" 
d="M736 463q0 -79 -54.5 -133t-133.5 -54t-133 54t-54 133q0 80 54 134t133 54t133.5 -54.5t54.5 -133.5z" />
    <glyph glyph-name="zero" unicode="&#x660;" horiz-adv-x="1115" 
d="M736 463q0 -79 -54.5 -133t-133.5 -54t-133 54t-54 133q0 80 54 134t133 54t133.5 -54.5t54.5 -133.5z" />
    <glyph glyph-name="one" unicode="1" horiz-adv-x="1115" 
d="M560 -92q-95 0 -89 119q5 97 5 187q0 422 -98 796q-10 38 -10 72q0 118 106 118q89 0 123 -127q84 -314 84 -727q0 -190 -8 -252q-24 -186 -113 -186z" />
    <glyph glyph-name="one" unicode="&#x6f1;" horiz-adv-x="1115" 
d="M560 -92q-95 0 -89 119q5 97 5 187q0 422 -98 796q-10 38 -10 72q0 118 106 118q89 0 123 -127q84 -314 84 -727q0 -190 -8 -252q-24 -186 -113 -186z" />
    <glyph glyph-name="one" unicode="&#x661;" horiz-adv-x="1115" 
d="M560 -92q-95 0 -89 119q5 97 5 187q0 422 -98 796q-10 38 -10 72q0 118 106 118q89 0 123 -127q84 -314 84 -727q0 -190 -8 -252q-24 -186 -113 -186z" />
    <glyph glyph-name="two" unicode="2" horiz-adv-x="1115" 
d="M954 1087q0 -178 -68 -285q-81 -129 -249 -129q-125 0 -185 64q44 -248 44 -529q0 -207 -32 -262q-22 -37 -74 -37q-96 0 -95 112q4 378 -10 508q-26 243 -104 494q-13 42 -13 72q0 105 111 105q51 0 80 -39q16 -21 43 -88q66 -164 224 -164q135 0 135 174q0 138 94 138
q49 0 76 -45q23 -37 23 -89z" />
    <glyph glyph-name="two" unicode="&#x6f2;" horiz-adv-x="1115" 
d="M954 1087q0 -178 -68 -285q-81 -129 -249 -129q-125 0 -185 64q44 -248 44 -529q0 -207 -32 -262q-22 -37 -74 -37q-96 0 -95 112q4 378 -10 508q-26 243 -104 494q-13 42 -13 72q0 105 111 105q51 0 80 -39q16 -21 43 -88q66 -164 224 -164q135 0 135 174q0 138 94 138
q49 0 76 -45q23 -37 23 -89z" />
    <glyph glyph-name="two" unicode="&#x662;" horiz-adv-x="1115" 
d="M954 1087q0 -178 -68 -285q-81 -129 -249 -129q-125 0 -185 64q44 -248 44 -529q0 -207 -32 -262q-22 -37 -74 -37q-96 0 -95 112q4 378 -10 508q-26 243 -104 494q-13 42 -13 72q0 105 111 105q51 0 80 -39q16 -21 43 -88q66 -164 224 -164q135 0 135 174q0 138 94 138
q49 0 76 -45q23 -37 23 -89z" />
    <glyph glyph-name="three" unicode="3" horiz-adv-x="1115" 
d="M1073 1071q0 -153 -55 -250q-68 -121 -210 -121q-110 0 -161 84q-52 -111 -160 -111q-65 0 -121 36q49 -210 49 -487q0 -118 -12 -196q-18 -117 -95 -117q-84 0 -86 112q-5 352 -35 539q-23 147 -64 260l-73 203q-11 31 -11 67q0 110 109 110q70 0 123 -127
q25 -59 69 -106q55 -58 107 -58q106 0 106 174q0 47 23 81q26 38 71 38q93 0 93 -127q0 -75 10 -100q16 -41 70 -41q78 0 78 142q0 117 83 117q45 0 70 -40q22 -34 22 -82z" />
    <glyph glyph-name="three" unicode="&#x6f3;" horiz-adv-x="1115" 
d="M1073 1071q0 -153 -55 -250q-68 -121 -210 -121q-110 0 -161 84q-52 -111 -160 -111q-65 0 -121 36q49 -210 49 -487q0 -118 -12 -196q-18 -117 -95 -117q-84 0 -86 112q-5 352 -35 539q-23 147 -64 260l-73 203q-11 31 -11 67q0 110 109 110q70 0 123 -127
q25 -59 69 -106q55 -58 107 -58q106 0 106 174q0 47 23 81q26 38 71 38q93 0 93 -127q0 -75 10 -100q16 -41 70 -41q78 0 78 142q0 117 83 117q45 0 70 -40q22 -34 22 -82z" />
    <glyph glyph-name="three" unicode="&#x663;" horiz-adv-x="1115" 
d="M1073 1071q0 -153 -55 -250q-68 -121 -210 -121q-110 0 -161 84q-52 -111 -160 -111q-65 0 -121 36q49 -210 49 -487q0 -118 -12 -196q-18 -117 -95 -117q-84 0 -86 112q-5 352 -35 539q-23 147 -64 260l-73 203q-11 31 -11 67q0 110 109 110q70 0 123 -127
q25 -59 69 -106q55 -58 107 -58q106 0 106 174q0 47 23 81q26 38 71 38q93 0 93 -127q0 -75 10 -100q16 -41 70 -41q78 0 78 142q0 117 83 117q45 0 70 -40q22 -34 22 -82z" />
    <glyph glyph-name="four" unicode="4" horiz-adv-x="1115" 
d="M965 718q-116 -91 -278 -91q-180 0 -284 66q41 -232 41 -466q0 -223 -34 -281q-22 -37 -73 -37q-94 0 -96 112l-10 450q-36 270 -114 466q-17 43 -17 78q0 49 31 80.5t80 31.5q51 0 112 -100q73 -119 132 -134q-8 34 -8 68q0 108 65 190q71 88 176 88q110 0 179 -47
q58 -39 58 -84q0 -58 -58 -58q-23 0 -69 11t-69 11q-49 0 -78.5 -32.5t-29.5 -82.5q0 -55 37 -87t93 -32q39 0 111 30.5t94 30.5q74 0 74 -74q0 -56 -65 -107z" />
    <glyph glyph-name="four" unicode="&#x6f4;" horiz-adv-x="1115" 
d="M965 718q-116 -91 -278 -91q-180 0 -284 66q41 -232 41 -466q0 -223 -34 -281q-22 -37 -73 -37q-94 0 -96 112l-10 450q-36 270 -114 466q-17 43 -17 78q0 49 31 80.5t80 31.5q51 0 112 -100q73 -119 132 -134q-8 34 -8 68q0 108 65 190q71 88 176 88q110 0 179 -47
q58 -39 58 -84q0 -58 -58 -58q-23 0 -69 11t-69 11q-49 0 -78.5 -32.5t-29.5 -82.5q0 -55 37 -87t93 -32q39 0 111 30.5t94 30.5q74 0 74 -74q0 -56 -65 -107z" />
    <glyph glyph-name="four" unicode="&#x664;" horiz-adv-x="1115" 
d="M965 718q-116 -91 -278 -91q-180 0 -284 66q41 -232 41 -466q0 -223 -34 -281q-22 -37 -73 -37q-94 0 -96 112l-10 450q-36 270 -114 466q-17 43 -17 78q0 49 31 80.5t80 31.5q51 0 112 -100q73 -119 132 -134q-8 34 -8 68q0 108 65 190q71 88 176 88q110 0 179 -47
q58 -39 58 -84q0 -58 -58 -58q-23 0 -69 11t-69 11q-49 0 -78.5 -32.5t-29.5 -82.5q0 -55 37 -87t93 -32q39 0 111 30.5t94 30.5q74 0 74 -74q0 -56 -65 -107z" />
    <glyph glyph-name="five" unicode="5" horiz-adv-x="1115" 
d="M1001 301q0 -173 -93 -276q-78 -87 -176 -87q-114 0 -175 74q-77 -106 -196 -106q-130 0 -198 104q-58 88 -58 225q0 312 299 698l-35 32q-39 36 -39 84q0 46 34.5 80t80.5 34q44 0 83 -33q197 -167 323 -369q150 -239 150 -460zM819 333q0 109 -101 266
q-86 134 -193 231q-85 -107 -159 -246q-92 -173 -92 -272q0 -131 95 -131q47 0 99 55t71 55q20 0 73 -53.5t95 -53.5q112 0 112 149z" />
    <glyph glyph-name="five" unicode="&#x6f5;" horiz-adv-x="1115" 
d="M1001 301q0 -173 -93 -276q-78 -87 -176 -87q-114 0 -175 74q-77 -106 -196 -106q-130 0 -198 104q-58 88 -58 225q0 312 299 698l-35 32q-39 36 -39 84q0 46 34.5 80t80.5 34q44 0 83 -33q197 -167 323 -369q150 -239 150 -460zM819 333q0 109 -101 266
q-86 134 -193 231q-85 -107 -159 -246q-92 -173 -92 -272q0 -131 95 -131q47 0 99 55t71 55q20 0 73 -53.5t95 -53.5q112 0 112 149z" />
    <glyph glyph-name="five" unicode="&#x665;" horiz-adv-x="1115" 
d="M1001 301q0 -173 -93 -276q-78 -87 -176 -87q-114 0 -175 74q-77 -106 -196 -106q-130 0 -198 104q-58 88 -58 225q0 312 299 698l-35 32q-39 36 -39 84q0 46 34.5 80t80.5 34q44 0 83 -33q197 -167 323 -369q150 -239 150 -460zM819 333q0 109 -101 266
q-86 134 -193 231q-85 -107 -159 -246q-92 -173 -92 -272q0 -131 95 -131q47 0 99 55t71 55q20 0 73 -53.5t95 -53.5q112 0 112 149z" />
    <glyph glyph-name="six" unicode="6" horiz-adv-x="1115" 
d="M1047 744q0 -78 -172 -183q-293 -178 -491 -466q-33 -49 -127 -187q-40 -59 -97 -59q-75 0 -75 82q0 26 10 52q92 243 335 513q-80 16 -149 95q-82 94 -82 218q0 167 103.5 274.5t269.5 107.5q74 0 135 -30q77 -38 77 -103q0 -46 -58 -59l-150 -8q-76 -4 -125 -45
q-53 -44 -53 -118q0 -62 69 -102q58 -34 124 -34q49 0 183 71t175 71q98 0 98 -90z" />
    <glyph glyph-name="six" unicode="&#x6f6;" horiz-adv-x="1115" 
d="M1047 744q0 -78 -172 -183q-293 -178 -491 -466q-33 -49 -127 -187q-40 -59 -97 -59q-75 0 -75 82q0 26 10 52q92 243 335 513q-80 16 -149 95q-82 94 -82 218q0 167 103.5 274.5t269.5 107.5q74 0 135 -30q77 -38 77 -103q0 -46 -58 -59l-150 -8q-76 -4 -125 -45
q-53 -44 -53 -118q0 -62 69 -102q58 -34 124 -34q49 0 183 71t175 71q98 0 98 -90z" />
    <glyph glyph-name="six" unicode="&#x666;" horiz-adv-x="1115" 
d="M1047 744q0 -78 -172 -183q-293 -178 -491 -466q-33 -49 -127 -187q-40 -59 -97 -59q-75 0 -75 82q0 26 10 52q92 243 335 513q-80 16 -149 95q-82 94 -82 218q0 167 103.5 274.5t269.5 107.5q74 0 135 -30q77 -38 77 -103q0 -46 -58 -59l-150 -8q-76 -4 -125 -45
q-53 -44 -53 -118q0 -62 69 -102q58 -34 124 -34q49 0 183 71t175 71q98 0 98 -90z" />
    <glyph glyph-name="seven" unicode="7" horiz-adv-x="1115" 
d="M977 952q-98 -146 -196 -420q-104 -290 -122 -489q-10 -109 -101 -109q-90 0 -99 109q-15 195 -120 486q-99 276 -197 423q-44 66 -44 127q0 104 88 104q70 0 129 -89q216 -326 246 -636q41 322 243 636q57 89 128 89q89 0 89 -105q0 -60 -44 -126z" />
    <glyph glyph-name="seven" unicode="&#x6f7;" horiz-adv-x="1115" 
d="M977 952q-98 -146 -196 -420q-104 -290 -122 -489q-10 -109 -101 -109q-90 0 -99 109q-15 195 -120 486q-99 276 -197 423q-44 66 -44 127q0 104 88 104q70 0 129 -89q216 -326 246 -636q41 322 243 636q57 89 128 89q89 0 89 -105q0 -60 -44 -126z" />
    <glyph glyph-name="seven" unicode="&#x667;" horiz-adv-x="1115" 
d="M977 952q-98 -146 -196 -420q-104 -290 -122 -489q-10 -109 -101 -109q-90 0 -99 109q-15 195 -120 486q-99 276 -197 423q-44 66 -44 127q0 104 88 104q70 0 129 -89q216 -326 246 -636q41 322 243 636q57 89 128 89q89 0 89 -105q0 -60 -44 -126z" />
    <glyph glyph-name="eight" unicode="8" horiz-adv-x="1115" 
d="M140 175q100 147 197 420q103 290 122 489q10 109 100 109q91 0 100 -109q16 -200 119 -487q99 -275 197 -422q45 -67 45 -127q0 -42 -24 -73t-65 -31q-70 0 -129 89q-215 324 -245 636q-42 -322 -244 -636q-57 -89 -127 -89q-90 0 -90 105q0 61 44 126z" />
    <glyph glyph-name="eight" unicode="&#x6f8;" horiz-adv-x="1115" 
d="M140 175q100 147 197 420q103 290 122 489q10 109 100 109q91 0 100 -109q16 -200 119 -487q99 -275 197 -422q45 -67 45 -127q0 -42 -24 -73t-65 -31q-70 0 -129 89q-215 324 -245 636q-42 -322 -244 -636q-57 -89 -127 -89q-90 0 -90 105q0 61 44 126z" />
    <glyph glyph-name="eight" unicode="&#x668;" horiz-adv-x="1115" 
d="M140 175q100 147 197 420q103 290 122 489q10 109 100 109q91 0 100 -109q16 -200 119 -487q99 -275 197 -422q45 -67 45 -127q0 -42 -24 -73t-65 -31q-70 0 -129 89q-215 324 -245 636q-42 -322 -244 -636q-57 -89 -127 -89q-90 0 -90 105q0 61 44 126z" />
    <glyph glyph-name="nine" unicode="9" horiz-adv-x="1115" 
d="M889 48q0 -125 -111 -125q-84 0 -138 211q-48 187 -48 411q-253 0 -351 84q-77 66 -77 215q0 150 90 262q97 120 244 120q280 0 280 -464q0 -254 29 -411q18 -96 53 -188q29 -76 29 -115zM586 779q0 225 -112 225q-55 0 -90 -38t-35 -93q0 -99 162 -99q34 0 75 5z" />
    <glyph glyph-name="nine" unicode="&#x6f9;" horiz-adv-x="1115" 
d="M889 48q0 -125 -111 -125q-84 0 -138 211q-48 187 -48 411q-253 0 -351 84q-77 66 -77 215q0 150 90 262q97 120 244 120q280 0 280 -464q0 -254 29 -411q18 -96 53 -188q29 -76 29 -115zM586 779q0 225 -112 225q-55 0 -90 -38t-35 -93q0 -99 162 -99q34 0 75 5z" />
    <glyph glyph-name="nine" unicode="&#x669;" horiz-adv-x="1115" 
d="M889 48q0 -125 -111 -125q-84 0 -138 211q-48 187 -48 411q-253 0 -351 84q-77 66 -77 215q0 150 90 262q97 120 244 120q280 0 280 -464q0 -254 29 -411q18 -96 53 -188q29 -76 29 -115zM586 779q0 225 -112 225q-55 0 -90 -38t-35 -93q0 -99 162 -99q34 0 75 5z" />
    <glyph glyph-name="colon" unicode=":" horiz-adv-x="433" 
d="M430 115q0 -55 -39 -93.5t-94 -38.5t-94 38.5t-39 93.5t39 94t94 39t94 -39t39 -94zM430 558q0 -55 -39 -94t-94 -39t-94 39t-39 94t39 93.5t94 38.5t94 -38.5t39 -93.5z" />
    <glyph glyph-name="equal" unicode="=" horiz-adv-x="937" 
d="M792 159l-661 1q-78 0 -78 63q0 64 78 64h661q78 0 78 -64t-78 -64zM792 418l-661 1q-78 0 -78 63q0 64 78 64h661q78 0 78 -63q0 -65 -78 -65z" />
    <glyph glyph-name="bracketleft" unicode="[" horiz-adv-x="493" 
d="M483 -362h-343v1593h343v-43h-250v-1508h250v-42z" />
    <glyph glyph-name="bracketright" unicode="]" horiz-adv-x="493" 
d="M489 -362h-341v42h249v1508h-249v43h341v-1593z" />
    <glyph glyph-name="braceleft" unicode="{" horiz-adv-x="981" 
d="M832 -320q-152 27 -249 129q-103 107 -103 257q0 61 26 177q19 85 19 112q0 97 -72 163q-67 62 -166 73v38q239 52 239 219q0 47 -16 122q-27 126 -27 188q0 151 101 257q96 102 248 127v-40q-94 -14 -155 -73q-67 -64 -67 -155q0 -46 13 -115q30 -160 30 -210
q0 -224 -286 -336q283 -116 283 -350q0 -49 -27 -179q-17 -82 -17 -135q0 -180 226 -233v-36z" />
    <glyph glyph-name="braceright" unicode="}" horiz-adv-x="981" 
d="M695 593q-239 -52 -239 -220q0 -52 15 -122q28 -131 28 -187q0 -151 -101 -257q-96 -102 -248 -127v40q94 14 155 73q66 63 66 155q0 48 -12 114q-30 164 -30 211q0 223 285 336q-282 116 -282 349q0 55 26 180q18 87 18 135q0 180 -226 233v36q152 -28 249 -129
q103 -106 103 -257q0 -57 -27 -177q-18 -80 -18 -113q0 -97 73 -162q64 -58 165 -74v-37z" />
    <glyph glyph-name="guillemotleft" unicode="&#xab;" horiz-adv-x="524" 
d="M524 585q-127 -134 -127 -286q0 -132 81 -253q9 -13 9 -25q0 -23 -27 -23q-61 0 -121 156q-39 102 -32 180q7 80 63 171q81 132 139 132q29 0 29 -23q0 -14 -14 -29zM369 586q-128 -131 -128 -287q0 -134 81 -252q9 -13 9 -25q0 -23 -27 -23q-61 0 -121 155
q-39 101 -32 180q7 81 63 172q80 131 139 131q30 0 30 -23q0 -14 -14 -28z" />
    <glyph glyph-name="periodcentered" unicode="&#xb7;" horiz-adv-x="405" 
d="M326 768q0 -50 -35.5 -85t-85.5 -35q-49 0 -84.5 35.5t-35.5 84.5t34.5 85t83.5 36q51 0 87 -35t36 -86z" />
    <glyph glyph-name="periodcentered" unicode="&#x2219;" horiz-adv-x="405" 
d="M326 768q0 -50 -35.5 -85t-85.5 -35q-49 0 -84.5 35.5t-35.5 84.5t34.5 85t83.5 36q51 0 87 -35t36 -86z" />
    <glyph glyph-name="periodcentered" unicode="&#x2d9;" horiz-adv-x="405" 
d="M326 768q0 -50 -35.5 -85t-85.5 -35q-49 0 -84.5 35.5t-35.5 84.5t34.5 85t83.5 36q51 0 87 -35t36 -86z" />
    <glyph glyph-name="guillemotright" unicode="&#xbb;" horiz-adv-x="524" 
d="M471 130q-79 -132 -138 -132q-30 0 -30 23q0 14 14 28q128 131 128 288q0 133 -81 251q-9 13 -9 25q0 23 27 23q61 0 120 -155q33 -87 33 -155q0 -89 -64 -196zM379 302q-7 -79 -63 -171q-81 -133 -140 -133q-29 0 -29 24q0 13 14 28q128 133 128 287q0 131 -81 252
q-9 13 -9 25q0 23 27 23q61 0 121 -155q39 -101 32 -180z" />
    <glyph glyph-name="multiply" unicode="&#xd7;" horiz-adv-x="937" 
d="M802 567l-240 -239l238 -240q26 -26 26 -56q0 -57 -58 -57q-30 0 -56 26l-239 241l-239 -241q-26 -26 -56 -26q-58 0 -58 57q0 30 26 56l239 240l-241 239q-27 27 -27 57q0 56 57 56q31 0 57 -26l243 -240l241 240q26 26 57 26q57 0 57 -56q0 -30 -27 -57z" />
    <glyph glyph-name="divide" unicode="&#xf7;" horiz-adv-x="912" 
d="M452 725q40 0 68 -28t28 -68t-28 -68t-68 -28t-68 28t-28 68t28 68t68 28zM452 212q41 0 68.5 -27.5t27.5 -68.5q0 -40 -28 -68t-68 -28t-68 28t-28 68q0 41 27.5 68.5t68.5 27.5zM792 312l-661 1q-78 0 -78 64q0 63 78 63h661q78 0 78 -63q0 -65 -78 -65z" />
    <glyph glyph-name="u060C" unicode="&#x60c;" horiz-adv-x="448" 
d="M447 109q0 -57 -39.5 -97t-96.5 -40q-68 0 -107.5 43.5t-39.5 112.5q0 102 52 199q62 115 156 115q41 0 41 -30q0 -27 -29 -45q-48 -29 -55 -37q-37 -40 -44 -90q21 6 42 6q57 0 90 -41q30 -37 30 -96z" />
    <glyph glyph-name="u061B" unicode="&#x61b;" horiz-adv-x="450" 
d="M438 115q0 -55 -38.5 -93.5t-93.5 -38.5t-94 38.5t-39 93.5t39 94t94 39t93.5 -39t38.5 -94zM448 522q0 -56 -40 -96t-96 -40q-147 0 -147 155q0 100 53 199q62 116 155 116q41 0 41 -30q0 -27 -29 -45q-46 -28 -55 -38q-37 -40 -44 -89q21 6 42 6q57 0 90 -42
q30 -38 30 -96z" />
    <glyph glyph-name="u061F" unicode="&#x61f;" horiz-adv-x="877" 
d="M875 929q0 -133 -97 -133q-100 0 -100 110q0 68 -50 105q-45 34 -115 34q-63 0 -104 -34q-45 -37 -45 -98q0 -88 74 -158q37 -35 138 -129q74 -90 74 -222q0 -117 -82 -117q-41 0 -67 35q-24 31 -24 73q0 106 -81 177q-22 20 -149 120q-81 79 -81 195q0 134 79 228
q95 113 272 113q132 0 240 -82q118 -89 118 -217zM700 102q0 -51 -35.5 -86.5t-86.5 -35.5t-86.5 35.5t-35.5 86.5t35.5 86.5t86.5 35.5q50 0 86 -36t36 -86z" />
    <glyph glyph-name="u0621" unicode="&#x621;" horiz-adv-x="808" 
d="M724 117l-456 -129q-36 -10 -67 1q-36 13 -36 50q0 52 67 78l82 32q-61 72 -61 145q0 99 70 165t170 66q52 0 102 -25q60 -30 60 -77q0 -50 -48 -50q-20 0 -60.5 7.5t-60.5 7.5q-35 0 -63 -21t-28 -55q0 -87 142 -87q38 0 158 37q19 6 39 6q74 0 74 -65q0 -62 -84 -86z
" />
    <glyph glyph-name="u0640" unicode="&#x640;" horiz-adv-x="548" 
d="M577 1h-606v233h606v-233z" />
    <glyph glyph-name="u064B" unicode="&#x64b;" 
d="M485 1635l-385 -120q-6 -2 -15 -2q-44 0 -44 47q0 36 42 49l371 118q9 3 21 3q50 0 50 -48q0 -35 -40 -47zM494 1433l-384 -120q-6 -2 -15 -2q-44 0 -44 47q0 36 41 49l371 118q9 3 21 3q51 0 51 -48q0 -34 -41 -47z" />
    <glyph glyph-name="u064C" unicode="&#x64c;" 
d="M536 1662q0 -106 -101 -183q36 -25 36 -53q0 -34 -40 -34q-31 0 -67 28q-220 -116 -308 -116q-52 0 -52 43q0 34 41 45q68 18 68 79q0 28 -39 28q-28 0 -53 -15q-15 -9 -26 -9q-24 0 -24 25q0 20 19 39q41 41 103 41q92 0 92 -84q0 -30 -17 -66q58 22 117 59
q-44 46 -44 103q0 70 51.5 126.5t120.5 56.5q49 0 86 -32.5t37 -80.5zM448 1628q0 57 -55 57q-27 0 -49 -26.5t-22 -53.5q0 -45 47 -70q27 8 53 37t26 56z" />
    <glyph glyph-name="u064D" unicode="&#x64d;" 
d="M483 -1061l-385 -120q-6 -2 -15 -2q-44 0 -44 47q0 36 42 49l371 118q9 3 21 3q50 0 50 -48q0 -35 -40 -47zM492 -1254l-384 -119q-6 -2 -15 -2q-44 0 -44 46q0 36 41 49l372 119q9 3 20 3q51 0 51 -48q0 -35 -41 -48z" />
    <glyph glyph-name="u064E" unicode="&#x64e;" 
d="M494 1433l-384 -120q-6 -2 -15 -2q-44 0 -44 47q0 36 41 49l371 118q9 3 21 3q51 0 51 -48q0 -34 -41 -47z" />
    <glyph glyph-name="u064F" unicode="&#x64f;" 
d="M536 1662q0 -106 -101 -183q36 -25 36 -53q0 -34 -40 -34q-31 0 -67 28q-220 -116 -308 -116q-52 0 -52 43q0 34 41 45q148 39 240 97q-44 46 -44 103q0 70 51.5 126.5t120.5 56.5q49 0 86 -32.5t37 -80.5zM448 1628q0 57 -55 57q-27 0 -49 -26.5t-22 -53.5q0 -45 47 -70
q27 8 53 37t26 56z" />
    <glyph glyph-name="u0650" unicode="&#x650;" 
d="M494 -1063l-384 -120q-6 -2 -15 -2q-44 0 -44 47q0 36 41 49l371 118q9 3 21 3q51 0 51 -48q0 -34 -41 -47z" />
    <glyph glyph-name="u0651" unicode="&#x651;" 
d="M515 1606q7 -35 7 -66q0 -78 -32 -130q-38 -63 -111 -63q-70 0 -94 68q-38 -105 -139 -105q-96 0 -96 126q0 55 23 104q13 27 35 27q32 0 27 -46q-11 -88 40 -88q73 0 91 129q6 43 36 43q28 0 29 -40q4 -100 63 -100q68 0 50 127q-1 7 -1 15q0 45 32 45q31 0 40 -46z" />
    <glyph glyph-name="u0652" unicode="&#x652;" 
d="M475 1535q0 -77 -52 -131t-128 -54q-72 0 -114 45.5t-42 117.5q0 94 59 149q48 46 105 46q76 0 124 -48.5t48 -124.5zM399 1517q0 41 -33 66.5t-75 25.5q-30 0 -52.5 -27.5t-22.5 -58.5q0 -73 93 -73q32 0 59 18q31 19 31 49z" />
    <glyph glyph-name="zeronojoin" unicode="&#x200c;" horiz-adv-x="34" 
 />
    <glyph glyph-name="zerojoin" unicode="&#x200d;" horiz-adv-x="34" 
 />
    <glyph glyph-name="lefttoright" unicode="&#x200e;" horiz-adv-x="34" 
d="M224 1190l-100 -102l-25 22l66 65h-131v-1175h-34v1207h160l-61 61l25 23z" />
    <glyph glyph-name="righttoleft" unicode="&#x200f;" horiz-adv-x="34" 
d="M34 0h-34v1175h-131l63 -65l-21 -22l-103 102l103 101l21 -23l-61 -61h163v-1207z" />
    <glyph glyph-name="quoteleft" unicode="&#x2018;" horiz-adv-x="491" 
d="M467 1486q-89 -59 -154 -145q-76 -101 -76 -193q0 -55 32 -98q39 47 90 47q102 0 102 -100q0 -59 -48 -92q-43 -30 -104 -30q-82 0 -133 50.5t-51 132.5q0 141 108 283q97 127 234 200v-55z" />
    <glyph glyph-name="quoteright" unicode="&#x2019;" horiz-adv-x="491" 
d="M444 1353q0 -143 -107 -281q-91 -118 -232 -200v56q228 162 228 338q0 62 -33 101q-33 -49 -95 -49q-41 0 -69.5 28t-28.5 69q0 58 49 93q43 31 104 31q86 0 135 -50t49 -136z" />
    <glyph glyph-name="quotedblleft" unicode="&#x201c;" horiz-adv-x="650" 
d="M572 1146q-13 -6 -41 -26q-52 -51 -52 -95q82 -22 82 -112q0 -45 -31.5 -78t-76.5 -33q-52 0 -84 42q-29 38 -29 92q0 201 203 359q0 -83 1 -93q4 -40 28 -56zM302 1146q-13 -6 -41 -26q-52 -51 -52 -95q82 -22 82 -112q0 -45 -31.5 -78t-76.5 -33q-52 0 -84 42
q-29 38 -29 92q0 201 203 359q0 -83 1 -93q4 -40 28 -56z" />
    <glyph glyph-name="quotedblright" unicode="&#x201d;" horiz-adv-x="650" 
d="M580 1151q0 -201 -203 -359q0 83 -1 93q-4 40 -28 56q13 6 41 26q52 51 52 95q-82 22 -82 112q0 46 31 78.5t77 32.5q54 0 85 -41q28 -37 28 -93zM310 1151q0 -201 -203 -359q0 83 -1 93q-4 40 -28 56q13 6 41 26q52 51 52 95q-82 22 -82 112q0 46 31 78.5t77 32.5
q54 0 85 -41q28 -37 28 -93z" />
    <glyph glyph-name="guilsinglleft" unicode="&#x2039;" horiz-adv-x="512" 
d="M457 966l-228 -382l222 -380v-75l-383 455l389 457v-75z" />
    <glyph glyph-name="guilsinglright" unicode="&#x203a;" horiz-adv-x="512" 
d="M457 586l-393 -457v75l231 382l-222 381v77z" />
    <glyph glyph-name="uE820" unicode="&#xe820;" 
d="M502 1013l-384 -120q-6 -2 -15 -2q-44 0 -44 47q0 36 41 49l371 118q10 3 21 3q51 0 51 -48q0 -34 -41 -47z" />
    <glyph glyph-name="uE821" unicode="&#xe821;" 
d="M553 1280q0 -106 -101 -183q36 -25 36 -53q0 -34 -40 -34q-31 0 -67 28q-220 -116 -308 -116q-52 0 -52 43q0 34 41 45q148 39 240 97q-44 46 -44 103q0 70 51.5 126.5t120.5 56.5q49 0 86 -32t37 -81zM465 1246q0 57 -55 57q-27 0 -49 -26.5t-22 -53.5q0 -45 47 -70
q27 8 53 37t26 56z" />
    <glyph glyph-name="uE822" unicode="&#xe822;" 
d="M465 1029q0 -76 -52 -130t-128 -54q-72 0 -114 45t-42 117q0 94 59 150q48 45 105 45q77 0 124.5 -48t47.5 -125zM389 1011q0 41 -34 68q-32 24 -73 24q-31 0 -53 -27t-22 -58q0 -73 92 -73q32 0 59 17q31 20 31 49z" />
    <glyph glyph-name="uE823" unicode="&#xe823;" 
d="M487 1172l-385 -120q-7 -2 -15 -2q-44 0 -44 47q0 36 42 49l371 118q9 3 21 3q50 0 50 -48q0 -34 -40 -47zM496 970l-384 -120q-7 -2 -15 -2q-44 0 -44 47q0 36 41 49l371 118q9 3 21 3q51 0 51 -48q0 -34 -41 -47z" />
    <glyph glyph-name="uE824" unicode="&#xe824;" 
d="M537 1196q0 -106 -101 -183q36 -25 36 -53q0 -34 -40 -34q-31 0 -67 28q-220 -116 -308 -116q-52 0 -52 43q0 34 41 45q68 18 68 79q0 28 -39 28q-28 0 -53 -15q-15 -9 -26 -9q-24 0 -24 25q0 20 19 39q41 41 103 41q92 0 92 -84q0 -30 -17 -66q58 22 117 59
q-44 46 -44 103q0 69 51.5 126t120.5 57q49 0 86 -32.5t37 -80.5zM449 1162q0 57 -55 57q-27 0 -49 -26.5t-22 -53.5q0 -45 47 -70q27 8 53 37t26 56z" />
    <glyph glyph-name="uE825" unicode="&#xe825;" 
d="M510 1143q7 -35 7 -66q0 -77 -31 -130q-39 -63 -112 -63q-70 0 -94 68q-38 -105 -139 -105q-96 0 -96 126q0 56 23 104q13 27 35 27q33 0 27 -46q-10 -88 40 -88q73 0 91 129q6 43 36 43q28 0 29 -40q4 -100 63 -100q68 0 50 127q-1 8 -1 15q0 45 32 45q31 0 40 -46z" />
    <glyph glyph-name="uE826" unicode="&#xe826;" 
d="M403 -455l-384 -120q-6 -2 -15 -2q-44 0 -44 47q0 35 41 49l371 118q10 3 21 3q51 0 51 -48q0 -35 -41 -47z" />
    <glyph glyph-name="uE827" unicode="&#xe827;" 
d="M380 -460l-385 -120q-7 -2 -15 -2q-44 0 -44 47q0 36 42 49l371 118q9 3 21 3q50 0 50 -48q0 -34 -40 -47zM389 -653l-384 -119q-7 -2 -15 -2q-44 0 -44 46q0 36 41 49l372 119q9 3 20 3q51 0 51 -48q0 -35 -41 -48z" />
    <glyph glyph-name="uE828" unicode="&#xe828;" 
d="M518 1149q7 -35 7 -66q0 -77 -32 -130q-38 -63 -111 -63q-70 0 -94 68q-38 -105 -139 -105q-96 0 -96 126q0 56 23 104q12 27 35 27q32 0 27 -46q-11 -88 40 -88q73 0 91 129q6 43 36 43q27 0 29 -40q3 -100 63 -100q67 0 50 127q-1 8 -1 15q0 45 32 45q31 0 40 -46z
M508 1332l-384 -120q-6 -2 -15 -2q-44 0 -44 47q0 36 41 49l371 118q9 3 21 3q51 0 51 -48q0 -34 -41 -47z" />
    <glyph glyph-name="uE829" unicode="&#xe829;" 
d="M518 1149q7 -35 7 -66q0 -77 -32 -130q-38 -63 -111 -63q-70 0 -94 68q-38 -105 -139 -105q-96 0 -96 126q0 56 23 104q12 27 35 27q32 0 27 -46q-11 -88 40 -88q73 0 91 129q6 43 36 43q27 0 29 -40q3 -100 63 -100q67 0 50 127q-1 8 -1 15q0 45 32 45q31 0 40 -46z
M533 1568q0 -106 -101 -183q36 -25 36 -53q0 -34 -40 -34q-31 0 -67 28q-220 -116 -308 -116q-52 0 -52 43q0 34 41 45q148 39 240 97q-44 46 -44 103q0 69 51.5 126t120.5 57q49 0 86 -32.5t37 -80.5zM445 1534q0 57 -55 57q-27 0 -49 -26.5t-22 -53.5q0 -45 47 -70
q27 8 53 37t26 56z" />
    <glyph glyph-name="uE82A" unicode="&#xe82a;" 
d="M518 1139q7 -35 7 -66q0 -77 -32 -130q-38 -63 -111 -63q-70 0 -94 68q-38 -105 -139 -105q-96 0 -96 126q0 56 23 104q12 27 35 27q32 0 27 -46q-11 -88 40 -88q73 0 91 129q6 43 36 43q27 0 29 -40q3 -100 63 -100q67 0 50 127q-1 8 -1 15q0 45 32 45q31 0 40 -46z
M491 1529l-385 -120q-6 -2 -15 -2q-44 0 -44 47q0 36 42 49l371 118q10 3 21 3q50 0 50 -48q0 -34 -40 -47zM500 1327l-384 -120q-6 -2 -15 -2q-44 0 -44 47q0 36 41 49l371 118q10 3 21 3q51 0 51 -48q0 -34 -41 -47z" />
    </font>
</defs>
</svg>
