<?xml version="1.0" standalone="no"?>
<!DOCTYPE svg PUBLIC "-//W3C//DTD SVG 1.1//EN" "http://www.w3.org/Graphics/SVG/1.1/DTD/svg11.dtd" >
<svg xmlns="http://www.w3.org/2000/svg" xmlns:xlink="http://www.w3.org/1999/xlink" version="1.1">
<metadata>
Created by FontForge 20150824 at Sun Jan 24 22:08:19 2016
 By Everything Fonts
(c) by Abolfazl Seilsepour - +98 912 591 3420  -  seilsepor@yahoo.com
</metadata>
<defs>
<font id="khodkar" horiz-adv-x="0" >
  <font-face 
    font-family="khodkar"
    font-weight="400"
    font-stretch="normal"
    units-per-em="2048"
    panose-1="0 0 7 0 0 0 0 0 0 0"
    ascent="1638"
    descent="-410"
    bbox="-1362 -1378.02 2324 2531"
    underline-thickness="100"
    underline-position="-780"
    unicode-range="U+0020-FEFC"
  />
<missing-glyph horiz-adv-x="1700" 
d="M106 0v1700h1488v-1700h-1488zM1488 106v1488h-1276v-1488h1276z" />
    <glyph glyph-name="uE818" unicode="&#x651;&#x64b;" 
d="M293 2135l-250 -106q-12 -2 -12 25q0 24 14 30l251 106q10 0 10 -22q0 -27 -13 -33zM293 1975l-249 -106q-13 0 -13 26q0 24 14 30l251 106q11 0 11 -23q0 -27 -14 -33zM186 1717q-42 -86 -89 -86q-70 0 -70 93q0 85 33 85q9 0 9 -14l-1 -17l-2 -20q0 -30 28 -30
q48 0 67 100q6 33 12 33q15 0 18 -29q0 -44 40 -44q31 0 41 80q5 48 18 48q29 0 29 -109q0 -49 -27.5 -86.5t-60.5 -37.5q-26 0 -45 34z" />
    <glyph glyph-name="uFC5E" unicode="&#x651;&#x64c;" arabic-form="isolated" 
d="M351 2058q32 -14 39 -21.5t7 -25.5l-4 -49q-37 0 -100 32q-48 -72 -111 -114q-30 -20 -54 -30t-43 -10t-31 8v12l31 19q25 45 25 98q0 37 -23 37q-9 0 -35 -23q-12 -11 -20 -14q-9 0 -9 7q0 18 36 54t66 36q44 0 44 -51q0 -46 -42 -124q78 38 135 111q-60 35 -60 93
q0 50 47.5 107t82.5 57q24 0 40 -28l12 -30l4 -34q0 -55 -37 -117zM317 2074q19 35 19 64q0 58 -43 58q-36 0 -36 -47q0 -51 60 -75zM251 1701q-44 -86 -89 -86q-70 0 -70 93q0 85 33 85q9 0 9 -14l-1 -17l-2 -20q0 -30 28 -30q45 0 67 100q6 33 11 33q15 0 19 -29
q0 -44 39 -44q33 0 42 80q5 48 18 48q28 0 28 -109q0 -49 -27.5 -86.5t-59.5 -37.5q-26 0 -45 34z" />
    <glyph glyph-name="uFC5F" unicode="&#x651;&#x64d;" arabic-form="isolated" 
d="M451 2531q0 -299 -136 -299q-44 0 -71 31q-44 -102 -124 -102q-105 0 -105 142q0 53 15 118l97 15q-22 -66 -22 -106q0 -41 25 -41q48 0 65 174l100 31q-3 -36 -3 -63q0 -70 23 -70q33 0 41 40q1 6 6 103zM446 2202l-2 -110l-399 -201v110zM444 1911l-400 -200v110
l400 201v-111z" />
    <glyph glyph-name="uFC60" unicode="&#x651;&#x64e;" arabic-form="isolated" 
d="M284 1920l-250 -106q-12 -2 -12 25q0 24 14 30l251 106q10 0 10 -22q0 -27 -13 -33zM177 1661q-42 -86 -89 -86q-70 0 -70 93q0 85 33 85q9 0 9 -14l-1 -17l-2 -20q0 -30 28 -30q45 0 67 100q6 33 12 33q15 0 18 -29q0 -44 39 -44q33 0 42 80q5 48 18 48q28 0 28 -109
q0 -49 -26.5 -86.5t-60.5 -37.5q-26 0 -45 34z" />
    <glyph glyph-name="uFC61" unicode="&#x651;&#x64f;" arabic-form="isolated" 
d="M299 2062q37 -15 43.5 -22.5t6.5 -28.5v-50q-23 0 -71 22l-34 15q-115 -148 -198 -148q-18 0 -31 7v13q141 60 197 143q-63 38 -63 89q0 41 45.5 105.5t83.5 64.5q19 0 38.5 -30t19.5 -65q0 -45 -37 -115zM268 2077q18 30 18 63q0 61 -41 61q-39 0 -39 -50q0 -56 62 -74z
M206 1704q-44 -86 -90 -86q-69 0 -69 93q0 85 32 85q9 0 10 -14l-1 -17l-2 -20q0 -30 28 -30q47 0 66 100q6 33 12 33q15 0 19 -37q0 -36 39 -36q33 0 42 80q5 48 17 48q29 0 29 -109q0 -49 -26.5 -86.5t-60.5 -37.5q-27 0 -45 34z" />
    <glyph glyph-name="uFC62" unicode="&#x651;&#x650;" arabic-form="isolated" 
d="M458 2407q0 -299 -136 -299q-44 0 -71 31q-44 -102 -124 -102q-105 0 -105 142q0 53 15 118l97 15q-22 -66 -22 -106q0 -41 25 -41q48 0 65 174l100 31q-3 -36 -3 -63q0 -70 23 -70q33 0 41 40q1 6 6 103zM453 2078l-2 -110l-399 -201v110z" />
    <glyph glyph-name="uFDF2" unicode="&#xfedf;&#xfee0;&#xfeea;" horiz-adv-x="656" arabic-form="isolated" 
d="M156 828q-4 18 -4 36q0 67 48 67q35 0 56.5 -27t28.5 -77l6 -24t6 -25l9 -39q9 -43 13.5 -88.5t6.5 -93.5q4 -65 -7 -148q-6 -38 -15 -73t-20 -50q-17 -27 -33 -41.5t-29 -14.5q-11 0 -17.5 8.5t-5.5 25.5q11 62 11 130q0 67 -14 175t-40 259zM87 245q11 26 30 26
q7 0 43 -29q6 -6 13 -10t16 -6q36 -15 66 -15q96 0 168 120q58 94 65 184q2 24 4 50.5t2 57.5v28t-1 32q-1 35 -2 68.5t-3 65.5q-2 94 74 94q35 0 58 -29q30 -43 30 -100v-17t-2 -16q-3 -101 -5.5 -157.5t-3.5 -65.5q-9 -66 -30 -136t-57 -137q-21 -36 -54.5 -70.5
t-76.5 -69.5q-51 -40 -98 -59.5t-88 -19.5q-102 0 -144 121q-10 23 -10 50q0 23 6 40zM-391 72q-68 61 -68 143q0 72 33 138.5t103 133.5q-18 19 -29.5 39.5t-11.5 40.5q0 18 8.5 34.5t24.5 34.5q22 21 48 21q19 0 28 -15t9 -37q8 -17 96 -67q58 -39 100.5 -71.5t70.5 -60.5
q93 -92 97 -191q2 -72 -104 -139q-105 -64 -227 -64q-105 0 -178 60z" />
    <glyph glyph-name="uFEF5" unicode="&#xfedf;&#xfe82;" horiz-adv-x="656" arabic-form="isolated" 
d="M156 828q-4 18 -4 36q0 67 48 67q35 0 56.5 -27t28.5 -77l6 -24t6 -25l9 -39q9 -43 13.5 -88.5t6.5 -93.5q4 -65 -7 -148q-6 -38 -15 -73t-20 -50q-17 -27 -33 -41.5t-29 -14.5q-11 0 -17.5 8.5t-5.5 25.5q11 62 11 130q0 67 -14 175t-40 259zM87 245q11 26 30 26
q7 0 43 -29q6 -6 13 -10t16 -6q36 -15 66 -15q96 0 168 120q58 94 65 184q2 24 4 50.5t2 57.5v28t-1 32q-1 35 -2 68.5t-3 65.5q-2 94 74 94q35 0 58 -29q30 -43 30 -100v-17t-2 -16q-3 -101 -5.5 -157.5t-3.5 -65.5q-9 -66 -30 -136t-57 -137q-21 -36 -54.5 -70.5
t-76.5 -69.5q-51 -40 -98 -59.5t-88 -19.5q-102 0 -144 121q-10 23 -10 50q0 23 6 40z" />
    <glyph glyph-name="uFEF6" unicode="&#xfee0;&#xfe82;" horiz-adv-x="803" arabic-form="final" 
d="M121 258q12 0 66 -37q26 -16 59 -25t69 -6q-5 111 -20.5 204t-41.5 165q-24 60 -45 119t-43 120q-6 19 -8.5 35.5t-2.5 30.5q0 72 51 72q22 0 40.5 -16t33.5 -45q61 -124 95 -254.5t34 -254.5q0 -38 -2.5 -77t-8.5 -75q0 -5 -1 -6q24 0 64 78h-1q48 103 48 238
q0 39 -4.5 82t-11.5 88q-19 92 -19 152q0 26 3 44q15 51 58 51q25 0 44.5 -14t29.5 -34q20 -53 33 -120t13 -139q0 -14 -0.5 -31t-1.5 -33q-3 -50 -4.5 -91t-1.5 -76q0 -89 9 -133q18 -78 161 -85v-185h-37q-69 0 -121 38q-53 41 -71 99l-15 50q-2 -2 -27 -53
q-13 -31 -35.5 -55.5t-51.5 -44.5q-30 -18 -70 -30t-90 -15q-100 -3 -161 72q-24 29 -37.5 64.5t-13.5 70.5q0 62 36 62z" />
    <glyph glyph-name="uFEF7" unicode="&#xfedf;&#xfe84;" horiz-adv-x="656" arabic-form="isolated" 
d="M156 828q-4 18 -4 36q0 67 48 67q35 0 56.5 -27t28.5 -77l6 -24t6 -25l9 -39q9 -43 13.5 -88.5t6.5 -93.5q4 -65 -7 -148q-6 -38 -15 -73t-20 -50q-17 -27 -33 -41.5t-29 -14.5q-11 0 -17.5 8.5t-5.5 25.5q11 62 11 130q0 67 -14 175t-40 259zM87 245q11 26 30 26
q7 0 43 -29q6 -6 13 -10t16 -6q36 -15 66 -15q96 0 168 120q58 94 65 184q2 24 4 50.5t2 57.5v28t-1 32q-1 35 -2 68.5t-3 65.5q-2 94 74 94q35 0 58 -29q30 -43 30 -100v-17t-2 -16q-3 -101 -5.5 -157.5t-3.5 -65.5q-9 -66 -30 -136t-57 -137q-21 -36 -54.5 -70.5
t-76.5 -69.5q-51 -40 -98 -59.5t-88 -19.5q-102 0 -144 121q-10 23 -10 50q0 23 6 40z" />
    <glyph glyph-name="uFEF8" unicode="&#xfee0;&#xfe84;" horiz-adv-x="803" arabic-form="final" 
d="M121 258q12 0 66 -37q26 -16 59 -25t69 -6q-5 111 -20.5 204t-41.5 165q-24 60 -45 119t-43 120q-6 19 -8.5 35.5t-2.5 30.5q0 72 51 72q22 0 40.5 -16t33.5 -45q61 -124 95 -254.5t34 -254.5q0 -38 -2.5 -77t-8.5 -75q0 -5 -1 -6q24 0 64 78h-1q48 103 48 238
q0 39 -4.5 82t-11.5 88q-19 92 -19 152q0 26 3 44q15 51 58 51q25 0 44.5 -14t29.5 -34q20 -53 33 -120t13 -139q0 -14 -0.5 -31t-1.5 -33q-3 -50 -4.5 -91t-1.5 -76q0 -89 9 -133q18 -78 161 -85v-185h-37q-69 0 -121 38q-53 41 -71 99l-15 50q-2 -2 -27 -53
q-13 -31 -35.5 -55.5t-51.5 -44.5q-30 -18 -70 -30t-90 -15q-100 -3 -161 72q-24 29 -37.5 64.5t-13.5 70.5q0 62 36 62z" />
    <glyph glyph-name="uFEF9" unicode="&#xfedf;&#xfe88;" horiz-adv-x="656" arabic-form="isolated" 
d="M156 828q-4 18 -4 36q0 67 48 67q35 0 56.5 -27t28.5 -77l6 -24t6 -25l9 -39q9 -43 13.5 -88.5t6.5 -93.5q4 -65 -7 -148q-6 -38 -15 -73t-20 -50q-17 -27 -33 -41.5t-29 -14.5q-11 0 -17.5 8.5t-5.5 25.5q11 62 11 130q0 67 -14 175t-40 259zM87 245q11 26 30 26
q7 0 43 -29q6 -6 13 -10t16 -6q36 -15 66 -15q96 0 168 120q58 94 65 184q2 24 4 50.5t2 57.5v28t-1 32q-1 35 -2 68.5t-3 65.5q-2 94 74 94q35 0 58 -29q30 -43 30 -100v-17t-2 -16q-3 -101 -5.5 -157.5t-3.5 -65.5q-9 -66 -30 -136t-57 -137q-21 -36 -54.5 -70.5
t-76.5 -69.5q-51 -40 -98 -59.5t-88 -19.5q-102 0 -144 121q-10 23 -10 50q0 23 6 40z" />
    <glyph glyph-name="uFEFA" unicode="&#xfee0;&#xfe88;" horiz-adv-x="803" arabic-form="final" 
d="M121 258q12 0 66 -37q26 -16 59 -25t69 -6q-5 111 -20.5 204t-41.5 165q-24 60 -45 119t-43 120q-6 19 -8.5 35.5t-2.5 30.5q0 72 51 72q22 0 40.5 -16t33.5 -45q61 -124 95 -254.5t34 -254.5q0 -38 -2.5 -77t-8.5 -75q0 -5 -1 -6q24 0 64 78h-1q48 103 48 238
q0 39 -4.5 82t-11.5 88q-19 92 -19 152q0 26 3 44q15 51 58 51q25 0 44.5 -14t29.5 -34q20 -53 33 -120t13 -139q0 -14 -0.5 -31t-1.5 -33q-3 -50 -4.5 -91t-1.5 -76q0 -89 9 -133q18 -78 161 -85v-185h-37q-69 0 -121 38q-53 41 -71 99l-15 50q-2 -2 -27 -53
q-13 -31 -35.5 -55.5t-51.5 -44.5q-30 -18 -70 -30t-90 -15q-100 -3 -161 72q-24 29 -37.5 64.5t-13.5 70.5q0 62 36 62z" />
    <glyph glyph-name="uFEFB" unicode="&#xfedf;&#xfe8e;" horiz-adv-x="656" arabic-form="isolated" 
d="M156 828q-4 18 -4 36q0 67 48 67q35 0 56.5 -27t28.5 -77l6 -24t6 -25l9 -39q9 -43 13.5 -88.5t6.5 -93.5q4 -65 -7 -148q-6 -38 -15 -73t-20 -50q-17 -27 -33 -41.5t-29 -14.5q-11 0 -17.5 8.5t-5.5 25.5q11 62 11 130q0 67 -14 175t-40 259zM87 245q11 26 30 26
q7 0 43 -29q6 -6 13 -10t16 -6q36 -15 66 -15q96 0 168 120q58 94 65 184q2 24 4 50.5t2 57.5v28t-1 32q-1 35 -2 68.5t-3 65.5q-2 94 74 94q35 0 58 -29q30 -43 30 -100v-17t-2 -16q-3 -101 -5.5 -157.5t-3.5 -65.5q-9 -66 -30 -136t-57 -137q-21 -36 -54.5 -70.5
t-76.5 -69.5q-51 -40 -98 -59.5t-88 -19.5q-102 0 -144 121q-10 23 -10 50q0 23 6 40z" />
    <glyph glyph-name="uFEFC" unicode="&#xfee0;&#xfe8e;" horiz-adv-x="803" arabic-form="final" 
d="M121 258q12 0 66 -37q26 -16 59 -25t69 -6q-5 111 -20.5 204t-41.5 165q-24 60 -45 119t-43 120q-6 19 -8.5 35.5t-2.5 30.5q0 72 51 72q22 0 40.5 -16t33.5 -45q61 -124 95 -254.5t34 -254.5q0 -38 -2.5 -77t-8.5 -75q0 -5 -1 -6q24 0 64 78h-1q48 103 48 238
q0 39 -4.5 82t-11.5 88q-19 92 -19 152q0 26 3 44q15 51 58 51q25 0 44.5 -14t29.5 -34q20 -53 33 -120t13 -139q0 -14 -0.5 -31t-1.5 -33q-3 -50 -4.5 -91t-1.5 -76q0 -89 9 -133q18 -78 161 -85v-185h-37q-69 0 -121 38q-53 41 -71 99l-15 50q-2 -2 -27 -53
q-13 -31 -35.5 -55.5t-51.5 -44.5q-30 -18 -70 -30t-90 -15q-100 -3 -161 72q-24 29 -37.5 64.5t-13.5 70.5q0 62 36 62z" />
    <glyph glyph-name="u0622" unicode="&#x622;" horiz-adv-x="1106" arabic-form="isolated" 
d="M63 805q100 150 172.5 241.5t118.5 125.5q85 63 260 60q24 -1 60 -5.5t82 -14.5q42 -8 87 -12.5t91 -1.5q96 2 184 60q24 14 46 31.5t44 38.5q25 22 62 22q62 0 62 -47q0 -13 -7 -30.5t-21 -38.5q-58 -69 -149 -111t-216 -61q-11 -1 -21 -1h-22q-22 0 -52.5 4t-72.5 10
q-53 11 -95.5 17t-74.5 10h-29q-46 0 -88.5 -16.5t-80.5 -45.5q-30 -24 -62.5 -61t-63.5 -84q-27 -42 -53 -82.5t-53 -81.5q-24 -34 -74 -34q-57 0 -57 46q0 29 23 62zM163 181q0 13 24 54t65 102q38 61 80.5 138t77.5 160q58 149 100 232t64 93v-1q32 20 62 20q55 0 87 -74
q27 -69 30 -181v-36q0 -183 -32 -280v1q-31 -115 -147 -237q-57 -62 -105 -98t-88 -45l1 1q-21 -13 -42.5 -18.5t-42.5 -5.5q-71 0 -71 79v24q12 97 129 97q17 0 27.5 -1t20.5 -5q0 -1 37 28q20 17 43.5 40.5t47.5 51.5q88 114 88 336v25t-1 26q-2 83 -28 83h-6.5t-7.5 -2
q-27 17 -171 -325q-53 -120 -98 -193t-79 -98q-22 -24 -41 -24q-24 0 -24 33z" />
    <glyph glyph-name="u0623" unicode="&#x623;" horiz-adv-x="475" arabic-form="isolated" 
d="M179 150q38 18 96 94q27 36 52.5 91.5t45.5 128.5q12 48 18.5 93t6.5 80q0 10 -0.5 20.5t-1.5 22.5q-6 48 -14 74.5t-14 31.5q-9 -5 -44 -110q-28 -74 -42.5 -123t-18.5 -73q-3 -14 -3.5 -31.5t-0.5 -32.5q0 -67 18 -140q-10 -44 -29 -40q-35 -3 -75 21q-45 35 -42 81
q0 29 12.5 84.5t39.5 136.5v-1q32 104 50 165.5t25 82.5q1 3 1 5.5t1 3.5h-1q5 11 5 33q0 11 -1.5 23.5t-3.5 29.5q-4 58 8 78q14 21 28 34t31 15q76 16 148 -224v1q6 -13 9.5 -26t5.5 -27q14 -49 18.5 -95t4.5 -94q0 -169 -73 -329q-31 -61 -66 -108t-70 -78
q-26 -20 -48 -26q-93 -8 -108 52q-13 57 32 77v-1z" />
    <glyph glyph-name="u0624" unicode="&#x624;" horiz-adv-x="654" arabic-form="isolated" 
d="M-32 -372q15 16 98 46q52 18 109 46t106.5 63t85.5 74.5t43 80.5q-14 0 -31.5 6t-31.5 15q-46 36 -46 97q0 24 7 48q24 102 70.5 161t107.5 70q78 12 117.5 -35.5t39.5 -149.5q0 -47 -9 -92t-29 -87q-131 -275 -443 -378q-42 -12 -75 -18.5t-59 -6.5q-70 0 -70 38
q0 15 11 22h-1z" />
    <glyph glyph-name="u0625" unicode="&#x625;" horiz-adv-x="475" arabic-form="isolated" 
d="M179 150q38 18 96 94q27 36 52.5 91.5t45.5 128.5q12 48 18.5 93t6.5 80q0 10 -0.5 20.5t-1.5 22.5q-6 48 -14 74.5t-14 31.5q-9 -5 -44 -110q-28 -74 -42.5 -123t-18.5 -73q-3 -14 -3.5 -31.5t-0.5 -32.5q0 -67 18 -140q-10 -44 -29 -40q-35 -3 -75 21q-45 35 -42 81
q0 29 12.5 84.5t39.5 136.5v-1q32 104 50 165.5t25 82.5q1 3 1 5.5t1 3.5h-1q5 11 5 33q0 11 -1.5 23.5t-3.5 29.5q-4 58 8 78q14 21 28 34t31 15q76 16 148 -224v1q6 -13 9.5 -26t5.5 -27q14 -49 18.5 -95t4.5 -94q0 -169 -73 -329q-31 -61 -66 -108t-70 -78
q-26 -20 -48 -26q-93 -8 -108 52q-13 57 32 77v-1z" />
    <glyph glyph-name="u0626" unicode="&#x626;" horiz-adv-x="1115" arabic-form="isolated" 
d="M-516 -193q-19 20 -23 56q-3 34 46 34q22 0 42 -5q38 -7 82 -7q27 0 56.5 3t59.5 9q86 20 173 50.5t171 69t161.5 86t143.5 102.5q142 117 233.5 201t137.5 138q47 52 77 91q17 20 32 37t25 30q94 80 152 80q66 0 66 -64q0 -11 -4 -22q-10 -53 -35 -65q-35 -18 -64 -39.5
t-49 -41.5q-153 -156 -361 -351q-103 -97 -210.5 -179t-220.5 -148q-111 -65 -218 -100.5t-206 -41.5q-9 -1 -19.5 -1h-19.5q-168 0 -228 78z" />
    <glyph glyph-name="u0627" unicode="&#x627;" horiz-adv-x="475" arabic-form="isolated" 
d="M179 150q38 18 96 94q27 36 52.5 91.5t45.5 128.5q12 48 18.5 93t6.5 80q0 10 -0.5 20.5t-1.5 22.5q-6 48 -14 74.5t-14 31.5q-9 -5 -44 -110q-28 -74 -42.5 -123t-18.5 -73q-3 -14 -3.5 -31.5t-0.5 -32.5q0 -67 18 -140q-10 -44 -29 -40q-35 -3 -75 21q-45 35 -42 81
q0 29 12.5 84.5t39.5 136.5v-1q32 104 50 165.5t25 82.5q1 3 1 5.5t1 3.5h-1q5 11 5 33q0 11 -1.5 23.5t-3.5 29.5q-4 58 8 78q14 21 28 34t31 15q76 16 148 -224v1q6 -13 9.5 -26t5.5 -27q14 -49 18.5 -95t4.5 -94q0 -169 -73 -329q-31 -61 -66 -108t-70 -78
q-26 -20 -48 -26q-93 -8 -108 52q-13 57 32 77v-1z" />
    <glyph glyph-name="u0628" unicode="&#x628;" horiz-adv-x="2315" arabic-form="isolated" 
d="M935 -413q32 36 61 36q28 0 49 -32q17 -31 14 -58q-10 -50 -34 -81.5t-60 -31.5q-70 0 -70 76q0 44 40 91zM66 157q-8 61 48 61q25 0 48 -14q162 -112 523 -169q52 -9 104 -13t106 -4q114 0 233 20.5t240 58.5q142 47 329 156t414 279q35 27 58.5 41.5t35.5 19.5
q9 2 18 3.5t16 1.5q74 0 74 -74q0 -43 -65 -91q-210 -140 -332.5 -223t-160.5 -110q-394 -230 -759 -262q-31 -2 -63 -4t-63 -2q-258 0 -493 82q-94 34 -161.5 72.5t-106.5 80.5q-18 21 -29 43t-14 47z" />
    <glyph glyph-name="u0629" unicode="&#x629;" horiz-adv-x="746" arabic-form="isolated" 
d="M320 226q0 -70 98 -70q54 0 90 20q40 20 40 54q0 66 -156 144q-26 -21 -49 -64q-13 -24 -18 -44.5t-5 -39.5zM234 56q-63 56 -63 130q0 65 30.5 125.5t95.5 121.5q-17 17 -27.5 35.5t-10.5 36.5q0 17 7.5 32t22.5 31q21 19 45 19q17 0 25.5 -13.5t8.5 -33.5q7 -16 89 -61
q54 -35 93.5 -64.5t65.5 -55.5q86 -83 90 -173q2 -65 -96 -126q-98 -58 -211 -58q-98 0 -165 54z" />
    <glyph glyph-name="u062A" unicode="&#x62a;" horiz-adv-x="2303" arabic-form="isolated" 
d="M771 725q75 29 147 51.5t137 41.5q242 69 397.5 101.5t227.5 32.5q90 0 90 -46q0 -29 -80 -52q-31 -9 -62.5 -15.5t-58.5 -10.5q-195 -58 -347.5 -107t-249.5 -87l-156 -65t-133 -58l-36 -15q-10 -3 -17.5 -4t-18.5 -1q-54 0 -72 54q-4 14 -4 31q0 49 54 82zM60 157
q-5 61 48 61q28 0 51 -14q80 -56 211 -98t311 -71q52 -9 104.5 -13t105.5 -4q112 0 231.5 20.5t239.5 58.5q144 47 331.5 156t413.5 279q35 27 58 41.5t36 19.5q10 2 18 3.5t17 1.5q73 0 73 -74q0 -43 -65 -91q-210 -140 -333 -223t-161 -110q-198 -117 -386.5 -181
t-370.5 -81q-33 -2 -64.5 -4t-63.5 -2q-256 0 -492 82q-189 69 -270 153q-16 21 -28 43t-15 47z" />
    <glyph glyph-name="u062B" unicode="&#x62b;" horiz-adv-x="2282" arabic-form="isolated" 
d="M852 911q6 39 24.5 72t47.5 59q28 22 63.5 36t72.5 14q69 2 119.5 -18t81.5 -65q63 -80 61 -167q0 -109 -88 -195q-43 -41 -89.5 -70t-98.5 -44q-102 -29 -143 -23q-31 11 -31 32q0 20 42 46q152 59 214 122q61 65 61 120q0 56 -40 95q-17 17 -39 26.5t-41 10.5
q-54 -6 -82.5 -30.5t-28.5 -67.5q0 -48 33 -80q31 -35 31 -68q0 -63 -70 -63q-13 0 -24.5 5.5t-21.5 13.5q-60 50 -60 181q0 16 1.5 29.5t4.5 28.5zM28 157q-8 61 48 61q24 0 51 -14q79 -54 213 -97t308 -72q50 -9 103.5 -13t106.5 -4q112 0 231 20.5t241 58.5
q142 47 329 155.5t414 279.5q35 26 59 41t35 20q9 2 18 3.5t18 1.5q72 0 72 -74q0 -43 -65 -91q-415 -277 -493 -333q-394 -230 -759 -262l-62 -4t-62 -2q-260 0 -494 82q-93 34 -161 72.5t-107 80.5t-44 90z" />
    <glyph glyph-name="u062C" unicode="&#x62c;" horiz-adv-x="872" arabic-form="isolated" 
d="M537 -528q-31 20 -31 49q0 28 30 71q1 4 4 10t6 8q4 6 9 13t10 13q3 24 37 24q72 0 72 -55q0 -12 -7 -26q-46 -114 -97 -114q-17 0 -33 6v1zM693 562q7 19 7 43q0 80 -78 80q-12 0 -24 -4t-25 -15q-15 -10 -23.5 -17t-12.5 -11q-50 -49 -50 -133q0 -83 55 -200
q62 72 100.5 135.5t50.5 121.5zM171 -157q33 50 71 102.5t79 101.5q42 50 77.5 91.5t64.5 76.5q-103 144 -103 319q0 132 60 230q60 100 170 131q42 11 82 11q103 0 151 -68q49 -68 49 -156q0 -72 -24 -134q-29 -60 -60 -112.5t-65 -101.5q-27 -35 -52.5 -71t-52.5 -72
q34 -39 57 -63.5t36 -37.5q17 -30 17 -56q0 -44 -44 -44q-17 0 -30 10q-47 42 -75.5 70t-38.5 43q-74 -82 -138 -168.5t-122 -176.5q-115 -187 -115 -325q0 -140 81 -234q45 -50 114 -76t163 -26q189 0 349 93h-1q87 55 132 55q24 0 33 -17q28 -49 -46 -113
q-113 -77 -226.5 -121t-232.5 -54q-17 -1 -32 -1.5t-30 -0.5q-195 0 -323 97q-72 57 -110.5 137.5t-38.5 185.5q0 106 44 224t130 251z" />
    <glyph glyph-name="u062D" unicode="&#x62d;" horiz-adv-x="872" arabic-form="isolated" 
d="M693 562q7 19 7 43q0 80 -78 80q-12 0 -24 -4t-25 -15q-15 -10 -23.5 -17t-12.5 -11q-50 -49 -50 -133q0 -83 55 -200q62 72 100.5 135.5t50.5 121.5zM171 -157q33 50 71 102.5t79 101.5q42 50 77.5 91.5t64.5 76.5q-103 144 -103 319q0 132 60 230q60 100 170 131
q42 11 82 11q103 0 151 -68q49 -68 49 -156q0 -72 -24 -134q-29 -60 -60 -112.5t-65 -101.5q-27 -35 -52.5 -71t-52.5 -72q34 -39 57 -63.5t36 -37.5q17 -30 17 -56q0 -44 -44 -44q-17 0 -30 10q-47 42 -75.5 70t-38.5 43q-74 -82 -138 -168.5t-122 -176.5
q-115 -187 -115 -325q0 -140 81 -234q45 -50 114 -76t163 -26q189 0 349 93h-1q87 55 132 55q24 0 33 -17q28 -49 -46 -113q-113 -77 -226.5 -121t-232.5 -54q-17 -1 -32 -1.5t-30 -0.5q-195 0 -323 97q-72 57 -110.5 137.5t-38.5 185.5q0 106 44 224t130 251z" />
    <glyph glyph-name="u062E" unicode="&#x62e;" horiz-adv-x="888" arabic-form="isolated" 
d="M689 1265q35 36 65 36q27 0 48 -33q8 -13 12 -29t2 -31q-17 -114 -97 -114q-73 0 -73 78q0 42 43 93zM709 562q7 19 7 43q0 80 -78 80q-12 0 -24 -4t-25 -15q-15 -10 -23.5 -17t-12.5 -11q-50 -49 -50 -133q0 -83 55 -200q62 72 100.5 135.5t50.5 121.5zM187 -157
q33 50 71 102.5t79 101.5q42 50 77.5 91.5t64.5 76.5q-103 144 -103 319q0 132 60 230q60 100 170 131q42 11 82 11q103 0 151 -68q49 -68 49 -156q0 -72 -24 -134q-29 -60 -60 -112.5t-65 -101.5q-27 -35 -52.5 -71t-52.5 -72q34 -39 57 -63.5t36 -37.5q17 -30 17 -56
q0 -44 -44 -44q-17 0 -30 10q-47 42 -75.5 70t-38.5 43q-74 -82 -138 -168.5t-122 -176.5q-115 -187 -115 -325q0 -140 81 -234q45 -50 114 -76t163 -26q189 0 349 93h-1q87 55 132 55q24 0 33 -17q28 -49 -46 -113q-113 -77 -226.5 -121t-232.5 -54q-17 -1 -32 -1.5
t-30 -0.5q-195 0 -323 97q-72 57 -110.5 137.5t-38.5 185.5q0 106 44 224t130 251z" />
    <glyph glyph-name="u062F" unicode="&#x62f;" horiz-adv-x="626" arabic-form="isolated" 
d="M12 -176q0 38 32 67q17 14 34.5 22.5t36.5 9.5q23 0 42 0.5t30 2.5q20 4 52 29t70 62q47 51 73 103t26 100q0 60 -41 110q-48 68 -48 116q0 68 67 68q43 0 74 -35q90 -109 90 -238q0 -66 -22.5 -129.5t-71.5 -125.5q-34 -42 -74 -80t-91 -73q-57 -37 -104 -57t-87 -21
q-88 0 -88 69z" />
    <glyph glyph-name="u0630" unicode="&#x630;" horiz-adv-x="616" arabic-form="isolated" 
d="M250 832q31 36 60 36q35 0 52 -35q8 -16 10.5 -31t-0.5 -28q-9 -50 -32 -81.5t-59 -31.5q-72 0 -72 79q0 23 9.5 45.5t31.5 46.5zM-2 -181q0 19 8.5 36.5t23 31t33.5 21.5t39 10q21 0 39 1t31 2q20 3 52.5 26.5t71.5 64.5q45 50 71 103t26 100q0 30 -10.5 58t-26.5 53
q-24 32 -38 62.5t-14 55.5q0 65 67 65q43 0 75 -35q42 -54 66.5 -114.5t24.5 -123.5q0 -64 -24.5 -129.5t-70.5 -125.5q-32 -41 -74 -80t-92 -73q-56 -38 -101.5 -57t-85.5 -21q-91 0 -91 69z" />
    <glyph glyph-name="u0631" unicode="&#x631;" horiz-adv-x="716" arabic-form="isolated" 
d="M-63 -336q41 18 96 57.5t123 98t146 134t166 165.5q57 62 98 95t65 33q69 1 84 -65q7 -31 -8.5 -59.5t-46.5 -49.5q-70 -48 -138.5 -105t-131.5 -120q-233 -225 -357 -264q-37 -11 -66.5 -16t-54.5 -5q-54 0 -54 28q0 33 79 73z" />
    <glyph glyph-name="u0632" unicode="&#x632;" horiz-adv-x="780" arabic-form="isolated" 
d="M545 636q32 37 61 37q34 0 52 -35h-2q10 -14 14 -29.5t2 -28.5q-10 -54 -32 -82.5t-60 -28.5q-75 0 -75 78q0 42 40 89zM0 -336q41 18 96 57.5t123 98t146 134t165 165.5q58 62 98 95t64 33q70 1 84 -65q8 -31 -8.5 -59.5t-46.5 -49.5q-69 -48 -137.5 -105.5
t-131.5 -119.5q-238 -227 -355 -264q-37 -11 -67.5 -16t-55.5 -5q-53 0 -53 28q0 33 79 73z" />
    <glyph glyph-name="u0633" unicode="&#x633;" horiz-adv-x="1030" arabic-form="isolated" 
d="M-1213 -558q-29 26 -26 60q0 34 37 34q17 -2 31.5 -3t24.5 -3q20 -4 38.5 -5t38.5 -1q65 0 140.5 13.5t165.5 41.5q117 37 273 132.5t354 254.5q394 312 420 368q10 0 14 -6q36 -17 73 -26t71 -9q40 0 98 11q51 13 103.5 38t98.5 59q58 50 121 129q27 33 45.5 49t25.5 19
q31 8 61 -10q15 -11 20 -23t4 -29q-13 -32 -23 -55.5t-22 -36.5q-40 -60 -93.5 -112t-118.5 -94q-148 -94 -308 -94q-37 0 -70 4t-67 14q-81 -78 -185 -164.5t-218 -176.5q-113 -89 -198 -151t-132 -94q-154 -104 -286.5 -159t-230.5 -55q-102 0 -171.5 21t-108.5 60v-1z
" />
    <glyph glyph-name="u0634" unicode="&#x634;" horiz-adv-x="1030" arabic-form="isolated" 
d="M-1213 -558q-29 26 -26 60q0 34 37 34q17 -2 31.5 -3t24.5 -3q20 -4 38.5 -5t38.5 -1q65 0 140.5 13.5t165.5 41.5q117 37 273 132.5t354 254.5q394 312 420 368q10 0 14 -6q36 -17 73 -26t71 -9q40 0 98 11q51 13 103.5 38t98.5 59q58 50 121 129q27 33 45.5 49t25.5 19
q31 8 61 -10q15 -11 20 -23t4 -29q-13 -32 -23 -55.5t-22 -36.5q-40 -60 -93.5 -112t-118.5 -94q-148 -94 -308 -94q-37 0 -70 4t-67 14q-81 -78 -185 -164.5t-218 -176.5q-113 -89 -198 -151t-132 -94q-154 -104 -286.5 -159t-230.5 -55q-102 0 -171.5 21t-108.5 60v-1z
M375 1169q6 42 24.5 74.5t47.5 56.5q60 50 138 50q138 6 200 -82q64 -80 61 -166q0 -111 -87 -195q-87 -83 -190 -115q-105 -28 -141 -20q-33 7 -33 30q0 18 42 44q154 62 215 124q62 62 62 121q0 53 -40 93q-17 18 -39.5 28t-42.5 11q-54 -7 -82 -32t-28 -70q0 -43 32 -78
q32 -36 32 -67q0 -63 -69 -63q-24 0 -48 18q-59 48 -59 181q0 33 5 57z" />
    <glyph glyph-name="u0635" unicode="&#x635;" horiz-adv-x="1138" arabic-form="isolated" 
d="M274 52q-13 -17 -68.5 -67.5t-153.5 -139.5t-202.5 -168.5t-219.5 -152.5q-113 -72 -236 -112t-247 -48q-9 -1 -20 -1h-21q-109 0 -190 31t-134 88q-42 50 -65 93t-23 78q0 24 10.5 45t37.5 21q19 0 46.5 -15.5t63.5 -50.5q79 -75 239 -75q36 0 76.5 3.5t86.5 11.5
q140 24 291 100.5t301 196.5q67 55 130.5 109.5t119.5 104.5t102 93t78 75q59 62 104.5 97t63.5 33q57 -1 93 -79h-1q10 -21 17.5 -36.5t9.5 -26.5q9 17 27.5 50.5t46 81t63 107t77.5 127.5q48 77 88.5 142t73 111.5t55 74.5t32.5 31h-1q29 16 57 -19q9 -13 15.5 -25
t9.5 -28q18 -56 14 -133q-1 -42 -12 -93.5t-31 -112.5v1q-22 -79 -79 -179t-148 -223q-92 -123 -166 -184t-127 -61q-9 0 -21.5 4t-26.5 14q-48 -96 -84 -146t-56 -50t-20 33q0 14 2 30.5t8 32.5q5 10 19 34.5l38 66.5v-1q31 56 27 77q3 63 -8 99q-7 34 -37 27
q-34 -7 -125 -97zM744 360q-37 -73 -56 -112.5t-22 -45.5q10 3 39 33t72 78q45 52 86.5 125t72.5 156q8 24 12.5 45.5t4.5 38.5v7q-14 0 -57 -73q-66 -108 -103 -170t-49 -82z" />
    <glyph glyph-name="u0636" unicode="&#x636;" horiz-adv-x="1138" arabic-form="isolated" 
d="M274 52q-13 -17 -68.5 -67.5t-153.5 -139.5t-202.5 -168.5t-219.5 -152.5q-113 -72 -236 -112t-247 -48q-9 -1 -20 -1h-21q-109 0 -190 31t-134 88q-42 50 -65 93t-23 78q0 19 6 34q13 32 42 32q19 0 46.5 -15.5t63.5 -50.5q79 -75 239 -75q36 0 76.5 3.5t86.5 11.5
q140 24 291 100.5t301 196.5q67 55 130.5 109.5t119.5 104.5t102 93t78 75q59 62 104.5 97t63.5 33q57 -1 93 -79h-1q10 -21 17.5 -36.5t9.5 -26.5q9 17 27.5 50.5t46 81t63 107t77.5 127.5q48 77 88.5 142t73 111.5t55 74.5t32.5 31h-1q29 16 57 -19q9 -13 15.5 -25
t9.5 -28q18 -56 14 -133q-1 -42 -12 -93.5t-31 -112.5v1q-22 -79 -79 -179t-148 -223q-92 -123 -166 -184t-127 -61q-19 0 -39 12q-5 2 -5.5 3t-1.5 2v1q0 -1 2 8q-2 -7 -4 -8l2 -1q0 1 -2 1q-99 -196 -140 -196q-20 0 -20 33q0 14 2 30.5t8 32.5q5 10 19 34.5l38 66.5v-1
q31 56 27 77q3 63 -8 99q-7 34 -37 27q-34 -7 -125 -97zM777 1249q36 40 63 40q29 0 51 -36q15 -31 12 -58q-9 -56 -32 -85.5t-62 -29.5q-72 0 -72 79q0 22 9.5 44.5t30.5 45.5zM744 360q-37 -73 -56 -112.5t-22 -45.5q10 3 39 33t72 78q45 52 86.5 125t72.5 156
q8 24 12.5 45.5t4.5 38.5v7q-14 0 -57 -73q-66 -108 -103 -170t-49 -82z" />
    <glyph glyph-name="u0637" unicode="&#x637;" horiz-adv-x="937" arabic-form="isolated" 
d="M389 265q82 0 187 84q53 43 84.5 87t47.5 90v-2q6 21 9 36.5t3 25.5q0 24 -15 24q-20 0 -56.5 -28.5t-87.5 -79.5q-13 -15 -36.5 -44.5t-57.5 -73.5q-41 -48 -62.5 -77.5t-26.5 -40.5q5 -1 11 -1zM14 226q-12 36 -12 67q0 24 9 36t22 9q10 -1 21.5 -7.5t26.5 -17.5
q26 -23 86 -43q27 -12 49.5 -15.5t42.5 -2.5q46 96 130 211q-21 -13 -53 -13q-55 0 -55 42q0 26 27 61q46 65 74.5 125.5t43.5 113.5q17 67 17 184q0 64 4.5 119t16.5 103q5 27 20.5 40.5t38.5 13.5q26 0 46 -26q26 -37 26 -103q4 -169 -34.5 -317t-114.5 -273
q82 101 191 212q92 93 156 93q68 0 92 -111q5 -21 7.5 -41t2.5 -40q0 -6 -0.5 -17t-1.5 -17q-14 -133 -58 -238t-119 -175q-51 -48 -116.5 -80.5t-144.5 -46.5q-56 -10 -86.5 -13.5t-43.5 -2.5q0 -19 -2.5 -48.5t-7.5 -71.5q-15 -9 -28.5 -14.5t-22.5 -5.5q-39 0 -42 78
q-3 35 -3.5 54.5t-2.5 23.5q-33 4 -64.5 18t-61.5 38t-49.5 47.5t-26.5 48.5v2z" />
    <glyph glyph-name="u0638" unicode="&#x638;" horiz-adv-x="937" arabic-form="isolated" 
d="M770 1169q33 36 64 36q26 0 47 -34q9 -17 12.5 -32t1.5 -28q-10 -50 -32.5 -79t-57.5 -29q-74 0 -74 75q0 45 39 91zM389 265q82 0 187 84q53 43 84.5 87t47.5 90v-2q6 21 9 36.5t3 25.5q0 24 -15 24q-20 0 -56.5 -28.5t-87.5 -79.5q-13 -15 -36.5 -44.5t-57.5 -73.5
q-41 -48 -62.5 -77.5t-26.5 -40.5q5 -1 11 -1zM14 226q-12 36 -12 67q0 24 9 36t22 9q10 -1 21.5 -7.5t26.5 -17.5q26 -23 86 -43q27 -12 49.5 -15.5t42.5 -2.5q46 96 130 211q-21 -13 -53 -13q-55 0 -55 42q0 26 27 61q46 65 74.5 125.5t43.5 113.5q17 67 17 184
q0 64 4.5 119t16.5 103q5 27 20.5 40.5t38.5 13.5q26 0 46 -26q26 -37 26 -103q4 -169 -34.5 -317t-114.5 -273q82 101 191 212q92 93 156 93q68 0 92 -111q5 -21 7.5 -41t2.5 -40q0 -6 -0.5 -17t-1.5 -17q-14 -133 -58 -238t-119 -175q-51 -48 -116.5 -80.5t-144.5 -46.5
q-56 -10 -86.5 -13.5t-43.5 -2.5q0 -19 -2.5 -48.5t-7.5 -71.5q-15 -9 -28.5 -14.5t-22.5 -5.5q-39 0 -42 78q-3 35 -3 54.5t-2 23.5q-34 4 -65.5 18t-61.5 38t-49.5 47.5t-26.5 48.5v2z" />
    <glyph glyph-name="u0639" unicode="&#x639;" horiz-adv-x="830" arabic-form="isolated" 
d="M148 -256q88 138 208 267q8 8 22 22.5t28 30.5t26.5 32t18.5 25q12 25 1 51q-11 25 -83 58q-68 29 -105.5 79t-37.5 122q0 41 16 80t44 73q66 83 184 113q90 30 164 30q164 0 147 -132q-1 -11 -8 -27.5t-16.5 -33t-21.5 -27.5t-25 -11q-26 0 -41 50q-3 28 -61 28
q-76 0 -176 -56q-62 -39 -62 -81q0 -81 162 -133q83 -34 90 -108q3 -35 -14.5 -74t-55.5 -80q-40 -40 -83 -91.5t-91 -112.5q-93 -125 -147 -240q-24 -58 -37.5 -112.5t-16.5 -102.5q-2 -79 22.5 -140t78.5 -108q108 -84 317 -83t392 97q59 37 93 25q15 -6 21.5 -18t6.5 -25
q0 -17 -11 -36t-33 -36q-107 -79 -274 -128q-122 -33 -253 -33q-27 0 -52 2t-52 4q-426 90 -412 460q3 94 34.5 187.5t92.5 192.5z" />
    <glyph glyph-name="u063A" unicode="&#x63a;" horiz-adv-x="840" arabic-form="isolated" 
d="M443 1111q30 43 60 51q3 1 15 1q62 0 62 -63q0 -27 -15 -64q-32 -74 -85 -74q-29 0 -50 20t-16 45q2 21 9 42.5t20 41.5zM158 -256q88 138 208 267q8 8 22 22.5t28 30.5t26.5 32t18.5 25q12 25 1 51q-11 25 -83 58q-68 29 -105.5 79t-37.5 122q0 41 16 80t44 73
q66 83 184 113q90 30 164 30q164 0 147 -132q-1 -11 -8 -27.5t-16.5 -33t-21.5 -27.5t-25 -11q-26 0 -41 50q-3 28 -61 28q-76 0 -176 -56q-62 -39 -62 -81q0 -81 162 -133q83 -34 90 -108q3 -35 -14.5 -74t-55.5 -80q-40 -40 -83 -91.5t-91 -112.5q-93 -125 -147 -240
q-24 -58 -37.5 -112.5t-16.5 -102.5q-2 -79 22.5 -140t78.5 -108q108 -84 317 -83t392 97q59 37 93 25q15 -6 21.5 -18t6.5 -25q0 -17 -11 -36t-33 -36q-107 -79 -274 -128q-122 -33 -253 -33q-27 0 -52 2t-52 4q-426 90 -412 460q3 94 34.5 187.5t92.5 192.5z" />
    <glyph glyph-name="u0641" unicode="&#x641;" horiz-adv-x="1942" arabic-form="isolated" 
d="M1660 905q43 39 77 39q57 0 57 -78q0 -60 -42 -88q-27 -39 -60 -39q-72 0 -72 82q0 44 40 84zM243 232q8 85 56 108q51 26 54 -88q-6 -119 48 -222q53 -103 157 -136q106 -32 242 -31q271 1 505 89t428 253q19 30 -3 30q-3 0 -10 -2.5t-17 -4.5q-12 -4 -24.5 -8t-24.5 -4
q-36 0 -63 30t-27 77q0 37 18 76.5t52 75.5t70 56t71 20q57 0 96 -47q36 -46 45.5 -90t9.5 -76q5 -126 -55 -199q-59 -73 -103 -103q-53 -38 -116 -76.5t-130.5 -73t-136.5 -63.5t-135 -51q-66 -20 -132 -36.5t-127 -28t-115 -17.5t-98 -6q-287 -3 -442 170
q-104 128 -98 312q0 16 1 32.5t4 33.5z" />
    <glyph glyph-name="u0642" unicode="&#x642;" horiz-adv-x="1582" arabic-form="isolated" 
d="M1314 172q0 -24 74 -24q6 0 0 62q-7 62 -30 67q-12 6 -27 -33q-17 -45 -17 -72zM809 514q-69 -5 -75 40q-2 47 45 80q99 54 231 90.5t289 55.5q32 5 56.5 6t38.5 -1q85 -7 87 -45q2 -36 -114 -52q-58 -6 -131 -25t-163 -46q-184 -58 -262 -102zM228 -32q101 127 212 223
t225 153q62 35 98 35t36 -26q0 -10 -7 -21.5t-19 -24.5l-39 -35q-45 -38 -92.5 -77t-93.5 -77q-36 -32 -67.5 -62t-58.5 -57.5t-46.5 -52t-30.5 -43.5q-51 -100 -51 -180q0 -118 114 -180h-1q99 -58 248 -58q113 0 208 36q142 49 259 151q151 128 223 308q-94 6 -137 46.5
t-43 118.5q0 40 14 90.5t38 105.5q27 57 60 88t72 31q55 0 100 -42q48 -45 60 -118q14 -77 14 -121q0 -214 -120 -409q-24 -42 -62.5 -86t-90.5 -93q-59 -55 -120 -99t-117 -68q-105 -47 -209.5 -74t-202.5 -32q-232 10 -352 130q-111 115 -105 278q6 76 27.5 136t56.5 106z
" />
    <glyph glyph-name="u0643" unicode="&#x643;" horiz-adv-x="1578" arabic-form="isolated" 
d="M109 338q25 81 77 84q13 -2 24.5 -12t16.5 -21q6 -16 5.5 -32.5t-3.5 -28.5q-2 -12 -2 -20q0 -27 13 -58.5t35 -62.5q38 -42 118.5 -64.5t200.5 -20.5q121 2 229.5 28.5t197.5 73.5q83 47 149 102.5t100 113.5v-1q66 115 72 222q2 20 4.5 48.5t4.5 62.5q7 70 78 70
q69 0 73 -104q4 -148 -66 -326q-68 -175 -277 -302q-104 -64 -232.5 -100t-285.5 -43q-21 -1 -40.5 -1h-37.5q-250 0 -346 85q-57 51 -86 111.5t-29 131.5q1 48 7 66v-2zM935 683q-29 0 -43.5 15.5t-11.5 46.5q2 31 30 57t79 46q74 35 155 76t161 84t156.5 87t141.5 83
q65 41 121 74.5t98.5 59t70.5 40.5t39 18q28 10 52 15t44 5q64 -10 60 -46q0 -14 -11 -23q-181 -116 -348 -216.5t-320 -185.5q-157 -87 -274 -146t-198 -90h-2z" />
    <glyph glyph-name="u0644" unicode="&#x644;" horiz-adv-x="1594" arabic-form="isolated" 
d="M204 -500q-170 134 -170 314q0 143 112 300q94 131 238 227q78 51 123 51q39 0 39 -37q0 -9 -1.5 -16.5t-4.5 -15.5q-26 -31 -47 -54.5t-38 -40.5q-60 -52 -100 -89t-55 -53q-57 -66 -89 -130t-32 -118q0 -31 9 -57.5t26 -51.5q113 -181 338 -181q80 0 159 25t158 73
q83 54 161.5 136t142.5 176q49 78 85 156.5t56 150.5q32 119 53.5 307.5t33.5 443.5q9 131 91 131q70 0 68 -171q-1 -82 -5.5 -164t-11.5 -159.5t-16 -149t-19 -131.5q-28 -148 -97 -304t-169 -296q-61 -82 -142 -157t-166 -125q-95 -56 -188 -82t-189 -26q-201 0 -353 118z
" />
    <glyph glyph-name="u0645" unicode="&#x645;" horiz-adv-x="1015" arabic-form="isolated" 
d="M237 -914q-25 -77 -51 -77q-21 0 -31 38q-28 69 -28 352q0 37 0.5 76t1.5 81q5 214 26.5 368t65.5 252q80 196 259 300q173 99 179 128q14 57 48 90.5t90 33.5q15 0 40.5 -14t57.5 -38q66 -56 66 -105q-12 -126 -89 -157q-73 -29 -237 -86q-76 -27 -130.5 -56.5t-94 -69
t-67.5 -91.5t-49 -124q-36 -115 -36 -310q0 -31 1 -64.5t1 -66.5q0 -104 -6 -218t-17 -241v-1z" />
    <glyph glyph-name="u0646" unicode="&#x646;" horiz-adv-x="749" arabic-form="isolated" 
d="M49 92q42 60 120 141t195 188q229 208 339 283q57 38 95 38q28 0 45 -29q28 -57 -77 -148q-103 -80 -210 -175t-223 -206q-114 -111 -197 -222t-135 -227q-44 -93 -65 -177.5t-21 -163.5q0 -37 4 -74q27 -186 132 -269q109 -85 250 -111q39 -8 81.5 -10.5t86.5 -2.5
q36 0 74.5 1.5t80.5 5.5q90 12 171 33t154 56q30 12 55.5 17.5t45.5 5.5q17 0 28.5 -4t20.5 -10q39 -38 -43 -102q-153 -87 -316 -133.5t-325 -56.5q-9 -1 -21.5 -1h-22.5q-149 0 -268.5 48t-203.5 135q-70 83 -113.5 196t-43.5 242q0 39 4 82q26 323 303 650zM396 1044
q0 5 -0.5 11.5t-0.5 16.5q0 91 76 126q27 10 49 10q54 0 54 -72q0 -52 -22 -85l1 1q-4 -13 -13 -22.5t-24 -19.5q-30 -18 -59 -18q-52 0 -61 52z" />
    <glyph glyph-name="u0647" unicode="&#x647;" horiz-adv-x="746" arabic-form="isolated" 
d="M320 226q0 -70 98 -70q54 0 90 20q40 20 40 54q0 66 -156 144q-26 -21 -49 -64q-13 -24 -18 -44.5t-5 -39.5zM234 56q-63 56 -63 130q0 65 30.5 125.5t95.5 121.5q-17 17 -27.5 35.5t-10.5 36.5q0 17 7.5 32t22.5 31q21 19 45 19q17 0 25.5 -13.5t8.5 -33.5q7 -16 89 -61
q54 -35 93.5 -64.5t65.5 -55.5q86 -83 90 -173q2 -65 -96 -126q-98 -58 -211 -58q-98 0 -165 54z" />
    <glyph glyph-name="u0648" unicode="&#x648;" horiz-adv-x="654" arabic-form="isolated" 
d="M-32 -372q15 16 98 46q52 18 109 46t106.5 63t85.5 74.5t43 80.5q-14 0 -31.5 6t-31.5 15q-46 36 -46 97q0 24 7 48q24 102 70.5 161t107.5 70q78 12 117.5 -35.5t39.5 -149.5q0 -47 -9 -92t-29 -87q-131 -275 -443 -378q-42 -12 -75 -18.5t-59 -6.5q-70 0 -70 38
q0 15 11 22h-1z" />
    <glyph glyph-name="u0649" unicode="&#x649;" horiz-adv-x="1115" arabic-form="isolated" 
d="M-516 -193q-19 20 -23 56q-3 34 46 34q22 0 42 -5q38 -7 82 -7q27 0 56.5 3t59.5 9q86 20 173 50.5t171 69t161.5 86t143.5 102.5q142 117 233.5 201t137.5 138q47 52 77 91q17 20 32 37t25 30q94 80 152 80q66 0 66 -64q0 -11 -4 -22q-10 -53 -35 -65q-35 -18 -64 -39.5
t-49 -41.5q-153 -156 -361 -351q-103 -97 -210.5 -179t-220.5 -148q-111 -65 -218 -100.5t-206 -41.5q-9 -1 -19.5 -1h-19.5q-168 0 -228 78z" />
    <glyph glyph-name="u064A" unicode="&#x64a;" horiz-adv-x="1115" arabic-form="isolated" 
d="M-516 -193q-19 20 -23 56q-3 34 46 34q22 0 42 -5q38 -7 82 -7q27 0 56.5 3t59.5 9q86 20 173 50.5t171 69t161.5 86t143.5 102.5q142 117 233.5 201t137.5 138q47 52 77 91q17 20 32 37t25 30q94 80 152 80q66 0 66 -64q0 -11 -4 -22q-10 -53 -35 -65q-35 -18 -64 -39.5
t-49 -41.5q-153 -156 -361 -351q-103 -97 -210.5 -179t-220.5 -148q-111 -65 -218 -100.5t-206 -41.5q-9 -1 -19.5 -1h-19.5q-168 0 -228 78z" />
    <glyph glyph-name="u067E" unicode="&#x67e;" horiz-adv-x="2326" arabic-form="isolated" 
d="M886 -529q6 42 24 74.5t48 57.5q56 49 137 49q138 6 200 -80q64 -83 61 -168q0 -111 -87 -195q-87 -83 -187 -114q-51 -13 -87.5 -19.5t-56.5 -1.5q-32 8 -32 30q0 19 41 45q77 31 131 62t84 62q61 65 61 119q0 52 -39 96q-17 18 -40 26t-41 10q-54 -6 -82 -31t-28 -68
q0 -50 30 -81q17 -18 26 -34.5t9 -33.5q0 -61 -71 -61q-24 0 -47 17q-60 50 -60 181q0 28 6 58zM77 157q-8 61 48 61q25 0 48 -14q162 -112 523 -169q52 -9 104 -13t106 -4q114 0 233 20.5t240 58.5q142 47 329 156t414 279q35 27 58.5 41.5t35.5 19.5q9 2 18 3.5t16 1.5
q74 0 74 -74q0 -43 -65 -91q-210 -140 -332.5 -223t-160.5 -110q-394 -230 -759 -262q-31 -2 -63 -4t-63 -2q-258 0 -493 82q-94 34 -161.5 72.5t-106.5 80.5q-18 21 -29 43t-14 47z" />
    <glyph glyph-name="u0686" unicode="&#x686;" horiz-adv-x="839" arabic-form="isolated" 
d="M660 562q7 19 7 43q0 80 -78 80q-12 0 -24 -4t-25 -15q-15 -10 -23.5 -17t-12.5 -11q-50 -49 -50 -133q0 -83 55 -200q62 72 100.5 135.5t50.5 121.5zM323 -395q8 81 72 131q30 25 64 37t73 12q135 7 200 -79q33 -43 48 -85.5t13 -84.5q0 -108 -86 -195h1
q-87 -84 -191 -113q-102 -28 -142 -22q-32 8 -32 31q0 21 42 45q76 32 130 62.5t84 61.5q61 62 61 119q0 26 -10 50.5t-28 45.5q-17 17 -39 26.5t-43 10.5q-54 -7 -82 -32.5t-28 -68.5q0 -47 31 -80q32 -36 32 -69q0 -61 -69 -61q-12 0 -23 5t-24 13q-60 49 -60 184
q0 26 6 56zM138 -157q33 50 71 102.5t79 101.5q42 50 77.5 91.5t64.5 76.5q-103 144 -103 319q0 132 60 230q60 100 170 131q42 11 82 11q103 0 151 -68q49 -68 49 -156q0 -72 -24 -134q-29 -60 -60 -112.5t-65 -101.5q-27 -35 -52.5 -71t-52.5 -72q34 -39 57 -63.5
t36 -37.5q17 -30 17 -56q0 -44 -44 -44q-17 0 -30 10q-47 42 -75.5 70t-38.5 43q-74 -82 -138 -168.5t-122 -176.5q-115 -187 -115 -325q0 -140 81 -234q45 -50 114 -76t163 -26q189 0 349 93h-1q87 55 132 55q24 0 33 -17q28 -49 -46 -113q-113 -77 -226.5 -121t-232.5 -54
q-17 -1 -32 -1.5t-30 -0.5q-195 0 -323 97q-72 57 -110.5 137.5t-38.5 185.5q0 106 44 224t130 251z" />
    <glyph glyph-name="u0698" unicode="&#x698;" horiz-adv-x="740" arabic-form="isolated" 
d="M300 497q19 9 34 15t28 9q90 44 147.5 102.5t74.5 122.5q1 8 1.5 15.5t0.5 13.5q0 33 -27 33q-11 0 -23.5 -5t-27.5 -12q-94 -53 -94 -107q0 -2 2 -12q1 -2 7 -6.5t12 -6.5q22 -16 22 -33q0 -51 -47 -51q-25 0 -61 25q-47 37 -47 95q0 86 94 170q100 84 217 79
q110 -6 110 -110q0 -67 -48 -166q-48 -87 -90 -127q-54 -50 -112 -79.5t-118 -39.5q-9 0 -20 3t-21.5 9t-17 14.5t-6.5 18.5q0 7 2 13t5 14zM-39 -336q41 18 96 57.5t123 98t146 134t166 165.5q57 62 98 95t65 33q69 1 84 -65q7 -31 -8.5 -59.5t-46.5 -49.5
q-70 -48 -138.5 -105t-131.5 -120q-233 -225 -357 -264q-37 -11 -66.5 -16t-54.5 -5q-54 0 -54 28q0 33 79 73z" />
    <glyph glyph-name="u06AF" unicode="&#x6af;" horiz-adv-x="1578" arabic-form="isolated" 
d="M109 338q25 81 77 84q13 -2 24.5 -12t16.5 -21q6 -16 5.5 -32.5t-3.5 -28.5q-2 -12 -2 -20q0 -27 13 -58.5t35 -62.5q38 -42 118.5 -64.5t200.5 -20.5q121 2 229.5 28.5t197.5 73.5q83 47 149 102.5t100 113.5v-1q66 115 72 222q2 20 4.5 48.5t4.5 62.5q7 70 78 70
q69 0 73 -104q4 -148 -66 -326q-68 -175 -277 -302q-104 -64 -232.5 -100t-285.5 -43q-21 -1 -40.5 -1h-37.5q-250 0 -346 85q-57 51 -86 111.5t-29 131.5q1 48 7 66v-2zM935 683q-29 0 -43.5 15.5t-11.5 46.5q2 31 30 57t79 46q74 35 155 76t161 84t156.5 87t141.5 83
q65 41 121 74.5t98.5 59t70.5 40.5t39 18q28 10 52 15t44 5q64 -10 60 -46q0 -14 -11 -23q-181 -116 -348 -216.5t-320 -185.5q-157 -87 -274 -146t-198 -90h-2zM1120 955q-17 0 -17 21q0 7 4 19.5t14 26.5q9 14 17 23t18 15h-2l568 337q56 25 70 -7q9 -32 -8 -56
q-482 -277 -662 -378z" />
    <glyph glyph-name="uFB57" unicode="&#x67e;" horiz-adv-x="2056" arabic-form="final" 
d="M176 100q-65 49 -103.5 110.5t-51.5 132.5q-5 21 -6 42t-1 40q0 96 48 177q33 54 73.5 93t85.5 59q46 10 52 -33q1 -19 -6 -39.5t-25 -39.5q-29 -35 -47 -67.5t-27 -60.5q-8 -29 -11.5 -53t-3.5 -41q5 -149 201 -218q191 -62 447 -60q129 1 254.5 20.5t250.5 58.5
t222.5 78t172.5 79h-1q39 24 74.5 37t65.5 16q64 3 76 -71q25 -122 67 -150q20 -11 40.5 -18t38.5 -7v-185q-162 -4 -202 139q-38 135 -74 129q-10 0 -26.5 -7.5t-39.5 -20.5q-28 -13 -94.5 -45t-174.5 -82q-107 -51 -233 -84t-258 -49q-68 -9 -131 -12t-124 -3
q-180 0 -313.5 34.5t-215.5 100.5zM598 -468q13 82 71 132q57 47 137 47q138 6 201 -78q63 -87 61 -169q0 -114 -86 -196q-42 -41 -90.5 -68.5t-100.5 -43.5q-50 -15 -86 -21t-55 -1q-33 7 -33 31q0 17 42 44q79 31 131.5 62.5t83.5 62.5q62 65 62 118q0 56 -38 94
q-18 17 -41 26.5t-43 11.5q-52 -6 -81 -31t-29 -68q0 -45 32 -80q32 -33 32 -66q0 -65 -68 -65q-29 0 -49 19q-59 48 -59 181q0 16 2 30z" />
    <glyph glyph-name="uFB58" unicode="&#x67e;" horiz-adv-x="528" arabic-form="initial" 
d="M-8 185q38 1 82.5 12t86.5 29q39 19 73.5 42.5t55.5 50.5q22 28 37.5 58.5t25.5 60.5h15q36 0 59 -37q21 -34 21 -72q0 -18 -5 -29v1q-39 -121 -175 -213q-70 -47 -138.5 -68.5t-137.5 -19.5v185zM88 -334q6 57 110 135q100 69 162 83q12 2 21.5 2.5t20.5 0.5
q74 0 113 -84l-1 1q10 -20 10 -49q0 -55 -42 -116q-22 -31 -49 -53.5t-60 -34.5q-26 -12 -44 -12q-64 0 -64 60q0 7 5 15q19 14 34.5 22t30.5 10q63 38 63 68q0 34 -40 41q-11 4 -25.5 0.5t-32.5 -11.5v2q-48 -26 -77 -88q-18 -38 -39 -57.5t-47 -16.5q-55 1 -49 84v-2z" />
    <glyph glyph-name="uFB59" unicode="&#x67e;" horiz-adv-x="444" arabic-form="medial" 
d="M-7 -395q5 55 113 135q98 69 159 82q23 5 40 5q74 0 114 -85q11 -24 11 -48q0 -53 -44 -116q-46 -63 -108 -88l2 1q-23 -15 -46 -15q-64 0 -64 62q0 5 1.5 8.5t2.5 5.5q38 28 65 33q63 38 63 69q0 33 -38 41q-22 5 -60 -12v1q-47 -27 -74 -87q-38 -78 -88 -75
q-56 4 -49 84v-1zM-8 185q49 0 91 16t75 42.5t57.5 60.5t40.5 72q6 13 17 19.5t24.5 7t26.5 -3t24 -11.5q11 -10 16.5 -27t6 -35.5t-2 -37t-7.5 -29.5q-12 -24 4 -49q13 -25 90 -25v-185q-154 5 -199 101q-39 -53 -108.5 -77t-155.5 -24v185z" />
    <glyph glyph-name="uFB7B" unicode="&#x686;" horiz-adv-x="912" arabic-form="final" 
d="M420 -413q8 81 71 132q31 24 64.5 36.5t72.5 12.5q136 5 202 -80q63 -85 59 -168q0 -58 -21.5 -106t-63.5 -91q-86 -81 -191 -111q-50 -15 -86.5 -21t-57.5 -2q-30 8 -30 32q0 18 43 43q153 62 214 125q61 64 61 119t-38 94q-17 18 -40 27.5t-42 10.5q-110 -13 -110 -100
q0 -49 31 -79q32 -36 32 -67q0 -62 -69 -62q-22 0 -49 16q-58 51 -58 183q0 15 2 28.5t4 27.5zM182 -271q39 68 91.5 141.5t104.5 134.5q52 62 88 103t54 61q-50 57 -53 169q-4 54 13.5 119t48.5 126q35 65 86 104.5t118 50.5q87 10 132 -47q46 -50 46 -134
q0 -76 -44 -164.5t-134 -188.5q24 -10 75 -14.5t116 -4.5v-185q-46 0 -88 6t-85 17q-81 21 -141 60q-47 -49 -95 -108t-99 -130q-102 -141 -147 -257t-45 -219q0 -76 29.5 -137.5t83.5 -105.5q47 -34 115 -52t154 -18h24.5t24.5 1q208 9 388 113q57 37 92 26q35 -12 29 -50
q-4 -34 -42 -63q-50 -42 -118 -78t-148 -61q-70 -23 -144 -33t-153 -10h-29.5t-29.5 1q-430 72 -430 444q0 92 27.5 187t84.5 196zM763 456q3 11 4 20t1 17q0 29 -11 47t-29 25q-45 -3 -93 -51q-53 -50 -65 -124q-7 -35 5 -66t39 -58q46 28 85 76t64 114z" />
    <glyph glyph-name="uFB7C" unicode="&#x686;" horiz-adv-x="727" arabic-form="initial" 
d="M205 -433q20 6 36.5 7t28.5 0q207 43 272 164q13 27 13 41q0 29 -39 29q-18 0 -39 -7q-121 -33 -116 -93q0 -1 3.5 -3.5t7.5 -6.5q6 -8 12 -15t8 -17q0 -50 -48 -50q-31 0 -66 42q-25 30 -25 68q0 80 89 144q85 66 195 66q44 0 81 -10q86 -29 86 -100q0 -70 -79 -166
q-34 -40 -67.5 -71.5t-64.5 -45.5q-55 -31 -106 -47.5t-93 -16.5h-25.5t-28.5 1q-28 5 -41.5 17t-13.5 36q0 17 18 34h2zM125 271q-2 67 29.5 133t105.5 131q57 39 112.5 77t110.5 74q54 38 90 38q58 0 92 -74q12 -27 18.5 -62t3.5 -77q-21 -151 -151 -263
q-121 -104 -249 -169q40 -57 40 -104t-36 -47q-7 0 -16.5 3.5t-17.5 13.5q-45 61 -64 98q-18 -7 -43 -15t-53 -14.5t-55.5 -10t-51.5 -3.5v185q16 0 36.5 1.5t40.5 4t37.5 7t27.5 7.5q-1 15 -4 33t-3 33zM237 307q0 -9 -1 -21t-1 -23t0.5 -19t3.5 -8q7 0 33.5 15t71.5 43
q43 28 81.5 62.5t66.5 70.5q55 76 54 100q0 24 -85 -11q-46 -18 -86 -42.5t-74 -61.5q-60 -65 -64 -102v-3z" />
    <glyph glyph-name="uFB7D" unicode="&#x686;" horiz-adv-x="733" arabic-form="medial" 
d="M-16 185q77 1 127.5 6.5t71.5 13.5q-24 22 -32 51.5t-2 63.5q19 50 59.5 103t97.5 104t101.5 81t75.5 33q29 11 63 11q35 0 69 -10.5t61.5 -29.5t45.5 -45t21 -57v1q14 -122 -230 -307q26 -8 84.5 -13.5t146.5 -5.5v-185q-109 0 -211 20t-201 72q-90 -40 -178.5 -63.5
t-169.5 -28.5v185zM116 -430q17 6 32.5 8t28.5 3q104 23 173.5 64t100.5 102h-1q12 23 12 41q0 26 -37 26q-14 0 -40 -6q-58 -17 -88 -40.5t-26 -51.5q0 -6 8 -10q6 -7 12 -15.5t6 -18.5v2q3 -28 -7.5 -40.5t-37.5 -12.5q-31 0 -66 42q-25 33 -25 69q0 76 88 144
q89 69 197 69q21 0 42 -3t40 -9q84 -29 84 -100q0 -73 -78 -169q-35 -41 -68 -71t-63 -47q-113 -58 -202 -58h-25.5t-26.5 1q-53 3 -53 50q0 17 19 30zM459 312q87 54 117.5 99.5t17.5 69.5v-1q-17 31 -72 31q-17 0 -37 -3.5t-41 -11.5q-58 -21 -119 -106
q-12 -17 -18.5 -32.5t-6.5 -28.5q0 -36 54 -60v-1q17 -2 42.5 9t62.5 35z" />
    <glyph glyph-name="uFB8B" unicode="&#x698;" horiz-adv-x="760" arabic-form="final" 
d="M0 -301q66 21 124.5 54t113.5 75q31 24 75 65t91 89q48 50 85 85.5t61 52.5q42 32 98 48t124 17v-185h-79q-84 -4 -163 -85q-153 -149 -284.5 -231t-233.5 -102q-6 -1 -14 -2t-16 -1q-85 0 -85 42q0 41 103 78zM224 391q16 10 31 16t29 8l-2 -1q96 48 151 104t71 120
q3 9 4 16t1 13q0 36 -30 36q-19 0 -54 -19q-87 -48 -87 -104q0 -3 0.5 -5.5t0.5 -4.5q0 -6 19 -17q20 -12 20 -37q0 -47 -46 -47q-29 0 -63 28q-47 37 -47 87q0 83 94 155q96 76 214 69q110 -6 110 -101q0 -35 -12 -71.5t-38 -82.5v1q-21 -39 -42 -69t-39 -49
q-113 -104 -236 -118q-10 -1 -21.5 2t-21.5 9t-16.5 14.5t-6.5 18.5q0 11 14 28z" />
    <glyph glyph-name="uFEDA" unicode="&#x6a9;" horiz-adv-x="1603" arabic-form="final" 
d="M-13 157q-8 29 -8 53q0 67 44 67q14 0 33 -11q6 -3 16.5 -17t30.5 -38q19 -24 37.5 -40t38.5 -28q39 -22 96.5 -34t129.5 -12q142 0 271 24t249 71q240 96 343 210q105 118 123 202q30 61 97 61q77 0 77 -89q0 -28 -11 -66t-31 -88q-44 -93 -45 -147q1 -24 14 -41.5
t32 -28.5t43 -16t48 -4v-185q-131 -5 -203 46.5t-72 177.5v24q-13 -13 -33 -29t-51 -37q-374 -236 -849 -236q-47 0 -91.5 3t-87.5 9q-198 29 -241 199zM1034 604q-60 0 -54 60q6 63 109 106q74 35 153.5 75.5t159 82.5t155 85t141.5 84q65 39 120.5 73.5t99.5 59.5
t73.5 40.5t38.5 19.5h-1q30 10 54 15t46 5q64 -8 58 -45q-2 -15 -13 -24q-181 -115 -346.5 -215t-319.5 -186q-156 -86 -273 -145.5t-198 -90.5h-3z" />
    <glyph glyph-name="uFEDB" unicode="&#x6a9;" horiz-adv-x="559" arabic-form="initial" 
d="M117 565q-57 0 -52 61q2 29 29.5 56.5t78.5 48.5q157 71 311.5 154t295.5 171q147 94 230.5 142.5t104.5 55.5q60 17 97 17q65 -7 60 -45q-1 -14 -16 -24q-180 -116 -345 -215.5t-318 -186.5q-308 -171 -473 -235h-3zM-12 185q157 11 157 177q0 68 -20 143q-9 59 58 59
q60 0 83 -31q34 -48 39 -178q3 -132 -74 -234q-38 -51 -101.5 -84t-141.5 -38v186z" />
    <glyph glyph-name="uFEDC" unicode="&#x6a9;" horiz-adv-x="522" arabic-form="medial" 
d="M-7 185q26 0 53.5 1t54.5 1q-25 28 -36 64.5t-10 83.5q3 50 29 100.5t77 104.5q101 104 192 112q125 14 156 -134q1 -13 1.5 -26t0.5 -24q0 -43 -9 -82.5t-26 -72.5q-19 -38 -39.5 -67.5t-41.5 -48.5q11 -4 28 -5.5t37 -3.5t40 -2.5t35 -0.5v-185q-169 -1 -273 44
q-70 -43 -219 -44h-50v185zM139 617q-61 0 -55 61q6 60 108 106q71 33 152 73.5t162 83t157.5 85.5t140.5 83q139 87 224.5 137.5t106.5 56.5h-1q56 19 98 19q65 -7 59 -45q0 -16 -13 -23q-182 -116 -346.5 -216t-318.5 -185q-157 -86 -273.5 -145.5t-197.5 -90.5h-3z
M240 240q49 16 81.5 53.5t48.5 94.5q9 36 9 63q0 55 -42 63q-31 -4 -83 -54q-56 -53 -64 -110q-10 -52 14 -84q23 -30 37 -26h-1z" />
    <glyph glyph-name="uFB93" unicode="&#x6af;" horiz-adv-x="1604" arabic-form="final" 
d="M-12 157q-8 29 -8 53q0 67 44 67q14 0 33 -11q6 -3 16.5 -17t30.5 -38q19 -24 37.5 -40t38.5 -28q39 -22 96.5 -34t129.5 -12q142 0 271 24t249 71q240 96 343 210q105 118 123 202q30 61 97 61q77 0 77 -89q0 -28 -11 -66t-31 -88q-44 -93 -45 -147q1 -24 14 -41.5
t32 -28.5t43 -16t48 -4v-185q-131 -5 -203 46.5t-72 177.5v24q-13 -13 -33 -29t-51 -37q-374 -236 -849 -236q-47 0 -91.5 3t-87.5 9q-198 29 -241 199zM1034 604q-58 0 -54 60q6 62 109 106q73 35 153 75.5t159 82.5t155 85t142 84q139 87 225.5 137t105.5 56h-1
q31 10 55 15t45 5q64 -8 58 -45q0 -15 -12 -24q-180 -115 -346 -215t-320 -186q-156 -86 -273 -145.5t-199 -90.5h-2zM1230 868q-18 0 -18 19q0 17 18 48q9 13 17.5 21.5t18.5 13.5h-2l568 338q54 24 70 -8q13 -29 -8 -54q-482 -276 -662 -378h-2z" />
    <glyph glyph-name="uFB94" unicode="&#x6af;" horiz-adv-x="559" arabic-form="initial" 
d="M117 565q-57 0 -52 61q2 29 29.5 56.5t78.5 48.5q157 71 311.5 154t295.5 171q147 94 230.5 142.5t104.5 55.5q60 17 97 17q65 -7 60 -45q-1 -14 -16 -24q-180 -116 -345 -215.5t-318 -186.5q-308 -171 -473 -235h-3zM-12 185q157 11 157 177q0 68 -20 143q-9 59 58 59
q60 0 83 -31q34 -48 39 -178q3 -132 -74 -234q-38 -51 -99 -82t-144 -40v186zM331 842q-18 0 -18 21q0 19 19 47q18 28 34 37l566 337q58 22 72 -8q10 -26 -9 -54q-242 -140 -407.5 -234t-255.5 -144z" />
    <glyph glyph-name="uFB95" unicode="&#x6af;" horiz-adv-x="520" arabic-form="medial" 
d="M-9 185q26 0 53.5 1t54.5 1q-25 28 -36 64.5t-10 83.5q3 50 29 100.5t77 104.5q101 104 192 112q125 14 156 -134q1 -13 1.5 -26t0.5 -24q0 -43 -9 -82.5t-26 -72.5q-19 -38 -39.5 -67.5t-41.5 -48.5q11 -4 28 -5.5t37 -3.5t40 -2.5t35 -0.5v-185q-85 -1 -156.5 11
t-125.5 36q-35 -22 -84.5 -34t-125.5 -13h-50v185zM137 617q-61 0 -55 61q6 60 108 106q71 33 152 73.5t162 83t157.5 85.5t140.5 83q139 87 224.5 137.5t106.5 56.5h-1q56 19 98 19q65 -7 59 -45q0 -16 -13 -23q-182 -116 -346.5 -216t-318.5 -185q-157 -86 -273.5 -145.5
t-197.5 -90.5h-3zM334 878q-18 0 -18 21q0 18 19 45q10 14 17 23.5t17 14.5h-1l567 338q57 24 71 -10q4 -13 2.5 -26.5t-10.5 -27.5q-242 -139 -407 -232.5t-255 -145.5h-2zM238 240q49 16 81.5 53.5t48.5 94.5q9 36 9 63q0 55 -42 63q-31 -4 -83 -54q-56 -53 -64 -110
q-10 -52 14 -84q23 -30 37 -26h-1z" />
    <glyph glyph-name="uFE94" unicode="&#x6c0;" horiz-adv-x="610" arabic-form="final" 
d="M98 -115q-23 50 -23 104q0 103 81 183q83 72 167 72q33 0 81 -22q18 -12 45.5 -19t62.5 -13q22 -3 43 -4t37 -1q6 0 14.5 -0.5t22.5 1.5v-186h-35q-130 0 -190 41q-20 13 -46 15.5t-49.5 -6t-39 -27.5t-13.5 -49q0 -10 2 -25t6 -35q14 -36 4 -54q-20 -64 -76 -64
q-55 0 -94 89z" />
    <glyph glyph-name="uFEF2" unicode="&#x6cc;" horiz-adv-x="1087" arabic-form="final" 
d="M831 74q-37 -44 -91 -115.5t-126 -170.5q-75 -100 -163 -174.5t-190 -123.5v1q-85 -43 -185 -63.5t-218 -20.5h-51.5t-51.5 3q-62 8 -115 25.5t-100 44.5q-38 28 -30 60q11 35 95 27q17 -1 37.5 -2.5t45.5 -1.5q49 0 115 3.5t146 12.5q123 13 235 63t209 137
q102 89 182 179.5t150 191.5q86 128 146 128q35 0 59 -37q39 -35 81 -45.5t86 -10.5v-185q-71 0 -108 26q-14 8 -30.5 22t-33.5 36q-19 17 -38 17q-26 0 -56 -27z" />
    <glyph glyph-name="uFEF3" unicode="&#x6cc;" horiz-adv-x="632" arabic-form="initial" 
d="M-12 185q42 1 84 11t86 30q43 18 75.5 42t56 52t38 58t20.5 60q25 0 43.5 -9t30 -24t17.5 -35t6 -41q0 -18 -5 -29q-38 -120 -176 -212q-69 -47 -138.5 -68.5t-137.5 -19.5v185zM154 -194q60 38 134 56t163 18q78 0 121 -17q26 -8 43 -19.5t17 -24.5q0 -18 -23.5 -28.5
t-64.5 -12.5q-88 -6 -176.5 -27t-171.5 -56l2 1q-15 -10 -34 -10q-64 0 -64 50q0 32 54 70z" />
    <glyph glyph-name="uFEF4" unicode="&#x6cc;" horiz-adv-x="445" arabic-form="medial" 
d="M12 -251q125 73 308 73q87 0 130 -10q63 -26 63 -53q0 -18 -24 -27t-66 -12q-96 -7 -189.5 -29t-177.5 -61v2q-9 -6 -19 -8.5t-18 -2.5q-60 0 -60 55q0 31 53 73zM-7 185q49 0 91 16t75 42.5t57.5 60.5t40.5 72q6 13 17 19.5t24.5 7t26.5 -3t24 -11.5q11 -10 16.5 -27
t6 -35.5t-2 -37t-7.5 -29.5q-12 -24 4 -49q13 -25 90 -25v-185q-154 5 -199 101q-39 -53 -108.5 -77t-155.5 -24v185z" />
    <glyph glyph-name="Hcircumflex" unicode="&#x622;" horiz-adv-x="450" arabic-form="final" 
d="M116 289q0 83 39 208q36 123 119 237q82 116 133 116q39 0 39 -40q0 -12 -62 -121q-32 -58 -55 -112t-35 -104q-24 -102 -24 -141q0 -142 185 -147v-185q-100 0 -173 27t-118 92q-48 71 -48 170z" />
    <glyph glyph-name="uFE84" unicode="&#x623;" horiz-adv-x="450" arabic-form="final" 
d="M116 289q0 83 39 208q36 123 119 237q82 116 133 116q39 0 39 -40q0 -12 -62 -121q-32 -58 -55 -112t-35 -104q-24 -102 -24 -141q0 -142 185 -147v-185q-100 0 -173 27t-118 92q-48 71 -48 170z" />
    <glyph glyph-name="uFE86" unicode="&#x624;" horiz-adv-x="763" arabic-form="final" 
d="M-21 -293q41 3 90.5 15t99.5 31t98 45.5t86 58t61 67.5t23 76q-38 8 -57 29t-27.5 47t-8 53t4.5 46q6 42 26 83.5t50.5 74.5t70 53.5t85.5 20.5q116 0 116 -171v-21.5t-2 -26.5q9 -2 27 -2.5t52 -0.5v-185h-130q-212 -374 -620 -390q-117 6 -100 61q3 34 55 36z" />
    <glyph glyph-name="uFE88" unicode="&#x625;" horiz-adv-x="450" arabic-form="final" 
d="M116 289q0 83 39 208q36 123 119 237q82 116 133 116q39 0 39 -40q0 -12 -62 -121q-32 -58 -55 -112t-35 -104q-24 -102 -24 -141q0 -142 185 -147v-185q-100 0 -173 27t-118 92q-48 71 -48 170z" />
    <glyph glyph-name="uFE8A" unicode="&#x626;" horiz-adv-x="1087" arabic-form="final" 
d="M831 74q-37 -44 -91 -115.5t-126 -170.5q-75 -100 -163 -174.5t-190 -123.5v1q-85 -43 -185 -63.5t-218 -20.5h-51.5t-51.5 3q-62 8 -115 25.5t-100 44.5q-38 28 -30 60q11 35 95 27q17 -1 37.5 -2.5t45.5 -1.5q49 0 115 3.5t146 12.5q123 13 235 63t209 137
q102 89 182 179.5t150 191.5q86 128 146 128q35 0 59 -37q39 -35 81 -45.5t86 -10.5v-185q-71 0 -108 26q-14 8 -30.5 22t-33.5 36q-19 17 -38 17q-26 0 -56 -27z" />
    <glyph glyph-name="uFE8B" unicode="&#x626;" horiz-adv-x="511" arabic-form="initial" 
d="M-4 185q42 1 84 11t87 30q43 18 75.5 42t56 52t37 58t20.5 60h16q20 0 34.5 -10t25.5 -27q22 -31 22 -72q0 -18 -5 -29q-19 -60 -63.5 -113.5t-111.5 -98.5q-70 -47 -139 -68.5t-139 -19.5v185zM209 786q-4 12 -4 28q0 24 14.5 48t39.5 44q28 20 56 33.5t59 18.5
q32 2 50 -13t18 -50q0 -30 -23 -59q-22 -21 -45 -21q-18 0 -25 8.5t-1 24.5q6 11 9 19t8 11q2 4 3.5 8t-1.5 4q-6 0 -16.5 -4.5t-26.5 -11.5q-22 -12 -34.5 -23.5t-12.5 -26.5q0 -32 61 -32q9 0 21 2t26 4q15 2 27.5 4t19.5 2q52 0 52 -35q0 -29 -16 -47
q-24 -24 -62.5 -54.5t-92.5 -69.5q-33 -23 -51 -23q-32 0 -32 32q0 25 27 46q35 18 110 71q15 10 21 17t1 7q-3 0 -7 -1.5t-10 -3.5q-41 -11 -72 -11q-66 0 -91 54z" />
    <glyph glyph-name="uFE8C" unicode="&#x626;" horiz-adv-x="444" arabic-form="medial" 
d="M79 596q15 11 28.5 17.5t26.5 12.5l-1 -1q184 106 184 250q0 38 -27 38q-24 0 -55 -23q-63 -40 -63 -92q0 -10 3 -22l-1 2q4 -4 11 -8q8 -4 17.5 -9.5t12.5 -12.5h-1q2 -5 2.5 -10t0.5 -10q0 -45 -47 -45q-13 0 -26 4t-30 17h1q-31 17 -46.5 44t-15.5 62q0 82 72 149
q71 68 176 74q127 4 127 -138q0 -141 -79 -231q-101 -108 -213 -135q-10 -2 -22 0.5t-22 7.5t-17.5 13.5t-7.5 19.5q0 6 2.5 12.5t8.5 12.5zM-8 185q49 0 91 16t75 42.5t57.5 60.5t40.5 72q6 13 17 19.5t24.5 7t26.5 -3t24 -11.5q11 -10 16.5 -27t6 -35.5t-2 -37t-7.5 -29.5
q-12 -24 4 -49q13 -25 90 -25v-185q-154 5 -199 101q-39 -53 -108.5 -77t-155.5 -24v185z" />
    <glyph glyph-name="uFE8E" unicode="&#x627;" horiz-adv-x="450" arabic-form="final" 
d="M116 289q0 83 39 208q36 123 119 237q82 116 133 116q39 0 39 -40q0 -12 -62 -121q-32 -58 -55 -112t-35 -104q-24 -102 -24 -141q0 -142 185 -147v-185q-100 0 -173 27t-118 92q-48 71 -48 170z" />
    <glyph glyph-name="uFE90" unicode="&#x628;" horiz-adv-x="2050" arabic-form="final" 
d="M170 100q-65 49 -103.5 110.5t-51.5 132.5q-5 21 -6 42t-1 40q0 96 48 177q33 54 73.5 93t85.5 59q46 10 52 -33q1 -19 -6 -39.5t-25 -39.5q-29 -35 -47 -67.5t-27 -60.5q-8 -29 -11.5 -53t-3.5 -41q5 -149 201 -218q191 -62 447 -60q129 1 254.5 20.5t250.5 58.5
t222.5 78t172.5 79h-1q39 24 74.5 37t65.5 16q64 3 76 -71q25 -122 67 -150q20 -11 40.5 -18t38.5 -7v-185q-162 -4 -202 139q-38 135 -74 129q-10 0 -26.5 -7.5t-39.5 -20.5q-28 -13 -94.5 -45t-174.5 -82q-107 -51 -233 -84t-258 -49q-68 -9 -131 -12t-124 -3
q-180 0 -313.5 34.5t-215.5 100.5zM671 -358q35 36 63 36q27 0 50 -33q18 -30 16 -58q-10 -54 -33 -84t-61 -30q-74 0 -74 81q0 42 39 88z" />
    <glyph glyph-name="uFE91" unicode="&#x628;" horiz-adv-x="460" arabic-form="initial" 
d="M-9 185q81 2 170 41q43 18 75.5 42t56 52t38 58t20.5 60q24 5 42 -3.5t30.5 -24.5t19 -38t6.5 -43q0 -18 -5 -29q-39 -120 -176 -212q-70 -47 -138 -68.5t-139 -19.5v185zM256 -115q32 36 59 36q32 0 50 -35q11 -16 14.5 -31t1.5 -28q-11 -50 -34.5 -81.5t-58.5 -31.5
q-74 0 -74 81q0 44 42 90z" />
    <glyph glyph-name="uFE92" unicode="&#x628;" horiz-adv-x="445" arabic-form="medial" 
d="M132 -182q15 16 31 26.5t32 10.5q26 0 45 -35q9 -17 13 -32t1 -28q-9 -49 -33 -80.5t-60 -31.5q-71 0 -71 78q0 45 42 92zM-7 185q49 0 91 16t75 42.5t57.5 60.5t40.5 72q6 13 17 19.5t24.5 7t26.5 -3t24 -11.5q11 -10 16.5 -27t6 -35.5t-2 -37t-7.5 -29.5q-12 -24 4 -49
q13 -25 90 -25v-185q-154 5 -199 101q-39 -53 -108.5 -77t-155.5 -24v185z" />
    <glyph glyph-name="uFE96" unicode="&#x62a;" horiz-adv-x="2034" arabic-form="final" 
d="M160 100q-65 49 -103 110.5t-51 132.5q-5 21 -6.5 42t-1.5 40q0 96 50 177q34 54 73.5 93t84.5 59q46 10 52 -33q2 -41 -32 -79q-58 -71 -72 -128q-18 -57 -16 -94q4 -148 200 -218q191 -62 448 -60q130 1 256 20.5t249 58.5q125 39 223.5 78t170.5 79h-1q80 47 140 53
q64 3 78 -71q23 -122 66 -150q20 -11 40.5 -18t37.5 -7v-185q-161 -4 -202 139q-38 133 -73 129q-8 0 -25.5 -7.5t-41.5 -20.5q-26 -13 -92 -45t-176 -82q-106 -51 -231.5 -84t-260.5 -49q-67 -9 -130.5 -12t-122.5 -3q-182 0 -315.5 34.5t-215.5 100.5zM673 810
q147 55 285 95q242 65 397 98t227 33q91 0 91 -45q0 -27 -81 -50q-31 -10 -62 -16.5t-59 -10.5q-198 -57 -349 -107t-248 -89q-98 -41 -179 -74.5t-145 -61.5q-9 -2 -17.5 -3.5t-17.5 -1.5q-55 0 -72 54q-3 6 -4 14t-1 16q0 49 53 83z" />
    <glyph glyph-name="uFE97" unicode="&#x62a;" horiz-adv-x="504" arabic-form="initial" 
d="M-8 5v180q82 1 171 41q43 18 75.5 42t56 52t38 58t21.5 60h16q37 0 57 -37q22 -30 22 -72q0 -17 -4 -29q-19 -60 -63.5 -113.5t-112.5 -98.5q-70 -47 -137 -68.5t-136 -19.5zM215 745q120 75 309 75q84 0 129 -16q27 -10 43.5 -22t16.5 -25q0 -36 -88 -41
q-101 -6 -192 -26t-174 -55v1q-18 -11 -37 -11q-58 0 -58 47q0 38 51 73z" />
    <glyph glyph-name="uFE98" unicode="&#x62a;" horiz-adv-x="444" arabic-form="medial" 
d="M-2 665q117 75 273 75q35 0 62 -4t47 -11h-1q65 -22 65 -47q0 -37 -89 -40q-48 -2 -96.5 -11.5t-98.5 -25.5q-47 -13 -119 -49v1q-10 -5 -18.5 -6t-17.5 -1q-61 0 -61 49q0 34 54 70zM-8 185q49 0 91 16t75 42.5t57.5 60.5t40.5 72q6 13 17 19.5t24.5 7t26.5 -3t24 -11.5
q11 -10 16.5 -27t6 -35.5t-2 -37t-7.5 -29.5q-12 -24 4 -49q13 -25 90 -25v-185q-154 5 -199 101q-39 -53 -108.5 -77t-155.5 -24v185z" />
    <glyph glyph-name="uFE9A" unicode="&#x62b;" horiz-adv-x="2069" arabic-form="final" 
d="M189 100q-65 49 -103.5 110.5t-51.5 132.5q-5 21 -6 42t-1 40q0 96 48 177q33 54 73.5 93t85.5 59q46 10 52 -33q1 -19 -6 -39.5t-25 -39.5q-29 -35 -47 -67.5t-27 -60.5q-8 -29 -11.5 -53t-3.5 -41q5 -149 201 -218q191 -62 447 -60q129 1 254.5 20.5t250.5 58.5
t222.5 78t172.5 79h-1q39 24 74.5 37t65.5 16q64 3 76 -71q25 -122 67 -150q20 -11 40.5 -18t38.5 -7v-185q-162 -4 -202 139q-38 135 -74 129q-10 0 -26.5 -7.5t-39.5 -20.5q-28 -13 -94.5 -45t-174.5 -82q-107 -51 -233 -84t-258 -49q-68 -9 -131 -12t-124 -3
q-180 0 -313.5 34.5t-215.5 100.5zM713 917q6 38 24.5 71.5t47.5 59.5q30 22 65 35t73 13q134 7 200 -80q64 -85 60 -169q0 -110 -86 -194q-86 -83 -188 -114q-53 -15 -88 -21t-55 -1q-31 11 -31 31q0 18 43 46q75 31 128 61t83 61q62 64 62 119q0 54 -39 96
q-18 18 -39.5 26.5t-41.5 9.5q-54 -6 -82.5 -30.5t-28.5 -67.5q0 -49 30 -79q17 -18 26 -34.5t9 -33.5q0 -62 -70 -62q-12 0 -24.5 4t-23.5 14q-28 24 -43.5 70t-15.5 111q0 16 1.5 30.5t3.5 27.5z" />
    <glyph glyph-name="uFE9B" unicode="&#x62b;" horiz-adv-x="593" arabic-form="initial" 
d="M257 642q17 11 32 17.5t26 11.5q81 53 130.5 117t49.5 134q0 37 -26 37q-12 0 -24.5 -6t-29.5 -17q-62 -40 -62 -92q0 -5 0.5 -10.5t0.5 -10.5q3 -1 6.5 -3.5t5.5 -4.5q9 -5 17 -10.5t11 -12.5t3 -17q0 -48 -43 -48q-30 0 -60 22h1q-62 36 -62 108q0 41 17.5 77t50.5 70
q77 71 179 75q63 2 94.5 -32.5t31.5 -105.5q0 -142 -74 -231q-51 -54 -106 -88t-113 -48q-33 9 -50 18.5t-17 23.5q0 6 2 12t7 12zM-11 185q80 1 168 41q44 18 76 42t55.5 52t38.5 58t22 60h17q36 0 60 -37q18 -30 18 -69q0 -9 -0.5 -16.5t-2.5 -15.5v1q-20 -60 -62.5 -112
t-113.5 -98q-69 -47 -137.5 -69t-138.5 -22v185z" />
    <glyph glyph-name="uFE9C" unicode="&#x62b;" horiz-adv-x="444" arabic-form="medial" 
d="M-14 185q49 0 91 16t75 42.5t57.5 60.5t40.5 72q6 13 17 19.5t24.5 7t26.5 -3t24 -11.5q11 -10 16.5 -27t6 -35.5t-2 -37t-7.5 -29.5q-12 -24 4 -49q13 -25 90 -25v-185q-154 5 -199 101q-39 -53 -108.5 -77t-155.5 -24v185zM41 642q17 11 32 17.5t26 11.5
q81 53 130.5 117t49.5 134q0 37 -26 37q-12 0 -24.5 -6t-29.5 -17q-62 -40 -62 -92q0 -5 0.5 -10.5t0.5 -10.5q3 -1 6.5 -3.5t5.5 -4.5q9 -5 17 -10.5t11 -12.5t3 -17q0 -48 -43 -48q-30 0 -60 22h1q-62 36 -62 108q0 41 17.5 77t50.5 70q77 71 179 75q63 2 94.5 -32.5
t31.5 -105.5q0 -142 -74 -231q-51 -54 -106 -88t-113 -48q-33 9 -50 18.5t-17 23.5q0 6 2 12t7 12z" />
    <glyph glyph-name="uFE9E" unicode="&#x62c;" horiz-adv-x="928" arabic-form="final" 
d="M198 -271q39 68 91.5 141.5t104.5 134.5q52 62 88 103t54 61q-50 57 -53 169q-4 54 13.5 119t48.5 126q35 65 86 104.5t118 50.5q87 10 132 -47q46 -50 46 -134q0 -76 -44 -164.5t-134 -188.5q24 -10 75 -14.5t116 -4.5v-185q-46 0 -88 6t-85 17q-81 21 -141 60
q-47 -49 -95 -108t-99 -130q-102 -141 -147 -257t-45 -219q0 -76 29.5 -137.5t83.5 -105.5q47 -34 115 -52t154 -18h24.5t24.5 1q208 9 388 113q57 37 92 26q35 -12 29 -50q-4 -34 -42 -63q-50 -42 -118 -78t-148 -61q-70 -23 -144 -33t-153 -10h-29.5t-29.5 1
q-430 72 -430 444q0 92 27.5 187t84.5 196zM779 456q3 11 4 20t1 17q0 29 -11 47t-29 25q-45 -3 -93 -51q-53 -50 -65 -124q-7 -35 5 -66t39 -58q46 28 85 76t64 114zM566 -598q-30 15 -30 46q0 28 27 72q9 11 16 22.5t14 23.5v-2q9 22 43 22q69 0 69 -53q0 -14 -7 -26h1
q-45 -118 -101 -118q-17 0 -34 13h2z" />
    <glyph glyph-name="uFE9F" unicode="&#x62c;" horiz-adv-x="725" arabic-form="initial" 
d="M123 271q-2 67 29.5 133t105.5 131q57 39 112.5 77t110.5 74q54 38 90 38q58 0 92 -74q12 -27 18.5 -62t3.5 -77q-21 -151 -151 -263q-121 -104 -249 -169q40 -57 40 -104t-36 -47q-7 0 -16.5 3.5t-17.5 13.5q-45 61 -64 98q-18 -7 -43 -15t-53 -14.5t-55.5 -10
t-51.5 -3.5v185q16 0 36.5 1.5t40.5 4t37.5 7t27.5 7.5q-1 15 -4 33t-3 33zM235 307q0 -9 -1 -21t-1 -23t0.5 -19t3.5 -8q7 0 33.5 15t71.5 43q43 28 81.5 62.5t66.5 70.5q55 76 54 100q0 24 -85 -11q-46 -18 -86 -42.5t-74 -61.5q-60 -65 -64 -102v-3zM460 -97q32 37 65 37
q31 0 51 -36q13 -34 12 -61q-18 -112 -96 -112q-74 0 -74 82q0 41 42 90z" />
    <glyph glyph-name="uFEA0" unicode="&#x62c;" horiz-adv-x="737" arabic-form="medial" 
d="M-9 185q78 1 128 6.5t72 13.5q-24 22 -32.5 51.5t-3.5 63.5q20 50 61 103t97 104q58 51 102.5 81t75.5 33h-1q31 11 63 11q35 0 69.5 -10.5t61.5 -29.5t45 -45t20 -57v1q8 -61 -49.5 -138t-178.5 -169q24 -8 83 -13.5t145 -5.5v-185q-107 0 -209 20t-201 72
q-90 -40 -178.5 -63.5t-169.5 -28.5v185zM466 312q87 54 117 99.5t18 69.5v-1q-18 31 -72 31q-16 0 -36 -3.5t-42 -11.5q-57 -21 -118 -106q-26 -35 -26 -61q0 -35 53 -60v-1q17 -2 43.5 9t62.5 35zM231 -200q36 38 62 38q31 0 52 -36q10 -16 13 -32t2 -29
q-11 -49 -35 -81.5t-60 -32.5q-75 0 -75 80q0 48 41 93z" />
    <glyph glyph-name="uFEA2" unicode="&#x62d;" horiz-adv-x="884" arabic-form="final" 
d="M154 -271q39 68 91.5 141.5t104.5 134.5q52 62 88 103t54 61q-50 57 -53 169q-4 54 13.5 119t48.5 126q35 65 86 104.5t118 50.5q87 10 132 -47q46 -50 46 -134q0 -76 -44 -164.5t-134 -188.5q24 -10 75 -14.5t116 -4.5v-185q-46 0 -88 6t-85 17q-81 21 -141 60
q-47 -49 -95 -108t-99 -130q-102 -141 -147 -257t-45 -219q0 -76 29.5 -137.5t83.5 -105.5q47 -34 115 -52t154 -18h24.5t24.5 1q208 9 388 113q57 37 92 26q35 -12 29 -50q-4 -34 -42 -63q-50 -42 -118 -78t-148 -61q-70 -23 -144 -33t-153 -10h-29.5t-29.5 1
q-430 72 -430 444q0 92 27.5 187t84.5 196zM735 456q3 11 4 20t1 17q0 29 -11 47t-29 25q-45 -3 -93 -51q-53 -50 -65 -124q-7 -35 5 -66t39 -58q46 28 85 76t64 114z" />
    <glyph glyph-name="uFEA3" unicode="&#x62d;" horiz-adv-x="725" arabic-form="initial" 
d="M123 271q-2 67 29.5 133t105.5 131q57 39 112.5 77t110.5 74q54 38 90 38q58 0 92 -74q12 -27 18.5 -62t3.5 -77q-21 -151 -151 -263q-121 -104 -249 -169q40 -57 40 -104t-36 -47q-7 0 -16.5 3.5t-17.5 13.5q-45 61 -64 98q-18 -7 -43 -15t-53 -14.5t-55.5 -10
t-51.5 -3.5v185q16 0 36.5 1.5t40.5 4t37.5 7t27.5 7.5q-1 15 -4 33t-3 33zM235 307q0 -9 -1 -21t-1 -23t0.5 -19t3.5 -8q7 0 33.5 15t71.5 43q43 28 81.5 62.5t66.5 70.5q55 76 54 100q0 24 -85 -11q-46 -18 -86 -42.5t-74 -61.5q-60 -65 -64 -102v-3z" />
    <glyph glyph-name="uFEA4" unicode="&#x62d;" horiz-adv-x="738" arabic-form="medial" 
d="M-8 185q76 1 126.5 6.5t72.5 13.5q-24 22 -32.5 51.5t-2.5 63.5q19 50 60 103t97 104q58 51 102.5 81t75.5 33h-1q31 11 63 11q35 0 69 -10.5t62 -29.5t46 -45t20 -57v1q14 -121 -229 -307q25 -8 84 -13.5t145 -5.5v-185q-107 0 -209.5 20t-202.5 72q-90 -40 -178 -63.5
t-168 -28.5v185zM467 312q86 54 116.5 99.5t17.5 69.5v-1q-18 31 -72 31q-17 0 -36.5 -3.5t-41.5 -11.5q-57 -21 -119 -106q-12 -17 -18.5 -32.5t-6.5 -28.5q0 -35 53 -60v-1q17 -2 43.5 9t63.5 35z" />
    <glyph glyph-name="uFEA6" unicode="&#x62e;" horiz-adv-x="878" arabic-form="final" 
d="M650 1070q31 38 64 38q28 0 49 -36q9 -15 11.5 -30t1.5 -28q-10 -54 -34 -84t-61 -30q-74 0 -74 77q0 43 43 93zM148 -271q39 68 91.5 141.5t104.5 134.5q52 62 88 103t54 61q-50 57 -53 169q-4 54 13.5 119t48.5 126q35 65 86 104.5t118 50.5q87 10 132 -47
q46 -50 46 -134q0 -76 -44 -164.5t-134 -188.5q24 -10 75 -14.5t116 -4.5v-185q-46 0 -88 6t-85 17q-81 21 -141 60q-47 -49 -95 -108t-99 -130q-102 -141 -147 -257t-45 -219q0 -76 29.5 -137.5t83.5 -105.5q47 -34 115 -52t154 -18h24.5t24.5 1q208 9 388 113q57 37 92 26
q35 -12 29 -50q-4 -34 -42 -63q-50 -42 -118 -78t-148 -61q-70 -23 -144 -33t-153 -10h-29.5t-29.5 1q-430 72 -430 444q0 92 27.5 187t84.5 196zM729 456q3 11 4 20t1 17q0 29 -11 47t-29 25q-45 -3 -93 -51q-53 -50 -65 -124q-7 -35 5 -66t39 -58q46 28 85 76t64 114z" />
    <glyph glyph-name="uFEA7" unicode="&#x62e;" horiz-adv-x="721" arabic-form="initial" 
d="M471 1084q34 33 63 33q31 0 50 -32q19 -31 17 -61q-19 -113 -96 -113q-74 0 -74 77q0 46 40 96zM119 271q-2 67 29.5 133t105.5 131q57 39 112.5 77t110.5 74q54 38 90 38q58 0 92 -74q12 -27 18.5 -62t3.5 -77q-21 -151 -151 -263q-121 -104 -249 -169q40 -57 40 -104
t-36 -47q-7 0 -16.5 3.5t-17.5 13.5q-45 61 -64 98q-18 -7 -43 -15t-53 -14.5t-55.5 -10t-51.5 -3.5v185q16 0 36.5 1.5t40.5 4t37.5 7t27.5 7.5q-1 15 -4 33t-3 33zM231 307q0 -9 -1 -21t-1 -23t0.5 -19t3.5 -8q7 0 33.5 15t71.5 43q43 28 81.5 62.5t66.5 70.5
q55 76 54 100q0 24 -85 -11q-46 -18 -86 -42.5t-74 -61.5q-60 -65 -64 -102v-3z" />
    <glyph glyph-name="uFEA8" unicode="&#x62e;" horiz-adv-x="733" arabic-form="medial" 
d="M-13 185q76 1 126.5 6.5t72.5 13.5q-24 22 -32.5 51.5t-2.5 63.5q19 50 60 103t97 104q58 51 102.5 81t75.5 33h-1q31 11 63 11q35 0 69 -10.5t62 -29.5t46 -45t20 -57v1q14 -121 -229 -307q25 -8 84 -13.5t145 -5.5v-185h-37q-97 0 -191 22t-184 70q-90 -40 -178 -63.5
t-168 -28.5v185zM462 312q86 54 116.5 99.5t17.5 69.5v-1q-18 31 -72 31q-17 0 -36.5 -3.5t-41.5 -11.5q-57 -21 -119 -106q-12 -17 -18.5 -32.5t-6.5 -28.5q0 -35 53 -60v-1q17 -2 43.5 9t63.5 35zM522 977q29 36 62 36q30 0 49 -34q10 -15 13 -31.5t1 -29.5
q-9 -54 -33 -84t-61 -30q-74 0 -74 79q0 47 43 94z" />
    <glyph glyph-name="uFEAA" unicode="&#x62f;" horiz-adv-x="872" arabic-form="final" 
d="M74 -185q-66 5 -66 70q0 44 50 69v-1q142 73 263 197.5t222 300.5q29 42 77 37q48 -3 88 -136q40 -142 67 -155q27 -12 108 -12v-185q-124 -4 -173 38q-48 47 -79 213q-6 21 -15 34t-21 14q-9 -15 -33 -52t-66 -98q-42 -60 -120 -134t-183 -153q-60 -49 -118 -47h-1z" />
    <glyph glyph-name="uFEAC" unicode="&#x630;" horiz-adv-x="857" arabic-form="final" 
d="M64 -185q-69 5 -69 70q0 44 51 69v-1q282 144 485 498q27 43 76 37q50 -2 89 -136q41 -142 67 -155q26 -12 106 -12v-185q-121 -4 -173 38q-47 46 -78 213q-12 45 -35 48q-9 -15 -32.5 -52t-66.5 -98q-42 -61 -120 -134.5t-184 -152.5q-60 -49 -115 -47h-1zM550 772
q33 36 62 36q31 0 52 -33q17 -36 13 -59q-19 -112 -94 -112q-73 0 -73 78q0 43 40 90z" />
    <glyph glyph-name="uFEAE" unicode="&#x631;" horiz-adv-x="752" arabic-form="final" 
d="M-10 -301q66 21 125 54t113 75q31 24 74 63t94 91q45 49 82.5 85t61.5 53q40 31 98 47.5t126 17.5v-185h-82q-84 -4 -163 -85q-150 -148 -281.5 -230.5t-234.5 -102.5q-6 -1 -15 -2t-17 -1q-85 0 -85 42q0 38 104 78z" />
    <glyph glyph-name="uFEB0" unicode="&#x632;" horiz-adv-x="769" arabic-form="final" 
d="M11 -301q64 21 123.5 54t113.5 75q31 24 75 65t91 89q48 50 85 85.5t61 52.5q42 34 97.5 49.5t123.5 15.5v-185h-77q-84 -4 -168 -85h1q-150 -149 -280.5 -231t-233.5 -102q-6 -1 -15 -2t-15 -1q-88 0 -88 42q0 38 106 78zM584 588q33 36 61 36q33 0 51 -32
q11 -17 14 -32.5t1 -29.5q-13 -50 -35.5 -80t-57.5 -30q-75 0 -75 77q0 43 41 91z" />
    <glyph glyph-name="uFEB2" unicode="&#x633;" horiz-adv-x="1144" arabic-form="final" 
d="M-1257 -817q-33 30 -18 65q7 26 51 26h16.5t17.5 -2q38 -8 82 -8q52 0 117 11q192 39 392.5 145t410.5 282q208 172 317.5 264.5t124.5 106.5q8 7 16 11t20 4q15 0 34 -12q101 -54 207.5 -35.5t198.5 91.5q29 23 59.5 54.5t62.5 72.5q18 23 39 35.5t43 14t41 -9.5t31 -35
q10 -20 23.5 -37.5t31.5 -27.5q24 -14 88 -14v-185q-142 -4 -190 110q-5 12 -13 42q-37 -54 -85.5 -99t-107.5 -83q-54 -35 -111.5 -55.5t-115.5 -25.5t-113 4.5t-105 35.5q-84 -80 -191 -170.5t-232 -191.5q-120 -94 -210.5 -161t-136.5 -96q-150 -91 -287 -140.5
t-241 -46.5q-49 3 -92 8.5t-78 13.5t-60 17.5t-37 20.5z" />
    <glyph glyph-name="uFEB3" unicode="&#x633;" horiz-adv-x="1031" arabic-form="initial" 
d="M-20 185h53q109 0 217.5 19.5t210.5 60.5t193 101t167 142q96 103 145 103q39 0 45 -60q0 -13 -21 -69q-19 -38 -55 -79.5t-86.5 -84t-113.5 -84.5t-136 -82q-134 -72 -279.5 -112t-283.5 -40h-56v185z" />
    <glyph glyph-name="uFEB4" unicode="&#x633;" horiz-adv-x="877" arabic-form="medial" 
d="M-12 185q44 0 84 7q42 10 77 53q31 69 64 63q35 -6 36 -54q-6 -18 -6 -30q0 -37 48 -50q15 1 28.5 6.5t23.5 18.5q12 11 24 25.5t25 31.5q33 43 63 49q6 1 14 -1.5t17 -8.5q12 -9 8 -44q-3 -31 10.5 -48.5t31.5 -18.5q75 0 125 91q16 55 54 51q35 -3 35 -63q3 -47 37 -61
q19 -9 43 -13t58 -4v-185q-151 2 -202 84q-24 -38 -66.5 -58t-84.5 -20q-38 0 -71 14t-54 45q-23 -28 -59 -43.5t-73 -17.5t-70.5 9.5t-52.5 36.5q-34 -37 -76 -43.5t-91 -6.5v185z" />
    <glyph glyph-name="uFEB6" unicode="&#x634;" horiz-adv-x="1144" arabic-form="final" 
d="M-1257 -817q-33 30 -18 65v-2q7 28 51 28h16.5t17.5 -2q38 -8 82 -8q52 0 117 11q192 39 392.5 145t410.5 282q208 172 317.5 264.5t124.5 106.5q8 7 16 11t20 4q15 0 34 -12q39 -20 94 -30q13 -3 28 -4t30 -1q16 0 35.5 1t42.5 5q84 11 176 85q29 23 59.5 54.5
t62.5 72.5q21 23 39.5 35t32.5 14q14 3 30 0t29 -13q10 -5 15.5 -14t7.5 -17q10 -20 23.5 -37.5t31.5 -27.5q24 -14 88 -14v-185q-142 -4 -190 110q-5 12 -13 42q-37 -54 -85.5 -99t-107.5 -83q-67 -43 -137 -65.5t-131 -18.5q-119 10 -177 43q-84 -80 -191 -170.5
t-232 -191.5q-120 -94 -210.5 -161t-136.5 -96q-150 -92 -287 -140t-241 -46q-105 6 -173 20.5t-94 38.5zM400 936q6 40 24.5 73.5t47.5 58.5q29 23 64.5 35.5t72.5 12.5q68 2 118.5 -17t81.5 -63q65 -83 61 -168q0 -108 -86 -195q-90 -84 -190 -114q-50 -14 -86 -20t-56 -3
q-32 11 -32 34q0 16 42 44q77 29 130 59.5t85 63.5q61 65 61 120q0 27 -10.5 50t-28.5 43q-17 18 -40 27t-42 11q-54 -6 -82.5 -31t-28.5 -67q0 -25 8 -44.5t24 -36.5q32 -35 32 -66q0 -64 -69 -64q-25 0 -47 18q-28 24 -43.5 70.5t-15.5 110.5q0 17 1.5 31t3.5 27z" />
    <glyph glyph-name="uFEB7" unicode="&#x634;" horiz-adv-x="1036" arabic-form="initial" 
d="M399 968q13 84 71 131q28 24 64 36.5t75 12.5q133 8 200 -78q61 -86 60 -170q0 -110 -87 -194q-42 -42 -89.5 -69t-99.5 -44q-101 -29 -141 -23q-33 8 -33 31q0 21 42 45q153 58 215 124q61 65 61 120q0 52 -39 94q-17 17 -40.5 26.5t-42.5 10.5q-53 -7 -82 -31t-29 -68
q0 -46 33 -81q32 -36 32 -66q0 -63 -69 -63q-24 0 -46 18q-61 50 -61 183q0 15 1.5 28.5t4.5 26.5zM-15 185h53q109 0 217.5 19.5t210.5 60.5t193 101t167 142q96 103 145 103q39 0 45 -60q0 -13 -21 -69q-19 -38 -55 -79.5t-86.5 -84t-113.5 -84.5t-136 -82
q-134 -72 -279.5 -112t-283.5 -40h-56v185z" />
    <glyph glyph-name="uFEB8" unicode="&#x634;" horiz-adv-x="878" arabic-form="medial" 
d="M-11 185q44 0 84 7q42 10 77 53q31 69 64 63q35 -6 36 -54q-6 -18 -6 -30q0 -37 48 -50q15 1 28.5 6.5t23.5 18.5q12 11 24 25.5t25 31.5q33 43 63 49q6 1 14 -1.5t17 -8.5q12 -9 8 -44q-3 -31 10.5 -48.5t31.5 -18.5q75 0 125 91q16 55 54 51q35 -3 35 -63q3 -47 37 -61
q19 -9 43 -13t58 -4v-185q-151 2 -202 84q-24 -38 -66.5 -58t-84.5 -20q-38 0 -71 14t-54 45q-23 -28 -59 -43.5t-73 -17.5t-70.5 9.5t-52.5 36.5q-34 -37 -76 -43.5t-91 -6.5v185zM252 892q12 80 73 132q59 48 135 48q140 6 203 -81q63 -81 60 -169q0 -110 -85 -193
q-89 -85 -191 -115q-104 -29 -144 -21q-30 9 -30 31q0 20 42 46q76 30 128.5 60.5t85 62t47.5 61.5t15 58q0 52 -41 95q-16 18 -38 27t-42 10q-109 -13 -109 -99q0 -51 29 -81q16 -18 25 -34t9 -33q0 -61 -69 -61q-13 0 -25 3.5t-24 13.5q-28 24 -43.5 70.5t-15.5 111.5
q0 16 1 29.5t4 27.5z" />
    <glyph glyph-name="uFEBA" unicode="&#x635;" horiz-adv-x="992" arabic-form="final" 
d="M493 301q-5 130 97 279q50 72 97.5 123t89.5 78q48 31 92 49t75 18q82 0 82 -103q0 -12 -1 -22t-2 -21q-6 -70 -36 -142.5t-87 -147.5q-105 -144 -177 -183q30 -19 100.5 -31t182.5 -13v-185q-61 -5 -207 20q-143 24 -228 107q-120 -95 -247 -125q-86 -10 -112 74
q-13 39 -23.5 60t-17.5 20q-18 -2 -120 -104q-51 -51 -144 -126.5t-231 -177.5q-272 -203 -543 -220q-17 -1 -33.5 -1.5t-33.5 -0.5q-222 0 -332 109q-94 93 -94 168q0 27 10 46q19 37 50 37q47 0 119 -73v1q98 -101 261 -101q17 0 38 2t40 4q141 24 274.5 83t256.5 150
q125 94 218 172.5t157 143.5q130 133 183 111q26 -12 40.5 -51t15.5 -110q0 -56 41 -56q25 0 66 20t96 62zM712 385q34 37 61 74t41 68t21 51t7 29q0 16 -11 15q-47 -8 -84.5 -45t-64.5 -85.5t-42.5 -99t-17.5 -86.5q14 6 36.5 25t53.5 54z" />
    <glyph glyph-name="uFEBB" unicode="&#x635;" horiz-adv-x="954" arabic-form="initial" 
d="M-12 185q77 -3 120.5 26.5t54.5 81.5q4 45 46 45q32 0 37 -39q2 -30 16 -54t34.5 -41t45 -27.5t47.5 -14.5q2 16 17 47t45 78q42 61 92 116t106 99q54 42 97.5 64t70.5 24q39 4 68 -14.5t46 -58.5q10 -26 15.5 -51.5t5.5 -52.5q0 -15 -2 -30.5t-6 -28.5
q-12 -76 -51.5 -142t-100 -114.5t-138 -76t-166.5 -27.5l2 -10q0 -37 8 -88.5t23 -111.5q2 -10 4 -16.5t2 -15.5q0 -50 -35 -50q-22 0 -52 35q-27 36 -41 75t-16 81q-1 40 -2 67.5t-2 39.5q-31 0 -57.5 11.5t-48.5 29t-39.5 39.5t-30.5 45q-48 -117 -215 -125v185zM674 208
q45 28 75 68t43 91q2 12 3.5 23t1.5 19q0 23 -15 23q-25 0 -78 -47q-48 -37 -89 -97t-75 -132q52 6 134 52z" />
    <glyph glyph-name="uFEBC" unicode="&#x635;" horiz-adv-x="888" arabic-form="medial" 
d="M-8 185q20 0 46 3.5t51 10.5q24 6 49 23t47 41q33 49 63 49q28 0 38 -40q4 -18 12.5 -41t21.5 -55q24 -55 64 -51q38 3 60 23q-24 40 -24 90q0 79 65 170t193 197q26 17 52.5 29t57.5 12q24 0 44 -8t37 -26q12 -14 19 -34t7 -48q0 -38 -15.5 -86t-49.5 -102
q-32 -54 -74 -96q-30 -34 -49 -47q21 -6 49.5 -8.5t56 -4t51 -1.5h36.5v-185q-139 -2 -228 18q-47 12 -75.5 19t-38.5 11q-10 6 -16 8t-8 3q-86 -70 -182 -76q-38 -2 -65.5 7t-46 26.5t-31 41.5t-22.5 52q-12 -21 -32.5 -40.5t-45.5 -34.5t-52.5 -24.5t-54.5 -10.5h-10v185z
M568 316q-3 -10 -3.5 -21.5t1.5 -28.5q6 -30 18 -30q6 0 25.5 20t49.5 52q63 72 65 111q1 35 -14 35q-10 0 -21 -6t-23 -15q-20 -17 -48.5 -46t-51.5 -71h2z" />
    <glyph glyph-name="uFEBE" unicode="&#x636;" horiz-adv-x="998" arabic-form="final" 
d="M489 301q-2 65 22 134t75 145q52 72 99.5 123t89.5 78q47 31 91 49t76 18q80 0 80 -103q0 -12 -0.5 -22t-1.5 -21q-6 -70 -36 -142.5t-87 -147.5q-104 -144 -176 -183q29 -19 99.5 -31t184.5 -13v-185q-61 -5 -210 20q-143 26 -228 107q-120 -95 -246 -125
q-83 -10 -111 74q-28 81 -42 80q-16 -2 -118 -104q-53 -51 -146.5 -126.5t-231.5 -177.5q-270 -203 -542 -220q-17 -1 -33.5 -1.5t-32.5 -0.5q-224 0 -333 109q-93 93 -93 168q0 27 9 46q19 37 51 37q46 0 120 -73v1q98 -101 260 -101q17 0 37.5 2t40.5 4q140 24 274 83
t258 150q247 186 373 316q129 133 183 111q27 -12 41.5 -51t15.5 -110q0 -56 41 -56q51 0 163 82zM710 385q34 37 61 74t41 68q26 63 26 80q0 15 -9 15q-21 0 -49 -26q-16 -9 -29 -21t-24 -24q-24 -24 -64 -93q-43 -72 -43 -139v-13q29 11 90 79zM714 1175q18 18 34.5 25.5
t33.5 7.5q29 0 46 -28q10 -24 8 -40q-7 -37 -22 -67.5t-33 -47.5q-30 -27 -58 -27q-53 0 -53 74q0 51 44 102v1z" />
    <glyph glyph-name="uFEBF" unicode="&#x636;" horiz-adv-x="953" arabic-form="initial" 
d="M-13 185q77 -3 120.5 26.5t54.5 81.5q4 45 46 45q32 0 37 -39q7 -36 24 -64.5t41 -42.5q24 -13 44.5 -21.5t33.5 -8.5q2 16 17 47t45 78q42 61 92 116t106 99q54 42 97.5 64t70.5 24q39 4 68 -14.5t46 -58.5q10 -26 15.5 -51.5t5.5 -52.5q0 -15 -2 -30.5t-6 -28.5
q-3 -58 -34.5 -116.5t-88.5 -116.5q-58 -56 -140.5 -88.5t-192.5 -38.5l2 -10q0 -37 8 -88.5t23 -111.5q2 -10 4 -16.5t2 -15.5q0 -50 -35 -50q-22 0 -52 35q-27 36 -41 75t-16 81q-1 40 -2 67.5t-2 39.5q-79 7 -126 58q-35 38 -50 67q-48 -117 -215 -125v185zM673 208
q45 28 75 68t43 91q2 12 3.5 23t1.5 19q0 23 -15 23q-25 0 -78 -47q-48 -37 -89 -97t-75 -132q52 6 134 52zM609 881q33 37 62 37t48 -36v1q18 -30 18 -62q-22 -109 -96 -109q-76 0 -76 76q0 48 44 93z" />
    <glyph glyph-name="uFEC0" unicode="&#x636;" horiz-adv-x="884" arabic-form="medial" 
d="M620 972q35 36 61 36q35 0 54 -37v1q17 -31 13 -59q-8 -53 -32 -83t-61 -30q-75 0 -75 78q0 48 40 94zM-12 185q20 0 46 3.5t51 10.5q24 6 49 23t47 41q33 49 63 49q28 0 38 -40q4 -18 12.5 -41t21.5 -55q24 -55 64 -51q38 3 60 23q-24 40 -24 90q0 79 65 170t193 197
q26 17 52.5 29t57.5 12q24 0 44 -8t37 -26q12 -14 19 -34t7 -48q0 -38 -15.5 -86t-49.5 -102q-32 -54 -74 -96q-30 -34 -49 -47q21 -6 49.5 -8.5t56 -4t51 -1.5h36.5v-185q-139 -2 -228 18q-47 12 -75.5 19t-38.5 11q-10 6 -16 8t-8 3q-86 -70 -182 -76q-38 -2 -65.5 7
t-46 26.5t-31 41.5t-22.5 52q-12 -21 -32.5 -40.5t-45.5 -34.5t-52.5 -24.5t-54.5 -10.5h-10v185zM564 316q-3 -10 -3.5 -21.5t1.5 -28.5q6 -30 18 -30q10 0 27 16.5t35.5 40.5t36 52t28 52t12 40.5t-12.5 16.5q-10 0 -21 -6t-23 -15q-20 -17 -48.5 -46t-51.5 -71h2z" />
    <glyph glyph-name="uFEC2" unicode="&#x637;" horiz-adv-x="881" arabic-form="final" 
d="M301 566q82 125 106 174q13 35 20.5 74t7.5 85q0 32 -4.5 83.5t-12.5 123.5v21q0 89 74 89q69 0 82 -125q2 -31 3.5 -62t1.5 -59q0 -98 -26 -189t-78 -174q10 12 21.5 24t23.5 25q168 176 289 176t121 -155q0 -27 -3 -42v1q-12 -124 -95 -224q-75 -88 -131 -136t-82 -61
q40 -25 274 -30v-185q-173 2 -284 31t-158 67q-63 -45 -126.5 -66.5t-128.5 -24.5q-137 -2 -151 165q0 102 54 104l3 -1q49 -78 130 -79q71 -4 125 37q-3 13 -3.5 27.5t-0.5 25.5q-2 126 67 242l-5 -4q-19 -25 -46 -38.5t-56 -13.5q-38 0 -38 33q0 27 26 61zM606 396
q89 79 112 148q6 21 6 36q0 36 -27 36q-49 0 -109 -81q-109 -143 -98 -219q17 3 46 24t70 56z" />
    <glyph glyph-name="uFEC3" unicode="&#x637;" horiz-adv-x="811" arabic-form="initial" 
d="M-19 185q19 0 42.5 1t46.5 3t45 5t36 6q20 48 44 92t52 86q-10 -5 -22 -5q-51 0 -51 60q0 17 6.5 31.5t17.5 27.5q95 108 127 300q1 7 1.5 19t0.5 27q0 37 -3.5 94.5t-11.5 134.5q-6 42 9.5 66.5t50.5 24.5q66 0 78 -79q6 -45 7 -86t1 -80q0 -197 -91 -374q4 6 10 13.5
t12 13.5q78 93 153 149.5t143 69.5q68 -1 90 -143q1 -11 1.5 -23t0.5 -26q0 -83 -30 -184q-43 -134 -120 -219q-76 -83 -186 -130t-235 -55q4 -17 5 -32t1 -28q0 -71 -39 -71q-28 0 -51 41q-20 36 -17 85h-124v185zM415 247q102 34 157 96.5t52 166.5q-4 36 -13 36
q-12 0 -34.5 -15t-54.5 -43q-40 -33 -81.5 -73.5t-81.5 -84.5q-76 -83 -87 -122q22 2 58 12t85 27z" />
    <glyph glyph-name="uFEC4" unicode="&#x637;" horiz-adv-x="696" arabic-form="medial" 
d="M118 566q81 128 104 174q13 35 21 74t8 85q0 32 -4.5 83.5t-12.5 123.5v21q0 89 73 89q70 0 83 -125q2 -31 3.5 -62t1.5 -59q0 -98 -26.5 -189t-78.5 -174q10 12 21.5 24t23.5 25q84 88 157 132t132 44q122 0 122 -155q0 -27 -3 -42v1q-13 -125 -96 -224
q-73 -88 -130 -136t-81 -61q37 -24 272 -30v-185q-173 2 -284 31t-156 67q-5 -2 -8 -3t-8 -4q-19 -9 -43.5 -22.5t-57 -26.5t-72 -24.5t-89.5 -18.5v185q65 9 110 24t70 34q-2 10 -2 21.5v22.5q-2 127 68 242l-4 -4q-21 -25 -48 -38.5t-54 -13.5q-39 0 -39 33q0 27 27 61z
M422 396q42 38 70.5 75.5t40.5 72.5q7 19 7 36q0 36 -28 36q-48 0 -108 -81q-110 -141 -99 -219q17 3 46 24t71 56z" />
    <glyph glyph-name="uFEC6" unicode="&#x638;" horiz-adv-x="881" arabic-form="final" 
d="M301 566q82 125 106 174q13 35 20.5 74t7.5 85q0 32 -4.5 83.5t-12.5 123.5v21q0 89 74 89q69 0 82 -125q2 -31 3.5 -62t1.5 -59q0 -98 -26 -189t-78 -174q10 12 21.5 24t23.5 25q168 176 289 176t121 -155q0 -27 -3 -42v1q-12 -124 -95 -224q-75 -88 -131 -136t-82 -61
q40 -25 274 -30v-185q-173 2 -284 31t-158 67q-63 -45 -126.5 -66.5t-128.5 -24.5q-137 -2 -151 165q0 102 54 104l3 -1q49 -78 130 -79q71 -4 125 37q-3 13 -3.5 27.5t-0.5 25.5q-2 126 67 242l-5 -4q-19 -25 -46 -38.5t-56 -13.5q-38 0 -38 33q0 27 26 61zM743 1099
q34 36 59 36q9 0 17 -2q3 1 5 1.5t5 0.5q16 0 29 -9t22 -24q9 -16 12 -31.5t1 -28.5q-14 -111 -91 -111h-27q-70 0 -70 76q0 47 38 92zM606 396q89 79 112 148q6 21 6 36q0 36 -27 36q-49 0 -109 -81q-109 -143 -98 -219q17 3 46 24t70 56z" />
    <glyph glyph-name="uFEC7" unicode="&#x638;" horiz-adv-x="811" arabic-form="initial" 
d="M-19 185q19 0 42.5 1t46.5 3t45 5t36 6q20 48 44 92t52 86q-10 -5 -22 -5q-51 0 -51 60q0 17 6.5 31.5t17.5 27.5q95 108 127 300q1 7 1.5 19t0.5 27q0 37 -3.5 94.5t-11.5 134.5q-6 42 9.5 66.5t50.5 24.5q66 0 78 -79q6 -45 7 -86t1 -80q0 -197 -91 -374q4 6 10 13.5
t12 13.5q78 93 153 149.5t143 69.5q68 -1 90 -143q1 -11 1.5 -23t0.5 -26q0 -83 -30 -184q-43 -134 -120 -219q-76 -83 -186 -130t-235 -55q4 -17 5 -32t1 -28q0 -71 -39 -71q-28 0 -51 41q-20 36 -17 85h-124v185zM415 247q102 34 157 96.5t52 166.5q-4 36 -13 36
q-12 0 -34.5 -15t-54.5 -43q-40 -33 -81.5 -73.5t-81.5 -84.5q-76 -83 -87 -122q22 2 58 12t85 27zM651 1074q33 32 63 32q31 0 49 -33q10 -16 12 -30.5t1 -27.5q-15 -108 -92 -108q-71 0 -71 75q0 46 38 91v1z" />
    <glyph glyph-name="uFEC8" unicode="&#x638;" horiz-adv-x="696" arabic-form="medial" 
d="M118 566q81 128 104 174q13 35 21 74t8 85q0 32 -4.5 83.5t-12.5 123.5v21q0 89 73 89q70 0 83 -125q2 -31 3.5 -62t1.5 -59q0 -98 -26.5 -189t-78.5 -174q10 12 21.5 24t23.5 25q84 88 157 132t132 44q122 0 122 -155q0 -27 -3 -42v1q-13 -125 -96 -224
q-73 -88 -130 -136t-81 -61q37 -24 272 -30v-185q-173 2 -284 31t-156 67q-5 -2 -8 -3t-8 -4q-19 -9 -43.5 -22.5t-57 -26.5t-72 -24.5t-89.5 -18.5v185q65 9 110 24t70 34q-2 10 -2 21.5v22.5q-2 127 68 242l-4 -4q-21 -25 -48 -38.5t-54 -13.5q-39 0 -39 33q0 27 27 61z
M422 396q42 38 70.5 75.5t40.5 72.5q7 19 7 36q0 36 -28 36q-48 0 -108 -81q-110 -141 -99 -219q17 3 46 24t71 56zM587 1099q32 36 57 36q33 0 52 -33q10 -16 13 -31.5t0 -28.5q-14 -111 -92 -111q-70 0 -70 76q0 49 40 92z" />
    <glyph glyph-name="uFECA" unicode="&#x639;" horiz-adv-x="763" arabic-form="final" 
d="M156 -266q41 73 89.5 141.5t105.5 134.5q29 34 50.5 65t33.5 57q6 10 8.5 18t2.5 14q0 17 -17 24q-16 6 -49 -8q-33 -17 -60 -17q-26 0 -50 28q-13 14 -18 28t-5 31q0 43 48 68h-1q86 50 143.5 79t84.5 36h-1q48 17 74 17q89 0 89 -67q0 -17 -3 -35t-12 -38
q-9 -29 -9 -46q1 -36 28.5 -56t86.5 -23v-185q-59 4 -108.5 25.5t-87.5 56.5q-46 -47 -93.5 -106t-96.5 -126q-50 -72 -86.5 -136t-59.5 -123q-24 -59 -34.5 -113t-10.5 -104q0 -77 28.5 -138.5t84.5 -104.5q46 -35 114.5 -53.5t155.5 -18.5h25t24 1q103 6 200 35t186 79
q28 18 51.5 26t41.5 2q31 -14 31 -44q0 -17 -12 -36.5t-33 -35.5q-49 -40 -118 -76t-149 -61q-137 -43 -294 -43h-59q-432 69 -432 445q0 182 113 381v2z" />
    <glyph glyph-name="uFECB" unicode="&#x639;" horiz-adv-x="778" arabic-form="initial" 
d="M-8 185q31 -1 55.5 0t42.5 5q66 13 114 81q-80 72 -80 153q0 141 244 254q45 19 82 19q78 0 78 -59q0 -15 -8 -31q-6 -30 -102 -78q-101 -48 -85 -84q0 -31 66 -36q68 -5 170 49q77 44 73 46q76 30 102 11q14 -10 19 -26t5 -40q0 -49 -37 -87q-12 -12 -30.5 -24.5
t-35.5 -21.5h1q-10 -9 -30 -17.5t-44 -21.5q-24 -9 -45.5 -18t-40.5 -17v2q-4 -3 -12 -6t-10 -5q-32 -12 -60 -27t-47 -32q-55 -50 -97.5 -82t-72.5 -49q-45 -24 -99 -34.5t-116 -8.5v185z" />
    <glyph glyph-name="uFECC" unicode="&#x639;" horiz-adv-x="553" arabic-form="medial" 
d="M-10 185q160 2 175 37q-2 14 -20 29q-6 5 -14.5 15.5t-25.5 28.5v-1q-13 13 -19 23.5t-8 19.5q-4 35 9.5 62.5t44.5 44.5q25 16 62 22t88 4q113 -2 151 -15q49 -18 49 -72q0 -10 -0.5 -18.5t-1.5 -16.5q-9 -48 -46 -89q-27 -30 -30 -42q24 -35 161 -32v-185
q-58 0 -106 13t-88 42q-77 55 -87 48q-21 -2 -80 -54q-64 -55 -214 -49v185z" />
    <glyph glyph-name="uFECE" unicode="&#x63a;" horiz-adv-x="780" arabic-form="final" 
d="M168 -266q42 73 90.5 141.5t105.5 134.5q58 67 85 122q9 19 9 32q0 16 -15 24q-11 4 -22.5 1.5t-28.5 -9.5q-33 -17 -57 -17q-29 0 -53 28q-23 27 -23 59q0 43 48 68h-1q174 100 228 115h-1q48 17 75 17q89 0 89 -67q0 -33 -14 -73q-5 -14 -8 -26t-3 -20q1 -36 28.5 -56
t87.5 -23v-185q-60 4 -109.5 25.5t-85.5 56.5q-47 -47 -94.5 -106t-96.5 -126q-101 -144 -146 -259q-46 -114 -46 -217q0 -77 29 -138.5t84 -104.5q47 -35 115 -53.5t156 -18.5h24t24 1q103 6 200.5 35t187.5 79q27 18 50 26t41 2q17 -7 24.5 -20.5t5.5 -29.5
q-3 -17 -13 -34.5t-29 -31.5q-51 -40 -120 -76t-149 -61q-137 -43 -294 -43h-58q-433 69 -433 445q0 182 113 381v2zM380 695q2 42 30 85q27 41 60 48q3 1 8.5 1.5t8.5 0.5q60 0 60 -61q0 -24 -15 -65q-30 -73 -86 -73q-27 0 -47 19.5t-19 44.5z" />
    <glyph glyph-name="uFECF" unicode="&#x63a;" horiz-adv-x="774" arabic-form="initial" 
d="M-12 185q31 -1 55.5 0t42.5 5q66 13 114 81q-80 72 -80 153q0 141 244 254q45 19 82 19q78 0 78 -59q0 -15 -8 -31q-6 -30 -102 -78q-101 -48 -85 -84q0 -31 66 -36q68 -5 170 49q77 44 73 46q76 30 102 11q14 -10 19 -26t5 -40q0 -49 -37 -87q-12 -12 -30.5 -24.5
t-35.5 -21.5h1q-10 -9 -30 -17.5t-44 -21.5q-24 -9 -45.5 -18t-40.5 -17v2q-4 -3 -12 -6t-10 -5q-32 -12 -60 -27t-47 -32q-55 -50 -97.5 -82t-72.5 -49q-45 -24 -99 -34.5t-116 -8.5v185zM380 1076q34 38 63 38t48 -34q9 -13 12 -28t1 -28q-10 -51 -33 -81.5t-58 -30.5
q-72 0 -72 73q0 48 39 91z" />
    <glyph glyph-name="uFED0" unicode="&#x63a;" horiz-adv-x="553" arabic-form="medial" 
d="M-10 185q160 2 175 37q-2 14 -20 29q-6 5 -14.5 15.5t-25.5 28.5v-1q-13 13 -19 23.5t-8 19.5q-4 35 9.5 62.5t44.5 44.5q25 16 62 22t88 4q113 -2 151 -15q49 -18 49 -72q0 -10 -0.5 -18.5t-1.5 -16.5q-9 -48 -46 -89q-27 -30 -30 -42q24 -35 161 -32v-185
q-58 0 -106 13t-88 42q-77 55 -87 48q-21 -2 -80 -54q-64 -55 -214 -49v185zM275 847q33 37 64 37q29 0 47 -34q10 -16 13 -31t0 -27q-9 -50 -32.5 -81.5t-59.5 -31.5q-72 0 -72 78q0 46 40 90z" />
    <glyph glyph-name="uFED2" unicode="&#x641;" horiz-adv-x="2264" arabic-form="final" 
d="M384 354q18 106 61 113q44 11 50 -93q-2 -57 8.5 -113t33.5 -106q28 -57 68 -93.5t88 -50.5q54 -13 122 -21.5t129 -9.5q89 6 179 18t173.5 30t158.5 41t133 51q52 26 98 51.5t83.5 48t62 40.5t32.5 30q-15 40 -22.5 82t-7.5 84q0 34 6 67.5t16 64.5q12 36 30 68t44 56.5
t58 38t73 12.5q106 -5 141 -69q12 -23 18 -46t6 -50q0 -21 -4 -44q-13 -74 -62.5 -148t-123.5 -142q56 -73 240 -79v-185q-238 0 -356 174q-41 -42 -129.5 -99t-212.5 -122q-275 -141 -612 -161q-17 -1 -32 -1.5t-31 -0.5q-293 0 -441 181q-88 132 -82 315q0 33 4 68z
M2059 1103q25 36 67 36q62 0 62 -58q0 -7 -2 -16.5t-5 -19.5v1q-31 -116 -93 -116q-14 0 -27 5q-39 15 -39 63q0 22 8 48.5t29 56.5zM1974 533q-3 -12 -4 -23.5t-1 -22.5q0 -7 0.5 -19.5t1 -26.5t2.5 -26l3 -18l7 4q5 -4 41 35q38 45 43 98q5 54 -33 61q-41 -2 -60 -63v1z
" />
    <glyph glyph-name="uFED3" unicode="&#x641;" horiz-adv-x="382" arabic-form="initial" 
d="M-18 185h101q53 9 88 31.5t51 55.5q-48 -9 -73 -1q-32 3 -53.5 11t-31.5 20q-13 14 -22 34t-9 49q0 73 50 174q47 87 154 87q80 -11 111 -95q17 -42 24.5 -78.5t7.5 -71.5q0 -187 -96 -292q-106 -114 -302 -109v185zM174 954q36 46 78 46q24 0 35 -12q22 -22 22 -52
q0 -78 -76 -133q-9 -5 -26 -5q-71 0 -71 66q0 40 38 90zM174 462q-27 -30 -27 -58q0 -36 53 -36h17t19 3l4 28t2 25q0 27 -9 44q-1 5 -7.5 7.5t-16.5 0.5q-19 0 -35 -15v1z" />
    <glyph glyph-name="uFED4" unicode="&#x641;" horiz-adv-x="496" arabic-form="medial" 
d="M-12 185h40h4t13 1q23 1 44.5 4.5t38.5 14.5q-17 18 -26 44.5t-12 57.5q-7 79 27 155q15 31 54 66q56 46 110 46q71 0 118 -64q45 -61 43 -131q0 -26 -4 -51.5t-15 -52.5q-7 -21 -20 -41t-26 -34q5 -2 23 -4.5t39 -5t41 -4t28 -1.5v-185q-94 0 -163.5 18t-117.5 56
q-42 -38 -100.5 -56t-138.5 -18v185zM238 859q31 46 76 46q25 0 42.5 -17.5t17.5 -45.5q0 -73 -72 -132q-14 -6 -29 -6q-73 0 -73 69q0 37 38 86zM210 343q-4 -13 -4 -29q0 -45 39 -79q36 21 58.5 49t29.5 62q13 69 -40 76q-54 6 -83 -79z" />
    <glyph glyph-name="uFED6" unicode="&#x642;" horiz-adv-x="1523" arabic-form="final" 
d="M83 -388q-7 26 -11.5 51.5t-4.5 50.5q0 243 441 600q144 116 189 116q24 0 24 -28q0 -64 -70 -115q-81 -72 -141.5 -126.5t-106.5 -100.5q-97 -79 -144.5 -157.5t-47.5 -158.5q0 -50 20 -91t62 -72q85 -63 234 -63q32 0 69.5 3.5t75.5 12.5q103 17 192 58t167 103
q54 43 99.5 97t80.5 116q16 22 28 45t21 48q-6 1 -15.5 4t-22.5 8h1q-52 15 -84 53q-47 47 -47 125q0 62 29 140q30 78 72.5 116.5t102.5 38.5q70 0 115 -59q35 -45 35 -144v-22t-1 -15q-1 -7 0 -19t-1 -33q21 -7 42 -8t49 -1v-185h-113q-71 -205 -211 -348.5t-332 -225.5
q-93 -38 -181.5 -58t-170.5 -20q-86 0 -160 21t-134 61q-114 72 -150 182zM781 593q-67 -10 -70 41q-3 21 8 41t36 35q101 54 230.5 89.5t291.5 54.5q18 3 33 3h28h19t16 -1q80 -10 82 -46q8 -34 -112 -50q-115 -14 -295 -70q-93 -28 -158 -52.5t-107 -44.5h-2zM1231 209
q8 -7 40 -12q23 -7 38 -1q2 9 2 17v15q0 73 -27 73q-11 0 -23.5 -13.5t-24.5 -34.5q-13 -27 -5 -43v-1z" />
    <glyph glyph-name="uFED7" unicode="&#x642;" horiz-adv-x="572" arabic-form="initial" 
d="M-11 185h102q51 9 85 31.5t50 55.5q-45 -9 -73 -1q-31 3 -52.5 11t-32.5 20q-30 27 -30 83q0 75 48 174q50 87 156 87q82 -11 113 -95q29 -83 29 -150q0 -94 -23 -166t-73 -126q-106 -114 -299 -109v185zM62 967q125 76 313 76q88 0 129 -15h-2q64 -18 64 -46
q0 -35 -88 -39q-98 -8 -193.5 -29t-178.5 -56l2 1q-16 -12 -36 -12q-58 0 -58 52q0 37 48 68zM180 462q-29 -31 -29 -58q0 -18 14.5 -27t39.5 -9h17t19 3q2 13 3.5 27t1.5 24q0 14 -2.5 25t-6.5 21q-2 11 -23 8q-20 0 -34 -14z" />
    <glyph glyph-name="uFED8" unicode="&#x642;" horiz-adv-x="503" arabic-form="medial" 
d="M76 790q107 64 270 64q73 0 115 -13h-1q55 -17 55 -39q0 -32 -79 -38q-82 -7 -163.5 -25.5t-158.5 -52.5q-14 -3 -32 -3q-53 0 -53 42q0 36 47 65zM-5 185h40h4t13 1q23 1 44.5 4.5t38.5 14.5q-17 18 -26 44.5t-12 57.5q-7 79 27 155q15 31 54 66q56 46 110 46
q71 0 118 -64q45 -61 43 -131q0 -26 -4 -51.5t-15 -52.5q-7 -21 -20 -41t-26 -34q5 -2 23 -4.5t39 -5t41 -4t28 -1.5v-185q-94 0 -163.5 18t-117.5 56q-42 -38 -100.5 -56t-138.5 -18v185zM217 343q-4 -13 -4 -29q0 -45 39 -79q36 21 58.5 49t29.5 62q13 69 -40 76
q-54 6 -83 -79z" />
    <glyph glyph-name="uFEDE" unicode="&#x644;" horiz-adv-x="1610" arabic-form="final" 
d="M22 -450q11 94 65.5 194.5t138.5 194.5q27 30 75.5 72.5t116.5 97.5q26 21 54.5 37t52.5 24q18 8 36 8q41 0 41 -32q0 -18 -24 -48.5t-70 -67.5q-100 -84 -231 -239q-102 -123 -102 -227q0 -58 32.5 -110t92.5 -90q116 -71 285 -71q187 0 343 87q58 31 112.5 85t97.5 115
q42 70 72 151t45 163q6 42 9 86.5t3 89.5q0 34 -1.5 92t-3.5 130q-4 34 -5.5 68t-4.5 65q-7 86 -14 151q-6 149 91 149q39 0 64 -42q11 -34 16 -55t3 -33q7 -75 15 -149.5t15 -150.5v1q14 -111 173 -111v-185q-29 0 -48 0.5t-30 3.5q-10 2 -20 5t-23 8q-21 6 -35.5 16
t-26.5 20q-8 -159 -46.5 -292t-102 -240t-152.5 -188t-199 -132q-71 -31 -159.5 -49t-181.5 -18q-236 0 -392 92h1q-181 103 -181 282z" />
    <glyph glyph-name="uFEDF" unicode="&#x644;" horiz-adv-x="368" arabic-form="initial" 
d="M-8 185q51 3 85.5 24t55.5 55q30 62 30 187q0 28 -2 74t-8 113q-6 140 73 140q26 0 42 -11t24 -30q18 -46 29 -109.5t11 -148.5q0 -87 -9.5 -149t-26.5 -100q-46 -105 -123 -163.5t-181 -66.5v185z" />
    <glyph glyph-name="uFEE0" unicode="&#x644;" horiz-adv-x="518" arabic-form="medial" 
d="M528 0q-196 -6 -274 184q-13 -45 -35.5 -79t-53.5 -55q-69 -44 -174 -50v185q57 0 97 9.5t64 37.5q24 25 36.5 134t18.5 307q11 40 26 60.5t35 24.5q21 5 37.5 -3.5t30.5 -24.5q24 -38 20 -90v-18q0 -24 -1 -80t-4 -144q-2 -115 41 -164t136 -49v-185z" />
    <glyph glyph-name="uFEE2" unicode="&#x645;" horiz-adv-x="967" arabic-form="final" 
d="M204 -1027q-28 -75 -48 -75q-11 0 -17.5 9t-12.5 29q-11 36 -17 124.5t-6 233.5q0 29 0.5 59t0.5 61q3 200 22.5 341.5t55.5 231.5q78 179 259 285q90 52 135 79.5t50 31.5q11 38 20.5 69.5t25 53t39 33.5t62.5 12q15 0 39.5 -14.5t57.5 -38.5q65 -50 65 -104
q3 -53 -25 -97.5t-83 -68.5q4 -13 18 -20.5t40 -13.5q28 -7 52 -8.5t44 0.5v-186q-40 -2 -80.5 4t-79.5 19q-39 14 -74.5 48.5t-65.5 88.5q-31 -4 -75.5 -19t-89.5 -36.5t-85.5 -47.5t-65.5 -51q-39 -38 -66.5 -92t-43.5 -119q-13 -59 -20.5 -125t-7.5 -138q0 -64 -1 -124
t-3 -124.5t-6.5 -140t-12.5 -169.5v-1z" />
    <glyph glyph-name="uFEE3" unicode="&#x645;" horiz-adv-x="469" arabic-form="initial" 
d="M-9 185q44 0 81.5 7.5t67.5 27.5q23 24 38.5 58.5t14.5 75.5q-2 95 71 98q67 5 129 -68q60 -71 54 -168q-31 -120 -196 -173q-83 -25 -148 -34t-112 -9v185z" />
    <glyph glyph-name="uFEE4" unicode="&#x645;" horiz-adv-x="612" arabic-form="medial" 
d="M-12 185h38q27 0 48.5 6.5t38.5 23.5q20 24 40 46t38 41q32 35 66 35q11 0 26.5 -4.5t31.5 -13.5t31.5 -21t26.5 -26q48 -45 85.5 -63t75.5 -24h95v-185q-124 0 -190 49q4 -20 -2 -41.5t-18 -33.5q-21 -24 -45.5 -35t-55.5 -11q-23 6 -44 32t-38.5 56t-31 56t-24.5 34
q-14 -30 -35 -51t-47 -34t-54 -18t-56 -3v185z" />
    <glyph glyph-name="uFEE6" unicode="&#x646;" horiz-adv-x="1031" arabic-form="final" 
d="M265 -61q16 21 52.5 57t85 79t103.5 88.5t106 85.5t93 71.5t64 45.5q62 40 104 64t61 31q20 7 37 7q44 0 47 -46q6 -38 -55 -94q-29 -27 -43 -52t-9 -48q4 -47 131 -43v-185q-135 -4 -195 48q-31 28 -49.5 60t-25.5 74q-130 -57 -305 -229q-91 -87 -155.5 -181
t-104.5 -192q-66 -162 -66 -313q0 -30 3 -60q7 -90 37 -158t81 -118q101 -101 236 -120q39 -7 76.5 -10t74.5 -3q30 0 61.5 1.5t61.5 6.5q63 10 128.5 23.5t119.5 31.5q55 17 93 31t60 20q43 7 43 -40q2 -22 -21.5 -44.5t-68.5 -50.5q-138 -73 -288.5 -114.5t-297.5 -40.5
q-153 2 -267 54.5t-188 158.5q-60 83 -88 179.5t-28 210.5q0 32 2 66.5t8 68.5q20 154 92.5 300.5t193.5 278.5zM201 595q16 17 32 27t30 10q28 0 49 -34q10 -17 13 -33.5t0 -29.5q-9 -50 -32.5 -80t-59.5 -30q-74 0 -74 77q0 22 10.5 45.5t31.5 47.5z" />
    <glyph glyph-name="uFEE7" unicode="&#x646;" horiz-adv-x="463" arabic-form="initial" 
d="M-9 5v180q82 2 170 41q43 18 76 42t56.5 52t37.5 58t22 60h15q19 0 33 -10t27 -27q10 -16 15.5 -33.5t5.5 -35.5q0 -15 -5 -34q-40 -116 -175 -207q-70 -47 -137 -69t-136 -22zM331 878q34 36 60 36q30 0 50 -33q18 -35 15 -61q-21 -112 -94 -112t-73 79q0 22 9.5 44.5
t32.5 46.5z" />
    <glyph glyph-name="uFEE8" unicode="&#x646;" horiz-adv-x="445" arabic-form="medial" 
d="M158 727q36 36 65 36q32 0 49 -35l-1 2q19 -33 16 -59q-20 -111 -94 -111t-74 78q0 40 39 89zM-7 185q49 0 91 16t75 42.5t57.5 60.5t40.5 72q6 13 17 19.5t24.5 7t26.5 -3t24 -11.5q11 -10 16.5 -27t6 -35.5t-2 -37t-7.5 -29.5q-12 -24 4 -49q13 -25 90 -25v-185
q-154 5 -199 101q-39 -53 -108.5 -77t-155.5 -24v185z" />
    <glyph glyph-name="uFEEA" unicode="&#x647;" horiz-adv-x="610" arabic-form="final" 
d="M98 -115q-23 50 -23 104q0 103 81 183q83 72 167 72q33 0 81 -22q18 -12 45.5 -19t62.5 -13q22 -3 43 -4t37 -1q6 0 14.5 -0.5t22.5 1.5v-186h-35q-130 0 -190 41q-20 13 -46 15.5t-49.5 -6t-39 -27.5t-13.5 -49q0 -10 2 -25t6 -35q14 -36 4 -54q-20 -64 -76 -64
q-55 0 -94 89z" />
    <glyph glyph-name="uFEEB" unicode="&#x647;" horiz-adv-x="887" arabic-form="initial" 
d="M-14 5v180q63 -1 107 3t68 15q-43 24 -63 61t-20 89q0 56 36 105q29 39 78 81t107 77q-40 31 -58.5 58.5t-18.5 47.5q0 29 37 48q155 -56 272 -98t193 -70q78 -27 120 -62.5t42 -76.5q0 -20 -11.5 -46t-35.5 -53q-37 -51 -81 -90.5t-88 -63.5q-35 -19 -76 -30t-83 -17
q-34 -2 -72 -4.5t-76 -1.5q-46 -45 -105 -77.5t-123 -55.5q-53 -16 -89.5 -22.5t-57.5 -1.5zM399 401q6 8 16 24.5t23 43.5h-1q5 11 5.5 20t0.5 16q0 29 -31 29q-13 0 -27.5 -5.5t-29.5 -17.5q-37 -25 -80 -78q-42 -55 -42 -92q0 -45 73 -45q29 27 52.5 54t40.5 51zM534 347
q-13 -17 -21.5 -29.5t-14.5 -19.5q85 12 144 60q58 43 58 88q0 60 -91 62q-11 -75 -75 -161z" />
    <glyph glyph-name="uFEEC" unicode="&#x647;" horiz-adv-x="833" arabic-form="medial" 
d="M-19 185q124 0 246 35.5t257 107.5q11 4 29 4q21 0 35 -10t21.5 -26t11.5 -36t4 -38q-3 -36 -50 -73q-40 -24 -86 -54.5t-97 -66.5q-48 -35 -94.5 -77.5t-84.5 -89.5q-10 -12 -15 -29t-5 -35q0 -17 7.5 -28t24.5 -11q24 0 43 18.5t48 53.5q84 86 163.5 164.5t159.5 136.5
h-1q38 27 84.5 39t92.5 15h81v-185h-39q-168 0 -248 -46q-41 -22 -70.5 -42.5t-55 -43t-50 -50.5t-56.5 -65q-61 -69 -81 -89q-24 -22 -50.5 -35t-57.5 -13q-35 0 -59 15t-39 38.5t-21.5 52t-6.5 57.5q0 41 12.5 74.5t32.5 64.5q39 44 84.5 79t91.5 69q2 2 7 5
q-43 -21 -75.5 -34.5t-61.5 -21.5t-59 -11.5t-67 -3.5z" />
    <glyph glyph-name="uFEEE" unicode="&#x648;" horiz-adv-x="763" arabic-form="final" 
d="M-21 -293q41 3 90.5 15t99.5 31t98 45.5t86 58t61 67.5t23 76q-38 8 -57 29t-27.5 47t-8 53t4.5 46q6 42 26 83.5t50.5 74.5t70 53.5t85.5 20.5q116 0 116 -171v-21.5t-2 -26.5q9 -2 27 -2.5t52 -0.5v-185h-130q-212 -374 -620 -390q-117 6 -100 61q3 34 55 36z" />
    <glyph glyph-name="uFEF0" unicode="&#x649;" horiz-adv-x="1087" arabic-form="final" 
d="M831 74q-37 -44 -91 -115.5t-126 -170.5q-75 -100 -163 -174.5t-190 -123.5v1q-85 -43 -185 -63.5t-218 -20.5h-51.5t-51.5 3q-62 8 -115 25.5t-100 44.5q-38 28 -30 60q11 35 95 27q17 -1 37.5 -2.5t45.5 -1.5q49 0 115 3.5t146 12.5q123 13 235 63t209 137
q102 89 182 179.5t150 191.5q86 128 146 128q35 0 59 -37q39 -35 81 -45.5t86 -10.5v-185q-71 0 -108 26q-14 8 -30.5 22t-33.5 36q-19 17 -38 17q-26 0 -56 -27z" />
    <glyph glyph-name=".notdef" horiz-adv-x="1700" 
d="M106 0v1700h1488v-1700h-1488zM1488 106v1488h-1276v-1488h1276z" />
    <glyph glyph-name=".null" 
 />
    <glyph glyph-name="nonmarkingreturn" horiz-adv-x="370" 
 />
    <glyph glyph-name="space" unicode=" " horiz-adv-x="370" 
 />
    <glyph glyph-name="exclam" unicode="!" horiz-adv-x="400" 
d="M186 113q18 87 96 87q20 0 35 -7q29 -17 29 -72q0 -75 -36 -104q-25 -22 -59 -22q-68 0 -68 81q0 15 3 37zM298 874q2 -9 5 -36.5t9 -73.5l4 -24q11 -139 11 -248q0 -48 -2 -86t-7 -66q-9 -51 -23 -77.5t-34 -26.5q-40 0 -54 92q0 6 -2.5 70.5t-8.5 177.5
q-5 113 -11.5 200t-14.5 142q-3 12 -3 23q0 63 47 63q18 0 38 -18t29 -60l8 -26t9 -26z" />
    <glyph glyph-name="percent" unicode="%" horiz-adv-x="695" 
d="M102 900q22 100 106 100q19 0 43 -14q26 -14 26 -73q0 -81 -46 -119q-27 -20 -57 -20q-78 0 -78 90q0 19 6 37v-1zM395 140q20 99 107 99q19 0 37 -11q17 -10 24 -28.5t7 -45.5q0 -82 -45 -120q-28 -21 -59 -21q-77 0 -77 90q0 17 6 37zM575 934q-136 -206 -242.5 -433
t-185.5 -469q-17 -54 -56 -54q-36 0 -36 60q0 39 12 86q24 94 68.5 204t109.5 240q58 117 119 222.5t126 200.5q38 55 78 55q35 0 35 -42q0 -32 -28 -70z" />
    <glyph glyph-name="parenleft" unicode="(" horiz-adv-x="916" 
d="M657 -302q-106 134 -183.5 266.5t-122.5 259.5q-29 84 -44.5 171t-15.5 169q0 161 61.5 318t177.5 302q14 20 31 34t30 19q24 7 40 -1t22 -30q16 -40 -7 -77q-26 -37 -58 -90.5t-70 -121.5q-39 -94 -58 -185.5t-19 -185.5q0 -78 13.5 -158t40.5 -160q24 -66 58.5 -134
t76.5 -132q28 -50 61 -95t71 -89q54 -67 54 -74h11q4 -12 7.5 -21t5.5 -17q8 -20 8 -39q0 -31 -26 -39h2q-64 -21 -167 110z" />
    <glyph glyph-name="parenright" unicode=")" horiz-adv-x="745" 
d="M216 -218q17 50 50 121t82 158q20 37 38.5 74.5t34.5 72t27 65.5t19 53q13 47 19.5 97.5t6.5 104.5q0 38 -3.5 79t-9.5 83q-15 86 -48 172.5t-79 165.5q-14 21 -35 49t-49 61q-6 7 -11.5 13.5t-11.5 11.5q-25 30 -36.5 43t-15.5 17q-14 17 -18 39q-7 64 37 71
q41 6 92 -44h-2q135 -125 216 -265t105 -293q6 -36 9 -74.5t3 -78.5q0 -352 -251 -783q-30 -52 -60.5 -82.5t-60.5 -42.5q-52 -17 -59 32q-2 14 1 35t10 45z" />
    <glyph glyph-name="asterisk" unicode="*" horiz-adv-x="680" 
d="M649 1104q0 -45 -59 -45l-16 1q-16 0 -24 4l-138 26l-9 -29l99 -69l21 -15q10 -7 13.5 -10t10.5 -10q22 -25 22 -44q0 -12 -12 -30q-7 -5 -29 -11q-21 0 -43 22l-26 31l-31 48l-47 68l-27 -12l31 -176q0 -58 -47 -58q-43 0 -43 56q0 31 16 98l19 80l-14 3q-9 3 -15 9
l-49 -68l-23 -34q-12 -20 -35 -44q-13 -13 -22 -18.5t-21 -5.5t-30 12q-7 10 -13 31q0 29 55 68l46 30l72 49l-5 9l-8 20l-80 -16l-58 -10l-38 -5q-57 0 -57 45q0 44 55 44q16 0 52 -6l46 -9l80 -18l4 13l9 13l-72 50l-45 29l-18 13q-38 38 -38 57q0 16 13 30q9 8 31 14
q20 0 43 -23l25 -33l32 -47l47 -67l31 12l-19 80q-16 70 -16 98q0 56 43 56q21 0 34 -16t13 -44l-6 -41l-10 -53l-15 -84l27 -8l47 67l28 44l13 19l16 17q20 21 42 21q15 0 30 -12q12 -12 12 -31q0 -20 -22 -43l-17 -15l-27 -19l-36 -24l-32 -23l-36 -24l17 -26l80 18l67 13
l31 2q55 0 55 -44zM379 1102q0 37 -37 37q-6 0 -26 -12q-5 -5 -11 -25q0 -12 12 -26l25 -10q37 0 37 36z" />
    <glyph glyph-name="plus" unicode="+" horiz-adv-x="943" 
d="M510 768q8 -16 16 -43.5t17 -65.5q9 -39 18.5 -72.5t19.5 -58.5q9 -2 36.5 -4.5t75.5 -7.5q42 -4 81 -10.5t71 -15.5q34 -6 53.5 -24t19.5 -45q0 -50 -46 -72v1q-21 -13 -139 -10q-20 1 -41 1.5t-36 1.5h-56q-5 -109 -8 -172.5t-5 -81.5q-12 -55 -32 -86t-51 -31
q-65 0 -67 84q0 47 -1 88.5t-1 78.5q0 34 1 64.5t1 54.5q-83 -10 -158 -17t-144 -13q-38 -4 -61.5 14t-23.5 57q0 60 46 77q51 16 127.5 29t183.5 21q0 17 -8.5 45t-25.5 70q-12 40 -18 73.5t-5 59.5q9 74 65 74q66 0 95 -64z" />
    <glyph glyph-name="comma" unicode="," horiz-adv-x="616" 
d="M416 360q-10 -24 -18 -41.5t-14 -29.5q-6 -13 -10 -24l-2 -1q8 6 27 6q31 0 61 -23q35 -31 35 -80q0 -47 -34 -105q-19 -33 -49.5 -51.5t-69.5 -18.5q-32 0 -56 12v-2q-66 30 -74 96q-2 6 -2 15v23q0 66 31.5 133t87.5 132q28 30 48.5 46.5t33.5 16.5q23 0 23 -31
q0 -25 -4 -43t-14 -30z" />
    <glyph glyph-name="hyphen" unicode="-" horiz-adv-x="930" 
d="M746 382q56 -21 56 -52q0 -14 -21 -32q-14 -10 -32.5 -15.5t-42.5 -2.5q-70 10 -135 10q-14 0 -32 -0.5t-31 -1.5q-52 -5 -105 -12t-109 -19q-10 -3 -16 -3q-55 0 -55 48q0 39 52 57q119 35 313 35q59 0 98 -3t59 -9h1z" />
    <glyph glyph-name="period" unicode="." horiz-adv-x="540" 
d="M223 148q19 112 124 112q21 0 45 -12q35 -21 35 -86q0 -49 -13.5 -85.5t-37.5 -57.5q-34 -27 -68 -27q-91 0 -91 105q0 23 6 51z" />
    <glyph glyph-name="slash" unicode="/" horiz-adv-x="695" 
d="M575 934q-136 -206 -242.5 -433t-185.5 -469q-17 -54 -56 -54q-36 0 -36 60q0 39 12 86q24 94 68.5 204t109.5 240q26 51 57 107.5t62.5 112.5t64 108t61.5 95q18 27 38.5 41t39.5 14q35 0 35 -42q0 -32 -28 -70z" />
    <glyph glyph-name="zero" unicode="0" horiz-adv-x="682" 
d="M258 424q0 -24 16 -40.5t38 -16.5q20 0 39 9t39 26q39 38 54 80q9 16 12 28.5t3 23.5q0 46 -49 46q-42 0 -81 -30q-35 -29 -53 -61.5t-18 -64.5zM140 322q-9 30 -9 72q0 136 115 238q46 39 95 60t101 21q163 0 152 -203q-4 -61 -42.5 -120.5t-107.5 -112.5
q-74 -57 -159 -57q-54 0 -91.5 24.5t-53.5 75.5v2z" />
    <glyph glyph-name="zero" unicode="&#x6f0;" horiz-adv-x="682" 
d="M258 424q0 -24 16 -40.5t38 -16.5q20 0 39 9t39 26q39 38 54 80q9 16 12 28.5t3 23.5q0 46 -49 46q-42 0 -81 -30q-35 -29 -53 -61.5t-18 -64.5zM140 322q-9 30 -9 72q0 136 115 238q46 39 95 60t101 21q163 0 152 -203q-4 -61 -42.5 -120.5t-107.5 -112.5
q-74 -57 -159 -57q-54 0 -91.5 24.5t-53.5 75.5v2z" />
    <glyph glyph-name="zero" unicode="&#x660;" horiz-adv-x="682" 
d="M258 424q0 -24 16 -40.5t38 -16.5q20 0 39 9t39 26q39 38 54 80q9 16 12 28.5t3 23.5q0 46 -49 46q-42 0 -81 -30q-35 -29 -53 -61.5t-18 -64.5zM140 322q-9 30 -9 72q0 136 115 238q46 39 95 60t101 21q163 0 152 -203q-4 -61 -42.5 -120.5t-107.5 -112.5
q-74 -57 -159 -57q-54 0 -91.5 24.5t-53.5 75.5v2z" />
    <glyph glyph-name="one" unicode="1" horiz-adv-x="528" 
d="M125 893q-17 26 -17 56q0 77 64 77q20 0 43.5 -17t43.5 -48q90 -137 138 -311t48 -382q0 -38 -1.5 -75t-4.5 -77q-8 -116 -74 -116q-31 0 -54.5 31t-17.5 85q7 52 7 107q0 181 -44.5 347t-130.5 323z" />
    <glyph glyph-name="one" unicode="&#x6f1;" horiz-adv-x="528" 
d="M125 893q-17 26 -17 56q0 77 64 77q20 0 43.5 -17t43.5 -48q90 -137 138 -311t48 -382q0 -38 -1.5 -75t-4.5 -77q-8 -116 -74 -116q-31 0 -54.5 31t-17.5 85q7 52 7 107q0 181 -44.5 347t-130.5 323z" />
    <glyph glyph-name="one" unicode="&#x661;" horiz-adv-x="528" 
d="M125 893q-17 26 -17 56q0 77 64 77q20 0 43.5 -17t43.5 -48q90 -137 138 -311t48 -382q0 -38 -1.5 -75t-4.5 -77q-8 -116 -74 -116q-31 0 -54.5 31t-17.5 85q7 52 7 107q0 181 -44.5 347t-130.5 323z" />
    <glyph glyph-name="two" unicode="2" horiz-adv-x="827" 
d="M102 529q-17 36 -24.5 75.5t-7.5 79.5q0 163 117 223q87 42 213.5 69t276.5 34q14 -1 30.5 -10t29.5 -27q23 -32 22 -56q-6 -29 -75 -40q-79 -15 -141 -26.5t-107 -21.5q-41 -8 -70 -13t-43 -8q-100 -22 -100 -120q0 -10 2 -21t4 -26q14 -100 86 -256
q50 -111 77.5 -172.5t33.5 -75.5q6 -19 10.5 -36.5t4.5 -34.5q0 -66 -58 -66q-49 0 -78 59q-77 174 -128 289.5t-75 180.5z" />
    <glyph glyph-name="two" unicode="&#x6f2;" horiz-adv-x="827" 
d="M102 529q-17 36 -24.5 75.5t-7.5 79.5q0 163 117 223q87 42 213.5 69t276.5 34q14 -1 30.5 -10t29.5 -27q23 -32 22 -56q-6 -29 -75 -40q-79 -15 -141 -26.5t-107 -21.5q-41 -8 -70 -13t-43 -8q-100 -22 -100 -120q0 -10 2 -21t4 -26q14 -100 86 -256
q50 -111 77.5 -172.5t33.5 -75.5q6 -19 10.5 -36.5t4.5 -34.5q0 -66 -58 -66q-49 0 -78 59q-77 174 -128 289.5t-75 180.5z" />
    </font>
</defs>
</svg>
