<?xml version="1.0" standalone="no"?>
<!DOCTYPE svg PUBLIC "-//W3C//DTD SVG 1.1//EN" "http://www.w3.org/Graphics/SVG/1.1/DTD/svg11.dtd" >
<svg xmlns="http://www.w3.org/2000/svg" xmlns:xlink="http://www.w3.org/1999/xlink" version="1.1">
<metadata>
Created by FontForge 20150824 at Mon Feb 15 22:48:43 2016
 By Everything Fonts
(c) by Abolfazl Seilsepour - +98 912 591 3420  -  seilsepor@yahoo.com
</metadata>
<defs>
<font id="tabssom" horiz-adv-x="0" >
  <font-face 
    font-family="tabssom"
    font-weight="400"
    font-stretch="normal"
    units-per-em="2048"
    panose-1="0 0 4 0 0 0 0 0 0 0"
    ascent="1638"
    descent="-410"
    bbox="-212 -990 2149 2056"
    underline-thickness="20"
    underline-position="-163"
    unicode-range="U+0020-FEFC"
  />
<missing-glyph horiz-adv-x="1024" 
d="M128 0v1401h768v-1401h-768zM256 128h512v1145h-512v-1145z" />
    <glyph glyph-name="uE818" unicode="&#x651;&#x64b;" 
d="M561 1435q0 -65 -40.5 -109.5t-105.5 -44.5q-37 0 -74 40q-45 -56 -118 -56q-77 0 -124 44t-47 120q0 122 139 187l-53 -101q-56 -39 -56 -86q0 -45 55 -71q43 -21 94 -21q90 0 90 37q0 69 -28 197l64 56q1 -55 6 -163q10 -117 70 -117q50 0 90 30q0 46 -34 137
q-32 87 -62 129l112 -86q22 -69 22 -122zM395 1883l-16 -72l-387 -70v52q77 6 180 18q47 6 223 72zM390 1701q-77 -6 -180 -18q-47 -6 -223 -72l16 72l387 70v-52z" />
    <glyph glyph-name="uFC5E" unicode="&#x651;&#x64c;" arabic-form="isolated" 
d="M589 1428q0 -65 -40.5 -109.5t-105.5 -44.5q-37 0 -74 40q-45 -56 -118 -56q-77 0 -124 44t-47 120q0 122 139 187l-53 -101q-56 -39 -56 -86q0 -45 55 -71q43 -21 94 -21q90 0 90 37q0 69 -28 197l64 56q1 -55 6 -163q10 -117 70 -117q50 0 90 30q0 46 -34 137
q-32 87 -62 129l112 -86q22 -69 22 -122zM506 1786q35 -19 68 -24l-80 -47l-46 30q-39 -28 -119 -63q-34 17 -140 39q116 41 116 112q0 30 -48 30q-53 0 -191 -77l44 117q52 8 92 8q143 0 143 -96q0 -41 -16 -70q51 19 77 35q-47 54 -53 109q-3 28 30 53q72 54 157 54
q34 0 48 -10q29 -13 29 -55q0 -78 -111 -145zM463 1951q-54 0 -54 -32q0 -34 53 -104q113 65 113 88q0 19 -48 35q-39 13 -64 13z" />
    <glyph glyph-name="uFC5F" unicode="&#x651;&#x64d;" arabic-form="isolated" 
d="M579 1831q0 -65 -40.5 -109.5t-105.5 -44.5q-37 0 -74 40q-45 -56 -118 -56q-77 0 -124 44t-47 120q0 122 139 187l-53 -101q-56 -39 -56 -86q0 -45 55 -71q43 -21 94 -21q90 0 90 37q0 69 -28 197l64 56q1 -55 6 -163q10 -117 70 -117q50 0 90 30q0 46 -34 137
q-32 87 -62 129l112 -86q22 -69 22 -122zM547 1648l-16 -72l-387 -70v52q77 6 180 18q47 6 223 72zM542 1466q-77 -6 -180 -18q-47 -6 -223 -72l16 72l387 70v-52z" />
    <glyph glyph-name="uFC60" unicode="&#x651;&#x64e;" arabic-form="isolated" 
d="M579 1398q0 -65 -40.5 -109.5t-105.5 -44.5q-37 0 -74 40q-45 -56 -118 -56q-77 0 -124 44t-47 120q0 122 139 187l-53 -101q-56 -39 -56 -86q0 -45 55 -71q43 -21 94 -21q90 0 90 37q0 69 -28 197l64 56q1 -55 6 -163q10 -117 70 -117q50 0 90 30q0 46 -34 137
q-32 87 -62 129l112 -86q22 -69 22 -122zM500 1769l-16 -72l-387 -70v52q77 6 180 18q47 6 223 72z" />
    <glyph glyph-name="uFC61" unicode="&#x651;&#x64f;" arabic-form="isolated" 
d="M598 1407q0 -65 -40.5 -109.5t-105.5 -44.5q-37 0 -74 40q-45 -56 -118 -56q-77 0 -124 44t-47 120q0 122 139 187l-53 -101q-56 -39 -56 -86q0 -45 55 -71q43 -21 94 -21q90 0 90 37q0 69 -28 197l64 56q1 -55 6 -163q10 -117 70 -117q50 0 90 30q0 46 -34 137
q-32 87 -62 129l112 -86q22 -69 22 -122zM403 1839l-50 -86l-58 6q-23 -43 -81 -125q-44 -10 -133 -40q28 18 91 90q54 61 67 83q-78 23 -112 74q-19 28 -4 66q27 70 89 114q49 35 81 35q34 0 57 -31q20 -28 20 -63q0 -64 -42 -137q43 0 75 14zM293 1987q-37 0 -82 -19
q-56 -24 -56 -54q0 -40 115 -84q57 106 57 140q0 17 -34 17z" />
    <glyph glyph-name="uFC62" unicode="&#x651;&#x650;" arabic-form="isolated" 
d="M570 1678q0 -65 -40.5 -109.5t-105.5 -44.5q-37 0 -74 40q-45 -56 -118 -56q-77 0 -124 44t-47 120q0 122 139 187l-53 -101q-56 -39 -56 -86q0 -45 55 -71q43 -21 94 -21q90 0 90 37q0 69 -28 197l64 56q1 -55 6 -163q10 -117 70 -117q50 0 90 30q0 46 -34 137
q-32 87 -62 129l112 -86q22 -69 22 -122zM542 1481l-16 -72l-387 -70v52q77 6 180 18q47 6 223 72z" />
    <glyph glyph-name="uFDF2" unicode="&#xfedf;&#xfee0;&#xfeea;" horiz-adv-x="1565" arabic-form="isolated" 
d="M1080 1416q0 -102 -30 -156l-16 35q6 14 6 103q0 75 -23 119l56 49q7 -77 7 -150zM1241 1029q0 -58 -35.5 -96.5t-92.5 -38.5q-32 0 -65 35q-39 -49 -103 -49q-67 0 -108.5 38.5t-41.5 105.5q0 107 122 164l-47 -89q-49 -34 -49 -75q0 -40 48 -63q37 -18 83 -18
q79 0 79 32q0 61 -25 173l56 49q1 -48 6 -143q8 -102 61 -102q44 0 79 26q0 40 -30 120q-28 76 -54 113l98 -75q19 -61 19 -107zM1565 348q0 -125 -62 -221q-71 -111 -190 -111q-150 0 -230 189q-82 -205 -250 -205q-100 0 -171 87q-63 77 -70 170q-55 -120 -98 -127
q-49 -8 -107 -8q-66 0 -140 13q-112 20 -112 56q0 83 122 227q116 137 228 200l82 -102q-153 -35 -263 -128q-92 -78 -92 -129q0 -15 86 -27q70 -10 108 -10q170 0 170 146q0 29 -14 351l101 -82q-3 -39 -3 -339q0 -184 164 -184q117 0 181 87q47 64 47 126q0 43 -33 485
l115 -75l5 -404q3 -209 163 -209q85 0 163 79q66 66 66 105q0 72 -98 254q-87 162 -162 255l178 -99q116 -163 116 -370z" />
    <glyph glyph-name="uFEF5" unicode="&#xfedf;&#xfe82;" horiz-adv-x="897" arabic-form="isolated" 
d="M897 796q0 -191 -105 -351q103 -169 103 -318q0 -43 -8 -50q-34 -29 -144 -55q-92 -22 -133 -22q-32 0 -50 37q-15 30 -15 65q0 162 154 358l-192 230q-135 161 -172 297l70 112q76 -239 181 -379q7 -9 159 -200q65 91 65 252q0 150 -58 329l77 80q68 -217 68 -385z
M859 173q-45 131 -107 212q-129 -132 -179 -247q-16 -36 30 -36q150 0 256 71zM619 1375q-97 -152 -207 -152q-39 0 -113.5 29t-94.5 29q-55 -60 -72 -128l-23 79q91 131 181 131q31 0 101.5 -32.5t104.5 -32.5q33 28 70 139z" />
    <glyph glyph-name="uFEF6" unicode="&#xfee0;&#xfe82;" horiz-adv-x="1041" arabic-form="final" 
d="M1053 0h-12q-50 0 -109 27.5t-92 65.5q-51 60 -65 191q-44 -144 -132 -214q-75 -60 -229 -98l-78 107q88 11 264 59q18 41 18 98q0 149 -112 352q-29 53 -123 184q-79 111 -102 163l37 122q31 -70 125 -205q104 -149 128 -199q94 -194 94 -385q0 -64 -12 -103
q89 56 89 273q0 115 -41 743l102 -82l37 -815q8 -170 201 -170h12v-114zM619 1375q-97 -152 -207 -152q-39 0 -113.5 29t-94.5 29q-55 -60 -72 -128l-23 79q91 131 181 131q31 0 101.5 -32.5t104.5 -32.5q33 28 70 139z" />
    <glyph glyph-name="uFEF7" unicode="&#xfedf;&#xfe84;" horiz-adv-x="693" arabic-form="isolated" 
d="M693 796q0 -191 -105 -351q103 -169 103 -318q0 -43 -8 -50q-34 -29 -144 -55q-92 -22 -133 -22q-32 0 -50 37q-15 30 -15 65q0 162 154 358l-192 230q-135 161 -172 297l70 112q76 -239 181 -379q7 -9 159 -200q65 91 65 252q0 150 -58 329l77 80q68 -217 68 -385z
M655 173q-45 131 -107 212q-129 -132 -179 -247q-16 -36 30 -36q150 0 256 71zM405 1403l-27 -79q-39 -7 -113 -31q-74 -34 -160 -151v74q31 39 114 108q-94 33 -94 95q0 60 71 128q64 61 97 61q46 0 65 -77q11 -45 1 -107l-45 47q11 25 11 44q0 28 -27 28q-39 0 -91 -32
q-56 -35 -56 -71q0 -15 44 -37q51 -26 103 -26q42 0 107 26z" />
    <glyph glyph-name="uFEF8" unicode="&#xfee0;&#xfe84;" horiz-adv-x="891" arabic-form="final" 
d="M903 0h-12q-50 0 -109 27.5t-92 65.5q-51 60 -65 191q-44 -144 -132 -214q-75 -60 -229 -98l-78 107q88 11 264 59q18 41 18 98q0 149 -112 352q-29 53 -123 184q-79 111 -102 163l37 122q31 -70 125 -205q104 -149 128 -199q94 -194 94 -385q0 -64 -12 -103
q89 56 89 273q0 115 -41 743l102 -82l37 -815q8 -170 201 -170h12v-114zM405 1403l-27 -79q-39 -7 -113 -31q-74 -34 -160 -151v74q31 39 114 108q-94 33 -94 95q0 60 71 128q64 61 97 61q46 0 65 -77q11 -45 1 -107l-45 47q11 25 11 44q0 28 -27 28q-39 0 -91 -32
q-56 -35 -56 -71q0 -15 44 -37q51 -26 103 -26q42 0 107 26z" />
    <glyph glyph-name="uFEF9" unicode="&#xfedf;&#xfe88;" horiz-adv-x="693" arabic-form="isolated" 
d="M693 796q0 -191 -105 -351q103 -169 103 -318q0 -43 -8 -50q-34 -29 -144 -55q-92 -22 -133 -22q-32 0 -50 37q-15 30 -15 65q0 162 154 358l-192 230q-135 161 -172 297l70 112q76 -239 181 -379q7 -9 159 -200q65 91 65 252q0 150 -58 329l77 80q68 -217 68 -385z
M655 173q-45 131 -107 212q-129 -132 -179 -247q-16 -36 30 -36q150 0 256 71zM505 -297l-27 -79q-39 -7 -113 -31q-74 -34 -160 -151v74q31 38 114 108q-94 33 -94 95q0 60 71 128q64 61 97 61q46 0 65 -77q11 -45 1 -107l-45 47q11 25 11 44q0 28 -27 28q-39 0 -91 -32
q-56 -35 -56 -71q0 -25 63 -46q53 -17 84 -17q42 0 107 26z" />
    <glyph glyph-name="uFEFA" unicode="&#xfee0;&#xfe88;" horiz-adv-x="891" arabic-form="final" 
d="M903 0h-12q-50 0 -109 27.5t-92 65.5q-51 60 -65 191q-44 -144 -132 -214q-75 -60 -229 -98l-78 107q88 11 264 59q18 41 18 98q0 149 -112 352q-29 53 -123 184q-79 111 -102 163l37 122q31 -70 125 -205q104 -149 128 -199q94 -194 94 -385q0 -64 -12 -103
q89 56 89 273q0 115 -41 743l102 -82l37 -815q8 -170 201 -170h12v-114zM505 -297l-27 -79q-39 -7 -113 -31q-74 -34 -160 -151v74q31 38 114 108q-94 33 -94 95q0 60 71 128q64 61 97 61q46 0 65 -77q11 -45 1 -107l-45 47q11 25 11 44q0 28 -27 28q-39 0 -91 -32
q-56 -35 -56 -71q0 -25 63 -46q53 -17 84 -17q42 0 107 26z" />
    <glyph glyph-name="uFEFB" unicode="&#xfedf;&#xfe8e;" horiz-adv-x="693" arabic-form="isolated" 
d="M693 796q0 -191 -105 -351q103 -169 103 -318q0 -43 -8 -50q-34 -29 -144 -55q-92 -22 -133 -22q-32 0 -50 37q-15 30 -15 65q0 162 154 358l-192 230q-135 161 -172 297l70 112q76 -239 181 -379q7 -9 159 -200q65 91 65 252q0 150 -58 329l77 80q68 -217 68 -385z
M655 173q-45 131 -107 212q-129 -132 -179 -247q-16 -36 30 -36q150 0 256 71z" />
    <glyph glyph-name="uFEFC" unicode="&#xfee0;&#xfe8e;" horiz-adv-x="891" arabic-form="final" 
d="M903 0h-12q-50 0 -109 27.5t-92 65.5q-51 60 -65 191q-44 -144 -132 -214q-75 -60 -229 -98l-78 107q88 11 264 59q18 41 18 98q0 149 -112 352q-29 53 -123 184q-79 111 -102 163l37 122q31 -70 125 -205q104 -149 128 -199q94 -194 94 -385q0 -64 -12 -103
q89 56 89 273q0 115 -41 743l102 -82l37 -815q8 -170 201 -170h12v-114z" />
    <glyph glyph-name="u0652_u064E.liga" unicode="&#x652;&#x64e;" horiz-adv-x="1" 
d="M187 1317q-8 -62 -14 -146q-3 -38 35 -188l-75 23l-2 318z" />
    <glyph glyph-name="u0652_u064B.liga" unicode="&#x652;&#x64b;" horiz-adv-x="1" 
d="M543 801q0 -74 -73 -74q-31 0 -52.5 21.5t-21.5 52.5q0 73 74 73q30 0 51.5 -21.5t21.5 -51.5zM337 801q0 -74 -73 -74q-31 0 -52.5 21.5t-21.5 52.5q0 73 74 73q30 0 51.5 -21.5t21.5 -51.5z" />
    <glyph glyph-name="u0652_u064D.liga" unicode="&#x652;&#x64d;" horiz-adv-x="1" 
d="M895 -447q0 -74 -73 -74q-31 0 -52.5 21.5t-21.5 52.5q0 73 74 73q30 0 51.5 -21.5t21.5 -51.5zM689 -447q0 -74 -73 -74q-31 0 -52.5 21.5t-21.5 52.5q0 73 74 73q30 0 51.5 -21.5t21.5 -51.5z" />
    <glyph glyph-name="u0622" unicode="&#x622;" horiz-adv-x="595" arabic-form="isolated" 
d="M595 1419q-97 -152 -206 -152q-39 0 -115 29t-94 29q-54 -62 -71 -128l-23 79q91 131 180 131q30 0 101.5 -32.5t105.5 -32.5q33 28 70 140zM416 351q0 -281 -74 -401q-28 -45 -121 -103l-44 90q138 43 170 134q18 52 4 264l-58 855l114 -95q9 -446 9 -744z" />
    <glyph glyph-name="u0623" unicode="&#x623;" horiz-adv-x="438" arabic-form="isolated" 
d="M438 1418l-34 -79q-39 -7 -113 -31q-74 -34 -160 -151v74q31 39 114 108q-94 33 -94 95q0 60 71 128q64 61 97 61q46 0 65 -77q11 -45 1 -107l-45 47q11 25 11 44q0 28 -27 28q-39 0 -91 -32q-56 -35 -56 -71q0 -15 44 -37q51 -26 103 -26q42 0 114 26zM390 351
q0 -281 -74 -401q-28 -45 -121 -103l-44 90q138 43 170 134q18 52 4 264l-58 855l114 -95q9 -446 9 -744z" />
    <glyph glyph-name="u0624" unicode="&#x624;" horiz-adv-x="504" arabic-form="isolated" 
d="M503 368q0 -237 -70 -434q-45 -127 -102 -198l-179 -60q105 137 122 165q96 154 128 334q-58 -37 -102 -37q-93 0 -136 101q-32 75 -32 180q0 129 70 218q55 70 98 70q91 0 151 -118q52 -103 52 -221zM419 368q0 144 -45 231q-35 68 -67 68q-91 -62 -91 -282
q0 -182 46 -182q42 0 93 44l52 -40q12 84 12 161zM476 1025l-27 -79q-39 -7 -113 -31q-74 -34 -160 -151v74q31 39 114 108q-94 33 -94 95q0 60 71 128q64 61 97 61q46 0 65 -77q11 -45 1 -107l-45 47q11 25 11 44q0 28 -27 28q-39 0 -91 -32q-56 -35 -56 -71q0 -15 44 -37
q51 -26 103 -26q42 0 107 26z" />
    <glyph glyph-name="u0625" unicode="&#x625;" horiz-adv-x="438" arabic-form="isolated" 
d="M438 -402l-34 -79q-39 -7 -113 -31q-74 -34 -160 -151v74q31 38 114 108q-94 33 -94 95q0 60 71 128q64 61 97 61q46 0 65 -77q11 -45 1 -107l-45 47q11 25 11 44q0 28 -27 28q-39 0 -91 -32q-56 -35 -56 -71q0 -25 63 -46q53 -17 84 -17q42 0 114 26zM390 351
q0 -281 -74 -401q-28 -45 -121 -103l-44 90q138 43 170 134q18 52 4 264l-58 855l114 -95q9 -446 9 -744z" />
    <glyph glyph-name="u0626" unicode="&#x626;" horiz-adv-x="1516" arabic-form="isolated" 
d="M1516 519l-58 -89q6 73 -100 73q-78 0 -212 -81q-103 -62 -161 -117q-12 -11 9 -17l484 -142q27 -8 8 -47q-54 -111 -205 -203q-210 -128 -511 -128q-229 0 -411 91q-228 114 -228 322q0 137 120 223q108 78 250 78q96 0 208 -29l68 -125q-167 114 -301 114
q-98 0 -165 -53q-73 -57 -73 -153q0 -200 236 -302q178 -77 406 -77q169 0 339 73q123 53 179 106q18 17 -14 26l-434 129q-41 12 -41 41q0 8 4 19q45 128 222 245q170 113 296 113q86 0 86 -77q0 -7 -1 -13zM490 754l-27 -79q-39 -7 -113 -31q-74 -34 -160 -151v74
q31 39 114 108q-94 33 -94 95q0 60 71 128q64 61 97 61q46 0 65 -77q11 -45 1 -107l-45 47q11 25 11 44q0 28 -27 28q-39 0 -91 -32q-56 -35 -56 -71q0 -15 44 -37q51 -26 103 -26q42 0 107 26z" />
    <glyph glyph-name="u0627" unicode="&#x627;" horiz-adv-x="372" arabic-form="isolated" 
d="M370 351q0 -281 -74 -401q-28 -45 -121 -103l-44 90q138 43 170 134q18 52 4 264l-58 855l114 -95q9 -446 9 -744z" />
    <glyph glyph-name="u0628" unicode="&#x628;" horiz-adv-x="1630" arabic-form="isolated" 
d="M1630 345l-40 -91q-137 -75 -394 -157q-342 -109 -582 -109q-483 0 -483 266q0 158 177 301v-100q-135 -97 -135 -150q0 -61 113 -122q144 -78 384 -78q219 0 492 70q254 66 468 170zM826 -214q0 -74 -73 -74q-31 0 -52.5 21.5t-21.5 52.5q0 73 74 73q30 0 51.5 -21.5
t21.5 -51.5z" />
    <glyph glyph-name="u0629" unicode="&#x629;" horiz-adv-x="606" arabic-form="isolated" 
d="M526 1096l-49 -74q-27 39 -65 39q-31 0 -61 -16q-35 -18 -35 -47q23 -25 159 -70q34 -11 14 -46q-70 -124 -280 -143l-18 94q33 -14 85 -14q89 0 154 49q-41 14 -83 29q-48 17 -76 41q-26 22 0 60q83 119 182 119q37 0 73 -21zM607 165q0 -77 -52 -107q-101 -58 -228 -58
q-196 0 -196 124q0 90 66 207q53 94 118 163q-33 20 -100 49l132 33q11 -8 31 -25q24 19 70 49l88 -77q-26 -9 -86 -42q58 -56 104 -142q53 -99 53 -174zM557 179q0 36 -46 117q-54 95 -122 142q-42 -27 -119 -120q-85 -103 -105 -164q15 -40 152 -40q94 0 170 25
q61 20 70 40z" />
    <glyph glyph-name="u062A" unicode="&#x62a;" horiz-adv-x="1630" arabic-form="isolated" 
d="M1630 345l-40 -91q-137 -75 -394 -157q-342 -109 -582 -109q-483 0 -483 266q0 158 177 301v-100q-135 -97 -135 -150q0 -61 113 -122q144 -78 384 -78q219 0 492 70q254 66 468 170zM999 596q0 -74 -73 -74q-31 0 -52.5 21.5t-21.5 52.5q0 73 74 73q30 0 51.5 -21.5
t21.5 -51.5zM793 596q0 -74 -73 -74q-31 0 -52.5 21.5t-21.5 52.5q0 73 74 73q30 0 51.5 -21.5t21.5 -51.5z" />
    <glyph glyph-name="u062B" unicode="&#x62b;" horiz-adv-x="1630" arabic-form="isolated" 
d="M1630 345l-40 -91q-137 -75 -394 -157q-342 -109 -582 -109q-483 0 -483 266q0 158 177 301v-100q-135 -97 -135 -150q0 -61 113 -122q144 -78 384 -78q219 0 492 70q254 66 468 170zM896 803q0 -30 -21.5 -51.5t-51.5 -21.5q-74 0 -74 73q0 31 21.5 52.5t52.5 21.5
q30 0 51.5 -22t21.5 -52zM999 596q0 -30 -21.5 -52t-51.5 -22q-31 0 -52.5 21.5t-21.5 52.5q0 73 74 73q30 0 51.5 -21.5t21.5 -51.5zM793 596q0 -30 -21.5 -52t-51.5 -22q-31 0 -52.5 21.5t-21.5 52.5q0 73 74 73q30 0 51.5 -21.5t21.5 -51.5z" />
    <glyph glyph-name="u062C" unicode="&#x62c;" horiz-adv-x="852" arabic-form="isolated" 
d="M907 -312l-41 -173q-156 -114 -325 -114q-186 0 -298 116.5t-112 303.5q0 196 113 316q98 105 222 105q72 0 148 -32q-5 41 34.5 150.5t39.5 161.5q0 48 -21 104q-27 72 -65 72q-91 -40 -245 -201l42 145q96 84 193 84q87 0 143 -68q54 -64 54 -152q0 -45 -35 -135.5
t-35 -128.5q0 -57 38.5 -92.5t96.5 -35.5l-91 -86l-144 96q-97 64 -171 77q-75 -31 -134 -122q-74 -115 -74 -270q0 -138 66 -243q76 -121 207 -121q97 0 218 82q100 68 176 161zM626 -204q0 -74 -73 -74q-31 0 -52.5 21.5t-21.5 52.5q0 73 74 73q30 0 51.5 -21.5
t21.5 -51.5z" />
    <glyph glyph-name="u062D" unicode="&#x62d;" horiz-adv-x="854" arabic-form="isolated" 
d="M907 -312l-41 -173q-156 -114 -325 -114q-186 0 -298 116.5t-112 303.5q0 196 113 316q98 105 222 105q72 0 148 -32q-5 41 34.5 150.5t39.5 161.5q0 48 -21 104q-27 72 -65 72q-91 -40 -245 -201l42 145q96 84 193 84q87 0 143 -68q54 -64 54 -152q0 -45 -35 -135.5
t-35 -128.5q0 -57 38.5 -92.5t96.5 -35.5l-91 -86l-144 96q-97 64 -171 77q-75 -31 -134 -122q-74 -115 -74 -270q0 -138 66 -243q76 -121 207 -121q97 0 218 82q100 68 176 161z" />
    <glyph glyph-name="u062E" unicode="&#x62e;" horiz-adv-x="846" arabic-form="isolated" 
d="M907 -312l-41 -173q-156 -114 -325 -114q-186 0 -298 116.5t-112 303.5q0 196 113 316q98 105 222 105q72 0 148 -32q-5 41 34.5 150.5t39.5 161.5q0 48 -21 104q-27 72 -65 72q-91 -40 -245 -201l42 145q96 84 193 84q87 0 143 -68q54 -64 54 -152q0 -45 -35 -135.5
t-35 -128.5q0 -57 38.5 -92.5t96.5 -35.5l-91 -86l-144 96q-97 64 -171 77q-75 -31 -134 -122q-74 -115 -74 -270q0 -138 66 -243q76 -121 207 -121q97 0 218 82q100 68 176 161zM676 946q0 -74 -73 -74q-31 0 -52.5 21.5t-21.5 52.5q0 73 74 73q30 0 51.5 -21.5t21.5 -51.5
z" />
    <glyph glyph-name="u062F" unicode="&#x62f;" horiz-adv-x="600" arabic-form="isolated" 
d="M600 296q0 -28 -17 -91t-32 -83q-37 -49 -153 -105q-123 -59 -210 -59q-108 0 -116 63l7 117q44 -66 140 -66q95 0 208 54q124 59 124 126q0 79 -88 222q-72 117 -132 117q-18 0 -39 -9q62 93 118 93q76 0 139 -156q51 -130 51 -223z" />
    <glyph glyph-name="u0630" unicode="&#x630;" horiz-adv-x="600" arabic-form="isolated" 
d="M600 296q0 -28 -17 -91t-32 -83q-37 -49 -153 -105q-123 -59 -210 -59q-108 0 -116 63l7 117q44 -66 140 -66q95 0 208 54q124 59 124 126q0 79 -88 222q-72 117 -132 117q-18 0 -39 -9q62 93 118 93q76 0 139 -156q51 -130 51 -223zM426 946q0 -74 -73 -74
q-31 0 -52.5 21.5t-21.5 52.5q0 73 74 73q30 0 51.5 -21.5t21.5 -51.5z" />
    <glyph glyph-name="u0631" unicode="&#x631;" horiz-adv-x="408" arabic-form="isolated" 
d="M408 618q4 -425 -29 -573q-42 -189 -132 -308l-174 -51q43 51 84 113q168 256 168 595q0 87 -8 159z" />
    <glyph glyph-name="u0632" unicode="&#x632;" horiz-adv-x="426" arabic-form="isolated" 
d="M408 618q4 -425 -29 -573q-42 -189 -132 -308l-174 -51q43 51 84 113q168 256 168 595q0 87 -8 159zM426 756q0 -74 -73 -74q-31 0 -52.5 21.5t-21.5 52.5q0 73 74 73q30 0 51.5 -21.5t21.5 -51.5z" />
    <glyph glyph-name="u0633" unicode="&#x633;" horiz-adv-x="1934" arabic-form="isolated" 
d="M1934 299q0 -76 -44 -147q-51 -82 -122 -82q-59 0 -108 41.5t-64 100.5q-9 -49 -45 -94q-44 -55 -102 -55q-86 0 -140 72q-7 -96 -37 -237q-29 -58 -193 -122q-190 -74 -398 -74q-191 0 -352 83q-198 102 -198 276q0 142 126 227q110 74 259 74q80 0 174 -21l68 -124
q-160 105 -301 105q-69 0 -127 -34q-92 -54 -92 -172q0 -169 189 -252q141 -62 333 -62q300 0 486 116q3 34 3 70q0 290 -132 586l84 101q30 -66 78 -279q38 -170 83 -207q34 -28 77 -28q126 0 126 170q0 35 -32 359l95 -76v-301q0 -145 96 -145q76 0 127 45q41 36 41 69
q0 73 -78 230q-60 121 -111 193l161 -91q70 -164 70 -315z" />
    <glyph glyph-name="u0634" unicode="&#x634;" horiz-adv-x="1932" arabic-form="isolated" 
d="M1934 299q0 -76 -44 -147q-51 -82 -122 -82q-59 0 -108 41.5t-64 100.5q-9 -49 -45 -94q-44 -55 -102 -55q-86 0 -140 72q-7 -96 -37 -237q-29 -58 -193 -122q-190 -74 -398 -74q-191 0 -352 83q-198 102 -198 276q0 142 126 227q110 74 259 74q80 0 174 -21l68 -124
q-160 105 -301 105q-69 0 -127 -34q-92 -54 -92 -172q0 -169 189 -252q141 -62 333 -62q300 0 486 116q3 34 3 70q0 290 -132 586l84 101q30 -66 78 -279q38 -170 83 -207q34 -28 77 -28q126 0 126 170q0 35 -32 359l95 -76v-301q0 -145 96 -145q76 0 127 45q41 36 41 69
q0 73 -78 230q-60 121 -111 193l161 -91q70 -164 70 -315zM1611 1073q0 -30 -21.5 -51.5t-51.5 -21.5q-74 0 -74 73q0 31 21.5 52.5t52.5 21.5q30 0 51.5 -22t21.5 -52zM1714 866q0 -30 -21.5 -52t-51.5 -22q-31 0 -52.5 21.5t-21.5 52.5q0 73 74 73q30 0 51.5 -21.5
t21.5 -51.5zM1508 866q0 -30 -21.5 -52t-51.5 -22q-31 0 -52.5 21.5t-21.5 52.5q0 73 74 73q30 0 51.5 -21.5t21.5 -51.5z" />
    <glyph glyph-name="u0635" unicode="&#x635;" horiz-adv-x="2032" arabic-form="isolated" 
d="M2032 548q0 -185 -152 -329q-165 -156 -413 -156q-98 0 -157 50q-9 -88 -38 -215q-29 -58 -193 -122q-190 -74 -398 -74q-191 0 -352 83q-198 102 -198 276q0 142 126 227q110 74 259 74q80 0 174 -21l68 -124q-160 105 -301 105q-69 0 -127 -34q-92 -54 -92 -172
q0 -169 189 -252q141 -62 333 -62q300 0 486 116q3 34 3 70q0 290 -132 586l84 101q20 -43 79 -272q40 -157 111 -201l-10 104q359 403 508 403q143 0 143 -161zM1942 386q13 59 13 84q0 89 -101 189q-96 -67 -243 -232q-115 -130 -194 -238q30 -12 71 -12q324 0 454 209z
" />
    <glyph glyph-name="u0636" unicode="&#x636;" horiz-adv-x="2030" arabic-form="isolated" 
d="M2032 548q0 -185 -152 -329q-165 -156 -413 -156q-98 0 -157 50q-9 -88 -38 -215q-29 -58 -193 -122q-190 -74 -398 -74q-191 0 -352 83q-198 102 -198 276q0 142 126 227q110 74 259 74q80 0 174 -21l68 -124q-160 105 -301 105q-69 0 -127 -34q-92 -54 -92 -172
q0 -169 189 -252q141 -62 333 -62q300 0 486 116q3 34 3 70q0 290 -132 586l84 101q20 -43 79 -272q40 -157 111 -201l-10 104q359 403 508 403q143 0 143 -161zM1942 386q13 59 13 84q0 89 -101 189q-96 -67 -243 -232q-115 -130 -194 -238q30 -12 71 -12q324 0 454 209z
M1945 935q0 -74 -73 -74q-31 0 -52.5 21.5t-21.5 52.5q0 73 74 73q30 0 51.5 -21.5t21.5 -51.5z" />
    <glyph glyph-name="u0637" unicode="&#x637;" horiz-adv-x="933" arabic-form="isolated" 
d="M933 485q0 -185 -152 -329q-165 -156 -413 -156q-121 0 -182 33l-55 139q63 -43 163 -53l-12 124l45 49q88 96 88 188q0 73 -75 691l106 -98l25 -502q2 -44 -9 -137q217 212 328 212q143 0 143 -161zM843 323q13 59 13 84q0 89 -101 189q-99 -70 -245 -233
q-118 -132 -198 -246q33 -3 77 -3q324 0 454 209z" />
    <glyph glyph-name="u0638" unicode="&#x638;" horiz-adv-x="934" arabic-form="isolated" 
d="M933 485q0 -185 -152 -329q-165 -156 -413 -156q-121 0 -182 33l-55 139q63 -43 163 -53l-12 124l45 49q88 96 88 188q0 73 -75 691l106 -98l25 -502q2 -44 -9 -137q217 212 328 212q143 0 143 -161zM843 323q13 59 13 84q0 89 -101 189q-99 -70 -245 -233
q-118 -132 -198 -246q33 -3 77 -3q324 0 454 209zM855 935q0 -74 -73 -74q-31 0 -52.5 21.5t-21.5 52.5q0 73 74 73q30 0 51.5 -21.5t21.5 -51.5z" />
    <glyph glyph-name="u0639" unicode="&#x639;" horiz-adv-x="854" arabic-form="isolated" 
d="M940 -326l-40 -183q-178 -126 -371 -126q-182 0 -292 119q-106 115 -106 299q0 354 291 469q-100 72 -100 194q0 176 88 279q75 87 171 87q145 0 273 -101l-40 -95q-75 125 -205 172q-198 -63 -198 -345q0 -85 16 -135q87 -40 217 -40t208 19l-80 -98q-73 26 -145 26
q-193 0 -293 -129q-91 -117 -91 -315q0 -151 66 -247q76 -110 220 -110q110 0 210 68q84 57 201 192z" />
    <glyph glyph-name="u063A" unicode="&#x63a;" horiz-adv-x="870" arabic-form="isolated" 
d="M940 -326l-40 -183q-178 -126 -371 -126q-182 0 -292 119q-106 115 -106 299q0 354 291 469q-100 72 -100 194q0 176 88 279q75 87 171 87q145 0 273 -101l-40 -95q-75 125 -205 172q-198 -63 -198 -345q0 -85 16 -135q87 -40 217 -40t208 19l-80 -98q-73 26 -145 26
q-193 0 -293 -129q-91 -117 -91 -315q0 -151 66 -247q76 -110 220 -110q110 0 210 68q84 57 201 192zM665 976q0 -74 -73 -74q-31 0 -52.5 21.5t-21.5 52.5q0 73 74 73q30 0 51.5 -21.5t21.5 -51.5z" />
    <glyph glyph-name="u0641" unicode="&#x641;" horiz-adv-x="1330" arabic-form="isolated" 
d="M1330 385q0 -260 -225 -341q-122 -44 -424 -44q-306 0 -449 122q-101 86 -101 204q0 195 221 329v-109q-123 -54 -173 -157q19 -80 84 -137q157 -138 523 -138q492 0 492 180q0 87 -37 225q-43 162 -95 195q-50 -32 -80 -125q-25 -77 -25 -151q0 -174 72 -174
q31 0 100 105l66 -43q-100 -84 -178 -84q-64 0 -102 61q-33 53 -33 121q0 104 51 208q56 114 129 114q67 0 121 -90q63 -104 63 -271zM1155 946q0 -74 -73 -74q-31 0 -52.5 21.5t-21.5 52.5q0 73 74 73q30 0 51.5 -21.5t21.5 -51.5z" />
    <glyph glyph-name="u0642" unicode="&#x642;" horiz-adv-x="1332" arabic-form="isolated" 
d="M1332 184q0 -169 -32 -228q-39 -72 -185 -128q-177 -68 -397 -68q-209 0 -379 89q-208 109 -208 300q0 137 120 223q108 78 250 78q96 0 208 -30l68 -124q-167 114 -301 114q-100 0 -166 -53q-72 -57 -72 -154q0 -197 223 -283q155 -60 388 -60q248 0 422 101
q0 185 -25 347q-14 88 -50 205q-47 150 -90 179q-50 -33 -80 -123q-25 -76 -25 -149q0 -173 72 -173q31 0 100 105l66 -44q-100 -84 -178 -84q-64 0 -102 61q-33 53 -33 121q0 104 51 208q56 114 129 114q103 0 168 -179q58 -160 58 -365zM1259 946q0 -74 -73 -74
q-31 0 -52.5 21.5t-21.5 52.5q0 73 74 73q30 0 51.5 -21.5t21.5 -51.5zM1053 946q0 -74 -73 -74q-31 0 -52.5 21.5t-21.5 52.5q0 73 74 73q30 0 51.5 -21.5t21.5 -51.5z" />
    <glyph glyph-name="u0643" unicode="&#x643;" horiz-adv-x="1437" arabic-form="isolated" 
d="M1437 964l-406 -202q166 -77 283 -225q70 -88 88 -153q6 -22 6 -45q0 -41 -15 -92q-17 -60 -42 -81q-71 -59 -257 -115q-240 -72 -513 -72q-179 0 -299 65q-151 82 -151 245q0 158 177 301v-100q-135 -97 -135 -150q0 -70 98 -144q133 -100 366 -100q262 0 503 73
q215 65 215 114t-89 160q-133 166 -363 251l1 102l533 262v-94z" />
    <glyph glyph-name="u0644" unicode="&#x644;" horiz-adv-x="1265" arabic-form="isolated" 
d="M1258 -45q-16 -42 -143 -86q-147 -51 -320 -51q-213 0 -413 90q-251 113 -251 301q0 137 120 223q108 78 250 78q96 0 208 -30l68 -124q-167 114 -301 114q-100 0 -166 -53q-72 -57 -72 -154q0 -185 264 -286q198 -76 417 -76q188 0 303 65l-109 1251l116 -95
q37 -730 37 -1022q0 -124 -8 -145z" />
    <glyph glyph-name="u0645" unicode="&#x645;" horiz-adv-x="841" arabic-form="isolated" 
d="M841 282q4 -25 4 -48q0 -87 -48 -158q-54 -80 -137 -80q-91 0 -159 85q-11 14 -117 209q-74 136 -139 146q-30 -117 -30 -297q0 -204 41 -398l-90 -98q-35 217 -35 371q0 219 48 365q41 125 91 125q61 0 119 -91q5 92 40 159q46 88 127 88q84 0 163 -90q93 -106 122 -288
zM647 541q-53 72 -96 72t-64 -59q-15 -42 -15 -92q0 -165 86 -317q55 -98 117 -98q78 0 78 162q0 188 -106 332z" />
    <glyph glyph-name="u0646" unicode="&#x646;" horiz-adv-x="1342" arabic-form="isolated" 
d="M1304 606q38 -165 38 -351q0 -222 -45 -302q-34 -61 -182 -117q-179 -68 -397 -68q-209 0 -378 88q-209 109 -209 300q0 137 120 223q108 78 250 78q96 0 208 -29l68 -125q-167 114 -301 114q-98 0 -165 -53q-73 -57 -73 -153q0 -198 222 -284q155 -60 389 -60
q246 0 422 102q1 39 1 78q0 274 -56 465zM905 751q0 -74 -73 -74q-31 0 -52.5 21.5t-21.5 52.5q0 73 74 73q30 0 51.5 -21.5t21.5 -51.5z" />
    <glyph glyph-name="u0647" unicode="&#x647;" horiz-adv-x="607" arabic-form="isolated" 
d="M607 165q0 -77 -52 -107q-101 -58 -228 -58q-196 0 -196 124q0 90 66 207q53 94 118 163q-33 20 -100 49l132 33q11 -8 31 -25q24 19 70 49l88 -77q-26 -9 -86 -42q58 -56 104 -142q53 -99 53 -174zM557 179q0 36 -46 117q-54 95 -122 142q-42 -27 -119 -120
q-85 -103 -105 -164q15 -40 152 -40q94 0 170 25q61 20 70 40z" />
    <glyph glyph-name="u0648" unicode="&#x648;" horiz-adv-x="502" arabic-form="isolated" 
d="M502 368q0 -237 -70 -434q-45 -127 -102 -198l-179 -60q105 137 122 165q96 154 128 334q-58 -37 -102 -37q-93 0 -136 101q-32 75 -32 180q0 129 70 218q55 70 98 70q91 0 151 -118q52 -103 52 -221zM418 368q0 144 -45 231q-35 68 -67 68q-91 -62 -91 -282
q0 -182 46 -182q42 0 93 44l52 -40q12 84 12 161z" />
    <glyph glyph-name="u0649" unicode="&#x649;" horiz-adv-x="1516" arabic-form="isolated" 
d="M1516 519l-58 -89q6 73 -100 73q-78 0 -212 -81q-103 -62 -161 -117q-12 -11 9 -17l484 -142q27 -8 8 -47q-54 -111 -205 -203q-210 -128 -511 -128q-229 0 -411 91q-228 114 -228 322q0 137 120 223q108 78 250 78q96 0 208 -29l68 -125q-167 114 -301 114
q-98 0 -165 -53q-73 -57 -73 -153q0 -200 236 -302q178 -77 406 -77q169 0 339 73q123 53 179 106q18 17 -14 26l-434 129q-41 12 -41 41q0 8 4 19q45 128 222 245q170 113 296 113q86 0 86 -77q0 -7 -1 -13z" />
    <glyph glyph-name="u064A" unicode="&#x64a;" horiz-adv-x="1516" arabic-form="isolated" 
d="M1516 519l-58 -89q6 73 -100 73q-78 0 -212 -81q-103 -62 -161 -117q-12 -11 9 -17l484 -142q27 -8 8 -47q-54 -111 -205 -203q-210 -128 -511 -128q-229 0 -411 91q-228 114 -228 322q0 137 120 223q108 78 250 78q96 0 208 -29l68 -125q-167 114 -301 114
q-98 0 -165 -53q-73 -57 -73 -153q0 -200 236 -302q178 -77 406 -77q169 0 339 73q123 53 179 106q18 17 -14 26l-434 129q-41 12 -41 41q0 8 4 19q45 128 222 245q170 113 296 113q86 0 86 -77q0 -7 -1 -13z" />
    <glyph glyph-name="u067E" unicode="&#x67e;" horiz-adv-x="1630" arabic-form="isolated" 
d="M1630 345l-40 -91q-137 -75 -394 -157q-342 -109 -582 -109q-483 0 -483 266q0 158 177 301v-100q-135 -97 -135 -150q0 -61 113 -122q144 -78 384 -78q219 0 492 70q254 66 468 170zM933 -214q0 -74 -73 -74q-31 0 -52.5 21.5t-21.5 52.5q0 73 74 73q30 0 51.5 -21.5
t21.5 -51.5zM727 -214q0 -74 -73 -74q-31 0 -52.5 21.5t-21.5 52.5q0 73 74 73q30 0 51.5 -21.5t21.5 -51.5zM830 -422q0 -30 -21.5 -51.5t-51.5 -21.5q-74 0 -74 73q0 31 21.5 52.5t52.5 21.5q73 0 73 -74z" />
    <glyph glyph-name="u0686" unicode="&#x686;" horiz-adv-x="852" arabic-form="isolated" 
d="M907 -312l-41 -173q-156 -114 -325 -114q-186 0 -298 116.5t-112 303.5q0 196 113 316q98 105 222 105q72 0 148 -32q-5 41 34.5 150.5t39.5 161.5q0 48 -21 104q-27 72 -65 72q-91 -40 -245 -201l42 145q96 84 193 84q87 0 143 -68q54 -64 54 -152q0 -45 -35 -135.5
t-35 -128.5q0 -57 38.5 -92.5t96.5 -35.5l-91 -86l-144 96q-97 64 -171 77q-75 -31 -134 -122q-74 -115 -74 -270q0 -138 66 -243q76 -121 207 -121q97 0 218 82q100 68 176 161zM711 -139q0 -67 -66 -67t-66 67q0 65 66 65t66 -65zM526 -139q0 -67 -66 -67q-67 0 -67 67
q0 65 67 65q66 0 66 -65zM618 -326q0 -66 -65 -66q-67 0 -67 66t67 66q65 0 65 -66z" />
    <glyph glyph-name="u0698" unicode="&#x698;" horiz-adv-x="525" arabic-form="isolated" 
d="M408 618q4 -425 -29 -573q-42 -189 -132 -308l-174 -51q43 51 84 113q168 256 168 595q0 87 -8 159zM421 963q0 -30 -21.5 -51.5t-51.5 -21.5q-74 0 -74 73q0 31 21.5 52.5t52.5 21.5q30 0 51.5 -22t21.5 -52zM524 756q0 -30 -21.5 -52t-51.5 -22q-31 0 -52.5 21.5
t-21.5 52.5q0 73 74 73q30 0 51.5 -21.5t21.5 -51.5zM318 756q0 -30 -21.5 -52t-51.5 -22q-31 0 -52.5 21.5t-21.5 52.5q0 73 74 73q30 0 51.5 -21.5t21.5 -51.5z" />
    <glyph glyph-name="u06AF" unicode="&#x6af;" horiz-adv-x="1438" arabic-form="isolated" 
d="M1438 1097l-535 -261v46l535 260v-45zM1437 964l-406 -202q166 -77 283 -225q70 -88 88 -153q6 -22 6 -45q0 -41 -15 -92q-17 -60 -42 -81q-71 -59 -257 -115q-240 -72 -513 -72q-179 0 -299 65q-151 82 -151 245q0 158 177 301v-100q-135 -97 -135 -150q0 -70 98 -144
q133 -100 366 -100q262 0 503 73q215 65 215 114t-89 160q-133 166 -363 251l1 102l533 262v-94z" />
    <glyph glyph-name="uFB57" unicode="&#x67e;" horiz-adv-x="1704" arabic-form="final" 
d="M1716 0h-12q-50 0 -101 39q-47 37 -67 86t-20 92q-117 -61 -346 -131q-321 -98 -556 -98q-483 0 -483 266q0 158 177 301v-100q-135 -97 -135 -150q0 -61 113 -122q144 -78 384 -78q219 0 491 70q252 66 467 170l-71 -159q51 -72 147 -72h12v-114zM933 -214
q0 -74 -73 -74q-31 0 -52.5 21.5t-21.5 52.5q0 73 74 73q30 0 51.5 -21.5t21.5 -51.5zM727 -214q0 -74 -73 -74q-31 0 -52.5 21.5t-21.5 52.5q0 73 74 73q30 0 51.5 -21.5t21.5 -51.5zM830 -422q0 -30 -21.5 -51.5t-51.5 -21.5q-74 0 -74 73q0 31 21.5 52.5t52.5 21.5
q73 0 73 -74z" />
    <glyph glyph-name="uFB58" unicode="&#x67e;" horiz-adv-x="410" arabic-form="initial" 
d="M268 324q0 -131 -67 -222q-74 -102 -201 -102h-12v114h12q96 0 170 65q61 54 61 89q0 108 -72 260q-56 119 -103 172l154 -94q58 -154 58 -282zM399 -214q0 -74 -73 -74q-31 0 -52.5 21.5t-21.5 52.5q0 73 74 73q30 0 51.5 -21.5t21.5 -51.5zM193 -214q0 -74 -73 -74
q-31 0 -52.5 21.5t-21.5 52.5q0 73 74 73q30 0 51.5 -21.5t21.5 -51.5zM296 -422q0 -30 -21.5 -51.5t-51.5 -21.5q-74 0 -74 73q0 31 21.5 52.5t52.5 21.5q73 0 73 -74z" />
    <glyph glyph-name="uFB59" unicode="&#x67e;" horiz-adv-x="444" arabic-form="medial" 
d="M455 0h-12q-72 0 -135 68q-48 52 -66 137q-27 -75 -63 -116q-78 -89 -179 -89h-12v114h12q55 0 117 38q102 63 102 163q0 65 -6 196t-6 196l101 -87q-16 -171 -16 -230q0 -122 12 -170q7 -29 32 -62q33 -44 107 -44h12v-114zM396 -214q0 -74 -73 -74q-31 0 -52.5 21.5
t-21.5 52.5q0 73 74 73q30 0 51.5 -21.5t21.5 -51.5zM190 -214q0 -74 -73 -74q-31 0 -52.5 21.5t-21.5 52.5q0 73 74 73q30 0 51.5 -21.5t21.5 -51.5zM293 -422q0 -30 -21.5 -51.5t-51.5 -21.5q-74 0 -74 73q0 31 21.5 52.5t52.5 21.5q73 0 73 -74z" />
    <glyph glyph-name="uFB7B" unicode="&#x686;" horiz-adv-x="840" arabic-form="final" 
d="M907 -312l-41 -173q-156 -114 -325 -114q-186 0 -298 116.5t-112 303.5q0 196 113 316q98 105 222 105q72 0 148 -32q-5 41 34.5 150.5t39.5 161.5q0 48 -21 104q-27 72 -65 72q-91 -40 -245 -201l42 145q96 84 193 84q87 0 143 -68q54 -64 54 -152q0 -45 -35 -135.5
t-35 -128.5q0 -53 35 -90.5t88 -37.5h12v-114h-12q-43 0 -173 89q-140 96 -221 112q-75 -31 -134 -122q-74 -115 -74 -270q0 -138 66 -243q76 -121 207 -121q97 0 218 82q100 68 176 161zM711 -139q0 -67 -66 -67t-66 67q0 65 66 65t66 -65zM526 -139q0 -67 -66 -67
q-67 0 -67 67q0 65 67 65q66 0 66 -65zM618 -326q0 -66 -65 -66q-67 0 -67 66t67 66q65 0 65 -66z" />
    <glyph glyph-name="uFB7C" unicode="&#x686;" horiz-adv-x="552" arabic-form="initial" 
d="M544 219l-43 -119q-262 -100 -501 -100h-12v114h12q170 0 296 28q-29 48 -29 106q0 48 32 146.5t32 142.5q0 48 -21 105q-27 72 -65 72q-91 -41 -245 -201l42 145q96 84 193 84q87 0 143 -68q54 -64 54 -152q0 -45 -36.5 -137t-36.5 -128q0 -82 58 -82q49 0 127 44z
M469 -214q0 -74 -73 -74q-31 0 -52.5 21.5t-21.5 52.5q0 73 74 73q30 0 51.5 -21.5t21.5 -51.5zM263 -214q0 -74 -73 -74q-31 0 -52.5 21.5t-21.5 52.5q0 73 74 73q30 0 51.5 -21.5t21.5 -51.5zM366 -422q0 -30 -21.5 -51.5t-51.5 -21.5q-74 0 -74 73q0 31 21.5 52.5
t52.5 21.5q73 0 73 -74z" />
    <glyph glyph-name="uFB7D" unicode="&#x686;" horiz-adv-x="486" arabic-form="medial" 
d="M497 4h-12q-29 0 -96 21.5t-100 21.5q-49 0 -144.5 -23.5t-144.5 -23.5h-12v114h12q40 0 116.5 18.5t115.5 18.5q27 0 57 -6q-28 46 -28 99q0 47 35 142t35 139q0 48 -21 105q-27 72 -65 72q-91 -41 -245 -201l42 145q96 84 193 84q88 0 144 -68q53 -63 53 -153
q0 -44 -36.5 -137t-36.5 -127q0 -52 37 -90t89 -38h12v-113zM427 -214q0 -74 -73 -74q-31 0 -52.5 21.5t-21.5 52.5q0 73 74 73q30 0 51.5 -21.5t21.5 -51.5zM221 -214q0 -74 -73 -74q-31 0 -52.5 21.5t-21.5 52.5q0 73 74 73q30 0 51.5 -21.5t21.5 -51.5zM324 -422
q0 -30 -21.5 -51.5t-51.5 -21.5q-74 0 -74 73q0 31 21.5 52.5t52.5 21.5q73 0 73 -74z" />
    <glyph glyph-name="uFB8B" unicode="&#x698;" horiz-adv-x="550" arabic-form="final" 
d="M559 0h-12q-129 0 -180 126q0 -103 -60 -248q-46 -111 -83 -160l-174 -51q252 301 252 708q0 87 -8 159l91 64q-11 -327 35 -395q61 -89 127 -89h12v-114zM401 963q0 -30 -21.5 -51.5t-51.5 -21.5q-74 0 -74 73q0 31 21.5 52.5t52.5 21.5q30 0 51.5 -22t21.5 -52z
M504 756q0 -30 -21.5 -52t-51.5 -22q-31 0 -52.5 21.5t-21.5 52.5q0 73 74 73q30 0 51.5 -21.5t21.5 -51.5zM298 756q0 -30 -21.5 -52t-51.5 -22q-31 0 -52.5 21.5t-21.5 52.5q0 73 74 73q30 0 51.5 -21.5t21.5 -51.5z" />
    <glyph glyph-name="uFEDA" unicode="&#x6a9;" horiz-adv-x="1725" arabic-form="final" 
d="M1737 0h-12q-218 0 -341 230q-18 -64 -43 -86q-57 -50 -247 -101q-239 -64 -513 -64q-179 0 -299 65q-151 82 -151 245q0 158 177 301v-100q-135 -97 -135 -150q0 -70 98 -144q133 -100 366 -100q175 0 397 39q321 56 321 154q-20 69 -91 157q-132 163 -361 248l1 102
l533 262v-94l-406 -202q167 -78 283 -225q60 -77 107 -192q65 -159 83 -194q69 -37 221 -37h12v-114z" />
    <glyph glyph-name="uFEDB" unicode="&#x6a9;" horiz-adv-x="537" arabic-form="initial" 
d="M537 964l-406 -202q166 -77 283 -225q108 -136 108 -253q0 -174 -281 -249q-131 -35 -241 -35h-12v114h12q105 0 261 29q208 40 208 99q0 56 -98 185q-138 182 -368 267l1 102l533 262v-94z" />
    <glyph glyph-name="uFEDC" unicode="&#x6a9;" horiz-adv-x="825" arabic-form="medial" 
d="M837 0h-12q-195 0 -322 196q-47 -104 -263 -161q-132 -35 -240 -35h-12v114h12q105 0 261 29q208 40 208 99q0 56 -98 185q-138 182 -368 267l1 102l533 262v-94l-406 -202q167 -78 283 -225q60 -77 107 -192q65 -159 83 -194q69 -37 221 -37h12v-114z" />
    <glyph glyph-name="uFB93" unicode="&#x6af;" horiz-adv-x="1724" arabic-form="final" 
d="M1438 1098l-535 -261v46l535 260v-45zM1737 0h-12q-218 0 -341 230q-18 -64 -43 -86q-57 -50 -247 -101q-239 -64 -513 -64q-179 0 -299 65q-151 82 -151 245q0 158 177 301v-100q-135 -97 -135 -150q0 -70 98 -144q133 -100 366 -100q175 0 397 39q321 56 321 154
q-20 69 -91 157q-132 163 -361 248l1 102l533 262v-94l-406 -202q167 -78 283 -225q60 -77 107 -192q65 -159 83 -194q69 -37 221 -37h12v-114z" />
    <glyph glyph-name="uFB94" unicode="&#x6af;" horiz-adv-x="541" arabic-form="initial" 
d="M541 1098l-535 -261v46l535 260v-45zM537 964l-406 -202q166 -77 283 -225q108 -136 108 -253q0 -174 -281 -249q-131 -35 -241 -35h-12v114h12q105 0 261 29q208 40 208 99q0 56 -98 185q-138 182 -368 267l1 102l533 262v-94z" />
    <glyph glyph-name="uFB95" unicode="&#x6af;" horiz-adv-x="820" arabic-form="medial" 
d="M537 1096l-535 -261v46l535 260v-45zM867 0h-12q-195 0 -322 196q-47 -104 -263 -161q-132 -35 -240 -35h-12v114h12q105 0 261 29q208 40 208 99q0 56 -98 185q-138 182 -368 267l1 102l533 262v-94l-406 -202q167 -78 283 -225q60 -77 107 -192q65 -159 83 -194
q69 -37 221 -37h12v-114z" />
    <glyph glyph-name="uFE94" unicode="&#x6c0;" horiz-adv-x="810" arabic-form="final" 
d="M576 1106l-49 -74q-27 39 -65 39q-31 0 -61 -16q-35 -18 -35 -47q23 -25 159 -70q34 -11 14 -46q-70 -124 -280 -143l-18 94q33 -14 85 -14q89 0 154 49q-41 14 -83 29q-48 17 -76 41q-26 22 0 60q83 119 182 119q37 0 73 -21zM822 0h-12q-66 0 -125 52q-78 68 -99 198
q-24 -43 -40 -68q-24 -35 -43 -49q-24 -17 -108 -17q-75 0 -150 14q-113 21 -113 66q0 74 92 203q108 150 248 215l86 -94q-88 -16 -208 -87q-144 -85 -144 -158q0 -51 189 -51q79 0 114 16q54 25 54 94q0 11 -5 159q-4 118 0 221l99 -73q-15 -126 -15 -237q0 -130 24 -193
q37 -97 144 -97h12v-114z" />
    <glyph glyph-name="uFEF2" unicode="&#x6cc;" horiz-adv-x="1521" arabic-form="final" 
d="M1533 0h-12q-95 0 -209 50q-52 23 -174 94q-86 50 -112 50q-25 0 -25 -17q0 -5 177.5 -121t177.5 -154q0 -48 -162 -111q-187 -73 -406 -73q-232 0 -419 90q-238 115 -238 323q0 137 120 223q108 78 250 78q96 0 208 -29l68 -125q-167 114 -301 114q-98 0 -165 -53
q-73 -57 -73 -153q0 -200 246 -302q185 -77 414 -77q222 0 376 65q-65 59 -228 166q-122 80 -122 107q0 36 47 59q39 20 79 20q55 0 216.5 -55t254.5 -55h12v-114z" />
    <glyph glyph-name="uFEF3" unicode="&#x6cc;" horiz-adv-x="393" arabic-form="initial" 
d="M268 324q0 -131 -67 -222q-74 -102 -201 -102h-12v114h12q96 0 170 65q61 54 61 89q0 108 -72 260q-56 119 -103 172l154 -94q58 -154 58 -282zM389 -214q0 -74 -73 -74q-31 0 -52.5 21.5t-21.5 52.5q0 73 74 73q30 0 51.5 -21.5t21.5 -51.5zM183 -214q0 -74 -73 -74
q-31 0 -52.5 21.5t-21.5 52.5q0 73 74 73q30 0 51.5 -21.5t21.5 -51.5z" />
    <glyph glyph-name="uFEF4" unicode="&#x6cc;" horiz-adv-x="447" arabic-form="medial" 
d="M455 0h-12q-72 0 -135 68q-48 52 -66 137q-27 -75 -63 -116q-78 -89 -179 -89h-12v114h12q55 0 117 38q102 63 102 163q0 65 -6 196t-6 196l101 -87q-16 -171 -16 -230q0 -122 12 -170q7 -29 32 -62q33 -44 107 -44h12v-114zM405 -214q0 -74 -73 -74q-31 0 -52.5 21.5
t-21.5 52.5q0 73 74 73q30 0 51.5 -21.5t21.5 -51.5zM199 -214q0 -74 -73 -74q-31 0 -52.5 21.5t-21.5 52.5q0 73 74 73q30 0 51.5 -21.5t21.5 -51.5z" />
    <glyph glyph-name="Hcircumflex" unicode="&#x622;" horiz-adv-x="604" arabic-form="final" 
d="M595 1419q-97 -152 -206 -152q-39 0 -115 29t-94 29q-54 -62 -71 -128l-23 79q91 131 180 131q30 0 101.5 -32.5t105.5 -32.5q33 28 70 140zM616 0h-12q-113 0 -203 114q-52 66 -72 185q-11 67 -20 262l-28 620l111 -99l11 -646v-126q2 -76 32 -118q56 -78 169 -78h12
v-114z" />
    <glyph glyph-name="uFE84" unicode="&#x623;" horiz-adv-x="568" arabic-form="final" 
d="M428 1418l-34 -79q-39 -7 -113 -31q-74 -34 -160 -151v74q31 39 114 108q-94 33 -94 95q0 60 71 128q64 61 97 61q46 0 65 -77q11 -45 1 -107l-45 47q11 25 11 44q0 28 -27 28q-39 0 -91 -32q-56 -35 -56 -71q0 -15 44 -37q51 -26 103 -26q42 0 114 26zM581 0h-12
q-113 0 -203 114q-52 66 -72 185q-11 67 -20 262l-28 620l111 -99l11 -646v-126q2 -76 32 -118q56 -78 169 -78h12v-114z" />
    <glyph glyph-name="uFE86" unicode="&#x624;" horiz-adv-x="606" arabic-form="final" 
d="M614 0q-55 0 -132 10q-7 -46 -39 -129q-39 -101 -77 -145l-170 -60q114 114 185 355q-79 27 -141 87q-109 106 -109 274q0 89 55 181q62 104 145 104q175 0 175 -429q0 -69 -5 -134h113v-114zM415 128q15 97 15 184q0 262 -99 325q-116 -75 -116 -292q0 -81 14 -133
q27 -58 186 -84zM476 1025l-27 -79q-39 -7 -113 -31q-74 -34 -160 -151v74q31 39 114 108q-94 33 -94 95q0 60 71 128q64 61 97 61q46 0 65 -77q11 -45 1 -107l-45 47q11 25 11 44q0 28 -27 28q-39 0 -91 -32q-56 -35 -56 -71q0 -15 44 -37q51 -26 103 -26q42 0 107 26z" />
    <glyph glyph-name="uFE88" unicode="&#x625;" horiz-adv-x="568" arabic-form="final" 
d="M581 0h-12q-113 0 -203 114q-52 66 -72 185q-11 67 -20 262l-28 620l111 -99l11 -646v-126q2 -76 32 -118q56 -78 169 -78h12v-114zM488 -292l-34 -79q-39 -7 -113 -31q-74 -34 -160 -151v74q31 38 114 108q-94 33 -94 95q0 60 71 128q64 61 97 61q46 0 65 -77
q11 -45 1 -107l-45 47q11 25 11 44q0 28 -27 28q-39 0 -91 -32q-56 -35 -56 -71q0 -25 63 -46q53 -17 84 -17q42 0 114 26z" />
    <glyph glyph-name="uFE8A" unicode="&#x626;" horiz-adv-x="1521" arabic-form="final" 
d="M1533 0h-12q-95 0 -209 50q-52 23 -174 94q-86 50 -112 50q-25 0 -25 -17q0 -5 177.5 -121t177.5 -154q0 -48 -162 -111q-187 -73 -406 -73q-232 0 -419 90q-238 115 -238 323q0 137 120 223q108 78 250 78q96 0 208 -29l68 -125q-167 114 -301 114q-98 0 -165 -53
q-73 -57 -73 -153q0 -200 246 -302q185 -77 414 -77q222 0 376 65q-65 59 -228 166q-122 80 -122 107q0 36 47 59q39 20 79 20q55 0 216.5 -55t254.5 -55h12v-114zM490 754l-27 -79q-39 -7 -113 -31q-74 -34 -160 -151v74q31 39 114 108q-94 33 -94 95q0 60 71 128
q64 61 97 61q46 0 65 -77q11 -45 1 -107l-45 47q11 25 11 44q0 28 -27 28q-39 0 -91 -32q-56 -35 -56 -71q0 -15 44 -37q51 -26 103 -26q42 0 107 26z" />
    <glyph glyph-name="uFE8B" unicode="&#x626;" horiz-adv-x="339" arabic-form="initial" 
d="M268 324q0 -131 -67 -222q-74 -102 -201 -102h-12v114h12q96 0 170 65q61 54 61 89q0 108 -72 260q-56 119 -103 172l154 -94q58 -154 58 -282zM335 985l-27 -79q-39 -7 -113 -31q-74 -34 -160 -151v74q31 39 114 108q-94 33 -94 95q0 60 71 128q64 61 97 61q46 0 65 -77
q11 -45 1 -107l-45 47q11 25 11 44q0 28 -27 28q-39 0 -91 -32q-56 -35 -56 -71q0 -15 44 -37q51 -26 103 -26q42 0 107 26z" />
    <glyph glyph-name="uFE8C" unicode="&#x626;" horiz-adv-x="447" arabic-form="medial" 
d="M455 0h-12q-72 0 -135 68q-48 52 -66 137q-27 -75 -63 -116q-78 -89 -179 -89h-12v114h12q55 0 117 38q102 63 102 163q0 65 -6 196t-6 196l101 -87q-16 -171 -16 -230q0 -122 12 -170q7 -29 32 -62q33 -44 107 -44h12v-114zM395 985l-27 -79q-39 -7 -113 -31
q-74 -34 -160 -151v74q31 39 114 108q-94 33 -94 95q0 60 71 128q64 61 97 61q46 0 65 -77q11 -45 1 -107l-45 47q11 25 11 44q0 28 -27 28q-39 0 -91 -32q-56 -35 -56 -71q0 -15 44 -37q51 -26 103 -26q42 0 107 26z" />
    <glyph glyph-name="uFE8E" unicode="&#x627;" horiz-adv-x="454" arabic-form="final" 
d="M466 0h-12q-113 0 -203 114q-52 66 -72 185q-11 67 -20 262l-28 620l111 -99l11 -646v-126q2 -76 32 -118q56 -78 169 -78h12v-114z" />
    <glyph glyph-name="uFE90" unicode="&#x628;" horiz-adv-x="1704" arabic-form="final" 
d="M1716 0h-12q-50 0 -101 39q-47 37 -67 86t-20 92q-117 -61 -346 -131q-321 -98 -556 -98q-483 0 -483 266q0 158 177 301v-100q-135 -97 -135 -150q0 -61 113 -122q144 -78 384 -78q219 0 491 70q252 66 467 170l-71 -159q51 -72 147 -72h12v-114zM826 -214
q0 -74 -73 -74q-31 0 -52.5 21.5t-21.5 52.5q0 73 74 73q30 0 51.5 -21.5t21.5 -51.5z" />
    <glyph glyph-name="uFE91" unicode="&#x628;" horiz-adv-x="290" arabic-form="initial" 
d="M268 324q0 -131 -67 -222q-74 -102 -201 -102h-12v114h12q96 0 170 65q61 54 61 89q0 108 -72 260q-56 119 -103 172l154 -94q58 -154 58 -282zM286 -214q0 -74 -73 -74q-31 0 -52.5 21.5t-21.5 52.5q0 73 74 73q30 0 51.5 -21.5t21.5 -51.5z" />
    <glyph glyph-name="uFE92" unicode="&#x628;" horiz-adv-x="444" arabic-form="medial" 
d="M455 0h-12q-72 0 -135 68q-48 52 -66 137q-27 -75 -63 -116q-78 -89 -179 -89h-12v114h12q55 0 117 38q102 63 102 163q0 65 -6 196t-6 196l101 -87q-16 -171 -16 -230q0 -122 12 -170q7 -29 32 -62q33 -44 107 -44h12v-114zM306 -214q0 -74 -73 -74q-31 0 -52.5 21.5
t-21.5 52.5q0 73 74 73q30 0 51.5 -21.5t21.5 -51.5z" />
    <glyph glyph-name="uFE96" unicode="&#x62a;" horiz-adv-x="1704" arabic-form="final" 
d="M1716 0h-12q-50 0 -101 39q-47 37 -67 86t-20 92q-117 -61 -346 -131q-321 -98 -556 -98q-483 0 -483 266q0 158 177 301v-100q-135 -97 -135 -150q0 -61 113 -122q144 -78 384 -78q219 0 491 70q252 66 467 170l-71 -159q51 -72 147 -72h12v-114zM999 596q0 -74 -73 -74
q-31 0 -52.5 21.5t-21.5 52.5q0 73 74 73q30 0 51.5 -21.5t21.5 -51.5zM793 596q0 -74 -73 -74q-31 0 -52.5 21.5t-21.5 52.5q0 73 74 73q30 0 51.5 -21.5t21.5 -51.5z" />
    <glyph glyph-name="uFE97" unicode="&#x62a;" horiz-adv-x="360" arabic-form="initial" 
d="M268 324q0 -131 -67 -222q-74 -102 -201 -102h-12v114h12q96 0 170 65q61 54 61 89q0 108 -72 260q-56 119 -103 172l154 -94q58 -154 58 -282zM359 936q0 -74 -73 -74q-31 0 -52.5 21.5t-21.5 52.5q0 73 74 73q30 0 51.5 -21.5t21.5 -51.5zM153 936q0 -74 -73 -74
q-31 0 -52.5 21.5t-21.5 52.5q0 73 74 73q30 0 51.5 -21.5t21.5 -51.5z" />
    <glyph glyph-name="uFE98" unicode="&#x62a;" horiz-adv-x="444" arabic-form="medial" 
d="M455 0h-12q-72 0 -135 68q-48 52 -66 137q-27 -75 -63 -116q-78 -89 -179 -89h-12v114h12q55 0 117 38q102 63 102 163q0 65 -6 196t-6 196l101 -87q-16 -171 -16 -230q0 -122 12 -170q7 -29 32 -62q33 -44 107 -44h12v-114zM399 936q0 -74 -73 -74q-31 0 -52.5 21.5
t-21.5 52.5q0 73 74 73q30 0 51.5 -21.5t21.5 -51.5zM193 936q0 -74 -73 -74q-31 0 -52.5 21.5t-21.5 52.5q0 73 74 73q30 0 51.5 -21.5t21.5 -51.5z" />
    <glyph glyph-name="uFE9A" unicode="&#x62b;" horiz-adv-x="1708" arabic-form="final" 
d="M1716 0h-12q-50 0 -101 39q-47 37 -67 86t-20 92q-117 -61 -346 -131q-321 -98 -556 -98q-483 0 -483 266q0 158 177 301v-100q-135 -97 -135 -150q0 -61 113 -122q144 -78 384 -78q219 0 491 70q252 66 467 170l-71 -159q51 -72 147 -72h12v-114zM896 803
q0 -30 -21.5 -51.5t-51.5 -21.5q-74 0 -74 73q0 31 21.5 52.5t52.5 21.5q30 0 51.5 -22t21.5 -52zM999 596q0 -30 -21.5 -52t-51.5 -22q-31 0 -52.5 21.5t-21.5 52.5q0 73 74 73q30 0 51.5 -21.5t21.5 -51.5zM793 596q0 -30 -21.5 -52t-51.5 -22q-31 0 -52.5 21.5
t-21.5 52.5q0 73 74 73q30 0 51.5 -21.5t21.5 -51.5z" />
    <glyph glyph-name="uFE9B" unicode="&#x62b;" horiz-adv-x="365" arabic-form="initial" 
d="M268 324q0 -131 -67 -222q-74 -102 -201 -102h-12v114h12q96 0 170 65q61 54 61 89q0 108 -72 260q-56 119 -103 172l154 -94q58 -154 58 -282zM261 1073q0 -30 -21.5 -51.5t-51.5 -21.5q-74 0 -74 73q0 31 21.5 52.5t52.5 21.5q30 0 51.5 -22t21.5 -52zM364 866
q0 -30 -21.5 -52t-51.5 -22q-31 0 -52.5 21.5t-21.5 52.5q0 73 74 73q30 0 51.5 -21.5t21.5 -51.5zM158 866q0 -30 -21.5 -52t-51.5 -22q-31 0 -52.5 21.5t-21.5 52.5q0 73 74 73q30 0 51.5 -21.5t21.5 -51.5z" />
    <glyph glyph-name="uFE9C" unicode="&#x62b;" horiz-adv-x="444" arabic-form="medial" 
d="M455 0h-12q-72 0 -135 68q-48 52 -66 137q-27 -75 -63 -116q-78 -89 -179 -89h-12v114h12q55 0 117 38q102 63 102 163q0 65 -6 196t-6 196l101 -87q-16 -171 -16 -230q0 -122 12 -170q7 -29 32 -62q33 -44 107 -44h12v-114zM291 1073q0 -30 -21.5 -51.5t-51.5 -21.5
q-74 0 -74 73q0 31 21.5 52.5t52.5 21.5q30 0 51.5 -22t21.5 -52zM394 866q0 -30 -21.5 -52t-51.5 -22q-31 0 -52.5 21.5t-21.5 52.5q0 73 74 73q30 0 51.5 -21.5t21.5 -51.5zM188 866q0 -30 -21.5 -52t-51.5 -22q-31 0 -52.5 21.5t-21.5 52.5q0 73 74 73q30 0 51.5 -21.5
t21.5 -51.5z" />
    <glyph glyph-name="uFE9E" unicode="&#x62c;" horiz-adv-x="843" arabic-form="final" 
d="M907 -312l-41 -173q-156 -114 -325 -114q-186 0 -298 116.5t-112 303.5q0 196 113 316q98 105 222 105q72 0 148 -32q-5 41 34.5 150.5t39.5 161.5q0 48 -21 104q-27 72 -65 72q-91 -40 -245 -201l42 145q96 84 193 84q87 0 143 -68q54 -64 54 -152q0 -45 -35 -135.5
t-35 -128.5q0 -53 35 -90.5t88 -37.5h12v-114h-12q-43 0 -173 89q-140 96 -221 112q-75 -31 -134 -122q-74 -115 -74 -270q0 -138 66 -243q76 -121 207 -121q97 0 218 82q100 68 176 161zM626 -204q0 -74 -73 -74q-31 0 -52.5 21.5t-21.5 52.5q0 73 74 73q30 0 51.5 -21.5
t21.5 -51.5z" />
    <glyph glyph-name="uFE9F" unicode="&#x62c;" horiz-adv-x="546" arabic-form="initial" 
d="M544 219l-43 -119q-262 -100 -501 -100h-12v114h12q170 0 296 28q-29 48 -29 106q0 48 32 146.5t32 142.5q0 48 -21 105q-27 72 -65 72q-91 -41 -245 -201l42 145q96 84 193 84q87 0 143 -68q54 -64 54 -152q0 -45 -36.5 -137t-36.5 -128q0 -82 58 -82q49 0 127 44z
M366 -264q0 -74 -73 -74q-31 0 -52.5 21.5t-21.5 52.5q0 73 74 73q30 0 51.5 -21.5t21.5 -51.5z" />
    <glyph glyph-name="uFEA0" unicode="&#x62c;" horiz-adv-x="486" arabic-form="medial" 
d="M497 4h-12q-29 0 -96 21.5t-100 21.5q-49 0 -144.5 -23.5t-144.5 -23.5h-12v114h12q40 0 116.5 18.5t115.5 18.5q27 0 57 -6q-28 46 -28 99q0 47 35 142t35 139q0 48 -21 105q-27 72 -65 72q-91 -41 -245 -201l42 145q96 84 193 84q88 0 144 -68q53 -63 53 -153
q0 -44 -36.5 -137t-36.5 -127q0 -52 37 -90t89 -38h12v-113zM366 -264q0 -74 -73 -74q-31 0 -52.5 21.5t-21.5 52.5q0 73 74 73q30 0 51.5 -21.5t21.5 -51.5z" />
    <glyph glyph-name="uFEA2" unicode="&#x62d;" horiz-adv-x="842" arabic-form="final" 
d="M907 -312l-41 -173q-156 -114 -325 -114q-186 0 -298 116.5t-112 303.5q0 196 113 316q98 105 222 105q72 0 148 -32q-5 41 34.5 150.5t39.5 161.5q0 48 -21 104q-27 72 -65 72q-91 -40 -245 -201l42 145q96 84 193 84q87 0 143 -68q54 -64 54 -152q0 -45 -35 -135.5
t-35 -128.5q0 -53 35 -90.5t88 -37.5h12v-114h-12q-43 0 -173 89q-140 96 -221 112q-75 -31 -134 -122q-74 -115 -74 -270q0 -138 66 -243q76 -121 207 -121q97 0 218 82q100 68 176 161z" />
    <glyph glyph-name="uFEA3" unicode="&#x62d;" horiz-adv-x="544" arabic-form="initial" 
d="M544 219l-43 -119q-262 -100 -501 -100h-12v114h12q170 0 296 28q-29 48 -29 106q0 48 32 146.5t32 142.5q0 48 -21 105q-27 72 -65 72q-91 -41 -245 -201l42 145q96 84 193 84q87 0 143 -68q54 -64 54 -152q0 -45 -36.5 -137t-36.5 -128q0 -82 58 -82q49 0 127 44z" />
    <glyph glyph-name="uFEA4" unicode="&#x62d;" horiz-adv-x="485" arabic-form="medial" 
d="M497 4h-12q-29 0 -96 21.5t-100 21.5q-49 0 -144.5 -23.5t-144.5 -23.5h-12v114h12q40 0 116.5 18.5t115.5 18.5q27 0 57 -6q-28 46 -28 99q0 47 35 142t35 139q0 48 -21 105q-27 72 -65 72q-91 -41 -245 -201l42 145q96 84 193 84q88 0 144 -68q53 -63 53 -153
q0 -44 -36.5 -137t-36.5 -127q0 -52 37 -90t89 -38h12v-113z" />
    <glyph glyph-name="uFEA6" unicode="&#x62e;" horiz-adv-x="840" arabic-form="final" 
d="M907 -312l-41 -173q-156 -114 -325 -114q-186 0 -298 116.5t-112 303.5q0 196 113 316q98 105 222 105q72 0 148 -32q-5 41 34.5 150.5t39.5 161.5q0 48 -21 104q-27 72 -65 72q-91 -40 -245 -201l42 145q96 84 193 84q87 0 143 -68q54 -64 54 -152q0 -45 -35 -135.5
t-35 -128.5q0 -53 35 -90.5t88 -37.5h12v-114h-12q-43 0 -173 89q-140 96 -221 112q-75 -31 -134 -122q-74 -115 -74 -270q0 -138 66 -243q76 -121 207 -121q97 0 218 82q100 68 176 161zM676 946q0 -74 -73 -74q-31 0 -52.5 21.5t-21.5 52.5q0 73 74 73q30 0 51.5 -21.5
t21.5 -51.5z" />
    <glyph glyph-name="uFEA7" unicode="&#x62e;" horiz-adv-x="552" arabic-form="initial" 
d="M544 219l-43 -119q-262 -100 -501 -100h-12v114h12q170 0 296 28q-29 48 -29 106q0 48 32 146.5t32 142.5q0 48 -21 105q-27 72 -65 72q-91 -41 -245 -201l42 145q96 84 193 84q87 0 143 -68q54 -64 54 -152q0 -45 -36.5 -137t-36.5 -128q0 -82 58 -82q49 0 127 44z
M326 946q0 -74 -73 -74q-31 0 -52.5 21.5t-21.5 52.5q0 73 74 73q30 0 51.5 -21.5t21.5 -51.5z" />
    <glyph glyph-name="uFEA8" unicode="&#x62e;" horiz-adv-x="486" arabic-form="medial" 
d="M497 4h-12q-29 0 -96 21.5t-100 21.5q-49 0 -144.5 -23.5t-144.5 -23.5h-12v114h12q40 0 116.5 18.5t115.5 18.5q27 0 57 -6q-28 46 -28 99q0 47 35 142t35 139q0 48 -21 105q-27 72 -65 72q-91 -41 -245 -201l42 145q96 84 193 84q88 0 144 -68q53 -63 53 -153
q0 -44 -36.5 -137t-36.5 -127q0 -52 37 -90t89 -38h12v-113zM356 946q0 -74 -73 -74q-31 0 -52.5 21.5t-21.5 52.5q0 73 74 73q30 0 51.5 -21.5t21.5 -51.5z" />
    <glyph glyph-name="uFEAA" unicode="&#x62f;" horiz-adv-x="770" arabic-form="final" 
d="M776 0h-12q-148 0 -187 161q-6 -25 -23 -67q-37 -50 -153 -105q-123 -59 -210 -59q-108 0 -116 63l7 117q44 -66 140 -66q95 0 208 54q124 59 124 126q0 47 -79 185q-64 112 -115 179l60 94q80 -114 138 -262q25 -66 91 -237q27 -69 115 -69h12v-114z" />
    <glyph glyph-name="uFEAC" unicode="&#x630;" horiz-adv-x="768" arabic-form="final" 
d="M776 0h-12q-148 0 -187 161q-6 -25 -23 -67q-37 -50 -153 -105q-123 -59 -210 -59q-108 0 -116 63l7 117q44 -66 140 -66q95 0 208 54q124 59 124 126q0 47 -79 185q-64 112 -115 179l60 94q80 -114 138 -262q25 -66 91 -237q27 -69 115 -69h12v-114zM466 946
q0 -74 -73 -74q-31 0 -52.5 21.5t-21.5 52.5q0 73 74 73q30 0 51.5 -21.5t21.5 -51.5z" />
    <glyph glyph-name="uFEAE" unicode="&#x631;" horiz-adv-x="552" arabic-form="final" 
d="M559 0h-12q-129 0 -180 126q0 -103 -60 -248q-46 -111 -83 -160l-174 -51q252 301 252 708q0 87 -8 159l91 64q-11 -327 35 -395q61 -89 127 -89h12v-114z" />
    <glyph glyph-name="uFEB0" unicode="&#x632;" horiz-adv-x="552" arabic-form="final" 
d="M559 0h-12q-129 0 -180 126q0 -103 -60 -248q-46 -111 -83 -160l-174 -51q252 301 252 708q0 87 -8 159l91 64q-11 -327 35 -395q61 -89 127 -89h12v-114zM406 756q0 -74 -73 -74q-31 0 -52.5 21.5t-21.5 52.5q0 73 74 73q30 0 51.5 -21.5t21.5 -51.5z" />
    <glyph glyph-name="uFEB2" unicode="&#x633;" horiz-adv-x="2137" arabic-form="final" 
d="M2149 0h-12q-71 0 -138 42q-72 44 -88 110q-10 -46 -38 -88q-43 -64 -105 -64q-59 0 -108 41.5t-64 100.5q-9 -49 -45 -94q-44 -55 -102 -55q-86 0 -140 72q-7 -96 -37 -237q-29 -58 -193 -122q-190 -74 -398 -74q-191 0 -352 83q-198 102 -198 276q0 142 126 227
q110 74 259 74q80 0 174 -21l68 -124q-160 105 -301 105q-69 0 -127 -34q-92 -54 -92 -172q0 -169 189 -252q141 -62 333 -62q311 0 486 116q3 34 3 70q0 290 -132 586l84 101q30 -66 78 -279q38 -170 83 -207q34 -28 77 -28q126 0 126 170q0 35 -32 359l95 -76v-301
q0 -145 96 -145q152 0 152 168q0 72 -30 369l102 -84q0 -196 5 -260q7 -90 33 -121q47 -56 151 -56h12v-114z" />
    <glyph glyph-name="uFEB3" unicode="&#x633;" horiz-adv-x="887" arabic-form="initial" 
d="M887 229q0 -76 -44 -148q-50 -81 -122 -81q-59 0 -107.5 42t-63.5 100q-9 -50 -45 -94q-45 -55 -102 -55q-136 0 -184 168q-32 -66 -89 -111q-63 -50 -130 -50h-12v114h12q69 0 132.5 57t63.5 125q0 235 -17 339l98 -78q0 -47 -5 -141t-5 -141q0 -108 15 -133
q31 -51 100 -51q66 0 105 64q31 51 31 106q0 35 -31 374l94 -76v-316q0 -145 96 -145q77 0 128 45q40 36 40 69q0 75 -77 230q-60 121 -112 193l161 -91q70 -164 70 -315z" />
    <glyph glyph-name="uFEB4" unicode="&#x633;" horiz-adv-x="1090" arabic-form="medial" 
d="M1103 0h-13q-70 0 -137 42q-73 45 -88 110q-10 -45 -39 -88q-43 -64 -105 -64q-59 0 -107.5 42t-63.5 100q-9 -50 -45 -94q-45 -55 -102 -55q-136 0 -184 168q-32 -66 -89 -111q-63 -50 -130 -50h-12v114h12q69 0 132.5 57t63.5 125q0 235 -17 339l98 -78q0 -47 -5 -141
t-5 -141q0 -108 15 -133q31 -51 100 -51q66 0 103 54q33 47 33 116q0 35 -31 372l94 -76v-314q0 -145 96 -145q153 0 153 168q0 72 -30 369l101 -84q0 -195 5 -259q7 -90 34 -122q48 -56 150 -56h13v-114z" />
    <glyph glyph-name="uFEB6" unicode="&#x634;" horiz-adv-x="2136" arabic-form="final" 
d="M2149 0h-12q-71 0 -138 42q-72 44 -88 110q-10 -46 -38 -88q-43 -64 -105 -64q-59 0 -108 41.5t-64 100.5q-9 -49 -45 -94q-44 -55 -102 -55q-86 0 -140 72q-7 -96 -37 -237q-29 -58 -193 -122q-190 -74 -398 -74q-191 0 -352 83q-198 102 -198 276q0 142 126 227
q110 74 259 74q80 0 174 -21l68 -124q-160 105 -301 105q-69 0 -127 -34q-92 -54 -92 -172q0 -169 189 -252q141 -62 333 -62q311 0 486 116q3 34 3 70q0 290 -132 586l84 101q30 -66 78 -279q38 -170 83 -207q34 -28 77 -28q126 0 126 170q0 35 -32 359l95 -76v-301
q0 -145 96 -145q152 0 152 168q0 72 -30 369l102 -84q0 -196 5 -260q7 -90 33 -121q47 -56 151 -56h12v-114zM1611 1073q0 -30 -21.5 -51.5t-51.5 -21.5q-74 0 -74 73q0 31 21.5 52.5t52.5 21.5q30 0 51.5 -22t21.5 -52zM1714 866q0 -30 -21.5 -52t-51.5 -22
q-31 0 -52.5 21.5t-21.5 52.5q0 73 74 73q30 0 51.5 -21.5t21.5 -51.5zM1508 866q0 -30 -21.5 -52t-51.5 -22q-31 0 -52.5 21.5t-21.5 52.5q0 73 74 73q30 0 51.5 -21.5t21.5 -51.5z" />
    <glyph glyph-name="uFEB7" unicode="&#x634;" horiz-adv-x="885" arabic-form="initial" 
d="M887 229q0 -76 -44 -148q-50 -81 -122 -81q-59 0 -107.5 42t-63.5 100q-9 -50 -45 -94q-45 -55 -102 -55q-136 0 -184 168q-32 -66 -89 -111q-63 -50 -130 -50h-12v114h12q69 0 132.5 57t63.5 125q0 235 -17 339l98 -78q0 -47 -5 -141t-5 -141q0 -108 15 -133
q31 -51 100 -51q66 0 105 64q31 51 31 106q0 35 -31 374l94 -76v-316q0 -145 96 -145q77 0 128 45q40 36 40 69q0 75 -77 230q-60 121 -112 193l161 -91q70 -164 70 -315zM581 1073q0 -30 -21.5 -51.5t-51.5 -21.5q-74 0 -74 73q0 31 21.5 52.5t52.5 21.5q30 0 51.5 -22
t21.5 -52zM684 866q0 -30 -21.5 -52t-51.5 -22q-31 0 -52.5 21.5t-21.5 52.5q0 73 74 73q30 0 51.5 -21.5t21.5 -51.5zM478 866q0 -30 -21.5 -52t-51.5 -22q-31 0 -52.5 21.5t-21.5 52.5q0 73 74 73q30 0 51.5 -21.5t21.5 -51.5z" />
    <glyph glyph-name="uFEB8" unicode="&#x634;" horiz-adv-x="1092" arabic-form="medial" 
d="M1103 0h-13q-70 0 -137 42q-73 45 -88 110q-10 -45 -39 -88q-43 -64 -105 -64q-59 0 -107.5 42t-63.5 100q-9 -50 -45 -94q-45 -55 -102 -55q-136 0 -184 168q-32 -66 -89 -111q-63 -50 -130 -50h-12v114h12q69 0 132.5 57t63.5 125q0 235 -17 339l98 -78q0 -47 -5 -141
t-5 -141q0 -108 15 -133q31 -51 100 -51q66 0 103 54q33 47 33 116q0 35 -31 372l94 -76v-314q0 -145 96 -145q153 0 153 168q0 72 -30 369l101 -84q0 -195 5 -259q7 -90 34 -122q48 -56 150 -56h13v-114zM591 1073q0 -30 -21.5 -51.5t-51.5 -21.5q-74 0 -74 73
q0 31 21.5 52.5t52.5 21.5q30 0 51.5 -22t21.5 -52zM694 866q0 -30 -21.5 -52t-51.5 -22q-31 0 -52.5 21.5t-21.5 52.5q0 73 74 73q30 0 51.5 -21.5t21.5 -51.5zM488 866q0 -30 -21.5 -52t-51.5 -22q-31 0 -52.5 21.5t-21.5 52.5q0 73 74 73q30 0 51.5 -21.5t21.5 -51.5z
" />
    <glyph glyph-name="uFEBA" unicode="&#x635;" horiz-adv-x="2082" arabic-form="final" 
d="M2088 0h-12q-68 0 -138 25q-84 30 -107 82q-155 -114 -364 -114q-97 0 -157 50q-9 -88 -38 -215q-29 -58 -193 -122q-190 -74 -398 -74q-191 0 -352 83q-198 102 -198 276q0 142 126 227q110 74 259 74q80 0 174 -21l68 -124q-160 105 -301 105q-69 0 -127 -34
q-92 -54 -92 -172q0 -169 189 -252q141 -62 333 -62q311 0 486 116q3 34 3 70q0 290 -132 586l84 101q20 -43 79 -272q40 -157 111 -201l-10 104q359 403 508 403q143 0 143 -161q0 -181 -145 -323q46 -41 189 -41h12v-114zM1942 316q13 59 13 84q0 89 -101 189
q-96 -67 -243 -232q-115 -130 -194 -238q30 -12 71 -12q324 0 454 209z" />
    <glyph glyph-name="uFEBB" unicode="&#x635;" horiz-adv-x="1003" arabic-form="initial" 
d="M1003 478q0 -178 -142 -321q-163 -164 -423 -164q-77 0 -138 48t-83 122q-99 -163 -217 -163h-12v114h12q106 0 165 108q37 67 29 390l96 -81q-22 -61 -22 -156q0 -191 94 -243l-10 104q359 403 508 403q143 0 143 -161zM913 316q13 59 13 84q0 89 -101 189
q-96 -67 -243 -232q-115 -130 -194 -238q30 -12 71 -12q324 0 454 209z" />
    <glyph glyph-name="uFEBC" unicode="&#x635;" horiz-adv-x="1051" arabic-form="medial" 
d="M1059 0h-12q-68 0 -138 25q-84 30 -107 82q-155 -114 -364 -114q-77 0 -138 48t-83 122q-99 -163 -217 -163h-12v114h12q106 0 165 108q37 67 29 390l96 -81q-22 -61 -22 -156q0 -191 94 -243l-10 104q359 403 508 403q143 0 143 -161q0 -181 -145 -323q46 -41 189 -41
h12v-114zM913 316q13 59 13 84q0 89 -101 189q-96 -67 -243 -232q-115 -130 -194 -238q30 -12 71 -12q324 0 454 209z" />
    <glyph glyph-name="uFEBE" unicode="&#x636;" horiz-adv-x="2080" arabic-form="final" 
d="M2088 0h-12q-68 0 -138 25q-84 30 -107 82q-155 -114 -364 -114q-97 0 -157 50q-9 -88 -38 -215q-29 -58 -193 -122q-190 -74 -398 -74q-191 0 -352 83q-198 102 -198 276q0 142 126 227q110 74 259 74q80 0 174 -21l68 -124q-160 105 -301 105q-69 0 -127 -34
q-92 -54 -92 -172q0 -169 189 -252q141 -62 333 -62q311 0 486 116q3 34 3 70q0 290 -132 586l84 101q20 -43 79 -272q40 -157 111 -201l-10 104q359 403 508 403q143 0 143 -161q0 -181 -145 -323q46 -41 189 -41h12v-114zM1942 316q13 59 13 84q0 89 -101 189
q-96 -67 -243 -232q-115 -130 -194 -238q30 -12 71 -12q324 0 454 209zM1945 935q0 -74 -73 -74q-31 0 -52.5 21.5t-21.5 52.5q0 73 74 73q30 0 51.5 -21.5t21.5 -51.5z" />
    <glyph glyph-name="uFEBF" unicode="&#x636;" horiz-adv-x="1005" arabic-form="initial" 
d="M1003 478q0 -178 -142 -321q-163 -164 -423 -164q-77 0 -138 48t-83 122q-99 -163 -217 -163h-12v114h12q106 0 165 108q37 67 29 390l96 -81q-22 -61 -22 -156q0 -191 94 -243l-10 104q359 403 508 403q143 0 143 -161zM913 316q13 59 13 84q0 89 -101 189
q-96 -67 -243 -232q-115 -130 -194 -238q30 -12 71 -12q324 0 454 209zM905 935q0 -74 -73 -74q-31 0 -52.5 21.5t-21.5 52.5q0 73 74 73q30 0 51.5 -21.5t21.5 -51.5z" />
    <glyph glyph-name="uFEC0" unicode="&#x636;" horiz-adv-x="1050" arabic-form="medial" 
d="M1059 0h-12q-68 0 -138 25q-84 30 -107 82q-155 -114 -364 -114q-77 0 -138 48t-83 122q-99 -163 -217 -163h-12v114h12q106 0 165 108q37 67 29 390l96 -81q-22 -61 -22 -156q0 -191 94 -243l-10 104q359 403 508 403q143 0 143 -161q0 -181 -145 -323q46 -41 189 -41
h12v-114zM913 316q13 59 13 84q0 89 -101 189q-96 -67 -243 -232q-115 -130 -194 -238q30 -12 71 -12q324 0 454 209zM905 935q0 -74 -73 -74q-31 0 -52.5 21.5t-21.5 52.5q0 73 74 73q30 0 51.5 -21.5t21.5 -51.5z" />
    <glyph glyph-name="uFEC2" unicode="&#x637;" horiz-adv-x="942" arabic-form="final" 
d="M949 0h-12q-161 0 -208 112q-153 -112 -361 -112q-121 0 -182 33l-55 139q63 -43 163 -53l-12 124l45 49q88 96 88 188q0 73 -75 691l106 -98l25 -502q2 -44 -9 -137q217 212 328 212q143 0 143 -161q0 -184 -149 -327q46 -44 153 -44h12v-114zM843 323q13 59 13 84
q0 89 -101 189q-99 -70 -245 -233q-118 -132 -198 -246q33 -3 77 -3q324 0 454 209z" />
    <glyph glyph-name="uFEC3" unicode="&#x637;" horiz-adv-x="675" arabic-form="initial" 
d="M675 485q0 -185 -152 -329q-165 -156 -413 -156h-118v114h45l-13 129l45 49q88 96 88 188q0 73 -75 691l106 -98l25 -502q2 -44 -9 -137q217 212 328 212q143 0 143 -161zM585 323q13 59 13 84q0 89 -101 189q-94 -66 -238 -226q-123 -137 -208 -256h91q316 0 443 209z
" />
    <glyph glyph-name="uFEC4" unicode="&#x637;" horiz-adv-x="684" arabic-form="medial" 
d="M691 0h-12q-161 0 -208 112q-153 -112 -361 -112h-118v114h45l-13 129l45 49q88 96 88 188q0 73 -75 691l106 -98l25 -502q2 -44 -9 -137q217 212 328 212q143 0 143 -161q0 -184 -149 -327q46 -44 153 -44h12v-114zM585 323q13 59 13 84q0 89 -101 189
q-94 -66 -238 -226q-123 -137 -208 -256h91q316 0 443 209z" />
    <glyph glyph-name="uFEC6" unicode="&#x638;" horiz-adv-x="943" arabic-form="final" 
d="M949 0h-12q-161 0 -208 112q-153 -112 -361 -112q-121 0 -182 33l-55 139q63 -43 163 -53l-12 124l45 49q88 96 88 188q0 73 -75 691l106 -98l25 -502q2 -44 -9 -137q217 212 328 212q143 0 143 -161q0 -184 -149 -327q46 -44 153 -44h12v-114zM843 323q13 59 13 84
q0 89 -101 189q-99 -70 -245 -233q-118 -132 -198 -246q33 -3 77 -3q324 0 454 209zM855 935q0 -74 -73 -74q-31 0 -52.5 21.5t-21.5 52.5q0 73 74 73q30 0 51.5 -21.5t21.5 -51.5z" />
    <glyph glyph-name="uFEC7" unicode="&#x638;" horiz-adv-x="675" arabic-form="initial" 
d="M675 485q0 -185 -152 -329q-165 -156 -413 -156h-118v114h45l-13 129l45 49q88 96 88 188q0 73 -75 691l106 -98l25 -502q2 -44 -9 -137q217 212 328 212q143 0 143 -161zM585 323q13 59 13 84q0 89 -101 189q-94 -66 -238 -226q-123 -137 -208 -256h91q316 0 443 209z
M615 935q0 -74 -73 -74q-31 0 -52.5 21.5t-21.5 52.5q0 73 74 73q30 0 51.5 -21.5t21.5 -51.5z" />
    <glyph glyph-name="uFEC8" unicode="&#x638;" horiz-adv-x="684" arabic-form="medial" 
d="M691 0h-12q-161 0 -208 112q-153 -112 -361 -112h-118v114h45l-13 129l45 49q88 96 88 188q0 73 -75 691l106 -98l25 -502q2 -44 -9 -137q217 212 328 212q143 0 143 -161q0 -184 -149 -327q46 -44 153 -44h12v-114zM585 323q13 59 13 84q0 89 -101 189
q-94 -66 -238 -226q-123 -137 -208 -256h91q316 0 443 209zM615 935q0 -74 -73 -74q-31 0 -52.5 21.5t-21.5 52.5q0 73 74 73q30 0 51.5 -21.5t21.5 -51.5z" />
    <glyph glyph-name="uFECA" unicode="&#x639;" horiz-adv-x="819" arabic-form="final" 
d="M940 -326l-40 -183q-178 -126 -371 -126q-182 0 -292 119q-106 115 -106 299q0 112 52.5 216.5t142.5 165.5q44 29 164 56q-80 168 -184 234q-36 23 -78 18v113q161 20 245 20q284 0 311 -70q7 -18 7 -39q0 -83 -64 -171q-55 -75 -134 -128q87 -84 226 -84h12v-114h-12
q-179 0 -294 165q-32 0 -94 -7q-49 -10 -114 -130q-74 -137 -74 -275q0 -141 71 -235q78 -104 215 -104q110 0 210 68q84 57 201 192zM737 478q-16 24 -157 24q-106 0 -202 -10q32 -29 75 -103q56 -96 95 -146q81 35 141 110q52 65 52 108q0 11 -4 17z" />
    <glyph glyph-name="uFECB" unicode="&#x639;" horiz-adv-x="599" arabic-form="initial" 
d="M599 231l-67 -147q-264 -84 -481 -84h-63v114h164q-59 33 -103 106t-44 139q0 176 88 279q74 87 171 87q145 0 273 -102l-40 -94q-77 127 -205 171q-189 -60 -190 -290q-1 -164 77 -266q65 -19 145 -11q135 13 275 98z" />
    <glyph glyph-name="uFECC" unicode="&#x639;" horiz-adv-x="641" arabic-form="medial" 
d="M653 0h-12q-174 0 -284 140q-162 -140 -357 -140h-12v114h12q180 0 312 80q-74 129 -90 153q-91 135 -173 135q-9 0 -17 -1v114q161 19 245 19q284 0 311 -70q4 -10 4 -27q0 -61 -41 -146q-51 -106 -140 -182q79 -75 230 -75h12v-114zM529 488q-17 23 -148 23
q-99 0 -199 -10q32 -29 83 -115q62 -104 103 -157q77 49 125 135q38 68 38 112q0 9 -2 12z" />
    <glyph glyph-name="uFECE" unicode="&#x63a;" horiz-adv-x="816" arabic-form="final" 
d="M940 -326l-40 -183q-178 -126 -371 -126q-182 0 -292 119q-106 115 -106 299q0 112 52.5 216.5t142.5 165.5q44 29 164 56q-80 168 -184 234q-36 23 -78 18v113q161 20 245 20q284 0 311 -70q7 -18 7 -39q0 -83 -64 -171q-55 -75 -134 -128q87 -84 226 -84h12v-114h-12
q-179 0 -294 165q-32 0 -94 -7q-49 -10 -114 -130q-74 -137 -74 -275q0 -141 71 -235q78 -104 215 -104q110 0 210 68q84 57 201 192zM737 478q-16 24 -157 24q-106 0 -202 -10q32 -29 75 -103q56 -96 95 -146q81 35 141 110q52 65 52 108q0 11 -4 17zM635 946
q0 -74 -73 -74q-31 0 -52.5 21.5t-21.5 52.5q0 73 74 73q30 0 51.5 -21.5t21.5 -51.5z" />
    <glyph glyph-name="uFECF" unicode="&#x63a;" horiz-adv-x="608" arabic-form="initial" 
d="M599 231l-67 -147q-264 -84 -481 -84h-63v114h164q-59 33 -103 106t-44 139q0 176 88 279q74 87 171 87q145 0 273 -102l-40 -94q-77 127 -205 171q-189 -60 -190 -290q-1 -164 77 -266q65 -19 145 -11q135 13 275 98zM365 946q0 -74 -73 -74q-31 0 -52.5 21.5
t-21.5 52.5q0 73 74 73q30 0 51.5 -21.5t21.5 -51.5z" />
    <glyph glyph-name="uFED0" unicode="&#x63a;" horiz-adv-x="639" arabic-form="medial" 
d="M653 0h-12q-174 0 -284 140q-162 -140 -357 -140h-12v114h12q180 0 312 80q-74 129 -90 153q-91 135 -173 135q-9 0 -17 -1v114q161 19 245 19q284 0 311 -70q4 -10 4 -27q0 -61 -41 -146q-51 -106 -140 -182q79 -75 230 -75h12v-114zM529 488q-17 23 -148 23
q-99 0 -199 -10q32 -29 83 -115q62 -104 103 -157q77 49 125 135q38 68 38 112q0 9 -2 12zM455 946q0 -74 -73 -74q-31 0 -52.5 21.5t-21.5 52.5q0 73 74 73q30 0 51.5 -21.5t21.5 -51.5z" />
    <glyph glyph-name="uFED2" unicode="&#x641;" horiz-adv-x="1486" arabic-form="final" 
d="M1498 0h-12q-143 0 -287 93q-197 -93 -518 -93q-306 0 -449 122q-101 86 -101 204q0 195 221 329v-109q-123 -54 -173 -157q19 -80 84 -137q157 -138 523 -138q253 0 359 26q-119 128 -119 268q0 122 56 216q51 85 106 85q76 0 136 -63q78 -83 78 -243q0 -185 -117 -261
q90 -28 201 -28h12v-114zM1285 946q0 -74 -73 -74q-31 0 -52.5 21.5t-21.5 52.5q0 73 74 73q30 0 51.5 -21.5t21.5 -51.5zM1323 425q0 57 -23 142q-29 109 -70 109q-40 0 -84 -79q-63 -112 -63 -312q76 -89 147 -120q15 0 27 12q66 86 66 248z" />
    <glyph glyph-name="uFED3" unicode="&#x641;" horiz-adv-x="384" arabic-form="initial" 
d="M385 378q0 -195 -129 -304q-88 -74 -238 -74h-30v114h49q289 0 289 173q0 80 -43 225q-48 162 -99 195q-50 -31 -80 -125q-25 -78 -25 -151q0 -174 72 -174q31 0 99 105l67 -43q-101 -84 -179 -84q-65 0 -102 61q-32 52 -32 121q0 104 51 208q56 114 129 114
q68 0 129 -90q72 -106 72 -271zM225 946q0 -74 -73 -74q-31 0 -52.5 21.5t-21.5 52.5q0 73 74 73q30 0 51.5 -21.5t21.5 -51.5z" />
    <glyph glyph-name="uFED4" unicode="&#x641;" horiz-adv-x="555" arabic-form="medial" 
d="M567 0h-12q-136 0 -266 84q-137 -84 -289 -84h-12v114h12q130 0 228 21q-133 112 -133 273q0 124 56 217q51 84 106 84q76 0 136 -63q78 -83 78 -243q0 -176 -103 -268q68 -21 187 -21h12v-114zM392 425q0 57 -23 142q-29 109 -70 109q-40 0 -84 -79q-63 -112 -63 -312
q77 -90 163 -127q77 86 77 267zM365 946q0 -74 -73 -74q-31 0 -52.5 21.5t-21.5 52.5q0 73 74 73q30 0 51.5 -21.5t21.5 -51.5z" />
    <glyph glyph-name="uFED6" unicode="&#x642;" horiz-adv-x="1433" arabic-form="final" 
d="M1446 0h-13q-53 0 -117 11q-4 -22 -19 -65q-33 -61 -182 -118q-178 -68 -397 -68q-209 0 -379 89q-208 109 -208 300q0 137 120 223q108 78 250 78q96 0 208 -30l68 -124q-167 114 -301 114q-100 0 -166 -53q-72 -57 -72 -154q0 -197 223 -283q155 -60 388 -60
q248 0 422 101v60q-101 34 -192 115q-134 119 -134 270q0 107 40 203q52 124 144 124q106 0 162 -190q44 -149 44 -345q0 -47 -3 -84h114v-114zM1259 946q0 -74 -73 -74q-31 0 -52.5 21.5t-21.5 52.5q0 73 74 73q30 0 51.5 -21.5t21.5 -51.5zM1053 946q0 -74 -73 -74
q-31 0 -52.5 21.5t-21.5 52.5q0 73 74 73q30 0 51.5 -21.5t21.5 -51.5zM1269 128q0 192 -50 369q-44 155 -90 196q-123 -80 -123 -344q0 -52 7 -78q98 -108 256 -143z" />
    <glyph glyph-name="uFED7" unicode="&#x642;" horiz-adv-x="388" arabic-form="initial" 
d="M385 378q0 -195 -129 -304q-88 -74 -238 -74h-30v114h49q289 0 289 173q0 80 -43 225q-48 162 -99 195q-50 -31 -80 -125q-25 -78 -25 -151q0 -174 72 -174q31 0 99 105l67 -43q-101 -84 -179 -84q-65 0 -102 61q-32 52 -32 121q0 104 51 208q56 114 129 114
q68 0 129 -90q72 -106 72 -271zM369 946q0 -74 -73 -74q-31 0 -52.5 21.5t-21.5 52.5q0 73 74 73q30 0 51.5 -21.5t21.5 -51.5zM163 946q0 -74 -73 -74q-31 0 -52.5 21.5t-21.5 52.5q0 73 74 73q30 0 51.5 -21.5t21.5 -51.5z" />
    <glyph glyph-name="uFED8" unicode="&#x642;" horiz-adv-x="558" arabic-form="medial" 
d="M567 0h-12q-136 0 -266 84q-137 -84 -289 -84h-12v114h12q130 0 228 21q-133 112 -133 273q0 124 56 217q51 84 106 84q76 0 136 -63q78 -83 78 -243q0 -176 -103 -268q68 -21 187 -21h12v-114zM392 425q0 57 -23 142q-29 109 -70 109q-40 0 -84 -79q-63 -112 -63 -312
q77 -90 163 -127q77 86 77 267zM469 946q0 -74 -73 -74q-31 0 -52.5 21.5t-21.5 52.5q0 73 74 73q30 0 51.5 -21.5t21.5 -51.5zM263 946q0 -74 -73 -74q-31 0 -52.5 21.5t-21.5 52.5q0 73 74 73q30 0 51.5 -21.5t21.5 -51.5z" />
    <glyph glyph-name="uFEDE" unicode="&#x644;" horiz-adv-x="1453" arabic-form="final" 
d="M1465 0h-12q-141 0 -193 118q3 -206 -4 -224q-17 -42 -143 -86q-144 -50 -318 -50q-213 0 -413 90q-251 113 -251 301q0 137 120 223q108 78 250 78q96 0 208 -30l68 -124q-167 114 -301 114q-100 0 -166 -53q-72 -57 -72 -154q0 -185 264 -286q198 -76 417 -76
q188 0 301 64l-111 1271l116 -95q13 -458 28 -793q3 -73 66 -125q60 -49 134 -49h12v-114z" />
    <glyph glyph-name="uFEDF" unicode="&#x644;" horiz-adv-x="341" arabic-form="initial" 
d="M339 316q-12 -139 -129 -233q-103 -83 -205 -83h-17v114h26q90 0 174 56q96 64 89 150l-70 856l116 -96q19 -458 19 -663q0 -66 -3 -101z" />
    <glyph glyph-name="uFEE0" unicode="&#x644;" horiz-adv-x="480" arabic-form="medial" 
d="M492 0h-12q-149 0 -212 201q-19 -75 -102 -138t-161 -63h-17v114h26q88 0 163 58q81 63 74 148l-74 855l115 -95q7 -304 28 -792q3 -70 46 -120q46 -54 114 -54h12v-114z" />
    <glyph glyph-name="uFEE2" unicode="&#x645;" horiz-adv-x="1018" arabic-form="final" 
d="M1025 0h-12q-46 0 -106 51q-52 46 -77 94q-38 -152 -172 -152q-92 0 -159 86q-12 15 -116 210q-73 137 -138 147q-30 -117 -30 -297q0 -204 41 -398l-90 -98q-35 217 -35 371q0 219 48 365q41 125 91 125q61 0 122 -81q5 84 42 151q46 84 121 84q85 0 163 -89
q92 -105 121 -289q26 -166 174 -166h12v-114zM645 539q-53 72 -96 72q-78 0 -78 -151q0 -165 86 -316q57 -100 116 -100q78 0 78 163q0 188 -106 332z" />
    <glyph glyph-name="uFEE3" unicode="&#x645;" horiz-adv-x="646" arabic-form="initial" 
d="M651 170q-32 -170 -169 -170q-83 0 -155 75q-33 35 -81 118q-3 -81 -86 -139q-76 -54 -160 -54h-12v114h12q75 0 133 31q71 37 71 106q0 13 -2 24q-14 79 -14 141q0 188 119 231q17 6 37 6q91 0 173 -89q137 -148 137 -353q0 -25 -3 -41zM441 537q-59 70 -105 70
q-72 0 -72 -129q0 -83 42 -190q92 -235 194 -235q8 0 19 3q52 14 52 128q0 200 -130 353z" />
    <glyph glyph-name="uFEE4" unicode="&#x645;" horiz-adv-x="858" arabic-form="medial" 
d="M865 0h-12q-125 0 -207 162q-25 -166 -162 -166q-84 0 -156 75q-30 32 -83 119q-2 -82 -85 -139q-75 -51 -160 -51h-12v114h12q76 0 133 29q71 36 71 105q0 13 -2 24q-14 80 -14 141q0 188 119 231q17 6 37 6q90 0 172 -89q68 -73 104 -171q11 -29 39 -111
q57 -165 194 -165h12v-114zM436 530q-59 72 -101 72q-67 0 -67 -122q0 -84 43 -196q90 -234 188 -234q10 0 20 3q45 13 45 119q0 201 -128 358z" />
    <glyph glyph-name="uFEE6" unicode="&#x646;" horiz-adv-x="1521" arabic-form="final" 
d="M1533 0h-12q-127 0 -184 100q-13 -158 -40 -207q-33 -60 -182 -117q-178 -68 -397 -68q-209 0 -378 88q-209 109 -209 300q0 137 120 223q108 78 250 78q96 0 208 -29l68 -125q-167 114 -301 114q-98 0 -165 -53q-73 -57 -73 -153q0 -198 222 -284q155 -60 389 -60
q246 0 422 102q1 39 1 78q0 274 -56 465l88 94q14 -41 36 -191q20 -136 34 -166q35 -75 147 -75h12v-114zM905 751q0 -74 -73 -74q-31 0 -52.5 21.5t-21.5 52.5q0 73 74 73q30 0 51.5 -21.5t21.5 -51.5z" />
    <glyph glyph-name="uFEE7" unicode="&#x646;" horiz-adv-x="270" arabic-form="initial" 
d="M268 324q0 -131 -67 -222q-74 -102 -201 -102h-12v114h12q96 0 170 65q61 54 61 89q0 108 -72 260q-56 119 -103 172l154 -94q58 -154 58 -282zM205 941q0 -74 -73 -74q-31 0 -52.5 21.5t-21.5 52.5q0 73 74 73q30 0 51.5 -21.5t21.5 -51.5z" />
    <glyph glyph-name="uFEE8" unicode="&#x646;" horiz-adv-x="445" arabic-form="medial" 
d="M455 0h-12q-72 0 -135 68q-48 52 -66 137q-27 -75 -63 -116q-78 -89 -179 -89h-12v114h12q55 0 117 38q102 63 102 163q0 65 -6 196t-6 196l101 -87q-16 -171 -16 -230q0 -122 12 -170q7 -29 32 -62q33 -44 107 -44h12v-114zM315 941q0 -74 -73 -74q-31 0 -52.5 21.5
t-21.5 52.5q0 73 74 73q30 0 51.5 -21.5t21.5 -51.5z" />
    <glyph glyph-name="uFEEA" unicode="&#x647;" horiz-adv-x="809" arabic-form="final" 
d="M821 0h-12q-66 0 -125 52q-78 68 -99 198q-24 -43 -40 -68q-24 -35 -43 -49q-24 -17 -108 -17q-75 0 -150 14q-113 21 -113 66q0 74 92 203q108 150 248 215l86 -94q-88 -16 -208 -87q-144 -85 -144 -158q0 -51 189 -51q79 0 114 16q54 25 54 94q0 11 -5 159
q-4 118 0 221l99 -73q-15 -126 -15 -237q0 -130 24 -193q37 -97 144 -97h12v-114z" />
    <glyph glyph-name="uFEEB" unicode="&#x647;" horiz-adv-x="621" arabic-form="initial" 
d="M621 128q0 -37 -20 -88q-24 -62 -56 -62q-23 0 -139 44q-111 42 -143 60q-87 -82 -263 -82h-12v114h12q139 0 172 22q-154 108 -154 258q0 141 72 218q50 53 93 53l-39 34l49 120q155 -132 278 -311q150 -218 150 -380zM590 82q0 95 -169 325q0 -127 -97 -250
q34 -17 130 -46q100 -31 130 -31q6 0 6 2zM386 340q0 71 -37 143q-50 98 -138 98q-40 0 -94 -72q-63 -84 -63 -185q42 -74 191 -134q39 20 86 74q38 44 55 76z" />
    <glyph glyph-name="uFEEC" unicode="&#x647;" horiz-adv-x="615" arabic-form="medial" 
d="M624 0h-160q151 -123 151 -192q0 -47 -91 -75q-70 -22 -129 -22q-139 0 -224.5 79t-107.5 218q-35 -8 -63 -8h-12v114h12q29 0 57 7q13 203 127 352q91 119 150 119q25 0 25 -89q0 -87 -25 -189q-28 -115 -74 -174q22 -26 147 -26h217v-114zM298 524q-71 -96 -103 -171
q-37 -88 -46 -213q58 18 97 49q57 86 57 273q0 41 -5 62zM575 -192q-35 66 -203 155q-32 17 -190 95q-6 -5 -28 -14q11 -123 90 -194.5t203 -71.5q80 0 128 30z" />
    <glyph glyph-name="uFEEE" unicode="&#x648;" horiz-adv-x="602" arabic-form="final" 
d="M614 0q-55 0 -132 10q-7 -46 -39 -129q-39 -101 -77 -145l-170 -60q114 114 185 355q-79 27 -141 87q-109 106 -109 274q0 89 55 181q62 104 145 104q175 0 175 -429q0 -69 -5 -134h113v-114zM415 128q15 97 15 184q0 262 -99 325q-116 -75 -116 -292q0 -81 14 -133
q27 -58 186 -84z" />
    <glyph glyph-name="uFEF0" unicode="&#x649;" horiz-adv-x="1521" arabic-form="final" 
d="M1533 0h-12q-95 0 -209 50q-52 23 -174 94q-86 50 -112 50q-25 0 -25 -17q0 -5 177.5 -121t177.5 -154q0 -48 -162 -111q-187 -73 -406 -73q-232 0 -419 90q-238 115 -238 323q0 137 120 223q108 78 250 78q96 0 208 -29l68 -125q-167 114 -301 114q-98 0 -165 -53
q-73 -57 -73 -153q0 -200 246 -302q185 -77 414 -77q222 0 376 65q-65 59 -228 166q-122 80 -122 107q0 36 47 59q39 20 79 20q55 0 216.5 -55t254.5 -55h12v-114z" />
    <glyph glyph-name=".notdef" horiz-adv-x="1024" 
d="M128 0v1401h768v-1401h-768zM256 128h512v1145h-512v-1145z" />
    <glyph glyph-name=".null" 
 />
    <glyph glyph-name="nonmarkingreturn" horiz-adv-x="400" 
 />
    <glyph glyph-name="space" unicode=" " horiz-adv-x="400" 
 />
    <glyph glyph-name="exclam" unicode="!" horiz-adv-x="355" 
d="M355 495q0 -221 -38 -397q0 23 -23 70.5t-42 60.5q60 110 60 188q0 83 -41 239q-52 197 -140 370q40 21 77 155q147 -320 147 -686zM336 -65q0 -30 -21.5 -51.5t-51.5 -21.5q-74 0 -74 73q0 31 21.5 52.5t52.5 21.5q30 0 51.5 -22t21.5 -52z" />
    <glyph glyph-name="percent" unicode="%" horiz-adv-x="763" 
d="M484 879q3 -30 -17.5 -53t-50.5 -26t-54 16.5t-27 49.5q-3 31 17.5 54t51.5 26q30 3 53.5 -17t26.5 -50zM763 1018q-203 -378 -364 -686q-71 -136 -224 -489l-46 96q116 175 231 399q61 119 272 675zM492 -34q7 -72 -68 -79q-30 -3 -53 16.5t-26 49.5t16.5 53t49.5 26
q74 7 81 -66z" />
    <glyph glyph-name="parenleft" unicode="(" horiz-adv-x="411" 
d="M411 1045q-232 -229 -232 -455q0 -305 210 -663l-53 -116q-205 321 -205 705q0 338 280 672v-143z" />
    <glyph glyph-name="parenright" unicode=")" horiz-adv-x="411" 
d="M131 -47q232 229 232 455q0 305 -210 663l53 116q205 -322 205 -705q0 -338 -280 -672v143z" />
    <glyph glyph-name="asterisk" unicode="*" horiz-adv-x="1009" 
d="M1009 443q0 -41 -37.5 -78.5t-79.5 -37.5q-7 0 -73.5 40t-103.5 40q-30 0 -30 -31q0 -11 7 -18q24 -24 99.5 -43t80.5 -24q30 -29 30 -81q0 -108 -108 -108q-53 0 -81 31q-6 5 -26 78.5t-44 98.5q-11 8 -21 8q-22 0 -22 -24q0 -37 39 -104.5t39 -72.5q0 -41 -37.5 -79
t-77.5 -38q-39 0 -75 39t-36 78q0 5 37 72.5t37 104.5q0 17 -11 23q-3 1 -7 1q-9 0 -17 -8q-26 -26 -45 -98.5t-25 -78.5q-29 -30 -80 -30q-108 0 -108 109q0 51 29 79q4 5 80.5 26t99.5 41q12 14 10 32q-2 17 -17 17q-37 0 -106 -40t-76 -40q-41 0 -78.5 37.5t-37.5 78.5
q0 39 38.5 76.5t77.5 37.5q7 0 76 -39.5t106 -39.5q15 0 17 16q2 15 -10 27q-25 25 -101 46t-79 25q-30 29 -30 80q0 108 110 108q50 0 79 -29q6 -6 25 -78.5t45 -98.5q9 -9 17 -9q18 0 18 25q0 37 -37 103.5t-37 71.5q0 40 35.5 79.5t75.5 39.5q41 0 78 -38.5t37 -80.5
q0 -5 -39 -71.5t-39 -103.5q0 -25 23 -25q37 0 64 107q18 72 26 79q27 30 78 30q111 0 111 -109q0 -51 -30 -80q-6 -6 -80 -25.5t-100 -45.5q-7 -7 -7 -16q0 -27 30 -27q37 0 103.5 39.5t73.5 39.5q41 0 79 -37t38 -77zM962 443q0 28 -12 55q-15 34 -39 34l-59 -38
q-61 -39 -137 -39q-45 0 -56 23q-14 28 16 57q60 58 127 73q19 4 69 15q8 7 8 22q0 42 -34.5 77t-76.5 35q-16 0 -23 -8q-5 -24 -17 -71q-19 -72 -71 -122q-25 -24 -45 -25q-34 -2 -34 59q0 78 38 137l38 59q0 22 -36 38q-29 13 -55 13t-54 -13q-34 -15 -34 -38l36 -59
q36 -59 36 -137q0 -44 -11 -55q-7 -2 -13 -2q-23 0 -46 23q-50 50 -71 123q-5 16 -17 70q-6 8 -22 8q-43 0 -77 -34t-34 -77q0 -15 7 -23q37 -7 69 -15q69 -16 126 -73q28 -28 19 -57q-7 -23 -42 -23q-46 0 -129.5 38.5t-71.5 38.5q-22 0 -37 -35q-12 -27 -12 -54
q0 -26 12 -55q15 -36 37 -36q-51 0 56.5 39t144.5 39q35 0 42 -23q9 -32 -19 -60q-58 -58 -126 -73l-69 -15q-7 -7 -7 -21q0 -43 35 -77.5t78 -34.5q14 0 20 7q5 23 17 70q19 71 71 123q25 25 44 25q8 0 15 -4q11 -8 11 -53q0 -67 -72 -196q0 -23 34 -38q28 -13 54 -13
q29 0 56 12q35 15 35 39q0 -16 -4 -16q-8 0 -34 69q-38 102 -38 143q0 47 18 56q24 12 61 -24q48 -48 70 -123q6 -23 18 -70q7 -7 22 -7q43 0 77.5 34t34.5 77q0 15 -8 22q-19 4 -70 15q-68 15 -126 73q-20 20 -20 41q0 9 4 19q14 23 56 23q59 0 104 -21q20 -10 92 -57
q24 0 39 35q12 27 12 56z" />
    <glyph glyph-name="plus" unicode="+" horiz-adv-x="1094" 
d="M1094 401l-42 -79q-232 32 -318 32q-19 0 -85 -4q16 -167 58 -390l-105 -55v442q-169 -17 -424 -69l-54 105l478 18v477l79 -42q-41 -239 -41 -327q0 -24 5 -108h449z" />
    <glyph glyph-name="comma" unicode="," horiz-adv-x="289" 
d="M131 72q0 36 17 69q20 40 53 40q40 0 66 -47q22 -40 22 -83q0 -120 -158 -229l23 84q43 28 94 70q10 15 10 27q0 13 -10 22q0 -15 -19 -27.5t-35 -12.5q-63 0 -63 87z" />
    <glyph glyph-name="hyphen" unicode="-" horiz-adv-x="1094" 
d="M1094 401l-42 -79q-187 26 -331 26q-201 0 -543 -70l-54 105q504 18 970 18z" />
    <glyph glyph-name="period" unicode="." horiz-adv-x="278" 
d="M278 68q0 -30 -21.5 -52t-51.5 -22t-52 22t-22 52t22 51.5t52 21.5t51.5 -21.5t21.5 -51.5z" />
    <glyph glyph-name="slash" unicode="/" horiz-adv-x="739" 
d="M689 1047q-163 -378 -303 -716q-54 -131 -181 -506l-53 91q101 190 195 418q51 125 211 697z" />
    <glyph glyph-name="zero" unicode="0" horiz-adv-x="494" 
d="M494 462q0 -198 -118 -308l27 -28q-36 -11 -65 -11q-92 0 -152 79q-55 73 -55 168q0 90 58 188q67 113 158 113q75 0 114 -66q33 -55 33 -135zM424 504q0 108 -55 108q-42 0 -89 -89q-56 -107 -56 -257q0 -77 25 -77q22 0 38 19l-31 46q9 -4 20 -4q66 0 111 98
q37 81 37 156z" />
    <glyph glyph-name="zero" unicode="&#x6f0;" horiz-adv-x="494" 
d="M494 462q0 -198 -118 -308l27 -28q-36 -11 -65 -11q-92 0 -152 79q-55 73 -55 168q0 90 58 188q67 113 158 113q75 0 114 -66q33 -55 33 -135zM424 504q0 108 -55 108q-42 0 -89 -89q-56 -107 -56 -257q0 -77 25 -77q22 0 38 19l-31 46q9 -4 20 -4q66 0 111 98
q37 81 37 156z" />
    <glyph glyph-name="zero" unicode="&#x660;" horiz-adv-x="494" 
d="M494 462q0 -198 -118 -308l27 -28q-36 -11 -65 -11q-92 0 -152 79q-55 73 -55 168q0 90 58 188q67 113 158 113q75 0 114 -66q33 -55 33 -135zM424 504q0 108 -55 108q-42 0 -89 -89q-56 -107 -56 -257q0 -77 25 -77q22 0 38 19l-31 46q9 -4 20 -4q66 0 111 98
q37 81 37 156z" />
    <glyph glyph-name="one" unicode="1" horiz-adv-x="368" 
d="M323 507q0 -315 -70 -607l-66 63q30 267 30 459q0 317 -86 558l112 129q80 -264 80 -602z" />
    <glyph glyph-name="one" unicode="&#x6f1;" horiz-adv-x="368" 
d="M323 507q0 -315 -70 -607l-66 63q30 267 30 459q0 317 -86 558l112 129q80 -264 80 -602z" />
    <glyph glyph-name="one" unicode="&#x661;" horiz-adv-x="368" 
d="M323 507q0 -315 -70 -607l-66 63q30 267 30 459q0 317 -86 558l112 129q80 -264 80 -602z" />
    <glyph glyph-name="two" unicode="2" horiz-adv-x="988" 
d="M988 605q0 -191 -138.5 -324.5t-330.5 -133.5q-80 0 -146 37q-47 27 -67 56q-17 -188 -63 -340l-56 63q30 267 30 459q0 317 -86 558l108 132q79 -267 79 -605q0 -82 54 -151q73 -94 214 -94q140 0 249 102t109 241q0 142 -196 270l49 119q191 -155 191 -389z" />
    <glyph glyph-name="two" unicode="&#x6f2;" horiz-adv-x="988" 
d="M988 605q0 -191 -138.5 -324.5t-330.5 -133.5q-80 0 -146 37q-47 27 -67 56q-17 -188 -63 -340l-56 63q30 267 30 459q0 317 -86 558l108 132q79 -267 79 -605q0 -82 54 -151q73 -94 214 -94q140 0 249 102t109 241q0 142 -196 270l49 119q191 -155 191 -389z" />
    <glyph glyph-name="two" unicode="&#x662;" horiz-adv-x="988" 
d="M988 605q0 -191 -138.5 -324.5t-330.5 -133.5q-80 0 -146 37q-47 27 -67 56q-17 -188 -63 -340l-56 63q30 267 30 459q0 317 -86 558l108 132q79 -267 79 -605q0 -82 54 -151q73 -94 214 -94q140 0 249 102t109 241q0 142 -196 270l49 119q191 -155 191 -389z" />
    <glyph glyph-name="three" unicode="3" horiz-adv-x="983" 
d="M983 605q0 -103 -55 -200q-64 -113 -160 -113q-106 0 -159 112q-23 -119 -89 -192q-53 -58 -95 -58q-67 0 -124 86q-17 -188 -58 -340l-56 63q30 267 30 459q0 317 -86 558l112 117q70 -252 70 -590q0 -78 33 -146q48 -99 147 -99q30 0 44 137q9 87 9 163q0 254 -81 465
l133 -66q21 -76 27 -309q6 -207 19 -222q25 -29 122 -29q86 0 132 61q41 54 41 143q0 142 -196 270l49 119q191 -155 191 -389z" />
    <glyph glyph-name="three" unicode="&#x6f3;" horiz-adv-x="983" 
d="M983 605q0 -103 -55 -200q-64 -113 -160 -113q-106 0 -159 112q-23 -119 -89 -192q-53 -58 -95 -58q-67 0 -124 86q-17 -188 -58 -340l-56 63q30 267 30 459q0 317 -86 558l112 117q70 -252 70 -590q0 -78 33 -146q48 -99 147 -99q30 0 44 137q9 87 9 163q0 254 -81 465
l133 -66q21 -76 27 -309q6 -207 19 -222q25 -29 122 -29q86 0 132 61q41 54 41 143q0 142 -196 270l49 119q191 -155 191 -389z" />
    <glyph glyph-name="three" unicode="&#x663;" horiz-adv-x="983" 
d="M983 605q0 -103 -55 -200q-64 -113 -160 -113q-106 0 -159 112q-23 -119 -89 -192q-53 -58 -95 -58q-67 0 -124 86q-17 -188 -58 -340l-56 63q30 267 30 459q0 317 -86 558l112 117q70 -252 70 -590q0 -78 33 -146q48 -99 147 -99q30 0 44 137q9 87 9 163q0 254 -81 465
l133 -66q21 -76 27 -309q6 -207 19 -222q25 -29 122 -29q86 0 132 61q41 54 41 143q0 142 -196 270l49 119q191 -155 191 -389z" />
    <glyph glyph-name="four" unicode="4" horiz-adv-x="970" 
d="M1008 362q-84 -97 -134 -137q-139 -111 -291 -111q-187 0 -277 126q-17 -188 -63 -340l-56 63q30 267 30 459q0 317 -86 558l112 117q75 -252 75 -590q0 -90 49 -166q71 -110 216 -110q-52 23 -110 102q-86 118 -86 276q0 446 276 446q142 0 254 -126l-31 -128
q-92 192 -242 224q-99 -94 -134 -227q-23 -87 -23 -231q0 -303 222 -303q159 0 299 229v-131z" />
    <glyph glyph-name="four" unicode="&#x6f4;" horiz-adv-x="970" 
d="M1008 362q-84 -97 -134 -137q-139 -111 -291 -111q-187 0 -277 126q-17 -188 -63 -340l-56 63q30 267 30 459q0 317 -86 558l112 117q75 -252 75 -590q0 -90 49 -166q71 -110 216 -110q-52 23 -110 102q-86 118 -86 276q0 446 276 446q142 0 254 -126l-31 -128
q-92 192 -242 224q-99 -94 -134 -227q-23 -87 -23 -231q0 -303 222 -303q159 0 299 229v-131z" />
    <glyph glyph-name="four" unicode="&#x664;" horiz-adv-x="970" 
d="M1008 362q-84 -97 -134 -137q-139 -111 -291 -111q-187 0 -277 126q-17 -188 -63 -340l-56 63q30 267 30 459q0 317 -86 558l112 117q75 -252 75 -590q0 -90 49 -166q71 -110 216 -110q-52 23 -110 102q-86 118 -86 276q0 446 276 446q142 0 254 -126l-31 -128
q-92 192 -242 224q-99 -94 -134 -227q-23 -87 -23 -231q0 -303 222 -303q159 0 299 229v-131z" />
    <glyph glyph-name="five" unicode="5" horiz-adv-x="1028" 
d="M985 96q-28 -78 -86 -131q-65 -61 -141 -61q-160 0 -210 192q-43 -196 -196 -196q-119 0 -186 144q-35 75 -35 167q0 372 444 722q-16 11 -50 32l53 129q196 -108 321.5 -324.5t125.5 -441.5q0 -122 -40 -232zM968 228q0 181 -112 387t-263 305l21 -110
q-294 -236 -385 -416q-55 -109 -55 -197q0 -86 50.5 -135.5t136.5 -49.5q57 0 97 29q44 32 44 87q0 111 -14 341l91 -75q-13 -132 -1 -209q26 -169 203 -169q50 0 98 24q89 44 89 188z" />
    <glyph glyph-name="five" unicode="&#x6f5;" horiz-adv-x="1028" 
d="M985 96q-28 -78 -86 -131q-65 -61 -141 -61q-160 0 -210 192q-43 -196 -196 -196q-119 0 -186 144q-35 75 -35 167q0 372 444 722q-16 11 -50 32l53 129q196 -108 321.5 -324.5t125.5 -441.5q0 -122 -40 -232zM968 228q0 181 -112 387t-263 305l21 -110
q-294 -236 -385 -416q-55 -109 -55 -197q0 -86 50.5 -135.5t136.5 -49.5q57 0 97 29q44 32 44 87q0 111 -14 341l91 -75q-13 -132 -1 -209q26 -169 203 -169q50 0 98 24q89 44 89 188z" />
    <glyph glyph-name="five" unicode="&#x665;" horiz-adv-x="1028" 
d="M985 96q-28 -78 -86 -131q-65 -61 -141 -61q-160 0 -210 192q-43 -196 -196 -196q-119 0 -186 144q-35 75 -35 167q0 372 444 722q-16 11 -50 32l53 129q196 -108 321.5 -324.5t125.5 -441.5q0 -122 -40 -232zM968 228q0 181 -112 387t-263 305l21 -110
q-294 -236 -385 -416q-55 -109 -55 -197q0 -86 50.5 -135.5t136.5 -49.5q57 0 97 29q44 32 44 87q0 111 -14 341l91 -75q-13 -132 -1 -209q26 -169 203 -169q50 0 98 24q89 44 89 188z" />
    <glyph glyph-name="six" unicode="6" horiz-adv-x="992" 
d="M992 594l-48 -181q-281 -116 -670 -527h-77q49 85 173 220q101 110 170 168q-60 -31 -151 -12q-268 56 -268 324q0 227 157 348q118 91 251 91q41 0 91 -14l25 -121q-121 47 -167 47q-86 0 -196 -47q-63 -75 -63 -234q0 -141 70 -231q76 -99 214 -99q85 0 142 42
q193 141 347 226z" />
    <glyph glyph-name="six" unicode="&#x6f6;" horiz-adv-x="992" 
d="M992 594l-48 -181q-281 -116 -670 -527h-77q49 85 173 220q101 110 170 168q-60 -31 -151 -12q-268 56 -268 324q0 227 157 348q118 91 251 91q41 0 91 -14l25 -121q-121 47 -167 47q-86 0 -196 -47q-63 -75 -63 -234q0 -141 70 -231q76 -99 214 -99q85 0 142 42
q193 141 347 226z" />
    <glyph glyph-name="six" unicode="&#x666;" horiz-adv-x="992" 
d="M992 594l-48 -181q-281 -116 -670 -527h-77q49 85 173 220q101 110 170 168q-60 -31 -151 -12q-268 56 -268 324q0 227 157 348q118 91 251 91q41 0 91 -14l25 -121q-121 47 -167 47q-86 0 -196 -47q-63 -75 -63 -234q0 -141 70 -231q76 -99 214 -99q85 0 142 42
q193 141 347 226z" />
    <glyph glyph-name="seven" unicode="7" horiz-adv-x="1010" 
d="M1010 931q-61 -28 -112 -61q-123 -79 -182 -179q-98 -164 -98 -537q0 -63 10 -186l-108 -68q-7 88 -22 200q-32 235 -80 385q-88 276 -287 456l93 121q183 -201 319 -723q29 453 409 727z" />
    <glyph glyph-name="seven" unicode="&#x6f7;" horiz-adv-x="1010" 
d="M1010 931q-61 -28 -112 -61q-123 -79 -182 -179q-98 -164 -98 -537q0 -63 10 -186l-108 -68q-7 88 -22 200q-32 235 -80 385q-88 276 -287 456l93 121q183 -201 319 -723q29 453 409 727z" />
    <glyph glyph-name="seven" unicode="&#x667;" horiz-adv-x="1010" 
d="M1010 931q-61 -28 -112 -61q-123 -79 -182 -179q-98 -164 -98 -537q0 -63 10 -186l-108 -68q-7 88 -22 200q-32 235 -80 385q-88 276 -287 456l93 121q183 -201 319 -723q29 453 409 727z" />
    <glyph glyph-name="eight" unicode="8" horiz-adv-x="1010" 
d="M1010 24l-93 -120q-181 200 -318 722q-31 -454 -410 -726l-58 135q61 28 112 61q123 79 182 179q98 164 98 537q0 63 -10 185l108 69q7 -88 22 -200q32 -235 80 -385q88 -276 287 -457z" />
    <glyph glyph-name="eight" unicode="&#x6f8;" horiz-adv-x="1010" 
d="M1010 24l-93 -120q-181 200 -318 722q-31 -454 -410 -726l-58 135q61 28 112 61q123 79 182 179q98 164 98 537q0 63 -10 185l108 69q7 -88 22 -200q32 -235 80 -385q88 -276 287 -457z" />
    <glyph glyph-name="eight" unicode="&#x668;" horiz-adv-x="1010" 
d="M1010 24l-93 -120q-181 200 -318 722q-31 -454 -410 -726l-58 135q61 28 112 61q123 79 182 179q98 164 98 537q0 63 -10 185l108 69q7 -88 22 -200q32 -235 80 -385q88 -276 287 -457z" />
    <glyph glyph-name="nine" unicode="9" horiz-adv-x="963" 
d="M939 44l-81 -144q-133 163 -133 663q0 137 -19 204q-70 246 -234 246q-103 0 -171 -127q-61 -114 -61 -260q0 -107 32 -193q44 -119 133 -119q193 0 238 273l70 -112q-88 -198 -282 -198q-200 0 -272 196q-28 76 -28 139q0 189 86 315q99 144 277 144q96 0 181 -68
q80 -63 118 -156q46 -112 46 -270q0 -251 26 -371q14 -65 74 -162z" />
    <glyph glyph-name="nine" unicode="&#x6f9;" horiz-adv-x="963" 
d="M939 44l-81 -144q-133 163 -133 663q0 137 -19 204q-70 246 -234 246q-103 0 -171 -127q-61 -114 -61 -260q0 -107 32 -193q44 -119 133 -119q193 0 238 273l70 -112q-88 -198 -282 -198q-200 0 -272 196q-28 76 -28 139q0 189 86 315q99 144 277 144q96 0 181 -68
q80 -63 118 -156q46 -112 46 -270q0 -251 26 -371q14 -65 74 -162z" />
    <glyph glyph-name="nine" unicode="&#x669;" horiz-adv-x="963" 
d="M939 44l-81 -144q-133 163 -133 663q0 137 -19 204q-70 246 -234 246q-103 0 -171 -127q-61 -114 -61 -260q0 -107 32 -193q44 -119 133 -119q193 0 238 273l70 -112q-88 -198 -282 -198q-200 0 -272 196q-28 76 -28 139q0 189 86 315q99 144 277 144q96 0 181 -68
q80 -63 118 -156q46 -112 46 -270q0 -251 26 -371q14 -65 74 -162z" />
    <glyph glyph-name="colon" unicode=":" horiz-adv-x="278" 
d="M278 565q0 -30 -21.5 -51.5t-51.5 -21.5t-52 21.5t-22 51.5q0 31 21.5 52.5t52.5 21.5q73 0 73 -74zM278 58q0 -30 -21.5 -52t-51.5 -22t-52 22t-22 52t22 51.5t52 21.5t51.5 -21.5t21.5 -51.5z" />
    <glyph glyph-name="equal" unicode="=" horiz-adv-x="1124" 
d="M1124 344l-970 17l44 78q180 -31 326 -44q11 -1 27 -1q100 0 522 59zM1119 225l-43 -79q-184 33 -326 46q-11 1 -27 1q-100 0 -522 -60l-52 109z" />
    <glyph glyph-name="bracketleft" unicode="[" horiz-adv-x="640" 
d="M539 -101h-325v1645h325v-62h-182v-1521h182v-62z" />
    <glyph glyph-name="bracketright" unicode="]" horiz-adv-x="640" 
d="M419 -101h-284v62h141v1520h-141v61h284v-1643z" />
    <glyph glyph-name="braceleft" unicode="{" horiz-adv-x="981" 
d="M832 -320q-152 27 -249 129q-103 107 -103 257q0 61 26 177q19 85 19 112q0 97 -72 163q-67 62 -166 73v38q239 52 239 219q0 47 -16 122q-27 126 -27 188q0 151 101 257q96 102 248 127v-40q-94 -14 -155 -73q-67 -64 -67 -155q0 -46 13 -115q30 -160 30 -210
q0 -224 -286 -336q283 -116 283 -350q0 -49 -27 -179q-17 -82 -17 -135q0 -180 226 -233v-36z" />
    <glyph glyph-name="braceright" unicode="}" horiz-adv-x="981" 
d="M695 593q-239 -52 -239 -220q0 -52 15 -122q28 -131 28 -187q0 -151 -101 -257q-96 -102 -248 -127v40q94 14 155 73q66 63 66 155q0 48 -12 114q-30 164 -30 211q0 223 285 336q-282 116 -282 349q0 55 26 180q18 87 18 135q0 180 -226 233v36q152 -28 249 -129
q103 -106 103 -257q0 -57 -27 -177q-18 -80 -18 -113q0 -97 73 -162q64 -58 165 -74v-37z" />
    <glyph glyph-name="guillemotleft" unicode="&#xab;" horiz-adv-x="422" 
d="M422 362q-119 -108 -119 -197q34 -68 108 -91l-19 -74q-117 98 -117 212q0 124 119 243zM278 362q-119 -108 -119 -197q34 -68 109 -91l-19 -74q-118 98 -118 212q0 124 119 243z" />
    <glyph glyph-name="periodcentered" unicode="&#xb7;" horiz-adv-x="405" 
d="M326 768q0 -50 -35.5 -85t-85.5 -35q-49 0 -84.5 35.5t-35.5 84.5t34.5 85t83.5 36q51 0 87 -35t36 -86z" />
    <glyph glyph-name="periodcentered" unicode="&#x2219;" horiz-adv-x="405" 
d="M326 768q0 -50 -35.5 -85t-85.5 -35q-49 0 -84.5 35.5t-35.5 84.5t34.5 85t83.5 36q51 0 87 -35t36 -86z" />
    <glyph glyph-name="periodcentered" unicode="&#x2d9;" horiz-adv-x="405" 
d="M326 768q0 -50 -35.5 -85t-85.5 -35q-49 0 -84.5 35.5t-35.5 84.5t34.5 85t83.5 36q51 0 87 -35t36 -86z" />
    <glyph glyph-name="guillemotright" unicode="&#xbb;" horiz-adv-x="422" 
d="M422 243q0 -123 -119 -243l-28 93q119 108 119 198q-34 66 -109 91l20 73q117 -98 117 -212zM278 243q0 -123 -119 -243l-28 93q119 108 119 198q-32 65 -108 91l19 73q117 -98 117 -212z" />
    <glyph glyph-name="multiply" unicode="&#xd7;" horiz-adv-x="709" 
d="M709 -23q-64 -18 -79 -18q-4 0 -4 1q-27 85 -86 206q-67 138 -113 189q-30 -53 -93 -202q-57 -135 -75 -190l-123 9l265 416q-22 30 -116 132q-109 118 -159 155l59 104q129 -162 237 -352q89 155 220 374l51 -64q-173 -185 -252 -342z" />
    <glyph glyph-name="divide" unicode="&#xf7;" horiz-adv-x="946" 
d="M549 772q0 -36 -23.5 -61.5t-59.5 -25.5q-35 0 -60.5 26t-25.5 61q0 36 25 59.5t61 23.5q35 0 59 -24t24 -59zM835 452h-730v83h730v-83zM549 215q0 -36 -23.5 -61t-59.5 -25q-35 0 -60.5 25.5t-25.5 60.5q0 36 25 60.5t61 24.5q83 0 83 -85z" />
    <glyph glyph-name="u060C" unicode="&#x60c;" horiz-adv-x="289" 
d="M289 72q0 -36 -17 -69q-20 -40 -53 -40q-40 0 -66 47q-22 40 -22 83q0 120 158 229l-23 -84q-43 -28 -94 -70q-10 -15 -10 -27q0 -13 10 -22q0 15 19 27.5t35 12.5q63 0 63 -87z" />
    <glyph glyph-name="u061B" unicode="&#x61b;" horiz-adv-x="289" 
d="M289 278q0 -36 -17 -69q-21 -39 -53 -39q-40 0 -66 46q-22 40 -22 83q0 121 158 230l-23 -84q-43 -28 -94 -70q-10 -15 -10 -27q0 -13 10 -22q0 15 19 27.5t35 12.5q63 0 63 -88zM284 0q0 -30 -22 -52t-52 -22t-51.5 22t-21.5 52t21.5 52t51.5 22t52 -22t22 -52z" />
    <glyph glyph-name="u061F" unicode="&#x61f;" horiz-adv-x="791" 
d="M791 949q0 -82 -30 -116l-157 -89q43 35 87 105q52 82 52 140q0 12 -3 24q-8 32 -77 63q-61 27 -101 27q-82 0 -169 -40q-134 -62 -214 -202q-23 -40 3 -73q44 -56 199 -127q160 -73 190 -106q36 -39 36 -121q0 -200 -38 -336q0 23 -23 70.5t-42 60.5q61 112 58 188
q-20 41 -136 94q-148 68 -195 104q-100 78 -100 190q0 127 110 262q120 148 267 148q106 0 193 -79q90 -82 90 -187zM604 -65q0 -73 -74 -73q-30 0 -51.5 21.5t-21.5 51.5t21.5 52t51.5 22q31 0 52.5 -21.5t21.5 -52.5z" />
    <glyph glyph-name="u0621" unicode="&#x621;" horiz-adv-x="508" 
d="M508 167l-49 -92q-158 7 -315 -178l7 83q56 71 132 108q-96 50 -96 113q0 47 74 119.5t121 72.5q77 0 77 -128q0 -36 -10 -72l-46 51q15 34 15 55q0 22 -18 22q-70 0 -128 -40q-51 -35 -51 -64q0 -18 64 -47q61 -28 87 -28q81 0 136 25z" />
    <glyph glyph-name="u0640" unicode="&#x640;" horiz-adv-x="563" 
d="M583 0h-603v114h603v-114z" />
    <glyph glyph-name="u064B" unicode="&#x64b;" 
d="M441 1528l-16 -72l-387 -70v52q77 6 180 18q47 6 223 72zM436 1346q-77 -6 -180 -18q-47 -6 -223 -72l16 72l387 70v-52z" />
    <glyph glyph-name="u064C" unicode="&#x64c;" 
d="M471 1368q35 -19 68 -24l-80 -47l-46 30q-39 -28 -119 -63q-34 17 -140 39q116 41 116 112q0 30 -48 30q-53 0 -191 -77l44 117q52 8 92 8q143 0 143 -96q0 -41 -16 -70q51 19 77 35q-47 54 -53 109q-3 28 30 53q72 54 157 54q34 0 48 -10q29 -13 29 -55q0 -78 -111 -145
zM428 1533q-54 0 -54 -32q0 -34 53 -104q113 65 113 88q0 19 -48 35q-39 13 -64 13z" />
    <glyph glyph-name="u064D" unicode="&#x64d;" 
d="M443 -718l-16 -72l-387 -70v52q77 6 180 18q47 6 223 72zM438 -900q-77 -6 -180 -18q-47 -6 -223 -72l16 72l387 70v-52z" />
    <glyph glyph-name="u064E" unicode="&#x64e;" 
d="M441 1398l-16 -72l-387 -70v52q77 6 180 18q47 6 223 72z" />
    <glyph glyph-name="u064F" unicode="&#x64f;" 
d="M356 1477l-50 -86l-58 6q-23 -43 -81 -125q-44 -10 -133 -40q28 18 91 90q54 61 67 83q-78 23 -112 74q-19 28 -4 66q27 70 89 114q49 35 81 35q34 0 57 -31q20 -28 20 -63q0 -64 -42 -137q43 0 75 14zM246 1625q-37 0 -82 -19q-56 -24 -56 -54q0 -40 115 -84
q57 106 57 140q0 17 -34 17z" />
    <glyph glyph-name="u0650" unicode="&#x650;" 
d="M442 -718l-16 -72l-387 -70v52q77 6 180 18q47 6 223 72z" />
    <glyph glyph-name="u0651" unicode="&#x651;" 
d="M556 1435q0 -65 -40.5 -109.5t-105.5 -44.5q-37 0 -74 40q-45 -56 -118 -56q-77 0 -124 44t-47 120q0 122 139 187l-53 -101q-56 -39 -56 -86q0 -45 55 -71q43 -21 94 -21q90 0 90 37q0 69 -28 197l64 56q1 -55 6 -163q10 -117 70 -117q50 0 90 30q0 46 -34 137
q-32 87 -62 129l112 -86q22 -69 22 -122z" />
    <glyph glyph-name="u0652" unicode="&#x652;" 
d="M296 1361q0 -50 -65 -82q-54 -27 -109 -27q-67 0 -67 75q0 69 93 127q-24 13 -70 14l65 48q16 -4 55 -23l29 19l31 -30l-26 -14q64 -60 64 -107zM250 1336q0 26 -65 93q-95 -73 -95 -98q0 -16 36 -26q28 -8 48 -8q76 0 76 39z" />
    <glyph glyph-name="zeronojoin" unicode="&#x200c;" horiz-adv-x="37" 
 />
    <glyph glyph-name="zerojoin" unicode="&#x200d;" horiz-adv-x="37" 
 />
    <glyph glyph-name="lefttoright" unicode="&#x200e;" horiz-adv-x="37" 
d="M247 1317l-109 -112l-28 23l72 72h-145v-1300h-37v1335h177l-67 68l28 26z" />
    <glyph glyph-name="righttoleft" unicode="&#x200f;" horiz-adv-x="37" 
d="M37 0h-37v1300h-145l70 -72l-23 -23l-114 112l114 112l23 -26l-67 -68h179v-1335z" />
    <glyph glyph-name="quoteleft" unicode="&#x2018;" horiz-adv-x="491" 
d="M467 1486q-89 -59 -154 -145q-76 -101 -76 -193q0 -55 32 -98q39 47 90 47q102 0 102 -100q0 -59 -48 -92q-43 -30 -104 -30q-82 0 -133 50.5t-51 132.5q0 141 108 283q97 127 234 200v-55z" />
    <glyph glyph-name="quoteright" unicode="&#x2019;" horiz-adv-x="491" 
d="M444 1353q0 -143 -107 -281q-91 -118 -232 -200v56q228 162 228 338q0 62 -33 101q-33 -49 -95 -49q-41 0 -69.5 28t-28.5 69q0 58 49 93q43 31 104 31q86 0 135 -50t49 -136z" />
    <glyph glyph-name="quotedblleft" unicode="&#x201c;" horiz-adv-x="650" 
d="M572 1146q-13 -6 -41 -26q-52 -51 -52 -95q82 -22 82 -112q0 -45 -31.5 -78t-76.5 -33q-52 0 -84 42q-29 38 -29 92q0 201 203 359q0 -83 1 -93q4 -40 28 -56zM302 1146q-13 -6 -41 -26q-52 -51 -52 -95q82 -22 82 -112q0 -45 -31.5 -78t-76.5 -33q-52 0 -84 42
q-29 38 -29 92q0 201 203 359q0 -83 1 -93q4 -40 28 -56z" />
    <glyph glyph-name="quotedblright" unicode="&#x201d;" horiz-adv-x="650" 
d="M580 1151q0 -201 -203 -359q0 83 -1 93q-4 40 -28 56q13 6 41 26q52 51 52 95q-82 22 -82 112q0 46 31 78.5t77 32.5q54 0 85 -41q28 -37 28 -93zM310 1151q0 -201 -203 -359q0 83 -1 93q-4 40 -28 56q13 6 41 26q52 51 52 95q-82 22 -82 112q0 46 31 78.5t77 32.5
q54 0 85 -41q28 -37 28 -93z" />
    <glyph glyph-name="guilsinglleft" unicode="&#x2039;" horiz-adv-x="512" 
d="M457 966l-228 -382l222 -380v-75l-383 455l389 457v-75z" />
    <glyph glyph-name="guilsinglright" unicode="&#x203a;" horiz-adv-x="512" 
d="M457 586l-393 -457v75l231 382l-222 381v77z" />
    <glyph glyph-name="uE820" unicode="&#xe820;" 
d="M450 933l-16 -72l-387 -70v52q77 6 180 18q47 6 223 72z" />
    <glyph glyph-name="uE821" unicode="&#xe821;" 
d="M375 1054l-50 -86l-58 6q-23 -43 -81 -125q-44 -10 -133 -40q28 18 91 90q54 61 67 83q-78 23 -112 74q-19 28 -4 66q27 70 89 114q49 35 81 35q34 0 57 -31q20 -28 20 -63q0 -64 -42 -137q43 0 75 14zM265 1202q-37 0 -82 -19q-56 -24 -56 -54q0 -40 115 -84
q57 106 57 140q0 17 -34 17z" />
    <glyph glyph-name="uE822" unicode="&#xe822;" 
d="M268 920q0 -50 -65 -82q-54 -27 -109 -27q-67 0 -67 75q0 69 93 127q-24 13 -70 14l65 48q16 -4 55 -23l29 19l31 -30l-26 -14q64 -60 64 -107zM222 895q0 26 -65 93q-95 -73 -95 -98q0 -16 36 -26q28 -8 48 -8q76 0 76 39z" />
    <glyph glyph-name="uE823" unicode="&#xe823;" 
d="M432 1082l-16 -72l-387 -70v52q77 6 180 18q47 6 223 72zM427 900q-77 -6 -180 -18q-47 -6 -223 -72l16 72l387 70v-52z" />
    <glyph glyph-name="uE824" unicode="&#xe824;" 
d="M527 941q35 -19 68 -24l-80 -47l-46 30q-39 -28 -119 -63q-34 17 -140 39q116 41 116 112q0 30 -48 30q-53 0 -191 -77l44 117q52 8 92 8q143 0 143 -96q0 -41 -16 -70q51 19 77 35q-47 54 -53 109q-3 28 30 53q72 54 157 54q34 0 48 -10q29 -13 29 -55q0 -78 -111 -145z
M484 1106q-54 0 -54 -32q0 -34 53 -104q113 65 113 88q0 19 -48 35q-39 13 -64 13z" />
    <glyph glyph-name="uE825" unicode="&#xe825;" 
d="M556 975q0 -65 -40.5 -109.5t-105.5 -44.5q-37 0 -74 40q-45 -56 -118 -56q-77 0 -124 44t-47 120q0 122 139 187l-53 -101q-56 -39 -56 -86q0 -45 55 -71q43 -21 94 -21q90 0 90 37q0 69 -28 197l64 56q1 -55 6 -163q10 -117 70 -117q50 0 90 30q0 46 -34 137
q-32 87 -62 129l112 -86q22 -69 22 -122z" />
    <glyph glyph-name="uE826" unicode="&#xe826;" 
d="M349 -190l-16 -72l-387 -70v52q77 6 180 18q47 6 223 72z" />
    <glyph glyph-name="uE827" unicode="&#xe827;" 
d="M320 -197l-16 -72l-387 -70v52q77 6 180 18q47 6 223 72zM315 -379q-77 -6 -180 -18q-47 -6 -223 -72l16 72l387 70v-52z" />
    <glyph glyph-name="uE828" unicode="&#xe828;" 
d="M570 996q0 -65 -40.5 -109.5t-105.5 -44.5q-37 0 -74 40q-45 -56 -118 -56q-77 0 -124 44t-47 120q0 122 139 187l-53 -101q-56 -39 -56 -86q0 -45 55 -71q43 -21 94 -21q90 0 90 37q0 69 -28 197l64 56q1 -55 6 -163q10 -117 70 -117q50 0 90 30q0 46 -34 137
q-32 87 -62 129l112 -86q22 -69 22 -122zM491 1367l-16 -72l-387 -70v52q77 6 180 18q47 6 223 72z" />
    <glyph glyph-name="uE829" unicode="&#xe829;" 
d="M570 996q0 -65 -40.5 -109.5t-105.5 -44.5q-37 0 -74 40q-45 -56 -118 -56q-77 0 -124 44t-47 120q0 122 139 187l-53 -101q-56 -39 -56 -86q0 -45 55 -71q43 -21 94 -21q90 0 90 37q0 69 -28 197l64 56q1 -55 6 -163q10 -117 70 -117q50 0 90 30q0 46 -34 137
q-32 87 -62 129l112 -86q22 -69 22 -122zM375 1428l-50 -86l-58 6q-23 -43 -81 -125q-44 -10 -133 -40q28 18 91 90q54 61 67 83q-78 23 -112 74q-19 28 -4 66q27 70 89 114q49 35 81 35q34 0 57 -31q20 -28 20 -63q0 -64 -42 -137q43 0 75 14zM265 1576q-37 0 -82 -19
q-56 -24 -56 -54q0 -40 115 -84q57 106 57 140q0 17 -34 17z" />
    <glyph glyph-name="uE82A" unicode="&#xe82a;" 
d="M570 996q0 -65 -40.5 -109.5t-105.5 -44.5q-37 0 -74 40q-45 -56 -118 -56q-77 0 -124 44t-47 120q0 122 139 187l-53 -101q-56 -39 -56 -86q0 -45 55 -71q43 -21 94 -21q90 0 90 37q0 69 -28 197l64 56q1 -55 6 -163q10 -117 70 -117q50 0 90 30q0 46 -34 137
q-32 87 -62 129l112 -86q22 -69 22 -122zM404 1444l-16 -72l-387 -70v52q77 6 180 18q47 6 223 72zM399 1262q-77 -6 -180 -18q-47 -6 -223 -72l16 72l387 70v-52z" />
    </font>
</defs>
</svg>
